<svg xmlns="http://www.w3.org/2000/svg" viewBox="0 0 512 512"><path d="M0 0h512v512H0z"/><path fill="#fff" d="M357.43 347.044l-.303.014-.236-.71-1.058.767c-10.188.47-18.556 1.721-23.069.259-20.55-6.67-31.583-29.415-24.64-50.81 6.94-21.39 29.226-33.324 49.777-26.654 4.885 1.585 11.27 9.008 19.595 16.498.03-.567.046-1.132.067-1.698l115.731-81.984-142.852 1.708.935 2.878c-2.677 9.507-4.145 17.543-6.903 21.26-12.866 17.354-37.942 20.574-56.011 7.176-18.068-13.39-22.286-38.318-9.422-55.677 3.06-4.13 12.149-7.82 21.913-13.338a124.09 124.09 0 0 0-2.76-1.062L256 30.325l-42.197 135.353c-.137.05-.273.1-.41.147.103.07.2.133.3.203l-.217.679h1.242c8.528 5.615 16.051 9.521 18.842 13.357 12.712 17.47 8.275 42.364-9.91 55.595-18.187 13.23-43.233 9.798-55.944-7.673-3.02-4.156-3.827-13.907-6.164-24.86-.343.426-.67.866-1.01 1.296l-141.826-1.699 116.574 82.583.68-2.088c7.855-6.241 13.823-12.012 18.282-13.437 20.578-6.584 42.817 5.45 49.66 26.874 6.847 21.424-4.282 44.122-24.863 50.703-4.895 1.565-14.42-.74-25.56-1.964.42.655.87 1.284 1.3 1.93l-45.437 134.351 114.562-85.35-1.555-1.128c-3.533-9.445-7.223-16.941-7.21-21.64.07-21.606 18.356-39.066 40.849-38.99 22.488.07 40.665 17.643 40.595 39.246-.014 5.143-5.143 13.497-9.73 23.728.698-.183 1.378-.4 2.067-.593l113.726 84.724-45.437-134.337c.082-.094.153-.19.222-.29zm-101.427-50.441c-11.945 0-21.63-9.688-21.63-21.634 0-11.95 9.685-21.633 21.63-21.633 11.946 0 21.63 9.684 21.63 21.633 0 11.946-9.681 21.634-21.63 21.634z"/></svg>