<?xml version="1.0" encoding="UTF-8" standalone="no"?>
<svg
   xmlns:dc="http://purl.org/dc/elements/1.1/"
   xmlns:cc="http://creativecommons.org/ns#"
   xmlns:rdf="http://www.w3.org/1999/02/22-rdf-syntax-ns#"
   xmlns:svg="http://www.w3.org/2000/svg"
   xmlns="http://www.w3.org/2000/svg"
   xmlns:sodipodi="http://sodipodi.sourceforge.net/DTD/sodipodi-0.dtd"
   xmlns:inkscape="http://www.inkscape.org/namespaces/inkscape"
   viewBox="0 0 512 512"
   id="svg2"
   version="1.1"
   inkscape:version="0.91 r13725"
   sodipodi:docname="bowel.svg">
  <metadata
     id="metadata12">
    <rdf:RDF>
      <cc:Work
         rdf:about="">
        <dc:format>image/svg+xml</dc:format>
        <dc:type
           rdf:resource="http://purl.org/dc/dcmitype/StillImage" />
      </cc:Work>
    </rdf:RDF>
  </metadata>
  <defs
     id="defs10" />
  <sodipodi:namedview
     pagecolor="#ffffff"
     bordercolor="#666666"
     borderopacity="1"
     objecttolerance="10"
     gridtolerance="10"
     guidetolerance="10"
     inkscape:pageopacity="0"
     inkscape:pageshadow="2"
     inkscape:window-width="1855"
     inkscape:window-height="1056"
     id="namedview8"
     showgrid="false"
     inkscape:zoom="0.69823582"
     inkscape:cx="195.77504"
     inkscape:cy="75.804459"
     inkscape:window-x="65"
     inkscape:window-y="24"
     inkscape:window-maximized="1"
     inkscape:current-layer="svg2" />
  <path
     d="m 0,-9.0000004e-7 512,0 L 512,512 0,512 Z"
     id="path4"
     inkscape:connector-curvature="0"
     sodipodi:nodetypes="ccccc" />
  <path
     style="color:#000000;font-style:normal;font-variant:normal;font-weight:normal;font-stretch:normal;font-size:medium;line-height:normal;font-family:sans-serif;text-indent:0;text-align:start;text-decoration:none;text-decoration-line:none;text-decoration-style:solid;text-decoration-color:#000000;letter-spacing:normal;word-spacing:normal;text-transform:none;direction:ltr;block-progression:tb;writing-mode:lr-tb;baseline-shift:baseline;text-anchor:start;white-space:normal;clip-rule:nonzero;display:inline;overflow:visible;visibility:visible;opacity:1;isolation:auto;mix-blend-mode:normal;color-interpolation:sRGB;color-interpolation-filters:linearRGB;solid-color:#000000;solid-opacity:1;fill:#ffffff;fill-opacity:1;fill-rule:nonzero;stroke:none;stroke-width:15;stroke-linecap:round;stroke-linejoin:bevel;stroke-miterlimit:4;stroke-dasharray:none;stroke-dashoffset:0;stroke-opacity:1;color-rendering:auto;image-rendering:auto;shape-rendering:auto;text-rendering:auto;enable-background:accumulate"
     d="m 398.17768,28.285058 c -5.14807,-0.03484 -10.47824,0.461456 -15.88086,1.517578 -14.40697,2.816331 -26.83485,9.126998 -35.57617,17.646485 -2.82116,2.749562 -5.27253,5.797148 -7.23242,9.050781 -5.39574,-0.494716 -11.06026,-0.102663 -16.75195,1.263672 -10.96639,2.632564 -20.22328,8.417252 -26.42969,16.105469 -1.21614,1.506499 -2.30968,3.103992 -3.27344,4.767578 -7.67508,-2.242555 -16.24187,-3.449219 -25.30664,-3.449219 -10.15119,0 -19.6817,1.508628 -28.0293,4.296875 -1.72073,-2.010212 -3.6892,-3.831772 -5.8457,-5.412109 -7.46897,-5.473442 -17.24298,-8.56836 -27.88672,-8.56836 -2.34495,0 -4.64364,0.158392 -6.88867,0.451172 -1.42188,-3.607523 -3.47635,-7.055708 -5.98438,-10.199218 -6.76937,-8.484629 -16.97697,-15.448309 -29.30859,-19.675782 -12.33161,-4.227471 -24.6637,-4.990245 -35.21484,-2.443359 -10.55114,2.546885 -19.87423,8.851047 -23.33203,18.9375 -0.15122,0.441098 -0.27351,0.884917 -0.39844,1.328125 -7.879392,-0.890528 -15.92894,1.088292 -22.976564,5.113281 -9.686353,5.532005 -17.85394,14.850741 -22.792968,26.677735 -3.273495,7.838692 -4.75348,15.907228 -4.550782,23.597648 -14.638323,7.35146 -24.378906,24.60965 -24.378906,43.7461 0,15.79899 6.640668,30.31738 17.193359,39.03906 -0.586549,1.61874 -1.090983,3.27979 -1.492187,4.97852 -2.609183,11.04744 -1.744388,23.97405 2.765625,36.87695 4.510017,12.9029 11.885434,23.55187 20.808594,30.56836 2.403656,1.89005 4.973549,3.51557 7.644531,4.82812 0.01665,2.84901 0.262057,5.75286 0.765625,8.68164 1.871249,10.88331 6.874733,20.30842 13.921875,26.9043 1.993626,1.86596 4.188108,3.49866 6.523437,4.85742 -0.371429,1.45216 -0.702853,2.92419 -0.980468,4.42188 -2.445654,13.19389 -0.748005,25.79344 4.326169,35.77148 5.07418,9.97805 13.86532,17.50157 25.09766,19.0332 11.23235,1.53166 22.30833,-3.28162 30.74023,-11.41796 8.43191,-8.13635 14.59927,-19.66353 17.04493,-32.85743 2.44565,-13.19389 0.74996,-25.79149 -4.32422,-35.76953 -5.07417,-9.97804 -13.86532,-17.4996 -25.09766,-19.03125 -0.20796,-0.0284 -0.41521,-0.0404 -0.62305,-0.0645 -0.11855,-1.07155 -0.25968,-2.14691 -0.44531,-3.22656 -1.87125,-10.88333 -6.87083,-20.31038 -13.91797,-26.90625 -2.70948,-2.53599 -5.7839,-4.65586 -9.09179,-6.21485 -0.0537,-7.51604 -1.44457,-15.46584 -4.22071,-23.4082 -3.65771,-10.46451 -9.19959,-19.44678 -15.92383,-26.21094 6.04277,-8.42136 9.60547,-19.29131 9.60547,-30.85351 0,-3.91008 -0.4098,-7.74073 -1.18164,-11.42578 9.14923,-5.6026 16.84072,-14.61792 21.57031,-25.94336 2.29226,-5.48904 3.70006,-11.09061 4.2754,-16.597656 2.00774,0.8935 4.08353,1.716506 6.22656,2.451166 8.62779,2.95774 17.25307,4.21276 25.27148,3.83203 2.01787,6.07976 6.19748,11.3337 11.45899,15.18946 7.46896,5.47344 17.24102,8.57031 27.88476,8.57031 4.06794,0 8.00651,-0.45581 11.74024,-1.32031 3.06739,3.34176 6.89092,6.22478 11.12304,8.5664 10.43975,5.77631 24.0043,9.01953 38.89844,9.01953 14.89414,0 28.45869,-3.24322 38.89844,-9.01953 4.98983,-2.76086 9.4166,-6.26925 12.69336,-10.40429 6.22197,0.9479 12.87556,0.68235 19.5664,-0.92383 10.9664,-2.63257 20.22328,-8.4153 26.42969,-16.10352 0.614,-0.76058 1.18823,-1.55055 1.74024,-2.35351 6.76803,1.49936 14.13211,1.95194 21.76953,1.27148 -0.45798,3.6501 -0.69336,7.4153 -0.69336,11.26563 0,15.37647 3.76539,29.40299 10.39062,40.10937 0.83137,1.3435 1.71808,2.64179 2.65625,3.88477 -4.52256,7.02029 -7.33098,15.56787 -7.75976,24.88281 -0.7245,15.73913 5.45062,30.83618 15.77929,40.90625 -3.97334,4.0157 -7.30503,8.8188 -9.70898,14.2832 -5.31711,12.08627 -5.18284,25.27359 -0.55859,36.36719 -8.85202,4.54377 -16.31194,10.62062 -21.9336,17.62109 -7.16473,-3.165 -15.39395,-4.90039 -24.12695,-4.90039 -12.74689,0 -24.42144,3.69433 -33.27539,10.14063 -2.62294,1.90968 -5.00309,4.10681 -7.06641,6.52929 -8.7845,-6.58632 -20.44638,-10.48046 -32.85156,-10.48046 -24.13973,0 -45.48671,14.71716 -48.21289,35.41211 -0.99466,1.52213 -1.93347,3.10698 -2.8086,4.74804 -6.74144,12.64205 -10.58789,29.22568 -10.58789,47.46485 0,18.23917 3.84644,34.82474 10.58789,47.46679 2.15459,4.04035 6.05307,15.99757 10.16407,26.51758 2.0555,5.26001 4.20745,10.26833 6.84375,14.48828 1.31814,2.10998 2.73962,4.0538 4.70312,5.77735 1.96351,1.72354 4.80455,3.38672 8.33594,3.38672 3.53139,0 6.37243,-1.66318 8.33594,-3.38672 1.9635,-1.72355 3.38498,-3.66737 4.70312,-5.77735 2.6363,-4.21995 4.78825,-9.22827 6.84375,-14.48828 4.111,-10.52001 8.00946,-22.47724 10.16407,-26.51758 6.74146,-12.64205 10.58789,-29.22762 10.58789,-47.46679 0,-3.76437 -0.17287,-7.45341 -0.49219,-11.05664 9.64533,-3.39391 17.82012,-9.29146 23.07422,-16.88672 8.52867,5.46437 19.28742,8.56445 30.95117,8.56445 11.77114,0 22.62369,-3.15615 31.18945,-8.71484 3.9758,2.28213 8.37856,3.94464 12.99219,4.96289 12.41467,2.73996 26.63102,1.15258 40.2207,-5.02735 13.58969,-6.17994 24.23152,-15.89754 30.49805,-27.13281 6.26652,-11.23528 8.108,-24.41964 2.99023,-36.05273 -0.6062,-1.37795 -1.29926,-2.69285 -2.06054,-3.95118 3.7258,-3.89646 6.86245,-8.49604 9.15234,-13.70117 7.93984,-18.04798 3.72895,-38.54831 -9.45312,-50.86328 6.09996,-7.61743 9.95233,-17.58957 10.46093,-28.63867 0.81046,-17.60674 -7.01082,-34.41157 -19.62695,-44.26953 4.62099,-9.74418 7.19141,-21.51002 7.19141,-34.20117 0,-15.37648 -3.76539,-29.402993 -10.39063,-40.109375 -3.02737,-4.89223 -6.78978,-9.170957 -11.12305,-12.388672 0.37767,-2.986287 0.31704,-6.036903 -0.2832,-9.107421 -2.27073,-11.615945 -11.42243,-20.153357 -22.72851,-24.753907 -7.0663,-2.875337 -15.14058,-4.408736 -23.72071,-4.466797 z m -0.11328,15.03125 c 6.87178,0.0615 13.13723,1.280208 18.17969,3.332032 8.06794,3.282909 12.91564,9.320276 13.66211,13.736328 0.74647,4.416052 -1.80976,11.201718 -4.70703,15.09375 -2.89727,3.892033 -9.13976,8.140978 -13.15039,10.224609 -4.01063,2.083631 -14.21035,5.515247 -19.39258,6.527347 -4.73704,0.92515 -13.44438,1.65668 -18.26563,0.36523 -4.82125,-1.29145 -7.34273,-0.46364 -11.27539,-11.669921 -1.99886,8.96299 -5.69629,15.887991 -11.27539,20.554687 -3.94061,3.97103 -9.63461,7.32706 -16.45703,8.96484 -3.34526,0.80306 -6.63164,1.09929 -9.74805,1.00586 -13.77458,0.28166 -18.39582,7.35614 -26.27343,11.7832 -7.87761,4.42706 -18.98332,7.14453 -31.63477,7.14453 -12.65145,0 -25.17235,-4.53773 -31.63672,-7.14453 -6.46437,-2.6068 -6.72851,-14.48047 -6.72851,-14.48047 -0.20325,1.5244 -16.76764,5.93266 -23.39649,5.35938 -6.62885,-0.57328 -14.48278,-2.34476 -19.01758,-5.66797 -2.20531,-1.61611 -3.83466,-3.36169 -4.92968,-5.18164 -6.12942,-14.499523 -10.26636,-11.747866 -16.03711,-12.93359 -5.77075,-1.18572 -12.82784,-0.618993 -19.76758,-2.998047 -3.94987,-1.354075 -4.52336,-1.887146 -10.79883,-5.033203 -6.27547,-3.146057 -14.2909,-1.725674 -19.30859,0.847656 3.20793,2.215583 4.00391,3.972358 4.23828,8.441408 0.23437,4.46904 -0.72781,12.055366 -3.33594,18.300776 -3.08672,7.39145 -7.83687,13.30007 -13.05078,17.2207 -7.026952,-12.81928 -19.183056,-21.57422 -33.658204,-21.57422 -0.23698,0 -0.46935,0.0168 -0.705078,0.0215 0.278476,-4.54043 1.33562,-9.340796 3.316406,-14.083986 3.736031,-8.946194 9.907143,-15.72688 16.390625,-19.429683 4.497446,-2.188461 8.069575,-3.281147 13.328121,-3.320313 5.25855,-0.03917 12.89409,-3.254786 16.60157,-10.617187 3.70748,-7.362401 8.42114,-8.758493 12.85742,-9.886719 2.69647,-0.650887 5.75427,-1.001811 9.04297,-1.007812 5.48116,-0.01 11.60614,0.939659 17.78711,3.058593 9.88957,3.390298 17.83395,9.059532 22.44726,14.841797 1.10135,1.380404 1.99347,2.724808 2.70899,4.03125 3.47668,7.933396 1.31966,12.308037 -1.52344,16.25 10.39448,-2.81644 15.13067,-4.880048 23.41406,-4.888672 8.28339,-0.0086 13.96173,0.211439 18.89063,5.582032 4.9289,5.370594 12.28732,10.334704 22.20703,6.871094 6.09372,-1.72419 13.14663,-2.769532 20.66406,-2.769532 6.85069,0 13.3125,0.869922 19.01758,2.328122 7.70859,1.33842 11.05358,4.13149 14.58789,6.86133 0.72804,-5.51649 2.04953,-11.494305 6.64453,-16.083983 3.8899,-4.818631 10.3293,-9.039123 18.26172,-10.943359 2.59124,-0.622051 5.14619,-0.933281 7.61719,-1.00586 14.07101,-3.613921 13.98872,-4.308008 23.33593,-13.15039 6.23776,-6.079454 16.17887,-11.360562 27.98243,-13.667969 4.42633,-0.865278 8.76755,-1.245887 12.89062,-1.208995 z m 41.09961,38.138672 c 1.42043,1.514857 2.80022,3.317544 4.11328,5.439453 4.82874,7.803231 8.14649,19.348547 8.14649,32.216797 0,6.83074 -0.38109,11.22776 -2.67969,20.63671 -2.2986,9.40897 -5.51085,13.61046 -13.91211,18.2168 5.05743,0.30704 9.61299,1.03707 16.84961,7.96289 7.23662,6.92582 12.82639,17.58407 12.25586,29.97852 -0.28345,6.15758 -2.34192,11.44517 -4.50586,16.22851 -3.07157,6.78962 -10.54351,10.71388 0,26.36914 7.50395,8.0494 9.88154,20.74103 4.6543,32.62305 -0.76274,1.73376 -1.60216,3.39205 -2.64258,4.875 -4.34301,6.19028 -9.99515,7.14066 -16.72461,3.78516 4.73636,5.64785 11.88636,10.58512 12.99219,17.30078 1.11252,6.75626 1.29989,18.79181 -2.93946,26.39258 -4.47612,8.02524 -12.69645,15.7774 -23.54101,20.70898 -10.84455,4.93158 -22.00928,5.99424 -30.87696,4.03711 -1.65266,-0.36475 -3.29822,-0.63527 -4.68164,-1.37109 -13.25812,-7.05172 -21.76245,-2.27568 -28.875,2.73047 -4.21383,1.32936 -8.92553,2.11523 -13.92773,2.11523 -6.29252,0 -14.61626,-2.23255 -17.0918,-3.24023 -2.47554,-1.00768 -6.83789,-6.83594 -6.83789,-6.83594 0,0 -5.8465,5.66381 -12.78906,5.82226 -6.94256,0.15844 -13.56441,9.75118 -19.66992,12.42969 l -14.66407,3.33594 c -0.70683,0.0329 -2.87079,0.6875 -6.69726,0.6875 -4.36739,2.13242 -2.44096,13.00725 0.88476,14.36719 1.46474,0 6.5886,-0.0616 8.0293,-0.16797 0.19416,2.6067 0.30274,5.26844 0.30274,7.98047 0,16.07772 -3.57137,30.56135 -8.82227,40.4082 -3.84164,7.2041 -7.08306,18.34672 -10.90039,28.11523 -1.90867,4.88426 -3.91804,9.31649 -5.5957,12.00196 -0.14159,0.22664 -0.18067,0.21486 -0.31641,0.41406 -0.13574,-0.1992 -0.17482,-0.18742 -0.31641,-0.41406 -1.67766,-2.68547 -3.68703,-7.1177 -5.5957,-12.00196 -3.81733,-9.76851 -7.05875,-20.91113 -10.90039,-28.11523 -5.25089,-9.84683 -8.82227,-24.33048 -8.82227,-40.4082 0,-10.44323 1.51268,-20.2045 4.00782,-28.46875 4.19458,6.29351 4.42024,6.71184 7.55468,8.33984 5.17157,-2.32938 7.96632,-7.1247 4.07227,-18.85547 -3.55661,-3.45084 -4.08565,-9.1622 -4.03516,-11.0918 0.10097,-3.85922 3.92667,-13.42073 10.70704,-18.1875 5.08523,-3.57507 10.70468,-6.37791 19.99804,-6.27343 3.09779,0.0348 6.60395,0.39281 10.63477,1.15234 5.75064,1.0836 10.20463,3.31664 15.03125,5.68945 4.82662,2.37281 11.6689,6.04058 19.77734,14.17774 2.48371,2.49251 2.90034,-10.89432 5.28906,-14.98242 1.80383,-3.08711 2.46307,-4.22224 7.15235,-6.53711 4.68928,-2.31487 7.46669,-3.15172 12.54101,-3.50977 5.07431,-0.35804 9.02592,-0.75647 14.87305,0.26758 5.84713,1.02406 12.61164,5.65297 19.15234,12.91211 1.32521,-4.56109 4.64042,-9.70637 10.02344,-15.46094 6.40877,-6.85576 10.56691,-10.43696 17.875,-14.29492 13.32797,-5.16731 11.8123,-14.58322 5.64258,-23.15234 -6.16972,-8.56912 -3.04631,-13.60385 0.0176,-20.56836 1.58029,-3.59211 4.69334,-9.19733 8.32812,-12.13086 3.63477,-2.93353 8.60742,-10.2168 8.60742,-10.2168 -3.9095,-0.97501 -9.0003,-0.59756 -14.05078,-6.41992 -5.05049,-5.82236 -8.46514,-17.04459 -7.92383,-28.80469 0.23663,-5.14043 1.23189,-9.91293 3.31055,-13.88476 6.97671,-13.331 2.70748,-21.63093 -2.95703,-29.30665 -3.38929,-7.39904 -5.56445,-16.94533 -5.56445,-27.36132 0,-4.98885 0.50444,-9.7744 1.39648,-14.22461 11.33791,-3.29472 21.12014,-8.831346 28.36524,-15.892577 2.379,-2.318635 4.4895,-4.852501 6.27148,-7.539063 z m -367.248046,39.1582 c 4.64993,-0.019 12.13476,3.24405 14.78125,5.79102 2.646489,2.54696 7.184974,8.40923 8.162109,13.36914 0.977136,4.95992 2.113016,7.31094 2.389254,13.6208 0.276238,6.30987 -0.485917,8.25171 -5.430269,16.81865 -4.944352,8.56694 -4.789618,19.60421 0,26.01367 4.282358,4.84662 7.912886,8.76027 12.317882,17.05198 3.48104,6.0105 4.8826,11.83991 4.47487,17.61453 -0.40773,5.77462 -11.439439,10.65848 -11.439439,10.65848 6.336059,-1.60567 19.881309,5.35314 22.668169,9.12228 2.78686,3.76914 8.0337,10.64011 9.38477,18.49804 0.11146,0.64828 0.21434,1.28644 0.26172,1.92969 0.37409,5.07838 -0.55952,10.46282 15.16211,11.94922 5.84072,0.55221 10.48952,5.56476 13.79882,12.07226 3.67854,7.23361 5.18437,17.20132 3.21094,27.84766 -1.97343,10.64634 -7.00836,19.72257 -13.12109,25.6211 -6.11274,5.89846 -12.91995,8.55626 -19.46289,7.66406 -6.54294,-0.8922 -12.05388,-5.22929 -15.73243,-12.46289 -3.67851,-7.23362 -5.18633,-17.20132 -3.21289,-27.84766 0.0837,-0.45163 0.20013,-0.89239 0.27735,-1.3418 1.22038,-7.10244 6.66631,-13.41259 13.24503,-19.51035 -7.32353,3.02789 -14.67246,6.23989 -20.68058,-0.26894 -0.2893,-0.31341 -0.65318,-0.55866 -0.97656,-0.86133 -4.36613,-4.08654 -8.035648,-10.63818 -9.38672,-18.49609 -0.09929,-0.57751 -0.160445,-1.14725 -0.230469,-1.71876 0.176893,-15.94594 -7.836907,-16.37268 -13.634765,-20.99804 -0.01883,-0.015 -0.03762,-0.028 -0.05664,-0.043 -6.202886,-4.87748 -12.263744,-13.26645 -15.919922,-23.72656 -3.656177,-10.46012 -3.210642,-18.82999 -2.326172,-28.47852 0.88447,-9.64853 10.594495,-20.0501 10.594495,-20.0501 -9.141465,3.04715 -13.422496,1.92271 -17.773725,-2.83459 -4.351228,-4.75729 -8.121551,-13.81906 -8.121551,-24.58015 0,-12.30032 7.511663,-24.60203 12.433594,-27.95313 4.921931,-3.3511 9.69382,-4.45174 14.34375,-4.4707 z"
     id="path4134"
     inkscape:connector-curvature="0"
     sodipodi:nodetypes="ssscsscscsscsssscsscscssscsscssssssccsscscscscscsscssscssccsscscsccsscsccssssssssscsccscsssscscscsscsssscsssssccscssscsscssscsscscscsscsssccsscscccsccsscssscssscsscssssscsscscccccssscccssscccsssssssssscccssscssscscscsscsczzcczczcssssssccscscccssczczsscc" />
</svg>
