<svg xmlns="http://www.w3.org/2000/svg" viewBox="0 0 512 512"><path d="M0 0h512v512H0z"/><path fill="#fff" d="M 214.77143,4.0838517 A 20.002,20.002 0 0 0 197.59956,15.085805 c 0,0 -6.05675,11.612329 -12.10547,26.36914 -6.04873,14.756811 -12.83428,31.805248 -12.84961,50.00586 -0.0297,35.253975 17.59252,63.712375 28.5332,87.867185 5.9909,13.2267 14.71518,27.57965 21.46289,38.27148 l -28.0918,31.9668 a 20.002,20.002 0 0 0 -2.30664,23.1875 l 54.18164,94.02148 A 20.002,20.002 0 1 0 281.08198,346.8026 L 234.05659,265.20299 262.58198,232.744 a 20.002,20.002 0 0 0 1.74218,-24.10742 c 0,0 -20.66743,-32.46968 -26.71093,-45.8125 -12.15738,-26.84103 -24.98619,-50.60108 -24.96875,-71.330072 0.005,-5.426725 4.5668,-21.955132 9.85937,-34.867188 5.29257,-12.912055 10.57227,-23.060547 10.57227,-23.060547 A 20.002,20.002 0 0 0 214.77143,4.0838517 Z M 300.34565,231.80846 a 34.384396,34.384396 0 0 0 -34.38281,34.38476 34.384396,34.384396 0 0 0 34.38281,34.38281 34.384396,34.384396 0 0 0 34.38476,-34.38281 34.384396,34.384396 0 0 0 -34.38476,-34.38476 z M 256.3476,403.5526 c -15.00778,-0.26894 -27.63444,7.09677 -36.42187,15.13281 -8.78743,8.03604 -15.19252,17.09699 -21.1211,25.15625 -5.92857,8.05926 -11.38854,15.10917 -15.72851,18.99219 -4.33998,3.88301 -5.97436,4.3277 -8.22852,4.21679 -1.12248,-0.0552 -1.84662,-0.0851 -5.05859,-3.61718 -3.21197,-3.53205 -7.33105,-10.10042 -11.81641,-17.69727 -4.48535,-7.59684 -9.34135,-16.21949 -16.61719,-24.27734 -7.27584,-8.05785 -18.50484,-16.04129 -32.51953,-16.875 -30.42476,-1.80993 -52.4941,18.89189 -70.695313,36.17578 -18.201214,17.28389 -31.4296881,34.63086 -31.4296881,34.63086 a 20.002,20.002 0 1 0 31.7617191,24.3164 c 0,0 11.688716,-15.20149 27.210937,-29.9414 15.522222,-14.73992 35.981875,-25.53723 40.777345,-25.25196 1.13178,0.0673 1.96307,0.15933 5.20703,3.75196 3.24397,3.59262 7.3677,10.19577 11.86133,17.80664 4.49364,7.61087 9.35396,16.23076 16.66602,24.27148 7.31206,8.04072 18.65507,15.96781 32.6875,16.65821 15.02441,0.7392 27.97241,-6.40289 36.86523,-14.35938 8.89282,-7.95649 15.3187,-16.99752 21.27735,-25.09765 5.95865,-8.10015 11.44011,-15.26826 15.89453,-19.3418 4.45442,-4.07354 6.42204,-4.69923 8.71093,-4.6582 2.01367,0.0361 3.74188,0.60126 7.85743,4.65234 4.11555,4.05108 9.16993,11.17411 14.66601,19.24414 5.49608,8.07003 11.42315,17.09701 19.84375,25.18359 8.4206,8.08659 20.93501,15.55727 35.73242,15.29688 14.36122,-0.25271 26.23583,-7.96693 34.03125,-16.02539 7.79543,-8.05847 13.10977,-16.85438 18.0293,-24.66992 4.91953,-7.81555 9.43587,-14.65782 13.0586,-18.47657 3.6227,-3.81874 4.87742,-4.15308 6.39648,-4.22265 5.00918,-0.22944 25.55016,10.74504 41.08398,25.44336 15.53383,14.69831 27.21875,29.78906 27.21875,29.78906 a 20.002,20.002 0 1 0 31.67969,-24.42188 c 0,0 -13.22297,-17.2166 -31.40625,-34.42187 -18.18328,-17.20528 -40.16989,-37.73063 -70.40625,-36.3457 -14.32027,0.65591 -25.88935,8.53732 -33.58594,16.65039 -7.69658,8.11306 -12.99517,16.91997 -17.89062,24.69726 -4.89545,7.77729 -9.39679,14.51788 -12.92774,18.16797 -3.53094,3.65009 -4.49211,3.81554 -5.98437,3.8418 -1.97734,0.0348 -3.33124,-0.31971 -7.32422,-4.1543 -3.99298,-3.83459 -9.02453,-10.82509 -14.48828,-18.84766 -5.46376,-8.02256 -11.36999,-17.06638 -19.66797,-25.23437 -8.29798,-8.16799 -20.43822,-15.87415 -35.19922,-16.13867 z"/></svg>
