<?xml version="1.0" encoding="UTF-8" standalone="no"?>
<svg
   viewBox="0 0 512 512"
   version="1.1"
   id="svg2750"
   sodipodi:docname="shark-tooth.svg"
   inkscape:version="1.2 (dc2aedaf03, 2022-05-15)"
   xmlns:inkscape="http://www.inkscape.org/namespaces/inkscape"
   xmlns:sodipodi="http://sodipodi.sourceforge.net/DTD/sodipodi-0.dtd"
   xmlns="http://www.w3.org/2000/svg"
   xmlns:svg="http://www.w3.org/2000/svg">
  <defs
     id="defs2754" />
  <sodipodi:namedview
     id="namedview2752"
     pagecolor="#ffffff"
     bordercolor="#666666"
     borderopacity="1.0"
     inkscape:showpageshadow="2"
     inkscape:pageopacity="0.0"
     inkscape:pagecheckerboard="0"
     inkscape:deskcolor="#d1d1d1"
     showgrid="false"
     inkscape:zoom="1.1642403"
     inkscape:cx="-49.817894"
     inkscape:cy="253.81358"
     inkscape:current-layer="svg2750"
     inkscape:window-width="1920"
     inkscape:window-height="1001"
     inkscape:window-x="-9"
     inkscape:window-y="1045"
     inkscape:window-maximized="1" />
  <path
     d="M0 0h512v512H0z"
     id="path2746" />
  <path
     id="path399-8-8-3-7"
     style="fill:#ffffff;fill-opacity:1;stroke:#000000;stroke-width:0;stroke-linecap:butt;stroke-linejoin:miter;stroke-dasharray:none;stroke-opacity:1"
     inkscape:label="path2748"
     d="m 92.193268,20.614627 c -5.475417,-0.0019 -10.953693,0.205044 -16.409602,0.582476 -23.623369,1.381064 -54.81393,15.159765 -51.382084,43.513855 -1.157638,21.405121 11.911346,47.547022 36.094455,46.784322 32.501419,3.30632 68.718683,13.18386 85.466483,44.18704 19.43165,27.79935 47.01879,54.80862 83.14612,55.17771 46.26713,7.86021 83.05812,-26.03951 117.99445,-50.47015 25.42418,-20.0164 57.62255,-28.00036 88.9327,-30.80441 21.35329,-1.33858 42.07211,-13.73882 47.60551,-35.368736 8.65756,-22.47556 -6.12831,-48.144553 -29.6299,-52.647277 -55.99224,-19.586321 -89.73654,11.90208 -146.69813,18.023348 -26.79294,2.879217 -72.08428,3.2642 -96.48578,-7.252308 C 174.26882,36.584543 144.46681,22.786445 108.59331,21.278267 103.14212,20.823702 97.668659,20.616487 92.193268,20.614627 Z M 64.69274,131.65756 l 5.313884,12.05058 v 0.005 c 30.508886,77.35796 27.164595,156.41049 42.993446,245.35138 5.73281,32.21216 34.00116,98.07705 67.51628,98.65722 91.90523,1.59094 162.07263,-137.23453 176.49516,-181.13413 22.10989,-67.29855 38.06397,-85.68024 65.3695,-150.6378 8.21412,-11.60512 -17.7716,-0.0252 -23.37066,-0.0907 -38.20217,11.52259 -69.96599,44.8271 -104.43518,63.07934 -2.93497,33.75806 -10.4085,68.16559 -25.01782,101.64691 7.84024,-38.781 12.26123,-55.8071 13.02454,-96.45237 -4.41959,1.62488 -8.97573,2.99225 -13.69773,4.04869 -6.96607,1.54558 -14.11577,2.53868 -21.32247,2.95537 -5.40353,68.9454 -11.23524,103.83925 -40.87348,160.07752 6.5553,-63.32195 16.23505,-115.41266 18.54361,-160.6457 -11.24942,-1.23953 -22.32255,-3.94401 -32.74281,-8.19286 2.26648,33.84963 -2.27382,49.38858 -13.02933,117.51225 0.63722,-53.2641 4.4126,-92.00166 2.14848,-122.65905 -2.32045,-1.25784 -4.59923,-2.60206 -6.8226,-4.03436 -29.37344,-16.57945 -40.82958,-51.08491 -68.11157,-69.66803 -12.365871,-9.10985 -28.058747,-7.24031 -41.98125,-11.86915 z"
     sodipodi:nodetypes="ccccccccccsscccccssscccccccccccccccc" />
</svg>
