<?xml version="1.0" encoding="UTF-8" standalone="no"?>
<svg
   viewBox="0 0 512 512"
   version="1.1"
   id="svg6"
   sodipodi:docname="roman-7.svg"
   inkscape:version="1.1.2 (0a00cf5339, 2022-02-04, custom)"
   xmlns:inkscape="http://www.inkscape.org/namespaces/inkscape"
   xmlns:sodipodi="http://sodipodi.sourceforge.net/DTD/sodipodi-0.dtd"
   xmlns="http://www.w3.org/2000/svg"
   xmlns:svg="http://www.w3.org/2000/svg">
  <defs
     id="defs10" />
  <sodipodi:namedview
     id="namedview8"
     pagecolor="#ffffff"
     bordercolor="#666666"
     borderopacity="1.0"
     inkscape:pageshadow="2"
     inkscape:pageopacity="0.0"
     inkscape:pagecheckerboard="0"
     showgrid="false"
     inkscape:zoom="0.95289083"
     inkscape:cx="487.98875"
     inkscape:cy="218.28314"
     inkscape:window-width="1920"
     inkscape:window-height="949"
     inkscape:window-x="0"
     inkscape:window-y="104"
     inkscape:window-maximized="1"
     inkscape:current-layer="svg6" />
  <path
     d="M0 0h512v512H0z"
     id="path2" />
  <path
     id="path35229"
     style="font-family:'Droid Serif';-inkscape-font-specification:'Droid Serif';fill:#ffffff"
     d="m 350.6875,341.66406 v -10.07812 h 3.04687 q 4.10157,0 7.61719,-0.58594 3.63281,-0.58594 6.32813,-2.34375 2.69531,-1.875 4.21875,-5.27344 1.52343,-3.39844 1.52343,-9.02344 V 197.64062 q 0,-5.625 -1.52343,-9.02343 -1.52344,-3.39844 -4.21875,-5.15625 -2.69532,-1.875 -6.32813,-2.46094 -3.51562,-0.58594 -7.61719,-0.58594 h -3.04687 v -10.07812 h 69.84375 v 10.07812 h -3.16406 q -3.98438,0 -7.61719,0.58594 -3.63281,0.58594 -6.32813,2.46094 -2.57812,1.75781 -4.21875,5.15625 -1.52343,3.39843 -1.52343,9.02343 v 116.71875 q 0,5.625 1.52343,9.02344 1.64063,3.39844 4.21875,5.27344 2.69532,1.75781 6.32813,2.34375 3.63281,0.58594 7.61719,0.58594 h 3.16406 v 10.07812 z m -88.125,0 v -10.07812 h 3.04687 q 4.10157,0 7.61719,-0.58594 3.63281,-0.58594 6.32813,-2.34375 2.69531,-1.875 4.21875,-5.27344 1.52343,-3.39844 1.52343,-9.02344 V 197.64062 q 0,-5.625 -1.52343,-9.02343 -1.52344,-3.39844 -4.21875,-5.15625 -2.69532,-1.875 -6.32813,-2.46094 -3.51562,-0.58594 -7.61719,-0.58594 h -3.04687 v -10.07812 h 69.84375 v 10.07812 h -3.16406 q -3.98438,0 -7.61719,0.58594 -3.63281,0.58594 -6.32813,2.46094 -2.57812,1.75781 -4.21875,5.15625 -1.52343,3.39843 -1.52343,9.02343 v 116.71875 q 0,5.625 1.52343,9.02344 1.64063,3.39844 4.21875,5.27344 2.69532,1.75781 6.32813,2.34375 3.63281,0.58594 7.61719,0.58594 h 3.16406 v 10.07812 z m -99.14063,0 L 111.625,193.07031 q -1.28906,-3.75 -2.8125,-6.21094 -1.52344,-2.46093 -3.51562,-3.86718 -1.99219,-1.40625 -4.57032,-1.99219 -2.578123,-0.58594 -6.093748,-0.58594 H 91.46875 v -10.07812 h 65.97656 v 10.07812 h -5.50781 q -7.26563,0 -10.89844,2.8125 -3.51562,2.69531 -3.51562,8.67188 0,1.99218 0.46875,4.10156 0.58593,2.10937 1.52343,4.80469 l 26.36719,77.92968 q 3.63281,10.66407 6.21094,20.74219 2.57812,9.96094 4.57031,18.63281 1.875,-8.67187 4.45313,-18.39843 2.57812,-9.72657 6.5625,-20.97657 l 26.48437,-76.28906 q 0.9375,-2.92969 1.52344,-5.625 0.58594,-2.69531 0.58594,-4.6875 0,-6.21094 -3.98438,-8.90625 -3.86719,-2.8125 -11.83594,-2.8125 h -5.50781 v -10.07812 h 58.47656 v 10.07812 h -4.57031 q -3.51562,0 -6.09375,0.70313 -2.46094,0.70312 -4.57031,2.8125 -1.99219,1.99218 -3.75,5.625 -1.75781,3.63281 -3.75,9.49218 L 181,341.66406 Z" />
</svg>
