<?xml version="1.0" encoding="UTF-8" standalone="no"?>
<svg
   viewBox="0 0 512 512"
   version="1.1"
   id="svg6"
   sodipodi:docname="roman-9.svg"
   inkscape:version="1.1.2 (0a00cf5339, 2022-02-04, custom)"
   xmlns:inkscape="http://www.inkscape.org/namespaces/inkscape"
   xmlns:sodipodi="http://sodipodi.sourceforge.net/DTD/sodipodi-0.dtd"
   xmlns="http://www.w3.org/2000/svg"
   xmlns:svg="http://www.w3.org/2000/svg">
  <defs
     id="defs10" />
  <sodipodi:namedview
     id="namedview8"
     pagecolor="#ffffff"
     bordercolor="#666666"
     borderopacity="1.0"
     inkscape:pageshadow="2"
     inkscape:pageopacity="0.0"
     inkscape:pagecheckerboard="0"
     showgrid="false"
     inkscape:zoom="0.95289083"
     inkscape:cx="487.98875"
     inkscape:cy="218.28314"
     inkscape:window-width="1920"
     inkscape:window-height="949"
     inkscape:window-x="0"
     inkscape:window-y="104"
     inkscape:window-maximized="1"
     inkscape:current-layer="svg6" />
  <path
     d="M0 0h512v512H0z"
     id="path2" />
  <path
     id="path51833"
     style="font-family:'Droid Serif';-inkscape-font-specification:'Droid Serif';fill:#ffffff"
     d="m 329.06641,187.32812 q 0,-2.10937 -1.05469,-3.39843 -0.9375,-1.40625 -2.69531,-2.10938 -1.64063,-0.82031 -3.98438,-1.05469 -2.34375,-0.35156 -5.15625,-0.35156 h -0.70312 v -10.07812 h 52.5 v 10.07812 h -2.10938 q -3.51562,0 -6.44531,0.82031 -2.8125,0.82032 -5.50781,2.92969 -2.69532,1.99219 -5.625,5.27344 -2.8125,3.28125 -6.21094,8.20312 l -34.80469,50.15625 44.17969,71.01563 q 5.27344,7.03125 9.96094,9.96094 4.6875,2.8125 9.25781,2.8125 h 3.04687 v 10.07812 h -64.80468 v -10.07812 h 1.28906 q 14.29687,0 14.29687,-7.96875 0,-1.28907 -0.35156,-2.57813 -0.23437,-1.28906 -1.05469,-3.04687 -0.82031,-1.75782 -2.46093,-4.33594 -1.52344,-2.57813 -3.98438,-6.5625 l -23.78906,-38.20313 -26.60156,39.375 q -1.05469,1.52344 -2.10938,3.51563 -1.05469,1.875 -1.99219,3.98437 -0.9375,2.10938 -1.52343,4.33594 -0.58594,2.10938 -0.58594,3.98438 0,4.10156 3.75,5.85937 3.86719,1.64063 11.83594,1.64063 h 0.70312 v 10.07812 h -57.1875 v -10.07812 h 1.52344 q 4.33594,0 7.5,-0.82032 3.28125,-0.9375 5.97656,-2.92968 2.8125,-1.99219 5.50781,-5.15625 2.69532,-3.16407 5.97657,-7.85157 l 40.07812,-57.42187 -39.60937,-64.33594 q -4.33594,-6.91406 -9.84375,-9.72656 -5.39063,-2.92969 -10.78125,-2.92969 h -3.16407 v -10.07812 h 65.03907 v 10.07812 h -0.70313 q -4.10156,0 -6.79687,0.58594 -2.69532,0.46875 -4.21875,1.40625 -1.52344,0.9375 -2.10938,2.22656 -0.58594,1.28906 -0.58594,2.69531 0,1.28907 0.11719,2.46094 0.23438,1.17188 0.82031,2.8125 0.58594,1.52344 1.64063,3.63281 1.17187,2.10938 3.16406,5.27344 l 21.67969,35.03906 22.73437,-34.57031 q 2.69532,-4.10156 4.33594,-7.73437 1.64063,-3.63282 1.64063,-6.91407 z M 138.28516,341.66406 v -10.07812 h 3.04687 q 4.10156,0 7.61719,-0.58594 3.63281,-0.58594 6.32812,-2.34375 2.69532,-1.875 4.21875,-5.27344 1.52344,-3.39844 1.52344,-9.02344 V 197.64062 q 0,-5.625 -1.52344,-9.02343 -1.52343,-3.39844 -4.21875,-5.15625 -2.69531,-1.875 -6.32812,-2.46094 -3.51563,-0.58594 -7.61719,-0.58594 h -3.04687 v -10.07812 h 69.84375 v 10.07812 h -3.16407 q -3.98437,0 -7.61718,0.58594 -3.63282,0.58594 -6.32813,2.46094 -2.57812,1.75781 -4.21875,5.15625 -1.52344,3.39843 -1.52344,9.02343 v 116.71875 q 0,5.625 1.52344,9.02344 1.64063,3.39844 4.21875,5.27344 2.69531,1.75781 6.32813,2.34375 3.63281,0.58594 7.61718,0.58594 h 3.16407 v 10.07812 z" />
</svg>
