<?xml version="1.0" encoding="UTF-8" standalone="no"?>
<svg
   viewBox="0 0 512 512"
   version="1.1"
   id="svg6"
   sodipodi:docname="roman-5.svg"
   inkscape:version="1.1.2 (0a00cf5339, 2022-02-04, custom)"
   xmlns:inkscape="http://www.inkscape.org/namespaces/inkscape"
   xmlns:sodipodi="http://sodipodi.sourceforge.net/DTD/sodipodi-0.dtd"
   xmlns="http://www.w3.org/2000/svg"
   xmlns:svg="http://www.w3.org/2000/svg">
  <defs
     id="defs10" />
  <sodipodi:namedview
     id="namedview8"
     pagecolor="#ffffff"
     bordercolor="#666666"
     borderopacity="1.0"
     inkscape:pageshadow="2"
     inkscape:pageopacity="0.0"
     inkscape:pagecheckerboard="0"
     showgrid="false"
     inkscape:zoom="0.95289083"
     inkscape:cx="487.98875"
     inkscape:cy="218.28314"
     inkscape:window-width="1920"
     inkscape:window-height="949"
     inkscape:window-x="0"
     inkscape:window-y="104"
     inkscape:window-maximized="1"
     inkscape:current-layer="svg6" />
  <path
     d="M0 0h512v512H0z"
     id="path2" />
  <path
     d="M 246.97656,341.66406 195.17969,193.07031 q -1.28907,-3.75 -2.8125,-6.21094 -1.52344,-2.46093 -3.51563,-3.86718 -1.99219,-1.40625 -4.57031,-1.99219 -2.57813,-0.58594 -6.09375,-0.58594 h -3.16406 V 170.33594 H 241 v 10.07812 h -5.50781 q -7.26563,0 -10.89844,2.8125 -3.51563,2.69531 -3.51563,8.67188 0,1.99218 0.46875,4.10156 0.58594,2.10937 1.52344,4.80469 l 26.36719,77.92968 q 3.63281,10.66407 6.21094,20.74219 2.57812,9.96094 4.57031,18.63281 1.875,-8.67187 4.45312,-18.39843 2.57813,-9.72657 6.5625,-20.97657 l 26.48438,-76.28906 q 0.9375,-2.92969 1.52344,-5.625 0.58593,-2.69531 0.58593,-4.6875 0,-6.21094 -3.98437,-8.90625 -3.86719,-2.8125 -11.83594,-2.8125 H 278.5 v -10.07812 h 58.47656 v 10.07812 h -4.57031 q -3.51563,0 -6.09375,0.70313 -2.46094,0.70312 -4.57031,2.8125 -1.99219,1.99218 -3.75,5.625 -1.75782,3.63281 -3.75,9.49218 l -49.6875,142.61719 z"
     style="font-family:'Droid Serif';-inkscape-font-specification:'Droid Serif';fill:#ffffff"
     id="path37859" />
</svg>
