<svg xmlns="http://www.w3.org/2000/svg" viewBox="0 0 225 225">
<style type="text/css">
	.st1{fill:#FFFFFF;}
</style>
	<path d="M226.8,226.8H0V0h226.8V226.8z M131.8,82.3c-5.3,3.5-11.6,5.5-18.4,5.5c-6.8,0-13.1-2-18.4-5.5
		c-3.6-2.4-6.7-5.4-9.1-9C82.1,67.9,80,61.4,80,54.4c0-0.2,0-0.4,0-0.7C80.3,35.6,95.2,21,113.4,21c18.2,0,33.1,14.6,33.4,32.8
		c0,0.2,0,0.4,0,0.7c0,7-2.2,13.5-5.9,18.9C138.5,76.9,135.4,79.9,131.8,82.3z M122.6,176.2c-3,0.1-6.1,0.1-9.2,0.1s-6.2,0-9.2-0.1
		c-23.9-0.6-44.8-3.6-58.6-7.9v22.6c0,0.1,0,0.1,0,0.2c0.5,8.1,30.6,14.7,67.8,14.7s67.3-6.6,67.8-14.7c0-0.1,0-0.1,0-0.2v-22.6
		C167.4,172.6,146.5,175.6,122.6,176.2z M134.3,86.6l30.8,53.3l5.9,10.2l6.7,11.6c-4.6,2.4-12.8,4.5-23.4,6.1c0,0-0.1,0-0.2,0
		c-11.4,1.6-25.5,2.6-40.7,2.6s-29.4-1-40.7-2.6c0,0-0.1,0-0.2,0c-10.6-1.5-18.8-3.6-23.4-6.1l6.7-11.6l5.9-10.2l30.8-53.3
		c6,3.9,13.2,6.2,20.9,6.2S128.3,90.5,134.3,86.6z"/>
	<path class="st1" d="M45.6,191.1L45.6,191.1l0-0.2v-22.6c13.8,4.3,34.7,7.3,58.6,7.9c3-0.1,6.1-0.1,9.2-0.1c3.1,0,6.2,0,9.2,0.1
		c23.9-0.6,44.8-3.6,58.6-7.9v22.5c0,0,0,0.1,0,0.1c0,0,0,0.1,0,0.1v0.1c-0.5,8.1-30.6,14.7-67.8,14.7S46.1,199.2,45.6,191.1z"/>
	<path class="st1" d="M154.1,167.8c-11.4,1.6-25.5,2.6-40.7,2.6c-15.3,0-29.3-1-40.7-2.6c0,0-0.1,0-0.2,0
		c-10.6-1.5-18.8-3.6-23.4-6.1l6.7-11.6l5.9-10.2l30.8-53.3c6,3.9,13.2,6.2,20.9,6.2s14.9-2.3,20.9-6.2l30.8,53.3l5.9,10.2l6.7,11.6
		c-4.6,2.4-12.8,4.5-23.4,6.1C154.2,167.8,154.2,167.8,154.1,167.8z"/>
	<path class="st1" d="M95,82.3c-3.6-2.4-6.7-5.4-9.1-9C82.1,67.9,80,61.4,80,54.4c0-0.2,0-0.4,0-0.7C80.3,35.6,95.1,21,113.4,21
		s33.1,14.6,33.4,32.8c0,0.2,0,0.4,0,0.7c0,7-2.2,13.5-5.9,18.9c-2.4,3.6-5.6,6.6-9.1,9c-5.3,3.5-11.6,5.5-18.4,5.5
		C106.6,87.8,100.3,85.8,95,82.3z"/>
	<polygon class="st1" points="45.6,167.8 45.6,167.8 45.6,167.8 	"/>
	<polygon class="st1" points="181.2,167.8 181.2,167.8 181.2,167.8 	"/>
</svg>
