<svg xmlns="http://www.w3.org/2000/svg" viewBox="0 0 512 512"><path d="M0 0h512v512H0z"/><path fill="#fff" d="M137.441 26.625l-11.697 10.916 41.717 44.697 11.697-10.918-41.717-44.695zm138.612 48.314c-2.352-.026-4.662.009-6.934.102-27.259 1.122-48.798 10.912-65.314 30.904-22.022 26.656-35.216 73.376-35.409 144.674l-.01 4.016-3.226 2.39c-40.816 30.242-61.757 57.56-69.697 80.729-7.94 23.17-3.718 42.485 7.592 59.869 22.62 34.769 76.386 59.141 112.39 65.602 22.874 4.104 81.477 12.912 118.479-5.846 18.5-9.379 31.972-24.483 35.592-52.356 3.62-27.872-3.583-68.99-29.69-127.32l-1.906-4.256 2.766-3.756c28.984-39.35 45.87-70.678 53.57-95.084 7.7-24.405 6.362-41.403-.117-54.113-6.48-12.71-18.732-21.999-35.559-29.015-16.827-7.017-37.912-11.506-60.27-14.727-7.787-1.122-15.203-1.735-22.257-1.813zm214.234 38.067l-62.574 23.838 5.695 14.953 62.574-23.838-5.695-14.953zM231.764 132.04c19.98 0 36.445 16.199 36.445 36.092 0 19.893-16.466 36.094-36.445 36.094-19.98 0-36.444-16.201-36.444-36.094s16.464-36.092 36.444-36.092zm-83.04 5.307l-63.568 5.96 1.494 15.93 63.569-5.959-1.494-15.931zm83.04 10.693c-11.44 0-20.444 8.954-20.444 20.092 0 11.138 9.004 20.094 20.444 20.094 11.439 0 20.445-8.956 20.445-20.094 0-11.138-9.006-20.092-20.445-20.092zm85.09 8.688c19.893 0 36.093 16.465 36.093 36.445s-16.2 36.443-36.093 36.443c-19.894 0-36.094-16.464-36.094-36.443 0-19.98 16.2-36.445 36.094-36.445zm0 16c-11.138 0-20.094 9.006-20.094 20.445 0 11.44 8.956 20.443 20.094 20.443 11.137 0 20.093-9.004 20.093-20.443 0-11.44-8.956-20.445-20.093-20.445zm104.642 32.035l-7.383 14.195 49.662 25.824 7.383-14.195-49.662-25.824zM98.66 222.477c-7.844 15.008-13.176 29.947-17.453 44.67-2.85.27-5.778.678-8.783 1.216-.139-2.66-.292-5.18-.254-7.455.094-5.593.825-9.72 4.736-14.66l-12.545-9.932c-6.375 8.053-8.064 16.923-8.19 24.323-.1 6.042.466 11.283.366 15.785-8.98 11.269-21.298 29.35-23.99 44.969-1.678 9.73-.36 17.539 6.838 24.662 6.007 5.945 17.52 11.441 36.17 14.697-.04-9.06 1.45-18.495 4.771-28.186 6.812-19.877 20.964-40.679 44.17-62.494 5.777-8.353 12.281-16.945 18.649-24.498l-12.233-10.312c-8.744 10.373-17.544 22.294-24.76 33.425a66.189 66.189 0 0 0-8.265-1.468c3.842-12.569 8.498-24.98 14.953-37.33l-14.18-7.412zm132.633 29.17a35.305 42.842 15.263 0 1 9.521.98 35.305 42.842 15.263 0 1 22.784 50.625 35.305 42.842 15.263 0 1-45.34 32.037 35.305 42.842 15.263 0 1-22.781-50.625 35.305 42.842 15.263 0 1 35.816-33.018zm153.37 43.402l-15.626 3.435 5.572 25.342c10.618 33.963 13.634 61.212 10.772 83.256-1.736 13.366-5.775 24.76-11.475 34.328 13.677 12.533 30.73 15.95 44.631 11.957 15.292-4.392 27.022-16.762 27.272-39.049.14-12.477-1.394-23.139-4.575-32.47 5.208-9.554 10.08-24.042 8.914-41.711l-15.964 1.052c.548 8.318-.7 15.878-2.598 22.15a73.368 73.368 0 0 0-5.574-6.728 73.74 73.74 0 0 0-4.207-4.123c.932-12.63.478-29.152-4.328-44.12l-15.235 4.892c2.72 8.471 3.774 18.622 3.873 27.804-3.962-2.35-8.227-4.582-12.81-6.703l-8.643-39.312zm-109.66 89.574a25.808 25.808 0 0 1 5.533.527c7.514 1.542 10.39 7.536 12.29 10.713 1.289 2.155 2.097 2.982 2.211 3.256.585-.057 2.431-.705 6.152-3.148 4.08-2.68 9.94-7.335 18.356-5.963 7.378 1.202 11.576 5.626 15.33 9.224 3.754 3.599 6.479 7.008 6.479 7.008l-12.479 10.014s-2.166-2.685-5.072-5.47c-2.906-2.786-7.137-5.035-6.832-4.985-.429-.07-2.836.813-7 3.547-4.165 2.734-10.33 7.371-18.739 5.496-7.462-1.665-10.252-7.615-12.138-10.768-1.353-2.26-2.17-3.031-2.166-3.224-2.265-.176-10.052 1.897-16.448 5.28-6.658 3.524-11.959 7.37-11.959 7.37l-9.42-12.934s6.083-4.444 13.895-8.578c6.409-3.39 13.777-7.27 22.008-7.365z"/></svg>