<svg version="1.1" viewBox="0 0 512 512" xmlns="http://www.w3.org/2000/svg">
    <path d="M0 0h512v512H0z"/>
    <g fill="#fff">
        <path d="m238.14 483.45c-11.685-.82476-26.951-3.4144-40.079-6.7986-79.521-20.5-142.77-83.922-163.55-164.01-15.265-58.809-5.8113-123.42 25.566-174.74 10.676-17.462 19.861-29.03 34.929-43.992 31.95-31.725 68.814-51.84 112.66-61.472 29.511-6.4835 64.943-6.5787 94.894-.25482 89.117 18.816 159.04 89.257 176.9 178.22 3.5349 17.604 4.5888 30.616 4.109 50.731-.70956 29.748-5.0713 51.889-15.378 78.061-33.58 85.269-114.81 142.24-206.05 144.53-8.1806.2051-18.975.0834-23.988-.27038zm42.398-21.853c38.109-4.4684 75.165-20.112 105.4-44.496 9.4549-7.6249 24.429-22.627 31.822-31.88 30.65-38.365 46.96-87.625 45.153-136.37-.80614-21.746-3.7622-38.299-10.47-58.631-16.944-51.356-54.906-95.404-103.04-119.55-20.925-10.499-40.827-16.824-64.51-20.505-14.009-2.177-46.556-1.9595-60.956.40735-21.244 3.4918-39.106 9.106-58.314 18.329-64.062 30.759-107.96 92.471-116.16 163.31-1.2332 10.649-1.2411 36.003-.01461 46.757 10.751 94.268 84.561 169.69 178.39 182.27 13.813 1.8529 38.545 2.0236 52.701.36375z"/>
            <path d="m136.4 278.49c-5.133.14647-10.22 1.1698-15.09 2.5571-9.1937 3.1822-17.591 8.7475-23.719 16.347-3.9496 4.6981-6.8353 10.252-8.7959 16.071-2.5624 6.728-2.9683 14.025-2.3658 21.138.76876 9.281 4.4288 18.27 10.028 25.681 3.2675 4.2335 7.1034 8.0988 11.521 11.119 6.9576 4.8379 15.158 7.7681 23.547 8.8528 5.738.45458 11.593.45106 17.164-1.1806 12.618-2.8751 23.936-10.896 31-21.71 7.3139-11.274 10.062-25.453 7.0469-38.59-.18073-1.4094-.88197-3.0322-.7749-4.326 5.899-3.3724 11.735-6.85 17.674-10.167 2.8134-1.8023 5.973-3.1464 8.5248-5.3157 1.3892-1.756-1.0026-3.2522-1.7534-4.6702-3.0879-4.2003-5.4576-8.8631-7.4754-13.661-1.4438-2.1987-3.6946.0809-5.3132.85481-7.8131 4.3203-15.513 9.0392-23.306 13.271-5.3027-5.4876-11.698-9.9197-18.844-12.648-3.6138-1.6615-7.562-2.2652-11.435-3.0219-2.5252-.37521-5.0775-.64368-7.6335-.6014zm-40.968 21.868c-.0011-.0116.02297-.0686 0 0z"/>
            <path d="m255.65 222.38c-11.007.0991-21.86 5.1107-29.026 13.478-3.4531 4.1973-6.1715 9.1399-7.6767 14.409-1.5689 5.1874-1.8249 10.665-1.0652 16.016 1.2 8.4561 5.2845 16.464 11.496 22.34 9.2612 8.9462 23.282 12.822 35.773 9.4698 13.571-3.2714 24.713-14.635 28.087-28.132 1.3236-4.9825.94197-10.242.60407-15.332-2.3044-14.01-12.904-26.366-26.57-30.422-3.7668-1.1817-7.6552-1.9706-11.621-1.828z"/>
            <path d="m224.54 199.27c-8.6891 4.4611-16.372 10.821-22.543 18.385-4.9296 6.1616-8.8278 13.222-11.386 20.707-2.4731 7.2157-3.9 14.808-3.6217 22.456.1805 1.743-.55509 4.6214 1.8376 5.0702 2.5525-.76986 4.6453-2.6632 7.0488-3.8242 1.6238-.88 3.8506-1.7891 3.7292-4.0189.49472-17.375 10.102-34.145 24.591-43.883 1.5751-.81772 3.1606-2.1142 2.6508-4.101-.16282-3.3124.33424-6.7314-.26454-9.9735-.35768-.7643-1.2553-.96128-2.0421-.8187zm-23.802 20.298c.004-.0649.0791-.25742 0 0z"/>
            <path d="m227.78 310.72c-3.1248 2.0121-6.7547 3.3689-9.5473 5.8148-1.3584 1.962 1.4329 3.0796 2.8179 3.8839 8.3599 4.9738 17.828 7.9948 27.495 9.0205 4.6908.61462 9.4648.18168 14.178.009 10.897-.8223 21.415-4.8646 30.639-10.576 1.5749-1.3093-.0866-3.1064-1.5384-3.5891-2.7936-1.4732-5.4026-3.3443-8.3194-4.5562-2.5053.14026-4.6471 1.8789-6.9925 2.6723-7.8444 3.0282-16.311 4.0922-24.628 3.5525-7.9594-.25429-15.681-2.8317-22.753-6.3167-.48349-.0908-.90141-.1845-1.352.0853z"/>
            <path d="m374.5 278.51c-5.2848-.0336-10.482 1.1293-15.548 2.4774-6.2161 2.3917-12.374 5.2819-17.318 9.845-1.4993 1.2554-2.9376 2.5836-4.2812 4.0052-8.7218-5.0143-17.448-10.027-26.203-14.985-2.5068-.87651-2.9444 2.3536-3.8744 3.9372-2.025 4.774-5.0087 8.9003-7.9356 13.178-1.0916 2.2065 1.7355 3.2164 3.1671 4.1161 7.0046 4.0106 13.951 8.0992 20.959 12.078.90144.69334 3.0756 1.0957 2.0998 2.583-2.3923 8.306-2.3137 17.253-.49657 25.663.95544 3.3035 1.7403 6.6703 3.4331 9.6979 6.1865 13.706 18.998 24.045 33.504 27.799 6.7708 1.8851 13.979 2.0481 20.892.92303 11.062-1.9426 21.543-7.4356 29.097-15.796 9.118-9.72 14.022-23.217 13.379-36.524-.14031-8.9622-3.0917-17.727-7.9074-25.246-7.8886-12.693-21.664-21.302-36.428-23.293-2.1628-.33343-4.3505-.48398-6.5386-.46001zm-55.136 32.216c-.0159-.003-.06-.0185 0 0z"/>
            <path d="m285.27 199.68c-1.0466 2.2383-.24778 4.9009-.49689 7.321.25212 2.2029-.93395 5.4776 1.7877 6.4831 10.759 6.9962 19.177 17.628 23.02 29.921 1.7885 5.1876 2.3269 10.716 2.8429 16.126.83364 1.8744 3.2974 2.2254 4.8585 3.4094 1.9724.85922 3.6261 2.6639 5.7808 2.9578 2.3748-.26887 1.7837-3.1656 1.854-4.856-.15515-8.0442-1.1428-16.197-4.1664-23.707-5.8257-16.271-18.052-30.13-33.451-37.966-.78153-.25175-1.3559-.16013-2.0292.31029z"/>
            <path d="m254.85 72.706c-18.448.21946-36.288 11.407-44.43 27.982-2.5459 5.3134-4.6314 11.003-5.1715 16.901-.0925 5.0626-.46554 10.211.41625 15.221 1.4683 6.0688 3.3285 12.167 6.7729 17.428 6.11 9.9607 15.784 17.692 26.799 21.541 1.7479.45908 3.4626 1.0352 5.1884 1.5695.0592 10.169-.11795 20.377.0882 30.522.65942 2.4439 3.4431.90529 5.2286 1.0288 5.2633-.17981 10.496-.30857 15.74.35854 2.4838-.23494 1.5411-3.3081 1.7159-5.0155v-26.868c6.0332-1.6498 12.025-3.8998 17.131-7.5487 3.6077-2.3342 6.764-5.3486 9.6872-8.4969 8.9587-10.051 13.647-23.848 12.652-37.285-.75946-9.4055-3.9331-18.565-9.5547-26.176-3.6824-4.9782-8.2975-9.2712-13.311-12.878-5.4215-3.4456-11.501-5.9157-17.8-7.2477-3.6759-.67605-7.4119-1.0723-11.152-1.0359zm43.631 78.723c-.0267.0675.0272-.0864 0 0zm-13.243 13.608c-.13317.0297.15973-.0432 0 0z"/>
    </g>
</svg>
