<svg xmlns="http://www.w3.org/2000/svg" viewBox="0 0 500 500">
<path xmlns="http://www.w3.org/2000/svg" d="M0 0h512v512H0z"/>
  <path d="M113.4904 20Q20 20 20 136.4375Q20 252.875 113.4904 252.875Q206.9808 252.875 206.9808 136.4375Q206.9808 20 113.4904 20L113.4904 69.9008Q150.8884 69.9008 150.8884 136.4375Q150.8884 202.9742 113.4904 202.9742Q76.0947 202.9742 76.0947 136.4375Q76.0947 69.9008 113.4904 69.9008ZM113.4904 485.75 337.8692 20 393.9639 20 169.5851 485.75ZM393.9639 252.875Q300.4735 252.875 300.4735 369.3125Q300.4735 485.75 393.9639 485.75Q487.4543 485.75 487.4543 369.3125Q487.4543 252.875 393.9639 252.875L393.9639 302.7758Q431.3596 302.7758 431.3596 369.3125Q431.3596 435.8492 393.9639 435.8492Q356.5682 435.8492 356.5682 369.3125Q356.5682 302.7758 393.9639 302.7758Z" fill="#fff"/>
</svg>