<?xml version="1.0" encoding="UTF-8" standalone="no"?>
<svg
   viewBox="0 0 468.62601 468.62601"
   version="1.1"
   id="svg870"
   sodipodi:docname="generic-fan.svg"
   width="468.62601"
   height="468.62601"
   inkscape:version="1.2.2 (b0a8486541, 2022-12-01)"
   xmlns:inkscape="http://www.inkscape.org/namespaces/inkscape"
   xmlns:sodipodi="http://sodipodi.sourceforge.net/DTD/sodipodi-0.dtd"
   xmlns="http://www.w3.org/2000/svg"
   xmlns:svg="http://www.w3.org/2000/svg">
  <defs
     id="defs874" />
  <sodipodi:namedview
     id="namedview872"
     pagecolor="#ffffff"
     bordercolor="#000000"
     borderopacity="0.25"
     inkscape:showpageshadow="2"
     inkscape:pageopacity="0.0"
     inkscape:pagecheckerboard="0"
     inkscape:deskcolor="#d1d1d1"
     showgrid="false"
     inkscape:zoom="1.7011719"
     inkscape:cx="155.77497"
     inkscape:cy="235.42594"
     inkscape:window-width="1444"
     inkscape:window-height="1080"
     inkscape:window-x="0"
     inkscape:window-y="0"
     inkscape:window-maximized="0"
     inkscape:current-layer="g868" />
  <g
     class=""
     id="g868"
     transform="translate(-21.687,-21.687)">
    <path
       id="path866"
       d="M 256,21.688 C 126.7,21.688 21.687,126.698 21.687,256 21.688,385.3 126.7,490.313 256,490.313 385.3,490.313 490.313,385.301 490.313,256 490.313,126.7 385.3,21.687 256,21.687 Z m 0,18 c 119.573,0 216.313,96.74 216.313,216.312 0,119.573 -96.74,216.313 -216.313,216.313 C 136.427,472.313 39.687,375.572 39.687,256 39.687,136.428 136.428,39.687 256,39.687 Z m 43.684,22.433 c -0.485,-0.01 -0.955,-0.008 -1.41,0.003 -6.047,0.15 -9.43,2.236 -8.545,6.738 10.475,42.195 11.75,85.79 -5.087,124.314 12.714,5.83 23.38,15.397 30.556,27.297 28.976,-24.022 58.114,-55.318 76.618,-79.786 26.14,-34.564 -61.598,-77.91 -92.134,-78.563 z m -98.278,4.392 c -40.03,-0.548 -110.755,59.8 -90.63,66.685 41.8,12.03 80.21,32.736 105.154,66.608 11.014,-7.883 24.416,-12.613 38.882,-12.86 -6.316,-37.106 -18.853,-77.99 -30.79,-106.25 C 219.82,70.749 211.61,66.652 201.406,66.513 Z M 438.22,190.227 c -1.095,0.02 -2.198,0.483 -3.298,1.443 -31.292,30.16 -68.396,53.055 -110.16,57.748 0.206,2.168 0.322,4.36 0.322,6.582 0,12.156 -3.18,23.588 -8.732,33.53 35.294,13.084 76.97,22.67 107.416,26.462 49.867,6.21 33.393,-126.102 14.453,-125.765 z m -353.636,5.58 c -48.158,0.507 -27.205,141.674 -7.564,124.533 31.307,-30.175 68.43,-53.08 110.218,-57.756 -0.207,-2.17 -0.322,-4.363 -0.322,-6.584 0,-12.144 3.174,-23.567 8.717,-33.502 -35.305,-13.093 -77.003,-22.687 -107.46,-26.48 -1.238,-0.154 -2.433,-0.224 -3.59,-0.21 z M 256,204.917 c -11.406,0 -21.907,3.696 -30.387,9.958 1.986,3.567 3.84,7.256 5.55,11.074 6.763,-5.608 15.427,-8.99 24.837,-8.99 0.844,0 1.68,0.035 2.51,0.09 -0.264,-3.93 -0.632,-7.967 -1.108,-12.1 -0.467,-0.01 -0.932,-0.034 -1.402,-0.034 z m 20.42,4.22 c -2.088,3.49 -4.345,6.925 -6.785,10.302 9.298,3.5 16.938,10.46 21.336,19.29 3.297,-2.21 6.634,-4.567 10,-7.066 -5.402,-10.007 -14.048,-17.97 -24.55,-22.527 z m -63.98,20.088 c -4.77,7.775 -7.524,16.938 -7.524,26.775 0,1.94 0.116,3.85 0.324,5.73 4.05,0.066 8.14,0.303 12.268,0.727 -0.355,-2.103 -0.55,-4.258 -0.55,-6.457 0,-7.987 2.44,-15.436 6.606,-21.643 -3.563,-1.75 -7.273,-3.464 -11.123,-5.132 z M 256,234.96 c -11.728,0 -21.04,9.312 -21.04,21.04 0,11.728 9.312,21.04 21.04,21.04 11.728,0 21.04,-9.312 21.04,-21.04 0,-11.728 -9.312,-21.04 -21.04,-21.04 z m 38.494,14.6 c 0.353,2.098 0.547,4.247 0.547,6.44 0,8 -2.446,15.46 -6.624,21.672 3.564,1.75 7.275,3.465 11.125,5.133 4.785,-7.782 7.544,-16.955 7.544,-26.805 0,-1.935 -0.115,-3.84 -0.322,-5.72 -4.05,-0.062 -8.14,-0.297 -12.268,-0.72 z m -73.478,23.686 c -3.297,2.21 -6.633,4.567 -10,7.065 5.394,10.005 14.03,17.97 24.52,22.534 2.09,-3.488 4.346,-6.925 6.786,-10.3 -9.287,-3.51 -16.918,-10.472 -21.306,-19.298 z m 59.773,12.846 c -6.758,5.583 -15.403,8.95 -24.79,8.95 -0.865,0 -1.72,-0.04 -2.572,-0.097 0.264,3.93 0.632,7.968 1.107,12.102 0.488,0.013 0.974,0.037 1.465,0.037 11.385,0 21.867,-3.684 30.338,-9.924 -1.986,-3.565 -3.84,-7.252 -5.55,-11.068 z m -84.005,5.408 c -28.992,24.028 -58.15,55.347 -76.664,79.828 -32.065,42.4 107.234,98.014 102.09,71.82 -10.48,-42.204 -11.75,-85.81 5.1,-124.343 -12.704,-5.837 -23.356,-15.407 -30.525,-27.305 z m 99.242,20.727 c -11.02,7.875 -24.43,12.594 -38.902,12.828 6.316,37.11 18.854,77.997 30.793,106.26 20.686,48.97 138.5,-43.86 113.242,-52.5 -41.79,-12.027 -80.187,-32.73 -105.133,-66.588 z" />
  </g>
</svg>
