<svg xmlns="http://www.w3.org/2000/svg" viewBox="0 0 512 512"><path d="M0 0h512v512H0z"/><path fill="#fff" d="M294.521 136.621c-7.708 10.672-5.785 23.307 2.11 28.861 7.895 5.555 26.81 1.542 34.52-9.13 7.708-10.671 4.285-25.929-3.61-31.483-13.772-9.69-30.52 8.292-33.02 11.752zm-24.707 27.46c-19.542 5.834-35.814 13.58-48.585 23.423-17.772 13.697-29.203 31.2-34.438 54.795-.49 2.212.161 4.779 3.791 9.008 3.63 4.228 9.944 9.096 17.457 13.664 15.026 9.135 34.612 17.28 48.008 22.861l6.797 2.832-1.43 7.223c-5.016 25.348-15.934 39.322-28.836 47.238-8.59 5.27-17.269 8.286-25.758 11.826l19.364 14.594c23.34-10.833 60.975-30.117 74.812-81.324-1.815-6.018-5.439-11.686-10.574-17.461-5.045-5.675-11.355-11.33-17.75-17.334l-18.057-16.955 24.729 1.408c43.857 2.498 54.065 3.107 88.24-11.688 3.447-3.712 3.444-5.336 3.02-8.033-.278-1.763-1.294-4.242-2.516-7.074-11.812 1.44-25.737 3.529-40.317 4.768-17.16 1.458-34.525 1.769-49.31-3.24l-8.352-2.83c2.56-10.596 7.6-19.733 14.72-27.962a38.275 38.275 0 0 1-.97-.66c-6.924-4.872-11.598-11.585-14.045-19.08zm109.913 26.759c2.254 5.557 4.583 11.344 6.47 17.308 2.544 8.042 4.225 16.776 1.6 25.659-1.055 3.57-3.053 6.87-5.549 9.959 25.961 9.135 46.643 21.467 63.115 33.705-1.707-13-8.861-27.544-20.564-42.575-11.772-15.118-27.744-30.223-45.072-44.056zM47.094 229.318c10.194 15.954 20.002 30.51 35.619 41.998 15.801 11.625 38.162 20.795 74.137 24.791l-26.319 25.55c-9.065-6.58-20.236-10.452-32.35-10.452-30.482 0-55 24.518-55 55s24.518 55 55 55c30.483 0 55-24.518 55-55 0-11.84-3.698-22.781-10.01-31.734l15.573-15.116c3.437 9.815 9.215 21.185 18.596 32.727l7.738-4.559c11.511-6.782 22.166-10.194 30.73-13.98l-48.687-22.322 14.486-14.063h.002c5.171-2.484 14.196-6.746 25.694-11.875-36.538-19.755-48.223-34.276-56.237-44.539-38.184 5.27-70.658-3.063-103.972-11.426zm316.002 26.887c-14.207-.135-33.802 3.933-54.719 10.031 4.847 6.342 8.867 13.52 10.787 21.903.616 1.565.347 2.647-.043 4.2-5.919 23.57-16.612 41.61-28.89 55.52l61.316 28.112c-1.748-22.015 5.122-40.515 18.23-54.172l17.692 15.271c-5.256 8.437-8.287 18.418-8.287 29.135 0 30.482 24.517 55 55 55 30.482 0 55-24.518 55-55s-24.518-55-55-55c-13.239 0-25.352 4.624-34.82 12.354l-15.471-13.354c14.1-9.328 31.541-15.65 50.703-20.18-4.05-3.494-8.674-7.304-14.324-11.324-16.01-11.39-37.27-22.307-57.174-22.496zm-134.537 39.408a985.616 985.616 0 0 0-26.475 11.836l30.809 14.123c3.7-4.513 6.777-10.7 9.244-20.133-4.24-1.775-8.824-3.714-13.578-5.826zM98.182 334.205a32 32 0 0 1 15.37 3.934l-23.34 22.656 12.54 12.914 23.52-22.832a32 32 0 0 1 3.91 15.328c0 17.673-14.327 32-32 32-17.673 0-32-14.327-32-32 0-17.673 14.327-32 32-32zm336 0c17.673 0 32 14.327 32 32 0 17.673-14.327 32-32 32-17.673 0-32-14.327-32-32a32 32 0 0 1 3.105-13.752l25.65 22.143L442.7 360.97l-25.416-21.94a32 32 0 0 1 16.899-4.826zM276.48 361.357c-6.78 5.793-13.679 10.601-20.246 14.622l75.74 10.82z"/></svg>
