<svg xmlns="http://www.w3.org/2000/svg" viewBox="0 0 512 512"><path d="M0 0h512v512H0z"/><path fill="#fff" d="M128 32c-21.876 14.867-40.063 29.63-52.5 43.844-7.992 9.133-13.532 17.889-16.678 26.273 16.97 19.241 34.3 34.426 53.961 39.04l-4.113 17.523c-20.593-4.832-37.386-17.526-52.465-32.873l3.363 57.18c16.8 18.933 33.995 33.67 53.21 38.167l-4.102 17.528c-18.264-4.276-33.615-14.81-47.475-27.957l9.326 158.566c13.273-11.896 26.697-22.872 32.596-32.187l6.016-9.502 7.95 7.953c10.184 10.183 22.448 18.873 34.442 26.968l14.215-213.205 17.961 1.2-14.91 223.67c5.97 4.127 11.551 8.213 16.394 12.61l28.498-284.962c-.042.337-1.716-5.257-6.412-11.518-4.756-6.341-11.9-14.003-20.529-21.673C170.549 54.245 149.018 39.866 128 32zm256 0c-21.018 7.866-42.55 22.246-58.748 36.645-8.629 7.67-15.773 15.332-20.53 21.673-4.695 6.261-6.369 11.855-6.411 11.518l28.498 284.963c4.843-4.398 10.424-8.484 16.394-12.611l-14.91-223.67 17.96-1.2 14.216 213.205c11.994-8.095 24.258-16.785 34.441-26.968l7.951-7.953 6.016 9.502c5.899 9.315 19.323 20.291 32.596 32.187l9.326-158.566c-13.86 13.148-29.21 23.681-47.475 27.957l-4.101-17.528c19.214-4.498 36.41-19.234 53.209-38.168l3.363-57.18c-15.08 15.348-31.872 28.042-52.465 32.874l-4.113-17.524c19.661-4.613 36.991-19.798 53.96-39.039-3.145-8.384-8.685-17.14-16.677-26.273C424.063 61.63 405.876 46.867 384 32zM112.008 355.135c-9.544 11.23-22.287 20.883-33.197 30.89-12.837 11.774-21.975 23.14-22.903 34.088 6.442 13.354 12.889 25.89 21.227 35.647 8.41 9.841 18.579 17.035 33.617 20.785 13.386-3.816 27.202-7.674 39.453-16.002 12.721-8.647 24.205-22.026 32.086-47.022-.43-2.913-2.074-6.101-5.818-10.1-4.261-4.549-10.889-9.613-18.752-15.02-13.472-9.265-30.385-19.777-45.713-33.266zm287.984 0c-15.328 13.489-32.241 24.001-45.713 33.265-7.863 5.408-14.49 10.472-18.752 15.022-3.744 3.998-5.388 7.186-5.818 10.1 7.88 24.995 19.365 38.374 32.086 47.021 12.251 8.328 26.067 12.186 39.453 16.002 15.038-3.75 25.207-10.944 33.617-20.785 8.338-9.757 14.785-22.293 21.227-35.647-.928-10.948-10.066-22.314-22.903-34.088-10.91-10.007-23.653-19.66-33.197-30.89z"/></svg>