<svg xmlns="http://www.w3.org/2000/svg" viewBox="0 0 512 512"><path d="M0 0h512v512H0z"/><path fill="#fff" d="M257.055 18.465c-6.748 6.738-12.414 14.552-20.684 22.603-8.015 7.805-18.674 15.146-34.327 20.377 30.746 36.184 75.62 72.38 107.738 86.87 72.752 6.333 110.862-6.825 133.464-24.528 17.934-14.046 26.634-31.438 34.9-47.322-76.99-5.892-155.816-11.885-221.09-58zM224.957 111.1c-18.848 38.29-40.983 72.178-65.06 100.218C119.13 258.795 72.87 290.02 27.23 296.576c4.79 19.176 8.57 35.284 12.14 46.79 4.224 13.625 8.425 21.46 13.702 25.802 5.278 4.343 12.843 6.6 27.123 6.504 11.26-.077 26.285-1.765 45.783-4.633 49.05-9.608 75.085-23.605 91.684-40.503 16.12-16.41 24.06-36.67 34.242-60.91-2.002 35.15-13.275 56.615-27.713 72.422-12.38 13.55-27.5 22.814-41.904 31.72-5.32 2.13-10.992 4.148-17.085 6.048 1.747 2.31 3.242 4.804 4.588 7.405 5.002 9.667 8.175 21.123 11.602 32.13 3.426 11.004 7.12 21.496 11.542 28.274 4.344 6.656 7.96 9.432 14.555 9.402 13.547-1.69 30.984-11.664 49.05-23.833 18.278-12.31 37.19-26.49 56.468-34.61 1.78-.75 3.57-1.427 5.365-2.066 55.37-29.35 65.337-73.985 67.02-85.48-.62 15.536-2.896 28.007-5.916 38.355-4.655 15.945-11.1 26.942-16.804 37.195-2.8 2.697-5.768 5.367-8.96 7.984 6.205 2 12.186 5.423 17.557 10.358 15.25 14.01 26.382 38.883 34.715 79.847 15.255-14.025 33.218-35.4 48.15-60.118 18.82-31.148 32.85-67.483 32.86-100.445-.262-38.83-16.955-76.41-26.525-118.207-4.974-21.72-7.683-44.744-4.602-69.285-.506.41-1.007.825-1.526 1.232-27.166 21.277-71.19 35.115-147.744 28.19l-1.46-.133-1.345-.588c-24.328-10.67-52.84-30.727-78.838-54.326zm44.84 160.392l.724.307c-.303.715-.592 1.42-.893 2.136.063-.81.117-1.625.17-2.444zm133.623 38.1l.264.02s-.094.92-.342 2.5c.034-.827.052-1.68.078-2.52z"/></svg>