<svg xmlns="http://www.w3.org/2000/svg" viewBox="0 0 512 512"><path d="M0 0h512v512H0z"/><path fill="#fff" d="M375.697 20.15l-15.605 3.532 1.765 7.802 14.66 64.803c-7.155-1.095-14.76-2.31-23.326-3.674-3.814-.608-7.236-1.14-10.692-1.68l6.522 28.83c7.156 1.093 14.762 2.308 23.328 3.673 3.815.607 7.237 1.14 10.693 1.68l7.6 33.595 20.645 91.253 7.6 33.592c-7.156-1.095-14.76-2.31-23.326-3.674-3.816-.607-7.238-1.14-10.695-1.68l6.522 28.83c7.156 1.094 14.763 2.308 23.328 3.673 3.815.608 7.237 1.142 10.693 1.682l38.836 171.662 1.766 7.803 15.605-3.532-1.765-7.802L377.463 27.953l-1.766-7.803zm15.69 286.88c-12.89-1.973-23.93-3.458-33.723-4.046l7.447 32.92c.147.016.278.027.425.043h.002c1.622.173 3.302.366 5.043.578 1.742.213 3.545.446 5.416.696h.002c1.87.25 3.807.52 5.817.807h.002c4.02.574 8.326 1.218 12.957 1.932h.002c1.308.2 2.85.45 4.21.663l-7.6-33.594zm-33.723-4.046l-6.676-29.502c-14.35-1.517-24.162-1.484-32.707.45l7.062 31.21c10.32-2.334 20.547-2.864 32.322-2.158zm-32.322 2.16c-10.32 2.333-19.777 6.257-30.102 11.963l7.403 32.715c12.203-7.364 21.088-11.507 29.595-13.43l.084-.02.082-.018-7.062-31.21zm-30.102 11.963l-6.674-29.503c-7.81 4.79-17.164 11.053-28.546 18.84l6.523 28.83c10.786-7.33 20.11-13.42 28.697-18.167zm-28.697 18.166c-5.988 4.07-12.33 8.44-19.475 13.358-3.18 2.192-6.04 4.147-8.927 6.122l7.514 33.213c5.592-3.852 11.555-8.02 18.16-12.625 3.643-2.478 6.957-4.72 10.225-6.926l-7.497-33.14zm-28.402 19.48l-6.523-28.83c-10.786 7.327-20.11 13.42-28.697 18.167l6.674 29.502c7.81-4.79 17.164-11.054 28.547-18.84zm-28.546 18.84c-12.3 7.545-21.17 11.74-29.715 13.673l7.06 31.207c10.332-2.357 19.774-6.333 30.068-12.11l-7.414-32.77zm-29.715 13.673l-7.064-31.213c-10.32 2.335-20.544 2.864-32.32 2.158l6.676 29.503c14.35 1.517 24.162 1.486 32.707-.447zm-32.708.447c-9.11-.963-20.25-2.588-33.877-4.717l7.6 33.592s16.044 2.92 33.724 4.043l-7.448-32.917zm-33.877-4.717l-6.522-28.83c-7.156-1.095-14.763-2.31-23.328-3.674-3.815-.608-7.237-1.142-10.693-1.68l6.523 28.83c7.156 1.093 14.76 2.308 23.327 3.672 3.815.608 7.237 1.142 10.693 1.682zm-6.522-28.83c12.89 1.972 23.93 3.457 33.723 4.045l-7.447-32.92c-9.112-.962-20.252-2.587-33.878-4.716l7.6 33.592zm-7.6-33.592l-6.523-28.83c-7.156-1.095-14.76-2.31-23.326-3.674-3.815-.608-7.237-1.14-10.693-1.68l6.522 28.83c7.156 1.093 14.763 2.308 23.328 3.673 3.815.608 7.236 1.14 10.692 1.68zm-6.523-28.83c12.89 1.972 23.93 3.458 33.725 4.045l-7.45-32.92c-9.11-.964-20.25-2.59-33.874-4.718l7.6 33.592zm-7.6-33.592l-6.523-28.83c-7.156-1.094-14.76-2.31-23.326-3.674-3.814-.607-7.236-1.14-10.692-1.68l6.52 28.83c7.157 1.094 14.764 2.306 23.33 3.67 3.814.61 7.236 1.144 10.693 1.684zm-6.523-28.83c12.89 1.972 23.93 3.458 33.725 4.045l-7.447-32.92c-9.11-.963-20.252-2.59-33.877-4.718l7.6 33.592zm-7.6-33.593l-6.52-28.832c-7.157-1.094-14.764-2.31-23.33-3.673-3.814-.608-7.236-1.142-10.692-1.682l6.523 28.83c7.156 1.095 14.76 2.31 23.326 3.674 3.815.608 7.237 1.142 10.694 1.682zm-6.52-28.832c12.89 1.972 23.928 3.458 33.722 4.045l-7.448-32.92c-.147-.016-.278-.025-.426-.04h-.002c-.81-.087-1.68-.195-2.52-.292-.84-.095-1.65-.18-2.52-.288-1.742-.212-3.545-.445-5.415-.695h-.003c-1.87-.25-3.807-.518-5.817-.805h-.002c-5.156-.735-10.992-1.63-17.172-2.595l7.6 33.59zm33.722 4.045l6.675 29.504c14.35 1.517 24.162 1.484 32.707-.45l-7.06-31.21c-10.32 2.335-20.548 2.863-32.323 2.156zm32.32-2.156c10.32-2.335 19.778-6.258 30.103-11.965l-7.45-32.92c-12.3 7.547-21.17 11.74-29.714 13.672l7.06 31.213zm-7.06-31.213v-.004l-.074.02.073-.016zm37.163 19.248l6.674 29.502c7.81-4.79 17.164-11.053 28.546-18.84l-6.523-28.83c-10.786 7.33-20.11 13.422-28.697 18.168zm28.697-18.168c5.988-4.068 12.33-8.438 19.475-13.357 3.18-2.19 6.04-4.146 8.927-6.12l-7.6-33.593c-5.987 4.068-12.33 8.44-19.474 13.357-3.182 2.192-6.04 4.147-8.928 6.123l7.6 33.59zm28.402-19.478l6.524 28.83c10.786-7.33 20.11-13.42 28.697-18.166l-6.674-29.502c-7.81 4.79-17.165 11.05-28.548 18.838zm28.547-18.838c12.3-7.547 21.17-11.74 29.714-13.674l-7.06-31.207-.082.016c-10.288 2.337-19.723 6.256-30.02 11.947l7.447 32.918zm29.714-13.674l7.063 31.21c10.32-2.334 20.544-2.864 32.32-2.157l-6.676-29.502c-14.35-1.517-24.16-1.484-32.706.45zm32.707-.45c9.112.964 20.252 2.59 33.878 4.718l-7.6-33.592s-16.047-2.912-33.72-4.03l7.443 32.905zm6.677 29.503l7.447 32.92c9.11.963 20.25 2.59 33.875 4.718l-7.6-33.593c-12.89-1.972-23.93-3.458-33.723-4.045zm41.322 37.638l6.523 28.83c7.156 1.093 14.76 2.308 23.326 3.672 3.814.608 7.236 1.144 10.692 1.684l-6.52-28.83c-7.157-1.094-14.764-2.308-23.33-3.673-3.814-.608-7.236-1.142-10.693-1.682zm6.523 28.83c-12.89-1.973-23.93-3.46-33.725-4.046l7.45 32.92c9.11.964 20.248 2.59 33.874 4.717l-7.6-33.593zm7.6 33.592l6.523 28.83c7.156 1.095 14.76 2.31 23.326 3.674 3.815.61 7.237 1.143 10.693 1.683l-6.523-28.83c-7.156-1.095-14.76-2.31-23.326-3.674-3.815-.61-7.237-1.143-10.694-1.683zm6.523 28.83c-12.89-1.97-23.93-3.457-33.725-4.045l7.448 32.92c9.11.963 20.252 2.59 33.877 4.717l-7.6-33.593zm-33.725-4.045l-6.673-29.5c-14.35-1.518-24.162-1.487-32.707.446l7.06 31.213c10.32-2.334 20.546-2.864 32.32-2.157zm-32.32 2.16c-10.32 2.333-19.776 6.255-30.1 11.962l7.446 32.92c12.3-7.547 21.17-11.74 29.715-13.672l-7.06-31.21zm-30.1 11.962l-6.677-29.502c-7.81 4.79-17.164 11.053-28.547 18.84l6.524 28.83c10.786-7.33 20.112-13.422 28.7-18.168zm-28.7 18.168c-5.988 4.068-12.33 8.438-19.475 13.357-3.182 2.19-6.04 4.145-8.927 6.12l7.6 33.592c5.987-4.068 12.33-8.44 19.474-13.358 3.182-2.19 6.04-4.146 8.928-6.12l-7.6-33.592zm-28.402 19.478l-6.522-28.83c-10.786 7.33-20.112 13.42-28.7 18.166l6.675 29.504c7.81-4.79 17.165-11.054 28.548-18.84zm-28.547 18.84c-12.3 7.547-21.17 11.74-29.714 13.672l7.06 31.21c10.32-2.334 19.78-6.256 30.104-11.962l-7.45-32.92zm-29.714 13.672l-7.06-31.21c-10.32 2.334-20.546 2.863-32.32 2.157l6.673 29.5c14.35 1.518 24.16 1.485 32.706-.448zm-7.06-31.21c10.32-2.336 19.776-6.26 30.1-11.966l-7.446-32.92c-12.3 7.547-21.172 11.74-29.717 13.674l7.062 31.21zm-7.063-31.212l-7.06-31.21c-10.32 2.334-20.546 2.864-32.32 2.157l6.673 29.502c14.35 1.516 24.162 1.483 32.707-.45zm-7.06-31.21c10.32-2.336 19.776-6.26 30.1-11.966l-7.446-32.92c-12.3 7.547-21.17 11.74-29.715 13.674l7.06 31.21zm30.1-11.966l6.677 29.502c7.81-4.79 17.162-11.053 28.545-18.84l-6.522-28.83c-10.786 7.33-20.112 13.422-28.7 18.168zm28.7-18.168c5.988-4.068 12.33-8.437 19.475-13.355 3.18-2.19 6.04-4.145 8.927-6.12l-7.6-33.594c-5.987 4.068-12.33 8.44-19.474 13.357-3.18 2.19-6.04 4.146-8.927 6.12l7.6 33.593zm28.402-19.476l6.522 28.83c10.786-7.33 20.112-13.422 28.7-18.168l-6.675-29.502c-7.81 4.79-17.164 11.053-28.547 18.84zm28.547-18.84c12.3-7.547 21.17-11.74 29.715-13.674l-7.06-31.21c-10.32 2.334-19.78 6.258-30.104 11.964l7.45 32.92zm29.715-13.674l7.06 31.21c10.32-2.334 20.546-2.864 32.32-2.157l-6.673-29.503c-14.35-1.517-24.162-1.484-32.707.45zm7.06 31.21c-10.32 2.336-19.776 6.26-30.1 11.966l7.446 32.92c12.3-7.547 21.172-11.74 29.717-13.674l-7.062-31.21zm-58.8 30.134c-5.988 4.068-12.33 8.436-19.473 13.355-3.182 2.19-6.042 4.146-8.93 6.12l7.602 33.595c5.988-4.068 12.33-8.44 19.473-13.357 3.18-2.19 6.04-4.146 8.926-6.122l-7.6-33.59z"/></svg>