<svg xmlns="http://www.w3.org/2000/svg" viewBox="0 0 512 512"><path fill="#fff" d="M123.2 42l6 30h254l6-30zm9.6 48l2.8 14h241.2l2.8-14zm-23.1 14l-.2.1c.9-.1 1.8-.1 2.7-.1zm290.5 0c.9 0 1.9.1 2.7.2l-.2-.2zm-288 18c-2.8 0-9.1 1.8-15.73 5.3-6.65 3.6-13.83 8.8-19.81 14.6-5.98 5.8-10.71 12.2-12.96 17.7-2.24 5.5-2.26 9.3-.21 13 4.38 7.7 7.04 8.3 12.68 7.8 5.63-.4 14.26-4.2 23.62-9.3 9.31-5.2 19.51-11.5 30.01-15.9 10.6-4.4 22.4-7.2 33.8-2.5 8.7 3.5 14.5 10.5 18.6 17.7 4.1 7.2 7 15 9.7 22.1 2.8 7.1 5.5 13.5 8.4 17.5 2.9 4.1 5.1 5.7 8.8 6.1v-.1c5 .6 8.4-1.2 13.2-5.9 4.7-4.8 9.6-12.4 14.7-20.6 5-8.2 10.3-16.9 17.1-24.2 6.8-7.2 15.9-13.3 27.1-13.3 9.1 0 16.6 4.8 21.9 10.4 5.4 5.5 9.4 12 13.2 18.1 3.8 6 7.5 11.6 10.9 15 3.4 3.5 5.6 4.6 8.7 4.5 1.1 0 1.6-.2 3.2-1.8 1.5-1.6 3.5-4.7 5.6-8.2 4.2-7.2 8.9-17.9 20.8-21.6 10.3-3.2 20.4-.6 29.4 3.2 9 3.8 17.5 9.1 25.3 13.4 7.8 4.3 15 7.4 19.6 7.9 4.5.6 6.2.4 9.7-4.9 3.4-5.1 3.6-10.5 1.1-17.7-2.5-7.2-8.1-15.4-14.9-22.9-6.9-7.4-15-14.1-22-18.8-7-4.6-14.2-6.6-13.5-6.6H120.8zm38.4 46.3c-3.9.1-8.5 1.3-13.9 3.5-6.3 2.7-13.3 6.6-20.5 10.6-14.1 65.9-7.8 151 52.8 183.9-21.6-58.6-13.2-113.4 7.1-164.8-.3-.8-.7-1.7-1-2.5-2.8-7.3-5.5-14.3-8.5-19.7-3.1-5.3-6.2-8.5-9.8-10-1.8-.7-3.9-1.1-6.2-1zm-96.65 21.1c-6.76 25.6-9.74 53.9-8.89 81.9 1.03 34 7.67 67.5 20.63 95.3 11.39 24.3 27.96 44.4 50.21 55l-12.7 25.3v2.1c0 3.9 2.2 6.8 4 8.3 1.7 1.4 3.2 2.2 4.8 2.8 3.2 1.3 6.6 2.2 10.9 3 8.5 1.6 20 2.9 33.6 3.9 27.4 2 63.5 3 99.7 3s72.3-1 99.7-3c13.6-1 25.1-2.3 33.6-3.9 4.3-.8 7.7-1.7 10.9-3 1.6-.6 3.1-1.4 4.8-2.8 1.8-1.5 4-4.4 4-8.3v-2.1l-12.6-25.3c22.1-10.6 38.6-30.7 49.9-55.1 12.9-27.7 19.5-61.2 20.5-95.2.8-23.4-1.2-47.1-5.8-69.2-4.7 4.9-10.7 7.7-16.7 8.6 3.6 19.2 5.2 39.7 4.6 60-1 32-7.4 63.5-18.9 88.3-11.3 24.3-27.3 41.7-47.7 49H129.9c-20.5-7.3-36.53-24.7-47.9-49.1-11.59-24.7-17.98-56.2-18.95-88.2-.75-24.9 1.77-50 7.3-72.7-5.86-1-11.62-3.9-16.4-8.6zM133.8 426h244.8l9.5 18.9c-.8.2-1 .3-2 .5-7.2 1.4-18.2 2.6-31.6 3.6-26.6 2-62.5 3-98.3 3s-71.7-1-98.3-3c-13.4-1-24.4-2.2-31.6-3.6-1-.2-1.2-.3-2-.5z"/></svg>