<svg xmlns="http://www.w3.org/2000/svg" viewBox="0 0 512 512"><path d="M0 0h512v512H0z"/><path fill="#fff" d="M339.6 16.39c0 30.48 24.5 55 55 55s55-24.52 55-55zM9.07 81.71C49.52 134.6 128.5 181.5 217.7 220.2c96.5 41.8 203.2 74.2 285.2 98.5-7.8-18.4-15.7-36.7-21.8-55-41.6-22-57.8-32.6-68.1-43.5 19.2 5.7 66.1 11.1 57.4-5.6-6.4-23.8 3.5-49.2 19.4-72.6-154.1 23.1-355.4-4.6-480.73-60.29zm26.56 53.69v208h30V158.7c-10.65-7.5-20.66-15.3-30-23.3zm91.67 61.2c-3.8 9.9-8.2 18.4-13.7 25.7-7.6 10.2-17.17 18.5-29.97 25.8v20.1c18.87-9.3 33.47-20.5 44.37-35.2 6.1-8.3 11.1-17.6 15.2-28-5.3-2.8-10.7-5.6-15.9-8.4zm324.3 125.6v22.7c3.4 1.7 6.5 3.5 9.4 5.6l8.6 6-7.3 7.6c-3.4 3.4-6.7 8.4-10.7 14v21c6 13.3 11.4 27.7 14.1 42.3 2.8 15.6 2.1 31.9-5.1 46h21V331.1c-10-2.9-19.3-5.7-29.9-8.9zm-39.9 33.2c-4.1 0-8 .5-11.7 1.3.4 7.6 2.7 13 8.6 20 9.7 5.7 17.2 3.9 19.8 2.2 5-6 9-12.3 13.4-18.2-7.5-3-16.7-5-25.9-5.3h-2.1zm-392.07 6v81.2l81.17-81.2zm106.77 0L19.63 468.2v19.2h19.4l106.57-100v-26zm273.1 30.8c-3.1 1.2-5.8 3.5-8.7 7.1-4.7 5.9-8.7 15.4-11.5 26.2-5.4 21.4-5.6 48.2-3.4 60.3-.1-1.2 1.1 1.3 5.4 3.4 4.7 2.3 11.6 4.4 19 5.5 14.7 2.4 31-.1 36.2-4.9 12.8-11.8 14.8-26.8 11.5-45.1-2.8-15.3-9.8-31.9-17.1-47.3-9 2.7-20.3 1.4-31.4-5.2zm-253.9 20-80.17 75.2h80.17zm216.7 7.2c-12.2 3.4-23 7.6-29.1 11.2 1.6-.9-.7 1-1.3 6.1-.6 5.2-.2 12.4 1.1 19.8 2.7 14.7 10.4 29.2 16.7 32.6 3.2 1.7 6.4 2.9 9.6 3.7-.5-1.1-.8-2.2-1-3.4-3.2-16.5-2.7-43.7 3.6-68.3.1-.6.3-1.1.4-1.7z"/></svg>