<svg xmlns="http://www.w3.org/2000/svg" viewBox="0 0 512 512"><path d="M0 0h512v512H0z"/><path fill="#fff" d="M288.486 65.154c-4.03-.012-6.848 1.054-8.445 2.617-2.837 2.78-4.187 9.457-.782 20.04 3.405 10.584 11.316 23.592 22.83 35.35 11.514 11.76 24.354 19.94 34.863 23.567 10.51 3.626 17.214 2.418 20.052-.362 2.838-2.78 4.186-9.452.78-20.035-3.404-10.583-11.313-23.595-22.827-35.353-11.514-11.76-24.356-19.94-34.865-23.565-4.598-1.586-8.468-2.248-11.604-2.258zm80.604.776c-4.032-.012-6.853 1.053-8.45 2.617-2.838 2.78-4.183 9.456-.78 20.04 3.406 10.582 11.315 23.59 22.83 35.35 11.514 11.757 24.353 19.94 34.863 23.565 10.51 3.626 17.212 2.418 20.05-.36 2.84-2.78 4.187-9.457.782-20.04-3.405-10.584-11.316-23.592-22.83-35.35-11.514-11.76-24.352-19.94-34.862-23.566-4.598-1.587-8.467-2.247-11.603-2.256zM260.432 86.975l-31.258 30.607c5.788 17.413 13.473 32.68 24.185 44.813 12.826 14.526 29.924 24.947 55.134 29.666l1.547.29 27.35-26.782c-2.107-.5-4.218-1.104-6.31-1.826-13.972-4.82-28.638-14.492-41.853-27.988-13.216-13.496-22.576-28.362-27.102-42.432-.678-2.107-1.238-4.23-1.693-6.347zm-58.295 57.084L81.3 262.384c5.703 16.54 13.196 31.068 23.475 42.71 12.827 14.525 29.925 24.946 55.135 29.665l3.947.738 118.028-115.576c-37.01-11.376-62.938-38.592-79.748-75.863zm179.955 13.827c-4.03-.012-6.85 1.053-8.447 2.617-2.84 2.78-4.187 9.454-.782 20.037 3.405 10.584 11.316 23.594 22.83 35.353 11.515 11.758 24.354 19.94 34.864 23.566 10.51 3.625 17.21 2.417 20.048-.362.71-.696 1.33-1.635 1.8-2.82 13.218 11.37 24.29 26.203 25.34 35.833 1.27 11.666-3.506 21.664-12.89 32.37-9.387 10.703-23.192 21.244-37.308 31.977s-28.55 21.646-39.303 34.48c-10.754 12.83-17.9 28.62-14.7 46.32 2.824 15.628 11.277 31.794 25.02 42.99 13.744 11.198 33.482 16.712 55.157 9.655l8.56-2.787L456.704 450l-8.557 2.787c-16.327 5.316-28.412 1.494-38.214-6.492-9.803-7.987-16.62-20.85-18.678-32.24-2.084-11.53 1.97-21.04 10.783-31.557 8.813-10.518 22.32-21.006 36.4-31.713 14.083-10.707 28.73-21.645 39.95-34.44 11.216-12.794 19.193-28.317 17.25-46.18-2.223-20.41-18.936-37.77-35.61-50.938-4.033-3.187-8.103-6.08-12.09-8.623-4.204-8.643-10.786-18.118-19.38-26.895-11.516-11.76-24.357-19.94-34.867-23.565-4.598-1.587-8.466-2.25-11.6-2.258zm-28.057 21.816l-27.35 26.783.256 1.555c4.19 25.305 14.25 42.618 28.503 55.747 11.904 10.965 27.008 18.968 44.295 25.12l31.258-30.608c-2.11-.5-4.218-1.103-6.31-1.825-13.972-4.82-28.638-14.493-41.854-27.99-13.216-13.495-22.577-28.36-27.103-42.43-.68-2.11-1.24-4.232-1.695-6.352zm-55.445 54.293L180.5 349.636l.656 3.962c4.19 25.303 14.25 42.615 28.502 55.744 11.423 10.52 25.79 18.317 42.207 24.367l120.01-117.517c-36.728-17.825-63.1-44.612-73.285-82.197zM55.68 287.47l-33.522 32.827.07.07c-.304.214-.59.436-.833.676-2.84 2.78-4.187 9.456-.782 20.04 3.405 10.582 11.316 23.59 22.83 35.35 11.515 11.757 24.354 19.94 34.864 23.565 10.51 3.626 17.21 2.418 20.048-.36.245-.24.475-.52.696-.818l.07.07 35.804-35.06c-36.806-11.614-62.575-38.98-79.244-76.36zm95.158 91.21l-35.076 34.347.07.07c-.303.215-.587.438-.832.678-2.838 2.78-4.188 9.454-.783 20.038 3.405 10.583 11.316 23.593 22.83 35.35 11.514 11.76 24.354 19.94 34.863 23.567 10.51 3.627 17.213 2.42 20.05-.36.246-.24.474-.52.694-.817l6.366 6.5-6.295-6.432 31.713-31.054c-36.792-17.74-63.268-44.425-73.6-81.886z"/></svg>