<svg xmlns="http://www.w3.org/2000/svg" viewBox="0 0 512 512"><path d="M0 0h512v512H0z"/><path fill="#fff" d="M282.2 13.97c-4.2 15.21-8.7 36.89-13 56.59-3 13.47-6 26.09-9.4 35.94-1.8 4.9-3.5 9.1-5.9 12.8-2.3 3.7-6 8.1-12.6 8.2-7.7.1-13.4-4.6-17.7-9.6-4.3-5-7.8-11.1-11-17.7-3.8-7.71-7.1-15.83-10.1-23.54-11.2 17.46-16.1 33.74-17.4 50.44-1.7 20.9 2.3 42.8 7.6 67.8l3.5 16.6-15.7-6.4c-27.9-11.3-48.2-31.6-64.6-52.1 7.9 29.1 28.5 62.6 52.7 87.8l9.4 9.7-12.7 4.9c-18.3 7.1-42.2 4.3-64.8-5.6 3.9 25.2 16.3 51.3 38.6 74.8-13.7 33.7-20.3 67.6-11.3 96.7 8 25.6 28.7 44.9 52.8 57.7 24.2 12.9 52.2 19.5 77.2 19 24.2-.6 50.7-8.3 73.4-21.7 22.7-13.5 41.8-33 48.9-57.9 9.6-33.8-1.5-73.8-19.8-112.3 13-16.6 19.9-36.4 20.6-60.3-1.9 1.4-3.9 2.5-6.1 3.5-8.5 4-19.6 3.6-27.6-2.9-10.5-8.4-12.8-22.4-10.4-35.7 2.4-13.4 9-27.6 17.9-41.9 14.6-23.4 35.4-46.6 56.8-62.7-13.8-4.9-28.4-7.63-41.8-6.41-18.3 1.71-34.7 9.71-47.7 30.91l-16.6 26.9-.1-31.6c-.1-31.2-.2-54.22-4.3-72.88-3.2-14.48-8.6-26.55-18.8-39.05zM253.7 177.1c11.7 14.1 37 45.7 60.8 83.6 32.2 51.3 59.4 113.6 48.2 152.7-5.4 19.1-20.8 35.6-40.7 47.4-19.9 11.8-44 18.7-64.6 19.2-21.5.4-47.1-5.6-68.3-16.9-21.3-11.3-38-27.6-44.1-47.2-12.2-39 14.9-101.9 47.2-153.9 24-38.4 49.7-70.6 61.5-84.9zm29.2 144a53.36 60.96 0 0 0-53.4 61 53.36 60.96 0 0 0 53.4 61 53.36 60.96 0 0 0 53.4-61 53.36 60.96 0 0 0-53.4-61zm3.8 33.4c17.5 0 31.6 14.8 31.6 32.4 0 17.6-14.1 32.4-31.6 32.4s-31.6-14.8-31.6-32.4c0-17.6 14.1-32.4 31.6-32.4zm0 18c-7.4 0-13.6 6.1-13.6 14.4s6.2 14.4 13.6 14.4c7.4 0 13.6-6.1 13.6-14.4s-6.2-14.4-13.6-14.4z"/></svg>