<svg xmlns="http://www.w3.org/2000/svg" viewBox="0 0 512 512"><path d="M0 0h512v512H0z"/><path fill="#fff" d="m399.816 26.656-38.025 28.782 9.318 12.312 12.967-9.814-.392 41.216 15.439.147.693-72.643zm-334.609.225c-8.453 0-15.595 5.085-20.111 11.734-4.517 6.65-6.973 15.136-6.973 24.364 0 9.227 2.456 17.714 6.973 24.363 4.516 6.649 11.658 11.734 20.111 11.734 8.453 0 15.597-5.085 20.113-11.734 4.517-6.65 6.973-15.136 6.973-24.363 0-9.228-2.456-17.715-6.973-24.364-4.516-6.649-11.66-11.734-20.113-11.734zM256 34c-27.111 0-49.757 8.433-66.252 23.4-16.495 14.968-26.617 35.397-33.133 58.204-8.595 30.082-11.34 65.024-12.213 101.396h32.162c.978-35.083 3.635-67.454 10.82-92.604 5.485-19.193 13.363-33.764 23.868-43.296C221.757 71.567 235.112 66 256 66c20.889 0 34.243 5.567 44.748 15.1 10.505 9.532 18.383 24.103 23.867 43.296 7.186 25.15 9.843 57.521 10.82 92.604h32.163c-.873-36.372-3.618-71.314-12.213-101.396-6.516-22.807-16.638-43.236-33.133-58.204C305.757 42.433 283.112 34 256 34zM65.207 42.88c2.088 0 4.488 1.205 6.879 4.725 2.391 3.52 4.207 9.083 4.207 15.374 0 6.29-1.816 11.852-4.207 15.373-2.391 3.52-4.791 4.724-6.879 4.724-2.088 0-4.486-1.204-6.877-4.724-2.39-3.52-4.207-9.083-4.207-15.373 0-6.291 1.816-11.853 4.207-15.374 2.391-3.52 4.79-4.724 6.877-4.724zm47.85 53.298L75.03 124.959l9.319 12.31 12.966-9.814-.392 41.219 15.44.146.693-72.642zm126.634.222c-8.452 0-15.596 5.086-20.113 11.735-4.516 6.649-6.973 15.136-6.973 24.363s2.457 17.714 6.973 24.363c4.517 6.65 11.66 11.735 20.113 11.735s15.597-5.085 20.114-11.735c4.516-6.649 6.97-15.136 6.97-24.363s-2.454-17.714-6.97-24.363c-4.517-6.65-11.66-11.735-20.114-11.735zm202.38 0c-8.454 0-15.598 5.086-20.114 11.735-4.516 6.649-6.973 15.136-6.973 24.363s2.457 17.714 6.973 24.363c4.517 6.65 11.66 11.735 20.113 11.735s15.595-5.085 20.112-11.735c4.516-6.649 6.972-15.136 6.972-24.363s-2.456-17.714-6.972-24.363c-4.517-6.65-11.659-11.735-20.112-11.735zm-202.38 16c2.088 0 4.486 1.205 6.877 4.725 2.391 3.52 4.207 9.082 4.207 15.373 0 6.29-1.816 11.853-4.207 15.373-2.39 3.52-4.789 4.725-6.877 4.725-2.087 0-4.487-1.205-6.879-4.725-2.39-3.52-4.207-9.082-4.207-15.373 0-6.29 1.816-11.853 4.208-15.373 2.39-3.52 4.79-4.725 6.878-4.725zm202.38 0c2.087 0 4.485 1.205 6.876 4.725 2.391 3.52 4.207 9.082 4.207 15.373 0 6.29-1.816 11.853-4.207 15.373-2.39 3.52-4.789 4.725-6.877 4.725-2.087 0-4.488-1.205-6.879-4.725-2.39-3.52-4.207-9.082-4.207-15.373 0-6.29 1.816-11.853 4.207-15.373 2.391-3.52 4.792-4.725 6.88-4.725zm-132.397 49.871-38.026 28.782 9.319 12.31 12.969-9.816-.223 23.453h15.44l.52-54.729zm184.035 0-38.025 28.782 9.318 12.31 12.969-9.816-.393 41.22 15.44.147.691-72.643zm-449.16.223c-8.453 0-15.597 5.085-20.113 11.735-4.517 6.649-6.973 15.135-6.973 24.363 0 9.227 2.456 17.714 6.973 24.363 4.516 6.65 11.66 11.734 20.113 11.734s15.597-5.085 20.113-11.734c4.517-6.65 6.973-15.136 6.973-24.363 0-9.228-2.456-17.714-6.973-24.363-4.516-6.65-11.66-11.735-20.113-11.735zm0 16c2.087 0 4.486 1.205 6.877 4.725 2.39 3.52 4.209 9.082 4.209 15.373 0 6.29-1.818 11.853-4.21 15.373-2.39 3.52-4.789 4.724-6.876 4.724-2.088 0-4.486-1.204-6.877-4.724-2.391-3.52-4.21-9.083-4.21-15.373 0-6.29 1.819-11.853 4.21-15.373 2.39-3.52 4.79-4.725 6.877-4.725zM137 235v238h238V235H137zM16 257v18h103v-18H16zm377 0v18h23v-18h-23zm55 0v18h32v-18h-32zm-192 31a32 32 0 0 1 32 32 32 32 0 0 1-23.19 30.764l23.19 80.98h-64l23.19-80.98A32 32 0 0 1 224 320a32 32 0 0 1 32-32zm-208 1v18h48v-18H48zm384 0v18h48v-18h-48zM32 337v18h80v-18H32zm361 0v18h71v-18h-71zM16 385v18h48v-18H16zm80 0v18h23v-18H96zm320 0v18h64v-18h-64zM48 433v18h71v-18H48zm352 0v18h32v-18h-32zm48 0v18h48v-18h-48z"/></svg>
