<svg xmlns="http://www.w3.org/2000/svg" viewBox="0 0 512 512"><path d="M0 0h512v512H0z"/><path fill="#fff" d="M256 25C154.825 25 73 106.825 73 208c0 48.449 18.762 92.46 49.428 125.174l47.87-66.319v-.001C158.763 250.107 152 229.827 152 208c0-57.343 46.657-104 104-104 13.56 0 26.524 2.609 38.414 7.352A64 64 0 0 0 272 160a64 64 0 0 0 64 64 64 64 0 0 0 23.36-4.416c-1.938 17.404-8.191 33.526-17.659 47.27v.001l47.871 66.319C420.238 300.46 439 256.449 439 208c0-101.175-81.825-183-183-183zm0 192.9-42.092 19.293L33.596 487H70.75L112 432l-13.75 55h49.35L208 336l-15.1 151h78.457L256 272l46.072 215h47.678L304 304l83.982 183h40.278l-36.147-87 65.147 87h21.144L298.092 237.193 256 217.9z"/></svg>
