<svg xmlns="http://www.w3.org/2000/svg" viewBox="0 0 512 512"><path d="M0 0h512v512H0z"/><path fill="#fff" d="M401.3 12.16c11 13.87 19.9 28.67 20.1 47.42 0 0-20.9-8.69-28.4.24-31.5 67.38 53.5 95.48 64.7 36.4 11-34.97-56.4-84.06-56.4-84.06zM89.6 27.3S18.15 99.53 36.49 135.2c12.48 24.3 59.05 29.8 80.81 13.3 11-8.4 13.1-30.4 4.4-41.2-5.7-7.1-21.1-9.77-27.15-3-3.89 4.4 8.25 13 3.95 17.1-5.68 5.5-18.59.5-22.89-6.1-16.19-24.87 13.99-88 13.99-88zM256 133.5c-45.5 0-83.6 18.9-123.1 44.5-35.3 23-71.3 51.2-113.7 74.5C61.6 275.8 97.6 304 132.9 327c39.5 25.6 77.6 44.5 123.1 44.5s83.6-18.9 123.1-44.5c35.3-23 71.4-51.2 113.7-74.5-42.3-23.3-78.4-51.5-113.7-74.5-39.5-25.6-77.6-44.5-123.1-44.5zm0 14c57.9 0 105 47.1 105 105s-47.1 105-105 105-105-47.1-105-105 47.1-105 105-105zm-7.1 26.4s-57 37.2-60 66.7c-2.9 28.9 16.7 65.8 44.7 75.4 28.2 9.7 70.2-5.6 83.8-31.7 9.8-18.9 3-52.8-16.8-61.6-17.8-7.8-54 9.9-52.4 25.4 0 0 33-7.8 37.2 3.7 4.2 11.5-10.8 23.6-26.4 25.8-18.4 2.7-33.4-12.7-37.1-30.6-5.4-26.9 27-73.1 27-73.1zm196.6 142.9c3 25.9-7 129.4-45.6 115-9.5-3.5 15.4-20.2 10-28.8-5.7-9.1-22.7-9.3-32-3.9-20.5 11.8-40.4 45-28.1 65.2 20.5 33.5 90.7 36.8 117.5 8.1 35.7-38.3-21.8-155.6-21.8-155.6zm-389.64 42c-10.66-.4-43.33 96-9.91 106.7 9.59 3.1 26.15 1.1 39.39-5.4 1.36 6.5 4.31 11.8 9.44 14.8 21.02 12.3 103.82-12.2 56.72-46-9-3.6-29.4 13.7-29.4 13.7-12.2-24.5-14.5-51.7-10.5-63.3-3.5-1-11.5 11.9-17.97 28.7-2.53-3-5.51-6-8.98-9.1-10.4-5.3-23.1 27.9-23.1 27.9-21.7-6.5-9.9-50.8-5.2-67.9-.16-.1-.32-.1-.49-.1z"/></svg>