<svg xmlns="http://www.w3.org/2000/svg" viewBox="0 0 512 512"><path fill="#fff" d="M256 28.2c-101.2 0-183 81.8-183 183s81.8 183 183 183 183-81.8 183-183-81.8-183-183-183zm0 46c75.6 0 137 61.4 137 137s-61.4 137-137 137-137-61.4-137-137 61.4-137 137-137zm0 18c-44.7 0-83.7 24.6-104 61l25.8 67.6 21.6-87.5 14.3 43.5 22.2-68.9 19.1 88.5 33.7-99.7c-10.4-2.9-21.4-4.5-32.7-4.5zm37.5 6c3.3 1.1 6.5 2.4 9.6 3.7l19.3 71.2 18.7-45.1c-13.1-13.4-29.4-23.7-47.6-29.8zm-144.4 60.5c-.1.3-.3.6-.4.9.1-.3.3-.6.4-.9zm-.7 1.5c-.4.9-.8 1.9-1.3 2.8.5-.9.9-1.9 1.3-2.8zm-1.4 3.1c-3.9 8.9-6.8 18.5-8.4 28.5 1.6-10 4.5-19.5 8.4-28.5zm221.7 9.4c0 .2 0 .3.1.4-.1-.1-.1-.2-.1-.4zm.8 2.7c.1.2.1.3.2.5-.1-.2-.1-.3-.2-.5zm.8 2.5c.1.3.2.6.2.9 0-.3-.1-.6-.2-.9zm.8 2.9c0 .2.1.5.2.7-.1-.2-.2-.5-.2-.7zm.6 2.6c.1.4.2.7.3 1.1-.1-.4-.2-.7-.3-1.1zm.6 2.7c.1.4.2.8.3 1.3-.1-.5-.2-.9-.3-1.3zm.6 3c.1.4.2.7.3 1.1-.1-.4-.2-.7-.3-1.1zm-234.3 2.8c-.2 1.2-.4 2.5-.6 3.8.2-1.3.4-2.6.6-3.8zm-.6 3.8c-.2 1.2-.3 2.5-.4 3.7.1-1.2.2-2.5.4-3.7zm235.5-3.4c0 .3.1.5.1.8 0-.3-.1-.5-.1-.8zm.5 3.1c0 .2 0 .5.1.7-.1-.2-.1-.5-.1-.7zm.3 2.5c0 .4.1.8.1 1.2 0-.4-.1-.8-.1-1.2zm-236.7 1.8c-.1 1.1-.2 2.1-.3 3.2.1-1.1.2-2.1.3-3.2zm236.9.7c.1.6.1 1.1.2 1.7-.1-.6-.1-1.1-.2-1.7zm.2 2.9c.1.6.1 1.2.1 1.8 0-.6 0-1.2-.1-1.8zm-237.5.6c0 .9-.1 1.8-.1 2.7 0-.9.1-1.8.1-2.7zm-.1 3.7c-.1 1.2-.1 2.4-.1 3.6 0-1.2 0-2.4.1-3.6zm291.6 106.3c-16.3 27.4-38.9 50.5-65.8 67.5l18.9 48.9 18.6-63 9.7 30.3zM91.23 326.2l6.86 90.3 19.01-60.1c-9.6-9.2-18.25-19.3-25.87-30.2zm37.07 40.1l9.6 88.4 16.6-40.8 15.7 69.9 27-80.4c-25.5-7.8-48.8-20.5-68.9-37.1zm210 28.3c-25.1 11.3-53 17.6-82.3 17.6-13.9 0-27.5-1.4-40.7-4.1l16.8 72.1 19.2-57.4 16.6 30.9 20-34 24.9 50.9z"/></svg>