<svg xmlns="http://www.w3.org/2000/svg" viewBox="0 0 512 512" style="height: 512px; width: 512px;"><path d="M0 0h512v512H0z" fill="#000" fill-opacity="1"></path><g class="" transform="translate(0,0)" style="touch-action: none;"><path d="M 217.465 30.803 c 0.44 3.92 0.913 8.674 1.346 14.052 c 1.125 0.166 2.477 0.33 4.444 0.395 c 5.563 0.184 13.298 -0.154 20.976 -0.777 c 7.68 -0.624 15.374 -1.525 21.084 -2.383 c 0.567 -0.085 1.003 -0.165 1.518 -0.248 c -1.307 -4.46 -2.39 -8.283 -3.15 -11.04 h -46.217 Z m 54.695 28.412 c -1.284 0.226 -2.667 0.45 -4.17 0.676 c -6.22 0.936 -14.203 1.866 -22.303 2.524 c -8.1 0.658 -16.247 1.05 -23.03 0.826 c -0.953 -0.03 -1.87 -0.078 -2.77 -0.135 c 0.818 20.64 0.435 44.035 -6.3 61.342 c -17.575 45.157 -66.902 73.035 -107.907 101.145 c -20.503 14.055 -39.06 28.076 -51.016 42.9 c -11.957 14.824 -17.565 29.58 -14.092 48.414 c 6.058 32.85 30.452 59.058 63.908 78.32 c -0.022 -0.24 -0.055 -0.473 -0.076 -0.714 c -3.172 -36.897 16.3 -86.13 81.88 -149.852 l 6.454 -6.27 l 0.768 0.79 c -8.855 12.142 -18.185 25.893 -27.13 40.142 c -17.995 28.67 -34.205 58.318 -40.185 81.686 c -3.66 12.195 -4.637 22.83 -3.852 31.963 c 2.508 29.174 23.125 45.873 37.35 52.19 c 5.175 2.3 15.564 2.78 27.724 0.822 c 12.16 -1.956 26.032 -5.952 38.97 -10.435 c 3.276 -1.136 6.485 -2.3 9.597 -3.467 c -3.832 -4.028 -7.412 -8.3 -10.666 -12.803 c -19.302 -26.713 -26.122 -63.153 -2.99 -97.353 l 2.18 -3.22 c -3.023 12.43 -3.065 25.998 -1.805 38.528 c 0.615 6.122 1.6 12.02 2.85 17.526 c 1.443 12.024 6.71 23.398 14.354 33.976 c 16.224 22.453 44.278 39.448 66.64 43.524 c 9.313 1.697 28.067 -4.016 42.567 -13.348 c -1.83 -0.94 -3.624 -1.93 -5.358 -2.988 c -12.064 -7.356 -21.86 -17.95 -25.182 -31.697 l -2.113 -8.748 l 17.496 -4.23 l 2.113 8.75 c 1.918 7.936 7.8 14.91 17.057 20.556 c 9.258 5.645 21.636 9.6 34.467 11.176 c 25.66 3.147 51.865 -4.003 60.808 -17.683 c 12.51 -19.135 15.126 -41.138 4.844 -65.693 c -4.297 -10.263 -10.992 -20.956 -20.353 -31.797 c -4.007 -6.106 -8.56 -12.323 -13.445 -18.547 c -13.093 -16.688 -28.437 -33.323 -40.713 -46.147 l 0.463 -0.752 l 7.662 4.722 c 37.088 22.842 62.097 47.366 76.338 72.17 c 2.34 -6.142 4 -12.51 4.887 -19.094 c 2.413 -17.91 -2.877 -32.225 -13.664 -46.293 c -10.787 -14.068 -27.304 -27.283 -45.934 -40.342 c -28.536 -20.002 -62.008 -39.37 -86.62 -64.515 c 7.872 20.72 17.83 41.59 26.538 56.11 l 3.602 6.003 c -13.978 -8.353 -34.964 -25.746 -50.873 -65.638 v -0.007 c -5.19 -15.058 -9.082 -29.94 -10.605 -42.948 l -0.234 -1.994 C 284.27 95.3 278.82 79.757 274.23 65.7 c -0.762 -2.336 -1.39 -4.346 -2.07 -6.485 Z m -18.508 388.43 c 0.155 10.235 -2.71 21.145 -1.578 36.994 l 0.64 8.975 l 17.954 -1.283 l -0.64 -8.977 c -0.61 -8.53 0.723 -16.336 1.45 -24.587 c -6.115 -3.178 -12.104 -6.907 -17.826 -11.122 Z m -15.773 2.918 c -1.847 0.67 -3.713 1.335 -5.607 1.992 c -4.143 1.435 -8.394 2.82 -12.687 4.132 c -0.022 1.37 -0.033 2.713 -0.035 4.012 c -0.01 6.718 0.014 12.64 -1.67 20.55 l -1.876 8.803 l 17.605 3.75 l 1.874 -8.803 c 2.088 -9.802 2.056 -17.623 2.067 -24.27 c 0.007 -3.6 0.034 -6.84 0.33 -10.168 Z m -29.835 9.388 c -5.978 1.548 -11.95 2.867 -17.774 3.804 c -0.85 0.137 -1.69 0.246 -2.534 0.37 c -1.356 3.462 -3.08 6.86 -5.414 10.233 l -5.12 7.403 L 192.007 492 l 5.12 -7.402 c 5.803 -8.388 8.91 -16.698 10.92 -24.647 Z m 74.96 4.09 c 1.13 7.544 3.048 14.03 4.233 20.944 l 1.522 8.87 l 17.742 -3.04 l -1.522 -8.873 c -0.796 -4.645 -1.706 -8.522 -2.535 -12.145 c -6.41 -1.23 -12.944 -3.172 -19.44 -5.756 Z m 47.16 3.89 c -6.298 1.833 -12.626 2.846 -18.76 2.783 c 1.82 3.967 3.888 7.702 5.687 12.064 l 3.43 8.32 l 16.642 -6.86 l -3.432 -8.32 c -1.264 -3.067 -2.46 -5.643 -3.566 -7.987 Z" fill="#fff" fill-opacity="1"></path></g></svg>