<svg xmlns="http://www.w3.org/2000/svg" viewBox="0 0 512 512"><path fill="#fff" d="M259.9 22.58c-8.4 13.15-16.5 26.36-20.5 39.25 3.9 3.1 7.5 6.32 10.5 9.49 1.3 1.34 2.4 2.6 3.5 3.9 1.6-1.09 3.3-2.07 5.1-3.11 3.6-2.02 7.8-3.92 12.1-5.65l.5-.36c-.6-14.54-5.6-28.64-11.2-43.52zm-48.8 42.57c-.6 5.7 0 12.96 2.2 19.83 6.5 3.02 12.8 7.29 18.8 11.79 2 1.55 4 3.23 5.9 4.83 2.6-3.18 4.1-7.26 2.4-13.32.3 1-1-1.86-3.6-4.64-2.7-2.79-6.4-6.09-10.4-9.2-5-3.74-10.6-7.01-15.3-9.29zM45.58 70.77c1.19 15.58 2.76 30.93 7.27 43.63 5.03.1 9.86.5 14.17 1.3 1.79.3 3.45.7 5.06 1 .6-1.8 1.38-3.6 2.23-5.6 1.64-3.7 3.76-7.7 6.21-11.68l.16-.6c-9.18-11.29-21.64-19.55-35.1-28.05zm305.02.55c-10.2 11.86-20 23.85-25.8 35.98 3.5 3.7 6.6 7.3 9.2 10.9 1 1.5 2 2.9 2.8 4.3 1.7-.8 3.5-1.5 5.5-2.3 3.8-1.5 8.2-2.8 12.7-3.9l.5-.3c1.5-14.5-1.4-29.17-4.9-44.68zm-53.3 6.53c-5.2.76-11.5 2.2-17.3 4.3-4.8 1.74-9.4 3.78-12.7 5.66-3.3 1.86-5.4 4.13-5 3.38-3.4 5.42-3 9.81-1.3 13.71 2.4-1.1 5-2.1 7.7-3.1 6.7-2.38 13.6-4.48 20.5-5.4 4.3-5.95 6.9-12.87 8.1-18.55zm-176 1.4c1.3 15.6 2.7 30.95 7.3 43.65 5 .2 9.9.5 14.1 1.3 1.8.3 3.5.6 5.2 1 .6-1.8 1.3-3.6 2.2-5.6 1.6-3.8 3.7-7.7 6.2-11.8l.2-.6c-9.2-11.2-21.7-19.46-35.2-27.95zm347.5 5.79c-13.2 8.43-26 17.06-35.1 27.06 2.3 4.5 4.2 8.9 5.6 13.1.6 1.7 1.1 3.3 1.5 4.9 1.9-.3 3.9-.5 6-.7 2.5-.2 5.3-.3 8.1-.2 1.7 0 3.5 0 5.2.1l.6-.1c5.6-13.4 7-28.3 8.1-44.16zM104.6 96.76c-2.4 2.86-4.86 6.14-7.06 9.44-2.8 4.3-5.2 8.7-6.73 12.1-1.52 3.5-1.78 6.7-1.88 5.6.18 2.4.69 4.3 1.42 5.9l1.5-.8c5.29-2.8 11.45-4.4 17.85-5.2-2.6-8.9-4.1-18-5.1-27.04zm79.9 4.04c-3.7 3.7-7.9 8.7-11.2 13.9-2.8 4.3-5.2 8.7-6.7 12.1-1.6 3.5-1.8 6.7-1.9 5.6.5 6.6 3.5 9.9 7.1 12 1.3-2.4 2.8-4.8 4.3-7.2 3.9-6 8.2-11.9 13.1-16.8-.2-7.2-2.2-14.4-4.7-19.6zm21.4 1c-.1 1.4-.2 3-.2 4.6.2 1 .3 2 .5 2.9l4.3 3.9c5.2 4.8 8.8 10.9 11.1 17.8 1.8 1.3 3.6 2.6 5.3 3.9 1.8 1.3 3.5 2.7 5.2 4.1 3-3.2 4.9-7.5 3.1-14.1.3 1-1-1.9-3.6-4.6-2.7-2.8-6.4-6.1-10.5-9.2-4.9-3.8-10.5-7-15.2-9.3zm200.7 1.6c-2.8 4.9-5.4 11.7-6.2 18.9 4.7 5.4 8.6 11.9 12.1 18.5 1.2 2.3 2.4 4.6 3.4 6.9 3.6-1.8 6.6-4.8 7.7-10.9-.1 0-.3-2.8-1.4-5.9-1.2-3.7-3.2-8.2-5.6-12.7-2.9-5.5-6.6-10.8-10-14.8zm-114.5 11.1c-5.2.7-11.5 2.2-17.3 4.3-4.8 1.7-9.4 3.7-12.7 5.6-3.3 1.9-5.4 4.1-4.9 3.4-3.7 5.7-3.1 10.4-1.3 14.4.1.2.2.5.4.7 2.3-1 4.7-2 7.2-2.9 6.3-2.2 12.8-4.2 19.2-5.3.3-.4.7-.9 1.1-1.4 4.4-6 7.1-13.1 8.3-18.8zm18.2 3.7c-1 5.2-3 10.3-5.5 15.3 2.7 2.4 5.4 4.9 8 7.4 1.8 1.9 3.6 3.8 5.2 5.7 3-2.8 5-6.7 4.3-12.8.1.9-.8-2-3-5.1-2.2-3.2-5.5-7-9-10.5zm56.8 14c-1.6.3-3.3.5-4.9.9-5 1-9.7 2.4-13.3 3.8-3.5 1.4-5.9 3.4-5.3 2.6-4.2 5-4.5 9.5-3.4 13.6 2.6-.8 5.3-1.5 8.1-2.1 2.7-.6 5.4-1 8.1-1.5 1.1-1 2.2-2.1 3.4-3l3.9-2.9c.8-3.9 1.9-7.8 3.4-11.4zm-317.03.2c-6.2 0-12.64.7-17.81 1.8 3 4.8 7.79 10.3 13.71 14.5 7.04-1.6 14.67-2 22.14-1.9 2.6 0 5.15.1 7.63.2.14-4-1.12-8.2-6.07-12 .79.6-1.99-.9-5.74-1.6-3.77-.6-8.72-1-13.86-1zm152.43.7c-3.7 3.7-7.9 8.7-11.3 13.9-2.8 4.3-5.2 8.7-6.7 12.2s-1.8 6.5-1.9 5.7c.6 6.7 3.8 10.1 7.7 12.2.2.1.5.2.7.3 1.3-2.2 2.6-4.4 4-6.6 3.6-5.6 7.6-11.1 12.1-15.8v-1.8c-.1-7.4-2.1-14.7-4.6-20.1zm184.1 1.4c-2.9 5.1-5.6 12.1-6.3 19.6 0 .4-.1.8-.1 1.3 4.5 5.3 8.3 11.6 11.7 18 1 2 2 4 2.9 5.9h.1c4.1-1.7 7.5-4.8 8.7-11.4-.1 0-.3-2.7-1.4-5.9-1.2-3.7-3.2-8.2-5.6-12.7-2.9-5.5-6.6-10.8-10-14.8zm-260.7 6.4c-6.2-.1-12.7.7-17.8 1.8 2.9 4.8 7.7 10.3 13.6 14.5 7.1-1.6 14.7-2 22.1-2 2.6 0 5.2.1 7.7.3.2-4.1-1.2-8.3-6.1-12.1.8.6-2-.9-5.7-1.5-3.8-.6-8.7-1-13.8-1zm328.8 6.3c-2.4 0-4.5 0-6.4.2-3.8.3-6.7 1.5-5.8 1h-.1c-5.4 3.5-6.9 7.7-7.1 11.9 2.7 0 5.6.2 8.4.4 7.1.7 14.2 1.7 20.8 3.6 6.4-3.6 11.8-8.8 15.2-13.4-5-1.5-11.4-2.8-17.6-3.4-2.5-.2-5-.3-7.4-.3zM287 152.6c-5.2.8-11.6 2.2-17.4 4.3-4.8 1.8-9.3 3.8-12.7 5.7-2.9 1.6-4.8 3.5-4.9 3.5-3.6 5.6-3 10.2-1.2 14.2 1.9 4 6.1 5.8 5.2 5.8 6.8.3 15.9-5.5 22.6-14.6 4.4-6 7.2-13.1 8.4-18.9zm17.6 6c-1.3 5.3-3.5 10.5-6.3 15.5 1.4 1.3 2.8 2.6 4.2 4 1.6 1.6 3.1 3.2 4.5 4.8 3.4-2.9 5.9-6.8 5.1-13.6.1.9-.8-2-3-5.1-1.2-1.7-2.8-3.6-4.5-5.6zm-236.49 6.2c-6.2-.1-12.65.7-17.82 1.8 3.1 5 8.08 10.7 14.27 14.9l.9.6c6.88-1.5 14.31-1.9 21.57-1.8 2.25 0 4.45.1 6.61.2.4-4.4-.59-9-6-13.2.82.6-1.93-.9-5.69-1.5-3.76-.6-8.7-1-13.84-1zm153.29 1.8c-3.7 3.8-7.9 8.8-11.3 14-2.8 4.3-5.1 8.6-6.7 12.1-1.5 3.5-1.7 6.7-1.8 5.6.5 6.9 3.8 10.2 7.7 12.3 3.6 2 7.8 1.1 7.6 1.4 5.5-3.8 9.3-14 9.2-25.3-.1-7.4-2.2-14.7-4.7-20.1zm-4.5 45.4l-.1.1c.1 0 .1-.1.1-.1zM366 167.1c-2.9 5.1-5.6 12.1-6.3 19.6-1.2 11.3 1.7 21.7 7 26-.8-.6 3.6.9 7.6-.9 4.1-1.7 7.5-4.7 8.7-11.3-.1 0-.3-2.8-1.4-5.9-1.2-3.6-3.2-8.2-5.6-12.7-2.9-5.5-6.6-10.8-10-14.8zm-21.5 3.4c-2.1.7-4.1 1.3-5.8 2-3.5 1.4-5.9 3.4-5.3 2.6-4.4 5.3-4.5 10-3.2 14.2.1.2.2.5.3.7 2.4-.7 4.9-1.3 7.5-1.9 1.2-.2 2.3-.5 3.5-.7.1-.8.1-1.7.2-2.5.5-4.9 1.4-9.7 2.8-14.4zm-200.7 2.7c-6.2 0-12.6.8-17.8 1.9 3.1 5 8.1 10.6 14.3 14.8.3.2.7.4 1 .7 6.9-1.5 14.3-1.9 21.5-1.8 2.3 0 4.5.1 6.7.2v-.1c.3-4.3-.7-9-6.1-13.2.8.7-2-.8-5.7-1.4-3.8-.7-8.7-1.1-13.9-1.1zm290.9 5.1c-2.4 0-4.6 0-6.5.2-3.8.3-6.6 1.6-5.7 1-5.8 3.7-7.2 8.2-7.2 12.6v.8c2.5 0 5.1.1 7.7.4 6.6.6 13.3 1.5 19.6 3.2.5-.3 1.1-.6 1.6-.9 6.5-3.6 12-8.9 15.5-13.6-5.1-1.5-11.4-2.8-17.6-3.3-2.5-.3-5.1-.4-7.4-.4zm-147.1 10.4c-3.7 4-7.8 7.5-12.4 10.2.1.3.1.7.2 1.1 2.1 11.2 8 20.4 14.2 23-1-.4 3.7-.2 7.1-3 3.4-2.9 5.9-6.8 5-13.6v-.1c.1 1.1-.8-1.9-3-5s-5.4-6.9-9-10.6c-.7-.7-1.4-1.3-2.1-2zm-200.57 9.6c-6.2-.1-12.65.7-17.82 1.8 3.1 5 8.08 10.7 14.28 14.9 9.45 6.3 19.91 8.7 26.31 6.1-1 .4 2.4-2.7 2.8-7.1.4-4.4-.7-9-6.1-13.2.8.6-2-.9-5.7-1.5-3.76-.6-8.64-1-13.77-1zm156.07 1.1c-.3 1.5-.6 2.9-1 4.4l1.1 137.1c6-.1 12-.2 18-.1l-1-127.9c-1-2.9-1.8-5.9-2.4-8.8H255c-4.7-.3-8.7-2-11.9-4.7zm99.7 6.2c-.4 0-.7.1-1.1.2-5 1-9.8 2.4-13.3 3.8-3.6 1.4-6 3.4-5.4 2.7-4.4 5.1-4.5 9.8-3.2 14 1.3 4.2 5.3 6.6 4.3 6.5 6.7 1.2 16.6-3.3 24.5-11.4.3-.3.6-.6.8-.9-3.2-4.4-5.3-9.6-6.6-14.9zm-180 1.2c-6.3-.1-12.7.7-17.9 1.8 3.1 5 8.1 10.7 14.3 14.9 9.4 6.3 20 8.7 26.3 6.1-.9.4 2.4-2.8 2.8-7.1.4-4.4-.6-9-6-13.2.8.6-2-.9-5.7-1.5-3.8-.6-8.7-1-13.8-1zm251.3 4.1c-2.4 0-4.5 0-6.4.2-3.8.3-6.7 1.5-5.8 1h-.1c-5.7 3.7-7.1 8.1-7.1 12.6 0 4.4 3.1 7.8 2.1 7.3 6.1 3.1 16.8 1.7 26.8-3.9 6.5-3.6 12-8.8 15.5-13.5-5-1.5-11.4-2.8-17.6-3.4-2.5-.2-5-.3-7.4-.3zm-284.2 8.7c-.6 3.5-1.7 6.8-3.5 9.7 20.3 36.9 37.7 77.7 51.6 117.6 5.8-1 11.9-1.8 18.2-2.6-11.8-34.7-26.4-70.1-43.3-103.5-1.3-.8-2.6-1.6-3.8-2.4-7.7-5.2-14.5-11.5-19.2-18.8zm75.7 9.1c-.8 4-2.3 7.8-4.7 10.9 8.5 33.8 15 68.2 19.5 102.4 6-.5 12-.8 18.1-1-4.8-36.8-11.9-74-21.3-110.5-3.9.4-7.8-.4-11.6-1.8zM377 230c-4.2 1.2-8.4 1.7-12.5 1-19.9 35.2-38 74.2-51 113.8 6.3 1 12.4 2.1 18.2 3.4 12.4-37.4 29.5-74.6 48.5-108.2-1.7-3-2.7-6.4-3.2-10zm-72.5 6.6c-3.8 2.5-8 4.2-12.2 4.5-8.3 32.2-15.6 66-21.3 100 6.1.2 12.2.5 18.1 1 5.5-33 12.7-66.1 20.7-97.5-2.2-2.2-3.9-5-5.3-8zM255 359.3c-30.7-.1-61.1 2.7-85.1 7.6-.4 11.7 4.7 24.4 16.5 36.2 48-9.1 97.8-10 145.1 3.2 12.5-10 17-21.1 17.8-34.6-23.6-8-55.6-11.8-88.2-12.3-2 0-4.1-.1-6.1-.1zm-.7 54.9c-9 0-18 .5-27 1.3 1.1 20.1 1.5 40 1.3 59.2-2.4-17.8-6.2-37.4-11.2-58.2-6 .7-12 1.5-18 2.5 5.6 22.5 9.7 43.6 12 62.1l17.2-2.1c-.1 2.8-.1 5.6-.2 8.4l18 .4c.2-7 .3-14.1.3-21.2l12.7-.2c-.1 7.8.1 15.5.4 23l18-.8c-1-23-.2-47.7 2-73.4-8.5-.7-17-1-25.5-1zm42.1 2.9c-3 21.6-3.9 42.9-2.1 63.3l18-1.6c-1.6-18.5-.8-38.2 2-58.4-5.9-1.3-11.9-2.4-17.9-3.3z"/></svg>