<svg xmlns="http://www.w3.org/2000/svg" viewBox="0 0 512 512"><path d="M0 0h512v512H0z"/><path fill="#fff" d="M57.592 16.545c-8.657.067-22.155 4.26-29.053 15.084-4.284 6.724-5.297 14.397-4.742 21.459 1.11 14.124 7.61 26.712 14.314 34.482 63.365 73.435 131.837 144.758 204.698 213.62-7.998 7.462-15.994 14.925-24.096 22.328l-35.598-32.133a135.304 135.304 0 0 0 5.051-11.596l-20.602-1.879C153.701 314.468 124.807 345.464 80 368l1.23 20.02a255.7 255.7 0 0 0 17.454-9.66l17.441 34.769c-25.25 21.202-63.434 50.785-89.564 71.371l23.77 5.557c29.94-23.589 59.263-47.63 88.08-72.008l-24.565-49.61c24.393-17.178 45.548-38.322 60.174-61.013l44.92 40.336A3126.616 3126.616 0 0 0 256 313.664a3126.616 3126.616 0 0 0 37.06 34.098l44.92-40.336c14.626 22.691 35.78 43.835 60.174 61.013l-24.564 49.61c28.816 24.378 58.138 48.42 88.08 72.008l23.77-5.557c-26.131-20.586-64.316-50.168-89.565-71.371l17.441-34.77a255.7 255.7 0 0 0 17.454 9.66L432 368c-44.807-22.536-73.7-53.532-87.564-90.09l-20.602 1.88a135.304 135.304 0 0 0 5.05 11.595l-35.597 32.133c-8.102-7.403-16.098-14.866-24.096-22.329C342.052 232.33 410.524 161.005 473.89 87.57c6.704-7.77 13.204-20.358 14.314-34.482.555-7.062-.458-14.735-4.742-21.46-6.898-10.824-20.396-15.016-29.053-15.083-16.903-.132-36.847 15.177-40.178 19.053-15.592 18.148-34.449 14.71-51.834 13.449 12.706 8.842 24.54 12.333 35.17 11.646 10.63-.686 19.323-5.289 26.57-10.066 10.249-6.23 20.535-18.3 33.716-15.64 25.822 6.251 4.255 38.683 2.408 40.824C397.083 149.027 328.747 220.15 256 288.83 183.253 220.15 114.917 149.026 51.74 75.81c-1.847-2.141-23.414-34.573 2.408-40.825 13.18-2.66 23.467 9.412 33.715 15.641 7.248 4.777 15.94 9.38 26.57 10.066 10.63.687 22.465-2.804 35.17-11.646-17.384 1.26-36.241 4.7-51.833-13.45-3.33-3.875-23.275-19.184-40.178-19.052zM191.965 347.75c-15.63 13.954-31.506 27.755-47.498 41.482l8.097 16.743c17.823-15.254 35.506-30.598 52.883-46.133l-13.482-12.092zm128.07 0-13.482 12.092c17.377 15.535 35.06 30.88 52.883 46.133l8.097-16.743c-15.992-13.727-31.869-27.528-47.498-41.482z"/></svg>
