<svg xmlns="http://www.w3.org/2000/svg" viewBox="0 0 512 512"><path d="M0 0h512v512H0z"/><path fill="#fff" d="M156 37.473c-25 0-41.98 18.185-51.629 35.07C94.722 89.428 90 105.473 90 119.473h36c0-2 3.278-17.956 9.629-29.07C141.98 79.287 149 73.472 156 73.472c2.5 0 7.953 2.103 15.762 11.035s16.727 23.45 25.6 41.433c12.417 25.169 24.949 57.205 37.527 91.223L91.139 455.961l30.841 18.566 128.762-213.892.356.98c18.017 50.022 36.078 100.383 55.375 139.469 9.648 19.543 19.505 36.303 30.841 49.273 11.337 12.97 25.374 23.381 42.877 23.456 14.035.059 25.831-7.281 33.971-15.848 8.14-8.567 13.822-18.737 18.348-29.022 9.052-20.569 13.49-39.47 13.49-53.47h-36c0 2-3.561 23.334-10.441 38.968-3.44 7.818-7.71 14.743-11.495 18.727-3.785 3.984-5.888 4.652-7.72 4.645-2.564-.011-8.084-2.175-15.924-11.145-7.84-8.97-16.777-23.517-25.666-41.522-17.778-36.009-35.769-85.71-53.785-135.73-18.017-50.02-36.06-100.359-55.323-139.402-9.631-19.522-19.466-36.257-30.783-49.202C187.546 47.868 173.5 37.472 156 37.472z"/></svg>
