<svg xmlns="http://www.w3.org/2000/svg" viewBox="0 0 512 512"><path d="M0 0h512v512H0z"/><path fill="#fff" d="M255.988 31.375c-6.982 0-12.117 5.154-12.117 11.324s5.135 11.322 12.117 11.322c6.983 0 12.12-5.152 12.12-11.322 0-6.17-5.137-11.324-12.12-11.324zm-29.71 6.52c-35.014 5.168-60.463 15.37-78.493 29.45 5.212 2.128 9.722 5.65 12.994 10.098 15.216-10.926 36.743-19.218 67.326-23.697a28.32 28.32 0 0 1-2.234-11.047c0-1.638.139-3.242.406-4.804zM265 70.66a30.451 30.451 0 0 1-9.012 1.361A30.45 30.45 0 0 1 247 70.668V119h18V70.66zM136.266 83.086c-6.983 0-12.12 5.154-12.12 11.324s5.137 11.322 12.12 11.322c6.982 0 12.117-5.152 12.117-11.322 0-6.17-5.135-11.324-12.117-11.324zm26.945 24.375c-2.807 5.437-7.3 9.904-12.762 12.773l34.686 29.575-2.586-25.86-19.338-16.488zm-48.14 7.707c-8.413 26.745-7.183 57.018-4.553 87.209 3.439 39.481 9.365 79.42 3.044 111.687-6.32 32.268-23.047 57.116-69.396 71.141l4.635 15.315c50.645-15.326 73.327-46.954 80.463-83.381 7.135-36.428.568-77.404-2.807-116.15-2.476-28.422-3.184-55.321 3.086-78.005a30.562 30.562 0 0 1-14.473-7.816zM201.944 137l14.2 142h79.71l14.2-142h-108.11zm119.8 64-3 30H368c19.144 0 42.13 13.646 55.734 38.566l24.5-16.56c-7.724-15.04-15.357-26.666-24.326-34.809-10.26-9.316-22.374-14.9-40.64-17.197h-61.524zM233 297v126h46V297h-46zm215 7c-16 16-32 48-32 64 0 32 64 32 64 0 0-16-16-48-32-64zM226.725 441 185 468.816V487h142v-18.184L285.275 441h-58.55z"/></svg>
