<svg xmlns="http://www.w3.org/2000/svg" viewBox="0 0 512 512"><path d="M0 0h512v512H0z"/><path fill="#fff" d="M442.2 35.42c-19.9 1.56-39 3.76-57.5 6.46l6.5 24.56-8.7 2.31-8.7 2.31-7-26.36c-20.1 3.4-39.4 7.46-58 12.03l8.8 25.71-17 5.8-9.2-26.94c-19.6 5.34-38.4 11.23-56.3 17.62l10.7 26.98-16.8 6.6-10.8-27.3c-18.3 7.01-35.9 14.49-52.6 22.2l12.5 27.3-16.4 7.6-12.4-27c-20.2 9.9-39.2 20.1-57.44 30.5l15.74 24.7-15.2 9.6-16.1-25.3c-15.41 9-30.36 18.1-44.64 27-4.13 9.7-2.57 20 2.4 29.4 4.45 8.4 11.77 15.1 18.18 18.5C165.9 146.1 325.8 96.65 480.5 70.12c-8.6-12.79-22.7-27.12-38.3-34.7zM241 185.1c-12.8 0-25.7.2-38.6.5l-.3 18.7-18-.2.3-18c-8.7.2-17.3.5-26 .8-28.4 14-55.2 29.3-79.82 46.1 132.82-22.7 276.22-6.6 388.62 21.3l-.1-.1c.2.1 1.1.2 3.8-2.9 2.8-3.2 5.8-8.8 8-14.8s3.6-12.5 3.8-17.2c.1-2.3-.3-3.9-.5-4.8-10.3-3.3-20.9-6.2-31.8-8.8-17.1-4.2-34.8-7.6-53-10.4l-6 19.4-8.6-2.7-8.6-2.7 5.1-16.4c-13.6-1.7-27.4-3.2-41.5-4.3l-2.5 19-17.8-2.4 2.3-17.8c-16.3-1-32.9-1.7-49.7-2l.3 16.6-18 .4-.3-17.2c-3.7 0-7.4-.1-11.1-.1zm92.4 62.9c-13.4 3.4-26.4 7.2-39 11.4l10.2 22.4-16.4 7.4-10.8-23.8c-17.9 6.6-34.8 14-50.5 22.1l11.5 18.9-15.4 9.4-11.9-19.7c-8.6 4.9-16.8 10-24.5 15.3-8.8 6.1-17 12.5-24.6 19.1l19.4 15.3-11.2 14.2-21.5-17c-14 14-25.1 28.8-32.9 44.1-1.4 2.8-2.7 5.7-3.9 8.6 8.3-1.3 16.1-1.8 23.6-1.7 15 .3 28.4 3.3 40.7 7.9.1-.3.1-.7.2-1 5.7-20.8 20.2-38.8 43-55.1 40.3-28.7 108.3-53.4 209.5-81.8-21.4-4.6-43.7-8.7-66.7-12.1l2.6 6.6-16.8 6.6-6.3-16c-2.8-.4-5.5-.8-8.3-1.1zM135.3 411.5c-9.1-.1-18.9 1-29.8 3.6-4.4 18.2-4.2 36.9 1.2 56 .5.5 4.8 3.5 13.2 4.7 8.8 1.2 20.3.9 31.3-.5 10.9-1.4 21.4-4 27.7-6.7 1.8-.8 3.1-1.5 4.1-2.2-6.3-16.4-9.5-31.8-9.2-46.4-11.6-5.1-24.1-8.3-38.5-8.5z"/></svg>