<svg xmlns="http://www.w3.org/2000/svg" viewBox="0 0 512 512"><path d="M0 0h512v512H0z"/><path fill="#fff" d="m454 34.463-56.303 168.904-79.832 63.867-33.492 117.22-82.768-16.554-61.947 77.434L32.41 493H493V151.46zM204.363 175.637l-12.248 12.248 100.666 101.623 5.655-19.799zm-25.039 24.914c-9.31 5.894-17.039 18.935-25.049 36.312-7.176 15.57-14.529 33.778-25.214 50.604 3.756-.891 7.476-2.263 11.343-4.237 9-4.592 18.337-11.957 28.479-19.443 10.142-7.485 21.164-15.131 34.283-19.502 5.25-1.749 10.928-2.693 16.818-3.074z"/></svg>