<svg xmlns="http://www.w3.org/2000/svg" viewBox="0 0 512 512"><path d="M0 0h512v512H0z"/><path fill="#fff" d="M332.9 22.74c-19.5-.34-35.3 11.67-37.7 27.51-.4 2.92-.4 5.85.1 8.71 11.9.13 24.1 1.56 36 4.44 12.1 2.88 23.9 7.26 34.9 13.31 3.7-4.26 6.3-9.35 7.1-14.93 2.6-17.47-12-35.24-34.2-38.53-2.1-.31-4.2-.47-6.2-.51zm-38 54.28h-4.6c-8.9.2-17.5 1.22-25.5 2.97l3.9 18.54c1.8-.8 3.7-1.4 5.6-2 7.6-2.23 14.5-3.18 20.8-3.04 6.3.14 12 1.37 17 3.54 10 4.37 16.6 12.17 21 19.97v.1c1.2 2.1 2 4.3 2.8 6.5l.6-.1c8.5-.8 21.5-2.3 35.6-3.1l10.6-8c-14.2-16.04-34.1-26.36-55.6-31.5-10.6-2.55-21.6-3.8-32.2-3.88zm-98.8 5.33c-12.5.46-27.2 7.71-37.8 18.35-7 7.1-11.9 15.4-13.4 22.3s-.5 11.9 4.7 17h.1c13.9 13.5 34 15.1 58.3 12.9 10.1-.9 20.8-2.6 31.7-4-2-12.6 1.5-26.2 10.3-36.8-12.4-10.4-25-20.3-42.4-27.82-3.4-1.49-7.3-2.09-11.5-1.93zm98.5 29.15c-4.1-.1-9.2.6-15.3 2.3-23.1 6.8-26.4 29.8-18.2 41.7 8.8 12.7 29.9 19 43.4 9.2 14.8-10.7 20.1-25.6 12.8-38.9-3.1-5.5-6.9-9.8-12.4-12.2-2.8-1.2-6.1-2-10.3-2.1zm92 26.6c-2.5 0-5.1.1-7.6.1-13.9.4-27 2-37.3 3l-4.3 4.9c-1.5 7.4-4.9 14.6-9.7 20.9 5.4 11.8 14.7 19.9 26.4 26.1 15.2 7.9 34.3 11.7 51.3 13.1 17.2 1.4 24.5-5.7 29-16.3 4.5-10.6 3.7-25.4-.1-33.8-2.6-5.7-7.1-9.6-14.1-12.5-7-3-16.2-4.6-26.1-5.2-2.4-.2-5-.2-7.5-.3zm-231.4 27c-48.5 31.7-80.64 85.7-80.64 147.2 0 97.8 81.24 177 180.94 177s180.9-79.2 180.9-177c0-32-8.8-62.2-24.1-88.1-2.6.2-5.4.2-8.3 0-4.6-.4-9.3-.9-14.1-1.6 12.3 17.5 21.2 37.4 25.5 59 6 28.1 2.9 55.6-4.4 78.3-20.7 64.5-82.2 111.3-155.4 111.4-9.2-.1-18.4-.9-27.5-2.3C151 456.3 92.56 391 92.56 312.3c0-61.4 35.54-114.6 87.74-141.1-8.8-.8-17.2-2.7-25.1-6.1zm92 1.8c-7.8 7.3-14.2 15.4-17.9 24.2-4.4 10.3-5.7 21.5-2.4 34.4 12.1-5.2 19.6-12.4 27.1-21.8 4.6-5.9 9.3-12.7 14.7-20-8.5-3.6-16-9.5-21.5-16.8zm62.6 15.7h-.1c-6.9 3.6-14.2 5.3-21.5 5.2-2 2.5-3.9 5-5.7 7.4 2.5 7.8 4.4 15 6.7 22 2.9 9.2 6.4 18 12.2 27.6 11.8-22.4 14.4-39.6 8.4-62.2zm-138.2 28.8a31.75 45.01 30.59 0 0-38.1 25.8 31.75 45.01 30.59 0 0 4.5 54.9 31.75 45.01 30.59 0 0 50.2-22.6 31.75 45.01 30.59 0 0-4.4-54.9 31.75 45.01 30.59 0 0-12.2-3.2zm210.1 67.5c-.8 0-1.6 0-2.3.1-91.4 1.4-195.9 27.5-270.7 50.6 40.4 40.6 109.8 46.6 171.4 32 33.3-7.9 63.9-21.7 85.4-38.1 18.4-14.1 29.5-29.5 32-44.4-3 0-6-.1-9-.1H384c-.8-.1-1.6-.1-2.3-.1zm17.3 37.3c-6.2 7.7-13.9 15-22.6 21.6-24.1 18.4-56.7 32.9-92.1 41.3-56.5 13.3-120.9 11.2-167.3-19.5 7.7 28.4 25.2 50.5 48.2 66.3C194.5 446 233 455.6 270 452.8c37-2.7 72.4-17.5 96.6-45.2 19-21.8 31.5-51.8 32.4-91.4z"/></svg>