<svg xmlns="http://www.w3.org/2000/svg" viewBox="0 0 512 512"><path d="M0 0h512v512H0z"/><path fill="#fff" d="M468.42 43.814c-23.626-.183-50.634 7.015-72.03 21.014-14.627 9.57-26.804 23.032-31.953 39.388-39.093-37.02-78.599-53.712-115.762-54.787-10.025-.29-19.88.552-29.51 2.43-51.357 10.014-95.01 48.096-126.703 95.137-31.693 47.04-51.687 103.351-54.605 152.644-1.459 24.647 1.342 47.626 9.73 66.862 7.942 18.211 21.34 32.95 39.944 41.15 21.95 39.518 64.22 58.416 110.525 60.361 47.427 1.993 99.848-12.996 143.846-41.238 33.929-21.78 62.886-51.668 79.93-88.072a369.25 369.25 0 0 1-15.303-9.852c-15.22 33.817-42.063 62.051-74.352 82.777-40.929 26.273-90.33 40.21-133.365 38.4-43.034-1.807-78.88-18.62-96.912-53.495l-1.565-3.026-3.175-1.232c-15.69-6.086-26.22-17.255-33.073-32.969-6.852-15.713-9.599-36.006-8.261-58.603 2.675-45.194 21.656-99.257 51.564-143.649 29.909-44.392 70.484-78.806 115.22-87.529 8.389-1.636 16.97-2.417 25.727-2.211 29.363.692 60.709 12.578 93.391 40.559-14.741-1.561-28.234-2.156-40.53-1.858-34.786.845-60.278 8.626-79.251 20.49-30.357 18.983-42.607 47.778-50.047 70.032l17.072 5.709c7.054-21.098 17.2-44.645 42.52-60.479 22.538-14.094 58.413-22.45 117.146-14.865 4.782-7.893 10.307-15.283 15.799-22.686 6.101.478 12.176 1.212 18.203 2.282 4.053-10.43 12.36-19.25 23.606-26.608 17.82-11.66 42.333-18.23 62.035-18.078zm-95.579 79.469c-22.18 30.697-30.813 57.418-30.771 80.728.044 24.386 9.378 45.662 24.254 64.701 26.728 34.21 71 59.486 105.795 76.467 2.25-33.797 5.505-82.536-4.182-126.277-5.488-24.782-15.062-47.396-30.729-64.379-14.808-16.052-35.134-27.397-64.367-31.24z"/></svg>
