<svg xmlns="http://www.w3.org/2000/svg" viewBox="0 0 512 512"><path d="M0 0h512v512H0z"/><path fill="#fff" d="M265.74 29.895a251.73 251.73 0 0 0-11.303.093c-53.378 1.643-104.013 18.474-140.382 46.653-12.662 9.81-23.608 20.916-32.436 33.254 33.13 14.515 71.337 22.87 110.99 25.816 7.403-5.973 16.122-11.471 26.12-16.346 51.927-25.319 101.117-8.77 131.064 27.342 29.947 36.112 42.4 90.967 26.84 143.834-4.584 15.572-13.097 29.694-24.578 42.67 28.772 10.854 69.68 28.496 103.25 53.443 20.903-35.115 31.794-74.838 31.695-114.633-.204-82.23-28.413-143.246-71.297-183.64C375.5 50.51 322.071 30.69 265.74 29.895zM56.967 119.098c-2.004.064-3.643.862-5.555 2.302-2.913 2.196-5.876 6.367-7.76 11.21-1.884 4.842-2.666 10.281-2.298 14.208.368 3.928 1.637 5.533 2.263 5.909 32.769 19.665 84.333 28.491 135.252 33.164 4.019-.14 11.313-6.08 15.664-15.022 2.196-4.512 3.596-9.405 3.934-13.24.132-1.495-.014-2.563-.15-3.588-49.482-2.898-97.563-13.648-138.268-34.512-.78-.198-1.53-.367-2.2-.414a8.692 8.692 0 0 0-.882-.017zm.156 60.357c-.216 4.016-.26 8.102-.127 12.256 1.276 39.749 17.484 64.817 41.74 81.06 24.257 16.244 57.303 23.066 90.955 22.346 33.653-.72 67.776-8.96 93.49-21.38 17.294-8.354 30.117-18.568 37.378-28.737-75.422 17.93-125.93 4.678-147.57-24.168-4.2-5.598-7.126-11.79-8.772-18.277-37.844-3.945-75.776-10.257-107.094-23.1zM310.057 339.08c-1.098-.026-2.202 0-3.309.072-13.281.87-26.974 8.6-35.674 18.012-5.8 6.275-8.81 13.093-8.963 16.623-.076 1.765.228 2.559.866 3.385.638.826 1.971 1.968 5.203 2.892l.146.043.145.047c64.806 20.948 100.84 44.025 142.025 75.707 2.09 1.608 5.457 1.865 11.727-.904 6.27-2.769 13.886-8.494 20.334-15.18 6.447-6.685 11.798-14.406 14.304-20.256 1.253-2.924 1.73-5.351 1.73-6.498.001-.451.006-.503.016-.552-43.056-38.139-113.24-62.861-138.916-71.711-3.101-1.07-6.34-1.603-9.634-1.68zm-48.809 57.664c-12.925 6.512-26.364 12.766-40.025 18.854C162.83 441.617 99.526 464.322 52.342 487h281.865c18.945-7.244 36.264-16.372 51.88-27.021-34.877-25.788-67.151-44.581-123.001-62.649a36.341 36.341 0 0 1-1.838-.586z"/></svg>
