<svg xmlns="http://www.w3.org/2000/svg" viewBox="0 0 512 512"><path fill="#fff" d="M430.6 18a11.25 7.124 49.01 0 0-3.5 1.2 11.25 7.124 49.01 0 0 2 13.17 11.25 7.124 49.01 0 0 12.8 3.82 11.25 7.124 49.01 0 0-2-13.17 11.25 7.124 49.01 0 0-9.3-5.02zm-52 10.03c-8.9-.12-17.9 1.04-26.7 3.51-23.5 6.59-45.3 23.59-53.1 51.74 33.1-28.79 66-53.18 110.9-28.87 8 4.97 15 12.2 20.8 20.98a7.124 11.25 46.87 0 0-12.1 3.27 7.124 11.25 46.87 0 0-3.3 12.89 7.124 11.25 46.87 0 0 13.1-2.49 7.124 11.25 46.87 0 0 4.6-10.15c11 18.24 17.2 42.19 17.1 66.39 0 10.8-1.2 21.5-3.6 31.6a7.124 11.25 46.87 0 0-12.1 3.2 7.124 11.25 46.87 0 0-3.4 12.9 7.124 11.25 46.87 0 0 10.6-.6c-7.3 18.8-19.4 34.3-36.4 43.2-104.5 52.7-249.3 54.4-381.41 31.9 10.39 14.3 11.03 29-1.89 44 27.02 4.6 54.7 7.8 82.6 9.7-41.05 9.2-73.45 20.6-88.02 32.3 18.25 10.1 28.76 23.6 20.26 45.6C64.96 394.6 107.8 379 156.1 364a7.124 11.25 79.94 0 0 11.8 3.6 7.124 11.25 79.94 0 0 9.8-8.9 7.124 11.25 79.94 0 0-.3-1.1c33.5-9.8 68.9-18.6 103.5-22.6a11.25 7.124 49.02 0 0 3.5 10.7 11.25 7.124 49.02 0 0 12.8 3.8 11.25 7.124 49.02 0 0-2-13.2 11.25 7.124 49.02 0 0-2.7-2.5c46.5-3.9 90.8 1.5 126.4 25.2 19.2 12.8 12.3 56.8-7.9 65-40.9 9-45.3-6.7-68.4-20.2 5 18.3 16.8 31.1 30.8 37.1 9.2 3.9 19.1 5.1 28.9 3.8a11.25 7.124 4.014 0 0-1.5 3.3 11.25 7.124 4.014 0 0 10.7 7.8 11.25 7.124 4.014 0 0 11.7-6.3 11.25 7.124 4.014 0 0-8.7-7.6c1.1-.4 2.1-.8 3.2-1.2 46.9-16 63-98.6 6.6-123.7-23-9.4-54.7-14.6-90.4-16.5 30.2-8.3 58.7-18.9 84.7-32.1 52.4-25.2 54.5-96.3 55.1-124.6 0-17.1-3.4-34-9.7-49.46a11.25 7.124 28.07 0 0 8.3-2.72 11.25 7.124 28.07 0 0-6.6-11.58 11.25 7.124 28.07 0 0-9.5-1.66c-9.4-16.24-22.1-29.98-37.1-39.27-13.7-6.81-27.8-10.8-40.5-11.08zm-83.3 7.85a7.124 11.25 46.87 0 0-9.2 4.08 7.124 11.25 46.87 0 0-3.3 12.89 7.124 11.25 46.87 0 0 13.1-2.49 7.124 11.25 46.87 0 0 3.3-12.89 7.124 11.25 46.87 0 0-3.9-1.59zm79.9 28.89a7.124 11.25 67.96 0 0-6.4 1.23 7.124 11.25 67.96 0 0-7.7 10.82 7.124 11.25 67.96 0 0 13.1 2.39 7.124 11.25 67.96 0 0 2.8-1.47 7.124 11.25 31.09 0 0 1.5 10.89 7.124 11.25 31.09 0 0 11.9-5.95 7.124 11.25 31.09 0 0-.3-13.31 7.124 11.25 31.09 0 0-7.9 1.42 7.124 11.25 67.96 0 0-.3-2.41 7.124 11.25 67.96 0 0-6.7-3.61zM234.1 75.69a7.124 11.25 46.87 0 0-9.2 4.08 7.124 11.25 46.87 0 0-3.3 12.89 7.124 11.25 46.87 0 0 10.5-.53 7.124 11.25 87.44 0 0 11.6 6.39 7.124 11.25 87.44 0 0 10.9-7.62 7.124 11.25 87.44 0 0-11.6-6.61 7.124 11.25 87.44 0 0-4.7.88 7.124 11.25 46.87 0 0-.3-7.89 7.124 11.25 46.87 0 0-3.9-1.59zm25.1 21.34a7.124 11.25 46.87 0 0-9.1 4.07 7.124 11.25 46.87 0 0-3.3 12.9 7.124 11.25 46.87 0 0 13-2.5 7.124 11.25 46.87 0 0 3.4-12.88 7.124 11.25 46.87 0 0-4-1.59zm38.7.21a7.124 11.25 72.29 0 0-5.4.81 7.124 11.25 72.29 0 0-8.6 10.25 7.124 11.25 72.29 0 0 12.9 3.3 7.124 11.25 72.29 0 0 8.6-10.2 7.124 11.25 72.29 0 0-7.5-4.16zm130.2 16.26a7.124 11.25.1 0 0-7.1 11.2 7.124 11.25.1 0 0 7.1 11.3 7.124 11.25.1 0 0 7.1-11.2 7.124 11.25.1 0 0-7.1-11.3zm-213.5 6a7.124 11.25 46.87 0 0-9.1 4.1 7.124 11.25 46.87 0 0-3.4 12.9 7.124 11.25 46.87 0 0 13.1-2.5 7.124 11.25 46.87 0 0 3.3-12.9 7.124 11.25 46.87 0 0-3.9-1.6zm107.4 5c-10.5 0-21.2 3.9-29.1 12-8.5 8.7-13.4 21.9-12.5 38.1 14.6-22.3 39.5-47.2 59.8-23.9 4.2 5 6.8 12.3 5.1 23.5-1.8 11.5-12.6 23-32.2 32.9-52.2 22.7-116 23.9-177.9 16.1a7.124 11.25 46.87 0 0 1.5-1.2 7.124 11.25 46.87 0 0 3.3-12.9 7.124 11.25 46.87 0 0-13.1 2.5 7.124 11.25 46.87 0 0-4.6 9.8c-36.79-5.4-72.53-13.6-104.34-22.2 14.05 19.2 4.94 31.4-1.41 44.4 97.15 13.4 222.35 33.5 308.25-8.7 16.2-8.1 27.4-24.4 33.5-40.4a7.124 11.25 46.87 0 0 12.5-3 7.124 11.25 46.87 0 0 3.3-12.9 7.124 11.25 46.87 0 0-11.5 1.2c.2-1 .4-1.9.5-2.8.6-14-1.6-28.4-9.1-37.9-7.7-9.1-18.8-14-29.9-14.6H322zm163.6.4a11.25 7.124 83.14 0 0-.7 0 11.25 7.124 83.14 0 0-5.7 12 11.25 7.124 83.14 0 0 3.4 8.2 7.124 11.25 46.87 0 0-.7.6 7.124 11.25 46.87 0 0-3.3 12.9 7.124 11.25 46.87 0 0 13-2.5 7.124 11.25 46.87 0 0 3.4-12.9 7.124 11.25 46.87 0 0-2.2-1.3 11.25 7.124 83.14 0 0 .5-6.7 11.25 7.124 83.14 0 0-7.7-10.3zm-67.4 13.4a7.124 11.25 46.87 0 0-9.1 4.1 7.124 11.25 46.87 0 0-3.4 12.9 7.124 11.25 46.87 0 0 13.1-2.5 7.124 11.25 46.87 0 0 3.4-12.9 7.124 11.25 46.87 0 0-4-1.6zm-179.7 2.9a11.25 7.124 22.5 0 0-7 3.6 11.25 7.124 22.5 0 0 7.6 10.8 11.25 7.124 22.5 0 0 13.2-2.2 11.25 7.124 22.5 0 0-7.7-10.9 11.25 7.124 22.5 0 0-6.1-1.3zm-3.6 36.9a7.124 11.25 46.87 0 0-9.1 4.1 7.124 11.25 46.87 0 0-3.4 12.8 7.124 11.25 46.87 0 0 13.1-2.4 7.124 11.25 46.87 0 0 3.3-12.9 7.124 11.25 46.87 0 0-3.9-1.6zM181.7 203a7.124 11.25 82.66 0 0-2.3.1 7.124 11.25 82.66 0 0-10.2 8.5 7.124 11.25 82.66 0 0 12.1 5.6 7.124 11.25 82.66 0 0 10.2-8.5 7.124 11.25 82.66 0 0-9.8-5.7zm299.1 6.2a7.124 11.25 46.87 0 0-9.2 4.1 7.124 11.25 46.87 0 0-3.3 12.9 7.124 11.25 46.87 0 0 13.1-2.5 7.124 11.25 46.87 0 0 3.3-12.9 7.124 11.25 46.87 0 0-3.9-1.6zm-74.8 0a7.124 11.25 14.79 0 0-8.5 9.2 7.124 11.25 14.79 0 0 4 12.7 7.124 11.25 14.79 0 0 9.8-9.1 7.124 11.25 14.79 0 0-4-12.7 7.124 11.25 14.79 0 0-1.3-.1zm54.6 50.5a7.124 11.25 46.87 0 0-9.2 4.1 7.124 11.25 46.87 0 0-3.3 12.9 7.124 11.25 46.87 0 0 4.8 1.6 7.124 11.25 5.96 0 0-1.8 6.1 7.124 11.25 5.96 0 0 5.9 11.9 7.124 11.25 5.96 0 0 8.3-10.4 7.124 11.25 5.96 0 0-4.3-11.5 7.124 11.25 46.87 0 0 .2-.2 7.124 11.25 46.87 0 0 3.3-12.9 7.124 11.25 46.87 0 0-3.9-1.6zm-14.4 47a11.25 7.124 34.24 0 0-4.8 2.3 11.25 7.124 34.24 0 0 5.3 12.2 11.25 7.124 34.24 0 0 13.3.4 11.25 7.124 34.24 0 0-5.3-12.2 11.25 7.124 34.24 0 0-8.5-2.7zm-74.8 37.7a11.25 7.124 63.1 0 0-2.1.5 11.25 7.124 63.1 0 0-1.3 13.2 11.25 7.124 63.1 0 0 11.5 6.9 11.25 7.124 63.1 0 0 1.2-13.3 11.25 7.124 63.1 0 0-9.3-7.3zm104 8.3a11.25 7.124 70.57 0 0-1.4.3 11.25 7.124 70.57 0 0-3 12.9 11.25 7.124 70.57 0 0 10.5 8.3 11.25 7.124 70.57 0 0 3-13 11.25 7.124 70.57 0 0-9.1-8.5zm-235 2.7a7.124 11.25 62.09 0 0-7.1 2 7.124 11.25 62.09 0 0-6.7 11.5 7.124 11.25 62.09 0 0 13.3 1 7.124 11.25 62.09 0 0 6.6-11.5 7.124 11.25 62.09 0 0-6.1-3zm86.3 23.5a11.25 7.124 34.24 0 0-4.7 2.3 11.25 7.124 34.24 0 0 5.2 12.2 11.25 7.124 34.24 0 0 13.4.5 11.25 7.124 34.24 0 0-5.3-12.2 11.25 7.124 34.24 0 0-8.6-2.8zm-185.8.6a11.25 7.124 3.942 0 0-10.9 6.4 11.25 7.124 3.942 0 0 10.8 7.8 11.25 7.124 3.942 0 0 11.7-6.3 11.25 7.124 3.942 0 0-10.8-7.9 11.25 7.124 3.942 0 0-.8 0zm147.6 4.8a7.124 11.25 46.87 0 0-9.2 4 7.124 11.25 46.87 0 0-3.3 12.9 7.124 11.25 46.87 0 0 13.1-2.5 7.124 11.25 46.87 0 0 2.2-2.5 11.25 7.124 25.08 0 0 7.6 8.5 11.25 7.124 25.08 0 0 13.2-1.7 11.25 7.124 25.08 0 0-7.2-11.2 11.25 7.124 25.08 0 0-11.4-.4 7.124 11.25 46.87 0 0-1.1-5.6 7.124 11.25 46.87 0 0-3.9-1.5zm-177.7 11.8a7.124 11.25 4.18 0 0-7.4 10.7 7.124 11.25 4.18 0 0 6.3 11.8 7.124 11.25 4.18 0 0 7.9-10.7 7.124 11.25 4.18 0 0-6.3-11.8 7.124 11.25 4.18 0 0-.5 0zm286.5 10.5a7.124 11.25 46.87 0 0-9.1 4.1 7.124 11.25 46.87 0 0-3.4 12.9 7.124 11.25 46.87 0 0 13.1-2.5 7.124 11.25 46.87 0 0 3.3-12.9 7.124 11.25 46.87 0 0-3.9-1.6zm-61.9 15.2a7.124 11.25 46.87 0 0-9.2 4.1 7.124 11.25 46.87 0 0-3.3 12.9 7.124 11.25 46.87 0 0 13.1-2.5 7.124 11.25 46.87 0 0 3.3-12.9 7.124 11.25 46.87 0 0-3.9-1.6zm116.4 8.3a7.124 11.25 46.87 0 0-9.2 4.1 7.124 11.25 46.87 0 0-3.3 12.9 7.124 11.25 46.87 0 0 13.1-2.5 7.124 11.25 46.87 0 0 3.3-12.9 7.124 11.25 46.87 0 0-3.9-1.6zm-91.3 23.8a11.25 7.124 19.71 0 0-7.9 3.9 11.25 7.124 19.71 0 0 8.2 10.5 11.25 7.124 19.71 0 0 13-2.9 11.25 7.124 19.71 0 0-8.2-10.5 11.25 7.124 19.71 0 0-5.1-1z"/></svg>