<svg xmlns="http://www.w3.org/2000/svg" viewBox="0 0 512 512"><path d="M0 0h512v512H0z"/><path fill="#fff" d="M69.74 20.72c-3.15 10.72 1.76 22.4 4.88 33.09-11.63-2.31-23.04-7.52-34.08-4.61-11.93 3.87 24.98 22.96 27.56 24.5-7.8 7.69-16.56 13.37-21.19 22.81 11.48 3.69 26.31.72 36.45-1.18 3.19 8.27 10.8 29.87 20.14 26.27 11.7-4.6 15.8-23.88 19.1-34.52 9.3-1.7 27.2.97 27.4-7.43.2-10.49-13.3-18.5-19.9-24.98 3.9-7.84 19.3-24.86 11.7-29.93-13.7-4.28-27.8 7.76-38.9 16.42-6.44-8.91-28.9-28.2-33.16-20.44zm89.56 75.13c-7.2 5.05-15.2 7.25-23.4 8.45-2.2 6.1-4.8 10.6-7.4 15.7 28.4 92.3 44.2 178 8.1 286.1 15.4.6 29.2 4.8 43.2 10.6 13.4-9.5 31.2-21.9 46-24.8 23.1-1.9 42.9 2.9 64.2 9.1 13.2-12.1 33.3-25.7 49.1-27.2 16.3.1 30.4 4.4 44.7 8.8 6.4-3.3 10.2-9.5 15-14.2-58.4-122.2-125.4-213.6-239.5-272.55zM417.6 377.6c-11 6.3-17.8 17.1-24 27-15.7-4.3-36.9-13.7-53-12.9-18.9 4.1-33.6 17.2-45.6 29.8-10.5-3.3-20.6-6.2-29-8.2-13.1-3-29.1-5.1-37-3.6-18.1 5.6-33.1 17.2-46.7 27.9-14.3-6.2-28.5-12.5-43.5-13.5-5.1-.2-8.7.7-10.2 1.7-8.6 5.9-19.7 20.9-24.2 34.8C101 471 101 484 110 488.8c14.5 2.3 27.8-6 38.9-13.1 11.2 5.5 30.9 17.7 43.1 17.4 17.3-4.6 32.9-13.7 47.1-22.2 9.3 8.7 26.7 22.5 39.3 21.7 17.9-5.2 29.1-21.5 37.7-35.6 17 5.8 53.5 14.1 67.5 3.9 9.8-7.6 2.9-19.9.2-28.5 12.7 4.7 26.8 9.2 37.9 10.8 19.1.6 37.8 2 19.6-18.3l-12.7-13.2c13.6-1.5 33-3.4 42.6-9.5 4.9-3 2-8.5-.4-11.1-2.7-2.9-7.8-6.1-14-8.5-13.2-3.8-26.3-7-39.2-5z"/></svg>