<svg xmlns="http://www.w3.org/2000/svg" viewBox="0 0 512 512"><path d="M0 0h512v512H0z"/><path fill="#fff" d="m351.251 13.588-63.7 142.933c-4.476-.89-8.995-1.672-13.597-2.224L217.29 36.766l-8.268 121.093c-4.17.984-8.25 2.163-12.283 3.438L118.96 45.227l-16.168 7.351L140.14 191.17c-14.08 11.23-26.113 24.531-35.461 39.422L26.24 199.656l-9.418 14.977 68.633 63.572c-1.828 8.984-2.826 18.238-2.826 27.717 0 2.308.08 4.598.191 6.88L38.388 347.69l51.787 3.561c3.874 11.322 9.212 22.036 15.726 32.041l-54.05 97.783 13.726 11.194 79.46-67.956c21.822 16.096 48.066 27.38 76.816 32.042l23.726 42.058 15.766-39.867c31.399-1.63 60.574-11.018 85.17-26.191l125.013 50.318 9.826-14.61-83.279-86.019c3.785-5.892 7.19-12.008 10.065-18.385l52.078-1.365-41.287-34.824c1.095-7.04 1.699-14.225 1.699-21.547 0-8.113-.706-16.068-2.045-23.828l76.592-127.309-111.578 55.645c-11.308-12.776-24.843-23.837-40.024-32.772l24.79-159.021zm-11.09 69.103-32.28 207.053 17.788 2.774 14.914-95.674c37.697 24.622 62.047 64.427 62.047 109.078 0 22.655-6.277 44.063-17.371 62.88l-38.781-40.056-12.932 12.522 105.428 108.896-134.266-54.041-6.72 16.7 27.24 10.962c-17.047 8.508-36.144 14.149-56.538 16.182l7.524-19.024-16.738-6.619-16.76 42.38-31.541-55.915-15.678 8.846 14.72 26.094c-18.897-4.809-36.244-12.797-51.288-23.295l35.693-30.526-11.7-13.68-91.276 78.061 59.73-108.057-15.754-8.707-19.658 35.563c-9.793-17.905-15.334-37.976-15.334-59.166 0-4.377.289-8.692.758-12.963L122.3 312.33l12.23-13.205-70.332-65.148 90.324 35.625 6.606-16.747-39.461-15.562c6.564-9.908 14.515-18.991 23.607-27.068l6.202 23.013 17.38-4.683L134.36 100.54l75.782 113.088 14.953-10.02-17.852-26.638c14.024-3.857 28.885-6.05 44.387-6.05 9.735 0 19.24.823 28.44 2.388l-30.815 69.144 16.441 7.328zm-109.547 23.16 22.713 47.11c-.568-.005-1.128-.04-1.697-.04-8.26 0-16.382.565-24.338 1.608zm217.264 92.635-35.77 59.455c-4.274-11.718-10.057-22.8-17.158-33.058zM184.005 277.24l35.82 86.406 16.627-6.892-21.21-51.164 61.314 18.709 5.254-17.217z"/></svg>