<svg xmlns="http://www.w3.org/2000/svg" viewBox="0 0 512 512"><path d="M0 0h512v512H0z"/><path d="M427.184 91.805c-10.872.127-22.634 3.977-34.43 15.68 9.303 5.3 25.808 9.322 40.088 9.218 7.608-.055 14.605-1.226 19.453-3.183 4.847-1.958 7.102-4.23 7.99-6.694a9 9 0 0 1 0-.004c.247-.683.49-1.388.89-2.156-1.046-.66-2.1-1.392-3.16-2.275v.003c-6.07-5.052-16.846-10.172-28.613-10.565-.735-.024-1.474-.032-2.218-.023zm-251.112 11.888c-.773-.017-1.518-.004-2.23.036-5.944.333-13.928 2.913-20.498 7.264-6.572 4.352-11.62 10.25-13.578 16.752a9 9 0 0 1-12.926 5.307c-26.58-14.49-50.5-6.888-67.754 8.763-35.93 32.6-45.13 87.26-32.463 145.635v.003c7.31 33.67 18.985 52.998 41.285 62.893a9 9 0 0 1 .153.058c2.223.98 4.206 1.892 6.09 2.758l4.612-21.98a9 9 0 1 1 17.617 3.697L72.876 446.884c1.477 2.786 2.746 3.23 5.592 3.43 3.085.216 8.745-1.23 15.712-4.594l38.123-106.513a9 9 0 0 1 3.394-4.398c9.572-6.545 18.715-15.66 25.306-24.77 6.59-9.107 10.365-18.414 10.635-23.56a9 9 0 0 1 9.333-8.652 9 9 0 0 1 8.644 9.592c-.588 11.21-6.184 22.334-14.027 33.174-7.262 10.036-16.726 19.563-27.238 27.193l-3.202 8.945c6.86 8.694 13.34 13.78 19.565 16.743 8.74 4.162 17.66 4.578 28.517 3.34 16.406-1.866 34.588-12.868 43.508-37.258a9 9 0 0 1 16.73-.44c5.126 12.015 10.663 17.89 16.473 21.317 5.81 3.427 12.563 4.594 20.81 4.908a9 9 0 0 1 .005 0c6.84.262 12.48.12 16.6-1.653.418-.18.83-.376 1.24-.588l-3.875-23.317a9 9 0 1 1 17.756-2.95l17.59 105.847c5.5 3.735 8.608 3.955 11.05 3.222 2.382-.714 5.522-3.315 8.862-7.627l-13.75-114.394a9 9 0 0 1 8.608-10.195 9 9 0 0 1 9.264 8.046l4.29 35.702c5.15-1.19 9.133-2.55 12.405-4.998 4.27-3.197 8.455-8.75 12.1-21.508a9 9 0 0 1 14.067-4.72c5.896 4.44 11.155 4.367 17.676 1.843 6.52-2.524 13.42-8.225 17.994-14.084 12.87-16.503 14.637-42.384 13.144-69.197-2.066.343-4.16.553-6.24.67-8.87.5-17.96-.897-25.716-4.463a9 9 0 0 1-.004 0c-13.325-6.13-21.663-17.54-28.195-28.9-3.915-6.81-7.286-13.68-10.564-19.988-.367.716-.594 1.064-.968 1.803-2.18 4.298-4.473 8.872-6.774 12.763-1.15 1.946-2.27 3.712-3.666 5.41-1.396 1.7-2.522 4.123-7.8 5.006-12.49 2.09-23.877-3.72-29.756-12.627-5.88-8.906-7.393-20.24-4.805-31.19 2.748-11.625 9.787-38.226 22.642-56.02 2.15-2.98 4.454-5.373 6.79-7.438-.293-.14-.588-.28-.886-.41-6.148-2.714-13.79-3.377-22.016-3.406-5.804-.018-13.5 1.818-19.73 5.05-6.23 3.234-10.71 7.725-12.223 11.798a9 9 0 0 1-17.258-1.36c-.768-3.82-4.32-7.567-10.65-10.57-6.333-3.002-14.757-4.672-21.15-4.744-5.635-.063-13.516 2.237-20.187 5.85-6.67 3.613-12.087 8.772-13.603 11.52a9 9 0 0 1-16.48-1.704c-1.762-5.724-6.388-10.362-12.753-13.633-5.57-2.86-12.304-4.377-17.715-4.497zm301.145 9.237l-.008.013.007-.01v-.003zm6.62 7.574c.327 1.81.648 3.692.964 5.685 2.298 14.478 4.054 32.572 4.39 43.51a9 9 0 0 1-.163 2.073c.367 3.356 1.453 7.03 2.803 9.18 1.375 2.19 1.97 2.598 3.453 2.547 1.006-.347 1.578-.93 2.367-4.42.924-4.084.862-10.942-.375-18.537-2.2-13.52-7.915-29.563-13.437-40.04zm-111.753 3.226c-1.266 1.165-2.382 2.415-3.557 4.04a9 9 0 0 0-.002.003c-9.364 12.963-17.26 39.225-19.716 49.623a9 9 0 0 0 0 .002c-1.54 6.508-.3 13.182 2.31 17.133 2.236 3.39 4.78 5.136 9.4 4.935.41-.588.743-1.02 1.304-1.97 1.79-3.027 4.02-7.418 6.213-11.743 2.194-4.325 4.307-8.533 6.473-11.965.536-.85 1.01-1.643 1.62-2.453-1.253-7.97-2.783-19.898-3.597-31.42-.408-5.783-.65-11.257-.45-16.184zm94.4 2.374c-2.352 1.612-4.826 3.046-7.45 4.105-7.87 3.177-16.813 4.426-26.06 4.493-14.775.107-30.217-2.712-42.837-8.408-.052 3.566.022 7.686.35 12.35.887 12.532 2.985 27.203 4.044 33.505 6.38 10.12 11.195 21.386 16.7 30.957 5.783 10.06 12.01 17.79 20.112 21.52l.004.002c4.184 1.922 11.174 3.182 17.18 2.843 6.01-.34 10.56-2.575 11.445-3.633a9 9 0 0 1 .092-.108c1.07-1.237 5.152-11.322 7.25-22.244 2.1-10.92 3.35-23.24 3.584-31.584a9 9 0 0 1 .21-1.672c-.203-4.593-.67-10.643-1.305-17.054a9 9 0 0 1-17.51-2.918 9 9 0 0 1 9.257-9.002 9 9 0 0 1 7.445 4.36c-.584-5.047-1.25-10.08-1.97-14.608-.17-1.076-.358-1.886-.538-2.906zm-58.29 16.54a9 9 0 0 1 8.747 9.004 9 9 0 0 1-18 0 9 9 0 0 1 9.255-9.003zm47.554 48.217c3.676-.02 6.427 1.958 6.45 6.253.043 7.767-5.777 14.975-12.723 18.948l-.95-23.07c2.48-1.384 5.018-2.116 7.223-2.13zm-24.172 2.005c1.868-.036 3.91.416 5.854 1.326l3.76 22.515c-6-3.674-15.43-3.645-16.532-16.12-.458-5.185 2.81-7.64 6.918-7.72zm-30.842 164.283c-2.725 3.97-5.776 7.177-9.15 9.702-1.15.86-2.313 1.624-3.486 2.32l16.582 62.023c4.92.8 9.335 1.16 12.162.483 3.132-.75 5.117-1.863 7.056-5.613l-23.164-68.915zm-241.277 33.684l1.506 46.768c2.846 2.547 5.297 4.272 6.853 4.882 2.004.786 2.725.67 3.873.3 1.886-.61 5.296-3.89 9.054-8.15l-3.777-39.546c-5.836-.537-11.7-1.826-17.51-4.254z" fill="#fff" stroke-linejoin="round"/></svg>