<svg xmlns="http://www.w3.org/2000/svg" viewBox="0 0 512 512"><path d="M0 0h512v512H0z"/><path fill="#fff" d="M256 16a16 32 0 0 0-16 32 16 32 0 0 0 4.67 22.57c-1.56.12-3.117.26-4.67.43-3.055.335-9 2-9 2v15.85c8.16-1.214 16.506-1.85 25-1.85s16.84.636 25 1.85V73s-5.945-1.665-9-2c-1.554-.17-3.113-.31-4.674-.43A16 32 0 0 0 272 48a16 32 0 0 0-16-32zM93.89 83.623a32 16 45 0 0-7.595 2.672 32 16 45 0 0 11.312 33.94 32 16 45 0 0 19.262 12.658c-1.018 1.188-2.022 2.387-3 3.605-1.922 2.397-4.948 7.78-4.948 7.78l11.248 11.247c9.976-13.455 21.9-25.38 35.355-35.355l-11.248-11.248s-5.382 3.026-7.78 4.95c-1.218.977-2.417 1.983-3.606 3a32 16 45 0 0-12.654-19.265A32 16 45 0 0 93.89 83.623zm323.622.018a16 32 45 0 0-25.748 13.967 16 32 45 0 0-12.657 19.262c-1.188-1.018-2.387-2.022-3.605-3-2.397-1.922-7.78-4.948-7.78-4.948l-11.247 11.248c13.455 9.976 25.38 21.9 35.355 35.355l11.248-11.248s-3.026-5.382-4.95-7.78c-.977-1.218-1.983-2.417-3-3.606a16 32 45 0 0 19.265-12.654 16 32 45 0 0 11.312-33.94 16 32 45 0 0-8.193-2.655zM256 105c-1.12 0-2.238.014-3.352.04-1.057.024-2.11.064-3.162.108-36.83 1.558-70.215 16.253-95.59 39.538-.01.007-.018.015-.027.023-3.193 2.93-6.257 5.995-9.186 9.188-23.297 25.392-37.997 58.8-39.54 95.657v.076c-.044 1.023-.08 2.046-.103 3.073-.025 1.096-.04 2.194-.04 3.297 0 1.107.015 2.21.04 3.31.024 1.094.064 2.184.11 3.272 1.574 36.828 16.285 70.205 39.58 95.572.03.03.058.06.086.092 2.913 3.166 5.958 6.208 9.13 9.115 25.37 23.26 58.735 37.937 95.542 39.494l.2.005c.985.04 1.972.077 2.962.1 1.114.025 2.23.04 3.35.04s2.238-.014 3.352-.04c1.057-.024 2.11-.064 3.162-.108 36.83-1.558 70.215-16.253 95.59-39.538.01-.007.018-.015.027-.023 3.193-2.93 6.257-5.995 9.186-9.188 23.283-25.377 37.98-58.76 39.538-95.59l.005-.2c.04-.985.077-1.972.1-2.962.025-1.114.04-2.23.04-3.35s-.014-2.238-.04-3.352c-.024-1.057-.064-2.11-.108-3.162-1.558-36.83-16.253-70.215-39.538-95.59-.007-.01-.015-.018-.023-.027-2.93-3.193-5.995-6.257-9.188-9.186-25.377-23.283-58.76-37.98-95.59-39.538l-.2-.005c-.985-.04-1.972-.078-2.962-.1-1.114-.025-2.23-.04-3.35-.04zm0 10.752a8 8 0 0 1 8 8 8 8 0 0 1-8 8 8 8 0 0 1-8-8 8 8 0 0 1 8-8zM256 144c1.128 0 2.25.02 3.37.055.09.002.18.01.27.01 1.08.038 2.156.087 3.23.152 25.756 1.56 49.166 11.83 67.325 27.908 3.426 3.033 6.664 6.27 9.696 9.697 16.073 18.162 26.34 41.574 27.895 67.332.066 1.084.114 2.17.15 3.262l.008.205c.036 1.123.057 2.25.057 3.38 0 1.128-.02 2.25-.055 3.37-.002.09-.01.18-.01.27-.038 1.08-.087 2.156-.152 3.23-1.56 25.756-11.83 49.166-27.908 67.325-3.033 3.426-6.27 6.664-9.697 9.696-18.162 16.073-41.574 26.34-67.332 27.895-1.084.066-2.17.114-3.262.15l-.205.008c-1.123.036-2.25.057-3.38.057-1.128 0-2.25-.02-3.37-.055-.09-.002-.18-.01-.27-.01-1.08-.038-2.156-.087-3.23-.152-25.734-1.56-49.126-11.813-67.278-27.865l-.028-.023c-3.416-3.024-6.644-6.252-9.67-9.666-16.085-18.155-26.365-41.563-27.935-67.32v-.004c-.065-1.05-.113-2.103-.15-3.16l-.015-.392c-.035-1.114-.055-2.232-.055-3.354 0-1.107.02-2.21.053-3.31l.015-.387c.035-1.018.08-2.034.14-3.045l.003-.06c1.547-25.783 11.824-49.218 27.915-67.393 3.033-3.426 6.27-6.664 9.697-9.696 18.162-16.073 41.574-26.34 67.332-27.895 1.084-.066 2.17-.114 3.262-.15l.205-.008c1.123-.036 2.25-.057 3.38-.057zm-93.396 10.486a8 8 0 0 1 5.54 2.344 8 8 0 0 1 0 11.313 8 8 0 0 1-11.314 0 8 8 0 0 1 0-11.313 8 8 0 0 1 5.774-2.344zm187.027 0a8 8 0 0 1 5.54 2.344 8 8 0 0 1 0 11.313 8 8 0 0 1-11.313 0 8 8 0 0 1 0-11.313 8 8 0 0 1 5.774-2.344zM256 162c-5.46 0-10.803.465-16 1.346V172s3.21 4.913 5.76 6c.666.284 1.355.532 2.054.756-.686 12.47-1.63 25.145-2.86 37.78 3.52-.994 7.22-1.536 11.046-1.536 3.843 0 7.563.548 11.098 1.55-1.233-12.675-2.18-25.358-2.87-37.808.684-.22 1.36-.463 2.012-.742 2.55-1.087 5.76-6 5.76-6v-8.654c-5.197-.88-10.54-1.346-16-1.346zm-54.268 17.105c-8.78 6.19-16.438 13.847-22.627 22.627l6.184 6.184s5.743 1.205 8.315.17c.673-.27 1.334-.582 1.987-.918 8.338 9.31 16.643 18.947 24.71 28.76 3.7-6.53 9.135-11.96 15.67-15.65-9.842-8.098-19.484-16.405-28.785-24.725.33-.64.634-1.288.9-1.948 1.034-2.572-.17-8.316-.17-8.316l-6.185-6.185zm108.536 0l-6.184 6.184s-1.205 5.743-.17 8.315c.27.673.582 1.334.918 1.987-9.31 8.338-18.95 16.642-28.762 24.71 6.532 3.7 11.96 9.135 15.653 15.67 8.097-9.842 16.404-19.484 24.724-28.785.64.33 1.288.634 1.948.9 2.572 1.034 8.316-.17 8.316-.17l6.185-6.185c-6.19-8.78-13.847-16.438-22.627-22.627zM423.15 231c1.214 8.16 1.85 16.506 1.85 25s-.636 16.84-1.85 25H439s1.665-5.945 2-9c.17-1.554.31-3.113.43-4.674A32 16 0 0 0 464 272a32 16 0 0 0 32-16 32 16 0 0 0-32-16 32 16 0 0 0-22.57 4.67c-.12-1.56-.26-3.117-.43-4.67-.335-3.055-2-9-2-9h-15.85zm-350.084.066s-1.664 5.946-2 9c-.17 1.554-.31 3.113-.43 4.674a32 16 0 0 0-22.57-4.674 32 16 0 0 0-32 16 32 16 0 0 0 32 16 32 16 0 0 0 22.57-4.67c.12 1.56.26 3.118.43 4.67.336 3.055 2 9 2 9H88.86C87.64 272.886 87 264.516 87 256c0-8.47.633-16.795 1.84-24.934H73.066zM256 233c-12.81 0-23 10.19-23 23s10.19 23 23 23 23-10.19 23-23-10.19-23-23-23zm84 7s-4.913 3.21-6 5.76c-.284.666-.532 1.355-.756 2.054-12.47-.686-25.145-1.63-37.78-2.86.994 3.52 1.536 7.22 1.536 11.046 0 3.843-.548 7.563-1.55 11.098 12.675-1.233 25.358-2.18 37.808-2.87.22.684.463 1.36.742 2.012 1.087 2.55 6 5.76 6 5.76h8.654c.88-5.197 1.346-10.54 1.346-16 0-5.46-.465-10.803-1.346-16H340zm-176.666.066C162.46 245.242 162 250.566 162 256c0 5.482.47 10.85 1.357 16.066h8.71s4.912-3.21 6-5.76c.284-.666.53-1.354.755-2.054 12.454.686 25.115 1.627 37.733 2.857C215.55 263.57 215 259.846 215 256c0-3.816.54-7.51 1.53-11.02-12.648 1.227-25.3 2.17-37.72 2.86-.222-.686-.465-1.36-.744-2.014-1.087-2.55-6-5.76-6-5.76h-8.732zM388.248 248a8 8 0 0 1 8 8 8 8 0 0 1-8 8 8 8 0 0 1-8-8 8 8 0 0 1 8-8zm-264.43.066a8 8 0 0 1 8 8 8 8 0 0 1-8 8 8 8 0 0 1-8-8 8 8 0 0 1 8-8zm167.88 28.004c-3.7 6.532-9.135 11.96-15.67 15.653 9.842 8.097 19.484 16.404 28.784 24.724-.328.64-.633 1.288-.898 1.948-1.035 2.572.17 8.316.17 8.316l6.184 6.185c8.78-6.19 16.438-13.847 22.627-22.627l-6.184-6.184s-5.743-1.205-8.315-.17c-.673.27-1.334.582-1.987.918-8.338-9.31-16.642-18.95-24.71-28.762zm-71.384.024c-8.08 9.82-16.367 19.44-24.668 28.72-.64-.33-1.29-.635-1.95-.9-2.57-1.035-8.313.17-8.313.17l-6.24 6.238c6.194 8.776 13.86 16.43 22.644 22.612l6.223-6.223s1.204-5.743.17-8.315c-.27-.673-.582-1.334-.918-1.987 9.298-8.327 18.923-16.62 28.722-24.678-6.534-3.687-11.968-9.11-15.67-15.636zm24.588 19.355c1.233 12.675 2.18 25.358 2.87 37.808-.684.22-1.36.463-2.012.742-2.55 1.087-5.76 6-5.76 6v8.654c5.197.88 10.54 1.346 16 1.346 5.46 0 10.803-.465 16-1.346V340s-3.21-4.913-5.76-6c-.666-.284-1.355-.532-2.054-.756.686-12.47 1.63-25.145 2.86-37.78-3.52.994-7.22 1.536-11.046 1.536-3.843 0-7.563-.548-11.098-1.55zm-82.207 46.064a8 8 0 0 1 5.54 2.343 8 8 0 0 1 0 11.313 8 8 0 0 1-11.313 0 8 8 0 0 1 0-11.313 8 8 0 0 1 5.773-2.343zm186.936 0a8 8 0 0 1 5.54 2.343 8 8 0 0 1 0 11.313 8 8 0 0 1-11.313 0 8 8 0 0 1 0-11.313 8 8 0 0 1 5.774-2.343zm42.2 14.96c-9.976 13.456-21.9 25.38-35.355 35.356l11.248 11.248s5.382-3.026 7.78-4.95c1.218-.977 2.417-1.983 3.606-3a32 16 45 0 0 12.654 19.265 32 16 45 0 0 33.94 11.312 32 16 45 0 0-11.31-33.94 32 16 45 0 0-19.263-12.658c1.018-1.188 2.022-2.387 3-3.605 1.922-2.397 4.948-7.78 4.948-7.78l-11.248-11.247zm-271.62.053l-11.194 11.196s3.026 5.382 4.95 7.78c.977 1.218 1.98 2.417 3 3.606A16 32 45 0 0 97.7 391.763a16 32 45 0 0-11.313 33.94 16 32 45 0 0 33.94-11.31 16 32 45 0 0 12.66-19.263c1.187 1.018 2.386 2.022 3.605 3 2.397 1.922 7.78 4.948 7.78 4.948l11.208-11.21c-13.46-9.97-25.39-21.89-35.37-35.34zM256 380.247a8 8 0 0 1 8 8 8 8 0 0 1-8 8 8 8 0 0 1-8-8 8 8 0 0 1 8-8zm-25 42.903V439s5.945 1.665 9 2c1.554.17 3.113.31 4.674.43A16 32 0 0 0 240 464a16 32 0 0 0 16 32 16 32 0 0 0 16-32 16 32 0 0 0-4.67-22.57c1.56-.12 3.117-.26 4.67-.43 3.055-.335 9-2 9-2v-15.85c-8.16 1.214-16.506 1.85-25 1.85s-16.84-.636-25-1.85z"/></svg>