<svg xmlns="http://www.w3.org/2000/svg" viewBox="0 0 512 512"><path d="M0 0h512v512H0z"/><path fill="#fff" d="M247.61 25.525c-.24-.002-.472.01-.698.04-6.036.447-8.304 9.428-9.457 13.005-.765 16.387.404 18.574 1.324 32.34 4.17-1.2 8.477-1.835 12.788-1.94 5.08-.127 10.157.476 15.022 1.694 1.183-14.606.387-25.685-1.81-32.557-1.974-5.382-7.264-13.057-17.17-12.582zM147.567 49.53c-.62-.024-1.26-.02-1.922.013-6.066 1.007-8.66 9.968-9.63 13.44-.084 11.83.577 16.395 1.484 23.046 7.3-3.137 15.28-4.372 23.102-3.98 1.98.1 3.947.308 5.892.61-.262-9.144-1.402-16.303-3.19-21.22-1.97-4.69-6.45-11.525-15.736-11.91zm234.577 5.716c-5.964.257-12.98 6.254-14.98 9.467-3.832 12.763-4.142 16.74-5.433 25.04 1.813-.05 3.622 0 5.42.15 7.907.672 15.598 3.228 22.38 7.09 3.312-11.086 4.652-19.954 4.257-26.097-.334-4.19-3.424-13.767-9.17-15.382-.792-.223-1.624-.305-2.475-.268zM252.535 87.56c-5.568.098-11.066 1.284-15.498 3.727 3.915 16.74 9.04 35.38.887 55.994 5.526-2.346 11.4-3.49 17.183-3.46 4.525.024 9.007.702 13.338 1.946-4.778-18.102-4.864-36.368-1.1-55.764-4.486-1.637-9.655-2.532-14.81-2.44zm-95.045 12.99c-6.494.177-13.01 1.8-17.957 5.022 5.23 16.7 11.863 35.27 4.647 56.918l-.04.12c-.92 2.862-.773 2.157.358 3.025 4.81-2.72 10.03-4.458 15.32-5.186 3.118-.43 6.26-.545 9.385-.362 2.313.135 4.615.435 6.893.89-7.13-18.768-8.908-38.047-6.436-58.92-2.94-.835-6.113-1.377-9.392-1.496-.923-.033-1.85-.037-2.778-.01zm-96.472 1.51c-2.007-.088-4.342.235-7.094 1.063-8.973 2.49-7.356 6.598-8.12 14.102 1.676 10.703 2.99 15.295 4.704 20.892 8.648-4.985 18.72-7.11 28.484-6.765-1.73-8.804-3.984-15.565-6.512-20.067-2.388-5.023-5.442-8.967-11.462-9.226zm301.052 6.137c-.532-.004-1.062.006-1.588.03-1.76.076-3.48.304-5.12.697-.65 16.804-.666 35.67-13.145 53.066.383-.026.767-.053 1.15-.07 4.753-.206 9.472.348 13.95 1.55 4.908 1.318 9.576 3.37 13.882 6.016.24-18.61 4.996-36.154 13.722-53.763-6.27-4.462-14.87-7.47-22.852-7.526zM79.803 149.7c-8.575.206-19.616 3.163-25.34 7.91 6.807 14.568 14.99 30.547 12.965 50.433 3.414-2.005 7.082-3.5 10.834-4.463 2.7-.692 5.452-1.146 8.222-1.367 2.947-.235 5.914-.195 8.864.086-7.668-16.108-11.197-33.277-11.494-52.183-1.324-.19-2.658-.37-4.05-.416zm175.21 12.12c-6.56-.034-12.477 2.13-17.523 7.14 5.066 27.445 12.187 55.717 4.14 86.86 3.863-1.528 7.87-2.354 11.89-2.433.846-.017 1.692 0 2.54.05 7.723.45 15.01 3.34 21.473 7.983-7.136-30.364-7.94-60.396-3.69-93.24-5.748-3.98-12.486-6.327-18.83-6.36zm-88.374 16.203c-1.484-.023-2.945.06-4.367.256-6.503.895-12.08 3.92-16.402 9.757 9.013 27.392 20.272 55.285 16.056 88.46-.248 2.118-.264 3.898-.092 5.423 6.092-6.135 13.464-9.825 21.295-10.6 1.707-.17 3.412-.212 5.106-.136 3.13.14 6.227.697 9.26 1.603-10.65-28.728-15.355-58.06-15.71-90.764-4.36-2.233-9.057-3.65-13.66-3.94-.497-.033-.993-.052-1.487-.06zm178.704 1.788c-3.81-.013-7.537.908-11.147 2.72-1.545 26.1-1.393 53.79-17.45 80.144l.054-.09c-3.03 5.11-2.72 7.794-1.374 10.72.06.13.145.264.213.395 1.452-.165 2.902-.252 4.34-.237 3.432.036 6.8.584 10.022 1.642 5.87 1.93 11.065 5.296 15.5 9.698 2.098-.327 4.026-.857 5.668-1.58-.915-31.93 5.382-61.34 18.162-92.075-4.598-4.88-10.533-8.643-16.68-10.293-1.9-.51-3.792-.844-5.67-.982-.547-.04-1.094-.06-1.638-.062zM90.77 220.11c-.97-.016-1.938.01-2.893.08-1.775.13-3.505.405-5.143.826-5.094 1.306-9.148 3.77-11.994 7.607 10.976 19.646 23.922 39.995 24.115 66.49.06 3.22.68 4.873 1.81 6.092 3.688-3.67 8.008-6.413 12.76-8.064 4.804-1.67 9.838-2.296 14.925-2.015.31.017.623.044.935.068-13.366-21.43-21.38-44.106-25.754-69.816-2.865-.772-5.84-1.212-8.76-1.266zm361.238 13.697c-6.83.265-11.143 8.22-13.016 11.662-1.473 6.2-2.24 10.29-2.746 13.827 6.79.38 13.315 2.336 19.074 5.445 3.242 1.75 6.272 3.85 9.06 6.23 1.712-8.734 2.18-15.796 1.55-20.89-.22-7.45-.878-12.912-11.72-16.098-.76-.15-1.496-.205-2.202-.177zm-198.15 37.566c-5.736.02-11.392 2.81-16.954 10.98 2.186 24.098 5.206 48.117 5.266 72.733 4.056-.536 8.14-.912 12.22-1.078 4.778-.195 9.545-.12 14.243.222.145-23.142 1.933-46.717 5.226-71.523-5.96-7.075-12.89-10.954-18.852-11.303-.383-.022-.766-.032-1.15-.03zm180.28 5.785c-1.877.034-3.787.338-5.712.793-5.753 19.14-10.762 39.41-22.494 57.7 7.85 3.71 14.216 9.632 18.638 16.565 1.123 1.76 2.124 3.586 3.022 5.46 7.28-22.32 18.26-42.837 33.03-63.23-3.347-5.81-8.253-10.84-13.852-13.863-3.463-1.87-7.058-3.047-10.764-3.363-.618-.054-1.24-.073-1.867-.062zm-248.124 12.006c-.377.01-.75.032-1.114.068-6.014.595-11.696 4.27-16.318 14.58 5.81 24.622 12.43 48.982 16.246 74.385.336-.292.67-.586 1.02-.87 6.656-5.43 14.79-10.045 23.777-13.72-2.564-21.055-3.987-42.725-4.424-65.56-6.58-6.09-13.53-9.017-19.186-8.883zm132.6 2.113v.002c-4.312.093-9.096 2.16-14.536 6.874-3.447 20.253-6.305 40.603-10.912 60.86 9.037 3.065 17.13 7.414 24.313 12.537 5.893-20.932 13.292-41.906 22.23-63.59-3.947-8.366-9.652-13.89-15.327-15.755-1.586-.52-3.217-.85-4.91-.918-.284-.01-.57-.016-.858-.01zm-196.21 17.846c-.633-.018-1.254-.01-1.86.025-1.884.11-3.635.45-5.212.997-5.8 2.015-10.39 6.72-12.533 17.043 13.144 25.046 27.305 49.554 37.286 76.85 4.73-4.38 10.035-8.23 15.68-11.452 2.28-1.302 4.626-2.5 7.015-3.592-10.126-23.7-18.49-48.594-25.706-75.627-5.178-2.682-10.234-4.116-14.67-4.244zm272.242 41.555c-18.752 18.218-37.325 38.756-66.96 47.37l.1-.03c-2.247.682-3.837 1.44-5.018 2.293 9.752 7.94 17.304 18.378 23.06 28.858 19.404-20.463 41.88-35.817 68.932-48.42-.1-6.705-1.94-13.486-5.364-18.852-3.528-5.53-8.406-9.424-14.75-11.218zM261.504 372.12c-18.565.073-39.053 5.082-53.473 12.347 8.687 2.75 16.256 7.877 22.702 14.205 2.912-.117 5.844.092 8.766.65 11.386-7.508 25.232-12.184 39.152-12.96 6.662-.37 13.337.153 19.764 1.68 8.962 2.127 16.753 6.264 23.516 11.6-11.156-12.342-26.23-23.018-45.336-26.34-3.308-.577-6.78-.933-10.35-1.09-1.562-.068-3.144-.097-4.74-.09zm-68.61 28.058c-.688-.004-1.383.01-2.085.04-8.426.37-17.737 3.215-26.122 8-11.182 6.382-20.468 16.082-24.477 25.786-1.752 4.243.537 17.907 5.296 29.47 3.153 7.66 6.092 13.183 8.144 16.862 4.628 5.757 18.354 9.647 33.526 1.07-.918-2.255-1.864-4.7-2.772-7.28-3.866-10.99-8.203-23.92-3.785-36.43 4.364-12.363 13.21-22.71 23.78-29.77 1.67-1.115 3.393-2.15 5.157-3.098-3.45-2.065-7.032-3.49-10.686-4.133-1.907-.335-3.91-.505-5.975-.517zm91.223 4.316c-8.244.064-17.19 2.1-25.226 5.428 3.243 3.152 6.106 6.757 8.626 10.545 6.588 9.904 11.097 21.493 13.597 32.36 1.728 11.428.503 22.12-1.836 32.222-.985 9.276 38.55 14.348 58.803 1.427.358-2.835.71-6.162.795-10.272.205-9.897-1.152-22.028-3.37-27.178-8.107-18.815-22.68-39.064-41.25-43.474-2.197-.522-4.524-.843-6.933-.98-1.053-.06-2.123-.087-3.205-.08zm-51.38 12.192c-6.698.423-13.712 3.178-18.34 6.21-7.552 5.042-13.993 12.83-16.805 20.793-1.13 3.2.402 14.826 3.793 24.464 7.738 26.922 58.007 25.272 61.11 9.313 1.427-7.465 1.872-17.142 1.075-20.606-2.046-8.895-6-18.843-11.04-26.423-5.644-6.907-11.253-13.693-19.794-13.75z"/></svg>