<svg xmlns="http://www.w3.org/2000/svg" viewBox="0 0 512 512"><path d="M0 0h512v512H0z"/><path fill="#fff" d="M189 80.54c-3.2 5.57-3.7 12.82-.8 22.46 2.9 9.6 9.4 21.3 19 33.4 19.4 24.3 51.3 50.8 90.7 73 39.4 22.1 78.6 35.6 109.5 39.5 15.3 1.9 28.6 1.5 38.3-1.1 9.8-2.5 15.7-6.7 18.9-12.3 3.1-5.6 3.6-12.8.7-22.5-2.9-9.6-9.4-21.2-19-33.3-19.4-24.3-51.3-50.9-90.7-73-39.4-22.18-78.6-35.61-109.4-39.54-17.2-1.94-47.6-3.07-57.2 13.38zm-18.3 26.56-25.6 36.5c-2.6 17.2 8.7 39.9 30.8 63.2 22.6 23.9 55.3 47.7 90.2 67.2 34.8 19.5 71.9 34.6 102.6 41.5 18.8 3.1 46.2 9.2 61.6-3.7l21.4-47c-15.4 4.3-33.3 3.6-46.7 1.9-33.9-4.3-74.9-18.5-115.9-41.6-41.1-23.1-74.6-50.7-95.9-77.5-9.1-13.2-18.7-26.7-22.5-40.5zm-59.8 8.3c-42.85-.1-73.64 12.4-86.43 35.1-14.594 25.9-5.48 65 25.56 108 31 43 82.97 88.4 148.07 125 65.1 36.6 131 57.5 183.8 61.6 52.8 4.2 91-8.3 105.6-34.3 14.6-26 5.5-65-25.6-108-1.5-2.2-3.2-4.3-4.8-6.4l-30.5 67.1c-7.7 12.9-19.4 22.3-32.1 25.8-14.4 3.8-31.3 3.4-50 .4-37.3-6.2-81.6-23.4-122.8-46.1-41.3-22.8-79.4-51-103.8-80.1-12.3-14.6-21.14-29.4-24.8-44.6-3.67-15.1-1.52-30.9 8-44.1l40.4-57.4c-10.2-1.3-21-2-30.6-2zm18.2 50.9c-11.2 15-22.3 30.6-18.5 48.4 2.7 11.2 10 24 21 37.2 12.6 15 29.9 30.2 49.7 44.7 4.8-11.2 12.3-24.1 25.3-39.4-16.5-12-31.4-24.9-43.8-38-16.2-17.1-28.6-35-33.7-52.9zm92.2 101.3c-14.1 16.3-20.7 28.6-24.9 39.5 10.2 6.8 20.9 13.4 31.9 19.5 3.9-9.7 9.6-20.7 23.9-39.8-10.6-6.1-20.9-12.5-30.9-19.2zm46.9 28c-15.9 20.8-20.3 29.7-23.9 39.6 35.7 18.3 72.9 31.7 103.1 36.7 20.6 2.7 53.9 5.2 62.7-15.7l9.2-20.2c-18.3 3.2-39.2.5-54.6-2.9-29.8-6.8-63.7-20.2-96.5-37.5z"/></svg>
