<svg xmlns="http://www.w3.org/2000/svg" viewBox="0 0 512 512"><path d="M0 0h512v512H0z"/><path fill="#fff" d="M256 25.932c-18.969 0-36.639 20.557-36.639 48.636 0 28.08 17.67 48.639 36.639 48.639s36.639-20.56 36.639-48.639c0-28.079-17.67-48.636-36.639-48.636zM112 96s-96.965 62.813-86.373 112c4.048 18.799 41.31 39.417 46.246 58.002C84.117 312.107 16 352.297 16 400c0 11.926 32 96 32 96h96s-56.606-68.165-64-96c-10.71-40.318 45.454-95.328 38.748-136.502-3.637-22.333-60.928-38.58-65.207-60.799C45.86 162.815 112 96 112 96zm288 0s66.14 66.815 58.459 106.7c-4.279 22.218-61.57 38.465-65.207 60.798C386.546 304.672 442.71 359.682 432 400c-7.394 27.835-64 96-64 96h96s32-84.074 32-96c0-47.703-68.117-87.893-55.873-133.998 4.936-18.585 42.198-39.203 46.246-58.002C496.965 158.813 400 96 400 96zm-176.305 34.914c-7.531.938-14.474 2.207-20.377 3.781-6.898 1.84-12.352 4.169-15.353 6.227-3.001 2.058-2.887 2.84-2.965 3.078l-21.922 67.225 71.442-62.866c3.617-3.872 7.91-5.767 12.35-6.154-8.625-1.654-16.465-5.619-23.175-11.29zm64.61 0c-6.71 5.673-14.55 9.637-23.174 11.291 4.438.387 8.732 2.282 12.35 6.154l71.44 62.866L327 144c-.077-.238.036-1.02-2.965-3.078s-8.455-4.387-15.353-6.227c-5.903-1.574-12.846-2.843-20.377-3.78zM248.9 160.168c-.775.02-1.214.472-1.693 1.002l-96.047 84.516c.035.363.12 1.072.676 2.29 1.273 2.793 4.4 6.867 8.143 10.182 3.743 3.315 8.164 5.924 11.09 6.85 1.36.43 2.201.438 2.51.42l84.482-95.395c2.32-2.62-5.414-10.054-9.16-9.865zm27.532 11.242c-.438 3.648-1.972 7.254-4.897 10.557l-3.514 3.967 70.4 79.494c.309.018 1.15.01 2.51-.42 2.926-.926 7.347-3.535 11.09-6.85 3.744-3.315 6.87-7.39 8.143-10.181.556-1.219.64-1.928.676-2.291zM256 199.508l-69.328 78.283C185.42 279.205 185 285.147 185 288c0 29.279 12.608 45.893 26.4 59.764 6.897 6.935 14.093 12.911 20.112 19.302 6.018 6.392 11.51 13.895 11.49 23.58-.028 14.149-8.246 24.081-14.522 33.522-6.275 9.44-11.48 18.393-11.48 31.959 0 4.379 2.635 8.86 9.313 13.918 6.677 5.058 16.85 9.835 28.226 13.648 11.237 3.767 23.68 6.63 35.23 8.612-4.423-3.207-8.762-6.284-13.123-9.66-7.37-5.707-14.087-11.304-18.853-17.329-2.383-3.012-4.468-6.146-5.307-10.48-.838-4.334.892-10.302 4.518-13.545 11.397-10.194 26.32-13.929 37.21-19.365 5.446-2.718 9.754-5.65 12.481-8.934C309.422 409.71 311 406.17 311 400c0-15.156-6.774-23.149-12.645-32.934-2.935-4.892-6.078-10.847-5.195-18.252.883-7.404 5.71-13.8 13.268-19.843 6.642-5.311 11.513-8.68 14.781-13.67C324.477 310.31 327 302.933 327 288c-.446-2.88-.42-8.795-1.672-10.209z"/></svg>
