<svg xmlns="http://www.w3.org/2000/svg" viewBox="0 0 512 512"><path d="M0 0h512v512H0z"/><path fill="#fff" d="M214.683 26.824c-6.072-.12-12.087 1.004-17.863 3.766-9.62 4.6-13.792 15.067-13.713 24.023.079 8.957 2.688 17.853 5.183 26.637 2.496 8.784 4.953 17.403 5.592 24.139.64 6.736-.278 10.517-2.84 13.084-4.94 4.95-10.999 6.526-19.837 6.228-8.84-.297-19.734-2.91-31.102-5.771-11.368-2.861-23.212-5.963-34.973-6.508-11.76-.545-24.137 1.818-33.644 10.648-21 19.507-29.23 45.076-30.444 72.797-1.045 23.894 2.817 49.884 7.666 77.24a319.671 319.671 0 0 0 17.659-3.601c-4.712-26.817-8.271-51.61-7.342-72.852 1.085-24.808 7.621-44.52 24.71-60.394 5.135-4.77 11.525-6.274 20.561-5.856 9.036.42 20.021 3.114 31.414 5.98 11.393 2.868 23.194 5.914 34.89 6.307 11.694.394 24.008-2.309 33.183-11.503 7.584-7.601 8.91-18.12 8.02-27.502-.892-9.382-3.74-18.699-6.198-27.354-2.459-8.655-4.453-16.702-4.498-21.877-.046-5.175.138-6.029 3.476-7.625 8.217-3.928 18.665-2.12 31.375 4.9 12.712 7.021 26.54 18.95 38.975 31.735 19.341 19.885 35.042 41.174 41.21 49.851a3085.36 3085.36 0 0 0 14.355-10.89c-6.876-9.633-22.991-31.29-42.66-51.512-13.144-13.512-27.848-26.472-43.178-34.94-9.582-5.292-19.857-8.95-29.977-9.15zm223.649 30.834c-3.928-.095-7.467.275-10.315.994-5.696 1.44-7.486 3.62-7.809 4.729-.322 1.11.038 3.847 4.153 7.848 4.114 4 11.36 8.146 20.152 10.441 8.792 2.295 17.255 2.25 22.951.81 5.696-1.439 7.484-3.615 7.807-4.724.322-1.11-.036-3.85-4.15-7.85-4.115-4-11.359-8.148-20.15-10.443-4.397-1.148-8.712-1.709-12.64-1.805zm-27.67 27.957c-7.085 5.414-14.14 10.79-21.405 16.436 13.589 18.425 32.911 30.366 60.432 33.185 2.615-10.891 5.15-21.564 7.685-32.193-5.91-.04-12.087-.872-18.347-2.506-11.47-2.994-21.263-8.159-28.365-14.922zm-36.834 28.393c-97.063 75.548-206.209 159.733-325.34 179.11-13.564 2.205-19.404 8.658-22.9 20.308-3.497 11.65-2.833 28.71 1.585 47.053 8.556 35.518 31.115 75.613 51.887 94.316 18.395-2.027 41.96-6.153 65.463-12.729-3.165-4.838-6.055-10.11-8.762-15.77l17.72-8.474c3.5 7.317 6.79 13.298 10.354 18.2 2.421-.838 4.86-1.648 7.24-2.543 9.494-3.57 18.525-7.633 26.823-12.11-6.486-5.76-12.254-12.132-16.84-18.994l16.332-10.914c4.53 6.78 10.874 13.25 18.178 18.838 11.693-8.596 20.57-18.284 25.068-28.836l18.07 7.703c-5.312 12.463-13.994 23.013-24.769 32.065 6.074 2.707 12.336 4.748 18.557 5.687l-2.934 19.424c-11.97-1.807-23.45-6.183-33.898-12.188-10.696 6.393-22.483 11.797-34.604 16.498 2.793 1.315 5.853 2.418 9.258 3.35l-5.188 18.945c-10.658-2.918-19.375-7.844-26.752-14.447-18.489 5.66-37.113 9.768-53.935 12.578 20.436 9.494 44.948 14.174 70.25 14.106 35.905-.098 72.954-9.544 100.234-25.434 101.172-58.93 140.87-186.58 170.084-305.31-30.923-4.017-54.847-18.973-71.181-40.432zm80.052 228.416s-47.855 67.63-37.367 102.426c4.397 14.585 21.55 27.507 36.78 27.125 14.57-.366 29.75-13.698 33.845-27.686 10.036-34.28-33.258-101.865-33.258-101.865z"/></svg>
