<svg xmlns="http://www.w3.org/2000/svg" viewBox="0 0 512 512"><path d="M0 0h512v512H0z"/><path d="M135.563 17.5c-16.394-.215-25.532 15.656-25.532 15.656L63 144.562l26 15 72.97-96.406s15.012-26-10.97-41c-5.683-3.28-10.847-4.596-15.438-4.656zm219.656 13.22c-9.124.072-16.47 4.31-16.47 4.31L112.437 183l15 26L368.75 86.97S394.72 71.98 379.72 46c-7.033-12.18-16.452-15.346-24.5-15.28zM16 166v180a90 90 0 0 0 0-180zm435 45l-315 30v30l315 30s45 0 45-45-45-45-45-45zm-323.563 92l-15 26L338.75 476.97s25.97 15.012 40.97-10.97-10.97-40.97-10.97-40.97L127.437 303zM89 352.438l-26 15 47.03 111.406s14.99 25.97 40.97 10.97c25.982-15.002 10.97-40.97 10.97-40.97L89 352.438z" fill="#fff"/></svg>