<svg xmlns:cc="http://creativecommons.org/ns#" xmlns:svg="http://www.w3.org/2000/svg" xmlns="http://www.w3.org/2000/svg" viewBox="0 0 512 512"><path d="M0 0h512v512H0z"/><path d="m 278.40024,65.458982 -6.49609,11.25 -68.88867,119.320318 -69.97656,0 -2.07813,-0.11328 -0.94726,7.43945 c -3.96901,31.17242 -32.646004,56.98347 -64.371104,51.59765 -22.70048,-3.85375 -41.815472,-25.76974 -35.951172,-48.79882 1.68962,-6.63512 6.697608,-13.66505 12.679688,-17.57227 5.98208,-3.90722 12.093091,-5.01994 18.613281,-1.69922 1.42091,0.72365 4.878791,5.46478 5.300781,8.23633 0.14493,0.9518 0.04007,1.39515 0.01367,1.52148 0.23185,-0.0725 0.132269,-0.11895 0.04297,-0.002 -0.0547,0.0717 -0.05497,0.0596 -0.04297,0.002 -0.22145,0.0692 -0.744316,0.16211 -1.910156,0.16211 l -7.5,0 0,15 7.5,0 c 5.47999,0 10.807756,-2.04044 13.878906,-6.06445 3.07113,-4.02401 3.465926,-8.81823 2.847657,-12.8789 -1.23654,-8.12137 -5.646779,-15.43171 -13.324219,-19.3418 -4.34432,-2.21254 -8.839973,-3.27414 -13.257813,-3.41406 -0.46019,-0.0146 -0.918733,-0.0187 -1.376953,-0.0137 -6.87335,0.0775 -13.496771,2.34679 -18.988281,5.9336 -9.37221,6.12149 -16.294972,15.7534 -19.013672,26.42968 -8.2798299,32.51484 17.385126,62.09537 47.978516,67.28907 38.814911,6.58942 73.170581,-22.26244 80.769531,-58.71289 l 50.45117,0 L 168.39048,256 58.382661,446.54102 l 220.017579,0 220.01758,0 L 388.40806,256 l -25.96289,-44.9707 83.74609,0 0,-15 -92.40625,0 -75.38477,-130.570318 z m 0,30 58.06446,100.570318 -116.12891,0 58.06445,-100.570318 z m -66.72461,115.570318 133.44922,0 30.29297,52.4707 97.01758,168.04102 -194.03516,0 -194.037111,0 L 181.38071,263.5 211.67563,211.0293 Z" fill="#fff"/></svg>
