<svg xmlns="http://www.w3.org/2000/svg" viewBox="0 0 512 512"><path d="M0 0h512v512H0z"/><path d="m 128.32519,5.30078 9.73633,16.861328 2.52343,128.375002 c 8.85935,52.94055 53.35517,93.93807 107.91602,97.40429 l 0,50.14258 -59.48633,0 -20.10937,-11.60937 0,38.21875 20.10742,-11.60938 59.48828,0 0,42.18164 -59.48633,0 -20.10937,-11.60937 0,38.21875 20.10742,-11.60938 59.48828,0 0,42.17969 -59.48633,0 -20.10937,-11.60937 0,38.21875 20.10742,-11.60938 59.48828,0 0,59.14453 -11.60938,20.10938 38.21876,0 -11.60938,-20.10742 0,-59.14649 59.48633,0 20.10742,11.60938 0,-38.21875 -20.10937,11.60937 -59.48438,0 0,-42.17969 59.48633,0 20.10742,11.60938 0,-38.21875 -20.10937,11.60937 -59.48438,0 0,-42.18164 59.48633,0 20.10742,11.60938 0,-38.21875 -20.10937,11.60937 -59.48438,0 0,-50.14258 c 54.56278,-3.46555 99.05837,-44.46522 107.91602,-97.4082 l 2.52539,-128.371092 9.73242,-16.861328 -38.9375,0 11.73633,16.861328 -0.0859,127.320312 c -8.61363,47.65974 -50.20477,83.70117 -100.38477,83.70117 -50.18002,0 -91.7747,-36.04143 -100.38867,-83.70117 l -0.086,-127.320312 11.73438,-16.861328 -38.9375,0 z" fill="#fff"/></svg>
