<svg xmlns:svg="http://www.w3.org/2000/svg" xmlns="http://www.w3.org/2000/svg" viewBox="0 0 512 512"><path d="M0 0h512v512H0z"/><path d="M 59.046875 3.6386719 L 104.01562 40.775391 L 161.87305 133.49219 L 94.154297 133.49219 C 90.564689 112.56713 72.249383 96.525391 50.335938 96.525391 C 25.866508 96.525391 5.8710937 116.52277 5.8710938 140.99219 C 5.8710938 165.46162 25.866508 185.45898 50.335938 185.45898 C 72.249382 185.45898 90.564689 169.41725 94.154297 148.49219 L 171.23242 148.49219 L 233.64062 248.5 L 156.09766 248.5 L 128.89844 232.79688 L 128.89844 279.20508 L 156.10352 263.5 L 242.52344 263.5 L 180.49805 363.50781 L 94.154297 363.50781 C 90.564689 342.58274 72.249382 326.54102 50.335938 326.54102 C 25.866508 326.54102 5.8710938 346.53839 5.8710938 371.00781 C 5.8710938 395.47724 25.866507 415.47461 50.335938 415.47461 C 72.249383 415.47461 90.564689 399.43287 94.154297 378.50781 L 171.19531 378.50781 L 103.3457 487.9082 L 85.589844 507.81055 L 141.26367 507.81055 L 122.0293 486.24609 L 188.84766 378.50781 L 314.76758 378.50781 L 375.15234 475.27344 L 335.08984 508.35938 L 452.95312 508.35938 L 407.98828 471.22852 L 350.12891 378.50781 L 417.8457 378.50781 C 421.43531 399.43287 439.75061 415.47461 461.66406 415.47461 C 486.13349 415.47461 506.12891 395.47724 506.12891 371.00781 C 506.12891 346.53839 486.13349 326.54102 461.66406 326.54102 C 439.75061 326.54102 421.43531 342.58275 417.8457 363.50781 L 340.76758 363.50781 L 278.36133 263.5 L 355.89648 263.5 L 383.10156 279.20508 L 383.10156 232.79688 L 355.90234 248.5 L 269.47852 248.5 L 331.50195 148.49219 L 417.8457 148.49219 C 421.43531 169.41725 439.75061 185.45898 461.66406 185.45898 C 486.13349 185.45898 506.12891 165.46162 506.12891 140.99219 C 506.12891 116.52276 486.13349 96.525391 461.66406 96.525391 C 439.75061 96.525391 421.43531 112.56712 417.8457 133.49219 L 340.80469 133.49219 L 408.65039 24.097656 L 426.41016 4.1894531 L 370.73633 4.1894531 L 389.97266 25.751953 L 323.15234 133.49219 L 197.23242 133.49219 L 136.84766 36.724609 L 176.91016 3.6386719 L 59.046875 3.6386719 z M 50.335938 111.52539 C 66.698765 111.52539 79.802734 124.62936 79.802734 140.99219 C 79.802734 157.35501 66.698765 170.45898 50.335938 170.45898 C 33.973109 170.45898 20.871094 157.35501 20.871094 140.99219 C 20.871094 124.62936 33.97311 111.52539 50.335938 111.52539 z M 461.66406 111.52539 C 478.02688 111.52539 491.12891 124.62936 491.12891 140.99219 C 491.12891 157.35501 478.02688 170.45898 461.66406 170.45898 C 445.30123 170.45898 432.19727 157.35501 432.19727 140.99219 C 432.19727 124.62936 445.30123 111.52539 461.66406 111.52539 z M 206.59375 148.49219 L 313.84961 148.49219 L 260.38672 234.69727 L 206.59375 148.49219 z M 251.61328 277.30273 L 305.4082 363.50781 L 198.15039 363.50781 L 251.61328 277.30273 z M 50.335938 341.54102 C 66.698766 341.54102 79.802734 354.64499 79.802734 371.00781 C 79.802734 387.37063 66.698765 400.47461 50.335938 400.47461 C 33.973109 400.47461 20.871094 387.37063 20.871094 371.00781 C 20.871094 354.64499 33.97311 341.54102 50.335938 341.54102 z M 461.66406 341.54102 C 478.02688 341.54102 491.12891 354.64499 491.12891 371.00781 C 491.12891 387.37063 478.02688 400.47461 461.66406 400.47461 C 445.30123 400.47461 432.19727 387.37063 432.19727 371.00781 C 432.19727 354.64499 445.30123 341.54102 461.66406 341.54102 z " fill="#fff"/></svg>
