<svg xmlns="http://www.w3.org/2000/svg" viewBox="0 0 512 512"><path d="M0 0h512v512H0z"/><path d="M 465.66601,6.8974585 369.45117,103.90137 C 392.62058,92.006382 414.81342,87.018402 435.77734,90.708002 402.98251,225.89039 361.02808,317.85486 303.0625,365.24902 c -11.56078,9.45239 -23.81436,17.8221 -36.81641,25.33203 l -0.2207,-32.11523 15.94922,-15.95117 -23.08203,-23.08203 -23.08008,23.08203 15.20703,15.20703 0.28125,40.95898 c -50.16687,25.46643 -110.99959,40.21681 -185.619143,55.01367 l -55.25,-20.24609 12.474609,71.6543 43.357422,-36.22071 C 139.10524,454.5212 200.02978,440.19038 251.41406,415.40918 l 0.24805,36.14258 -15.84961,15.85156 23.08203,23.08203 23.08008,-23.08203 -15.30664,-15.30664 -0.30469,-44.34571 c 16.38255,-8.91376 31.75426,-19.08129 46.19531,-30.88867 61.19,-50.03052 104.43627,-145.39625 137.67578,-282.134758 18.19689,6.994258 35.3679,21.236388 51.33399,43.994138 L 465.66601,6.8974585 Z m -76.49219,371.4511715 -23.08007,23.08203 23.08203,23.08203 23.08008,-23.08203 -23.08204,-23.08203 z" fill="#fff"/></svg>
