<svg xmlns="http://www.w3.org/2000/svg" viewBox="0 0 512 512"><path d="M0 0h512v512H0z"/>
<path d="M 13.582183,65.458982 123.59195,256 l 27.77148,48.10156 c -49.18279,-0.36891 -85.554684,-0.8457 -85.554684,-0.8457 l 0,15 93.726564,0 74.06445,128.28516 6.4961,-11.25 67.57031,-117.03516 60.43164,0 c 7.59895,36.45045 41.95462,65.30231 80.76953,58.71289 30.59339,-5.1937 56.25835,-34.77422 47.97852,-67.28906 -2.7187,-10.67629 -9.64147,-20.3082 -19.01368,-26.42969 -5.49151,-3.58681 -12.11493,-5.85607 -18.98828,-5.93359 -0.45822,-0.005 -0.91676,-9.4e-4 -1.37695,0.0137 -4.41784,0.13992 -8.91349,1.20152 -13.25781,3.41406 -7.67744,3.91009 -12.08768,11.22043 -13.32422,19.3418 -0.61827,4.06068 -0.22348,8.85489 2.84765,12.8789 3.07115,4.02401 8.39892,6.06446 13.87891,6.06446 l 7.5,0 0,-15 -7.5,0 c -1.16584,0 -1.68871,-0.0929 -1.91015,-0.16211 0.012,0.0576 0.0117,0.0697 -0.043,-0.002 -0.0893,-0.117 -0.18889,-0.0705 0.043,0.002 -0.0264,-0.12634 -0.13126,-0.56969 0.0137,-1.52149 0.42199,-2.77155 3.87987,-7.51268 5.30078,-8.23632 6.52019,-3.32072 12.6312,-2.20801 18.61328,1.69921 5.98208,3.90722 10.99007,10.93715 12.67969,17.57227 5.8643,23.02908 -13.25069,44.94507 -35.95118,48.79883 -31.72509,5.38582 -60.40209,-20.42524 -64.37109,-51.59766 l -0.94726,-7.43945 c 0,0 -1.38465,0.0944 -2.07813,0.11328 -18.37315,0.50039 -40.07832,0.81722 -63.21875,1.01172 L 343.60953,256 453.61734,65.458982 l -220.01758,0 -220.017577,0 z m 25.982422,15 194.035155,0 194.03711,0 L 330.61929,248.5 298.35367,304.38477 c -43.23583,0.24236 -89.31863,0.0969 -129.59961,-0.16211 L 136.58218,248.5 39.564605,80.458982 Z m 137.291015,237.796878 113.49024,0 -56.7461,98.28516 -56.74414,-98.28516 z" fill="#fff"/></svg>
