<svg xmlns="http://www.w3.org/2000/svg" viewBox="0 0 512 512"><path d="M0 0h512v512H0z"/><path d="m 8.2675781,113.03027 0,38.17773 c 0,0 12.8813699,-7.43774 19.3222659,-11.15625 52.174906,9.97893 92.059546,54.19533 95.447266,108.44922 l -42.59961,0 C 73.745554,244.63862 60.363281,236.91113 60.363281,236.91113 l 0,38.17773 c 0,0 13.379914,-7.72577 20.070313,-11.58789 l 42.603516,0 C 119.64855,317.75409 79.764127,361.96909 27.589844,371.94824 21.148958,368.22972 8.2675781,360.79199 8.2675781,360.79199 l 0,38.17773 c 0,0 13.9395689,-8.04911 20.9101559,-12.07227 59.597971,-10.8765 105.430176,-61.54632 108.880856,-123.39648 l 270.00977,0 c 0.0908,0.56258 0.16807,1.12738 0.27539,1.6875 5.49633,28.68731 33.51463,50.54115 63.36719,43.80664 23.33934,-5.26518 41.26004,-28.92664 34.17187,-53.55859 -2.53334,-8.80356 -8.38286,-16.35282 -16.13281,-21.0625 -3.87498,-2.35485 -8.35869,-3.95027 -13.06055,-4.4375 -1.17546,-0.12181 -2.36375,-0.17455 -3.56054,-0.15235 -3.59038,0.0666 -7.24996,0.80605 -10.81055,2.36524 -5.87624,2.5732 -10.38771,7.28242 -13.04688,13.43164 -1.32958,3.07461 -2.13077,6.66834 -1.50586,10.53125 0.62492,3.86291 2.93976,7.76527 6.38477,10.38672 3.29454,2.55911 8.04407,1.93894 10.57031,-1.38086 2.52624,-3.3198 1.85841,-8.06351 -1.48632,-10.55664 -0.75906,-0.5776 -0.61723,-0.56823 -0.66211,-0.84571 -0.0449,-0.27747 -0.0129,-1.07043 0.46679,-2.17968 0.95937,-2.2185 3.96944,-5.0652 5.29688,-5.64649 4.72785,-2.07032 9.24217,-1.35954 13.62304,1.30274 4.38088,2.66228 8.09217,7.47308 9.50782,12.39257 4.4641,15.51313 -7.51905,31.27218 -23.05664,34.77735 -20.95699,4.72774 -41.34763,-11.18987 -45.33399,-31.9961 -0.14695,-0.76701 -0.27343,-1.53777 -0.3789,-2.3125 l 0,-11.55273 -284.63868,0 C 134.60876,186.65001 88.776331,135.97882 29.177734,125.10253 22.207032,121.07957 8.2675781,113.03027 8.2675781,113.03027 Z" fill="#fff"/></svg>
