<svg xmlns="http://www.w3.org/2000/svg" viewBox="0 0 512 512"><path d="M0 0h512v512H0z"/><path d="M 87.076174,5.8600644 C 75.782805,5.7119011 63.122015,10.630143 48.683596,17.569048 29.43237,26.820921 11.593752,47.219439 11.593752,47.219439 c 0,0 30.173639,-15.286377 43.992187,-20.71875 16.773563,-6.594054 31.193473,-7.291353 53.505861,5.582031 22.31239,12.873384 41.84259,39.953229 59.21289,81.5293 14.12604,33.81089 24.93817,73.93447 35.17774,115.38086 l -79.79883,59.05078 -14.13477,0 0,21.33984 21.33985,0 0,-6.85742 0,-1.15625 76.46875,-56.58594 c 1.04389,4.29567 2.08903,8.58898 3.13086,12.89454 3.3444,13.8215 6.69787,27.66097 10.16601,41.36328 l -86.29101,63.85547 -14.13477,0 0,21.33984 21.33984,0 0,-6.85742 0,-1.15625 83.12305,-61.51172 c 8.35555,31.70227 17.60233,62.28131 29.20312,89.62109 18.467,43.52143 43.22186,79.51065 81.02344,96.65625 16.65443,7.55393 35.90133,5.9426 55.03321,0.69532 19.13187,-5.24729 30.66412,-9.4725 49.55273,-20.70899 18.8886,-11.23648 60.90234,-48.99219 60.90234,-48.99219 0,0 -48.20873,24.63884 -67.53125,32.97657 -19.32253,8.33773 -31.52194,12.85915 -48.21484,17.4375 -16.6929,4.57834 -31.3677,4.96467 -41.48242,0.37695 -31.14562,-14.12667 -53.37487,-45.01569 -70.87305,-86.25391 -11.89682,-28.03741 -21.45527,-60.55231 -30.26562,-94.64453 l 64.52734,-47.75 13.58398,0 0,-7.5 0,-15.83984 -23.33984,0 0,11.90039 -58.74805,43.47461 c -2.74334,-10.98439 -5.44542,-22.06317 -8.13671,-33.18555 -1.70194,-7.0336 -3.40635,-14.07195 -5.12305,-21.10156 l 71.08398,-52.60156 13.58399,0 0,-7.5 0,-15.83985 -23.33985,0 0,11.90039 -65.2207,48.26367 C 211.19894,177.20878 200.68051,139.22255 186.75977,105.90304 168.45605,62.09281 150.74521,32.433128 113.28321,14.610064 108.13442,12.160454 98.369544,6.0082276 87.076174,5.8600644 Z" fill="#fff"/>
</svg>
