<svg xmlns="http://www.w3.org/2000/svg" viewBox="0 0 512 512"><path d="M0 0h512v512H0z"/><path d="M 423.63281 0 C 374.91779 0 335.26562 39.652164 335.26562 88.367188 C 335.26562 119.52334 351.48578 146.97111 375.92188 162.71094 L 214.59766 470.37305 L 211.11523 477.01367 L 224.40039 483.98047 L 227.88281 477.33789 L 389.17578 169.73438 C 399.77 174.23927 411.41628 176.73438 423.63281 176.73438 C 472.34784 176.73438 512 137.08221 512 88.367188 C 512 39.652164 472.34784 0 423.63281 0 z M 423.63281 15 C 464.24123 15 497 47.758766 497 88.367188 C 497 128.97561 464.24123 161.73438 423.63281 161.73438 C 383.02439 161.73438 350.26564 128.97561 350.26562 88.367188 C 350.26562 47.758766 383.02439 15 423.63281 15 z " fill="#fff"/><path d="m 88.36719,512 c 48.71502,0 88.36719,-39.65216 88.36719,-88.36718 0,-31.15616 -16.22016,-58.60393 -40.65626,-74.34376 l 161.32422,-307.66211 3.48243,-6.64062 -13.28516,-6.9668 -3.48242,6.64258 -161.29297,307.60351 c -10.59422,-4.50489 -22.2405,-7 -34.45703,-7 C 39.65216,335.26562 0,374.91779 0,423.63282 0,472.34784 39.65216,512 88.36719,512 Z m 0,-15 C 47.75877,497 15,464.24124 15,423.63282 c 0,-40.60843 32.75877,-73.3672 73.36719,-73.3672 40.60842,0 73.36717,32.75877 73.36719,73.3672 0,40.60842 -32.75877,73.36718 -73.36719,73.36718 z" fill="#fff"/></svg>
