<?xml version="1.0" encoding="UTF-8" standalone="no"?>
<svg
   xmlns:dc="http://purl.org/dc/elements/1.1/"
   xmlns:cc="http://creativecommons.org/ns#"
   xmlns:rdf="http://www.w3.org/1999/02/22-rdf-syntax-ns#"
   xmlns:svg="http://www.w3.org/2000/svg"
   xmlns="http://www.w3.org/2000/svg"
   xmlns:sodipodi="http://sodipodi.sourceforge.net/DTD/sodipodi-0.dtd"
   xmlns:inkscape="http://www.inkscape.org/namespaces/inkscape"
   viewBox="0 0 512 512"
   id="svg2"
   version="1.1"
   inkscape:version="0.91 r13725"
   sodipodi:docname="twenty-four-hours.svg">
  <metadata
     id="metadata10">
    <rdf:RDF>
      <cc:Work
         rdf:about="">
        <dc:format>image/svg+xml</dc:format>
        <dc:type
           rdf:resource="http://purl.org/dc/dcmitype/StillImage" />
        <dc:title></dc:title>
      </cc:Work>
    </rdf:RDF>
  </metadata>
  <defs
     id="defs8" />
  <sodipodi:namedview
     pagecolor="#ffffff"
     bordercolor="#666666"
     borderopacity="1"
     objecttolerance="10"
     gridtolerance="10"
     guidetolerance="10"
     inkscape:pageopacity="0"
     inkscape:pageshadow="2"
     inkscape:window-width="1329"
     inkscape:window-height="912"
     id="namedview6"
     showgrid="false"
     inkscape:zoom="0.65539551"
     inkscape:cx="104.40279"
     inkscape:cy="33.379505"
     inkscape:window-x="111"
     inkscape:window-y="24"
     inkscape:window-maximized="0"
     inkscape:current-layer="svg2" />
  <path
     d="M0 0h512v512H0z"
     id="path4" />
  <path
     style="color:#000000;font-style:normal;font-variant:normal;font-weight:normal;font-stretch:normal;font-size:medium;line-height:normal;font-family:sans-serif;text-indent:0;text-align:start;text-decoration:none;text-decoration-line:none;text-decoration-style:solid;text-decoration-color:#000000;letter-spacing:normal;word-spacing:normal;text-transform:none;direction:ltr;block-progression:tb;writing-mode:lr-tb;baseline-shift:baseline;text-anchor:start;white-space:normal;clip-rule:nonzero;display:inline;overflow:visible;visibility:visible;opacity:1;isolation:auto;mix-blend-mode:normal;color-interpolation:sRGB;color-interpolation-filters:linearRGB;solid-color:#000000;solid-opacity:1;fill:#ffffff;fill-opacity:1;fill-rule:nonzero;stroke:none;stroke-width:15;stroke-linecap:round;stroke-linejoin:round;stroke-miterlimit:4;stroke-dasharray:none;stroke-dashoffset:0;stroke-opacity:1;color-rendering:auto;image-rendering:auto;shape-rendering:auto;text-rendering:auto;enable-background:accumulate"
     d="M 423.63281 0 C 374.91779 0 335.26562 39.652164 335.26562 88.367188 C 335.26562 119.52334 351.48578 146.97111 375.92188 162.71094 L 214.59766 470.37305 L 211.11523 477.01367 L 224.40039 483.98047 L 227.88281 477.33789 L 389.17578 169.73438 C 399.77 174.23927 411.41628 176.73438 423.63281 176.73438 C 472.34784 176.73438 512 137.08221 512 88.367188 C 512 39.652164 472.34784 0 423.63281 0 z M 423.63281 15 C 464.24123 15 497 47.758766 497 88.367188 C 497 128.97561 464.24123 161.73438 423.63281 161.73438 C 383.02439 161.73438 350.26564 128.97561 350.26562 88.367188 C 350.26562 47.758766 383.02439 15 423.63281 15 z "
     id="path4140-3" />
  <path
     inkscape:connector-curvature="0"
     style="color:#000000;font-style:normal;font-variant:normal;font-weight:normal;font-stretch:normal;font-size:medium;line-height:normal;font-family:sans-serif;text-indent:0;text-align:start;text-decoration:none;text-decoration-line:none;text-decoration-style:solid;text-decoration-color:#000000;letter-spacing:normal;word-spacing:normal;text-transform:none;direction:ltr;block-progression:tb;writing-mode:lr-tb;baseline-shift:baseline;text-anchor:start;white-space:normal;clip-rule:nonzero;display:inline;overflow:visible;visibility:visible;opacity:1;isolation:auto;mix-blend-mode:normal;color-interpolation:sRGB;color-interpolation-filters:linearRGB;solid-color:#000000;solid-opacity:1;fill:#ffffff;fill-opacity:1;fill-rule:nonzero;stroke:none;stroke-width:15;stroke-linecap:round;stroke-linejoin:round;stroke-miterlimit:4;stroke-dasharray:none;stroke-dashoffset:0;stroke-opacity:1;color-rendering:auto;image-rendering:auto;shape-rendering:auto;text-rendering:auto;enable-background:accumulate"
     d="m 88.36719,512 c 48.71502,0 88.36719,-39.65216 88.36719,-88.36718 0,-31.15616 -16.22016,-58.60393 -40.65626,-74.34376 l 161.32422,-307.66211 3.48243,-6.64062 -13.28516,-6.9668 -3.48242,6.64258 -161.29297,307.60351 c -10.59422,-4.50489 -22.2405,-7 -34.45703,-7 C 39.65216,335.26562 0,374.91779 0,423.63282 0,472.34784 39.65216,512 88.36719,512 Z m 0,-15 C 47.75877,497 15,464.24124 15,423.63282 c 0,-40.60843 32.75877,-73.3672 73.36719,-73.3672 40.60842,0 73.36717,32.75877 73.36719,73.3672 0,40.60842 -32.75877,73.36718 -73.36719,73.36718 z"
     id="path4140-3-7" />
</svg>
