<svg xmlns="http://www.w3.org/2000/svg" viewBox="0 0 512 512"><path d="M0 0h512v512H0z"/>
<g transform="matrix(18.68858 0 0 18.68858 -12481.96589 -25183.5313)">
<path fill="#fff" d="m677.84,1348.6952c4.6962,4.3592 7.4912,9.0541 9.4864,14.3128-4.6926-5.5777-6.4678-6.7116-13.1791-9.6221 4.8994,3.8639 5.8441,4.8702 8.7133,9.4558-3.7479-2.7943-8.9026-5.5142-13.8569-6.9901v4.5697c5.1072,1.3131 13.0887,5.1957 16.6862,9.3755-.0334-1.3685-.2132-2.7368-.7767-4.1053l5.825,5.9915c-.3502-1.8196-1.0975-3.595-2.2468-5.3257l6.1024,6.241c-1.9928-9.3932-8.3441-19.4794-16.7537-23.9031z"/>
</g>
</svg>
