<svg xmlns="http://www.w3.org/2000/svg" viewBox="0 0 512 512"><path d="M0 0h512v512H0z"/><path fill="#fff" d="M350.148 19.816c-28.856.343-81.178 43.613-70.99 117.393-11.75 3.556-23.11 7.433-34.092 11.642-2.044 0-4.05-.207-6.01-.565 11.855 18.155 33.627 26.273 56.46 21.793l.064.332c-8.75 4.98-18.414 8-28.006 8.662-10.993.758-21.794-1.37-31.482-7.13-12.896-11.232-21.986-27.285-24.352-46.84-2.687-7.845-2.174-16.588 3.06-24.51 10.896-16.49 5.866-35.218-5.39-40.56-25-11.863-83.03 52.778-46.385 131.704-9.862 6.913-19.258 14.316-28.19 22.235-3.142 1.37-6.406 2.202-9.685 2.58 2.62 1.873 5.44 3.547 8.454 4.986 12.867 6.144 28.7 7.72 42.625 3.735-9.923 6.737-21.38 10.825-32.738 11.608-11.48.79-22.75-1.566-32.763-7.918-9.07-7.48-16.252-17.27-19.982-28.988-3.01-5.363-4.288-11.727-2.96-18.684 3.71-19.414-8.14-34.76-20.583-35.36-27.666-1.334-56.377 80.825 8.063 139.58-24.882 40.724-43.246 89.936-55.21 149.27-12.743 63.2 35.528 78.345 66.065 18.82h-.002c18.494-36.046 35.247-60.415 53.997-77.277 51.374-56.885 124.32-104.723 183.916-130.773 28.824-12.6 54.142-20.394 74.182-20.73 2.863-.05 5.617.054 8.26.318 10.57 1.056 20.64 5.55 25.308 14.885 4.168 8.335 3.434 18.108-.414 28.98 1.176-11.953-6.686-23.948-24.544-24.98-.685-.107-1.408-.207-2.21-.287-6.736-.673-16.59.506-28.464 3.408 30.354 16.232 39.272 42.704 16.19 58.83 9.243-21.19-20.22-43.083-47.45-48.802-4.36 1.688-8.82 3.51-13.374 5.502-1.642.717-3.316 1.484-4.98 2.238 20.57 21.127 23.983 44.763.868 54.36 10.16-14.01-.816-32.898-17.61-46.354-7.125 3.584-14.388 7.458-21.733 11.592 9.532 15.205 4.29 29.373-19.706 38.925 9.546-8.792 9.017-19.24 2.164-28.642-24.193 14.753-48.698 32.04-71.375 51.02 32.222-8.367 73.068-10.78 130.11-15.61 211.037-17.87 207.005-209.554 48.82-210.818-2.703-.022-5.47.033-8.262.125-.774-.258-1.53-.545-2.274-.854 1.57 4.127 3.633 8.076 6.144 11.807 8.655 12.86 22.707 22.82 38.67 27.113-13.042 1.57-26.28-.54-37.444-5.998-8.158-3.99-15.206-9.624-20.523-16.98-6.906-12.792-10.19-27.72-8.32-43.24-1.593-9.765 1.216-19.895 9.962-26.926 15.404-12.378 16.324-31.748 7.234-40.27-3.19-2.988-7.746-4.41-13.116-4.348zm62.674 156.55l-.103.51c-.54-.11-1.078-.23-1.615-.35.573-.046 1.145-.102 1.717-.16zm-228.052 65.71l.033.096c-.124.042-.248.08-.37.12.112-.07.224-.143.337-.216z"/></svg>