<svg xmlns="http://www.w3.org/2000/svg" viewBox="0 0 512 512"><path d="M0 0h512v512H0z"/><path fill="#fff" d="M229.195 18.336l-6.136 5.717C179.44 64.683 107.984 67.313 49.08 63.27l-11.434-.782 1.534 11.356c3.176 23.53.144 49.397-6.97 71.486-3.667 11.39-8.49 21.723-13.85 30.236v29.47c13.92-12.55 24.515-31.852 31.64-53.977 1.84-5.715 3.425-11.63 4.742-17.67l54.096-2.97 5.23-47.86c28.946-1.867 58.22-7.387 84.36-19.843l39.45 32.355 26.995-30.095c17.072 7.668 35.674 12.29 54.395 12.1l13.285 37.196 37.568-2.105c2.62 4.83 5.44 9.524 8.533 14.03 8.222 11.973 18.57 22.563 31.68 30.5l-2.184 29.505 21.922 2.56c.716 11.336 2.415 22.242 5.717 32.598 3.367 10.56 8.515 20.493 15.698 29.486l-20.1 19.695 15.567 11.587c-19.55 25.202-25.823 52.407-22.892 77.6l-20.866 3.023 3.444 23.5c-25.575 7.253-48.054 24.84-60.755 47.52l-28.033-14.534-4.805 24.766c-21.564-3.42-44.95-2.798-66.553 4.902l-15.656-28.968-26.04 21.968c-11.697-12.98-26.314-23.074-41.8-30.535-10.662-5.138-21.746-9.067-32.752-11.91l10.473-42.353-37.488 6.043c1.46-9.002 2.273-18.416 2-28.004-.357-12.56-2.78-25.446-8.074-37.658l42.194-27.38-35.582-19.337c17.68-16.924 28.663-37.382 34.168-57.465l44.18 5.77-6.73-30.694c5.086-.156 10.2-.625 15.313-1.497 11.882-2.026 23.697-6.396 34.564-13.783l19.47 30.923 18.35-31.884c6.124 2.22 12.208 3.47 18.105 3.9 4.278.31 8.44.235 12.462-.11l6.04 37.213 24.945-18.46c4.642 6.47 9.96 11.776 15.78 16.03 4.166 3.046 8.527 5.55 13.007 7.658l-12.826 33.79 31.798-3.625c.55 5.017 1.72 9.738 3.393 14.12 1.06 2.78 2.29 5.395 3.618 7.907l-31.76 14.286 26.83 21.338c-3.22 4.784-5.793 9.856-7.626 15.22-2.276 6.657-3.39 13.654-3.47 20.897l-22.573-8.56 3.944 34.603c-3.05 1.36-6.086 2.86-9.07 4.54-4.806 2.703-9.484 5.83-13.815 9.395l-21.163-25.92-14.28 32.845c-10.648-1.994-21.21-1.4-31.15 1.543l-7.748-21.234-20.266 15.127c-7.58-7.81-16.224-14.18-25.274-19.24l20.153-27.97-37.08-2.81c1.386-7.51 1.8-14.976.908-22.296l27.364-4.445-16.877-19.648c2.735-2.06 5.208-4.3 7.408-6.837 4.817-5.554 7.608-12.365 9.086-20.145 6.7 1.57 13.59 1.738 20.2-.104 7.73-2.152 14.777-6.836 20.647-13.44 12.89 10.738 27.118 19.195 42.127 23.35-1.74 6.15-2.863 12.55-2.463 19.286.326 5.467 1.777 11.024 4.374 16.437-10.616 1.583-21.12 4.792-30.984 10.478-8.818-14.487-21.95-25.25-43.19-29.018 12.74 21.87 26.735 43.31 28.424 69.004l13.844-16.37c14.343-13.007 30.4-16.52 49.133-16.696l22.385-.213-15.892-15.766c-6.916-6.86-9.06-12.622-9.436-18.968-.377-6.345 1.496-13.65 4.674-21.707l4.425-11.214-11.963-1.488c-16.325-2.03-34.528-12.643-50.514-27.652l-8.59-8.065-5.896 10.202c-4.697 8.125-10.353 12.23-16.117 13.836-5.764 1.605-12.037.81-18.545-2.93l-13.87-7.97-.13 15.997c-.09 11.138-1.874 16.334-5.842 20.908-3.968 4.575-11.59 9.097-24.363 14.715l-9.98 4.39 5.863 9.188c11.05 17.326 7.687 36.29-3.59 60.26l-4.99 10.603 11.45 2.502c23.45 5.125 50.265 20.1 63.223 45.34l5.398 10.51 8.984-7.673c18.65-15.926 40.245-18.322 64.52-1.343l9.365 6.55 4.56-10.48c4.162-9.57 13.527-18.272 24.663-24.538 11.135-6.267 23.917-10.005 32.86-10.703l11.837-.925-3.678-11.287c-4.923-15.106-5.105-27.778-1.335-38.807 3.77-11.027 11.645-20.89 24.78-29.745l8.2-5.527-5.982-7.873c-7.57-9.963-14.707-18.948-18.285-28.317-3.578-9.368-4.39-19.1 1.607-33.7l4.303-10.477-11.1-2.234c-14.066-2.83-26.617-6.643-36.613-13.95-9.995-7.305-18.06-18.072-23.1-37.364l-2.505-9.596-9.43 3.072c-10.72 3.493-22.306 6.504-33.863 5.662-11.557-.84-23.303-5.095-35.986-17.963l-7.714-7.826-6.485 8.874c-12.83 17.56-27.953 25.104-44.8 27.977-16.846 2.874-35.435.53-52.908-3.23l-12.31-2.652 1.03 12.55c2.668 32.523-13.95 81.392-65.45 103.993l-14.863 6.525 13.104 9.576c22.49 16.438 29.74 37.69 30.39 60.458.646 22.767-6.106 46.534-12.523 64.14l-4.712 12.93 13.756-.39c20.778-.587 48.07 4.407 71.813 15.847 23.744 11.44 43.72 28.96 52.545 53.22l4.425 12.16h1.938l8.922-8.647c32.266-31.274 84.04-27.856 119.17-14.06l10.605 4.165 2.008-11.215c6.465-36.093 49.167-67.625 87.977-61.863l18.13 2.693-8.47-16.254c-18.214-34.945-17.52-78.27 32.552-117.664l8.943-7.037v-1.748l-9.55-6.344c-16.542-10.985-25.41-23.998-30.487-39.924-5.078-15.927-5.987-34.958-4.983-56.395l.356-7.593-7.365-1.892c-22.168-5.702-36.212-17.687-47.543-34.188-11.33-16.5-19.403-37.625-27.68-59.812l-3.552-9.524-9.19 4.34c-39.024 18.422-87.22.938-117.966-26.682l-6.237-5.602h-.242zm200.157 364.246l.03.092c-.11.003-.223.013-.335.017l.305-.108z"/></svg>