<svg xmlns="http://www.w3.org/2000/svg" viewBox="0 0 512 512"><path d="M0 0h512v512H0z"/><path d="M18.22 19.22V144.5l24.186 19c1.022-5.31 2.845-10.79 5.313-16.47 7.362-16.94 20.597-35.66 38.218-53.28 17.62-17.618 36.308-30.855 53.25-38.22 5.45-2.368 10.722-4.144 15.843-5.186L129.595 19.22H18.22zM164.062 68c-4.292.152-10.423 1.652-17.407 4.688-13.968 6.07-31.286 18.07-47.5 34.28-16.213 16.212-28.21 33.533-34.28 47.5-3.036 6.985-4.537 13.116-4.69 17.407-.123 3.537.467 5.46 1.283 6.625l16.5 12.938c.577.833 1.217 1.624 1.968 2.375 4.802 4.802 11.537 5.95 17.5 5.375 5.962-.575 11.964-2.654 18.312-5.72 12.696-6.13 26.736-16.486 40.22-29.968 13.48-13.482 23.836-27.554 29.968-40.25 3.065-6.348 5.144-12.32 5.718-18.28.574-5.963-.54-12.7-5.344-17.5-.9-.902-1.854-1.66-2.875-2.314-.01-.007-.02-.023-.03-.03l-13.063-16.032-.063-.03c-1.194-.688-3.05-1.176-6.218-1.064zM173 100.563c-.002-.01.014.045.094.124.132.133.117.11-.063.063.067.265.176.914.032 2.406-.253 2.636-1.514 6.952-3.937 11.97-4.847 10.034-14.138 22.918-26.375 35.155-12.237 12.238-25.09 21.53-35.125 26.376-5.018 2.423-9.364 3.653-12 3.906-1.492.144-2.14.035-2.406-.03.05.202.074.2-.064.062s-.14-.113.063-.063c-.067-.264-.176-.913-.032-2.405.253-2.636 1.514-6.95 3.937-11.97 4.847-10.034 14.138-22.887 26.375-35.124 12.237-12.236 25.09-21.527 35.125-26.374 5.018-2.423 9.333-3.683 11.97-3.937 1.542-.15 2.183-.034 2.436.03-.02-.086-.03-.18-.03-.188zm17.594 102.53l91.625 137.5-54.908 4.782 84.657 75.563-41.283 16.125c80.9 53.383 172.416 74.49 205.157 41.75 32.74-32.74 16.355-131.523-35.72-185.47l-4.155 41.813-59.283-89.187-7.625 57.06-178.468-99.936zM432.5 395.47c21.818 0 39.28 17.46 39.28 39.28 0 21.818-17.462 39.313-39.28 39.313s-39.313-17.495-39.313-39.313 17.495-39.28 39.313-39.28z" fill="#fff"/></svg>