<svg xmlns="http://www.w3.org/2000/svg" viewBox="0 0 512 512"><path d="M0 0h512v512H0z"/><path fill="#fff" d="M18.3 20.6v14.84l259.805 276.34 20.534-11.358 9.358-16.932L41.338 20.6H18.3zm140.897 0l25.184 53.306-16.222 4.035-50.96-37.02 43.41 61.998 33.994-7.373 26.242 55.55 75.215-43.392c17.626 26.665 32.074 48.09 46.25 72.734l-21.917 13.928-69.57-26.07 71.59 56.97 31.19-24.34.018.036.776-1.4 83.538 240.17-136.834-47.6c-31.246-6.053-63.583-14.802-95.034-26.087-20.907-13.782-43.16-31.773-60.558-50.482l43.68-18.046-81.21-128.502-24.09 49.242L18.3 125.762v32.31l68.544 96.662 23.215-47.45 51.465 81.44-46.97 19.403 8.05 9.754c13.524 16.392 30.463 32.145 48.057 45.882 23.514 21.028 51.536 39.98 81.637 56.494l-137.89-1.983 15.627-39.546-66.502-33.043 7.188-30.11 46.556-41.847-49.772 19.232L18.3 234.405v29.047l35.554 42.305-11.948 50.047 64.442 32.02-13.26 33.554-12.307 20.075-44.542-20.87 43.135 56.73 30.27-40.42 130.36 1.875-48.694 17.828 144.72 1.754c56.42 21.024 112.503 33.376 154.68 35.01-1.176-30.356-7.904-67.922-19.415-107.628L482.68 232.21l-22.52 31.29-6.662-161.568 32.055-18.13-16.506-55.83-7.258 43.583-32.5 18.26.204.222-35.36 19.574-49.366-89.01h-21.372l63.452 114.406 48.21-26.69 3.22 78.118-16.91-.44-4.202-49.015-18.203 59.516 40.406 16.4 3.907 94.766c-22.17-51.526-51.346-101.223-85.957-138.59-13.997-24.134-28.253-45.337-45.123-70.845l2.205-47.21-73.646-11.03 53.312 28.03-4.865 22.065-60.127 34.688-49.21-104.17h-20.67zm191.3 224.638l-38.104 68.934-68.928 38.12 164.127 57.095-57.094-164.15zm113.66 115.213l.474 3.695c-.12-.367-.243-.735-.364-1.102l-.108-2.592z"/></svg>