<svg xmlns="http://www.w3.org/2000/svg" viewBox="0 0 512 512"><path d="M0 0h512v512H0z"/><path fill="#fff" d="M256.86 22.738c-.168 0-.332.004-.5.004l36.603 40.008L397.8 88.81l31.993-30.39c-10.582-6.044-22.337-11.27-35.037-15.715-38.43-13.45-85.93-19.967-137.897-19.967zm-25.327.553c-42.055 1.806-80.48 8.185-112.57 19.415-38.432 13.45-68.278 34-82.785 62.984-24.006 47.964-17.298 98.408-3.485 146.564l1.48 5.158 5.202 1.322c35.404 8.992 66.813 21.53 94.54 37.422 43.044 33.594 63.448 74.694 64.753 127.64.736 29.882 9.87 62.767 28.033 75.34-1.055-20.21.615-62.95 5.257-81.204L255.9 499.72l24.53-83.54c5 18.73 6.347 62.1 5.256 82.957 18.163-12.574 27.294-45.46 28.03-75.34 1.268-51.415 20.546-91.658 61.073-124.705 28.938-17.29 61.997-30.82 99.554-40.358l5.2-1.322 1.48-5.158c13.815-48.156 20.523-98.6-3.483-146.565-7.124-14.236-17.956-26.432-31.68-36.756l-33.993 32.293-39.72 84.29 15.597-79.947-96.135-23.9c-32.655 11.715-57.064 31.166-74.465 60.95l58.945 75.398-112.227 32.45c8.63 17.53 15.27 36.333 19.606 56.655-36.992-29.17-81.654-50.976-134.126-64.984-11.117-40.422-15.836-79.47-1.528-116.61 14.49 10.082 28.217 20.566 41.014 31.585 23.982-40.058 55.946-64.735 101.916-81.054-38.98 30.127-63.733 59.597-76.937 104.555 15.815 16.353 29.624 33.907 40.95 53.03l89.576-25.9-49.588-63.427 2.87-5.367c17.477-32.673 43.19-55.697 75.663-70.028l-41.747-45.63zM465.9 125.53c14.31 37.14 9.593 76.19-1.525 116.61-52.473 14.01-97.135 35.813-134.125 64.983 16.76-78.557 67.898-134.46 135.65-181.592zM316.426 274.93l-59.06 121.508-59.057-121.504 59.055 65.435 59.06-65.44zm.433 55.94l.005.003c0 .003-.004.003-.006.005v-.006z"/></svg>