<svg xmlns="http://www.w3.org/2000/svg" viewBox="0 0 512 512"><path d="M0 0h512v512H0z"/><path d="M275.28 21.063c-24.122.484-47.878 3.458-70.842 12.03-37.63 19.32-62.66 47.922-77.25 80.657-17.92 40.2-19.778 86.857-7.907 129.375 11.872 42.518 37.413 80.685 73.564 104.344 36.15 23.658 82.9 33.273 139.437 18.124 49.788-13.34 84.084-39.724 105.22-72.5-40.578 39.626-87.157 50.514-129.72 42.53.355 4.273-1.045 8.797-5.03 12.782-14.993 14.994-37.682-6.296-25.47-21.937-7.792-3.25-15.333-7.136-22.56-11.564.353 6.09-1.747 12.496-7.407 18.156-22.827 22.825-57.854-11.836-34.844-34.843 3.755-3.758 7.824-5.972 11.905-6.94-5.89-5.733-11.39-11.848-16.406-18.342-1.197 3.838-3.45 7.635-6.97 11.156-24.527 24.53-62.16-12.715-37.438-37.438 5.795-5.794 12.287-8.178 18.5-8.094 1.947.027 3.855.303 5.72.782-3.78-8.418-6.798-17.15-9-26.094-.315.346-.63.69-.97 1.03-22.037 22.04-55.838-11.442-33.625-33.655 4.86-4.86 10.264-7.043 15.5-7.25 5.404-.213 10.646 1.668 14.938 4.875.096-10.918 1.498-21.948 4.375-32.97-21.187 10.068-46.195-18.74-26.375-38.56 4.835-4.836 10.195-7.014 15.406-7.22 9.807-.388 19.05 6.17 23.095 14.97 3.705-6.967 8.047-13.87 13.125-20.657-11.227-8.926-16.18-25.978-2.78-39.376 5.405-5.406 11.422-7.832 17.25-8.062 14.305-.566 27.54 12.086 28.186 26.28.002.01-.002.023 0 .032.672 3.81.56 7.835-.53 11.813-6.884 12.19-10.845 26.23-10.845 41.188 0 46.38 37.808 84.187 84.19 84.187 46.38 0 84.186-37.807 84.186-84.188 0-24.64-10.668-46.84-27.625-62.25-.04-.042-.083-.082-.124-.124-26.91-28.15-59.756-40.408-100.875-42.25zm-119.405 22.75c-22.716 11.384-44.986 27.36-66.22 48.593-25.695 25.696-43.75 52.932-55.28 80.625.032.002.062 0 .094 0 25.795.353 47.928 33.98 24.06 57.845-12.584 12.586-27.892 12.384-39.593 5.594-1.814 22.698.213 45.16 5.438 66.81 1.98-3.397 4.517-6.735 7.72-9.936 9.432-9.433 20.01-13.294 30.124-13.156 33.04.45 61.38 43.525 30.81 74.093C79.11 368.203 62.59 369.9 48.688 364.5c12.18 21.532 27.608 41.346 45.438 58.688-.082-11.887 4.515-24.266 15.594-35.344 11.174-11.175 23.672-15.757 35.655-15.594 39.145.534 72.78 51.565 36.563 87.78-5.612 5.613-11.576 9.534-17.657 12.033 24.31 11.47 50.393 18.92 77.22 21.343-14.23-17.857-17.477-44.147 3.875-65.5 10.965-10.965 23.21-15.44 34.97-15.28 33.07.45 62.117 37.616 46.874 70.624 18.357-6.228 36.57-15.218 54.31-27.28-22.052-10.2-35.482-40.3-12.655-63.126 7.933-7.934 16.763-11.506 25.313-11.844 17.53-.693 33.94 12.152 39.437 28.53 8.946-10.213 16.767-20.635 23.5-31.217-17.517-3.728-30.638-26.613-13.78-43.47 5.604-5.605 11.894-7.894 17.905-7.812 6.565.09 12.795 3.036 17.53 7.564 15.517-42.757 15.835-86.495 5.033-127.188-.453 2.866-1.018 5.728-1.657 8.594-.002.02.002.042 0 .063-6.593 73.12-52.39 142.77-145.03 167.593-61.007 16.346-114.068 5.92-154.532-20.562-40.464-26.482-68.357-68.535-81.313-114.938-12.955-46.403-11.056-97.354 8.845-142 10.286-23.076 25.48-44.397 45.75-62.344zM319.72 60.218c36.278 0 65.5 29.188 65.5 65.468s-29.222 65.5-65.5 65.5c-36.28 0-65.5-29.22-65.5-65.5s29.22-65.47 65.5-65.47z" fill="#fff"/></svg>