<svg xmlns="http://www.w3.org/2000/svg" viewBox="0 0 512 512"><path d="M0 0h512v512H0z"/><path d="M369.125 21.22c-19.202 0-36.247 10.628-47.938 26.468-11.69 15.84-18.562 37.035-18.562 60.28 0 21.092 5.688 40.5 15.47 55.75-5.742 1.63-11.027 3.86-15.908 6.626-10.21-8.504-22.543-13.688-35.937-13.688-19.202 0-36.247 10.63-47.938 26.47-4.687 6.35-8.587 13.57-11.593 21.436-4.79-2.327-9.94-4.228-15.47-5.593 9.352-15.08 14.75-34.073 14.75-54.657 0-23.246-6.872-44.442-18.563-60.282-11.69-15.838-28.735-26.5-47.937-26.5-19.202 0-36.247 10.662-47.938 26.5C79.873 99.87 73 121.068 73 144.313c0 21.092 5.688 40.5 15.47 55.75-32.07 9.102-50.29 37.17-59.44 70.063-9.79 35.2-10.874 77.304-10.874 115.594v9.342h45.5l6.782 99.375h18.75l-7.282-106.5-4.094-80-18.656.97 3.47 67.468H36.968c.238-35.193 1.972-72.026 10.093-101.22 8.777-31.554 23.32-52.712 51.25-58.186l4.687-.064c10.32 8.79 22.855 14.188 36.5 14.188 14.054 0 26.948-5.706 37.438-14.97l4.53-.06c7.826 1.267 14.422 3.538 20.126 6.75-1.223 6.623-1.844 13.526-1.844 20.624 0 21.1 5.68 40.5 15.47 55.75-32.07 9.1-50.29 37.17-59.44 70.062-9.79 35.2-10.874 77.273-10.874 115.563v9.343h45.5l.03.28 18.72.002-.5-7.375-4.094-80-18.687.968 3.47 67.44h-25.626c.24-35.19 1.942-72.03 10.06-101.22 8.765-31.507 23.31-52.642 51.157-58.156l4.844-.063c10.315 8.784 22.84 14.19 36.47 14.19 14.054 0 26.948-5.73 37.438-15l4.375-.064c15.467 2.48 26.172 8.898 34.562 18.594 8.474 9.794 14.47 23.278 18.47 39.28 7.352 29.44 7.73 66.845 7.75 102.44h-23.44l3.47-67.44-18.656-.967-4.22 82-.313 5.375h18.72l.03-.282H387.562v-9.344c0-38.132.566-80.645-8.343-116.312-4.456-17.833-11.316-34.115-22.44-46.97-9.66-11.166-22.666-19.465-38.78-23.436 9.36-15.078 14.75-34.062 14.75-54.656 0-22.552-6.47-43.2-17.53-58.875 3.9-1.722 8.13-3.04 12.717-3.938l4.688-.063c10.32 8.79 22.854 14.188 36.5 14.188 14.054 0 26.926-5.706 37.406-14.97l4.533-.06c15.394 2.495 26.072 8.925 34.437 18.593 8.474 9.793 14.47 23.246 18.47 39.25 7.353 29.44 7.73 66.872 7.75 102.468h-23.44l3.47-67.467-18.656-.97-4.094 79.75-8.594 143.094h18.72l8.155-135.718h43.158v-9.345c0-38.133.565-80.646-8.344-116.313-4.455-17.833-11.347-34.114-22.47-46.968-9.66-11.167-22.666-19.49-38.78-23.47 9.35-15.08 14.75-34.07 14.75-54.655 0-23.247-6.872-44.443-18.563-60.282-11.69-15.84-28.703-26.47-47.905-26.47zm0 18.686c12.36 0 23.882 6.69 32.875 18.875 8.993 12.186 14.906 29.67 14.906 49.19 0 19.516-5.913 37.032-14.906 49.218-8.993 12.185-20.516 18.875-32.875 18.875-12.36 0-23.913-6.69-32.906-18.875-8.994-12.185-14.908-29.7-14.908-49.22 0-19.518 5.914-37.002 14.907-49.187 8.992-12.184 20.546-18.874 32.905-18.874zM139.5 76.22c12.36 0 23.913 6.72 32.906 18.905 8.993 12.185 14.906 29.67 14.906 49.188 0 19.517-5.912 37.033-14.906 49.218-8.993 12.186-20.547 18.876-32.906 18.876-12.36 0-23.882-6.69-32.875-18.875-8.993-12.184-14.938-29.7-14.938-49.218 0-19.518 5.945-37.002 14.938-49.187C115.618 82.94 127.14 76.22 139.5 76.22zm197.813 22.343v18.687h22.437V98.562h-22.438zm41.125 0v18.687h22.468V98.562h-22.47zm-270.72 36.343v18.688h22.438v-18.688H107.72zm41.126 0v18.688h22.437v-18.688h-22.436zm117.406 40.438c12.36 0 23.882 6.69 32.875 18.875 8.993 12.184 14.938 29.7 14.938 49.218 0 19.517-5.945 37.002-14.938 49.187-8.993 12.185-20.516 18.906-32.875 18.906-12.36 0-23.913-6.72-32.906-18.905-8.993-12.185-14.906-29.67-14.906-49.188s5.913-37.033 14.906-49.218c8.993-12.186 20.547-18.876 32.906-18.876zM234.47 234v18.688h22.436V234H234.47zm41.124 0v18.688h22.437V234h-22.436zm-83.906 279.125l.03.28h8.72l134.03.095h8.782l.03-.375H191.69z" fill="#fff" fill-rule="evenodd"/></svg>