<svg xmlns="http://www.w3.org/2000/svg" viewBox="0 0 512 512"><path d="M0 0h512v512H0z"/><path d="M117.438 17.844l-6.626 6.593-82.624 82.657-5.688 6.97c3.867 4.493 8.093 8.654 12.28 12.842l.22-.22c16.628 14.57 35.413 24.03 53.656 27.626 15.337 3.024 30.693 1.763 43.344-4.75 29.25 28.932 58.204 58.293 87 87.907l22.22-22.22-87.595-87.563c6.256-12.54 7.415-27.678 4.438-42.78-4.1-20.787-15.827-42.265-34.032-60.47l-6.593-6.593zm125.03 9.468c-9.23.047-18.426.932-27.5 2.688 117.12 70.5 204.607 164.72 273.626 273.72 2.783-59.206-21.15-120.177-59.25-169.75-15.046 5.5-33.565.622-46.406-12.22-12.84-12.84-17.723-31.34-12.22-46.375-39.324-29.88-84.317-48.284-128.25-48.063zM128.407 60.188c5.696 9.542 9.522 19.263 11.313 28.343 3.247 16.477.143 30.107-8.595 38.845-8.738 8.738-22.368 11.842-38.844 8.594-9.08-1.79-18.8-5.61-28.343-11.314l64.47-64.47zm275.406 11.156c-.443.012-.878.023-1.312.062-4.168.378-7.882 1.976-10.563 4.656-7.146 7.148-6.605 21.644 4.22 32.47 10.824 10.824 25.353 11.396 32.5 4.25 7.146-7.148 6.574-21.645-4.25-32.47-6.343-6.342-13.946-9.157-20.594-8.968zm-68.218 75.937L22.313 460.657c4.17 11.583 10.724 20.44 24.53 24.906l313.5-313.593c-7.58-8.636-15.85-16.846-24.75-24.69zm-43.22 119.126L269.25 289.53c32.586 34.005 65.03 68.236 97.47 102.47-15.605 14.54-31.686 27.208-46.564 36.125 55.963 55.963 124.942 78.085 162.063 54.47 22.77-37.32 1.083-106.51-54.47-162.064-9.69 14.926-22.003 30.647-35.594 45.658l-99.78-99.782z" fill="#fff"/></svg>