<svg xmlns="http://www.w3.org/2000/svg" viewBox="0 0 512 512"><path d="M0 0h512v512H0z"/><path d="M470.72 20L368.186 49.813l41.563-28.094c-26.254 5.922-59.36 17.502-100.97 36.186l-67.874 70.78L264.97 79.25c-23.247 12.958-47.95 29.99-71.814 49.844l-15.78 64.312L174 145.844c-23.55 21.548-45.624 45.6-63.875 70.812-19.25 26.59-34.28 54.506-41.813 82.438L40.19 280.28c6.138 19.613 11.892 39.232 22.906 58.845.032 1.468.1 2.944.187 4.406L29.657 333.19c11.227 18.284 23.577 35.893 43 49.125.45 1.003.953 1.973 1.438 2.968-11.838 33.33-20.568 67.004-26.53 101.69l18.405 3.155c4.952-28.808 11.836-56.842 20.905-84.563.04.053.084.105.125.157 44.277-156.11 142.813-266.846 287.03-324l6.876 17.374c-129.048 51.143-219.303 145.15-265.78 279.062 18.106.102 35.796-2.088 52.218-6.22l4.875-60.967 13.093 55.5c10.84-3.922 20.88-8.762 29.812-14.376l-20.688-43.47 32.782 34.813c7.944-6.468 14.613-13.678 19.624-21.53 30.308-47.507 62.195-94.728 124.75-134.188l-45.72-16.25 70.157 2.124c2.044-1.085 4.087-2.18 6.19-3.25 9.087-4.63 17.916-10.182 26.31-16.375L378.814 150l74.718-17.625c5.788-5.81 11.174-11.836 16.033-17.97 17.384-21.94 29.034-44.784 26.28-65.56-1.376-10.39-7.556-20.154-17.624-25.626-2.333-1.27-4.832-2.337-7.5-3.22zM106.25 406c-.89 3.06-1.778 6.122-2.625 9.22l2.625-9.22z" fill="#fff" fill-rule="evenodd"/></svg>