<svg xmlns="http://www.w3.org/2000/svg" viewBox="0 0 512 512"><path d="M0 0h512v512H0z"/><path fill="#fff" d="M24.166 23.232c116.99 107.29-18.116 238.47 74.078 372.57 52.184 75.908 147.17 102.4 243.346 84.335 194.435-36.52 200.32-374.53-35.19-419.387 125.407 74.345 79.727 167.43 23.26 148.422-76.64-25.798 20.428-110.758-86.38-169.635 46.188 92.978-76.363 78.585-77.63 1.684-46.87 58.817 70.296 132.955 78.15 200.3 12.26 105.106-118.33 77.03-90.874-41.3 15.427-66.49-34.056-127.147-128.76-176.988zM306.4 60.75l-.015-.01-.002.006c.006 0 .01.003.017.004zm121.5 107.36c63.56 104.515 30.592 218.67-28.675 262.94-78.796 58.85-223.393 37.198-282.73-53.755 165.648 102.247 286.603 19.317 205.067-93.95 8.496 46.942-17.793 82.583-65.267 97.444 36.227-29.967 46.49-96.22 2.195-200.245 91.593 139.73 203.597 100.275 169.41-12.436zM108.508 192.2C99.93 291.45 166.6 362.974 249.166 355.396 151.45 423.405 42.668 308.272 108.508 192.2zm291.82 96.036c-19.58 0-35.453 15.873-35.453 35.453 0 19.58 15.873 35.453 35.453 35.453 19.58 0 35.45-15.873 35.45-35.454 0-19.58-15.87-35.454-35.45-35.454zm-286.38 85.034c.192.112.385.215.577.328-.153-.05-.307-.096-.46-.145-.04-.062-.08-.12-.118-.183zm265.202 4.474c-10.747 0-19.46 8.71-19.46 19.46 0 10.747 8.713 19.46 19.46 19.46 10.747 0 19.46-8.713 19.46-19.46 0-10.75-8.712-19.46-19.46-19.46z"/></svg>