<svg xmlns="http://www.w3.org/2000/svg" viewBox="0 0 512 512"><path d="M0 0h512v512H0z"/><path d="M68.094 17.906c-.167 11.805-.686 21.837-1.625 30.907 2.535-1.122 5.19-1.935 7.936-2.407 1.378-.236 2.76-.374 4.156-.406 9.774-.22 19.76 4.52 26.376 13.47 4.792 6.48 8.067 14.87 9.624 25.186 7.324-7.493 16.408-12.4 26.032-14 1.59-.264 3.2-.43 4.812-.5 11.283-.486 22.86 3.803 31.188 13.156 4.374 4.915 7.817 11.037 10.187 18.313 7.492-8.843 17.553-14.636 28.282-16.313 1.565-.244 3.164-.4 4.75-.468 11.108-.47 22.53 3.426 31.188 12.125 1.99 2 3.815 4.237 5.47 6.686 2.47-5.145 5.545-9.59 9.186-13.25 8.658-8.7 20.112-12.625 31.22-12.156 1.586.067 3.154.224 4.718.47 10.564 1.65 20.484 7.29 27.937 15.905 2.322-6.265 5.474-11.617 9.376-16 8.327-9.354 19.905-13.674 31.188-13.188 1.612.07 3.223.268 4.812.532 9.454 1.57 18.4 6.322 25.656 13.593 1.73-10.233 5.26-18.544 10.344-24.938 6.655-8.368 16.14-12.877 25.625-13.22.634-.022 1.276-.013 1.908 0 1.443.034 2.89.18 4.312.407 1.146.184 2.286.427 3.406.72-.7-7.625-1.14-15.727-1.312-24.626H68.094zM436.906 60.03c-.316.004-.627.01-.937.032-3.727.287-7.168 2.106-10.44 6.22-4.36 5.484-8.117 15.924-7.436 32.843 1.3 32.283 8.82 51.064 21.094 67.156 11.796-14.268 16.28-31.97 20.875-63.53h-.032c3.952-27.157-9.74-40.827-20.217-42.5-.983-.157-1.958-.228-2.907-.22zM80.03 64.595c-.8-.003-1.635.076-2.468.22-8.878 1.523-21.985 15.113-18 42.5 2.75 18.896 4.472 33.375 7.563 44.467 2.1 7.537 4.74 13.436 8.75 18.845 12.178-16.047 19.675-34.765 20.97-66.906.683-17.018-2.902-27.666-6.94-33.126-3.027-4.095-5.94-5.735-9.093-5.97-.262-.02-.514-.03-.78-.03zm287.876 19.47c-.43 0-.858.006-1.28.03-5.082.29-9.718 2.438-13.75 6.97-5.38 6.04-9.807 17.21-9.126 35.592 1.288 34.78 13.587 58.906 27.563 77.813 13.626-16.595 22.755-38.282 27.28-72.064 3.952-29.502-12.472-45.66-26.75-48.03-1.338-.223-2.65-.317-3.937-.314zM147.594 88.75c-1.288.005-2.6.12-3.938.344-14.277 2.372-30.7 18.497-26.75 48 4.526 33.784 13.654 55.5 27.28 72.094 13.977-18.908 26.276-43.064 27.564-77.844.68-18.383-3.747-29.553-9.125-35.594-4.033-4.53-8.67-6.68-13.75-6.97-.423-.023-.852-.032-1.28-.03zm147.094 8.125c-.443 0-.875.006-1.313.03-5.257.306-10.222 2.422-14.47 6.69-5.66 5.688-10.39 15.864-10.436 32.81-.087 32.22 11.103 54.473 24.25 72 14.505-15.557 24.516-35.81 30.405-67.53 5.036-27.12-9.986-41.434-24.406-43.688-1.353-.21-2.706-.313-4.033-.312zm-74.032 6.594c-.89.04-1.786.14-2.687.28-14.42 2.253-29.475 16.566-24.44 43.688 5.89 31.71 15.908 52.006 30.407 67.562 13.156-17.533 24.336-39.76 24.25-72-.045-16.947-4.775-27.155-10.437-32.844-4.246-4.267-9.18-6.352-14.438-6.656-.876-.05-1.764-.07-2.656-.03zm192.094 55.155c-6.976 29.334-18.83 50.566-35.375 67.03l-.125.126c1.01 13.095 2.378 26.17 4.188 39.22l6.312 6.375c9.664 9.708 17.555 20.81 24.063 33.813 4.036-29.98 13.75-51.635 27.187-69.72-2.12-15.354-3.754-30.718-4.813-46.093l-2.437-2.75c-7.396-8.283-13.847-17.378-19-28zm-310.188 3.78c-5.214 10.953-11.797 20.296-19.374 28.782l-6.313 7.063-.75-.688c-.845 10.397-1.92 20.8-3.25 31.188 14.2 18.672 24.38 41.12 28.375 72.688 6.127-11.402 13.41-21.31 22.125-30.063l6.125-6.125c1.833-13.178 3.202-26.37 4.22-39.594-14.4-15.952-24.843-36.158-31.157-63.25zM58.97 241.282c-14.953 17.382-21.94 38.804-27.25 76.22l-.095.656c-4.582 32.572 11.943 49.68 25.28 51.813 6.67 1.066 12.776-.797 18.22-7.658 5.444-6.86 9.91-19.563 9.125-39.718-1.52-39.13-10.587-61.85-25.28-81.313zm394.905 5.376c-14.694 19.462-23.76 42.186-25.28 81.313-.785 20.154 3.68 32.857 9.124 39.717 5.443 6.86 11.548 8.724 18.217 7.657 13.34-2.134 29.864-19.24 25.282-51.813-5.328-37.86-12.29-59.382-27.345-76.874zM129.47 292.5c-15.783 19.343-25.593 45.156-32.376 84.97-4.224 24.79 14.138 43.388 32 47.374 8.93 1.993 16.827.462 22.78-5.125 5.955-5.588 10.9-16.38 10.126-35.845-1.63-41.025-16.197-69.36-32.53-91.375zm252.186 0c-16.338 22.015-30.89 50.35-32.5 91.375-.775 19.72 4.165 30.595 10.094 36.156 5.93 5.562 13.78 7.01 22.72 4.94 17.875-4.143 36.265-23.048 32.06-47.47-6.85-39.814-16.61-65.66-32.374-85zM293 332.625c-15.42 19.878-28.774 45.228-28.656 82.156.05 16 5.024 24.632 11.375 29.595 6.35 4.963 15.132 6.568 24.217 4.906 9.086-1.66 17.998-6.69 23.563-13.53 5.565-6.84 8.185-15 5.563-25.594-8.987-36.304-19.436-59.906-36.063-77.53zm-77.406 2.406c-16.88 17.65-27.9 41.02-36 77.345-2.76 12.37.066 20.9 5.47 27.406 5.4 6.507 14.024 10.81 23.06 11.876 9.038 1.067 18.13-1.085 24.72-6.375 6.588-5.288 11.388-13.684 11.437-28.06.128-36.95-13.253-62.305-28.686-82.19zm-179.47 46c13.316 33.37 22.888 73.817 24.313 110.876h375.125c1.47-32.617 10.447-66.34 25.657-98.562-.773.17-1.532.343-2.314.47-8.706 1.392-17.864-.46-25.72-5.408-1.798 28.015-23.56 49.35-46.998 54.78-13.618 3.157-28.727.78-39.72-9.53-.16-.15-.31-.315-.468-.47-1.86 5.3-4.592 10.158-8 14.345-8.75 10.753-21.397 17.69-34.72 20.126-13.32 2.437-27.77.286-39.092-8.562-3.68-2.875-6.897-6.45-9.594-10.625-2.797 4.453-6.197 8.27-10.063 11.374-11.083 8.9-25.254 11.953-38.624 10.375-13.37-1.58-26.305-7.767-35.22-18.5-3.82-4.602-6.757-10.087-8.592-16.19-10.68 8.433-24.502 10.374-37.094 7.564-24.66-5.503-47.492-28.657-47.188-58.97-7.427 4.13-15.835 5.6-23.874 4.313-6.352-1.016-12.39-3.557-17.813-7.406z" fill="#fff"/></svg>