<svg xmlns="http://www.w3.org/2000/svg" viewBox="0 0 512 512"><path d="M0 0h512v512H0z"/><path d="M146 18.094l-.313 2.125c64.282 9.015 122.25 41.02 164.344 87.686-9.73-1.683-19.447-2.82-29.124-3.437 45.892 39.742 64.438 103.857 45.97 162.374 26.065-18.722 45.427-46.68 52.905-79.875-29.19-77.723-91.352-139.304-168.31-168.876H146zm267.78 0c28.61 77.52 19.385 160.333-18.905 227.5-1.373-9.452-3.22-18.753-5.5-27.875-20.32 47.344-63.415 81.5-113.844 90.655-5.864 1.514-12.016 2.313-18.342 2.313-.555 0-1.105-.02-1.657-.032-2.6.123-5.215.168-7.843.156 25.274 19.373 57.267 29.974 91.032 28 94.646-74.5 135.222-202.835 94.842-320.718h-19.78zm-165.06 86.22c-97.237 5.22-186.08 62.143-230.845 150.03v49.687c21.42-69.797 70.205-124.258 131.344-154.624-4.47 8.54-8.434 17.232-11.94 26.03 25.29-16.378 54.372-24.586 83.47-24.592 30.712-.007 61.428 9.12 87.688 27.375-9.977-30.14-30.508-56.787-59.72-73.907zM216.47 169.5c-32.51 1.025-64.696 13.76-89.782 38.188-27.114 103.46 7.454 216.188 92.468 286.312h31.03c-66.612-45.443-105.777-116.463-112.81-191.22 6.657 7.13 13.634 13.815 20.874 20.095-12.595-57.668 9.992-117.64 58.22-153.375zm40.718 12.844c-30.39 0-54.813 24.448-54.813 54.844 0 30.39 24.423 54.812 54.813 54.812 30.39 0 54.843-24.417 54.843-54.813 0-30.395-24.453-54.843-54.842-54.843zm-75.688 63c-11.335 30.52-11.2 65.08 2.656 97.437 91.515 61.988 214.54 64.646 309.625.25v-23c-59.34 44.63-131.816 59.77-199.75 47.69 6.565-3.436 12.957-7.097 19.158-10.97-61.614-7.084-114.196-50.884-131.688-111.406zm63.063 267.344c.157.102.31.21.468.312l.19-.313h-.657z" fill="#fff"/></svg>