<svg xmlns="http://www.w3.org/2000/svg" viewBox="0 0 512 512"><path d="M0 0h512v512H0z"/><path d="M198.47 23.563c-2.155.02-4.356.29-6.532.875-13.93 3.732-22.2 18.072-18.47 32 3.733 13.927 18.072 22.17 32 18.437 13.928-3.732 22.17-18.04 18.438-31.97-.69-2.574-1.75-4.945-3.094-7.093.148.816.22 1.643.22 2.5 0 7.455-5.817 13.548-13.157 14-.863-6.92-6.75-12.28-13.906-12.28-.296 0-.586.044-.876.062-.075-.586-.125-1.176-.125-1.782 0-7.133 5.328-13.014 12.218-13.906-2.168-.556-4.426-.866-6.72-.843zm99.78 48.124c-.444 0-.9.01-1.344.032-6.268.298-12.463 2.868-17.25 7.655-10.212 10.212-10.212 26.757 0 36.97 10.213 10.21 26.788 10.21 37 0 7.315-7.316 9.383-17.874 6.22-27.032-.622 6.858-6.184 12.288-13.095 12.718-.874-6.907-6.76-12.28-13.905-12.28-.295 0-.585.045-.875.063-.074-.586-.125-1.176-.125-1.782 0-7.738 6.265-14.013 14-14.03-3.37-1.52-6.996-2.3-10.625-2.313zm110.875 8.22c-6.682 0-13.37 2.526-18.47 7.624-10.194 10.197-10.195 26.743 0 36.94 10.197 10.194 26.743 10.194 36.94 0 8.31-8.313 9.833-20.848 4.592-30.72.033.392.063.787.063 1.188 0 7.465-5.833 13.562-13.188 14-.864-6.92-6.752-12.282-13.906-12.282-.29 0-.557.014-.844.03-.07-.574-.125-1.153-.125-1.75 0-7.208 5.44-13.144 12.438-13.936-2.444-.726-4.97-1.094-7.5-1.094zM220.062 90.75c-3.322.033-6.673.475-10.03 1.375-21.49 5.758-34.258 27.855-28.5 49.344 5.757 21.487 27.854 34.257 49.343 28.5 21.488-5.76 34.226-27.857 28.47-49.345-1.51-5.636-4.144-10.678-7.595-14.938.207 1.146.313 2.326.313 3.532 0 8.613-5.548 15.92-13.25 18.593.134-.93.187-1.878.187-2.844 0-10.877-8.812-19.69-19.688-19.69-2.272 0-4.437.387-6.468 1.095 1.016-6.995 5.742-12.78 12.094-15.375-1.608-.18-3.236-.266-4.875-.25zm-87.03 25.22c-2.158.02-4.352.32-6.532.905-13.95 3.738-22.238 18.082-18.5 32.03 3.738 13.95 18.082 22.24 32.03 18.5 13.952-3.737 22.24-18.08 18.5-32.03-.588-2.197-1.458-4.233-2.53-6.125.03.372.063.746.063 1.125 0 7.465-5.833 13.562-13.188 14-.865-6.92-6.752-12.28-13.906-12.28-.286 0-.565.045-.845.06-.074-.584-.125-1.174-.125-1.78 0-6.747 4.78-12.374 11.125-13.72-1.978-.456-4.018-.707-6.094-.686zm216.343 9.28c-10.31 0-20.603 3.947-28.47 11.813-15.73 15.73-15.73 41.237 0 56.968 15.732 15.732 41.24 15.732 56.97 0 13.43-13.427 15.374-33.985 5.875-49.5.16 1.01.25 2.042.25 3.095 0 8.614-5.548 15.922-13.25 18.594.134-.93.188-1.88.188-2.845 0-10.876-8.812-19.688-19.688-19.688-2.248 0-4.394.37-6.406 1.063 1.372-9.334 9.286-16.552 18.937-16.813-4.632-1.772-9.515-2.687-14.405-2.687zm-305.78 52.313c-11.122.442-21.125 8.027-24.157 19.343-3.733 13.93 4.54 28.268 18.468 32 13.928 3.732 28.237-4.54 31.97-18.47 1.638-6.116.954-12.32-1.5-17.655.008.21.03.416.03.626 0 7.455-5.816 13.547-13.156 14-.86-6.925-6.75-12.28-13.906-12.28-.295 0-.585.012-.875.03-.073-.575-.126-1.155-.126-1.75 0-7.686 6.182-13.93 13.843-14.03-.903-.355-1.822-.65-2.78-.907-2.612-.7-5.247-1.01-7.813-.907zm211.468 6.125c-33.887-.34-65.01 22.188-74.188 56.437-10.876 40.59 13.192 82.28 53.78 93.156 40.59 10.877 82.312-13.19 93.19-53.78 4.968-18.545 2.612-37.313-5.25-53.28.21 1.838.342 3.697.342 5.593 0 19.073-10.952 35.562-26.906 43.562 1.335-4.443 2.064-9.154 2.064-14.03 0-26.92-21.833-48.75-48.75-48.75-7.845 0-15.248 1.863-21.813 5.155 5.036-16.714 18.808-29.65 36-33.5-2.836-.352-5.66-.534-8.467-.563zm-128.532 1.53c-17.94-.178-34.422 11.744-39.28 29.876-5.758 21.49 6.98 43.586 28.47 49.344 21.487 5.757 43.584-7.01 49.343-28.5 3.633-13.56-.124-27.35-8.782-37.125.81 2.155 1.25 4.47 1.25 6.906 0 8.613-5.547 15.92-13.25 18.593.136-.93.19-1.878.19-2.844 0-10.877-8.813-19.69-19.69-19.69-2.25 0-4.39.4-6.405 1.095 1.248-8.543 7.946-15.35 16.47-16.656-2.786-.628-5.556-.974-8.314-1zm292.845 7.282c-11.646-.116-22.346 7.636-25.5 19.406-3.738 13.95 4.55 28.294 18.5 32.03 13.95 3.74 28.293-4.55 32.03-18.5 1.997-7.448.55-15-3.342-21 .038.423.062.85.062 1.283 0 7.464-5.833 13.56-13.188 14-.86-6.924-6.75-12.282-13.906-12.282-.293 0-.584.013-.874.03-.072-.575-.125-1.154-.125-1.75 0-5.93 3.697-11.01 8.908-13.062-.86-.095-1.713-.148-2.563-.156zm-35.438 61.844c-.497 0-1.005.01-1.5.03-17.158.684-32.603 12.385-37.28 29.845-5.76 21.488 6.98 43.585 28.468 49.342 21.488 5.758 43.586-7.01 49.344-28.5 3.378-12.61.367-25.404-7.033-35 .35 1.47.563 2.988.563 4.563 0 8.614-5.548 15.922-13.25 18.594.134-.93.188-1.88.188-2.845 0-10.876-8.812-19.688-19.688-19.688-2.262 0-4.414.423-6.438 1.125 1.184-8.208 7.426-14.798 15.47-16.468-2.964-.667-5.917-1.004-8.844-1zM89.22 280.97c-11.647-.117-22.347 7.634-25.5 19.405-3.74 13.95 4.55 28.293 18.5 32.03 13.948 3.74 28.292-4.55 32.03-18.5 1.76-6.562.87-13.22-2.03-18.81v.217c0 7.455-5.817 13.548-13.157 14-.865-6.92-6.753-12.28-13.907-12.28-.294 0-.585.013-.875.03-.07-.575-.124-1.154-.124-1.75 0-6.615 4.59-12.143 10.75-13.625-1.9-.444-3.81-.7-5.687-.718zm375.25 9.342c-11.147.42-21.214 8.008-24.25 19.344-3.733 13.93 4.54 28.237 18.467 31.97 13.928 3.73 28.237-4.54 31.97-18.47 2.246-8.384.13-16.886-4.938-23.156.115.727.186 1.46.186 2.22 0 7.454-5.816 13.546-13.156 14-.86-6.926-6.75-12.283-13.906-12.283-.295 0-.585.014-.875.032-.073-.577-.126-1.156-.126-1.75 0-5.03 2.65-9.43 6.625-11.908zm-303.876 23.72c-10.31 0-20.604 3.946-28.47 11.812-15.73 15.73-15.73 41.206 0 56.937 15.732 15.733 41.24 15.732 56.97 0 14.146-14.145 15.546-36.17 4.25-51.905.39 1.545.625 3.146.625 4.813 0 8.603-5.555 15.913-13.25 18.593.133-.928.186-1.876.186-2.842 0-10.876-8.81-19.688-19.687-19.688-2.264 0-4.415.392-6.44 1.094 1.332-9.168 8.97-16.292 18.376-16.813-4.074-1.333-8.32-2-12.562-2zm128.594 34.624c-3.323.033-6.674.476-10.032 1.375-21.49 5.76-34.257 27.857-28.5 49.345 5.758 21.488 27.855 34.227 49.344 28.47 21.49-5.76 34.226-27.825 28.47-49.314-.985-3.67-2.46-7.073-4.314-10.186.02.356.03.7.03 1.062.002 8.604-5.553 15.914-13.248 18.594.134-.93.187-1.878.187-2.844 0-10.876-8.812-19.687-19.688-19.687-2.255 0-4.42.395-6.437 1.092 1.187-8.165 7.385-14.703 15.375-16.406-3.596-1.006-7.36-1.538-11.188-1.5zm83.75 9.094c-1.578.127-3.17.39-4.75.813-13.95 3.738-22.238 18.08-18.5 32.03 3.737 13.95 18.08 22.24 32.03 18.5 13.95-3.737 22.24-18.08 18.5-32.03-1.194-4.46-3.465-8.34-6.468-11.438.38 1.275.594 2.633.594 4.03 0 7.467-5.833 13.564-13.188 14-.864-6.918-6.752-12.28-13.906-12.28-.284 0-.564.015-.844.03-.072-.574-.125-1.154-.125-1.75 0-5.037 2.67-9.43 6.658-11.905zm-271.875 30.188c-6.682 0-13.34 2.558-18.438 7.656-10.196 10.195-10.196 26.74 0 36.937s26.71 10.197 36.906 0c8.02-8.016 9.718-19.96 5.126-29.655-1.385 5.94-6.547 10.434-12.812 10.813-.865-6.92-6.72-12.282-13.875-12.282-.296 0-.586.014-.876.03-.072-.574-.125-1.153-.125-1.748 0-4.86 2.465-9.138 6.218-11.657-.71-.056-1.416-.093-2.126-.092zm108.624 13.906c-6.692 0-13.394 2.55-18.5 7.656-10.21 10.212-10.212 26.788 0 37 10.213 10.212 26.79 10.212 37 0 7.736-7.735 9.608-19.12 5.625-28.625-.24 7.25-5.96 13.102-13.156 13.53-.864-6.918-6.752-12.28-13.906-12.28-.284 0-.564.046-.844.063-.074-.586-.125-1.176-.125-1.782 0-7.36 5.67-13.38 12.876-13.97-2.892-1.05-5.93-1.592-8.97-1.592zm101.5 42.5c-2.153.02-4.355.292-6.53.875-13.93 3.73-22.17 18.04-18.438 31.967 3.73 13.928 18.04 22.2 31.967 18.47 13.93-3.733 22.17-18.042 18.438-31.97-.07-.266-.17-.52-.25-.78-1.377 5.96-6.528 10.472-12.813 10.843-.864-6.92-6.752-12.28-13.906-12.28-.284 0-.563.045-.844.06-.074-.584-.125-1.174-.125-1.78 0-6.935 5.046-12.678 11.657-13.813-2.896-1.056-5.983-1.625-9.156-1.593z" fill="#fff"/></svg>