<svg xmlns="http://www.w3.org/2000/svg" viewBox="0 0 512 512"><path d="M0 0h512v512H0z"/><path d="M255.88 18.98c-23.81 0-48.425 22.043-66.732 53.043-18.306 31-29.69 69.843-29.69 96.06 0 32.048 16.078 60.385 40.77 77.575 14.4-17.246 33.924-28.357 55.647-28.357 21.725 0 41.25 11.113 55.65 28.362 24.695-17.19 40.774-45.528 40.774-77.58 0-26.217-11.386-65.058-29.693-96.06-18.306-31-42.92-53.043-66.728-53.043zM493.5 33.12l-73.746 173.946-95.787 57.327c2.867 5.447 5.36 11.24 7.45 17.318l103.163-61.737 58.92-138.97V33.12zm-475.244.005v47.877l58.922 138.98 103.226 61.508c2.102-6.07 4.607-11.855 7.483-17.295l-95.89-57.136-73.74-173.935zM-.434 36.8l-.043.018.043.102v-.12zm512.623 0v.12l.042-.102-.043-.017zM255.874 235.99c-16.893 0-32.575 9.335-44.592 25.865-12.017 16.53-19.816 40.063-19.816 66.243 0 15.354 2.698 29.784 7.342 42.44 3.13-5.468 9.03-9.163 15.807-9.163 10.046 0 18.194 8.1 18.194 18.096 0 9.993-8.147 18.096-18.193 18.096-.303 0-.6-.03-.898-.045 11.663 14.54 26.38 22.683 42.155 22.683 15.775 0 30.493-8.144 42.158-22.682-.3.016-.594.046-.896.046-10.047 0-18.194-8.103-18.194-18.095 0-9.992 8.147-18.095 18.194-18.095 6.776 0 12.677 3.692 15.808 9.158 4.642-12.654 7.338-27.082 7.338-42.435 0-26.18-7.797-49.712-19.814-66.243-12.018-16.53-27.702-25.865-44.595-25.865zm-237.62 1.64v23.858L82.75 312.67l90.06 12.527c.12-6.362.64-12.594 1.526-18.656L90.37 294.86l-72.114-57.23zm475.245 0l-72.12 57.233-83.956 11.73c.884 6.063 1.403 12.295 1.52 18.657l90.066-12.582 64.49-51.182V237.63zm-263.613 81.09c10.046 0 18.193 8.1 18.193 18.096 0 9.993-8.147 18.096-18.193 18.096-10.047 0-18.194-8.103-18.194-18.096 0-9.992 8.147-18.095 18.194-18.095zm51.98 0c10.046 0 18.194 8.1 18.194 18.096 0 9.993-8.147 18.096-18.193 18.096-10.046 0-18.193-8.103-18.193-18.096 0-9.992 8.147-18.095 18.193-18.095zm55.34 32.253c-.98 6.284-2.357 12.376-4.102 18.234l87.948 19.166 72.447 58.285v-23.984l-64.164-51.623-92.13-20.077zm-162.648.084L82.42 371.05 18.256 422.67v23.986l72.44-58.28 87.972-19.09c-1.748-5.855-3.127-11.947-4.11-18.23zm149.94 39.728c-2.654 5.165-5.635 10.03-8.916 14.543-.33.455-.667.902-1.004 1.35l67.865 36.015 27.487 50.983h21.228l-34.953-64.836-71.707-38.055zm-137.184.13l-71.763 37.917-34.957 64.844h21.23L129.31 442.7l67.95-35.903c-.368-.487-.734-.974-1.094-1.47-3.253-4.474-6.212-9.296-8.85-14.413zm20.276 27.47c-5.428 8.665-8.572 18.89-8.572 29.85 0 14.978 5.863 28.585 15.42 38.702-.017-.858-.03-1.718-.03-2.582 0-20.844 8.072-39.128 20.16-49.152-9.903-3.482-19.02-9.28-26.978-16.818zm96.564.002c-7.956 7.536-17.073 13.332-26.974 16.814 12.087 10.025 20.158 28.31 20.158 49.155 0 .863-.013 1.72-.03 2.58 9.554-10.118 15.417-23.724 15.417-38.7 0-10.96-3.144-21.183-8.57-29.848z" fill="#fff"/></svg>