<svg xmlns="http://www.w3.org/2000/svg" viewBox="0 0 512 512"><path d="M0 0h512v512H0z"/><path d="M45.773-1.58l-.072.275h1.09c-.337-.09-.682-.188-1.017-.275zm-28.43 18.963V51.46c19.897 34.454 44.06 69.077 77.686 99.577 6.936 24.534 23.59 43.637 46.226 53.85v-.008c-5.885-8.19-9.39-18.102-9.584-30.097 12.07.163 21.906 3.716 30.1 9.588-10.022-22.422-28.7-38.966-52.883-46.01C68.625 102.25 42.263 59.577 19.87 17.382h-2.526zm26.952 0C98.647 32.315 173.468 71.74 240.527 124.45l16.278-11.555C205.6 71.815 149.63 38.578 99.975 17.383h-55.68zm110.06 0c28.402 8.136 52.815 19.562 75.33 32.826 13.042 21.96 34.095 36.143 58.635 40.155-7.798-6.388-13.742-15.053-17.033-26.584 11.7-2.98 22.12-2.09 31.555 1.458-15.497-19.08-37.847-30.23-63.06-30.758-10.274-6.072-21-11.82-32.317-17.097h-53.11zM288.32 90.365l.012.01.002-.008c-.005 0-.01 0-.014-.002zm37.334-68.023l-4.633 49.273c-.014 0-.028-.004-.043-.006l-18.137 31.413c.037.05.076.097.113.147l-31.146 22.107-.073-.062-9.515 6.754 39.616 22.876.047-.018.006.004 38.305-13.883c37.3 28.674 84.672 43.582 133.49 39.767-21.153-44.63-57.795-78.24-101.46-96.04l-7.022-39.503-39.55-22.832zM194.91 148.834l-17.226 46.404-.045-.017-25.65 25.65c.022.055.046.11.07.165l-46.69 17.332 32.296 32.297 40.596-3.49c28.606 37.346 70.505 64.008 118.644 72.96-8.882-48.582-35.574-90.534-73.144-119.03l3.44-39.975-32.292-32.296zm123.332 19.943l-18.217 6.602-4.304-2.487c17.836 17.583 34.275 36.046 48.592 55.097 1.07 24.403 12.092 46.127 30.635 61.29-3.563-9.432-4.385-19.913-1.463-31.55 11.625 3.273 20.2 9.256 26.596 17.045-4.058-25.375-18.94-46.994-42.234-59.9-12.03-15.88-25.347-31.29-39.604-46.098zm-300.898 78.41v49.76c14.048 24.524 33.504 44.45 56.984 60.963 12.88 23.576 34.676 38.807 60.264 42.99-7.803-6.385-13.75-15.052-17.043-26.584 11.7-2.98 22.12-2.095 31.555 1.457-14.967-18.427-36.325-29.457-60.476-30.666-35.613-23.867-60.18-54.168-71.286-97.92zM134.592 400.9s.003 0 .004.002l.002-.002h-.006zm306.69-151.87l-28.647 40.355-.035-.026-31.414 18.138.023.182-49.587 4.66 22.834 39.55 40.115 7.13c17.964 43.483 51.537 80.08 95.723 101.185 3.997-49.232-10.932-96.66-39.85-133.908l13.67-37.72-22.834-39.548zm-269.366 83.84l-4.63 49.284c-.017 0-.032-.004-.048-.006l-18.136 31.414c.035.048.073.093.11.14l-40.61 28.82 39.552 22.843 38.305-13.877c37.297 28.67 84.672 43.58 133.49 39.766-21.153-44.63-57.796-78.24-101.462-96.04l-7.023-39.507-39.55-22.836z" fill="#fff"/></svg>