<svg xmlns="http://www.w3.org/2000/svg" viewBox="0 0 512 512"><path d="M0 0h512v512H0z"/><path d="M106.875 16l-4.656 2.688-69.907 40.218-4.688 2.688v91.281l4.688 2.688 64.468 37.093-.06 37.78c-15.19 3.762-26.564 17.585-26.564 33.876 0 19.15 15.725 34.875 34.875 34.875 19.152 0 34.876-15.724 34.876-34.875 0-15.55-10.35-28.863-24.5-33.312l.063-37.47 42.093-24.218L237 216.406v58.625l4.688 2.69 34.093 19.624v.25h.47l22 12.656-51.906 29.875-48.188-27.72c.227-1.367.375-2.754.375-4.186 0-14.102-11.43-25.533-25.53-25.533-14.1 0-25.53 11.43-25.53 25.532 0 14.1 11.43 25.53 25.53 25.53 5.86 0 11.254-1.994 15.563-5.313L237 356.313v23l-59.53-.156c-1.688-6.323-5.76-12.032-11.876-15.562-12.212-7.05-27.825-2.837-34.875 9.375-7.052 12.21-2.87 27.823 9.343 34.874 12.21 7.05 27.824 2.867 34.875-9.344.124-.215.226-.44.343-.656L237 398v27.78l-43.344 24.94c-4.61-4.55-10.95-7.376-17.937-7.376-14.102 0-25.532 11.43-25.532 25.53 0 14.102 11.43 25.532 25.53 25.532 14.1 0 25.532-11.43 25.532-25.53 0-.316-.02-.626-.03-.938l44.968-25.875 65.406 37.625 4.656 2.687 4.656-2.688 69.906-40.218 4.688-2.69V345.5l-4.688-2.688-56.562-32.562 56.563-32.53 4.687-2.69v-79.435l51.563-29.657c4.26 3.185 9.552 5.093 15.28 5.093 14.1 0 25.532-11.43 25.532-25.53 0-14.1-11.43-25.53-25.53-25.53-14.102 0-25.533 11.43-25.533 25.53 0 1.553.14 3.055.407 4.53l-50.158 28.876-61.625-35.47-.093-55.186c14.1-4.478 24.406-17.767 24.406-33.28 0-19.152-15.725-34.876-34.875-34.876S280 35.818 280 54.97c0 16.322 11.423 30.145 26.656 33.874l.094 54.78-42.594 24.532-78.03-45.97V61.596l-4.69-2.688L146.814 39l-.53-.938-.532.313-34.22-19.688L106.876 16zm0 21.563l20.188 11.624L71.97 81.094l-4.657 2.687v5.376l-.157 64.906-20.844-12V72.406l60.563-34.844zm208 1.218c9.05 0 16.188 7.138 16.188 16.19 0 9.05-7.137 16.186-16.188 16.186-9.05 0-16.188-7.137-16.188-16.187 0-9.052 7.137-16.19 16.188-16.19zM145.812 59.97l21.625 12.436v59.25L232.188 171l13.344 7.844-.218.125 18.25 11.06 52.688-30.31 20.188 11.624-55.813 32.312-4.656 2.688v5.375l-.126 64.093-20.156-11.594v-57.095l-97.97-59.47-50.843 29.25-21.03-12.093.155-70.25 59.813-34.593zm-20.218 38.968c-11.512 0-20.656 9.113-20.656 20.624 0 11.512 9.144 20.657 20.656 20.657 11.512 0 20.625-9.146 20.625-20.657 0-11.514-9.114-20.626-20.626-20.626zm229.53 83.156l21.688 12.47v69.655L316.25 299.06l-21.75-12.53.156-69.407 60.47-35.03zm-250.093 66.03c9.052 0 16.19 7.138 16.19 16.19 0 9.05-7.138 16.186-16.19 16.186-9.05 0-16.186-7.137-16.186-16.188 0-9.05 7.137-16.187 16.187-16.187zm211.22 73.345l60.563 34.874v69.625L316.25 460.81l-60.563-34.843V356.31l60.563-34.843zm-.406 31.31c-21.558 0-38.813 17.287-38.813 38.845s17.256 38.844 38.814 38.844 38.844-17.287 38.844-38.845c0-21.56-17.286-38.844-38.844-38.844z" fill="#fff"/></svg>