<svg xmlns="http://www.w3.org/2000/svg" viewBox="0 0 512 512"><path d="M0 0h512v512H0z"/><path d="M255.47 18.156c-84.31 0-168.623 24.647-236.574 73.918v23.438c50.19-39.58 111.385-64.135 175.24-73.674-51.622 23.514-87.51 75.554-87.51 135.974 0 40.735 16.32 77.648 42.767 104.584-47.456-11.63-92.198-31.25-130.497-58.86v22.757c44.69 29.778 96.406 49.772 150.534 60.012 1.995-3.625 4.2-7.076 6.654-10.32 6.292-8.323 14.39-15.157 24.113-19.692-5.343-11.957-8.326-25.697-8.326-40.293 0-3.03.143-6.017.394-8.965-9.013-12.725-14.327-28.255-14.327-45.035 0-43.095 34.937-78.03 78.032-78.03 3.037 0 6.02.192 8.968.53-9.23 8.076-15.063 19.928-15.063 33.156 0 6.005 1.205 11.727 3.38 16.944.903-.048 1.81-.08 2.722-.08.833 0 1.66.028 2.484.068.068-.003.082-.007.15-.01 1.08-.038 2.476-.007 4.167.233 16.587 2.16 30.802 11.81 40.832 25.82 11.56-2.593 21.395-9.72 27.546-19.442C332.986 167.815 334 174.79 334 182c0 16.768-5.313 32.282-14.314 45.002.252 2.96.394 5.958.394 8.998 0 15.06-3.165 29.22-8.834 41.44 8.956 4.67 16.493 11.467 22.47 19.61 2.246 3.063 4.297 6.308 6.182 9.704 55.55-10.205 108.627-30.672 154.276-61.41V222.53c-38.516 28.083-83.647 48.018-131.56 59.796 26.408-26.93 42.7-63.814 42.7-104.514-.002-60.238-35.678-112.143-87.048-135.757 64.23 9.828 125.71 34.86 175.908 75.13v-23.59c-68.314-50.3-153.512-75.44-238.705-75.44zM.206 106.598c-.162.135-.326.267-.488.402l.487.586v-.988zm255.77 66.61c-11.795 0-22.754 6.205-31.28 17.437C216.172 201.875 210.56 218 210.56 236c0 18 5.612 34.123 14.137 45.354 8.526 11.23 19.485 17.433 31.28 17.433 11.795 0 22.75-6.203 31.277-17.433C295.78 270.124 301.39 254 301.39 236c0-18.002-5.61-34.127-14.136-45.357-8.526-11.23-19.482-17.434-31.277-17.434zm-18.248 40.394c5.636 0 10.206 10.467 10.206 23.378 0 12.912-4.57 23.38-10.207 23.38-5.64 0-10.21-10.468-10.21-23.38 0-12.91 4.57-23.378 10.21-23.378zm37.184 0c5.637 0 10.207 10.467 10.207 23.378 0 12.912-4.57 23.38-10.206 23.38-5.637 0-10.207-10.468-10.207-23.38 0-12.91 4.57-23.378 10.207-23.378zM.207 232.584l-.176.228.177.133v-.36zm209.42 59.812c-7.57 3.072-13.498 8.063-18.635 14.858-7.33 9.696-12.63 23.298-16.13 39.092-6.996 31.587-6.803 71.397-6.803 104.47V493.1h22.008v-99.274h18.69V493.1h93.666v-99.274h18.69V493.1h22.738v-42.284c0-32.736-1.074-72.096-8.71-103.533-3.82-15.718-9.29-29.36-16.494-39.176-4.895-6.67-10.388-11.61-17.052-14.773-11.274 14.492-27.46 24.14-45.62 24.14-18.447 0-34.87-9.945-46.163-24.822-.064-.083-.123-.172-.186-.256z" fill="#fff"/></svg>