<svg xmlns="http://www.w3.org/2000/svg" viewBox="0 0 512 512"><path d="M0 0h512v512H0z"/><path d="M228.813 23L68.75 72.28 39.5 182.095l47.53-21.22 10.44-4.655 2.5 11.155 8.75 39.125 6.405 28.53-21.75-19.53-15.72-14.125-28.218 32.344 140.657 136 9.656-40.69 7.53-31.874 10.407 31.063 54.72 163.592L432.343 465.5l45.75-202.938-84.563-148.718L228.814 23zm-57.688 49.875l-27.813 39.906-3.25 73.44-27.187-88.94 58.25-24.405zm17.844 93.406l113.124 155.25L407 355.407l-107.375-.844-110.656-128v-60.28zM79.312 330.25l140.125 153.125-5.563-65.875-134.563-87.25z" fill="#fff" fill-rule="evenodd"/></svg>