<svg xmlns="http://www.w3.org/2000/svg" viewBox="0 0 512 512"><path d="M0 0h512v512H0z"/><path d="M75.035 23.822l-.908 64.328-38.238 21.77.936 6.326c18.95 127.927 92.513 254.023 216.822 369.76l6.39 5.95 6.37-5.974c123.197-115.504 195.203-241.965 214.76-369.574l.973-6.346-38.777-22.138-.802-60.63-10.69 1.73C311.58 48.466 201.134 43.897 85.694 25.52l-10.66-1.698zm18.383 21.694c32.567 4.955 64.884 8.722 97.19 11.226v31.846l-48.713 28.35-49.08-28.565.603-42.857zm330.74 3.56l.52 39.295-49.084 28.57-49.156-28.612v-29.58c32.077-1.632 64.535-4.67 97.72-9.672zM209.74 58.213c32.432 1.973 64.976 2.47 97.87 1.418l-.003 28.7-48.91 28.465L209.74 88.3V58.212zM83.22 104.48l49.208 28.64v57.36L84 218.668c-12.99-32.832-22.217-65.857-27.596-98.922L83.22 104.48zm351.456.002l26.898 15.358c-5.524 33.02-14.743 66.03-27.62 98.857l-48.48-28.217v-57.36l49.202-28.638zm-117.7.028l49.155 28.61v57.36l-49.157 28.612-48.69-28.34.002-57.904 48.69-28.338zm-116.783.144l48.936 28.485v57.612l-48.69 28.34-49.16-28.612.003-57.36 48.91-28.466zm-57.183 103.48l49.158 28.612v57.358l-52.494 30.554c-18.874-28.685-34.773-57.67-47.658-86.842l50.994-29.683zm117.172 0l48.69 28.34v57.903l-48.69 28.34-49.16-28.613v-57.358l49.16-28.613zm116.535 0l49.654 28.9c-12.742 29.286-28.426 58.39-47.08 87.18l-51.265-29.84v-57.9l48.692-28.34zM310.182 315.79l40.707 23.58-.003 25.386c-11.848 15.724-24.595 31.332-38.256 46.805l-14.275-8.267-28.878-16.998V339.37l40.705-23.58zm-100.24.003l40.704 23.576.002 46.825-36.316 21.377v.028l-7.252 4.2c-13.478-15.086-26.096-30.295-37.844-45.607V339.37l40.705-23.577zm-59.395 24.16v.746c-.124-.178-.243-.357-.367-.534l.367-.213zM260.06 402.71l26.877 15.567v20.75h.323c-8.774 9.106-17.85 18.164-27.268 27.16-9.303-8.82-18.288-17.692-26.972-26.61V418.37l27.04-15.66z" fill="#fff"/></svg>