<svg xmlns="http://www.w3.org/2000/svg" viewBox="0 0 512 512"><path d="M0 0h512v512H0z"/><path d="M289.848 22.072L283.2 133.43l1.46.785C193.302 155.377 90.776 194.63 19.426 244.803l.06.107-.148.008 53.226 104.604c-18.197 15.536-36.297 31.65-53.876 48.085v95.987h442.226c-9.274-7.46-18.847-14.865-28.7-22.166l20.516-21.29c10.186 12.92 19.807 26.524 28.782 40.827l-13.977 2.63h26.434v-244.09l-23.75 29.977c-6.68-9.383-13.687-18.65-20.98-27.748l26.916-57.117c6.383 9.925 12.32 19.868 17.813 29.696V27.708c-66.116-7.02-135.757-5.42-203.415-5.42zm17.21 25.338c15.85 5.745 30.84 12.97 45 21.36l-11.876 78.103c-12.388-8.884-24.963-16.97-37.625-24.07zm62.22 32.4c16.12 11.14 31.053 23.773 44.845 37.374l-23.95 70.796c-10.74-10-21.767-19.493-33.005-28.347zm59.417 52.553c12.876 14.138 24.632 29.037 35.31 44.198l-27.944 59.297c-9.93-11.57-20.303-22.78-31.03-33.515zm83.96 86.973v46.242l.61-45.14zm-455.66 42.78c2.635-.02 5.276-.013 7.925.017 12.293.14 24.735.775 37.27 1.892l16.904 72.977c-11.008-1.224-22.073-2.056-33.182-2.46l-36.795-72.308c2.62-.06 5.245-.1 7.88-.12zm64.886 4.052c20.697 2.677 41.57 6.694 62.38 12.05l.693 70.774c-15.195-3.816-30.558-6.965-46.053-9.357zM203 283.414c18.816 5.595 37.524 12.3 55.945 20.143l-10.992 65.26c-14.547-5.49-29.312-10.44-44.262-14.764zm73.572 28.047c17.277 8.127 34.248 17.264 50.758 27.448l-19.87 55.807c-13.66-6.73-27.58-13.054-41.73-18.885zm66.887 37.843c16.404 11.01 32.292 23.075 47.497 36.234l-25.355 41.1c-13.45-8.144-27.248-15.968-41.354-23.377zm61.606 48.96c12.45 11.672 24.386 24.113 35.707 37.34l-23.857 24.752c-11.487-8.14-23.297-16.124-35.44-23.857z" fill="#fff" fill-rule="evenodd"/></svg>