<svg xmlns="http://www.w3.org/2000/svg" viewBox="0 0 512 512"><path d="M0 0h512v512H0z"/><path d="M114.875 18.844l.406 16.593 2.94 136.594h.06c26.11 0 47.314 21.205 47.314 47.314 0 26.108-21.204 47.312-47.313 47.312-8.59 0-16.644-2.3-23.593-6.312L23.814 376.906l-8.657 14.156 17.5-.156 132.063-3c-.004-.198 0-.395 0-.594 0-26.108 21.17-47.28 47.28-47.28s47.313 21.172 47.313 47.28c0 8.035-2.022 15.59-5.563 22.22l119.438 72.624 15.093 8.906-.405-16.625-2.938-128.937c-1.246.1-2.51.156-3.78.156-26.11 0-47.313-21.204-47.313-47.312 0-26.11 21.204-47.313 47.312-47.313 8.363 0 16.21 2.186 23.03 6L479.377 133l8.655-14.188-17.53.157-136.094 3.093c.005.28.03.56.03.843.002 26.11-21.202 47.313-47.31 47.313-26.11 0-47.313-21.205-47.313-47.314 0-8.885 2.45-17.206 6.718-24.312L129.97 27.72l-15.095-8.876zm19.25 33.28l17.094 10.407 64 110.876c-3.022 1.317-5.992 2.817-8.907 4.5-2.56 1.478-4.995 3.063-7.344 4.75L134.562 71.094l-.438-18.97zm320.594 85.94l-9.814 16.124-112.312 64.843c-1.266-2.857-2.686-5.673-4.28-8.436-1.563-2.705-3.234-5.304-5.033-7.78l111.376-64.283 20.063-.468zM250.56 189.218c.738-.017 1.483-.01 2.22 0 22.475.253 44.167 11.71 56.187 32.53 18.315 31.725 6.6 72.12-25.126 90.438-31.725 18.316-71.496 7.662-89.813-24.063-18.315-31.725-7.66-71.496 24.064-89.813 10.224-5.902 21.41-8.858 32.47-9.093zM170.5 291.03c1.253 2.79 2.66 5.55 4.22 8.25 1.598 2.77 3.316 5.403 5.155 7.94L68.75 371.374l-20.313.47 9.688-15.94L170.5 291.032zM304 327.126l64.625 111.97.438 18.655-17.344-10.563-63.876-110.625c2.624-1.186 5.23-2.496 7.78-3.968 2.923-1.687 5.72-3.506 8.376-5.47z" fill="#fff"/></svg>