<svg xmlns="http://www.w3.org/2000/svg" viewBox="0 0 512 512"><path d="M0 0h512v512H0z"/><path d="M17.875 18.844v49.25l58.313 125.75 2.624 5.656 6.22-.25L168 196.062c14.45-15.375 30.07-29.426 48-43.968L101.094 74.97 86.906 18.843h-69.03zm94.594 0l16.343 42.968 2.093 5.5 5.875.5 64.75 5.344 22.75 72.313c5.06-3.996 10.3-8.043 15.75-12.19l-22.56-71.686-1.876-6-6.25-.532-65.156-5.374-11.72-30.844h-20zm-47.095 107.25l42.22 2L151.968 178l-61.44 2.344-25.155-54.25zm212.97 8.53c-.635.01-1.274.046-1.908.095-5.07.387-10.085 2.037-14.093 5.03-48.92 36.528-79.37 62.847-109.25 103.594 3.85 11.967 9.154 24.168 15.656 36.22l100.375-88.502 12.375 14.032-103.094 90.844c7.017 10.962 14.978 21.64 23.75 31.718l107.22-88.562 11.905 14.437-106.342 87.814c7.996 7.98 16.496 15.422 25.406 22.156L344 287.906l11 15.125-98.375 71.69c10.21 6.347 20.82 11.708 31.72 15.842C329.427 373.815 366.166 340.51 394.06 308c6.023-7.02 8.354-13.956 7.5-20.28-.853-6.326-4.88-13.244-15.687-20.126l-5.188-3.313 1-6.06c2.495-15.195-1.175-22.16-6.437-26.814-5.262-4.653-13.757-6.82-21.125-6.844l-15.063-.062 6.72-13.47c4.46-8.943 3.547-18.51-1.876-25.81-5.422-7.304-15.59-12.883-32.53-11.44l-12.688 1.064 2.78-12.406c3.17-14.21-2.19-21.035-10.624-25.157-3.69-1.802-8.066-2.716-12.5-2.655zM132.468 240.032c-8.86 10.07-16.54 21.026-22.407 32.532 8.473 20.94 19.75 36.003 33.062 44.97 10.028 6.754 21.345 10.314 34.406 10.374-20.276-26.186-35.485-55.31-43.81-83.625l-1.25-4.25zm262.75 94.72c-4.203 4.504-8.55 8.982-13.064 13.406l23.78 20.688-17.998 15.625-16.97-25.783c-12.28 11.092-25.563 21.538-39.75 30.594l14.157 32.126-43.97 38.188-9.06 7.875 9.874 6.842 28.592 19.844h32.75l-40.843-28.344 30.56-26.5L365 465.938l20.063-3.375 11.75 31.594h19.968l-12.936-34.78 60.844-10.282-13.313 45.062h41.78v-91l-86.53 9.72-8.313-12.657 28-24.283 8.125-7.062-8.125-7.063-31.093-27.062zm-37.5 178.094l.5.343.25-.343h-.75z" fill="#fff"/></svg>