<svg xmlns="http://www.w3.org/2000/svg" viewBox="0 0 512 512"><path d="M0 0h512v512H0z"/><path d="M243.25 17.938c-25.302 3.258-47.47 32.16-47.47 69.062.002 20.352 7.093 38.387 17.595 50.938l10.25 12.25-15.72 2.937c-13.792 2.57-23.972 9.863-32.5 21.47-3.047 4.148-5.824 8.855-8.343 14.03 26.904 5.2 56.323 8.156 87.22 8.156 28.264 0 55.28-2.473 80.28-6.874-2.764-6.188-5.934-11.75-9.53-16.53-8.65-11.5-19.32-18.76-34.72-21.126l-16.03-2.47 10.156-12.624c10.048-12.485 16.78-30.298 16.78-50.156 0-39.345-24.875-69-52.718-69-2.922 0-4.79-.122-5.25-.063zm70.78 34.156c3.795 10.773 5.876 22.6 5.876 34.906 0 8.546-1.015 16.81-2.906 24.625 50.33 6.14 94.56 19.664 127.75 38.844 7.04-4.547 13.29-9.318 18.688-14.25 4.05 5.99 6.647 12.083 7.812 18.218-44.395 37.948-124.776 61.03-216.97 61.03-91.7 0-171.71-22.846-216.25-60.437.022-.122.042-.25.064-.374.076-.428.19-.853.28-1.28.054-.25.1-.502.157-.75.126-.542.26-1.086.407-1.626.122-.45.238-.896.376-1.344.025-.084.067-.165.093-.25.142-.454.28-.92.438-1.375.264-.762.535-1.52.843-2.28.05-.123.105-.252.157-.375.27-.65.572-1.288.875-1.938.223-.48.444-.958.686-1.437.075-.148.174-.29.25-.438.184-.354.37-.708.563-1.062.29-.534.592-1.093.905-1.625.27-.458.558-.918.844-1.375.026-.043.065-.082.093-.125.162-.258.3-.524.468-.78 5.304 4.798 11.418 9.442 18.282 13.874 30.723-17.752 70.9-30.656 116.626-37.345-2.158-8.247-3.344-17.005-3.344-26.125 0-11.877 1.934-23.32 5.437-33.813-12.313 1.878-24.147 4.238-35.468 7-.725.174-1.434.355-2.156.532-.55.136-1.11.266-1.656.405-.084.02-.166.042-.25.063-1.72.43-3.43.86-5.125 1.312-.115.03-.228.063-.344.094-1.685.45-3.37.904-5.03 1.375-1.797.508-3.578 1.06-5.344 1.593-.536.16-1.06.336-1.594.5-1.4.43-2.806.836-4.187 1.28-1.145.37-2.275.747-3.406 1.126-.585.194-1.17.394-1.75.593-1.315.448-2.614.913-3.907 1.374-.717.257-1.415.522-2.126.782-.81.295-1.635.572-2.437.874-1.87.703-3.74 1.424-5.563 2.156-.03.012-.063.02-.093.03-1.55.623-3.08 1.265-4.594 1.907-1.405.596-2.78 1.2-4.156 1.813-.273.122-.54.253-.813.375-1.355.61-2.703 1.217-4.03 1.844-.012.005-.02.024-.03.03-.01.004-.024-.004-.032 0-1.466.693-2.916 1.412-4.344 2.125-.706.352-1.398.706-2.094 1.063-2.19 1.123-4.34 2.266-6.438 3.437-1.305.728-2.575 1.472-3.843 2.22-1.322.776-2.627 1.546-3.907 2.343-.57.35-1.127.708-1.688 1.062-.35.223-.716.432-1.063.656-.05.032-.105.06-.156.094-14.02 8.992-24.913 18.81-32.406 29.03l.156.22c-.55.747-1.074 1.494-1.593 2.25-.528.768-1.035 1.535-1.532 2.313-.423.663-.848 1.33-1.25 2-.112.188-.23.373-.343.562-.065.11-.122.232-.187.344-.336.58-.65 1.164-.97 1.75-.41.752-.805 1.487-1.186 2.25-.017.032-.046.06-.063.093-.013.03-.015.064-.03.093-.38.765-.745 1.54-1.094 2.313-.323.715-.64 1.432-.937 2.155-.04.094-.088.187-.126.28-.165.408-.313.81-.47 1.22-.195.51-.38 1.017-.56 1.53-.253.712-.494 1.44-.72 2.157-.2.633-.384 1.27-.563 1.907-.055.198-.132.393-.186.593-.206.762-.387 1.512-.563 2.28-.046.207-.08.42-.124.626-.158.726-.306 1.454-.437 2.186-.12.663-.218 1.333-.314 2-.04.272-.09.54-.125.813-.1.775-.18 1.56-.25 2.343-.077.872-.147 1.744-.186 2.625-.04.87-.063 1.748-.063 2.625 0 .59.015 1.192.032 1.78.013.398.012.793.032 1.188.015.305.042.605.062.907.03.468.083.94.125 1.407.054.58.12 1.172.19 1.75.07.58.13 1.143.218 1.72.08.533.155 1.06.25 1.592l.03.188c.073.398.17.79.25 1.187.056.273.13.542.188.814.045.207.078.418.125.625.057.24.13.476.19.718.27 1.132.568 2.257.905 3.375.284.94.578 1.88.906 2.812.112.312.23.626.345.938.764 2.062 1.65 4.085 2.625 6.093.135.28.236.567.375.844.006.012.025.02.03.03 3.938 8.29 10.093 16.41 18.282 24.157.032.03.062.063.094.094.61.576 1.213 1.15 1.845 1.72.218.197.435.397.656.594.05.044.108.08.157.125.364.327.725.673 1.094 1 .323.283.644.56.97.843.737.637 1.49 1.248 2.25 1.875.023.018.04.043.063.062.218.18.435.352.656.53 1.345 1.1 2.712 2.19 4.124 3.25 22.564 16.98 53.67 30.318 90.28 39.157l.032-.156c25.468 6.286 53.716 10.45 83.625 11.908 7.56.368 15.816-.032 24.5-.032 38.348 0 74.543-4.383 106.47-12.03l.063.312c37.33-8.832 69.028-22.135 92.03-39.094 23.003-16.96 37.813-38.322 37.813-62.28 0-24.065-14.946-45.5-38.125-62.5-23.178-17.002-55.094-30.336-92.686-39.126l-.03.093c-14.463-3.43-29.774-6.2-45.783-8.186zM438.75 254.28c-2.775 1.466-5.602 2.894-8.5 4.282-17.887 8.57-38.28 15.782-60.563 21.407.076 1.747.157 3.505.22 5.25 28.52 7.16 53.882 17.018 74.843 29.124 7.013-4.528 13.243-9.276 18.625-14.188 4.048 5.967 6.695 12.046 7.875 18.156-44.395 37.95-124.776 61.032-216.97 61.032-91.678 0-171.673-22.833-216.218-60.406 1.073-6.204 3.614-12.363 7.563-18.407 5.284 4.767 11.362 9.375 18.188 13.783 18.36-10.605 40.1-19.463 64.374-26.313.187-3.396.38-6.808.625-10.22-21.873-6.21-41.72-14.01-58.937-23.155l-.47-.25c-16.194 9.734-28.633 20.496-36.905 31.78l.22.283c-8.845 11.994-13.94 25.25-13.94 39.406 0 10.872 3.005 21.224 8.407 30.875.132.24.272.476.407.717.405.706.82 1.397 1.25 2.094 1.892 3.12 4.083 6.207 6.593 9.25.585.718 1.202 1.42 1.813 2.126.185.21.375.415.563.625 5.163 5.872 11.22 11.408 18.03 16.533 22.565 16.98 53.672 30.316 90.282 39.156l.063-.314c25.46 6.28 53.695 10.45 83.593 11.906 7.56.37 15.816-.03 24.5-.03 38.333 0 74.52-4.358 106.44-12l.092.437c37.33-8.833 69.03-22.136 92.032-39.095 23.002-16.96 37.812-38.32 37.812-62.28 0-24.065-14.946-45.5-38.125-62.5-4.295-3.152-8.903-6.17-13.78-9.064zm-291.438 28.282c-1.078 16.56-1.462 33.164-1.562 48.782h44.313l.625 8.625 1.25 16.56c19.825 2.65 40.72 4.126 62.343 4.126 18.48 0 36.42-1.072 53.626-3.03l1.156-17.563.594-8.72h42.125c-.004-15.09-.072-31.11-.686-47.124-29.833 6.065-62.517 9.374-96.813 9.374-8.092 0-16.62.428-25.405 0-28.9-1.408-56.355-5.2-81.563-11.03zm52.032 172.594L202 490.28h97.094l2.312-34.967c-15.27 1.403-31.017 2.156-47.125 2.156-8.092 0-16.62.427-25.405 0-10.03-.49-19.884-1.264-29.53-2.314z" fill="#fff"/></svg>