<svg xmlns="http://www.w3.org/2000/svg" viewBox="0 0 512 512"><path d="M0 0h512v512H0z"/><path d="M440.625 41.625c-17.75 0-32.313 14.595-32.313 32.344 0 .438.014.876.032 1.31-10.094 3.13-20.075 6.465-29.906 10-5.897-8.132-15.456-13.468-26.188-13.468-17.75 0-32.344 14.564-32.344 32.313 0 1.794.15 3.563.438 5.28-9.648 4.597-19.12 9.444-28.438 14.532-5.82-5.57-13.664-9.03-22.28-9.03-17.75 0-32.345 14.594-32.345 32.343 0 3.397.543 6.664 1.532 9.75-9.677 6.856-19.11 14.055-28.312 21.594-4.292-2.12-9.112-3.313-14.188-3.313-17.75 0-32.312 14.596-32.312 32.345 0 4.202.83 8.213 2.313 11.906-8.38 8.767-16.504 17.89-24.344 27.407-3.454-1.27-7.16-1.968-11.032-1.968-17.75 0-32.344 14.593-32.344 32.343 0 7.448 2.58 14.35 6.875 19.843-5.835 9.13-11.468 18.54-16.876 28.25-2.107-.437-4.302-.656-6.53-.656-17.75 0-32.314 14.563-32.314 32.313 0 9.81 4.46 18.642 11.438 24.593-3.376 7.94-6.656 16.04-9.782 24.313-.548-.03-1.1-.033-1.656-.033-17.75 0-32.344 14.595-32.344 32.344 0 11.224 5.847 21.162 14.625 26.97-2.732 9.76-5.292 19.74-7.718 29.906H43.5c2.03-8.324 4.17-16.498 6.406-24.53 17.678-.087 32.157-14.648 32.157-32.345 0-10.61-5.21-20.087-13.188-26 2.954-7.866 6.008-15.574 9.188-23.124 1.312.165 2.645.25 4 .25 17.75 0 32.343-14.594 32.343-32.344 0-8.953-3.728-17.097-9.687-22.968 4.99-9.023 10.166-17.786 15.53-26.28 3.356 1.19 6.944 1.842 10.688 1.842 17.75 0 32.343-14.594 32.343-32.344 0-7.384-2.55-14.218-6.78-19.687 6.778-8.23 13.77-16.175 20.97-23.813 5.317 3.85 11.825 6.125 18.843 6.125 17.75 0 32.343-14.563 32.343-32.312 0-6.14-1.76-11.9-4.78-16.813 8.11-6.566 16.436-12.86 24.936-18.875 5.64 4.768 12.92 7.657 20.813 7.657 17.75 0 32.344-14.595 32.344-32.344 0-2.648-.327-5.218-.94-7.688 8.92-4.824 18.005-9.45 27.25-13.812 5.937 6.56 14.51 10.72 23.97 10.72 17.75 0 32.344-14.596 32.344-32.345 0-.502-.008-1.003-.03-1.5 9.8-3.49 19.755-6.762 29.842-9.844 5.885 8.17 15.466 13.532 26.22 13.532 16.575 0 30.4-12.735 32.155-28.874 7.297-1.63 14.65-3.166 22.064-4.626v-19.03c-8.586 1.655-17.115 3.42-25.563 5.312-5.42-10.344-16.256-17.47-28.655-17.47zm0 18.688c7.65 0 13.656 6.006 13.656 13.656s-6.005 13.655-13.655 13.655c-7.65 0-13.625-6.006-13.625-13.656s5.975-13.657 13.625-13.657zM352.25 90.5c7.65 0 13.656 5.975 13.656 13.625S359.9 117.78 352.25 117.78s-13.656-6.005-13.656-13.655c0-7.65 6.006-13.625 13.656-13.625zm142.594 12.53c-15.862 2.592-27.806 16.822-27.125 33.25.028.705.112 1.404.186 2.095-6.245 1.552-12.452 3.174-18.594 4.875-6.018-9.355-16.697-15.428-28.53-14.938-17.735.736-31.736 15.923-31 33.657.01.28.043.562.062.843-5.123 1.98-10.194 4.014-15.22 6.125-6.17-8.496-16.34-13.902-27.53-13.438-17.734.735-31.704 15.922-30.97 33.656.116 2.77.57 5.455 1.345 8-6.708 3.866-13.316 7.888-19.783 12.063-6.202-6.308-14.922-10.08-24.375-9.69-17.733.737-31.704 15.924-30.968 33.657.22 5.34 1.763 10.33 4.28 14.688-5.172 4.575-10.237 9.273-15.186 14.125-5.14-2.994-11.162-4.607-17.5-4.344-17.734.736-31.705 15.923-30.97 33.656.29 6.986 2.835 13.383 6.876 18.532-4.332 5.862-8.527 11.884-12.594 18.062-3.715-1.298-7.726-1.922-11.875-1.75-17.734.736-31.735 15.923-31 33.656.398 9.588 5.035 18.06 12 23.72-2.762 5.964-5.414 12.012-7.97 18.218-1.648-.192-3.323-.29-5.03-.22-17.734.737-31.704 15.892-30.97 33.626.467 11.224 6.705 20.93 15.72 26.375-2.977 10.897-5.67 22.1-8.094 33.626h19.064c2.148-9.92 4.503-19.584 7.062-29 17.675-.8 31.61-15.964 30.875-33.656-.39-9.437-4.873-17.812-11.655-23.47 2.547-6.262 5.177-12.404 7.938-18.405 1.548.165 3.12.223 4.718.156 17.735-.734 31.705-15.92 30.97-33.655-.293-7.064-2.88-13.54-7-18.72 4.01-6.162 8.187-12.14 12.47-17.967 3.785 1.358 7.88 2.02 12.124 1.843 17.734-.734 31.704-15.92 30.97-33.655-.206-4.938-1.535-9.57-3.72-13.688 5.1-5.014 10.33-9.86 15.687-14.562 4.912 2.626 10.55 4.027 16.47 3.78 17.734-.734 31.704-15.92 30.97-33.655-.078-1.84-.315-3.628-.69-5.375 6.9-4.457 13.96-8.722 21.158-12.813 6.01 5.16 13.88 8.164 22.343 7.813 17.735-.735 31.705-15.922 30.97-33.656-.003-.064.003-.126 0-.19 5.136-2.142 10.313-4.213 15.563-6.218 6.206 8.175 16.18 13.33 27.125 12.875 17.105-.71 30.716-14.864 31-31.78 6.894-1.89 13.863-3.698 20.906-5.407 4.898 5.79 11.78 9.827 19.5 11.094v-19.28c-4.812-1.93-8.237-6.477-8.47-12.064-.248-5.997 3.258-11.13 8.47-13.22v-19.25zm-225.22 30.564c7.65 0 13.657 6.006 13.657 13.656s-6.005 13.656-13.655 13.656c-7.65 0-13.656-6.006-13.656-13.656s6.005-13.656 13.655-13.656zm151.907 13.375c7.645-.318 13.903 5.45 14.22 13.093.317 7.643-5.45 13.87-13.094 14.187-7.643.317-13.87-5.42-14.187-13.063-.318-7.643 5.418-13.9 13.06-14.218zm-73.655 27.218c7.643-.317 13.902 5.42 14.22 13.062.316 7.643-5.452 13.87-13.095 14.188-7.644.316-13.87-5.42-14.188-13.063-.316-7.643 5.42-13.87 13.063-14.188zm139.688 14.906c-.658-.013-1.305.003-1.97.03-16.177.672-29.205 13.377-30.812 29.064-9.245 2.683-18.338 5.576-27.25 8.718-6.248-7.28-15.63-11.768-25.874-11.344-17.734.736-31.704 15.923-30.97 33.657.033.766.104 1.528.19 2.28-8.265 4.363-16.31 9.03-24.126 13.97-5.705-4.165-12.772-6.533-20.313-6.22-17.733.735-31.704 15.922-30.968 33.656.152 3.703.944 7.225 2.25 10.5-8.037 7.61-15.686 15.684-22.908 24.25-4.14-1.687-8.678-2.54-13.406-2.344-17.734.736-31.704 15.923-30.97 33.657.338 8.116 3.72 15.445 8.97 20.936-5.584 10.4-10.684 21.328-15.312 32.78-.094.005-.187-.002-.28.002-17.735.735-31.706 15.922-30.97 33.656.418 10.087 5.514 18.955 13.094 24.594-1.802 7.87-3.395 15.94-4.813 24.218h18.97c1.087-6.07 2.267-12.02 3.56-17.844.943.045 1.886.04 2.845 0 17.734-.735 31.704-15.922 30.97-33.656-.46-11.043-6.522-20.612-15.314-26.094 4.08-9.924 8.573-19.37 13.406-28.406 2.736.63 5.604.903 8.532.78 17.734-.734 31.704-15.92 30.97-33.655-.262-6.287-2.356-12.082-5.72-16.936 6.337-7.472 13.03-14.552 20.03-21.25 5.6 3.903 12.466 6.083 19.75 5.78 17.735-.734 31.705-15.92 30.97-33.655-.143-3.454-.818-6.758-1.97-9.845 6.56-4.096 13.304-7.97 20.22-11.656 6.24 7.355 15.664 11.895 25.97 11.467 17.732-.735 31.734-15.922 30.998-33.656-.034-.83-.122-1.654-.218-2.468 7.624-2.662 15.403-5.144 23.312-7.468 5.695 10.602 17.13 17.684 29.875 17.156 2.258-.094 4.443-.435 6.564-.97v-20.218c-2.085 1.492-4.558 2.416-7.344 2.532-7.63.316-13.902-5.463-14.22-13.094-.315-7.63 5.464-13.87 13.095-14.188 3.196-.132 6.102.828 8.47 2.532v-20.25c-2.347-.6-4.784-.95-7.283-1zm-291.25 4.875c7.65 0 13.656 6.005 13.656 13.655 0 7.65-6.007 13.625-13.657 13.625s-13.625-5.975-13.625-13.625 5.974-13.656 13.625-13.656zm77.78 24.25c7.644-.318 13.903 5.418 14.22 13.06.316 7.645-5.45 13.903-13.094 14.22-7.645.317-13.872-5.45-14.19-13.094-.316-7.643 5.42-13.87 13.064-14.187zm128.313 16c7.644-.318 13.902 5.45 14.22 13.093.316 7.643-5.42 13.87-13.063 14.187-7.644.317-13.902-5.42-14.22-13.063-.316-7.643 5.42-13.9 13.063-14.218zm-271.469 29.436c7.65 0 13.657 6.006 13.657 13.656s-6.006 13.657-13.656 13.657-13.657-6.007-13.657-13.658c0-7.65 6.007-13.656 13.657-13.656zm83.75 12.688c7.644-.317 13.902 5.42 14.22 13.062.316 7.644-5.42 13.87-13.063 14.188-7.644.317-13.902-5.42-14.22-13.063-.316-7.642 5.42-13.87 13.064-14.186zm112.532 1.594c7.642-.317 13.9 5.42 14.217 13.062.317 7.643-5.45 13.87-13.093 14.188-7.644.316-13.87-5.42-14.188-13.063-.317-7.644 5.42-13.87 13.063-14.188zm123.155 7.53c-.55-.005-1.102.01-1.656.032-17.735.735-31.705 15.922-30.97 33.656.01.272.044.543.063.813-6.877 2.38-13.507 5.056-19.875 8.06-5.933-4.86-13.587-7.65-21.782-7.31-17.734.734-31.704 15.92-30.97 33.655.143 3.408.816 6.666 1.94 9.72-7.352 7.58-13.99 15.87-19.938 24.842-3.38-1.033-6.977-1.528-10.688-1.375-17.734.736-31.704 15.892-30.97 33.625.46 11.084 6.564 20.685 15.408 26.157-1.722 6.076-3.245 12.326-4.563 18.75-14.832 2.044-26.397 14.252-27.78 29.062h18.842c1.282-5.94 6.374-10.39 12.782-10.656 6.795-.28 12.49 4.268 13.874 10.656h18.875c-1.067-11.547-8.272-21.3-18.19-26.125 1.204-5.804 2.58-11.422 4.126-16.874.094-.003.187.004.28 0 17.735-.735 31.706-15.89 30.97-33.625-.303-7.322-3.074-14.01-7.47-19.28 4.8-7.218 10.114-13.895 15.877-20.063 5.687 4.136 12.736 6.468 20.25 6.157 17.733-.736 31.735-15.923 31-33.656-.115-2.77-.57-5.455-1.344-8 5.107-2.313 10.434-4.393 15.936-6.282 6.215 8.084 16.127 13.17 27 12.72 14.41-.598 26.336-10.74 29.906-24.032 4.423-.35 8.938-.595 13.532-.75v-18.688c-4.79.162-9.51.424-14.156.78-4.348-12.695-16.42-21.83-30.313-21.967zm-.875 18.72c7.643-.317 13.87 5.42 14.188 13.062.316 7.643-5.42 13.902-13.063 14.22-7.644.316-13.87-5.452-14.188-13.095-.316-7.644 5.42-13.87 13.063-14.188zm-72.594 35.218c7.644-.317 13.902 5.42 14.22 13.063.316 7.642-5.42 13.87-13.063 14.186-7.644.317-13.902-5.42-14.22-13.062-.316-7.644 5.42-13.87 13.063-14.188zm-294.844 4.03c7.65.002 13.657 5.976 13.657 13.627 0 7.65-6.007 13.656-13.657 13.656s-13.626-6.007-13.626-13.658c0-7.65 5.975-13.625 13.626-13.625zm180.125.533c7.644-.318 13.87 5.45 14.188 13.092.317 7.644-5.42 13.87-13.063 14.188-7.643.317-13.87-5.42-14.187-13.063-.317-7.643 5.42-13.9 13.063-14.218zm-96.062.874c7.643-.317 13.902 5.42 14.22 13.062.316 7.644-5.452 13.902-13.095 14.22-7.643.316-13.87-5.45-14.188-13.095-.316-7.642 5.42-13.87 13.063-14.186zm320.906 7.47c-.54.008-1.09.024-1.624.06-14.956 1.05-27.77 12.548-29.844 27.938-.328 2.436-.373 4.863-.156 7.22-5.63 2.33-11.127 5.22-16.406 8.593-5.044-3.776-11.217-6.128-17.938-6.406-17.733-.737-32.92 13.234-33.656 30.967-.4 9.64 3.56 18.505 10.094 24.72-2.776 6.484-5.05 13.435-6.72 20.812-14.393 2.407-25.54 14.432-26.905 28.936h18.875c1.274-5.94 6.342-10.39 12.75-10.656 6.797-.28 12.516 4.268 13.906 10.656h18.844c-1.092-11.87-8.634-21.855-18.97-26.53 1.235-5.224 2.784-10.18 4.658-14.813 1.45.264 2.926.437 4.437.5 17.734.735 32.92-13.235 33.656-30.97.182-4.363-.53-8.562-1.967-12.437 3.98-2.42 8.103-4.49 12.28-6.187 5.03 6.333 12.4 10.813 20.97 11.967 3.944.53 7.847.316 11.53-.53v-19.938c-2.584 1.62-5.715 2.382-9.03 1.936-7.57-1.02-12.74-7.776-11.72-15.344 1.02-7.57 7.775-12.706 15.344-11.687 2.015.27 3.825.945 5.407 1.938v-19.938c-.958-.22-1.917-.398-2.906-.53-1.65-.223-3.285-.31-4.907-.283zm-169.75 53.905c7.645-.318 13.872 5.418 14.19 13.06.316 7.645-5.42 13.903-13.064 14.22-7.643.317-13.87-5.42-14.187-13.063-.318-7.643 5.418-13.9 13.06-14.218zm101.595 2.155c.466-.026.93-.02 1.406 0 7.645.317 13.412 6.575 13.095 14.22-.317 7.642-6.575 13.378-14.22 13.06-7.642-.316-13.378-6.574-13.06-14.217.296-7.166 5.797-12.666 12.78-13.063zm-284.72 11.813c7.645-.317 13.872 5.45 14.19 13.093.316 7.645-5.42 13.872-13.064 14.19-7.642.316-13.9-5.42-14.218-13.064-.316-7.643 5.45-13.902 13.094-14.22zm-84.405 4.437c7.65 0 13.625 6.006 13.625 13.656S57.4 451.94 49.75 451.94s-13.656-6.007-13.656-13.657 6.006-13.655 13.656-13.655zm174.844 6.75c7.643-.317 13.87 5.42 14.187 13.063.318 7.643-5.418 13.9-13.06 14.218-7.645.317-13.903-5.45-14.22-13.094-.317-7.643 5.45-13.87 13.094-14.187zm262.25 24.438c-17.014.167-31.288 13.82-32 31-.12 2.86.15 5.66.75 8.343h19.875c-1.326-2.2-2.055-4.793-1.94-7.594.318-7.63 6.558-13.378 14.19-13.062 2.68.11 5.097.982 7.124 2.375V456.75c-2.046-.497-4.173-.816-6.344-.906-.554-.023-1.107-.037-1.656-.03z" fill="#fff"/></svg>