<svg xmlns="http://www.w3.org/2000/svg" viewBox="0 0 512 512"><path d="M0 0h512v512H0z"/><path d="M359.672 17.625C313.48 46.29 271.752 75.44 234.484 104.97 205.98 84.112 175.29 63.477 142.39 43.062c27.144 27.17 51.856 51.637 75.657 75.218-12.494 10.31-24.464 20.64-35.875 31.033-42.628-32.138-89.742-63.87-141.344-95.125 43.876 42.25 83.107 79.44 120.25 114.968-10.486 10.213-20.458 20.47-29.906 30.75-32.703-24.725-68.48-49.164-107.344-73.28 33.158 33.19 63.178 62.832 91.594 91.03-44.866 52.294-76.392 105.362-94.47 158.72 43.352-52.554 81.404-95.843 118-135.345 8.92 8.9 17.697 17.714 26.407 26.5-45.706 52.888-77.744 106.583-96.032 160.564 43.905-53.225 82.38-96.934 119.406-136.844 9.348 9.566 18.673 19.212 28 28.97-49.978 55.818-84.697 112.556-104.03 169.624 46.973-56.946 87.73-103.024 127.155-145.188 40.668 43.46 82.702 90.943 131.187 149.72-19.925-58.813-55.8-117.274-107.47-174.782 8.262-8.64 16.51-17.176 24.782-25.657 51.97 52.87 105.448 110.348 168.03 182.75-26.815-70.89-73.77-141.354-140.656-210.562 8.05-8.112 16.168-16.22 24.407-24.437 46.908 49.238 94.57 102.33 150.907 170.624-22.28-65.762-64.422-131.106-126.22-195.156 26.944-26.726 55.307-54.743 86.626-86.093-37.095 23.02-71.31 46.346-102.656 69.937-11.98-11.744-24.626-23.447-37.938-35.094 30.035-29.847 61.767-61.106 97.187-96.562-42.52 26.386-81.26 53.187-116.22 80.312-11.568-9.63-23.577-19.228-36.06-28.78 32.01-31.862 65.834-65.14 103.905-103.25zm-121.406 120.72c10.224 10.15 20.242 20.103 30.125 30-10.4 8.537-20.404 17.12-30.062 25.718-9.895-8.356-20.07-16.694-30.562-25 10.046-10.22 20.225-20.434 30.5-30.72zm50.03 50.06c11.128 11.248 22.165 22.485 33.157 33.845-9.314 7.466-18.35 14.956-27.094 22.47-10.324-10.024-21.054-20.007-32.22-29.97 8.632-8.746 17.344-17.527 26.157-26.344zm-103.124 3.876c9.06 8.717 18.043 17.393 26.937 26.033-8.97 8.657-17.56 17.354-25.782 26.062-9.16-7.9-18.63-15.775-28.406-23.625 9.11-9.65 18.182-19.092 27.25-28.47zm50.75 49.25c9.824 9.655 19.608 19.384 29.406 29.19-8.62 8.06-16.905 16.142-24.875 24.25-9.21-9.38-18.815-18.744-28.875-28.064 8.13-8.568 16.234-17.005 24.344-25.375z" fill="#fff"/></svg>