<?xml version="1.0" encoding="UTF-8" standalone="no"?>
<svg
   xmlns:dc="http://purl.org/dc/elements/1.1/"
   xmlns:cc="http://creativecommons.org/ns#"
   xmlns:rdf="http://www.w3.org/1999/02/22-rdf-syntax-ns#"
   xmlns:svg="http://www.w3.org/2000/svg"
   xmlns="http://www.w3.org/2000/svg"
   xmlns:sodipodi="http://sodipodi.sourceforge.net/DTD/sodipodi-0.dtd"
   xmlns:inkscape="http://www.inkscape.org/namespaces/inkscape"
   viewBox="0 0 512 512"
   id="svg2"
   version="1.1"
   inkscape:version="0.91 r13725"
   sodipodi:docname="hearts-plus.svg">
  <metadata
     id="metadata12">
    <rdf:RDF>
      <cc:Work
         rdf:about="">
        <dc:format>image/svg+xml</dc:format>
        <dc:type
           rdf:resource="http://purl.org/dc/dcmitype/StillImage" />
        <dc:title></dc:title>
      </cc:Work>
    </rdf:RDF>
  </metadata>
  <defs
     id="defs10" />
  <sodipodi:namedview
     pagecolor="#ffffff"
     bordercolor="#666666"
     borderopacity="1"
     objecttolerance="10"
     gridtolerance="10"
     guidetolerance="10"
     inkscape:pageopacity="0"
     inkscape:pageshadow="2"
     inkscape:window-width="1886"
     inkscape:window-height="1065"
     id="namedview8"
     showgrid="false"
     inkscape:zoom="1"
     inkscape:cx="256"
     inkscape:cy="251.35074"
     inkscape:window-x="34"
     inkscape:window-y="0"
     inkscape:window-maximized="1"
     inkscape:current-layer="svg2" />
  <path
     d="M0 0h512v512H0z"
     id="path4" />
  <path
     style="fill:#ffffff"
     d="M 372.48047 31.214844 C 294.83047 31.214844 256 96.945312 256 96.945312 C 256 96.945312 217.16953 31.224609 139.51953 31.224609 C 102.37953 31.224609 31.75 64.945468 31.75 156.35547 C 31.75 317.59547 256 480.78516 256 480.78516 C 256 480.78516 480.25 317.59547 480.25 156.35547 C 480.25 64.935468 409.62047 31.224844 372.48047 31.214844 z M 226.98828 146.23438 L 287.68555 146.23438 L 287.68555 225.65039 L 366.92383 225.65039 L 366.92383 286.34961 L 287.68555 286.34961 L 287.68555 366.23438 L 226.98828 366.23438 L 226.98828 286.34961 L 146.92383 286.34961 L 146.92383 225.65039 L 226.98828 225.65039 L 226.98828 146.23438 z "
     id="path6" />
</svg>
