<?xml version="1.0" encoding="UTF-8" standalone="no"?>
<!-- Created with Inkscape (http://www.inkscape.org/) -->

<svg
   xmlns:dc="http://purl.org/dc/elements/1.1/"
   xmlns:cc="http://creativecommons.org/ns#"
   xmlns:rdf="http://www.w3.org/1999/02/22-rdf-syntax-ns#"
   xmlns:svg="http://www.w3.org/2000/svg"
   xmlns="http://www.w3.org/2000/svg"
   xmlns:sodipodi="http://sodipodi.sourceforge.net/DTD/sodipodi-0.dtd"
   xmlns:inkscape="http://www.inkscape.org/namespaces/inkscape"
   width="100mm"
   height="100mm"
   viewBox="0 0 100 100"
   version="1.1"
   id="svg8"
   inkscape:version="0.92.4 (5da689c313, 2019-01-14)"
   sodipodi:docname="blueberries.svg"
   inkscape:export-filename="C:\Users\hverg\Documents\blueberries.png"
   inkscape:export-xdpi="32.509998"
   inkscape:export-ydpi="32.509998">
  <defs
     id="defs2" />
  <sodipodi:namedview
     id="base"
     pagecolor="#ffffff"
     bordercolor="#666666"
     borderopacity="1.0"
     inkscape:pageopacity="0.0"
     inkscape:pageshadow="2"
     inkscape:zoom="1.2567708"
     inkscape:cx="191.24296"
     inkscape:cy="183.66197"
     inkscape:document-units="mm"
     inkscape:current-layer="layer1"
     showgrid="false"
     inkscape:snap-to-guides="false"
     inkscape:snap-grids="false"
     inkscape:snap-nodes="true"
     inkscape:snap-others="false"
     inkscape:snap-global="true"
     fit-margin-top="0"
     fit-margin-left="0"
     fit-margin-right="0"
     fit-margin-bottom="0"
     inkscape:window-width="2475"
     inkscape:window-height="1417"
     inkscape:window-x="-8"
     inkscape:window-y="-8"
     inkscape:window-maximized="1"
     inkscape:snap-page="true"
     inkscape:snap-bbox="true" />
  <metadata
     id="metadata5">
    <rdf:RDF>
      <cc:Work
         rdf:about="">
        <dc:format>image/svg+xml</dc:format>
        <dc:type
           rdf:resource="http://purl.org/dc/dcmitype/StillImage" />
        <dc:title></dc:title>
      </cc:Work>
    </rdf:RDF>
  </metadata>
  <g
     inkscape:label="Layer 1"
     inkscape:groupmode="layer"
     id="layer1"
     transform="translate(-0.60673889,3.479207)">
    <rect
       style="fill:#000000;stroke:none;stroke-width:0.26214516"
       id="rect3845"
       width="100"
       height="100"
       x="0.60673887"
       y="-3.4792063" />
    <path
       style="fill:#ffffff;stroke:none;stroke-width:0.26458332"
       d="m 65.872409,20.316824 a 24.56845,24.56845 0 0 0 -20.99665,11.85664 25.702386,25.702386 0 0 1 20.068024,13.158369 26.08035,26.08035 0 0 1 8.548833,-1.482598 26.08035,26.08035 0 0 1 16.446023,5.857007 24.56845,24.56845 0 0 0 0.502296,-4.820893 24.56845,24.56845 0 0 0 -24.568526,-24.568525 z m 11.029299,7.359755 c 0.178803,0.0051 0.380498,0.05082 0.612368,0.146762 1.854946,0.767564 0.763048,2.754297 2.028298,4.410067 1.265254,1.655771 3.595093,1.289312 3.787368,3.200837 0.192273,1.911527 -2.258579,1.073814 -3.212724,2.510959 -0.954146,1.437145 0.563054,3.681018 -1.173054,4.09484 -1.736117,0.413824 -2.159278,-2.091174 -4.014227,-2.858741 -1.854949,-0.767564 -3.247133,0.98656 -4.512387,-0.669208 -1.265253,-1.655771 0.924531,-2.366251 0.732256,-4.277775 -0.192275,-1.911528 -2.570067,-3.071625 -1.615922,-4.50877 0.954146,-1.437146 2.730278,0.628798 4.466395,0.214974 1.5191,-0.362096 1.650034,-2.299539 2.901629,-2.263945 z"
       id="path3713-7"
       inkscape:connector-curvature="0" />
    <ellipse
       style="fill:#ffffff;stroke:none;stroke-width:0.18634921"
       id="path3719-2"
       cx="-8.9720392"
       cy="81.950233"
       transform="matrix(0.15407577,-0.98805904,0.94968831,0.3131966,0,0)"
       rx="1.546965"
       ry="1.7537377" />
    <path
       style="fill:#ffffff;stroke:#000000;stroke-width:0.26458332px;stroke-linecap:butt;stroke-linejoin:miter;stroke-opacity:1"
       d="m 27.889716,23.868543 c -14.03296,0.137829 -23.3483573,9.891122 -23.5722054,13.409001 3.9266838,1.634458 9.6676684,3.424068 16.6346424,6.437333 5.229143,-7.247739 10.248982,-10.168464 18.353402,-11.286132 -11.559394,-3.994468 -20.093863,0.111104 -20.093863,0.111104 0,0 7.485417,-6.877733 25.654248,-2.437578 0.318625,-0.428926 0.646957,-0.850619 0.991669,-1.259355 -6.518021,-3.664834 -12.5896,-5.027195 -17.967893,-4.974373 z"
       id="path3775"
       inkscape:connector-curvature="0" />
    <path
       style="fill:#ffffff;stroke:#000000;stroke-width:0.26458332px;stroke-linecap:butt;stroke-linejoin:miter;stroke-opacity:1"
       d="m 33.359666,-1.389863 c -0.218138,0.00336 -0.33383,0.00982 -0.33383,0.00982 0,0 6.674408,11.591081 -1.108461,22.957255 6.583492,0.585518 11.49518,2.518892 15.430585,5.420342 1.993167,-1.979809 4.27542,-3.606999 6.748941,-4.842084 C 52.826541,12.8029 44.834934,6.0034846 44.834934,6.0034846 c 0,0 8.673258,4.9695734 12.857096,14.6838584 2.091084,-0.680294 4.272648,-1.10513 6.500378,-1.240752 C 56.24151,-1.0049975 36.189409,-1.4335828 33.359666,-1.389863 Z"
       id="path3777"
       inkscape:connector-curvature="0" />
    <path
       style="fill:#ffffff;stroke:none;stroke-width:0.26458332"
       d="M 42.438182,33.167718 A 24.56845,24.56845 0 0 0 17.869654,57.736243 24.56845,24.56845 0 0 0 42.438182,82.304769 24.56845,24.56845 0 0 0 49.902324,81.132747 26.147393,26.147393 0 0 1 47.345375,69.929815 26.147393,26.147393 0 0 1 63.817237,45.661528 24.56845,24.56845 0 0 0 42.438182,33.167718 Z m -3.351734,21.832776 c 0.187532,-2.1e-5 0.3917,0.04042 0.619083,0.131257 1.819055,0.726662 0.317098,2.779115 1.35754,4.426088 1.040442,1.646967 3.560696,1.206315 3.425113,3.144509 -0.135583,1.938195 -2.570435,1.157256 -3.830256,2.646349 -1.259822,1.489094 -0.05775,3.726987 -1.960605,4.198194 -1.902849,0.47121 -1.905781,-2.063863 -3.724836,-2.790526 -1.819055,-0.726662 -3.596484,1.097135 -4.636926,-0.549838 -1.040442,-1.646973 1.393005,-2.432598 1.528588,-4.370792 0.135583,-1.938195 -2.165191,-3.04913 -0.90537,-4.538224 1.259822,-1.489093 2.766632,0.560091 4.66948,0.08888 1.664997,-0.412306 2.145467,-2.385759 3.458189,-2.385899 z"
       id="path3713"
       inkscape:connector-curvature="0" />
    <ellipse
       style="fill:#ffffff;stroke:none;stroke-width:0.19273078"
       id="path3719"
       cx="36.954498"
       cy="62.185696"
       rx="1.6704345"
       ry="1.7372519" />
    <path
       style="fill:#ffffff;stroke:none;stroke-width:0.26458332"
       d="m 73.343753,45.001905 a 24.568451,24.568451 0 0 0 -24.56852,24.56852 24.568451,24.568451 0 0 0 24.56852,24.56853 24.568451,24.568451 0 0 0 24.56853,-24.56853 24.568451,24.568451 0 0 0 -24.56853,-24.56852 z m 6.55206,32.01406 c 0.14324,0.003 0.29553,0.0262 0.45888,0.0724 1.74249,0.49269 0.1715,2.32996 1.10691,3.65352 0.93541,1.32357 3.42154,0.78198 3.19257,2.43086 -0.22897,1.64889 -2.57087,1.15159 -3.87676,2.49598 -1.30589,1.34438 -0.24197,3.15711 -2.12597,3.68349 -1.88401,0.52638 -1.76065,-1.61829 -3.50315,-2.11098 -1.74249,-0.49269 -3.57077,1.16957 -4.50618,-0.154 -0.93541,-1.32356 1.48255,-2.1514 1.71152,-3.80028 0.22897,-1.64888 -1.96528,-2.4342 -0.65939,-3.77858 1.30589,-1.34439 2.67747,0.28815 4.56148,-0.23823 1.70738,-0.47703 2.25537,-2.2859 3.64009,-2.25413 z"
       id="path3713-5"
       inkscape:connector-curvature="0" />
    <ellipse
       style="fill:#ffffff;stroke:none;stroke-width:0.15968767"
       id="path3719-6"
       cx="-65.694702"
       cy="86.017876"
       rx="1.4631361"
       ry="1.3615953"
       transform="matrix(0.09975245,-0.99501229,0.9767789,0.2142498,0,0)" />
  </g>
</svg>
