<?xml version="1.0" encoding="UTF-8" standalone="no"?>
<!-- Created with Inkscape (http://www.inkscape.org/) -->

<svg
   width="31.228125mm"
   height="55.399864mm"
   viewBox="0 0 31.228125 55.399864"
   version="1.1"
   id="svg1"
   xml:space="preserve"
   xmlns="http://www.w3.org/2000/svg"
   xmlns:svg="http://www.w3.org/2000/svg"><defs
     id="defs1" /><g
     id="layer1"
     transform="translate(-346.77576,-138.38055)"><path
       d="m 362.30927,193.27893 c -0.16038,-0.89284 -0.66659,-4.19599 -0.72806,-4.75077 -0.068,-0.61379 0.0308,-0.57343 -1.59145,-0.65005 -2.03635,-0.0962 -4.4609,-0.47456 -6.80731,-1.06239 -1.07713,-0.26984 -2.41712,-0.66965 -2.37728,-0.7093 0.0573,-0.057 2.70685,-0.71487 3.51183,-0.87198 2.00152,-0.39065 3.98149,-0.64738 5.66174,-0.73413 l 1.08151,-0.0558 -0.0488,-0.42776 c -0.0475,-0.41592 -0.25056,-2.64037 -0.37287,-4.08354 l -0.0605,-0.71435 -0.8808,-0.0584 c -1.83549,-0.12164 -4.33484,-0.51982 -6.26267,-0.99771 -1.33611,-0.33121 -2.5627,-0.69588 -2.563,-0.762 -1.3e-4,-0.0293 0.0849,-0.0715 0.18885,-0.0938 0.104,-0.0223 0.624,-0.15522 1.15556,-0.29531 2.26445,-0.5968 4.9188,-1.02245 7.62855,-1.2233 0.24369,-0.0181 0.45873,-0.0485 0.47787,-0.0676 0.0191,-0.0191 -0.007,-1.15916 -0.0589,-2.53338 l -0.0937,-2.49859 -0.67834,-0.002 c -1.82667,-0.004 -4.13778,-0.60234 -5.76281,-1.49163 -3.25684,-1.78226 -5.47831,-4.72435 -6.36045,-8.42365 -0.31454,-1.31901 -0.36904,-3.76341 -0.12182,-5.46283 0.32642,-2.24382 0.74831,-3.68976 2.3666,-8.11111 0.59241,-1.61852 1.14166,-3.26135 1.22056,-3.65074 0.28797,-1.42116 -0.0163,-2.51675 -0.93106,-3.35281 -0.6494,-0.59352 -1.21451,-0.79636 -2.19991,-0.78966 -0.84339,0.006 -1.0368,-0.0789 -0.87426,-0.38263 0.10871,-0.20313 0.90593,-0.50616 1.58359,-0.60195 2.14633,-0.30338 4.23331,1.18602 4.69162,3.34825 0.26496,1.25004 0.13431,2.10799 -0.89221,5.8586 -1.14991,4.20144 -1.42437,5.71961 -1.42375,7.87562 8.7e-4,3.08314 0.8859,5.43562 2.79273,7.42329 1.60244,1.67038 3.81402,2.75998 5.9723,2.94242 l 0.62182,0.0526 0.0577,-1.9232 c 0.1967,-6.55017 0.83707,-13.24575 1.8677,-19.52833 0.25974,-1.58335 0.36903,-2.11178 0.36903,-1.78423 0,0.0517 0.12998,0.80496 0.28884,1.67381 1.09633,5.99609 1.8816,13.36445 2.0257,19.00758 0.0255,0.99962 0.0666,1.98277 0.0912,2.18477 l 0.0448,0.36728 0.50973,-0.0577 c 0.90244,-0.1021 2.10051,-0.46337 3.04867,-0.91932 2.81316,-1.35275 4.75116,-3.89879 5.39529,-7.08804 0.11438,-0.56631 0.14783,-1.12751 0.14411,-2.41827 -0.007,-2.39721 -0.20833,-3.50205 -1.49476,-8.19873 -0.73661,-2.68931 -0.89311,-3.46015 -0.89311,-4.39902 0,-1.59535 0.74578,-3.02042 1.99829,-3.81842 0.74183,-0.47263 1.36936,-0.62455 2.41386,-0.58437 0.78941,0.0304 1.0018,0.0705 1.45399,0.27444 0.47111,0.21252 0.52675,0.26291 0.50425,0.45659 -0.0252,0.2164 -0.0301,0.21778 -0.82369,0.22767 -0.59862,0.007 -0.91731,0.0555 -1.27366,0.19215 -1.24808,0.47845 -2.00393,1.60093 -2.00393,2.9759 0,0.84037 0.18706,1.51434 1.13907,4.10387 1.53662,4.17976 2.09688,6.02991 2.49439,8.23722 0.25077,1.39253 0.26958,4.24155 0.0357,5.40402 -0.46058,2.289 -1.49282,4.41157 -2.95324,6.07267 -2.26791,2.57954 -5.32099,4.07413 -8.7418,4.27943 -0.51559,0.0309 -0.95176,0.0963 -0.9862,0.14779 -0.034,0.0508 -0.0647,0.62177 -0.0684,1.26889 -0.004,0.64711 -0.0365,1.72494 -0.0729,2.39516 -0.0399,0.73366 -0.0353,1.2388 0.0115,1.26936 0.0428,0.0279 0.49217,0.0759 0.99867,0.1067 1.08092,0.0657 3.08634,0.32473 4.35037,0.56202 1.37882,0.25884 4.06061,0.9377 3.98581,1.00895 -0.2073,0.19746 -3.36297,0.98965 -5.13184,1.28829 -1.14402,0.19314 -3.23206,0.44138 -4.13749,0.49189 l -0.37819,0.0211 -0.0622,0.67233 c -0.0922,0.99635 -0.40821,4.26645 -0.42633,4.41214 -0.0128,0.10315 0.16759,0.13664 0.99282,0.18428 2.673,0.15432 5.79339,0.6614 8.27723,1.34511 l 0.96569,0.26581 -0.28583,0.11663 c -0.51744,0.21114 -2.71471,0.77469 -4.01926,1.03086 -1.62648,0.31938 -3.6296,0.5773 -4.93186,0.63503 -0.55795,0.0247 -1.12955,0.0621 -1.2702,0.0831 l -0.25574,0.0381 -0.1898,1.23905 c -0.21864,1.42743 -0.76335,4.49656 -0.80553,4.53874 -0.0157,0.0157 -0.0713,-0.20981 -0.1236,-0.50105 z"
       style="fill:#000000"
       id="path1-28" /></g></svg>
