<?xml version="1.0" encoding="UTF-8" standalone="no"?>
<!-- Created with Inkscape (http://www.inkscape.org/) -->

<svg
   width="46.395313mm"
   height="54.685993mm"
   viewBox="0 0 46.395313 54.685993"
   version="1.1"
   id="svg1"
   xml:space="preserve"
   xmlns="http://www.w3.org/2000/svg"
   xmlns:svg="http://www.w3.org/2000/svg"><defs
     id="defs1" /><g
     id="layer1"
     transform="translate(-320.2549,-34.722843)"><path
       d="m 343.202,89.19517 c -0.0725,-0.13036 -1.77092,-3.8865 -3.77418,-8.34696 l -3.64229,-8.10994 -0.28028,-0.0206 c -4.45326,-0.32775 -7.09973,-1.94334 -7.67549,-4.68566 -0.14887,-0.70903 -0.15683,-1.15636 -0.0332,-1.866202 0.0873,-0.501066 0.23642,-0.781084 0.41609,-0.781084 0.0424,0 0.26874,0.263479 0.50296,0.585508 0.81429,1.119548 2.04757,1.992308 3.27381,2.316798 0.50953,0.13484 1.8489,0.26364 1.8489,0.1778 0,-0.12851 -7.57425,-16.902289 -8.35446,-18.501599 -0.47353,-0.970672 -1.33546,-2.63468 -1.9154,-3.697797 -1.63611,-2.999235 -2.15217,-4.117075 -2.61889,-5.672755 -0.48825,-1.62742 -0.79868,-4.10828 -0.66251,-5.29458 0.0585,-0.50993 0.0767,-0.54626 0.27281,-0.54626 0.18399,0 0.27,0.12012 0.69206,0.96647 0.26507,0.53156 0.82792,1.77956 1.25077,2.77335 1.26235,2.96677 1.68755,3.73113 3.17114,5.700572 1.23487,1.639286 1.59835,2.222974 2.91343,4.678469 0.84527,1.578288 1.31519,2.250027 2.1791,3.115008 1.29348,1.295069 1.96914,1.592692 4.18484,1.843367 2.04762,0.23166 2.9922,0.481189 6.64562,1.755574 2.83613,0.989297 4.16734,1.29129 6.02418,1.366624 1.86024,0.07547 3.49614,-0.263623 4.93684,-1.023322 1.82645,-0.963116 2.89213,-2.223954 4.68629,-5.544516 1.25243,-2.317951 1.55379,-2.785176 3.21218,-4.980105 2.29229,-3.033911 2.61372,-3.570191 3.7648,-6.281371 0.69641,-1.64027 1.74801,-3.93471 1.93226,-4.21591 0.0892,-0.13609 0.198,-0.19761 0.3191,-0.18037 0.18219,0.0259 0.18371,0.0404 0.17502,1.66496 -0.008,1.41845 -0.0382,1.78028 -0.22771,2.6911 -0.42073,2.02212 -1.10585,3.71161 -2.65751,6.553389 -1.64817,3.018505 -3.11473,6.085788 -6.26465,13.102399 -1.68918,3.762746 -3.06135,6.847668 -3.04927,6.855382 0.0121,0.0077 0.21107,0.120312 0.44219,0.250218 1.1546,0.648994 2.38447,1.758683 3.17107,2.861203 0.75269,1.055 1.68212,3.17718 1.54639,3.53089 -0.084,0.21899 -0.36682,0.13626 -1.03808,-0.30371 -0.90701,-0.59448 -2.33008,-1.26523 -3.42726,-1.61542 -0.94435,-0.3014 -2.06733,-0.56212 -2.41263,-0.56014 -0.1743,0.001 -0.61254,0.93479 -4.60478,9.81177 -3.83311,8.52314 -4.43703,9.81419 -4.60175,9.83758 -0.13635,0.0194 -0.22665,-0.0397 -0.3215,-0.2101 z m 1.62508,-16.28882 c 0.86336,-1.72769 1.32209,-2.73133 1.2484,-2.73133 -0.19999,0 -1.54311,0.40208 -3.12773,0.93631 l -1.52171,0.51304 0.97518,2.00665 c 0.53635,1.10366 0.99449,2.00666 1.01808,2.00666 0.0236,0 0.65709,-1.2291 1.40778,-2.73133 z m -2.92085,-6.738741 c 2.63152,-0.917475 4.43633,-1.37232 6.18001,-1.557477 l 0.98164,-0.104237 0.62624,-1.250398 c 0.34443,-0.687719 0.61142,-1.265218 0.59331,-1.283332 -0.0181,-0.01811 -0.42693,0.03041 -0.90847,0.107822 -0.6059,0.09741 -1.38021,0.140345 -2.51432,0.139416 -2.38943,-0.002 -3.41293,-0.212037 -6.44052,-1.321957 -0.69961,-0.256477 -1.60725,-0.563735 -2.01698,-0.682797 -0.84728,-0.246204 -2.51343,-0.448689 -2.64114,-0.320974 -0.0525,0.05247 0.54466,1.354667 1.68117,3.666217 l 1.76254,3.584838 0.57088,-0.21753 c 0.31399,-0.11964 1.27052,-0.461456 2.12564,-0.759591 z"
       style="fill:#000000"
       id="path1-9" /></g></svg>
