<?xml version="1.0" encoding="UTF-8" standalone="no"?>
<!-- Created with Inkscape (http://www.inkscape.org/) -->

<svg
   width="45.669159mm"
   height="56.030613mm"
   viewBox="0 0 45.669159 56.030613"
   version="1.1"
   id="svg1"
   xml:space="preserve"
   xmlns="http://www.w3.org/2000/svg"
   xmlns:svg="http://www.w3.org/2000/svg"><defs
     id="defs1" /><g
     id="layer1"
     transform="translate(-567.42832,201.49639)"><path
       d="m 574.19196,-145.5926 c -1.02931,-0.22286 -2.09529,-0.75706 -2.96892,-1.48783 -1.00347,-0.83937 -2.03657,-2.48137 -2.57226,-4.08829 -0.5565,-1.66937 -1.02614,-4.6433 -1.17903,-7.46603 -0.1163,-2.14729 -0.0355,-2.51686 0.69837,-3.1933 1.09256,-1.00709 2.83297,-0.63599 3.445,0.73455 0.13678,0.30631 0.18157,0.65351 0.2332,1.80782 0.15366,3.43529 0.66718,6.27623 1.39634,7.72481 0.27181,0.54 0.9854,1.29322 1.40952,1.48781 1.24997,0.5735 2.63424,-0.45366 3.20597,-2.3789 0.30733,-1.03488 0.37496,-1.71965 0.66249,-6.70766 0.31904,-5.53472 0.90257,-8.70321 2.19779,-11.9338 0.88038,-2.19588 2.18888,-4.32061 3.63577,-5.90374 l 0.43202,-0.4727 -0.19007,-0.95079 c -0.27005,-1.35087 -0.26754,-3.65958 0.005,-4.94273 0.56354,-2.64969 1.74536,-4.85693 3.57736,-6.68125 1.18091,-1.17597 2.20072,-1.89955 3.78572,-2.68606 2.63456,-1.30733 4.74097,-1.78379 8.92667,-2.01916 1.22733,-0.069 2.46115,-0.18252 2.78526,-0.25624 1.08143,-0.24597 1.76702,-0.89017 1.53318,-1.44062 -0.1505,-0.35427 -0.48497,-0.55716 -0.98718,-0.5988 -0.37828,-0.0314 -0.52111,0.003 -0.96569,0.23472 -1.24815,0.64959 -2.56125,0.29083 -3.13269,-0.8559 -0.41493,-0.83265 -0.22456,-2.00377 0.423,-2.60219 0.33991,-0.31412 1.28019,-0.81233 1.9015,-1.00753 0.74413,-0.23377 2.04147,-0.2908 2.83641,-0.12469 0.8056,0.16834 1.99947,0.76845 2.62284,1.3184 0.58937,0.51995 1.24262,1.47891 1.49334,2.19219 0.26192,0.74512 0.32384,2.09781 0.13025,2.84545 -0.40696,1.57167 -1.48697,2.87171 -3.06357,3.68771 -1.30819,0.67707 -2.46538,0.90688 -5.13276,1.01932 -1.04001,0.0438 -2.21238,0.12018 -2.60527,0.16966 -4.47691,0.56378 -7.60437,2.48682 -9.08525,5.5864 -0.51355,1.07488 -0.74329,1.89921 -0.80736,2.89687 l -0.0511,0.79586 0.24456,-0.16028 c 4.01664,-2.63234 9.03783,-4.40173 14.3214,-5.04663 2.61567,-0.31927 7.54501,-0.23806 8.40408,0.13845 0.78155,0.34253 1.25483,1.02053 1.32531,1.89856 0.0377,0.46918 0.013,0.58738 -0.22184,1.06446 -0.27549,0.55959 -0.61416,0.88415 -1.16654,1.11792 -0.2823,0.11947 -0.52831,0.12241 -2.36215,0.0282 -3.41994,-0.17568 -6.32354,0.0971 -9.46655,0.88938 -6.76947,1.70639 -12.05693,5.42696 -14.43865,10.1599 -1.51024,3.00113 -2.18018,6.31135 -2.53428,12.52208 -0.30938,5.42624 -0.44951,6.38995 -1.18156,8.1257 -1.3982,3.31527 -4.52074,5.20827 -7.51998,4.55889 z"
       style="fill:#000000"
       id="path1-26" /></g></svg>
