<?xml version="1.0" encoding="UTF-8" standalone="no"?>
<!-- Created with Inkscape (http://www.inkscape.org/) -->

<svg
   width="45.878212mm"
   height="54.31102mm"
   viewBox="0 0 45.878212 54.31102"
   version="1.1"
   id="svg1"
   xml:space="preserve"
   xmlns="http://www.w3.org/2000/svg"
   xmlns:svg="http://www.w3.org/2000/svg"><defs
     id="defs1" /><g
     id="layer1"
     transform="translate(-371.82259,-56.893708)"><path
       d="m 386.33393,111.1642 c -0.49985,-0.097 -0.78534,-0.26485 -1.18173,-0.69488 -0.66304,-0.71932 -0.61056,1.07114 -0.61056,-20.82979 V 70.073269 l -5.52568,-0.0018 c -5.1661,-0.0017 -5.54757,-0.01182 -5.86185,-0.155088 -0.85048,-0.387691 -1.33331,-1.12313 -1.33152,-2.028132 6e-4,-0.30353 0.0586,-0.67968 0.13053,-0.84652 0.19915,-0.46192 0.65191,-0.92466 1.11634,-1.14093 l 0.42081,-0.19597 5.52569,-8.2e-4 5.52568,-8.2e-4 v -3.35704 c 0,-2.10979 0.0341,-3.51653 0.0918,-3.78545 0.1859,-0.86684 0.99706,-1.57515 1.89637,-1.65593 0.94775,-0.0851 1.71549,0.32286 2.17187,1.15415 l 0.25212,0.45923 0.0252,3.59275 0.0252,3.59274 h 6.03026 6.03026 l 0.43474,0.21664 c 0.83102,0.41412 1.2384,1.13683 1.17672,2.08753 -0.0446,0.688172 -0.19422,1.021722 -0.66151,1.475212 -0.62742,0.608895 -0.41034,0.590748 -7.0669,0.590748 h -5.95193 v 3.070622 3.070622 l 0.48324,-0.328019 c 0.72922,-0.494994 1.94524,-1.079404 2.77111,-1.33177 0.64056,-0.195741 0.88685,-0.225843 1.87215,-0.228809 1.02092,-0.0031 1.19628,0.01888 1.75095,0.219164 0.87556,0.316155 1.47949,0.697341 2.11769,1.336626 0.63073,0.631811 1.16042,1.560527 1.38453,2.427566 0.1561,0.603918 0.18192,1.84764 0.0508,2.444909 -0.10106,0.460121 -0.21508,1.757133 -0.15449,1.757133 0.0246,0 0.46091,-0.57673 0.96967,-1.281622 1.70765,-2.365962 2.63997,-3.257383 4.15538,-3.973057 0.92199,-0.435422 1.57041,-0.581094 2.58376,-0.580457 1.49425,9.38e-4 2.64672,0.492017 3.64986,1.555239 1.72948,1.833055 1.98856,4.500473 0.72603,7.47487 -1.01308,2.386709 -3.24173,5.886274 -6.70531,10.529064 -3.11599,4.17686 -3.41392,4.72334 -3.4225,6.27768 -0.006,1.04468 0.1325,1.43057 0.74859,2.08923 0.5112,0.5465 1.06614,0.7851 1.93924,0.83376 0.88941,0.0496 1.48982,-0.0848 2.3765,-0.53175 1.06924,-0.53902 2.07302,-1.33617 3.59085,-2.85168 1.49004,-1.48775 2.30675,-2.51442 2.8093,-3.5315 0.76355,-1.54532 0.79486,-2.99778 0.0733,-3.39789 -0.28,-0.15525 -0.42952,-0.0512 -0.67401,0.46891 -0.37907,0.80642 -1.38309,1.37486 -2.22465,1.25951 -0.43513,-0.0596 -1.09343,-0.37975 -1.34563,-0.65435 -0.39095,-0.42567 -0.57506,-0.92139 -0.57506,-1.5484 0,-0.5329 0.0381,-0.67145 0.36677,-1.33479 0.61046,-1.23195 1.67922,-2.119317 3.03112,-2.516648 0.57972,-0.170384 1.8308,-0.174954 2.46788,-0.009 2.52828,0.658528 4.1751,3.352828 3.84616,6.292518 -0.30303,2.70818 -1.54968,4.92653 -4.41647,7.85894 -2.09684,2.14483 -3.49739,3.24148 -5.1195,4.00863 -4.17867,1.97622 -8.61179,0.74992 -10.50436,-2.90576 -1.20254,-2.3228 -1.14946,-4.84047 0.15856,-7.52166 0.55856,-1.14494 1.01071,-1.82056 2.89462,-4.3252 3.32022,-4.414217 4.96135,-6.89523 6.21408,-9.394266 0.80005,-1.595986 1.0186,-2.567014 0.73209,-3.252711 -0.33846,-0.810056 -1.40054,-0.561287 -2.46291,0.576881 -0.52342,0.560766 -3.65574,4.880918 -9.64989,13.309276 -1.29122,1.81559 -2.35889,3.26744 -2.3726,3.22634 -0.0358,-0.10737 1.11493,-11.162713 1.7495,-16.808078 0.1368,-1.217007 0.24873,-2.289159 0.24873,-2.382558 0,-0.0934 -0.12859,-0.2984 -0.28574,-0.455556 -0.25062,-0.250619 -0.33868,-0.285739 -0.71645,-0.285739 -0.92261,0 -2.17977,0.660727 -3.20184,1.6828 -0.78069,0.780691 -1.29593,1.732904 -1.65874,3.065508 l -0.2288,0.840408 -0.0427,12.606125 -0.0427,12.60612 -0.194,0.39385 c -0.45641,0.92657 -1.44266,1.43067 -2.42585,1.23992 z"
       style="fill:#000000"
       id="path1-37" /></g></svg>
