<?xml version="1.0" encoding="UTF-8" standalone="no"?>
<!-- Created with Inkscape (http://www.inkscape.org/) -->

<svg
   width="69.332443mm"
   height="57.440815mm"
   viewBox="0 0 69.332443 57.440815"
   version="1.1"
   id="svg1"
   xml:space="preserve"
   xmlns="http://www.w3.org/2000/svg"
   xmlns:svg="http://www.w3.org/2000/svg"><defs
     id="defs1" /><g
     id="layer1"
     transform="translate(-314.7982,140.21439)"><path
       d="m 349.11183,-84.415397 c -0.36919,-2.31562 -0.72112,-4.86575 -0.97379,-7.05618 -0.31482,-2.72922 -0.2822,-2.55715 -0.49303,-2.6 -0.10119,-0.0206 -0.52435,-0.0599 -0.94036,-0.0874 -1.12178,-0.0742 -3.3871,-0.36168 -4.56764,-0.5797 l -1.03793,-0.19168 -2.95078,2.67108 c -1.62293,1.46909 -2.96471,2.65715 -2.98174,2.64012 -0.017,-0.017 0.29352,-1.48977 0.6901,-3.27276 0.39659,-1.78299 0.72107,-3.27442 0.72107,-3.31429 0,-0.0399 -0.25527,-0.17883 -0.56727,-0.30879 -0.62043,-0.25844 -2.45721,-1.157541 -3.25658,-1.594101 l -0.50425,-0.27538 -5.19963,3.397321 c -2.8598,1.86852 -5.20873,3.38611 -5.21984,3.37241 -0.0111,-0.0137 1.45004,-2.25038 3.24699,-4.9704 l 3.26719,-4.945493 -0.41081,-0.47514 c -1.35914,-1.572 -2.32415,-3.4249 -2.80798,-5.39153 l -0.11371,-0.46222 -2.72619,-0.30699 c -4.08908,-0.46045 -8.07514,-0.99564 -7.41548,-0.99564 0.0479,0 0.85781,-0.11253 1.79987,-0.25007 1.80239,-0.26314 5.67863,-0.76168 7.28266,-0.93666 0.85049,-0.0928 0.95094,-0.12123 0.98063,-0.27772 0.0182,-0.0959 0.0774,-0.45799 0.13159,-0.80466 0.44372,-2.83923 2.41865,-5.84313 5.29379,-8.05195 0.39289,-0.30184 0.76171,-0.59107 0.81959,-0.64275 0.0833,-0.0744 -0.0526,-0.80188 -0.65283,-3.49441 -0.41694,-1.87025 -0.74793,-3.44697 -0.73555,-3.50381 0.0124,-0.0568 1.02471,0.80623 2.24961,1.91793 1.22489,1.11171 2.43556,2.20363 2.69036,2.42651 l 0.46328,0.40523 0.75531,-0.31381 c 0.41542,-0.1726 1.12238,-0.43585 1.57102,-0.58501 l 0.8157,-0.2712 -0.0443,-0.51956 c -0.0707,-0.82856 -0.77529,-11.52742 -0.76016,-11.543 0.008,-0.008 1.26986,2.43154 2.8052,5.42064 l 2.79153,5.43472 0.27588,-0.006 c 0.15173,-0.003 0.80533,-0.0678 1.45245,-0.14355 0.64711,-0.0757 1.50077,-0.16213 1.89702,-0.19196 l 0.72046,-0.0542 0.14611,-1.65111 c 0.42895,-4.84747 1.65076,-13.77349 1.82452,-13.32921 0.0633,0.16178 0.0646,0.16172 0.0778,-0.004 0.093,-1.15918 1.61134,10.19702 1.8954,14.17639 l 0.0581,0.8139 0.55617,0.0518 c 0.30589,0.0285 1.26965,0.12866 2.1417,0.22264 0.87205,0.094 1.61354,0.13934 1.64776,0.10081 0.0342,-0.0385 1.30619,-2.49642 2.8266,-5.46196 1.52042,-2.96553 2.77171,-5.3849 2.78065,-5.37635 0.0156,0.0149 -0.68623,10.85093 -0.75576,11.66897 l -0.0337,0.39649 0.68074,0.22606 c 0.3744,0.12433 1.07669,0.38938 1.56064,0.589 l 0.87991,0.36294 0.21262,-0.19467 c 0.11695,-0.10708 1.23372,-1.11432 2.48173,-2.23832 1.24801,-1.124 2.389,-2.15565 2.53555,-2.29254 l 0.26645,-0.24891 -0.0722,0.32516 c -0.0397,0.17884 -0.37919,1.72444 -0.75446,3.43467 -0.37528,1.71024 -0.69996,3.17045 -0.72151,3.24493 -0.027,0.0931 0.16401,0.28836 0.61142,0.6251 3.0998,2.3331 5.11429,5.34963 5.60057,8.3864 0.0652,0.4071 0.15169,0.76839 0.19221,0.80285 0.0405,0.0345 1.13999,0.18561 2.44325,0.33588 2.74359,0.31635 7.49099,0.97558 7.56605,1.05065 0.0282,0.0282 -0.0118,0.0512 -0.0888,0.0512 -0.077,0 -1.11384,0.13022 -2.30412,0.28938 -1.19027,0.15916 -3.39323,0.42522 -4.89546,0.59125 -1.50223,0.16603 -2.77483,0.31681 -2.828,0.33507 -0.0532,0.0183 -0.12364,0.19657 -0.15659,0.39623 -0.0953,0.57743 -0.45329,1.64575 -0.81074,2.41944 -0.38652,0.83663 -1.39037,2.36727 -1.99049,3.03506 l -0.42169,0.46924 3.21374,4.870373 c 1.76755,2.67871 3.24572,4.92213 3.28482,4.9854 0.0899,0.14544 0.69216,0.52911 -5.28542,-3.36707 l -5.12044,-3.337511 -0.42626,0.24945 c -0.70736,0.41395 -2.1543,1.13137 -3.03863,1.506601 -0.45831,0.19447 -0.8436,0.36202 -0.8562,0.37234 -0.0126,0.0103 0.3003,1.48698 0.69533,3.28148 0.39502,1.7945 0.70788,3.28906 0.69522,3.32125 -0.0127,0.0322 -0.855,-0.69743 -1.8719,-1.62138 -1.01689,-0.92395 -2.33302,-2.11602 -2.92473,-2.64906 l -1.07583,-0.96916 -1.23529,0.22102 c -1.56124,0.27934 -2.94458,0.4546 -4.37401,0.55416 -0.61695,0.043 -1.13318,0.0902 -1.14717,0.10494 -0.014,0.0147 -0.14448,1.02901 -0.28999,2.2539 -0.30989,2.60878 -0.67049,5.22202 -1.01984,7.39087 -0.2358,1.46392 -0.32146,1.83933 -0.33506,1.46844 -0.006,-0.15587 -0.008,-0.15575 -0.0704,0.004 -0.0422,0.10786 -0.1569,-0.415 -0.33192,-1.51274 z m -1.80407,-15.691383 c -0.0288,-0.52 -0.11435,-2.19346 -0.19008,-3.7188 -0.0757,-1.52534 -0.14301,-2.77975 -0.14951,-2.78757 -0.007,-0.008 -1.37318,-0.0553 -3.03707,-0.1054 -3.51447,-0.10594 -7.69328,-0.29612 -10.94611,-0.49817 -1.38227,-0.0859 -2.29011,-0.11097 -2.29011,-0.0633 0,0.0434 0.13675,0.32786 0.30389,0.63214 1.12485,2.04784 3.65568,4.00377 6.96001,5.379 2.54685,1.05997 6.16684,1.881152 9.2417,2.096432 0.15092,0.0106 0.15679,-0.0406 0.10728,-0.934282 z m 5.86804,0.774462 c 6.75429,-0.735182 12.53288,-3.563882 14.7406,-7.215732 0.15075,-0.24935 0.30924,-0.54583 0.35221,-0.65883 0.0759,-0.19961 0.0691,-0.20409 -0.23782,-0.15705 -0.32232,0.0494 -3.22516,0.23581 -5.94666,0.38187 -0.83201,0.0447 -2.8742,0.12201 -4.53821,0.17189 -1.66401,0.0499 -3.59731,0.11212 -4.29622,0.1383 l -1.27075,0.0476 -0.0579,1.39934 c -0.0319,0.76964 -0.11239,2.3258 -0.17895,3.45814 -0.0666,1.13234 -0.12102,2.181072 -0.12102,2.330532 0,0.30875 -0.2025,0.29521 1.55476,0.10394 z m -20.88331,-11.801532 c 3.27696,-0.25893 8.23567,-0.50163 12.32072,-0.60303 l 2.27868,-0.0566 0.0595,-2.61328 c 0.0327,-1.4373 0.0927,-3.27382 0.13333,-4.08115 0.0406,-0.80733 0.0597,-1.48198 0.0425,-1.49923 -0.056,-0.056 -1.90417,0.1603 -3.1409,0.36756 -2.15999,0.36197 -4.28894,0.96543 -6.18996,1.75455 -3.41303,1.41676 -6.15982,3.72204 -7.15752,6.00703 -0.15293,0.35023 -0.27851,0.68406 -0.27907,0.74184 -0.001,0.13173 0.0468,0.13129 1.93275,-0.0177 z m 36.27005,-0.10833 c -0.11504,-0.50197 -0.82473,-1.77991 -1.35473,-2.43949 -2.60377,-3.24036 -8.53675,-5.77266 -14.72812,-6.28622 l -0.6961,-0.0577 0.0459,0.32625 c 0.0596,0.42336 0.21124,5.2812 0.21151,6.77638 l 2.1e-4,1.15556 1.0295,3.1e-4 c 2.16524,6.5e-4 8.58232,0.29481 12.75319,0.58461 3.04589,0.21163 2.802,0.21695 2.7386,-0.0597 z"
       style="fill:#000000"
       id="path1-2" /></g></svg>
