<?xml version="1.0" encoding="UTF-8" standalone="no"?>
<!-- Created with Inkscape (http://www.inkscape.org/) -->

<svg
   width="67.47361mm"
   height="31.158102mm"
   viewBox="0 0 67.47361 31.158102"
   version="1.1"
   id="svg1"
   xml:space="preserve"
   xmlns="http://www.w3.org/2000/svg"
   xmlns:svg="http://www.w3.org/2000/svg"><defs
     id="defs1" /><g
     id="layer1"
     transform="translate(-287.29019,14.203128)"><path
       d="m 319.64509,14.613011 -0.83383,-2.46367 -1.59073,-0.0143 -1.59074,-0.0143 -1.04597,1.87349 c -0.57528,1.03042 -1.06704,1.85242 -1.0928,1.82666 -0.0257,-0.0258 -0.16548,-0.95337 -0.3105,-2.06135 -0.14502,-1.10799 -0.28236,-2.03321 -0.30519,-2.05605 -0.0228,-0.0228 -0.4913,-0.1583 -1.04104,-0.30104 -0.54974,-0.14273 -1.44453,-0.42099 -1.98844,-0.61835 l -0.98892,-0.35884 -1.24186,1.68804 -1.24186,1.68803 -0.0637,-1.21848 c -0.035,-0.67016 -0.0918,-1.72338 -0.12606,-2.34048 l -0.0624,-1.12201 -0.76415,-0.4392 c -0.42028,-0.24155 -1.20563,-0.73319 -1.74522,-1.09253 -0.53959,-0.35933 -1.02772,-0.63418 -1.08475,-0.61076 -0.057,0.0234 -0.9735,0.63179 -2.03661,1.35194 -1.26061,0.85394 -1.94185,1.26877 -1.95855,1.19263 -0.0141,-0.0642 0.092,-1.33459 0.23578,-2.82306 L 299.02893,3.99307 298.16097,3.0985 c -0.47738,-0.49202 -1.14962,-1.21604 -1.49387,-1.60893 -0.34425,-0.39289 -0.66204,-0.70268 -0.70619,-0.68842 -0.29977,0.0968 -4.72947,3.45175 -7.58933,5.748001 -0.56395,0.45281 -1.04645,0.82328 -1.07224,0.82328 -0.13525,0 1.25877,-2.281171 2.18268,-3.571731 1.28839,-1.7997 2.48005,-3.16619 4.65691,-5.34013 2.81778,-2.8139993 5.72681,-5.3004993 7.9103,-6.7613494 6.96892,-4.6625106 15.35013,-6.6913206 23.23313,-5.6239696 6.04025,0.817849 12.71797,3.29519 16.85019,6.2511796 0.43911,0.31412 1.52374,1.1930401 2.41028,1.9531601 2.57765,2.2100601 3.61928,2.8392301 4.80717,2.9036501 0.77814,0.0422 1.11708,-0.0815 1.68868,-0.61613 1.59745,-1.4942301 1.04709,-4.7066702 -1.2318,-7.1899298 -0.45773,-0.49878 -0.52163,-0.60606 -0.44561,-0.74811 0.13719,-0.25634 0.40227,-0.20233 1.35159,0.27539 1.58494,0.79758 2.78879,1.8609696 3.37961,2.9852896 0.49973,0.951 0.66791,1.7138201 0.67123,3.0446401 0.002,0.99496 -0.0249,1.22562 -0.22223,1.8747401 -0.50397,1.6574392 -1.39268,2.8693392 -2.77892,3.7894692 -1.10366,0.73257 -2.23935,1.06345 -3.6631,1.06725 -1.86025,0.005 -3.5949,-0.54057 -5.74796,-1.80772 -0.43884,-0.25827 -0.83321,-0.46958 -0.87639,-0.46958 -0.0432,0 -0.26273,0.21561 -0.48791,0.47912 l -0.4094,0.47912 -0.042,3.48234 -0.042,3.482351 -1.63879,-1.4874 C 337.95366,5.00601 337.16835,4.31582 337.10988,4.29032 c -0.0591,-0.0257 -0.38357,0.21701 -0.72989,0.54597 -0.34296,0.32578 -1.03638,0.934241 -1.54094,1.352141 l -0.91738,0.75982 -0.0523,0.77937 c -0.0288,0.42865 -0.0974,1.52628 -0.15257,2.43917 -0.0551,0.91289 -0.12231,1.65971 -0.14929,1.65959 -0.027,-1.2e-4 -0.62911,-0.67947 -1.33807,-1.50968 l -1.28901,-1.50946 -0.99376,0.49815 c -0.85243,0.42732 -1.00053,0.53146 -1.04136,0.7323 -0.0262,0.12879 -0.25736,1.34979 -0.51372,2.71336 -0.25636,1.36356 -0.49446,2.54837 -0.5291,2.6329 -0.0468,0.11419 -0.34333,-0.43252 -1.15335,-2.12636 -0.96518,-2.01829 -1.10967,-2.27449 -1.25852,-2.23154 -0.32511,0.0938 -2.19112,0.53763 -2.72218,0.64746 l -0.53703,0.11107 -0.81321,2.52122 c -0.44726,1.38667 -0.83256,2.57737 -0.85622,2.646 -0.0236,0.0686 -0.41823,-0.98387 -0.87684,-2.33889 z m 2.06558,-7.95071 c 4.86332,-0.5836 9.12152,-1.951051 13.23643,-4.250651 1.25036,-0.69877 3.32288,-2.09145 4.48049,-3.01079 l 0.95079,-0.75508 -0.48856,-0.33153 c -1.33697,-0.9072592 -3.6327,-2.2395093 -5.28403,-3.0664093 -1.39677,-0.69944 -3.96326,-1.79359 -4.03615,-1.72071 -0.0129,0.0129 -0.10096,0.40352 -0.1956,0.86795 C 329.6444,-2.0245 327.56791,0.89719 324.73614,2.32785 319.76547,4.83909 313.97332,1.9188 312.0046,-4.0911693 c -0.28928,-0.88312 -0.54692,-2.05905 -0.54692,-2.49636 0,-0.14599 -0.0446,-0.24284 -0.11173,-0.24284 -0.0615,0 -0.58167,0.1288 -1.15604,0.28622 -3.65038,1.00045 -7.86127,3.0521601 -12.20514,5.9468093 -0.56327,0.37535 -1.04304,0.69932 -1.06615,0.71994 -0.0615,0.0548 0.34341,0.36555 1.38667,1.06429 3.50877,2.35002 7.49959,4.01405 11.71699,4.885561 1.70111,0.35152 3.14091,0.54775 5.46936,0.74541 0.92615,0.0786 5.1475,-0.027 6.21903,-0.15556 z m 0.96646,-9.1233302 c 2.2145,-0.68058 3.9619,-2.9729201 4.1349,-5.4244002 l 0.0501,-0.70979 h -5.73959 -5.73959 l 0.0539,0.63734 c 0.0777,0.9187901 0.26258,1.5655701 0.70677,2.4721701 0.32789,0.66922 0.51415,0.92228 1.15125,1.56416 0.6211,0.6257701 0.89066,0.8297301 1.47441,1.1156001 0.39289,0.1924 0.96016,0.4051492 1.26061,0.4727792 0.72454,0.16309 1.88257,0.10716 2.64728,-0.1278592 z"
       style="fill:#000000"
       id="path1-6" /></g></svg>
