<?xml version="1.0" encoding="UTF-8" standalone="no"?>
<!-- Created with Inkscape (http://www.inkscape.org/) -->

<svg
   width="55.96389mm"
   height="30.959669mm"
   viewBox="0 0 55.96389 30.959669"
   version="1.1"
   id="svg1"
   xml:space="preserve"
   xmlns="http://www.w3.org/2000/svg"
   xmlns:svg="http://www.w3.org/2000/svg"><defs
     id="defs1" /><g
     id="layer1"
     transform="translate(-377.22419,60.412643)"><path
       d="m 385.16295,-29.46698 c -3.55622,-0.33164 -6.48489,-2.67667 -7.54636,-6.04251 -0.47561,-1.50812 -0.52476,-3.14899 -0.11524,-3.84777 0.70895,-1.20975 2.29705,-1.41748 3.28484,-0.42969 0.43915,0.43915 0.63694,0.95821 0.63694,1.6715 0,1.1227 0.49773,2.31909 1.29918,3.12283 1.89635,1.90178 5.05654,1.67274 6.64234,-0.48141 0.93187,-1.26586 1.118,-3.01921 0.46859,-4.41434 -0.13184,-0.28325 -0.55267,-1.03962 -0.93518,-1.68082 -1.04374,-1.74964 -1.56391,-2.96989 -1.85831,-4.35938 -0.16194,-0.76428 -0.13856,-2.71458 0.0428,-3.57174 1.44643,-6.83592 9.08546,-11.21518 19.00656,-10.89598 5.94928,0.19141 10.65417,1.86464 13.85026,4.92567 1.02702,0.98362 1.7563,1.94517 2.3547,3.10466 0.91618,1.77524 1.18955,2.88199 1.18526,4.79859 -0.005,2.18705 -0.4194,3.42849 -2.07085,6.20224 -0.88323,1.48345 -1.05363,1.87186 -1.1615,2.6474 -0.18031,1.29635 0.25977,2.71727 1.11437,3.59813 0.8946,0.92208 1.77837,1.33859 2.9684,1.39896 1.26239,0.064 2.35558,-0.31759 3.22783,-1.12682 0.87815,-0.8147 1.33,-1.82206 1.43177,-3.19199 0.0522,-0.7023 0.10498,-0.92785 0.30201,-1.28986 0.84928,-1.5604 3.13873,-1.38524 3.77815,0.28905 0.11953,0.31298 0.13798,0.5597 0.10237,1.36899 -0.24503,5.56888 -5.61823,9.42039 -10.97619,7.86771 -1.39545,-0.40438 -2.65634,-1.15621 -3.71244,-2.2136 -1.79839,-1.80058 -2.72663,-4.41477 -2.45346,-6.90965 0.18405,-1.68093 0.73725,-3.08227 2.14259,-5.42745 0.82653,-1.37934 1.05665,-1.9765 1.12603,-2.92215 0.19096,-2.60258 -1.61191,-5.22108 -4.7632,-6.91806 -3.54182,-1.90729 -9.28063,-2.51717 -14.27458,-1.51699 -3.98612,0.79833 -7.17642,2.82495 -8.46027,5.37432 -0.49515,0.98325 -0.66643,1.68798 -0.66297,2.72775 0.004,1.18675 0.15385,1.62789 1.08931,3.20593 0.89295,1.50631 1.37908,2.47887 1.71139,3.42384 1.73446,4.93212 -1.28327,10.30396 -6.3771,11.35182 -0.60583,0.12462 -1.8741,0.20968 -2.39805,0.16082 z"
       style="fill:#000000"
       id="path1-61" /></g></svg>
