<?xml version="1.0" encoding="UTF-8" standalone="no"?>
<!-- Created with Inkscape (http://www.inkscape.org/) -->

<svg
   width="47.368019mm"
   height="45.367764mm"
   viewBox="0 0 47.368019 45.367764"
   version="1.1"
   id="svg1"
   xml:space="preserve"
   xmlns="http://www.w3.org/2000/svg"
   xmlns:svg="http://www.w3.org/2000/svg"><defs
     id="defs1" /><g
     id="layer1"
     transform="translate(-415.47153,206.62155)"><path
       d="m 423.80803,-165.31978 c -2.67729,-2.81263 -3.92852,-4.18651 -4.0709,-4.46993 -0.15571,-0.30995 -0.21397,-0.58244 -0.2402,-1.12354 -0.0685,-1.41291 0.40637,-2.51049 2.45399,-5.67223 l 1.39434,-2.15301 -10e-5,-7.62198 c -5e-5,-4.19208 -0.0251,-9.46526 -0.0557,-11.71815 l -0.0556,-4.09617 -3.88117,-0.0218 -3.88116,-0.0218 1.58172,-2.15374 1.58172,-2.15375 10.69623,-0.0597 c 5.88293,-0.0328 13.94861,-0.0455 17.92374,-0.0283 7.12757,0.031 7.23657,0.034 7.88306,0.2151 1.53372,0.42973 2.63804,1.30448 3.2544,2.5779 0.75444,1.55865 0.63703,3.16885 -0.35044,4.80602 -0.15506,0.25708 -0.74823,0.96508 -1.31817,1.57334 -0.56993,0.60827 -1.08546,1.20048 -1.14562,1.31604 -0.31258,0.60043 -0.21948,1.39245 0.22292,1.8963 0.35999,0.41001 0.70208,0.567 1.2446,0.5711 0.73694,0.006 1.2423,-0.34305 1.64421,-1.13434 0.35484,-0.69863 1.22274,-1.24902 1.96955,-1.24902 0.44234,0 1.07118,0.25415 1.44672,0.58473 0.85158,0.74958 0.96329,1.77911 0.32596,3.00414 -0.72315,1.39 -1.97148,2.43613 -3.53811,2.965 -0.69212,0.23367 -2.19622,0.32204 -2.9586,0.17385 -1.13695,-0.22102 -2.34294,-0.86041 -3.15556,-1.67304 -1.16864,-1.16864 -1.78218,-2.66285 -1.78218,-4.34035 0,-0.95538 0.15809,-1.70473 0.52903,-2.50758 0.41138,-0.89037 0.71604,-1.30225 1.79037,-2.42047 0.51868,-0.53985 1.00603,-1.10334 1.08301,-1.25219 0.1344,-0.2599 0.13288,-0.27772 -0.0382,-0.44885 -0.17659,-0.17665 -0.21344,-0.1782 -4.23083,-0.1782 h -4.0527 l 0.0312,17.47812 0.0312,17.47813 1.31344,1.62668 c 0.72239,0.89467 1.38277,1.71829 1.46752,1.83025 l 0.15408,0.20358 h -5.26242 -5.26242 l 1.51559,-1.80119 1.5156,-1.80118 v -10.83307 c 0,-5.95819 -0.0251,-13.84589 -0.0559,-17.52821 l -0.0559,-6.69513 h -6.88841 -6.88842 l 0.0629,20.46394 c 0.0355,11.56799 0.0311,20.46166 -0.0101,20.45869 -0.0401,-0.003 -1.81238,-1.83258 -3.93831,-4.06599 z"
       style="fill:#000000"
       id="path1-3" /></g></svg>
