<svg xmlns="http://www.w3.org/2000/svg" viewBox="0 0 512 512"><path d="M0 0h512v512H0z"/><path d="M129.284 156.072a70.653 70.653 0 0 0-6.262-2.29c-1.569-.476-3.18-.932-4.853-1.302a62.484 62.484 0 0 0-5.097-.912 47.967 47.967 0 0 0-5.139-.381h-2.511c-.826 0-1.642.095-2.437.17a35.612 35.612 0 0 0-4.514.741 30.844 30.844 0 0 0-3.867 1.145c-1.176.392-2.194.9-3.094 1.292-.9.392-1.632.858-2.236 1.208l-1.844 1.176 2.12-.445c.678-.116 1.504-.212 2.426-.339.922-.127 1.981-.159 3.179-.116a27.38 27.38 0 0 1 3.613.254 30.643 30.643 0 0 1 3.9.773c.656.18 1.324.35 1.991.594.668.243 1.325.455 1.992.73a39.957 39.957 0 0 1 3.889 1.802c1.26.689 2.5 1.41 3.666 2.193 1.165.785 2.12 1.452 3.073 2.194a35.305 35.305 0 0 1 12.005-8.487zm287.25 39.543a7.417 7.417 0 0 1-7.417 7.417H304.781v-16.953h111.753zM99.5 207.365c-40.783 27.03-77.211 113.057-73.195 170.497h98.54s-17.907-71.384 6.675-94.885c.382-.36.784-.7 1.198-1.06 10.966-19.485 11.178-37.562.37-52.629-9.61-13.425-24.804-20.418-33.588-21.922zm-13.033 137.49a12.715 12.715 0 1 1-12.715-12.714 12.715 12.715 0 0 1 12.715 12.715zm395.857-210.579a2.808 2.808 0 0 1 3.677 2.68v32.17H304.813V143.77h148.096zM124.187 198.91h-.159a74.562 74.562 0 0 1 22.834 20.492c14.325 19.942 12.778 40.423 7.089 56.582 5.382.222 10.066 1.695 12.227 4.418a55.744 55.744 0 0 0 43.866 21.35c23.237 0 45.212-14.643 48.487-41.503a23.618 23.618 0 0 0 18.15-16.582l11.157-38.315V136.48H157.913v7.237h-11.051v25.843c-27.549.053-22.717 29.35-22.717 29.35zm130.338-38.515a8.477 8.477 0 0 1-8.476 8.476h-55.564a8.477 8.477 0 0 1 0-16.953h55.564a8.477 8.477 0 0 1 8.476 8.477zm0 24.37a8.477 8.477 0 0 1-8.476 8.476h-55.564a8.477 8.477 0 0 1 0-16.953h55.564a8.477 8.477 0 0 1 8.476 8.477zm-8.476 32.317h-55.564a8.477 8.477 0 1 1 0-16.953h55.564a8.477 8.477 0 0 1 0 16.953zm-71.076 43.442c0-14.124 8.476-15.321 20.767-14.95.265 1.282.562 2.606.922 3.963.434 1.578.9 3.178 1.483 4.8.583 1.62 1.23 3.178 1.94 4.8a48.062 48.062 0 0 0 2.415 4.556c.424.73.88 1.43 1.356 2.119.477.688.954 1.335 1.442 1.97a35.57 35.57 0 0 0 3.03 3.434 30.78 30.78 0 0 0 3.03 2.67c.954.784 1.929 1.377 2.734 1.928.805.551 1.6.932 2.214 1.25l1.982.943-1.505-1.557c-.455-.509-.985-1.155-1.578-1.876a17.971 17.971 0 0 1-1.76-2.585 27.348 27.348 0 0 1-1.705-3.179 30.632 30.632 0 0 1-1.42-3.719c-.201-.657-.403-1.314-.551-2.002-.148-.69-.329-1.367-.445-2.12a39.935 39.935 0 0 1-.54-4.238 43.98 43.98 0 0 1-.096-4.238c.042-1.378.127-2.787.254-4.122.085-.795.18-1.557.287-2.31h1.165c19.56 0 35.411-4.8 35.411 14.474a35.416 35.416 0 0 1-70.833-.021z" fill="#fff"/></svg>