<svg xmlns="http://www.w3.org/2000/svg" viewBox="0 0 512 512"><path d="M0 0h512v512H0z"/><path d="M231.151 109.415l14.847 14.847-120.374 120.374-14.847-14.847L231.15 109.415zm28.854 28.854l-17.447 17.447 17.447-17.447zm-54.452 54.452l17.877 1.49-19.443 19.442-17.879-1.487 19.445-19.445zm131.116-83.735l21.153 4.464 16.336-16.336 15.425 15.425-148.478 148.478a4.47 4.47 0 0 0-.919 1.339l-77.504 173.873a4.457 4.457 0 0 0 1.024 5.07l13.474 12.632a4.457 4.457 0 0 1 .105 6.408l-31.235 31.236a4.457 4.457 0 0 1-5.735.482L58.1 434.654a28.377 28.377 0 0 1-3.835-43.265l282.403-282.403zm117.075-89.868L466 31.375 432.374 65l-2.091-2.091-31.158 31.157-8.474-8.474 31.157-31.157-1.69-1.691 33.626-33.627zM293.869 236.266l.086-.034-.06.06-.026-.025zm.026.026l10.26 10.26-.333.334c-1.96 1.961-11.94 12.221-11.6 17.448.745 11.162 11.276 44.544 21.562 48.475l5.962-5.963c11.653-11.827 10.91-18.176 10.191-24.304-1.742-14.821-8.08-50.697-11.678-70.614l11.415-11.415c2.81 15.4 11.312 62.35 13.431 80.471 1.112 9.517.955 20.058-13.884 35.142l-12.747 12.747-13.746 13.745-4.298 4.299s-34.617-27.052-32.288-58.551c.56-7.669-5.96-12.967-9.62-13.877l.664-1.488 36.709-36.709zm86.854-83.123l51.854 51.853-14.849 14.848-51.853-51.853 14.848-14.848zM222.09 351.556l64.269 36.025-27.096 48.35-59.837-33.54 22.664-50.835z" fill="#fff"/></svg>