<svg xmlns="http://www.w3.org/2000/svg" viewBox="0 0 512 512"><path d="M0 0h512v512H0z"/><path d="M208 26a9.5 9.5 0 0 0-9.5 9.5v96a9.5 9.5 0 0 0 9.5 9.5 9.5 9.5 0 0 0-9.5 9.5v96a9.5 9.5 0 0 0 9.5 9.5 9.5 9.5 0 0 0-9.5 9.5v96a9.5 9.5 0 0 0 9.5 9.5 9.5 9.5 0 0 0-9.5 9.5v96a9.5 9.5 0 0 0 9.5 9.5h96a9.5 9.5 0 0 0 9.5-9.5v-96a9.5 9.5 0 0 0-9.5-9.5 9.5 9.5 0 0 0 9.5-9.5v-96a9.5 9.5 0 0 0-9.5-9.5 9.5 9.5 0 0 0 9.5-9.5v-96a9.5 9.5 0 0 0-9.5-9.5 9.5 9.5 0 0 0 9.5-9.5v-96A9.5 9.5 0 0 0 304 26h-96zm9.5 19h77v77h-77V45zm0 115h77v77h-77v-77zm0 115h77v77h-77v-77zm0 115h77v77h-77v-77z" fill="#fff"/></svg>