<svg xmlns="http://www.w3.org/2000/svg" viewBox="0 0 512 512"><path d="M0 0h512v512H0z"/><path d="M150.5 141a9.5 9.5 0 0 0-9.5 9.5v96a9.5 9.5 0 0 0 9.5 9.5 9.5 9.5 0 0 0-9.5 9.5v96a9.5 9.5 0 0 0 9.5 9.5h96a9.5 9.5 0 0 0 9.5-9.5 9.5 9.5 0 0 0 9.5 9.5h96a9.5 9.5 0 0 0 9.5-9.5v-96a9.5 9.5 0 0 0-9.5-9.5 9.5 9.5 0 0 0 9.5-9.5v-96a9.5 9.5 0 0 0-9.5-9.5h-96a9.5 9.5 0 0 0-9.5 9.5 9.5 9.5 0 0 0-9.5-9.5h-96zm9.5 19h77v77h-77v-77zm115 0h77v77h-77v-77zm-19 86.5a9.5 9.5 0 0 0 9.5 9.5 9.5 9.5 0 0 0-9.5 9.5 9.5 9.5 0 0 0-9.5-9.5 9.5 9.5 0 0 0 9.5-9.5zM160 275h77v77h-77v-77zm115 0h77v77h-77v-77z" fill="#fff"/></svg>