<svg xmlns="http://www.w3.org/2000/svg" viewBox="0 0 512 512"><path d="M0 0h512v512H0z"/><path d="M496 136s-40.486 85.32-51.442 128.988c-14.33 57.118 2.078 100.297-18.747 155.68-35.998 64.97-38.435 75.466-169.81 75.33-48.132-.044-186.02-36.76-186.02-36.76C50.97 454.35 16 457.23 16 435.997c0-21.232 24.88-36.736 46.97-36.787l87.03 7.642c21.14-1.326 43.286-13.71 43.96-41.36-.353-40.927-4.4-72.357-25.175-105.6l-80.67-125.864c-4.818-10.02-5.964-27.105 7.983-34.732 13.947-7.628 29.793 3.71 35.205 13.582l90.11 122.57c9.618 8.955 26.738 10.68 25.278-8.38L206.903 44.652c-2.478-12.96 4.1-28.654 19.1-28.654 19.687 0 31.795 7.515 31.413 19.413l43.75 179.984c3.42 8.76 15.545 7.59 18.807-.49l12.462-175.022c.64-5.583 7.922-15.314 21.9-13.286 13.976 2.027 22.035 17 20.555 22.793l-4.044 172.936c2.838 15.327 14.888 17.565 24.266 9.008l61.22-109.487c3.72-9.183 18.288-11.096 26.715-7.455 7.84 5.107 12.954 11.96 12.954 21.603z" fill="#fff"/></svg>
