<svg xmlns="http://www.w3.org/2000/svg" viewBox="0 0 512 512"><path d="M0 0h512v512H0z"/><path d="M289.023 237.916v-39.868c0-3.275-1.524-8.118-12.27-8.118-10.746 0-12.27 4.843-12.27 8.118v39.868c0 3.275 2.134 7.016 12.27 7.016 10.135 0 12.27-3.74 12.27-7.016zM249.62 493.794l-3.026-116.778c-14.207-.53-22.388-.734-29.972-2.646-5.254-1.326-7.842-5.115-7.842-10.97V195.893c0-3.857-.343-6.153-6.504-6.107-10.438.075-51.274.59-51.274.59l7.572-13.055c1.407-2.425 2.695-4.23 6.36-4.23 2.626 0 23.332 2.56 37.485 1.18 7.208-.7 10.415-1.528 13.65-6.43 5.726-8.68 4.578-29.61-5.782-44.143-2.51-3.52.2-6.637 4.597-5.202 9.624 3.14 25.745 2.658 25.745 2.658V39.162c0-2.786-1.66-4.413-5.02-4.413h-58.385s7.98-15.586 19.53-17.212c12.615-1.776 39.49-1.526 59.245-1.526 19.757 0 46.63-.25 59.246 1.526 11.55 1.626 19.53 17.21 19.53 17.21H276.39c-3.36 0-5.02 1.628-5.02 4.414v81.994s16.12.483 25.745-2.658c4.397-1.435 7.106 1.682 4.598 5.2-10.36 14.533-11.508 35.464-5.78 44.144 3.233 4.902 6.44 5.73 13.65 6.43 14.15 1.38 34.857-1.18 37.482-1.18 3.668 0 4.956 1.805 6.362 4.23L361 190.378s-40.837-.513-51.276-.59c-6.16-.046-6.504 2.25-6.504 6.106V363.4c0 5.855-2.587 9.644-7.842 10.97-7.582 1.912-15.763 2.116-29.97 2.646l-3.027 116.778c-.048 1.918-2.997 2.206-6.38 2.206-3.384 0-6.334-.288-6.384-2.206zm-14.37-248.862c10.135 0 12.27-3.74 12.27-7.016v-39.868c0-3.275-1.525-8.118-12.27-8.118-10.747 0-12.27 4.843-12.27 8.118v39.868c0 3.275 2.134 7.016 12.27 7.016z" fill="#fff"/></svg>
