<svg xmlns="http://www.w3.org/2000/svg" viewBox="0 0 512 512"><path d="M0 0h512v512H0z"/><path fill="#fff" d="M251.79 7.44l.812 12.54c-20.013 2.6-38.16 26.078-38.16 56.477 0 16.752 5.8 31.567 14.3 41.81l10.14 12.217-15.603 2.934c-11.05 2.077-19.15 7.913-26.075 17.418-6.925 9.505-12.22 22.747-15.93 38.008-6.718 27.648-8.196 61.408-8.43 91.166h36.718l10.082 135.19c25.605 5.78 52.943 5.577 77.603.023l8.92-135.213h34.96c-.023-30.122-.408-64.348-6.495-92.207-3.356-15.36-8.444-28.583-15.453-37.98-7.01-9.395-15.485-15.198-27.89-17.12l-15.925-2.467 10.053-12.595c8.133-10.19 13.646-24.836 13.646-41.183 0-32.41-20.262-56.398-42.312-56.398-2.57 0-4.05-.094-4.147-.08l-.814-12.54zm-65.636 16.61C109.122 77.813 19.734 258.04 19.734 425.31l.012.004c-.016.285-.035.57-.035.85 0 6.595 4.41 14.217 15.565 22.463s28.377 16.31 50.016 23.076c43.28 13.533 104.143 22.13 171.364 22.13 67.222 0 128.088-8.597 171.366-22.13 21.638-6.766 38.86-14.83 50.015-23.076 11.154-8.246 15.565-15.868 15.565-22.463 0-1.174-.147-2.38-.44-3.617-.975-166.49-89.788-345.03-166.396-398.496v.003c60.047 76.632 86.457 246.055 72.918 419.148-33.413 13.417-85.056 22.025-143.02 22.025-58.204 0-110.04-8.678-143.44-22.19C99.713 270 126.127 100.66 186.155 24.053v-.002z"/></svg>