<svg xmlns="http://www.w3.org/2000/svg" viewBox="0 0 512 512" style="height: 512px; width: 512px;"><path d="M0 0h512v512H0z" fill="#000" fill-opacity="1"></path><g class="" transform="translate(0,0)" style="touch-action: none;"><path d="M 257.47 18 C 126.98 18 20.905 124.07 20.905 254.563 c 0 130.488 106.073 236.53 236.563 236.53 c 130.488 0 236.53 -106.042 236.53 -236.53 C 494 124.07 387.955 18 257.47 18 Z m 0 18.094 c 120.384 0 217.31 98.078 217.31 218.47 c 0 120.386 -96.922 217.307 -217.31 217.31 C 137.08 471.875 39 374.95 39 254.563 c 0 -120.39 98.083 -218.468 218.47 -218.468 Z m 1.717 21.25 c -18.068 0 -35.54 2.455 -52.156 7.03 c 16.04 -0.083 32.227 2.136 48.157 6.5 c -6.804 5.03 -11.218 13.106 -11.218 22.22 c 0 15.27 12.386 27.656 27.655 27.656 c 8.454 0 16.02 -3.8 21.094 -9.78 c 1.078 10.63 7.69 19.62 16.905 24.06 c -14.048 11.31 -23.03 28.656 -23.03 48.095 c 0 34.062 27.593 61.656 61.655 61.656 c 24.52 0 45.712 -14.28 55.656 -35 c 26.612 67.256 20.158 139.174 -14.625 190.314 c 40.465 -35.917 66 -88.296 66 -146.656 c 0 -108.285 -87.81 -196.094 -196.092 -196.094 Z m -16.093 160.718 c -16.633 0 -30.094 13.493 -30.094 30.125 c 0 16.633 13.46 30.094 30.094 30.094 c 16.633 0 30.125 -13.46 30.125 -30.092 c 0 -16.633 -13.493 -30.125 -30.126 -30.125 Z m 83.28 60.032 c -22.61 0 -40.937 18.327 -40.937 40.937 c 0 22.61 18.328 40.94 40.938 40.94 c 22.61 0 40.938 -18.33 40.938 -40.94 s -18.328 -40.936 -40.938 -40.936 Z m -97.562 33.97 c -16.632 -0.002 -30.093 13.46 -30.093 30.092 c 0 16.633 13.46 30.125 30.093 30.125 c 16.632 0 30.125 -13.49 30.125 -30.124 c 0 -16.633 -13.493 -30.094 -30.125 -30.094 Z" fill="#fff" fill-opacity="1"></path></g></svg>