<svg xmlns="http://www.w3.org/2000/svg" viewBox="0 0 512 512"><path d="M0 0h512v512H0z"/><path d="M54.512 19.813c-6.547 32.78-19.9 70.58-34.106 104.984v46.748C40.716 127.41 64.322 69.462 73.56 19.813H54.513zm74.5 0c22.56 35.574 18.172 82.51-2.012 137.5-2.705 7.368-5.71 14.843-8.938 22.437 12.545-14.4 24.547-29.442 35.876-45.094 11.626-42.126 13.067-81.54-3.493-114.844h-21.433zm110.627 2.332l-4.888 12.607c-41.35 106.68-121.474 184.064-214.346 257.242v23.73c94.86-73.644 180.07-152.22 226.418-261.423 23.175 23.64 33.75 46.74 35.65 69.93 2.15 26.197-6.92 53.415-24.54 81.793-9.492 15.287-21.457 30.79-35.21 46.448 13.744-6.51 27.234-13.38 40.442-20.648 3.775-5.305 7.34-10.617 10.645-15.94 18.93-30.487 29.875-61.68 27.292-93.18-2.584-31.498-18.924-62.402-51.4-91.53l-10.063-9.027zm149.385 139.882l-9.548 9.342c-86.4 84.533-239.1 139.537-359.07 171.884v19.353c117.657-31.354 268.492-83.666 362.054-168.65 11.76 31.088 12.15 56.57 4.515 78.613-6.997 20.205-21.062 38.035-40.907 54.135 14.332-5.104 28.256-10.505 41.64-16.207 7.233-9.837 12.977-20.406 16.927-31.812 10.342-29.865 7.858-64.733-10.108-104.487l-5.502-12.173zm94.467 121.496l-11.02 7.256c-30.058 19.787-71.21 37.43-117.55 52.736.05-.04.1-.077.148-.116-.942.34-1.898.67-2.843 1.008-107.727 35.22-242.655 57.856-331.82 65.418v60.258c110.1-7.688 421.87-16.575 452.6-144.56 2.993 27.035-1.627 48.604-11.92 66.538-13.25 23.092-36.547 40.79-67.66 54.6-61.893 27.472-153.5 38.454-245.808 48.213h143.655c40.623-7.394 78.154-17.114 109.735-31.13 33.36-14.808 60.393-34.683 76.287-62.38 15.894-27.696 19.93-62.633 9.38-105.037l-3.185-12.805zm-335.4 230.04l.006.056c.177-.02.355-.04.533-.058h-.538z" fill="#fff"/></svg>