<svg xmlns="http://www.w3.org/2000/svg" viewBox="0 0 512 512" style="height: 512px; width: 512px;"><path d="M0 0h512v512H0z" fill="#000" fill-opacity="1"></path><g class="" transform="translate(0,0)" style="touch-action: none;"><path d="M 86.924 18.955 C 74.384 30.29 66.502 46.685 66.502 64.92 c 0 34.21 27.732 61.945 61.943 61.945 c 26.94 0 49.85 -17.2 58.38 -41.215 c 0.754 5.132 1.15 10.38 1.15 15.725 c 0 59.227 -47.884 107.11 -107.112 107.11 c -22.086 0 -42.535 -6.67 -59.572 -18.108 v 21.78 c 17.75 9.562 38.054 15.015 59.573 15.015 c 69.34 0 125.8 -56.458 125.8 -125.797 c 0 -31.478 -11.624 -60.325 -30.802 -82.42 H 86.925 Z m 115.562 0 c 17.02 23.856 27.02 52.967 27.02 84.484 c 0 80.68 -65.484 146 -146.43 146 c -22.106 0 -43.014 -4.89 -61.785 -13.626 v 20.366 c 19.1 7.697 39.97 11.95 61.786 11.95 c 1.133 0 2.26 -0.02 3.39 -0.044 l 71.083 98.89 l -12.052 -88.488 l 120.53 215.72 h 21.408 L 163.922 273.142 l 172.012 221.064 H 496.56 V 339.145 L 307.17 197.165 l 130.154 43.056 l -169.207 -113.745 l 68.66 6.615 l -89.08 -42.438 c -2.012 -26.043 -10.118 -50.43 -22.884 -71.697 h -22.324 Z M 41.27 108.52 c -7.723 0 -14.743 2.99 -19.98 7.87 v 42.903 c 5.237 4.88 12.257 7.87 19.98 7.87 c 16.193 0 29.32 -13.13 29.32 -29.323 c 0 -16.193 -13.127 -29.32 -29.32 -29.32 Z" fill="#fff" fill-opacity="1"></path></g></svg>