<svg xmlns="http://www.w3.org/2000/svg" viewBox="0 0 512 512"><path d="M0 0h512v512H0z"/><path d="M17.906 19.47v13.06l52.47 43.782c-18.59 8.194-37.292 21.438-52.47 38.626v46.718l64.844 83.906c-22.512 12.66-46.072 25.83-64.844 46.313v51.313l32.25 77.687c-10.96-.21-21.82.928-32.25 3.906v19.626c12.22-4.52 25.812-5.72 40.188-4.47l21.843 52.595h20.25l-23.812-57.28c33.198-26.434 75.174-43.6 118.97-44.03l70.186 90.81c-25.262 1.352-53.216 3.176-76.75 10.5h109.5c36.556-59.526 75.08-101.77 136.126-111.31l1.156-.19 55.688 46.47v-24.313l-49.563-41.375c-3.51-68.954 17.13-117.865 41.563-151.937l8 4.063V193l-9.406-4.78c-7.975-20.378-13.113-46.816-12.594-73.126.545-27.638 7.255-54.91 22-75.78V19.56l-1.22-.093H223.564l138.03 9.718c-5.974 15.41-11.84 31.435-15.124 47.874-2.744 13.728-3.56 27.898-.908 41.907L205.906 48.062l-.062-.313c-2.395-10.304-4.36-19.593-3.97-28.28h-18.75c-.207 6.083.417 12.008 1.407 17.718l-34.874-17.72H91.594C84.78 30.98 79.902 43.786 77.78 58.126L31.47 19.47H17.905zm94.563 2.06l69.31 35.22c-11.52 20.26-20.766 43.4-22.28 69.563L95.156 72.624c.28-20.504 6.67-36.544 17.313-51.094zm268.655 9.032l89.438 6.282c-13.69 23.26-19.467 50.864-20 77.906-.423 21.443 2.425 42.576 7.625 61.438l-89.532-45.47c-7.22-15.734-7.397-32.218-3.844-50 3.24-16.206 9.7-33.166 16.313-50.156zM198.405 65.19l145.282 73.78c-29.922 27.36-43.496 62.79-46.468 102.282l-119.126-99.406-.094-1.656c-1.616-28.068 7.587-52.724 20.406-75zM86.596 89.844l64.31 53.656c-24.23 21.376-46.41 48.638-59.218 83.063l-68.343-88.407c16.546-23.173 41.518-40.834 63.25-48.312zm275 58.22l104.967 53.342c-23.712 33.93-43.643 81.373-43.875 144.563l-107.593-89.783c.374-44.46 12.72-80.628 46.5-108.125zm-196.25 7.5L291.094 260.5c-39.41 22.472-74.696 53.83-94.126 102.28l-91.564-118.467c10.816-37.3 33.875-66.287 59.938-88.75zM94.312 260.5l87.25 112.906C139.972 376.732 100.97 393.182 69 417.47L25.25 312.155c17.573-22.888 42.682-36.75 69.063-51.656zm212.062 12.72l110.844 92.5c-58.205 14.32-97.363 57.494-131.5 111.842l-75.314-97.406c17.372-52.73 53.33-83.937 95.97-106.937zm-18.28 238l.467.592.782-.593h-1.25z" fill="#fff"/></svg>