<svg xmlns="http://www.w3.org/2000/svg" viewBox="0 0 512 512"><path fill="#fff" d="M350.4 37.57L66.6 113.6l2.4 9 6.25 23.3-39.06 10.5 7.83 29.2-28.63 7.7 4.84 18 28.62-7.7 2.87 10.7 39.04-10.5 6.49 24.3-31.04 8.3 7.82 29.2-28.64 7.7 4.84 18 28.62-7.7 2.89 10.8 31.06-8.3 8.3 31-34.89 9.3 7.82 29.2-28.64 7.7 4.84 18 28.62-7.7 2.85 10.8 34.9-9.4 8.3 31-38.7 10.4 7.8 29.2-28.61 7.7 4.84 18 28.57-7.7 2.9 10.8 38.7-10.4 283.8-76.1 24.2-6.5-2.9-10.8 31.1-8.3-4.8-18-31.1 8.3-7.8-29.1-24.2 6.5-8.3-31.1 28-7.5-2.9-10.8 31.1-8.3-4.8-18-31.1 8.3-7.8-29.1-28 7.5-8.3-31 31.8-8.5-2.9-10.9 31.1-8.3-4.8-18-31.1 8.3-7.8-29.1-31.8 8.5-6.5-24.2 23.8-6.4-2.9-10.8 31.1-8.3-4.8-18.04-31.1 8.36-7.9-29.19-23.8 6.38zm-13.3 22.8l84.8 316.43-247.7 66.4-84.75-316.5zM192.2 125.7c6.2 37.5 5.8 66.6-13.5 81.8-10.8.2-25.3-2.1-44.4-7 12.3 4.1 22 9.1 29.3 14.8-7.9 2.5-17.6 3.9-29.3 3.9 48.6 0 50.4 37.3 14.9 74.7 1.4-.7 2.7-1.3 4.1-1.9-.8.6-1.5 1.3-2.2 1.9 18.7-7.5 37.4-8.9 52.7-3.2 4.1 3.6 8.6 6.8 13.3 9.4 3.2 7.5 4.4 17.8 3.1 31.2 3.1-6.8 6.5-12.3 10.3-16.7 6.8 13 10.1 30.8 8.4 54.1 9.3-37.1 22.2-55.7 39-58.4 8.7 4.7 18.1 11.7 28.3 21-3.9-6.4-6.9-12.4-9.2-17.9 13.1 5.6 28 18 44.7 36.6-29.9-56.1-13.1-93.5 22.4-112.2-33.6-18.6-50.4-18.6-46.7-112.1-8.3 16.6-18.8 28.2-30.4 35.5.1-5.3 4.5-24.4 4.8-30.4-7.4 11.4-20.8 33-30.6 36.9-7.2-1-14.8-.9-22.3.4-10.6-3-20.8-9-29.6-17.5-6-6.5-11.7-14.8-17.1-24.9zm58.7 59.9c23.4-.3 44.8 15.2 51.1 38.8 2.8 10.4 2.3 20.9-.9 30.3-9.5 4-19.5 5.6-28.5 4.2-12.6-1.9-23.4-8.7-30.7-24.8-11-31.1-.2-24.9-16.1-24.3v-17.5c3.7-2.1 7.7-3.8 12-4.9 4.4-1.2 8.8-1.8 13.1-1.8zm-35.5 14.3c-.3 1.3-.3 2.5-.4 3.6-.1 3.3.4 6.6 1.2 10.5 1.5 7.8 4.5 17.5 8.4 27.3l.1.2.1.1c9.5 21.2 26.7 33.1 44.9 35.8 5.2.8 10.5.9 15.8.4-5.8 4.9-12.7 8.7-20.5 10.8-28 7.5-56.7-9-64.2-37-5.2-19.3 1.1-39 14.6-51.7z"/></svg>