<svg xmlns="http://www.w3.org/2000/svg" viewBox="0 0 512 512"><path d="M0 0h512v512H0z"/><path d="M253.95 71.932c-65.823 0-125.256 18.536-167.708 47.875-42.452 29.338-67.637 68.846-67.637 111.89 0 43.045 25.184 82.552 67.635 111.89 42.452 29.34 101.886 47.874 167.71 47.874 65.826 0 125.26-18.533 167.712-47.872 42.452-29.34 67.64-68.846 67.64-111.89 0-43.045-25.188-82.553-67.64-111.89-42.452-29.34-101.886-47.876-167.71-47.876zm1.704 21.187h.153l1.084.01-.154 18.686-1.002-.007-4.937.038-.043.002-5.063.125h-.026l-4.88.203-2.11.12-1.076-18.657 2.2-.126.075-.004.076-.004 5.1-.21.075-.003.078-.002 5.133-.126.076-.002h.076l5.166-.043zm20.373.646l.702.04.077.005.076.004 5.027.375.076.003.077.008 4.988.454.08.008.075.008 4.947.53.078.01.077.01 2.937.366-2.307 18.545-2.878-.357-.06-.007-4.64-.498-.046-.004-4.927-.448-.016-.002-4.802-.355-.617-.036 1.077-18.658zm-57.66 1.552l2.307 18.547-4.1.51-.02.002-4.63.654-4.586.728-.055.01-4.623.812-3.234-18.408 4.678-.822.076-.014.078-.012 4.818-.763.078-.01.076-.013 4.864-.685.078-.012.076-.01 4.12-.512zm95.95 3.29l2.693.523.078.015.076.017 4.676.984.078.018.078.018 4.623 1.056.077.018.078.02 4.57 1.128.08.02.077.02 1.662.44-4.793 18.065-1.503-.4-.027-.01-4.47-1.1-4.526-1.036-.016-.004-4.433-.933-2.622-.506 3.545-18.35zm-133.766 3.69l4.48 18.143-.407.103-.027.006-4.285 1.138-4.22 1.197h-.002l-4.242 1.285-.045.014-4.075 1.316-5.74-17.787 4.12-1.33.08-.026.08-.023 4.403-1.336.078-.023.08-.024 4.46-1.264.08-.024.077-.02 4.516-1.2.077-.018.08-.02.434-.107zm171.137 6.165l2.456.842.082.027.078.03 4.222 1.533.08.03.08.028 4.16 1.598.08.03.08.033 4.093 1.66.082.032.08.035 2.51 1.072-7.344 17.186-2.348-1.004-.04-.018-3.892-1.578-.058-.023-4.074-1.563-.026-.01-3.974-1.44-2.385-.817 6.058-17.682zm-208.003 6.1l7.343 17.185-3.343 1.428-.045.02-3.85 1.732-3.685 1.744-3.587 1.785-.055.027-1.692.885-8.66-16.56 1.747-.915.082-.043.083-.04 3.815-1.902.084-.04.082-.04 3.887-1.84.083-.04.082-.036 3.96-1.78.08-.038.08-.035 3.51-1.498zm243.587 9.248l.08.042.084.044.082.045 3.67 2.015.084.047.082.05 3.593 2.067.084.048.083.05 3.516 2.126.083.052.086.053 3.432 2.177.086.055.086.056 1.744 1.16-10.35 15.563-1.667-1.108-3.31-2.098-.03-.02-3.282-1.982-3.43-1.975-3.453-1.896-.016-.007-.09-.05 2.386-4.34 6.365-12.172zm-277.98 8.78l6.73 10.613 3.388 5.098-3.27 2.177-3.103 2.162-3.062 2.243-.034.023-2.84 2.184-2.05 1.65-11.73-14.55 2.133-1.72.086-.068.087-.068 3.102-2.38.084-.067.088-.065 3.188-2.332.086-.062.086-.06 3.27-2.282.087-.06.085-.057 3.354-2.232.085-.056.085-.055.06-.037zm310.696 13.123l2.14 1.81.087.075.086.076 2.835 2.525.088.077.086.082 2.743 2.568.088.084.087.084 2.65 2.615.088.087.086.09 2.555 2.656.088.092.086.094.62.682-13.818 12.582-.54-.592-2.384-2.478-2.455-2.424-2.555-2.395-2.74-2.437-.037-.033-1.962-1.66 12.078-14.262zM78.72 157.648l13.47 12.954-.8.834-2.275 2.5-2.164 2.515-2.093 2.577-1.98 2.588-1.71 2.375-15.173-10.912 1.777-2.47.082-.114.085-.11 2.16-2.82.08-.11.087-.104 2.26-2.782.083-.103.088-.1 2.36-2.742.084-.098.087-.095 2.46-2.7.083-.095.087-.092.862-.895zm185.735 4.248l1.55 1.833 35.733 71.135-37.28-44.043-27.35 32.307-15.858-10.19 36.074-42.618 7.13-8.426zM122.81 173.748l8.147 3.397 89.818 57.7-68.3-28.478 26.457 85.422 85.527 6.265 85.895-6.23-9.384 19.42-76.517 5.548-99.6-7.295-42.042-135.75zm284.19.096l-.67 2.164-54.47 112.71 25.533-82.447-57.243 23.615-8.412-16.746L407 173.843zm39.854 1.256l1.01 1.498.08.12.08.124 1.845 2.933.077.125.076.13 1.74 2.968.075.13.072.136 1.63 3.002.073.136.07.14 1.518 3.036.07.14.068.147 1.32 2.88-16.99 7.784-1.246-2.718-1.385-2.77-1.49-2.747-1.59-2.715-1.646-2.617-.955-1.42 15.5-10.443zM55.707 190.78L72.7 198.56l-.93 2.028-1.166 2.803-1.04 2.767-.953 2.84-.848 2.873-.69 2.71-18.11-4.622.733-2.876.043-.168.05-.166.94-3.186.05-.164.052-.162 1.06-3.158.053-.16.06-.156 1.175-3.13.058-.154.063-.152 1.29-3.1.062-.148.07-.148.985-2.153zm407.344 21.634l.317 1.463.037.174.032.175.574 3.263.03.178.024.178.45 3.287.025.18.017.18.322 3.31.016.18.012.182.196 3.332.01.182.003.183.065 3.353.004.182-.004.18-.01.542-18.686-.363.006-.354-.056-2.984-.176-3.008-.29-2.94-.402-2.94-.5-2.84-.287-1.336 18.27-3.938zM46.315 230.59l18.686.363-.027 1.442.056 2.976.175 3.005.29 2.953.403 2.94.502 2.85.055.26-18.27 3.938-.087-.404-.037-.174-.03-.175-.575-3.264-.03-.177-.025-.178-.45-3.287-.024-.18-.018-.18-.322-3.31-.018-.18-.01-.18-.197-3.335-.008-.182-.004-.18-.065-3.354-.004-.18.003-.183.03-1.623zm398.24 18.904l18.27 3.938-.156.718-.037.172-.042.17-.82 3.213-.04.168-.052.166-.94 3.185-.048.164-.053.16-1.06 3.157-.054.16-.057.158-1.176 3.13-.058.154-.064.15-1.293 3.1-.062.15-.066.147-.537 1.17-16.99-7.785.476-1.043 1.16-2.786 1.055-2.803.946-2.82.85-2.876.732-2.875.117-.546zM71.505 263.56l.267.643 1.28 2.797 1.375 2.748 1.488 2.744 1.605 2.74 1.652 2.622.334.496-15.5 10.443-.404-.602-.082-.12-.08-.125-1.844-2.93-.078-.128-.077-.13-1.737-2.966-.076-.132-.072-.133-1.63-3.002-.073-.138-.07-.14-1.518-3.034-.07-.142-.067-.144-1.406-3.067-.066-.148-.062-.15-.338-.81 17.252-7.19zm359.244 16.585l15.5 10.443-.338.5-.08.117-.082.115-2.057 2.86-.082.113-.083.11-2.158 2.822-.085.107-.086.107-2.26 2.78-.085.104-.085.1-2.36 2.742-.086.098-.088.095-2.457 2.7-.087.092-.088.092-.11.115-10.98-10.557-2.556-2.326.06-.07.03-.028 2.27-2.495 2.2-2.553 2.087-2.572 2.004-2.617 1.872-2.602.268-.395zm-340.594 11.85l1.27 1.394 2.38 2.475 2.454 2.42 2.597 2.434 2.66 2.364 1.213 1.03-12.078 14.263-1.312-1.11-.088-.078-.086-.077-2.836-2.523-.088-.08-.086-.08-2.744-2.57-.088-.083-.086-.086-2.65-2.612-.088-.086-.086-.09-2.555-2.658-.09-.092-.084-.093-1.35-1.482 13.82-12.584zM19.52 300.64c1.657 12.822 5.554 25.25 11.478 37.098v-20.302c-4.22-5.423-8.05-11.03-11.478-16.795zm468.863.006c-4.43 7.45-9.534 14.63-15.27 21.497v22.634c8.07-13.928 13.28-28.747 15.27-44.13zm-81.127 4.72l11.73 14.552-2.976 2.398-.086.07-.088.067-3.102 2.383-.086.066-.087.063-3.187 2.334-.086.06-.086.062-3.27 2.28-.086.06-.086.058-2.512 1.67-10.35-15.562 2.432-1.615 3.06-2.135 3.012-2.203 2.963-2.276 2.893-2.333zm-290.49 9.363l2.568 1.707 3.246 2.06 3.338 2.017 3.465 1.996 2.69 1.476-8.995 16.383-2.8-1.538-.083-.047-.084-.047-3.59-2.07-.086-.05-.082-.05-3.516-2.125-.086-.05-.084-.053-3.436-2.178-.085-.055-.084-.056-2.644-1.757 10.35-15.564zm260.884 10.188l8.66 16.56-2.705 1.415-.082.043-.084.043-3.817 1.897-.082.04-.08.04-3.89 1.842-.08.038-.084.037-3.957 1.78-.08.038-.083.034-2.512 1.074-7.345-17.185 2.48-1.06.03-.014 3.732-1.68 3.682-1.743 3.724-1.853.033-.018 2.54-1.328zm-229.605 6.848l3.47 1.482.034.014 3.88 1.572.05.02 3.915 1.5 4.056 1.474 1.363.467-6.057 17.68-1.436-.493-.08-.027-.08-.03-4.22-1.53-.083-.03-.08-.03-4.158-1.597-.08-.03-.08-.034-4.095-1.658-.08-.034-.082-.035-3.504-1.496 7.345-17.184zm-98.357 6.203v27.827c5.04 5.95 10.644 11.676 16.77 17.146v-30.66c-5.92-4.545-11.517-9.326-16.77-14.314zm294.917 1.024l6.057 17.682-.803.275-.08.03-.08.024-4.345 1.402-.078.026-.08.023-4.402 1.334-.08.024-.078.022-4.46 1.268-.08.02-.077.022-3.903 1.036-4.793-18.065 3.744-.992.053-.016 4.382-1.245.027-.008 4.23-1.285.015-.004 4.11-1.326.72-.248zm109.82 2.48c-5.276 4.76-10.873 9.318-16.77 13.65v31.118c6.078-5.145 11.676-10.533 16.77-16.133v-28.635zm-272.376 2.09l2.675.707.03.01 4.337 1.068 4.387 1.006.034.007 4.554.962 1.563.3-3.544 18.35-1.633-.314-.078-.015-.076-.016-4.677-.986-.078-.015-.076-.018-4.626-1.056-.078-.02-.078-.016-4.57-1.13-.08-.02-.077-.02-2.704-.717 4.793-18.065zm127.66 4.47l3.544 18.35-.97.186-.075.016-.08.014-4.77.837-.08.014-.077.013-4.818.764-.076.01-.08.013-4.863.688-.076.01-.077.01-3.043.378-2.307-18.545 2.89-.358.018-.002 4.787-.678.058-.008 4.51-.715.055-.01 4.68-.823.036-.006.813-.157zm-92.255 2.49l3.95.49.058.007 4.64.5.057.007 4.776.436.02.002 4.632.344-1.383 18.637-4.652-.345-.076-.008-.08-.006-4.985-.455-.078-.006-.076-.008-4.95-.534-.076-.008-.076-.01-4.01-.498 2.31-18.547zm56.414 1.904l1.075 18.658-3.28.19-.077.003-.076.003-5.1.21-.076.003-.076.002-5.133.125-.078.002-.077.002-5.166.04-.077-9.343-.076 9.344-2.162-.018.154-18.687 2.084.017 4.936-.04.043-.002 4.935-.12h.01l5.023-.207 3.19-.182zM85.145 365.21v32.49c.367.258.725.52 1.094.775 5.838 4.034 12.007 7.855 18.46 11.46v-33.69c-6.772-3.45-13.3-7.132-19.554-11.034zm333.82 2.33c-6.267 3.756-12.793 7.296-19.552 10.61v33.862c6.84-3.666 13.367-7.58 19.55-11.717V367.54zm-295.58 17.388v34.445c6.74 3.066 13.728 5.906 20.944 8.5v-35.06c-7.17-2.402-14.16-5.032-20.943-7.885zm257.34 1.55c-6.793 2.745-13.78 5.27-20.943 7.57v35.155c7.205-2.477 14.193-5.194 20.942-8.14V386.48zm-217.708 11.96v35.453c6.6 1.89 13.352 3.588 20.248 5.07v-35.774c-6.872-1.388-13.626-2.973-20.248-4.748zm178.076.996c-6.625 1.69-13.38 3.188-20.246 4.494v35.812c6.885-1.392 13.643-2.986 20.246-4.783v-35.523zm-139.14 6.99v35.967c6.87 1.06 13.854 1.92 20.942 2.56v-36.118c-7.074-.6-14.058-1.41-20.943-2.408zm100.204.525c-7.34.983-14.785 1.758-22.332 2.29v36.135c7.557-.566 15.01-1.37 22.332-2.412V406.95zm-60.572 2.988v36.19c4.094.146 8.217.22 12.365.22 2.406 0 4.8-.033 7.187-.082v-36.192c-2.388.046-4.782.074-7.186.074-4.144 0-8.266-.074-12.364-.21z" fill="#fff"/></svg>