<svg xmlns="http://www.w3.org/2000/svg" viewBox="0 0 512 512"><path d="M0 0h512v512H0z"/><path fill="#fff" d="M258.495 20.105C176.67 77.45 133.118 142.24 128 207.63l92.155 54.124-55.14-56.092c3.663-46.824 34.847-93.22 93.44-134.283 58.593 41.06 89.594 87.573 93.257 134.393l-55.15 55.957 92.162-53.947C383.61 142.397 340.32 77.45 258.494 20.105zM221.72 165.123c-7.276 0-14.467 5.39-21.096 13.498 13.207 15.957 29.007 16.098 42.19 0-6.682-8.27-13.746-13.5-21.094-13.497zm70.484 0c-7.275 0-14.467 5.39-21.096 13.498 13.208 15.957 29.01 16.098 42.194 0-6.683-8.27-13.75-13.5-21.098-13.497zm-154.47 73.31l-1.89 1.758c-.005-.03-.015-.06-.02-.09l-.13.232-65.703 61.172c23.93 63.466 22.342 126.924 19.86 190.39h37.96c-6.974-34.9-14.004-77.445-14.817-121.09 9.11 6.8 20.807 11.917 34.938 14.743-11.63-10.79-17.805-24.947-15.8-39.158 15.38 7.1 32.653 9.094 50.66 4.612-18.75-8-34.94-23.658-43.06-43.756 26.933 14.15 55.292 18.642 79.36 9.774-36.237-8.91-74.074-37.57-82.896-75.346.505-1.084 1.015-2.165 1.54-3.24zm236.533 0c.302.62.59 1.247.886 1.87l-.11-.203c-8.12 38.556-46.53 67.887-83.27 76.92 25.592 9.43 56.036 3.753 84.458-12.58-7.7 21.447-24.524 38.192-44.14 46.562 16.47 4.1 32.326 2.785 46.682-2.9 1.297 13.63-4.84 27.088-16.003 37.445 14.82-2.964 26.97-8.446 36.258-15.748-.722 43.995-7.808 86.924-14.836 122.095h37.96c-2.484-63.467-4.072-126.925 19.857-190.39l-67.743-63.07z"/></svg>