<svg xmlns="http://www.w3.org/2000/svg" viewBox="0 0 512 512"><path d="M0 0h512v512H0z"/><path d="M240.773 20.104c-.61-.008-1.23.007-1.857.04-15.516.834-35.207 15.23-44.97 32.137-6.504 11.26-10.173 25.99-9.446 38.597.727 12.605 5.244 22.306 14.195 27.475l.006.003 92.12 53.075.647 4.498c3.078 21.393 12.524 43.082 27.717 61.888L417.127 68.22c-24.05-3.842-47.666-1.36-67.758 6.743l-4.22 1.7-92.13-53.083-.004-.002c-4.076-2.352-7.966-3.424-12.243-3.474zm252.66 45.117L418.75 104.3c3.552 5.182 6.424 10.766 8.578 16.602l66.104-34.59v-21.09zm-85.804 56.815l-47.194 81.72c18.223-1.227 35.486-11.235 45.347-28.308 9.863-17.076 9.9-37.025 1.846-53.412zm24.33 22.086c.257 6.207-.247 12.472-1.556 18.655l63.028 1.506V145.59l-61.47-1.467zm-215.796 8.308c-3.224 7.154-6.25 14.267-9.113 21.363l27.462 10.48c2.57-6.304 5.277-12.635 8.152-19.016l-1.922-1.11-24.578-11.716zm207.854 28.545c-.648 1.284-1.325 2.56-2.053 3.822-2.45 4.24-5.262 8.138-8.36 11.707l79.827 49.93V224.39l-69.414-43.417zm-223.676 10.26c-2.805 7.698-5.41 15.39-7.822 23.105l28.236 7.75c2.167-6.8 4.496-13.592 6.994-20.397l-27.408-10.456zm202.36 15.544c-4.995 3.838-10.415 7.015-16.126 9.477l60.166 112.976 16.494-8.783-60.535-113.67zm-33.37 14.598c-6.15 1.06-12.443 1.368-18.728.88l-4.256 124.18 18.677.637 4.307-125.697zM187.277 232.28c-2.01 7.358-3.86 14.752-5.548 22.202l28.477 6.204c1.59-6.94 3.334-13.826 5.23-20.678l-28.16-7.727zm324.844 3.798v.36l.163-.258-.162-.102zm-334.194 36.705c-1.402 7.375-2.665 14.822-3.787 22.36l28.962 3.072c.982-6.485 2.07-12.894 3.273-19.236l-28.45-6.197zm-6.252 40.893c-.872 7.397-1.628 14.89-2.266 22.504l29.098 1.525c.596-7.102 1.293-14.087 2.103-20.963l-28.936-3.066zm-3.588 41.15c-.482 8.173-.85 16.484-1.104 24.963l29.217-.49c.23-7.81.558-15.454.99-22.948l-29.104-1.526zm27.74 43.172l-29.222.488c-.064 5.69-.09 11.447-.067 17.293 9.735-1.78 19.476-3.276 29.22-4.462-.006-4.502.023-8.93.07-13.32zm53.908 28.54c-38.182.184-76.4 5.572-114.73 15.42-4.874 14.74-8.905 32.345-11.65 52.423h252.478c-2.72-20.157-6.654-37.867-11.502-52.597-38.217-10.472-76.39-15.43-114.596-15.246zm-166.5 20.22c-20.576-.1-41.188 3.148-64.34 9.285v19.394c34.263-9.54 60.572-12.25 89.885-7.58 1.33-6.48 2.808-12.666 4.41-18.56-10.162-1.65-20.057-2.49-29.956-2.54z" fill="#fff"/></svg>