<svg xmlns="http://www.w3.org/2000/svg" viewBox="0 0 512 512"><path d="M0 0h512v512H0z"/><path d="M227.227 21.777c-1.845 0-3.704.05-5.567.157-15.314.875-30.76 5.305-39.494 10.863l-.008 73.15c2.884-.094 5.777-.147 8.676-.142 23.382.036 47.104 3.286 68.47 9.513l.01-87.507c-7.034-3.518-19.178-6.03-32.087-6.033zm80.74 9.16c-11.925.15-23.077 2.364-29.967 5.596l-.008 77.602v7.658c38.486 15.67 64.814 42.48 58.735 78.764l-.96 5.73-5.562 1.674c-17.45 5.253-34.872 9.703-52.225 13.335V246.53c25.562-.704 51.327-2.687 77.145-6.098l.02-197.928c-8.284-5.563-23.508-10.243-38.842-11.328-2.792-.198-5.584-.273-8.336-.238zM143.223 46.294c-1.176-.015-2.374-.01-3.588.02-4.175.1-8.533.468-12.903 1.152-15.67 2.454-31.477 8.565-40.406 15.402l-.01 72.955c18.808-15.81 46.704-25.143 77.15-28.54l.007-57.966c-4.82-1.752-12.018-2.916-20.25-3.023zm258.394 3.46c-10.804.117-20.722 1.93-27.043 4.655l-.02 183.182c25.074-4.02 50.16-9.412 75.122-16.358l1.99-158.447c-8.352-5.9-23.648-11.025-39.05-12.553-3.698-.366-7.398-.517-11-.478zm-222.775 74.202c-53.72.702-101.407 20.365-97.887 66.6 15.836-3.918 30.84-5.893 44.94-6.1 34.84-.51 64.213 9.704 87.318 27.613 34.608-3.11 69.852-10 105.412-20.314.14-41.287-74.098-68.657-139.783-67.8zm-48.877 78.65c-1.296-.003-2.603.012-3.92.045-17.256.436-36.45 4.03-57.566 11.037 5.79 53.808 26.325 106.41 58.5 143.346 6.226 7.15 12.856 13.712 19.875 19.615 29.303 9.282 69.26 12.917 110.534 12.14 3.777-55.805-8.717-108.357-36.193-142.74-21.265-26.61-51.064-43.39-91.232-43.444zm129.326 22.282c-9.358 1.637-18.69 3.016-27.995 4.15 1.54 1.74 3.043 3.52 4.502 5.346 3.146 3.937 6.094 8.062 8.873 12.334 9.916.144 19.868.125 29.857-.106H259.29v-21.723zm191.817 15.343c-65.406 17.826-131.462 25.41-195.85 25.315 16.998 35.144 23.828 78.093 21.013 122.6 42.482-2.08 85.03-8.23 118.187-15.983 26.693-32.78 47.37-77.118 56.65-131.932zM400.51 389.9c-38.334 9.145-87.95 16.056-136.873 17.454-47.67 1.36-94.336-2.228-129.448-15.262l-.01 78.93c27.187 12.568 76.414 20.205 127.318 20.298 51.224.094 104.214-7.173 139-20.773l.012-80.647z" fill="#fff" fill-rule="evenodd"/></svg>