<svg xmlns="http://www.w3.org/2000/svg" viewBox="0 0 512 512"><path d="M0 0h512v512H0z"/><path d="M86.838 20.422c-29.217.373-53.398 25.41-42.61 70.22l40.24 11.413c5.147-13.795 16.636-25.02 31.854-29.1 1.185-.318 2.372-.572 3.56-.793l1.897-40.46c-11.212-7.76-23.464-11.427-34.942-11.28zm87.732 1.793c-10.123-.103-21.806 3.615-34.21 12.252l-1.784 38.02c14.74 3.29 27.496 13.587 33.428 28.107l32.348-11.844c14.85-35.758-1.285-66.247-29.782-66.535zm230.28 1.06c-9.608-.095-19.477 4.95-16.297 15.592 6.02 20.145 23.767 16.734 31.03-.336 4.222-9.92-5.126-15.16-14.733-15.255zm-112.23 5.65c-12.452-.145-24.19 11.893-12.89 35.548-34.188-.71-21.3 46.873 4.36 33.504-13.39 41.327 40.743 47.828 33.523 4.898 32.285 20.344 46.882-12.12 14.662-27.3 42.23-9.177 7.444-59.05-19.806-23.93-.05-15.122-10.166-22.606-19.85-22.72zm10.288 39.202c6.265 0 11.344 5.08 11.344 11.344 0 6.267-5.08 11.344-11.344 11.344-6.264 0-11.344-5.077-11.344-11.343 0-6.265 5.08-11.343 11.344-11.343zm138.072 1.31c-17.36-.108-28.32 22.492 6.075 35.823l-.004.008c-18.252 24.743 32.73 47.3 24.47 5.435 42.727-1.302 17.174-56.758-8.06-26.582-6.68-10.547-15.15-14.64-22.48-14.684zM128.088 90.02c-.41.01-.822.027-1.234.052-1.885.118-3.79.426-5.692.936-15.215 4.08-24.107 19.483-20.03 34.705 4.075 15.222 19.466 24.11 34.68 20.03 15.217-4.08 24.11-19.484 20.034-34.706-3.455-12.903-15.042-21.255-27.758-21.016zm84.387 15.658l-37.004 13.55c-.232 11.523-4.734 22.48-12.33 30.836l28.235 28.803c43.737 3.567 62.383-49.22 21.1-73.19zm-178.65 1.437c-36.192 29.177 5.828 104.825 44.183 91.903l23.504-42.207c-8.744-6.122-15.474-15.21-18.434-26.263-.883-3.298-1.378-6.612-1.533-9.897l-47.72-13.535zm367.232 20.658c-14.982.243-31.716 9.85-46.463 32.012l11.44 49.283c1.507-.025 3.012.008 4.51.116 12.477.893 24.467 6.36 33.335 15.656l39.413-27.71c5.398-39.892-14.834-68.726-40.793-69.35-.48-.012-.96-.014-1.443-.007zm79.183 28.122c-21.017.598-22.312 18.624-7.705 30.058 16.984 13.293 29.913-30.692 7.705-30.058zM314.877 159.4c-40.034.352-74.266 32.268-43.348 88.356l46.115.19c3.172-13.074 11.44-24.89 23.94-32.11 2.002-1.156 4.054-2.15 6.138-3.004l-11.774-50.71c-6.993-1.883-14.12-2.783-21.073-2.722zm-166.996 1.795c-2.3 1.045-4.71 1.923-7.228 2.598-7.404 1.985-14.89 2.053-21.933.533l-22.21 39.877c35.416 42.364 66.968 18.707 77.86-15.988l-26.49-27.02zm297.983 56.973l-31.8 22.355c4.872 11.832 4.94 24.766.876 36.31l35.98 21.247c51.595-7.404 55.444-71.524-5.057-79.912zm-78.888 9.484c-5.438.02-10.96 1.43-16.043 4.368-15.496 8.95-20.735 28.5-11.79 43.998 8.946 15.498 28.483 20.733 43.98 11.783 15.497-8.95 20.733-28.498 11.788-43.997-5.59-9.687-15.318-15.364-25.61-16.074-.773-.055-1.55-.08-2.325-.078zM81.39 239.082c-34.73.54-57.755 31.94-33.27 81.633l53.17 16.71c7.688-13.977 21.333-24.253 37.46-27.37l-2.902-48.74C117.66 245.77 98.163 238.82 81.39 239.08zm113.98 2.797c-13.108.22-27.65 6.908-40.624 22.427l2.707 45.406c13.364 2.09 25.15 9.077 33.457 19.057l39.21-22.13c15.072-35.715-6.503-65.235-34.75-64.76zm73.062 24.552c-30.79 56.358 24.864 96.28 68.175 80.716l11.317-40.136c-10.167-4.104-19.092-11.474-24.967-21.653-3.428-5.94-5.506-12.304-6.344-18.73l-48.18-.198zm137.193 26.603c-3.642 4.265-8.043 7.995-13.158 10.95-8.234 4.755-17.277 6.922-26.18 6.77l-12.023 42.638c33.61 37.99 90.653 1.21 86.574-39.563l-35.213-20.795zm-170.875 32.45l-34.51 19.478c2.117 5.8 3.276 12.05 3.276 18.56 0 10.603-3.078 20.513-8.368 28.903l30.182 31.656c67.613-28.103 48.493-74.875 9.42-98.596zm-85.697 2.26c-19.868 0-35.776 15.91-35.776 35.778 0 19.87 15.907 35.776 35.776 35.776 19.868 0 35.773-15.908 35.773-35.777 0-19.87-15.905-35.777-35.773-35.777zm-106.885 10.69c-36.703 38.242-22.952 115.13 44 109.487l25.93-44.485c-10.75-9.963-17.51-24.18-17.51-39.914 0-2.857.227-5.664.656-8.406l-53.076-16.68zm426.023 21.948c-15.52.168-41.495 23.15-13.82 29.03-3.312 37.943 49.157 5.48 23.064-14.036 2-11.068-2.69-15.065-9.243-14.994zM348.964 384.8c-7.97.042-16.24 7.06-19.36 25.384-23.89-30.674-58.175 4.596-20.525 26.834-47.55 24.345 2.655 56.935 21.938 27.476 4.25 49.467 60.75 18.172 29.115-10.816 40.15 6.587 40.073-32.17.952-30.975 13.618-18.657 1.166-37.97-12.12-37.902zm-166.365 21.542c-9.263 7.28-20.913 11.644-33.545 11.644-7.538 0-14.727-1.55-21.27-4.347L98.807 463.35c21.65 51.43 121.512 27.185 120.416-20.534l-.97.924-35.655-37.4zm156.406 20.738c6.264 0 11.344 5.08 11.344 11.344 0 6.266-5.08 11.346-11.344 11.346-6.265 0-11.344-5.08-11.344-11.346s5.08-11.344 11.344-11.344zm108.107 7.03c-12.226-.44-16.166 20.116 6.423 32.91-21.557 28.787 29.408 50.67 23.77 6.822 36.732 6.987 9.592-36.157-8.47-20.707h-.003c-7.8-13.584-15.747-18.808-21.72-19.024z" fill="#fff"/></svg>