<svg xmlns="http://www.w3.org/2000/svg" viewBox="0 0 512 512"><path d="M0 0h512v512H0z"/><path d="M364.656 17.125l7.22 27-58.188 14.625c3.298 5.667 6.192 11.376 8.625 17.094l54.406-13.688 7.56 28.313 78.533-60.376-98.157-12.97zm-130.5 7.22c-.89-.005-1.776-.002-2.656.03-5.235.19-10.23 1.107-14.594 2.906.073.114-1.306 1.3-4.47 3.126-13.95 8.048-22.286 23.685-23.5 42.032l30.814-8.25c5.387-1.447 10.49-2.095 15.25-1.97 4.76.127 9.176 1.01 13.125 2.626 7.897 3.23 13.85 9.614 15.938 17.28 2.086 7.668.163 16.203-5.063 22.97-5.226 6.767-13.5 11.933-24.344 14.844l-28.687 7.687c9.082 12.388 20.716 21.374 32.78 26.75L255.875 162l-16.406 9.094c-13.034 7.208-20.893 17.79-25.72 31.844-4.827 14.052-6.2 31.546-5.063 50.687 2.098 35.29 12.573 75.595 22 110.78l33.22-9 11-3 .75 11.408 8.5 128.812h100.78l9.157-165.53.375-6.75 6.56-1.75 36.376-9.69c-9.556-37.034-19.253-81.292-35.75-114.936-8.91-18.17-19.682-32.927-32.72-42-13.035-9.076-28.278-13.115-49.03-9.44l-16.125 2.876 5.75-15.344c6.438-17.216 1.314-40.236-13.717-64.843-15.132-24.773-38.14-39.68-58.97-40.814-.9-.05-1.796-.06-2.687-.062zm.313 56.56c-2.74-.07-6.023.28-9.876 1.314l-103.78 27.874-33.19-18.813-71.874 19.25 46.5 26.845-26.844 46.5 71.313-19.125 20.374-35.28 102.72-27.595c7.8-2.094 12.25-5.398 14.405-8.188 2.153-2.79 2.286-4.91 1.81-6.656-.474-1.745-1.714-3.53-5-4.874-1.64-.672-3.822-1.18-6.56-1.25z" fill="#fff"/></svg>