<svg xmlns="http://www.w3.org/2000/svg" viewBox="0 0 512 512"><path d="M0 0h512v512H0z"/><path fill="#fff" d="M236.156 19.906c-27 .295-52.444 5.788-75.75 15.938L210.22 141.5c9.623-5.683 20.014-10.723 31.186-15.03L258.47 20.843c-3.67-.34-7.32-.598-10.94-.75-3.815-.16-7.615-.23-11.374-.188zm40.813 3.407l-15.564 96.468c16.898-4.827 35.387-8.166 55.53-9.81l2.377-.19 68.03-41.843c-37.876-23.798-75.08-38.45-110.374-44.624zM143.655 44.156C124.946 54.62 107.858 68.31 92.812 84.97c-8.682 9.613-16.686 20.277-23.937 31.905l85.813 74.28c11.058-14.742 24.28-27.958 39.78-39.28l-50.812-107.72zm170 84.97c-98.41 9.502-148.772 59.09-172.437 127.718-23.358 67.732-18.883 154.58-1.814 235.97l232.22-.002c-13.15-51.313-36.813-75.542-55.532-96.53-10.04-11.257-19.156-21.87-22.75-35.97-2.973-11.657-1.41-24.738 5.156-40-11.903-3.81-26.067-3.973-43.125.188l-4.406-18.156c29.26-7.137 55.266-3.473 74.874 11.28 18.24 13.725 30.198 36.15 36.437 65.188 26.094 4.41 55.303 7.784 89.595 9.5 4.537-30.6 15.487-60.877 30.875-90.875-66.84-50.032-120.642-107.877-169.094-168.312zm-254.25 4.28c-12.305 23.56-21.735 50.528-27.75 80.563l93.28 32.968c5.143-14.15 11.484-27.632 19.19-40.22l-84.72-73.312zm220.938 42.344c13.897 0 25.156 11.26 25.156 25.156 0 13.898-11.26 25.156-25.156 25.156-13.897 0-25.156-11.258-25.156-25.156 0-13.897 11.26-25.156 25.156-25.156zM28.406 232.625c-3.147 21.435-4.62 44.283-4.218 68.438l84.75 16.375c2.073-18.17 5.39-35.827 10.218-52.72l-90.75-32.093zm-3.5 87.594c.968 17.276 2.856 35.174 5.75 53.655l75.688 1.47c-.246-13.2.05-26.307.906-39.19L24.906 320.22zm9 72.405c3.113 16.454 7.015 33.356 11.72 50.656l65.25-6.842c-1.765-14.152-3.054-28.315-3.814-42.407l-73.156-1.405zm79.53 62.344l-62.592 6.56c3.033 10.104 6.315 20.325 9.906 30.69h59.344c-2.515-12.318-4.75-24.754-6.656-37.25z"/></svg>