<svg xmlns="http://www.w3.org/2000/svg" viewBox="0 0 512 512"><path d="M0 0h512v512H0z"/><path d="M48.316 20.402V44.87h99.842V20.4H48.316zm323.674 4.276c-.507.012-1.007.043-1.502.107v-.002c-29.657 3.852-52.81 36.086-52.81 74.99 0 21.547 7.388 40.79 18.765 54.5-61.678 11.595-66.34 115.444-66.34 188.348h30.325l-10.17-11.42c-.31-51.837 1.858-95.18 24.008-135.485l-1.543 146.906h.152l11.348 152.16h85.17l-65.01-11.813c-11.877-104.37-18.84-205.636-4.526-308.45 0 0 9.58-6.11 24.334-13.462-14.18-12.074-23.596-33.254-23.596-57.385 0-37.564 22.797-68.014 50.918-68.014 8.885 0 17.235 3.047 24.506 8.39-10.45-11.976-24.278-19.26-39.42-19.26-1.523 0-3.087-.144-4.608-.108zM43.24 63.558c-14.13 18.416-22.886 43.986-22.886 72.255 0 29.885 9.784 56.755 25.36 75.345H149.08c15.576-18.59 25.363-45.46 25.363-75.345 0-28.27-8.76-53.84-22.888-72.256H43.24zM441.18 195.98l1.687 147.22 22.322-.268c.308-51.837-1.86-106.648-24.01-146.952zM48.316 229.846v24.468h99.842v-24.468H48.316z" fill="#fff" fill-rule="evenodd"/></svg>