<svg xmlns="http://www.w3.org/2000/svg" viewBox="0 0 512 512"><path d="M0 0h512v512H0z"/><path d="M223.125 24.938L205.062 43l-5.875-5.875-6.625-6.594-6.593 6.595-132.314 132.28L47.03 176l6.626 6.594 5.907 5.906-18.032 18.063-2.75 2.718v38.97h18.69V217l15.31-15.28 35.657 35.624-18.062 18.062-2.72 2.75v38.939h18.69v-31.22l15.31-15.312 35.157 35.157-18.062 18.06-2.75 2.72v38.969h18.688v-31.19l15.343-15.342 36.657 36.656-18.062 18.062-2.75 2.72v38.968h18.688v-31.25l15.312-15.313 35.656 35.658-18.06 18.062-2.72 2.75v38.938h18.688v-31.22l15.312-15.312 35.156 35.156-18.062 18.063-2.75 2.72v38.966h18.687v-31.187l15.345-15.344 5.78 5.783 6.595 6.625 6.594-6.625 132.312-132.25 6.625-6.625-6.624-6.594-5.812-5.813 18.062-18.06-13.22-13.19-18.06 18.033-35.126-35.125 18.03-18.063-13.217-13.22L401 238.938l-35.625-35.625 18.063-18.062-13.22-13.22-18.062 18.064-36.656-36.656 18.063-18.063-13.22-13.188-18.03 18.063-35.188-35.188 18.063-18.03-13.22-13.22-18.03 18.063L218.28 56.22l18.064-18.064-13.22-13.218zm-29.22 67l209.376 209.718-73.5 73.5L120.376 165.75l73.53-73.813zm-32.5 64.968l-13.186 13.25 173.968 172.72 6.562 6.53 6.594-6.53 34.5-34.25-13.156-13.282-27.938 27.75-167.344-166.188zM102.5 174.312L320.938 392.75v30.688L74 176.53l28.5-2.218zm319.688 134.875l25.875 3.25.5.5-108.938 108.938V391.78l82.563-82.592z" fill="#fff"/></svg>