<svg xmlns="http://www.w3.org/2000/svg" viewBox="0 0 512 512"><path d="M0 0h512v512H0z"/><path d="M67 20.313c-42.248.408-79.452 58.42-19.844 72.188 103.83 23.99 184.81 86.124 247.906 183.094 8.264 16.267 14.432 32.547 11.375 48.813l.125-.063c-5.354 13.41-6.013 29.53-3.343 45.907 4.085 25.08 16.51 52.25 37.75 75.47 21.236 23.218 46.927 37.78 71.436 43.937 24.508 6.158 49.03 4.32 65.438-10.688 16.44-15.04 18.598-38.185 12.875-61.688-5.724-23.503-20.063-48.758-41.064-71.72-21.002-22.958-44.882-39.49-67.78-47.28-8.205-2.79-16.443-4.555-24.407-5-13.54-5.482-23.54-17.083-32.533-30.438-55.683-108.19-138.264-178.81-234.53-236.187-7.587-4.523-15.583-6.42-23.407-6.344zm255.187 315.47c24.647 61.84 73.337 110.805 127.657 137.56-8.46 1.427-18.92 1.082-30.313-1.78-21-5.276-44.56-18.232-63.843-39.312-19.28-21.078-30.677-46.325-34.187-67.874-1.782-10.936-1.264-20.684.687-28.594zM472.78 455.656c-.688 2.156-1.535 4.11-2.56 5.844l2.56-5.843z" fill="#fff"/></svg>