<svg xmlns="http://www.w3.org/2000/svg" viewBox="0 0 512 512"><path d="M0 0h512v512H0z"/><path d="M205.28 19.313c-20.085.137-40.922 4.267-61.25 12.28 5.995 18.322 23 69.126 23 69.126l-17.718 5.936s-15.74-46.93-22.406-67.344c-18.048 9.262-35.354 21.73-50.97 37.344-16.065 16.066-28.882 33.996-38.342 52.72 21.832 7.218 66.625 22.374 66.625 22.374l-5.97 17.72s-48.035-16.194-68.313-22.907c-14.068 36.192-15.963 73.99-5 105.906 12.707-12.707 32.677-19.486 56.407-20.657l65.875 65.875 13.218-13.22-51.72-51.718c49.286 5.508 107.47 30.846 150.72 74.094L305.313 261c-42.398-42.397-66.842-101.29-72.47-150.875l51 50.97 13.188-13.22-65.31-65.313c.903-24.132 7.247-44.154 19.186-56.093-14.296-4.89-29.72-7.266-45.625-7.157zM327.03 155.22c-2.718 0-5.368.31-7.905.905 2.66 1.742 5.267 3.86 7.72 6.313 12.098 12.1 15.85 27.96 8.374 35.437-7.478 7.477-23.37 3.756-35.47-8.344-2.44-2.438-4.515-5.04-6.25-7.686-.58 2.51-.906 5.124-.906 7.812 0 19.032 15.405 34.47 34.437 34.47 5.57 0 10.845-1.342 15.5-3.69l16.283 16.25L372 223.5l-15.656-15.688c3.274-5.272 5.156-11.493 5.156-18.156 0-19.035-15.437-34.437-34.47-34.437zm-95.28 42c66.16 66.16 31.966 100.528-34.28 34.28l34.28-34.28zm153.47 39.468L372 249.905l30.656 30.656 13.22-13.218-30.657-30.656zm43.874 43.875l-13.22 13.218 29.25 29.25 13.22-13.217-29.25-29.25zm-239.906 11.5c-2.733 0-5.39.336-7.938.937 2.672 1.745 5.29 3.854 7.75 6.313 12.1 12.1 15.82 27.96 8.344 35.437-7.477 7.477-23.338 3.725-35.438-8.375-2.45-2.45-4.54-5.06-6.28-7.72-.592 2.53-.907 5.167-.907 7.876 0 19.033 15.435 34.47 34.468 34.47 6.607 0 12.786-1.87 18.03-5.094l16.188 16.188 13.22-13.22-16.72-16.718c2.39-4.69 3.75-10 3.75-15.625 0-19.034-15.436-34.467-34.47-34.467zm282.375 30.968l-13.22 13.22 34.47 34.47v-26.44l-21.25-21.25zm39.937 39.94v.186l.094-.094-.094-.093zm-261.656 9.124l-13.22 13.22 30.657 30.623 13.22-13.187-30.656-30.656zm43.844 43.844L280.5 429.156l29.25 29.25 13.188-13.22-29.25-29.248zm42.5 42.5l-13.22 13.187 21.75 21.75h26.407l-34.938-34.938z" fill="#fff"/></svg>