<svg xmlns="http://www.w3.org/2000/svg" viewBox="0 0 512 512"><path d="M0 0h512v512H0z"/><path d="M182.416 89.854c-60.93-.06-118.51 21.342-161.756 66.05v28.334c49.963-63.205 125.667-85.68 204.895-71.904-76.8-.694-151.677 30.28-204.895 93.365v30.628c50.048-71.48 126.105-106.393 204.754-105.516-74.364 9.908-143.602 62.373-199.148 149.473l-4.295 6.735 5.987 5.29c1.83 1.62 3.668 3.203 5.506 4.78 59.508 65.856 147.41 108.008 235.96 122.107 81.518 12.98 164.023 2.26 225.46-37.586v-22.727c-57.055 42.12-139.732 55.04-222.522 41.86-9.308-1.483-18.61-3.316-27.874-5.448 90.432 10.556 183.536-8.224 250.397-59.684V311.43C449.71 350.953 387.6 372.692 321.92 377.674c55.068-13.21 110.284-41.767 164.637-85.055l7.017-5.59-5.3-7.24c-12.003-16.396-24.22-31.422-36.602-45.1C392.7 159.523 315.625 111.976 238.994 95.88c-16.7-3.507-33.403-5.497-49.892-5.935-2.233-.06-4.46-.09-6.686-.09zm78.932 48.437c7.203 8.575 13.243 17.97 18.224 27.946-13.003 4.898-22.254 17.448-22.254 32.164 0 18.98 15.384 34.366 34.364 34.366 1.976 0 3.91-.178 5.797-.498 4.878 54.408-10.42 111.357-36.132 145.443-43.73-59.246-50.73-172.443 0-239.42zm-46.016 13.19c-41.668 17.862-70.86 59.245-70.86 107.452 0 46.42 27.066 86.518 66.278 105.375-44.074-6.824-87.485-24.75-129.883-54.182-7.725-22.932-9.04-45.864-2.832-68.797 41.927-49.513 88.708-79.833 137.297-89.848zm117.188 14.782c34.544 15.74 69.317 41.773 103.375 79.01 5.113 20.777 4.177 41.554-2.006 62.33-37.088 24.156-74.08 40.968-110.726 50.502 33.043-20.646 55.03-57.34 55.03-99.172 0-37.747-17.904-71.306-45.674-92.67zm181.052 199.644v2.135c.35-.284.706-.564 1.055-.85l-1.055-1.284z" fill="#fff"/></svg>