<svg xmlns="http://www.w3.org/2000/svg" viewBox="0 0 512 512"><path d="M0 0h512v512H0z"/><path d="M26.813 17.813c10.67 36.57 30.308 58.678 55.5 75.343 26.295 17.395 58.9 28.282 92.25 40.5 33.35 12.22 67.5 25.846 96.125 50.125 24.774 21.014 45.033 50.145 56.5 91.75 10.083-7.83 19.953-15.923 29.687-24.155-8.25-37.906-24.515-64.104-45.5-84.125-23.608-22.523-53.616-37.196-85.313-49.78-31.696-12.587-64.96-23.005-94.53-38-28.06-14.23-53.063-32.96-68.845-61.657H26.813zm57.78 0C98.03 37.413 117.137 51.185 140 62.78c27.615 14.006 60.402 24.426 92.938 37.345 32.535 12.92 64.96 28.424 91.343 53.594 21.59 20.595 38.808 47.72 48.47 84.03 10.542-9.203 20.88-18.468 31.063-27.656-4.29-31.932-15.97-55.526-32.344-74.313-18.983-21.777-44.68-37.112-73.25-49.436-56.814-24.508-124.14-35.88-167.408-68.53l-46.218-.002zm82.5 0c38.082 18.53 90.58 30.703 138.5 51.374 29.982 12.934 58.36 29.522 79.97 54.313 18.824 21.597 32.212 49.413 36.906 85.125 11.41-.115 22.933-1.572 34.31-4.53 6.072-51.136-23.834-93.087-67.217-125.345-44.564-33.135-102.834-54.48-144.157-60.938h-78.312zm148.47 0C344.61 28.898 374.5 44.279 400.688 63.75c47.9 35.617 83.894 86.4 73.843 148.28l-.592-.093c-3.8 20.62-11.742 36.798-22.907 50.532-16.013 19.697-39.146 34.58-66.905 48.342-55.517 27.525-128.875 50.104-192.844 103.407l-.343.31-.343.345-33.53 34.344-2.314-21.876-1.28-12.156-11.407 4.437c-33.53 13.054-62.26 31.723-89.72 50.906-5.284-2.04-8.91-4.855-11-8.217-2.192-3.53-3.116-8.167-1.968-14.688L118.28 399.5l1.314-.78.97-1.158c12.175-14.383 13.776-33.828 6.905-50.718l22.56 9.53c-.257-16.11-3.89-26.708-9.405-34.405-7.125-9.95-18.33-16.103-33.125-21.47-24.528-8.9-57.97-14.734-87.656-36.125v30.97c20.075 21.326 47.712 29.102 67.72 34.686l1.717.72c9.795 5.807 16.654 13.605 20.345 21.72 5.218 11.472 4.48 22.9-2.563 31.967l-80.937 49.344-3.188 1.97-.968 3.594c-3.275 12.18-2.11 23.814 3.5 32.844 5.608 9.03 15.048 14.85 25.905 17.75l4.22 1.125 3.56-2.532c25.008-17.58 50.215-34.295 78.314-46.75l3.093 29.19 2.062 19.78 13.906-14.25 47.064-48.188c60.463-50.24 131.272-72.253 188.812-100.78 28.825-14.29 54.484-30.322 73.125-53.25 17.733-21.81 28.453-49.89 29.47-86.25l.125-.063v-14.845h-.063c.264-81.24-73.275-134.13-132.937-155.313h-46.563zM19.842 51.03v52.75c10.487 24.406 27.77 38.944 49.75 50.25 23.378 12.026 51.937 19.68 80.626 29.376 28.687 9.696 57.71 21.552 81.28 43.313 20.874 19.27 36.986 46.308 44.563 84.624 11.905-7.347 23.528-15.285 34.937-23.625-10.11-42.448-28.82-69.71-52.375-89.69-25.635-21.74-57.498-34.732-90.47-46.81-32.97-12.08-66.98-23.17-96.155-42.47-20.953-13.86-39.27-32.264-52.156-57.72zm0 87.845v38.813l.22-.157C44.636 212.48 90.37 218.744 135 234c22.315 7.63 44.27 17.78 61.344 36.313 14.593 15.84 25.135 37.576 29.562 67.343 11.21-4.807 22.2-10.24 32.97-16.22-6.31-38.705-20.892-63.268-40.063-80.967-20.417-18.85-46.672-29.92-74.563-39.345-27.89-9.426-57.24-17.12-83.188-30.47-15.407-7.924-29.668-18.113-41.218-31.78zm493.97 34.25v4.28l7.562-4.28h-7.563zm-493.97 32.22v34.905c27.883 25.858 63.202 31.502 94.032 42.688 16.226 5.887 31.563 13.672 41.938 28.156 7.978 11.138 12.446 25.657 12.875 44.5 13.415-2.626 26.51-6.334 39.312-10.906-3.538-29.16-12.852-48.093-25.406-61.72-13.957-15.15-32.584-24.087-53.625-31.28-35.713-12.21-78.587-18.57-109.126-46.344z" fill="#fff"/></svg>