<?xml version="1.0" encoding="UTF-8" standalone="no"?>
<svg
   xmlns:dc="http://purl.org/dc/elements/1.1/"
   xmlns:cc="http://creativecommons.org/ns#"
   xmlns:rdf="http://www.w3.org/1999/02/22-rdf-syntax-ns#"
   xmlns:svg="http://www.w3.org/2000/svg"
   xmlns="http://www.w3.org/2000/svg"
   xmlns:sodipodi="http://sodipodi.sourceforge.net/DTD/sodipodi-0.dtd"
   xmlns:inkscape="http://www.inkscape.org/namespaces/inkscape"
   viewBox="0 0 512 512"
   id="svg2"
   version="1.1"
   inkscape:version="0.48.4 r9939"
   width="100%"
   height="100%"
   sodipodi:docname="dwarf-helmet.svg">
  <metadata
     id="metadata12">
    <rdf:RDF>
      <cc:Work
         rdf:about="">
        <dc:format>image/svg+xml</dc:format>
        <dc:type
           rdf:resource="http://purl.org/dc/dcmitype/StillImage" />
      </cc:Work>
    </rdf:RDF>
  </metadata>
  <defs
     id="defs10">
    <inkscape:path-effect
       effect="skeletal"
       id="path-effect3789"
       is_visible="true"
       pattern="M 0,5 C 0,2.24 2.24,0 5,0 7.76,0 10,2.24 10,5 10,7.76 7.76,10 5,10 2.24,10 0,7.76 0,5 z"
       copytype="single_stretched"
       prop_scale="1"
       scale_y_rel="false"
       spacing="0"
       normal_offset="0"
       tang_offset="0"
       prop_units="false"
       vertical_pattern="false"
       fuse_tolerance="0" />
  </defs>
  <sodipodi:namedview
     pagecolor="#ffffff"
     bordercolor="#666666"
     borderopacity="1"
     objecttolerance="10"
     gridtolerance="10"
     guidetolerance="10"
     inkscape:pageopacity="0"
     inkscape:pageshadow="2"
     inkscape:window-width="1615"
     inkscape:window-height="1026"
     id="namedview8"
     showgrid="false"
     inkscape:zoom="0.55192006"
     inkscape:cx="-315.69173"
     inkscape:cy="283.67703"
     inkscape:window-x="65"
     inkscape:window-y="24"
     inkscape:window-maximized="1"
     inkscape:current-layer="g3945" />
  <path
     d="M 0,-4.15e-6 H 512 V 512 H 0 z"
     id="path4"
     inkscape:connector-curvature="0"
     style="fill:#000000;stroke:#ffffff;stroke-width:0" />
  <g
     id="g3945"
     transform="translate(1,-24)">
    <g
       id="g4063">
      <path
         style="fill:#ffffff;fill-opacity:1;stroke:none"
         d="m 224,240 -16,-16 c 0,0 -93.88546,-1.1e-4 -112,-1.1e-4 C 96,148.66339 148.66352,96 224,96 c 0,48.64573 0,144 0,144 z"
         id="path2989"
         inkscape:connector-curvature="0"
         sodipodi:nodetypes="ccccc" />
      <path
         style="fill:#ffffff;fill-opacity:1;stroke:none"
         d="m 240,290 16,8 16,-8 16,94 -32,16 -32,-16 z"
         id="rect3760"
         inkscape:connector-curvature="0"
         sodipodi:nodetypes="ccccccc" />
      <path
         sodipodi:nodetypes="cccccccccccccccc"
         inkscape:connector-curvature="0"
         id="rect3762"
         transform="translate(-1,24)"
         d="m 81,216 0,32 47,0 -31,-32 z m 39,0 32,32 32,0 -32,-32 z m 55,0 32,32 18,0 0,-8 -24,-24 z"
         style="fill:#ffffff;fill-opacity:1;stroke:none" />
      <path
         style="fill:#ffffff;fill-opacity:1;stroke:none"
         d="m 240,64 32,0 0,208 -16,8 -16,-8 z"
         id="rect3784"
         inkscape:connector-curvature="0"
         sodipodi:nodetypes="cccccc" />
      <path
         style="fill:#ffffff;fill-opacity:1;stroke:none"
         d="m 96,288 16,0 8,16 94.3348,38.72377 L 209,377 96,320 z"
         id="path3791"
         inkscape:connector-curvature="0"
         sodipodi:nodetypes="ccccccc" />
      <path
         style="fill:#ffffff;fill-opacity:1;stroke:none"
         d="m 248,414 -64,-31 -56,113 84,0 12,-48 24,0 z"
         id="path3793"
         inkscape:connector-curvature="0"
         sodipodi:nodetypes="ccccccc" />
      <path
         style="fill:#ffffff;fill-opacity:1;stroke:none"
         d="m 114,488 -61,-42 64,-96 52,26 z"
         id="path3795"
         inkscape:connector-curvature="0"
         sodipodi:nodetypes="ccccc" />
      <path
         style="fill:#ffffff;fill-opacity:1;stroke:none"
         d="m 44,430 0,-56 44,-39 14,7 z"
         id="path3795-6"
         inkscape:connector-curvature="0"
         sodipodi:nodetypes="ccccc" />
      <path
         style="fill:#ffffff;fill-opacity:1;stroke:none"
         d="m 286,240 16,-15.99999 c 0,0 93.88546,-1.1e-4 112,-1.1e-4 C 414,148.6634 361.33648,96.000006 286,96.000006 286,144.64574 286,240 286,240 z"
         id="path2989-0"
         inkscape:connector-curvature="0"
         sodipodi:nodetypes="ccccc" />
      <path
         style="fill:#ffffff;fill-opacity:1;stroke:none"
         d="m 414,288 -16,0 -8,16 -94.3348,38.72377 L 301,377 414,320 z"
         id="path3791-3"
         inkscape:connector-curvature="0"
         sodipodi:nodetypes="ccccccc" />
      <path
         style="fill:#ffffff;fill-opacity:1;stroke:none"
         d="m 262,414 64,-31 56,113 -84,0 -12,-48 -24,0 z"
         id="path3793-6"
         inkscape:connector-curvature="0"
         sodipodi:nodetypes="ccccccc" />
      <path
         style="fill:#ffffff;fill-opacity:1;stroke:none"
         d="m 396,488 61,-42 -64,-96 -52,26 z"
         id="path3795-61"
         inkscape:connector-curvature="0"
         sodipodi:nodetypes="ccccc" />
      <path
         style="fill:#ffffff;fill-opacity:1;stroke:none"
         d="m 466,430 0,-56 -44,-39 -14,7 z"
         id="path3795-6-8"
         inkscape:connector-curvature="0"
         sodipodi:nodetypes="ccccc" />
      <path
         sodipodi:nodetypes="cccccccccccccccc"
         inkscape:connector-curvature="0"
         id="rect3762-9"
         d="m 430,240 0,32 -47,0 31,-32 z m -39,0 -32,32 -32,0 32,-32 z m -55,0 -32,32 -18,0 0,-8 24,-24 z"
         style="fill:#ffffff;fill-opacity:1;stroke:none" />
    </g>
  </g>
</svg>
