<svg xmlns="http://www.w3.org/2000/svg" viewBox="0 0 512 512"><path d="M0 0h512v512H0z"/><path fill="#fff" d="m 374.45522,297.29916 c -6.56051,-6.5605 -19.55217,-7.96502 -36.92837,-2.0564 -17.3762,5.90861 -37.87234,18.87435 -56.39592,37.39793 -18.52358,18.52358 -31.48932,39.01971 -37.39793,56.39591 -5.90861,17.3762 -4.50272,30.36648 2.05779,36.92699 6.5605,6.5605 19.55079,7.96641 36.92699,2.0578 17.37621,-5.90861 37.87233,-18.87436 56.39591,-37.39794 18.52358,-18.52358 31.48934,-39.0197 37.39794,-56.39591 5.90861,-17.3762 4.50409,-30.36787 -2.05641,-36.92838 z M 89.215943,294.48243 c -3.078135,11.24988 -6.261459,22.67108 -3.876056,29.07348 16.050003,43.07756 60.013943,87.0415 103.091503,103.09148 6.40284,2.3856 17.82498,-0.7967 29.07518,-3.87434 -4.97426,0.31217 -11.3699,1.53083 -16.33774,-0.32011 C 153.541,404.70761 107.27969,358.4463 89.534339,310.81844 87.683232,305.85016 88.903203,299.45599 89.215943,294.48243 Z M 403.72972,57.536102 c 0,0 -20.22339,-9.566164 -52.28586,-0.667056 -28.80991,7.996341 -106.4257,63.817854 -121.99525,75.146674 8.15088,12.34243 7.50359,29.62074 1.49984,47.27671 -6.88218,20.23931 -21.05774,42.2378 -40.99286,62.17293 -19.93512,19.93512 -41.93359,34.11066 -62.17292,40.99285 -8.2823,2.81632 -16.48019,4.4522 -24.12587,4.55614 -1.71051,7.41205 -2.26079,14.29761 -0.19059,20.26303 6.59203,18.99531 18.39567,37.79204 33.22159,54.2083 l 12.34677,12.46273 c 16.75979,15.45609 36.11077,27.78372 55.67637,34.57366 5.96643,2.07056 12.85168,1.52381 20.26441,-0.18644 0.10359,-7.64649 1.73949,-15.84533 4.55615,-24.12864 6.88218,-20.2393 21.05773,-42.2378 40.99285,-62.17292 19.93512,-19.93512 41.93362,-34.11068 62.17292,-40.99285 17.65521,-6.0035 34.93301,-6.65133 47.27534,1.49845 11.32907,-15.56929 67.15186,-93.18376 75.14805,-121.99387 8.89894,-32.06268 -0.66844,-52.28724 -0.66844,-52.28724 L 403.72974,57.536081 Z m -58.30455,98.051678 10.97673,10.97673 c 2.07612,2.07612 2.5299,4.96539 2.276,7.44948 -0.25393,2.48411 -1.11992,4.93571 -2.38372,7.52129 -2.52762,5.17118 -6.75445,10.86175 -12.24456,16.35185 l -4.04103,4.03821 c -0.74239,0.74239 -1.48561,1.45295 -2.22356,2.13786 l -0.48196,0.44887 -0.59524,0.28312 c 0,0 -5.43763,2.58742 -11.862,4.35174 -3.21218,0.88215 -6.69395,1.5908 -10.15085,1.6048 -3.45689,0.014 -7.20263,-0.64532 -10.00721,-3.4499 -2.80459,-2.80459 -3.46402,-6.55037 -3.4499,-10.00722 0.0141,-3.45686 0.72254,-6.93876 1.6048,-10.15085 1.76453,-6.42419 4.35311,-11.86061 4.35311,-11.86061 l 0.28175,-0.59662 0.45025,-0.48334 c 0.6849,-0.73794 1.3955,-1.47838 2.13789,-2.22076 l 4.03962,-4.03963 c 5.49011,-5.4901 11.17653,-9.7183 16.34771,-12.24592 2.58558,-1.26381 5.0372,-2.1298 7.5213,-2.38373 0.31051,-0.0317 0.62795,-0.0543 0.94879,-0.0621 2.24582,-0.055 4.68546,0.52015 6.50207,2.33676 z m 32.88046,172.6335 c -0.24961,0.96914 -0.52382,1.95364 -0.82173,2.9541 0.29999,-1.00155 0.57208,-1.98483 0.82173,-2.9541 z m -56.30752,96.20657 c -11.59139,7.97534 -23.28827,13.99938 -34.45074,17.79506 -20.23929,6.88217 -39.98307,6.7274 -52.36318,-5.65272 -3.80575,-3.80574 -6.4527,-8.31001 -8.09859,-13.30796 a 44.064476,98.479668 45 0 0 5.55881,29.02038 44.064476,98.479668 45 0 0 89.3537,-27.85476 z m -74.70748,-44.32952 c -0.5115,1.13702 -0.99859,2.26403 -1.45703,3.38224 0.46022,-1.11854 0.94526,-2.24542 1.45703,-3.38224 z m -2.09232,4.96494 c -0.14607,0.37386 -0.29371,0.74726 -0.43366,1.11867 0.14052,-0.37164 0.28693,-0.74455 0.43366,-1.11867 z m -1.46531,3.97333 c -0.73858,2.17203 -1.36266,4.27637 -1.87687,6.30734 0.51421,-2.03097 1.13829,-4.13531 1.87687,-6.30734 z M 214.69052,137.53447 c -6.56051,-6.56051 -19.55217,-7.96503 -36.92838,-2.05642 -17.3762,5.90862 -37.87232,18.87437 -56.39591,37.39795 -18.52358,18.52358 -31.489319,39.0197 -37.397932,56.3959 -5.908612,17.3762 -4.502714,30.36649 2.057794,36.927 6.560501,6.5605 19.550788,7.9664 36.926988,2.05778 17.37621,-5.9086 37.87233,-18.87435 56.39591,-37.39793 18.52358,-18.52358 31.48933,-39.0197 37.39794,-56.39591 5.90861,-17.3762 4.50409,-30.36787 -2.05641,-36.92837 z m -30.91382,-3.85319 c -0.9532,0.24541 -1.91996,0.51108 -2.90439,0.80517 0.98411,-0.29303 1.95099,-0.55978 2.90439,-0.80517 z m -96.348825,56.51054 a 44.064476,98.479668 45 0 0 -27.722178,89.15208 44.064476,98.479668 45 0 0 28.931995,5.52841 C 83.675881,283.2243 79.202257,280.58827 75.41949,276.8055 63.039373,264.42538 62.884601,244.6816 69.766773,224.44231 c 3.773908,-11.0984 9.753915,-22.72443 17.661102,-34.25049 z m 44.500765,74.49205 c -1.17865,0.53105 -2.34744,1.03086 -3.50653,1.50674 1.1588,-0.47385 2.32751,-0.97585 3.50653,-1.50674 z m -4.97461,2.09646 c -0.38759,0.15221 -0.77379,0.3033 -1.15871,0.44884 0.38459,-0.14485 0.77149,-0.29742 1.15871,-0.44884 z"/></svg>
