<svg xmlns="http://www.w3.org/2000/svg" viewBox="0 0 512 512"><path d="m -0.48535,0 512,0 0,512 -512,0 z"/><path d="M 428.97414,82.539088 C 417.39669,70.961642 400.19381,63.406013 378.45329,60.308037 c -21.72402,-3.095636 -47.18865,-1.489528 -72.23399,3.512056 -50.07229,9.99948 -99.40508,34.575001 -117.97359,53.143497 -18.67593,18.67593 -24.97977,46.71798 -19.24932,78.13806 5.73044,31.42007 23.70005,65.70109 52.70707,94.70811 29.00702,29.00702 63.28945,46.97802 94.7095,52.70846 31.42007,5.73045 59.46212,-0.57339 78.13806,-19.24933 18.56851,-18.56851 43.14263,-67.90267 53.14211,-117.97496 5.00159,-25.04534 6.60907,-50.50862 3.51344,-72.23262 -3.09799,-21.74054 -10.65499,-38.944786 -22.23243,-50.522222 z m -14.24292,14.245746 c 11.74942,11.749416 18.69665,28.189386 21.58748,47.269816 1.42258,9.38958 1.82858,19.29338 1.41974,29.40017 a 7.50075,7.50075 0 0 1 -9.47551,6.92882 l -40.36447,-11.05821 a 7.50075,7.50075 0 0 1 -5.45108,-6.23829 c -0.062,-0.46344 -0.11264,-0.85385 -0.15882,-1.15871 -1.52383,-10.0577 -5.03606,-17.68388 -10.02656,-22.67438 -4.99047,-4.99047 -12.61857,-8.50419 -22.67575,-10.02793 -0.30474,-0.0462 -0.69519,-0.0968 -1.15872,-0.15883 a 7.50075,7.50075 0 0 1 -6.23828,-5.45107 L 331.13238,83.253094 a 7.50075,7.50075 0 0 1 6.92882,-9.475503 c 10.10601,-0.409171 20.00875,-0.0043 29.3988,1.41836 19.08073,2.890859 35.5218,9.839453 47.27118,21.588853 z m -10.6066,10.606596 c -8.87543,-8.875426 -22.09022,-14.817196 -38.9102,-17.365536 -5.37819,-0.81484 -11.13441,-1.13634 -17.01753,-1.24573 l 7.22713,26.382546 c 10.80251,2.16484 20.37034,6.41048 27.44458,13.48474 7.07411,7.07411 11.31875,16.64147 13.48337,27.44321 l 26.38527,7.22709 c -0.10981,-5.883 -0.43367,-11.6394 -1.24849,-17.01752 -2.5484,-16.82033 -8.48871,-30.03338 -17.36417,-38.90883 z m 27.00817,94.77718 a 7.50075,7.50075 0 0 1 2.08955,6.88186 c -3.72214,17.87496 -9.43859,35.24301 -16.08944,50.53328 a 7.50075,7.50075 0 0 1 -9.46308,4.04928 c -12.34728,-4.53312 -25.02859,-10.48774 -37.69625,-17.82268 a 7.50075,7.50075 0 0 1 -2.87952,-9.98374 c 5.75091,-10.9249 11.05262,-25.37892 13.83001,-39.93219 -0.0343,0.1793 -0.0315,0.15709 0.011,-0.0663 a 7.50075,7.50075 0 0 1 9.34845,-5.83225 l 37.5761,10.29172 a 7.50075,7.50075 0 0 1 3.27313,1.88102 z M 309.39161,80.430265 a 7.50075,7.50075 0 0 1 1.83682,3.226179 l 10.29034,37.574706 a 7.50075,7.50075 0 0 1 -5.83225,9.34845 c -0.22342,0.0425 -0.24562,0.0453 -0.0663,0.011 -14.55328,2.77741 -29.0073,8.0791 -39.93219,13.83002 a 7.50075,7.50075 0 0 1 -9.98374,-2.87953 c -7.33475,-12.66732 -13.28838,-25.34842 -17.8213,-37.69487 a 7.50075,7.50075 0 0 1 4.04928,-9.463076 c 15.29035,-6.65043 32.65829,-12.367236 50.53328,-16.089439 a 7.50075,7.50075 0 0 1 6.92606,2.136508 z m -10.71708,14.175289 c -11.80893,2.83619 -23.28909,6.525886 -33.90246,10.755746 3.01998,7.41586 6.57953,14.94021 10.70051,22.54731 8.8971,-4.10257 18.94292,-7.65449 29.51757,-10.24061 l -6.31562,-23.062446 z m 118.23598,118.235976 -23.06383,-6.317 c -2.58612,10.57465 -6.13804,20.62047 -10.24062,29.51756 7.60771,4.12149 15.13249,7.68166 22.54869,10.7019 4.22992,-10.61314 7.91961,-22.09344 10.75576,-33.90246 z M 179.05333,104.99249 c -40.14335,14.62479 -74.34497,34.10341 -91.843777,51.60222 -51.197408,51.19741 -32.74413,152.37975 41.293917,226.4178 74.03808,74.03807 175.21901,92.48996 226.41643,41.29255 17.49843,-17.49844 36.97498,-51.69873 51.59946,-91.84101 -0.45416,0.47466 -0.90819,0.95782 -1.36177,1.41141 -22.80672,22.80672 -56.49623,29.77024 -91.43498,23.39805 -34.93873,-6.37218 -71.64353,-25.87493 -102.62579,-56.85718 -30.98225,-30.98226 -50.4836,-67.68566 -56.85579,-102.6244 -6.37219,-34.93876 0.59133,-68.62826 23.39804,-91.43498 0.4545,-0.45449 0.93858,-0.90942 1.41423,-1.3645 z" fill="#fff"/></svg>
