<?xml version="1.0" encoding="UTF-8" standalone="no"?>
<svg
   xmlns:dc="http://purl.org/dc/elements/1.1/"
   xmlns:cc="http://creativecommons.org/ns#"
   xmlns:rdf="http://www.w3.org/1999/02/22-rdf-syntax-ns#"
   xmlns:svg="http://www.w3.org/2000/svg"
   xmlns="http://www.w3.org/2000/svg"
   xmlns:sodipodi="http://sodipodi.sourceforge.net/DTD/sodipodi-0.dtd"
   xmlns:inkscape="http://www.inkscape.org/namespaces/inkscape"
   viewBox="0 0 512 512"
   id="svg2"
   version="1.1"
   inkscape:version="0.91 r13725"
   sodipodi:docname="cruiser-01.svg">
  <metadata
     id="metadata12">
    <rdf:RDF>
      <cc:Work
         rdf:about="">
        <dc:format>image/svg+xml</dc:format>
        <dc:type
           rdf:resource="http://purl.org/dc/dcmitype/StillImage" />
        <dc:title></dc:title>
      </cc:Work>
    </rdf:RDF>
  </metadata>
  <defs
     id="defs10" />
  <sodipodi:namedview
     pagecolor="#ffffff"
     bordercolor="#666666"
     borderopacity="1"
     objecttolerance="10"
     gridtolerance="10"
     guidetolerance="10"
     inkscape:pageopacity="0"
     inkscape:pageshadow="2"
     inkscape:window-width="1855"
     inkscape:window-height="1056"
     id="namedview8"
     showgrid="false"
     inkscape:zoom="0.89746094"
     inkscape:cx="208.35701"
     inkscape:cy="262.84109"
     inkscape:window-x="65"
     inkscape:window-y="24"
     inkscape:window-maximized="1"
     inkscape:current-layer="svg2"
     showguides="false" />
  <path
     d="m 5.7740457,-2.1329174 512.0000043,0 0,511.9999874 -512.0000043,0 z"
     id="path4"
     inkscape:connector-curvature="0" />
  <path
     id="path7205-4-3"
     style="opacity:1;fill:#ffffff;fill-opacity:1;fill-rule:nonzero;stroke:none;stroke-width:15;stroke-linecap:round;stroke-linejoin:round;stroke-miterlimit:4;stroke-dasharray:none;stroke-opacity:1"
     d="m 107.00101,408.72725 c 0.13494,-11.21008 9.79017,-27.52445 14.68525,-41.28668 0,0 7.99837,9.72889 12.43523,14.17262 4.43612,4.44319 14.15082,12.45486 14.15082,12.45486 -14.45286,5.85941 -30.79742,14.36196 -41.27024,14.66026 l -0.001,-0.001 z m 54.27162,35.37724 c 0,0 7.61682,-20.04312 10.7185,-23.18119 3.1017,-3.13805 2.06834,-1.766 3.10731,-2.66556 l 14.6459,10.33766 c -1.56985,2.1001 -2.23991,2.13371 -5.28732,4.7855 -3.04744,2.65178 -23.18439,10.72359 -23.18439,10.72359 z M 71.448298,354.28016 c 0,0 20.04312,-7.61682 23.18119,-10.7185 3.13805,-3.1017 1.766,-2.06834 2.66556,-3.10731 l -10.33766,-14.6459 c -2.1001,1.56985 -2.13371,2.23991 -4.7855,5.28732 -2.651775,3.04744 -10.72359,23.18439 -10.72359,23.18439 z m 378.042672,-203.93739 -22.14405,10.32486 -6.95781,-0.32317 c -3.15189,-1.84338 -6.98452,-2.02192 -10.29448,-0.48061 -5.63924,2.62969 -8.00193,9.11881 -5.37236,14.7581 2.62904,5.63783 9.11702,7.99882 14.75533,5.37235 3.3012,-1.54704 5.62254,-4.59424 6.23552,-8.18835 l 4.2233,-5.53533 22.16338,-10.33591 -2.60883,-5.59194 z m -38.60776,73.27532 -22.14404,10.32487 -6.95782,-0.32318 c -3.15188,-1.84338 -6.98452,-2.02191 -10.29448,-0.4806 -5.63924,2.62968 -8.00192,9.1188 -5.37235,14.75808 2.62903,5.63784 9.11701,7.99883 14.75532,5.37236 3.30121,-1.54704 5.62255,-4.59424 6.23552,-8.18835 l 4.22331,-5.53532 22.16338,-10.33591 -2.60884,-5.59195 z m -116.91292,135.39989 -22.14405,10.32487 -6.95782,-0.32317 c -3.15188,-1.84339 -6.98452,-2.02192 -10.29448,-0.48061 -5.63924,2.62969 -8.00192,9.11881 -5.37235,14.75809 2.62903,5.63783 9.11702,7.99883 14.75533,5.37235 3.3012,-1.54704 5.62254,-4.59423 6.23552,-8.18834 l 4.2233,-5.53532 22.16338,-10.33592 -2.60883,-5.59195 z m 71.41502,-292.780863 -5.59332,-2.607458 -10.33454,22.161994 -5.53532,4.22331 c -3.59411,0.61297 -6.64132,2.93432 -8.18834,6.23552 -2.62648,5.638307 -0.26549,12.126287 5.37235,14.755327 5.63866,2.62928 12.12648,0.26693 14.75671,-5.37097 1.54252,-3.31053 1.3646,-7.143217 -0.47923,-10.295857 l -0.32455,-6.95644 10.32624,-22.145426 z m -73.27394,38.606363 -5.59333,-2.60745 -10.33452,22.16199 -5.53533,4.22331 c -3.59411,0.61297 -6.64131,2.93432 -8.18835,6.23552 -2.62648,5.63831 -0.26548,12.12629 5.37236,14.75534 5.63867,2.62928 12.12647,0.26692 14.7567,-5.37098 1.54252,-3.31053 1.3646,-7.14322 -0.47923,-10.29587 l -0.32455,-6.95643 10.32625,-22.14543 z m -135.3999,116.91293 -5.59333,-2.60746 -10.33453,22.162 -5.53531,4.2233 c -3.59411,0.61298 -6.64133,2.93432 -8.18836,6.23553 -2.62648,5.6383 -0.26549,12.12628 5.37235,14.75533 5.63867,2.62928 12.12648,0.26692 14.75671,-5.37097 1.54253,-3.31053 1.36461,-7.14322 -0.47922,-10.29587 l -0.32456,-6.95643 10.32625,-22.14543 z m -34.33059,81.59349 c -1.78604,-1.78651 -4.94096,-2.72212 -9.88154,-1.67247 -4.93789,1.04909 -11.00993,4.25381 -16.224782,9.46583 -0.98747,0.99171 -1.69504,2.13931 -2.56189,3.211 4.36039,6.62231 9.205232,13.36516 14.481882,20.18292 2.22455,-1.44539 4.40243,-3.10024 6.38745,-5.07819 5.21411,-5.21553 8.41904,-11.28845 9.4686,-16.22755 1.04985,-4.94044 0.11639,-8.09537 -1.66972,-9.88154 z m 89.99871,89.99588 c -1.78617,-1.78612 -4.94248,-2.72095 -9.88292,-1.67109 -4.93864,1.04946 -11.00985,4.25507 -16.22479,9.4686 l -0.004,0.004 -0.003,0.003 c -1.96964,1.97531 -3.62289,4.14186 -5.06576,6.35568 6.81559,5.28318 13.55847,10.13299 20.18155,14.50259 1.06911,-0.86504 2.21395,-1.57051 3.20408,-2.55498 5.21202,-5.21485 8.41537,-11.28551 9.46445,-16.2234 1.04966,-4.94059 0.11542,-8.09689 -1.67109,-9.88292 l 0.001,-0.001 z m -41.49698,-48.50169 c -4.26144,-4.26003 -10.71557,-5.99947 -18.73281,-4.68735 -8.0141,1.31161 -17.14494,5.87691 -24.81503,13.54276 -0.59858,0.60424 -1.06963,1.30132 -1.63794,1.93073 5.35875,6.01374 10.88587,11.96842 16.65844,17.74948 5.78926,5.76692 11.7504,11.28697 17.76882,16.63634 0.61938,-0.56182 1.30737,-1.02568 1.90173,-1.61722 7.66865,-7.67148 12.23386,-16.80472 13.54552,-24.82056 1.31191,-8.01744 -0.42687,-14.47145 -4.68735,-18.73281 l -0.001,-10e-4 z M 408.6666,77.88366 l -34.58471,5.198333 -4.03547,8.65378 c 2.47398,6.52682 2.40981,13.802407 -0.58696,20.234027 l 0,0.003 c -6.05572,12.98618 -21.70751,18.68256 -34.69381,12.62711 -6.85031,-3.19445 -11.66855,-9.06052 -13.80653,-15.79528 l -18.86539,10.12876 -5.32125,11.409 c 2.47398,6.52682 2.4098,13.80237 -0.58696,20.23403 l 0,0.003 c -6.05572,12.98617 -21.70752,18.68255 -34.69381,12.6271 -6.63955,-3.09615 -11.36772,-8.70257 -13.59937,-15.17654 l -18.3682,9.86081 -2.67652,26.05799 -46.23953,46.23954 -10.94773,-0.70297 -8.28778,17.7702 c 2.47399,6.52683 2.40982,13.8024 -0.58696,20.23403 l 0,0.003 c -6.05572,12.98617 -21.70751,18.68256 -34.69381,12.62711 -4.99923,-2.33124 -8.91227,-6.0867 -11.49601,-10.5624 l -11.12726,12.37022 -0.0801,6.85838 c 1.98383,-0.75551 3.98594,-1.3539 5.99245,-1.78019 8.34936,-1.77388 17.40803,-0.46068 23.60659,5.73833 l 0.001,10e-4 c 6.1977,6.19905 7.50835,15.25634 5.7342,23.60521 -1.09325,5.14465 -3.29593,10.26591 -6.47859,15.09646 5.67446,-3.06751 11.59184,-5.12774 17.48294,-6.09189 11.58635,-1.89625 23.51248,0.63487 31.7618,8.88302 8.2492,8.24897 10.78038,20.1764 8.88441,31.76319 -0.96401,5.89129 -3.02442,11.80859 -6.09189,17.48294 4.83054,-3.18268 9.95179,-5.38534 15.09644,-6.4786 8.34888,-1.77413 17.40616,-0.46349 23.60522,5.7342 l 0.001,0.001 c 6.19901,6.19856 7.51084,15.25585 5.73695,23.60522 -0.38395,1.80723 -0.91184,3.60974 -1.56337,5.39998 l 7.47711,-0.13535 11.58854,-10.44778 c -4.49914,-2.58386 -8.27581,-6.50877 -10.61627,-11.52778 -6.05545,-12.98629 -0.35908,-28.63532 12.6271,-34.69104 l 0.001,-10e-4 c 6.43155,-2.99675 13.70863,-3.05947 20.23541,-0.58557 l 17.73153,-8.26845 -0.7071,-11.01264 46.23953,-46.23954 26.05385,-2.67788 9.84829,-18.34499 c -6.44814,-2.24102 -12.03075,-6.96 -15.11717,-13.57866 -6.05545,-12.98629 -0.35906,-28.63531 12.6271,-34.69104 l 0.001,-0.001 c 6.43155,-2.99674 13.70864,-3.05946 20.23541,-0.58556 l 11.31923,-5.27845 10.1619,-18.92891 c -6.7103,-2.14798 -12.55204,-6.95942 -15.73726,-13.78996 -6.05545,-12.9863 -0.35909,-28.63534 12.6271,-34.69106 l 10e-4,-0.001 c 6.43154,-2.99674 13.70864,-3.05949 20.23541,-0.58557 l 8.59853,-4.01063 5.20801,-34.65513 -29.13225,-29.132244 z M 285.24747,211.08352 304.64594,230.482 a 7.50075,7.50075 0 0 1 1.07309,9.24901 l -12.79697,20.66905 a 7.50075,7.50075 0 0 0 0.001,10e-4 l -44.34195,71.60976 a 7.50075,7.50075 0 0 1 -11.68107,1.35621 l -27.26919,-27.2692 -27.26919,-27.26918 a 7.50075,7.50075 0 0 1 1.35483,-11.68245 l 71.61114,-44.34057 20.6663,-12.79698 a 7.50075,7.50075 0 0 1 9.25315,1.07448 z m -6.4054,14.8078 -15.61712,9.67024 -63.56089,39.3563 20.57377,20.57376 20.57239,20.57239 39.35767,-63.55951 9.67024,-15.61711 -10.99606,-10.99607 z"
     inkscape:connector-curvature="0" />
</svg>
