<?xml version="1.0" encoding="UTF-8" standalone="no"?>
<svg
   xmlns:dc="http://purl.org/dc/elements/1.1/"
   xmlns:cc="http://creativecommons.org/ns#"
   xmlns:rdf="http://www.w3.org/1999/02/22-rdf-syntax-ns#"
   xmlns:svg="http://www.w3.org/2000/svg"
   xmlns="http://www.w3.org/2000/svg"
   xmlns:sodipodi="http://sodipodi.sourceforge.net/DTD/sodipodi-0.dtd"
   xmlns:inkscape="http://www.inkscape.org/namespaces/inkscape"
   viewBox="0 0 512 512"
   id="svg2"
   version="1.1"
   inkscape:version="0.91 r13725"
   sodipodi:docname="cruiser-02.svg">
  <metadata
     id="metadata12">
    <rdf:RDF>
      <cc:Work
         rdf:about="">
        <dc:format>image/svg+xml</dc:format>
        <dc:type
           rdf:resource="http://purl.org/dc/dcmitype/StillImage" />
        <dc:title></dc:title>
      </cc:Work>
    </rdf:RDF>
  </metadata>
  <defs
     id="defs10" />
  <sodipodi:namedview
     pagecolor="#ffffff"
     bordercolor="#666666"
     borderopacity="1"
     objecttolerance="10"
     gridtolerance="10"
     guidetolerance="10"
     inkscape:pageopacity="0"
     inkscape:pageshadow="2"
     inkscape:window-width="1855"
     inkscape:window-height="1056"
     id="namedview8"
     showgrid="false"
     inkscape:zoom="1.6907043"
     inkscape:cx="176.91984"
     inkscape:cy="253.23778"
     inkscape:window-x="65"
     inkscape:window-y="24"
     inkscape:window-maximized="1"
     inkscape:current-layer="svg2" />
  <path
     d="m -0.48535,0 512,0 0,512 -512,0 z"
     id="path4"
     inkscape:connector-curvature="0" />
  <path
     id="path5393"
     style="opacity:1;fill:#ffffff;fill-opacity:1;fill-rule:nonzero;stroke:none;stroke-width:15;stroke-linecap:square;stroke-linejoin:round;stroke-miterlimit:4;stroke-dasharray:none;stroke-opacity:1"
     d="m 421.01432,90.499248 c -2.30742,-2.307424 -12.09808,-5.149271 -30.69423,-0.9046 -18.5318,4.229979 -43.92281,14.558802 -70.07815,28.195892 -52.18771,27.21001 -110.81924,70.1689 -133.54651,92.89615 -23.25811,23.25811 -38.01609,50.84491 -42.95535,76.9683 -4.92416,26.04345 0.12617,49.29772 15.47348,64.64502 15.34728,15.34728 38.60198,20.39756 64.64503,15.47349 26.12337,-4.93927 53.71158,-19.69586 76.96968,-42.95398 22.72711,-22.7271 65.68609,-81.35867 92.89615,-133.5465 13.6372,-26.15554 23.96597,-51.54662 28.19589,-70.07815 4.24454,-18.59559 1.40133,-28.388302 -0.90599,-30.695622 z m -63.78048,63.780482 c 3.40643,3.40643 3.64769,6.3259 4.04101,10.57346 0.39332,4.24756 0.0647,9.57065 -1.44874,16.20131 -1.28954,5.64952 -3.33771,11.9906 -5.93168,18.73142 -5.41122,0.30633 -10.65093,-0.25657 -15.50111,-1.67385 3.16222,-7.75634 5.52951,-14.79157 6.80866,-20.39562 1.22466,-5.36531 1.34795,-9.19865 1.13662,-11.48082 -0.0386,-0.41682 -0.14744,-0.50126 -0.23892,-0.82173 -0.32012,-0.0913 -0.40411,-0.19902 -0.82036,-0.23755 -2.28186,-0.21116 -6.11507,-0.0881 -11.48082,1.13662 -5.60374,1.27909 -12.63855,3.6454 -20.39423,6.80729 -1.41716,-4.85052 -1.98035,-10.08957 -1.67385,-15.50111 6.7402,-2.59368 13.0809,-4.64086 18.73004,-5.9303 6.63058,-1.51347 11.95263,-1.84317 16.19993,-1.45012 4.24729,0.39303 7.16738,0.63493 10.57345,4.041 z m -60.53773,9.731 c 0.27452,5.26043 1.21756,10.39327 2.84638,15.27599 -3.02134,1.44485 -6.07231,2.9475 -9.15233,4.55339 -6.75768,3.52336 -13.73238,7.5219 -20.67045,11.74597 -0.94194,-5.83457 -0.91584,-11.75951 0.0622,-17.52713 4.57437,-2.63517 9.15081,-5.1616 13.67396,-7.51991 4.47278,-2.33205 8.90024,-4.51339 13.24029,-6.52831 z m 50.80811,50.80811 c -2.01491,4.34007 -4.19622,8.76746 -6.5283,13.2403 -2.35832,4.52315 -4.88475,9.09958 -7.51992,13.67395 -5.76742,0.9781 -11.69276,1.00395 -17.52713,0.0622 4.22409,-6.93808 8.22261,-13.91276 11.74598,-20.67044 1.60546,-3.07919 3.1075,-6.13041 4.552,-9.15096 4.88336,1.62928 10.01616,2.57053 15.27737,2.845 z m -93.37676,-27.29543 c 0.0483,5.55895 0.75903,11.12619 2.13927,16.57144 -8.47979,5.55917 -16.60531,11.25452 -23.92424,16.67363 -0.97353,-5.85024 -1.28053,-11.88955 -0.96675,-18.0036 7.17889,-5.09676 14.8594,-10.261 22.75172,-15.24147 z m 69.86267,69.8655 c -4.98003,7.89155 -10.14386,15.57207 -15.2401,22.75034 -6.11486,0.31393 -12.154,0.008 -18.00497,-0.96537 5.41947,-7.31934 11.11544,-15.44521 16.67501,-23.92562 5.44477,1.38018 11.01159,2.0922 16.57006,2.14065 z M 216.4657,213.81069 c 0.37431,5.82853 1.26214,11.56741 2.68065,17.14597 -5.28845,4.27909 -9.69448,8.12546 -12.81354,11.21703 -5.99545,-1.28141 -12.17313,-1.94946 -18.44279,-2.0274 2.36607,-2.85062 4.88404,-5.63811 7.5793,-8.33338 5.05792,-5.0579 12.32994,-11.28438 20.99638,-18.00222 z m 81.23714,81.23998 c -6.71712,8.66555 -12.94334,15.93751 -18.00083,20.99499 -2.69577,2.69576 -5.48352,5.21431 -8.33475,7.58068 -0.0779,-6.26983 -0.74606,-12.44717 -2.0274,-18.44278 3.09179,-3.11909 6.93874,-7.52573 11.21841,-12.81493 5.57764,1.41823 11.31704,2.30769 17.14457,2.68204 z m -102.7694,-39.46401 c -6.87937,9.66506 -11.55381,19.87524 -13.8604,29.59904 -2.63619,-0.0316 -5.29393,0.11609 -7.94943,0.45575 -2.57367,0.32919 -5.15303,0.8351 -7.72431,1.49293 0.0969,-0.58661 0.1816,-1.17141 0.29279,-1.75948 1.88278,-9.95785 5.7269,-20.02985 11.33167,-29.6971 6.07275,-0.65508 12.07875,-0.69752 17.90968,-0.0911 z m 60.99486,60.99486 c 0.60628,5.83033 0.5651,11.83619 -0.0898,17.9083 -9.66828,5.60503 -19.74148,9.44879 -29.69987,11.33166 -0.58753,0.11109 -1.17201,0.19456 -1.7581,0.29141 0.6575,-2.57041 1.16385,-5.14873 1.49293,-7.72155 0.33979,-2.65643 0.48746,-5.31517 0.45576,-7.95219 9.72362,-2.30658 19.93416,-6.97896 29.59904,-13.85763 z m -44.59054,15.5301 c -0.0418,1.43344 -0.15246,2.89225 -0.3425,4.37799 -0.43673,3.41447 -1.28902,6.92802 -2.54255,10.44777 -11.84063,-0.83297 -22.61908,-5.06847 -30.71357,-13.16295 -8.09404,-8.09405 -12.32968,-18.87086 -13.16296,-30.71081 3.52032,-1.25385 7.03416,-2.10712 10.44916,-2.54392 1.48479,-0.18992 2.94264,-0.30067 4.37523,-0.34251 0.25229,9.55022 3.34288,17.38834 8.94517,22.99064 5.60251,5.6025 13.4412,8.69174 22.99202,8.94379 z m 156.22233,-57.20803 c -0.24126,-0.11285 -0.61794,-0.28929 -1.5606,-0.47786 -1.24463,-0.24896 -3.09505,-0.38796 -5.46351,-0.32317 -18.09342,25.93155 -35.98438,48.20685 -49.10111,61.32356 -25.19612,25.19614 -55.23036,41.49729 -84.78929,47.08613 -15.79772,2.98695 -31.41805,2.76197 -45.52413,-1.07861 -5.65087,13.28603 -5.94894,24.88808 -1.54681,32.34461 4.80474,8.13846 14.84268,11.96969 29.56315,10.50993 14.78279,-1.46594 32.61779,-8.54935 49.59138,-20.93699 16.5435,-12.07371 51.09821,-44.50915 75.54994,-73.8319 12.25763,-14.69946 22.53398,-29.14544 28.1075,-39.68912 2.79757,-5.29234 4.33417,-9.47602 4.90694,-12.18241 0.31298,-1.47882 0.29922,-2.30811 0.26654,-2.74417 z m -130.9501,-130.9501 c -0.43607,-0.0327 -1.26535,-0.0464 -2.74418,0.26654 -2.70638,0.57276 -6.8873,2.10934 -12.17963,4.90693 -10.54369,5.57351 -24.99108,15.85124 -39.69052,28.10888 -29.32277,24.45174 -61.75817,59.00645 -73.8319,75.54994 -12.387638,16.9736 -19.471059,34.80582 -20.93699,49.58862 -1.459773,14.72048 2.37008,24.75979 10.508547,29.56453 7.456403,4.40205 19.058673,4.1012 32.344613,-1.54956 -3.83995,-14.10547 -4.06538,-29.72458 -1.07861,-45.52138 5.58883,-29.55895 21.89138,-59.59176 47.08751,-84.7879 13.11706,-13.11706 35.39171,-31.00974 61.32356,-49.10388 0.0642,-2.36672 -0.0743,-4.2166 -0.32317,-5.46074 -0.18859,-0.94278 -0.36641,-1.32075 -0.47923,-1.56198 z"
     inkscape:connector-curvature="0" />
</svg>
