<svg xmlns="http://www.w3.org/2000/svg" viewBox="0 0 512 512"><path d="M0 0h512v512H0z"/><path d="m 430.7219,303.00377 c -26.38103,16.17934 -54.49186,26.19619 -82.11278,30.0106 -47.50724,38.47697 -117.55159,35.63371 -161.72306,-8.53776 -43.83364,-43.83365 -46.96328,-113.14327 -9.40783,-160.62648 3.5765,-27.49088 13.45197,-55.51788 29.6681,-81.936008 -35.89537,0.63952 -66.30996,12.2694 -89.1728,35.062558 l -0.003,0.003 -0.004,0.004 c -29.250886,29.25513 -40.78705,70.91741 -35.409201,115.41447 5.378282,44.50059 27.859171,91.53749 66.364461,130.04274 38.50525,38.50528 85.54353,60.98756 130.04412,66.36584 44.49777,5.37793 86.1595,-6.15982 115.41447,-35.41196 22.72125,-22.83524 35.4329,-54.43072 36.34142,-90.3909 z M 415.36994,95.992742 c -9.01775,-9.01776 -23.71643,-12.92099 -42.56313,-12.14926 -18.84671,0.77173 -41.261,6.26005 -63.78048,14.56199 -45.0389,16.603828 -90.79233,44.728178 -111.53366,65.469508 -41.48266,41.48266 -41.48266,108.51237 0,149.99503 41.48266,41.48266 108.51236,41.48266 149.99502,0 20.74133,-20.74133 48.86569,-66.49474 65.46952,-111.53366 8.30194,-22.51947 13.79026,-44.93378 14.56198,-63.78048 0.77173,-18.84671 -3.1315,-33.54538 -12.14925,-42.563128 z M 340.7909,170.57178 c 6.1822,6.18221 6.38018,14.91742 4.91936,23.29309 -1.46082,8.37568 -4.87692,17.40853 -9.22415,26.50132 -8.69447,18.18558 -20.92023,36.22522 -30.87931,46.18429 -9.95907,9.95908 -22.20602,15.94553 -34.37616,17.41665 -12.17012,1.47111 -24.563,-1.75881 -33.31964,-10.51545 -8.75664,-8.75664 -11.98656,-21.14953 -10.51545,-33.31964 1.47111,-12.17014 7.45757,-24.41709 17.41665,-34.37617 9.95907,-9.95907 27.9987,-22.18484 46.18429,-30.87929 9.09279,-4.34724 18.12564,-7.76334 26.50131,-9.22416 8.37567,-1.46082 17.11089,-1.26285 23.2931,4.91936 z m -10.60661,10.6066 c -0.74729,-0.74729 -3.93934,-1.82468 -10.10942,-0.74853 -6.17006,1.07613 -14.29878,4.00716 -22.60807,7.97981 -16.6186,7.94528 -34.33686,20.24167 -42.048,27.95281 -7.71114,7.71115 -12.10609,17.07856 -13.13258,25.57048 -1.02649,8.4919 1.12903,15.80978 6.23138,20.91213 5.10235,5.10235 12.42022,7.25786 20.91213,6.23138 8.49191,-1.0265 17.85933,-5.42144 25.57047,-13.13258 7.71114,-7.71114 20.00753,-25.42941 27.95282,-42.04799 3.97264,-8.3093 6.90368,-16.43801 7.9798,-22.60809 1.07616,-6.17007 -10e-4,-9.36213 -0.74853,-10.10942 z" fill="#fff"/></svg>
