<?xml version="1.0" encoding="UTF-8" standalone="no"?>
<svg
   xmlns:dc="http://purl.org/dc/elements/1.1/"
   xmlns:cc="http://creativecommons.org/ns#"
   xmlns:rdf="http://www.w3.org/1999/02/22-rdf-syntax-ns#"
   xmlns:svg="http://www.w3.org/2000/svg"
   xmlns="http://www.w3.org/2000/svg"
   xmlns:sodipodi="http://sodipodi.sourceforge.net/DTD/sodipodi-0.dtd"
   xmlns:inkscape="http://www.inkscape.org/namespaces/inkscape"
   viewBox="0 0 512 512"
   id="svg2"
   version="1.1"
   inkscape:version="0.91 r13725"
   sodipodi:docname="fighter-01.svg">
  <metadata
     id="metadata12">
    <rdf:RDF>
      <cc:Work
         rdf:about="">
        <dc:format>image/svg+xml</dc:format>
        <dc:type
           rdf:resource="http://purl.org/dc/dcmitype/StillImage" />
        <dc:title></dc:title>
      </cc:Work>
    </rdf:RDF>
  </metadata>
  <defs
     id="defs10" />
  <sodipodi:namedview
     pagecolor="#ffffff"
     bordercolor="#666666"
     borderopacity="1"
     objecttolerance="10"
     gridtolerance="10"
     guidetolerance="10"
     inkscape:pageopacity="0"
     inkscape:pageshadow="2"
     inkscape:window-width="1855"
     inkscape:window-height="1056"
     id="namedview8"
     showgrid="false"
     inkscape:zoom="0.84535217"
     inkscape:cx="161.89817"
     inkscape:cy="131.2087"
     inkscape:window-x="65"
     inkscape:window-y="24"
     inkscape:window-maximized="1"
     inkscape:current-layer="svg2" />
  <path
     d="M0 0h512v512H0z"
     id="path4" />
  <path
     id="path4199-7"
     style="opacity:1;fill:#ffffff;fill-opacity:1;fill-rule:nonzero;stroke:none;stroke-width:15;stroke-linecap:round;stroke-linejoin:miter;stroke-miterlimit:4;stroke-dasharray:none;stroke-opacity:1"
     d="m 455.59635,256.07086 c -3.87116,-3.87116 -21.49154,7.07739 -44.0533,26.3701 l -16.44713,61.3871 c 3.22343,-3.07709 6.48522,-6.25874 9.77242,-9.54595 35.71648,-35.71648 60.04669,-68.89258 54.55219,-74.38708 l -3.82418,-3.82417 z m -48.15921,-16.25931 -5.55466,1.48879 -31.64994,73.09854 -9.20205,9.20205 -0.66705,0.43228 c 0,0 -48.16254,31.50003 -76.82743,42.4996 -6.27225,2.40684 -13.25013,5.57061 -20.6663,8.1483 l 4.84893,4.84893 80.66541,80.66541 29.52585,-110.19126 29.52724,-110.19264 z M 252.10428,52.578786 c -5.4945,-5.494503 -38.6706,18.835706 -74.38708,54.552184 -3.2875,3.28749 -6.46996,6.55014 -9.54731,9.77381 l 61.38846,-16.44852 c 19.29259,-22.561618 30.24126,-40.182144 26.37011,-44.053299 l -3.82418,-3.824175 z m 131.6633,24.929026 -36.02149,15.597657 -141.56054,61.289061 -5.9961,5.99805 c -0.67486,1.05437 -31.32446,48.96435 -40.71875,73.44531 -6.13087,15.97675 -13.73469,31.59886 -10.64843,42.76367 4.73843,17.1417 14.326,33.72199 26.88867,47.875 l 70.90429,-70.90625 10.60743,10.60742 -70.96289,70.96289 c 14.426,13.1223 31.48036,23.15447 49.13671,28.03516 11.16506,3.08633 26.78733,-4.51587 42.76368,-10.64648 24.48106,-9.39409 72.3929,-40.04389 73.44726,-40.71875 l 5.9961,-5.9961 61.29101,-141.56054 15.5957,-36.02344 -50.72265,-50.722658 z m -56.41797,72.380858 c 3.93966,-0.0965 8.21953,0.91093 11.40625,4.09766 l 19.25781,19.25586 c 3.64196,3.64196 4.43566,8.71267 3.99024,13.07031 -0.44544,4.35765 -1.9627,8.65768 -4.17969,13.19336 -4.43398,9.07134 -11.8516,19.05082 -21.48242,28.68164 l -7.08789,7.08594 c -1.3023,1.3023 -2.60394,2.54851 -3.89844,3.75 l -0.84766,0.78711 -1.04492,0.49609 c 0,0 -9.53692,4.53977 -20.80664,7.63477 -5.63485,1.54749 -11.74446,2.79182 -17.80859,2.8164 -6.06413,0.0246 -12.63485,-1.13289 -17.55469,-6.05273 -4.91984,-4.91985 -6.07747,-11.49063 -6.05274,-17.55469 0.0247,-6.06406 1.26873,-12.17389 2.81641,-17.80859 3.09537,-11.2694 7.63672,-20.80469 7.63672,-20.80469 l 0.49609,-1.04688 0.78711,-0.84765 c 1.20147,-1.29452 2.4477,-2.59614 3.75,-3.89844 l 7.08594,-7.08594 c 9.63082,-9.63082 19.60834,-17.04844 28.67969,-21.48242 4.53567,-2.21699 8.83571,-3.73425 13.19336,-4.17969 0.5447,-0.0557 1.10125,-0.0936 1.66406,-0.10742 z M 135.41532,273.13509 c -3.86931,10.45871 -6.436,19.66812 -4.90141,25.21969 10.32538,37.35294 45.77631,72.80387 83.12925,83.12924 5.55195,1.53471 14.76212,-1.03114 25.22106,-4.90003 -4.52288,0.76355 -9.00308,1.06921 -13.31073,-0.12154 -41.29853,-11.41603 -78.60197,-48.71947 -90.01801,-90.01801 -1.19087,-4.30805 -0.88415,-8.78705 -0.12016,-13.30935 z m 136.77107,-168.57153 -110.18988,29.52723 -110.191275,29.52585 80.664035,80.66403 4.84894,4.84894 c 2.57768,-7.41619 5.74138,-14.39402 8.14829,-20.66631 10.9997,-28.66458 42.49961,-76.82742 42.49961,-76.82742 l 0.43227,-0.66706 9.20205,-9.20205 73.09855,-31.64994 1.48741,-5.55327 z" />
</svg>
