<?xml version="1.0" encoding="UTF-8" standalone="no"?>
<svg
   xmlns:dc="http://purl.org/dc/elements/1.1/"
   xmlns:cc="http://creativecommons.org/ns#"
   xmlns:rdf="http://www.w3.org/1999/02/22-rdf-syntax-ns#"
   xmlns:svg="http://www.w3.org/2000/svg"
   xmlns="http://www.w3.org/2000/svg"
   xmlns:sodipodi="http://sodipodi.sourceforge.net/DTD/sodipodi-0.dtd"
   xmlns:inkscape="http://www.inkscape.org/namespaces/inkscape"
   viewBox="0 0 512 512"
   id="svg2"
   version="1.1"
   inkscape:version="0.91 r13725"
   sodipodi:docname="frigate-01.svg">
  <metadata
     id="metadata12">
    <rdf:RDF>
      <cc:Work
         rdf:about="">
        <dc:format>image/svg+xml</dc:format>
        <dc:type
           rdf:resource="http://purl.org/dc/dcmitype/StillImage" />
        <dc:title></dc:title>
      </cc:Work>
    </rdf:RDF>
  </metadata>
  <defs
     id="defs10" />
  <sodipodi:namedview
     pagecolor="#ffffff"
     bordercolor="#666666"
     borderopacity="1"
     objecttolerance="10"
     gridtolerance="10"
     guidetolerance="10"
     inkscape:pageopacity="0"
     inkscape:pageshadow="2"
     inkscape:window-width="1855"
     inkscape:window-height="1056"
     id="namedview8"
     showgrid="false"
     inkscape:zoom="0.89746094"
     inkscape:cx="248.58232"
     inkscape:cy="195.72811"
     inkscape:window-x="65"
     inkscape:window-y="24"
     inkscape:window-maximized="1"
     inkscape:current-layer="svg2" />
  <path
     d="m 1.575794,-0.7878931 512.000006,0 0,511.9999931 -512.000006,0 z"
     id="path4"
     inkscape:connector-curvature="0" />
  <path
     id="rect6307"
     style="opacity:1;fill:#ffffff;fill-opacity:1;fill-rule:nonzero;stroke:none;stroke-width:15;stroke-linecap:round;stroke-linejoin:round;stroke-miterlimit:4;stroke-dasharray:none;stroke-opacity:1"
     d="m 96.004462,353.23348 c 14.734028,4.28818 28.160498,14.01836 38.846208,24.70407 10.68571,10.68571 20.41589,24.11218 24.70407,38.8462 0.24006,0.82481 0,2.57708 0,2.57708 0,0 -49.35739,13.68411 -64.584428,-1.54292 -15.227031,-15.22704 -1.54292,-64.58443 -1.54292,-64.58443 0,0 1.75227,-0.24006 2.57707,0 z m 107.071608,75.13865 c -2.72718,-2.72011 -6.03007,-4.65852 -9.44788,-5.72452 -3.16658,6.40498 -3.21207,12.19803 -0.12016,15.30085 3.10483,3.08757 8.89685,3.03945 15.29948,-0.12706 -1.06751,-3.41859 -3.00888,-6.72189 -5.73144,-9.44927 z M 84.407817,309.70387 c -2.727184,-2.72011 -6.030073,-4.65852 -9.447887,-5.72453 -3.166587,6.405 -3.212075,12.19805 -0.120152,15.30086 3.104821,3.08757 8.896846,3.03944 15.299474,-0.12707 -1.067515,-3.41858 -3.008876,-6.72187 -5.731435,-9.44926 z M 194.66952,158.9603 l -8.04058,-4.64314 c 0.62001,0.35796 -0.02,-0.10713 -0.92946,1.46807 l -16.7924,29.08391 a 7.50075,7.50075 0 0 1 -6.36949,3.74822 c -5.86471,0.0976 -11.33889,3.31371 -14.36448,8.53085 0,0 0,0.003 0,0.003 -4.7486,8.22822 -2.07085,18.34338 5.85434,22.91883 7.92292,4.57447 18.0193,1.83943 22.77243,-6.38191 0,0 0.001,-0.001 0.001,-0.001 3.01013,-5.23038 3.0579,-11.58454 0.20854,-16.71506 a 7.50075,7.50075 0 0 1 0.0621,-7.39009 l 16.79102,-29.08253 c 0.90944,-1.57521 0.18654,-1.89648 0.80656,-1.53851 z m 159.15686,159.17101 c 0.35797,0.62002 0.0367,-0.10289 -1.53851,0.80654 l -29.0839,16.7924 a 7.50075,7.50075 0 0 1 -7.39149,0.0608 c -5.1276,-2.84773 -11.47667,-2.80069 -16.70539,0.20441 -8.22824,4.751 -10.96633,14.85219 -6.3902,22.77795 4.57543,7.9252 14.69062,10.60292 22.91882,5.85434 0,0 0.003,0 0.003,0 5.21781,-3.02543 8.43325,-8.50212 8.53086,-14.36725 a 7.50075,7.50075 0 0 1 3.74822,-6.36949 l 29.08115,-16.78964 c 1.57527,-0.90944 1.11288,-1.54947 1.47083,-0.92946 l -4.64315,-8.04057 z M 333.38259,74.835304 325.34064,70.193541 c 0.62001,0.357966 -0.02,-0.107162 -0.92946,1.468069 l -16.79102,29.08254 a 7.50075,7.50075 0 0 1 -6.37087,3.74959 c -5.86799,0.0976 -11.34547,3.31684 -14.37001,8.53915 -4.74293,8.22692 -2.06304,18.33918 5.85987,22.91329 7.92293,4.57448 18.02068,1.83807 22.77381,-6.3833 0,0 10e-4,-0.001 10e-4,-0.001 3.01014,-5.23038 3.05791,-11.58454 0.20855,-16.71506 a 7.50075,7.50075 0 0 1 0.0608,-7.39148 l 16.79136,-29.080145 c 0.90946,-1.575243 0.18792,-1.897857 0.80792,-1.539891 z M 437.9557,179.39456 c 0.35797,0.62002 0.0367,-0.10291 -1.53851,0.80654 l -29.0839,16.79241 a 7.50075,7.50075 0 0 1 -7.39148,0.0608 c -5.1276,-2.84773 -11.47668,-2.8007 -16.7054,0.2044 -8.22824,4.751 -10.96633,14.85219 -6.39019,22.77796 4.57542,7.92519 14.69061,10.60293 22.91881,5.85435 0,0 0.003,0 0.003,0 5.21781,-3.02543 8.43324,-8.50211 8.53086,-14.36725 a 7.50075,7.50075 0 0 1 3.74821,-6.36949 l 29.08115,-16.78964 c 1.57527,-0.90944 1.11288,-1.54947 1.47084,-0.92946 l -4.64315,-8.04057 z m -190.13705,204.2433 c -3.67828,-3.67835 -9.31464,-5.21099 -16.51066,-3.99819 -7.19359,1.21238 -15.4814,5.37204 -22.46031,12.34812 l -0.003,0.003 -0.004,0.004 c -5.06296,5.07711 -8.73989,11.08876 -10.79995,16.93189 5.65837,1.82163 10.92565,4.90851 15.25251,9.2283 l 0.008,0.008 c 4.32128,4.32835 7.40897,9.59875 9.22968,15.25943 5.84503,-2.06282 11.85675,-5.74301 16.93327,-10.80963 6.97867,-6.97977 11.13963,-15.26941 12.35227,-22.46445 1.21279,-7.19603 -0.31985,-12.83239 -3.99819,-16.51066 z m -70.94693,-47.71997 c -18.87743,-18.87757 -51.63866,-17.5829 -73.39962,4.16392 -0.0693,0.0702 -0.12709,0.15056 -0.1961,0.22099 15.06815,4.24531 30.10451,13.55553 42.88492,26.32039 l 0.008,0.008 c 12.76209,12.78656 22.06606,27.82593 26.30243,42.89458 0.0731,-0.0719 0.15648,-0.13215 0.22927,-0.20438 21.75179,-21.76027 23.04884,-54.52446 4.17083,-73.40377 z M 387.82984,78.854189 358.39514,89.724575 c 0,0 -8.29578,3.09093 -20.86655,8.09168 l -6.81142,11.797085 c 3.40708,8.90806 2.65827,19.00683 -2.19177,27.43215 a 7.50075,7.50075 0 0 1 -0.006,0.008 c -8.73915,15.13526 -28.20767,20.57587 -43.26887,11.87994 -8.35074,-4.82112 -13.60889,-12.98949 -15.15308,-21.88992 -18.78764,9.00274 -36.80024,18.61977 -49.60795,27.62411 -4.03361,2.8358 -7.96881,5.81028 -11.82195,8.89408 -0.41179,1.54403 -1.01248,3.04546 -1.8161,4.43738 l -14.86029,25.74034 c 3.40705,8.90805 2.65826,19.00684 -2.19176,27.43216 a 7.50075,7.50075 0 0 1 -0.004,0.007 c -8.73914,15.13526 -28.20767,20.57864 -43.26886,11.88271 -0.60701,-0.35045 -1.19223,-0.72419 -1.76638,-1.109 -4.27748,5.84743 -8.41042,11.92929 -12.34675,18.13618 2.41314,1.29673 4.66439,2.92974 6.67609,4.94146 7.70643,7.70632 9.99461,18.86143 8.18281,29.61148 -1.35931,8.06543 -4.91156,16.16535 -10.41048,23.51682 18.46328,-1.96804 37.04022,3.57685 50.61614,17.15286 13.53515,13.53609 19.089,32.0427 17.17081,50.4518 7.52316,-5.78068 15.85988,-9.51493 24.16455,-10.91458 10.75004,-1.8118 21.90518,0.47635 29.61148,8.18283 2.06253,2.0625 3.72378,4.37844 5.03537,6.86115 5.94051,-3.79066 11.76133,-7.75973 17.36831,-11.86062 -0.38273,-0.57147 -0.75614,-1.1527 -1.10485,-1.75672 -8.69594,-15.0612 -3.25394,-34.53109 11.88132,-43.27023 a 7.50075,7.50075 0 0 1 0.0111,-0.005 c 8.42501,-4.84897 18.52068,-5.59726 27.428,-2.19037 l 25.74173,-14.86168 c 1.38938,-0.80215 2.88655,-1.40028 4.4277,-1.81196 3.0876,-3.85738 6.06615,-7.7976 8.90512,-11.83575 9.00522,-12.8089 18.62431,-30.82021 27.62828,-49.60934 -8.90202,-1.54312 -17.0724,-6.8 -21.89408,-15.1517 -8.69593,-15.0612 -3.25393,-34.5311 11.88133,-43.27024 a 7.50075,7.50075 0 0 1 0.0111,-0.005 c 8.42502,-4.84898 18.52069,-5.59727 27.42801,-2.19038 l 11.79847,-6.81281 c 5.00132,-12.57088 8.09317,-20.86567 8.09317,-20.86567 l 10.869,-29.43608 L 387.8297,78.854544 Z M 227.17159,283.50498 232.9486,289.282 c 1.09258,1.09258 1.331,2.61356 1.19739,3.92085 -0.13364,1.30729 -0.58896,2.59748 -1.25401,3.95813 -1.33019,2.72139 -3.55484,5.71483 -6.44407,8.60406 l -2.12546,2.12546 c -0.39069,0.39069 -0.78141,0.76515 -1.16973,1.12561 l -0.25551,0.23614 -0.31213,0.14915 c 0,0 -2.86153,1.36132 -6.24243,2.28982 -1.69045,0.46424 -3.52274,0.83784 -5.34197,0.84521 -1.81923,0.007 -3.79145,-0.33878 -5.26739,-1.81473 -1.47594,-1.47594 -1.82214,-3.44818 -1.81472,-5.26739 0.007,-1.8192 0.37952,-3.65294 0.84383,-5.34335 0.9286,-3.3808 2.29119,-6.24105 2.29119,-6.24105 l 0.14777,-0.3135 0.23756,-0.2541 c 0.36047,-0.38833 0.73492,-0.77905 1.12561,-1.16973 l 2.12546,-2.12547 c 2.88923,-2.88923 5.88128,-5.11526 8.60267,-6.44544 1.3607,-0.6651 2.65086,-1.12038 3.95814,-1.25401 0.16341,-0.0167 0.32973,-0.0276 0.49857,-0.0318 1.1819,-0.029 2.46627,0.27314 3.42228,1.22915 z m -98.02129,-18.5353 c -3.67829,-3.67836 -9.31465,-5.211 -16.51067,-3.9982 -7.19358,1.21239 -15.481398,5.37204 -22.460308,12.34813 l -0.003,0.003 -0.004,0.004 c -5.062961,5.0771 -8.739874,11.08877 -10.799945,16.93189 5.658382,1.82163 10.925655,4.90851 15.252515,9.2283 l 0.008,0.008 c 4.32128,4.32835 7.408968,9.59875 9.229678,15.25942 5.84503,-2.06281 11.85675,-5.74299 16.93328,-10.80961 6.97867,-6.97978 11.13963,-15.26941 12.35227,-22.46445 1.21279,-7.19603 -0.31986,-12.8324 -3.99819,-16.51066 z"
     inkscape:connector-curvature="0" />
</svg>
