<?xml version="1.0" encoding="UTF-8" standalone="no"?>
<svg
   xmlns:dc="http://purl.org/dc/elements/1.1/"
   xmlns:cc="http://creativecommons.org/ns#"
   xmlns:rdf="http://www.w3.org/1999/02/22-rdf-syntax-ns#"
   xmlns:svg="http://www.w3.org/2000/svg"
   xmlns="http://www.w3.org/2000/svg"
   xmlns:sodipodi="http://sodipodi.sourceforge.net/DTD/sodipodi-0.dtd"
   xmlns:inkscape="http://www.inkscape.org/namespaces/inkscape"
   viewBox="0 0 512 512"
   id="svg2"
   version="1.1"
   inkscape:version="0.91 r13725"
   sodipodi:docname="frigate-02.svg">
  <metadata
     id="metadata12">
    <rdf:RDF>
      <cc:Work
         rdf:about="">
        <dc:format>image/svg+xml</dc:format>
        <dc:type
           rdf:resource="http://purl.org/dc/dcmitype/StillImage" />
        <dc:title></dc:title>
      </cc:Work>
    </rdf:RDF>
  </metadata>
  <defs
     id="defs10" />
  <sodipodi:namedview
     pagecolor="#ffffff"
     bordercolor="#666666"
     borderopacity="1"
     objecttolerance="10"
     gridtolerance="10"
     guidetolerance="10"
     inkscape:pageopacity="0"
     inkscape:pageshadow="2"
     inkscape:window-width="1855"
     inkscape:window-height="1056"
     id="namedview8"
     showgrid="false"
     inkscape:zoom="1.6907043"
     inkscape:cx="176.91984"
     inkscape:cy="253.23778"
     inkscape:window-x="65"
     inkscape:window-y="24"
     inkscape:window-maximized="1"
     inkscape:current-layer="svg2" />
  <path
     d="m -0.48535,0 512,0 0,512 -512,0 z"
     id="path4"
     inkscape:connector-curvature="0" />
  <path
     id="path5248"
     style="opacity:1;fill:#ffffff;fill-opacity:1;fill-rule:nonzero;stroke:none;stroke-width:15;stroke-linecap:square;stroke-linejoin:round;stroke-miterlimit:4;stroke-dasharray:none;stroke-opacity:1"
     d="m 427.1158,84.396883 c -7.34616,-7.34616 -21.83273,-11.2999 -43.76743,-9.17995 -21.8863,2.11527 -49.82179,10.26055 -78.19192,22.06256 -56.66409,23.572297 -117.32316,63.646577 -141.10371,87.427117 -24.11162,24.11162 -37.51198,54.83942 -39.25686,86.04192 -1.74215,31.15358 8.44351,61.99027 31.21076,84.75751 22.76724,22.76724 53.60552,32.95429 84.7589,31.21214 31.20248,-1.74488 61.9303,-15.14524 86.04191,-39.25686 23.7804,-23.78039 63.85478,-84.4395 87.42712,-141.10371 11.8021,-28.37034 19.94734,-56.3059 22.06257,-78.19192 2.11992,-21.93444 -1.8352,-36.422657 -9.18134,-43.768807 z M 258.4363,253.07638 c 8.15192,8.15191 9.74987,20.13358 8.29194,32.50481 -1.45794,12.37124 -6.01607,25.91982 -12.3136,39.4654 l -14.29406,-2.8809 c -0.57372,-15.25514 -4.92778,-28.21536 -13.74301,-37.03058 -8.81522,-8.81522 -21.77365,-13.16789 -37.02919,-13.74163 l -2.8809,-14.29405 c 13.54543,-6.29747 27.09451,-10.85529 39.46539,-12.3136 12.37088,-1.45831 24.35152,0.13863 32.50343,8.29055 z m -10.6066,10.6066 c -3.46524,-3.46524 -10.18843,-5.17287 -20.14149,-3.99957 -3.25457,0.38366 -6.83523,1.16904 -10.53202,2.12408 7.36651,2.90261 14.12938,7.02241 19.82798,12.72102 5.69904,5.69904 9.81945,12.46193 12.7224,19.82937 0.95495,-3.69688 1.74053,-7.27734 2.12409,-10.53202 1.17299,-9.95341 -0.53572,-16.67764 -4.00096,-20.14288 z M 141.493,187.5309 c -12.00064,-0.21704 -23.1507,0.63967 -32.68989,2.29257 -15.065468,2.61046 -26.210653,7.75407 -29.589375,11.13279 -3.69983,3.69983 -5.667629,9.75524 -4.879311,19.32528 0.788311,9.57004 4.529358,22.07555 11.258462,36.3359 6.210872,13.16214 14.951414,27.74204 25.852214,42.92221 -1.64229,-9.75252 -2.17936,-19.70086 -1.62413,-29.62943 1.63908,-29.31095 12.47996,-58.11866 31.67203,-82.37932 z m 182.49017,182.49017 c -24.26066,19.19207 -53.06839,30.03293 -82.37932,31.67203 -9.92775,0.55518 -19.8762,0.0193 -29.62806,-1.62276 15.18019,10.90085 29.76054,19.64156 42.92221,25.85222 14.26035,6.72909 26.76587,10.47015 36.33591,11.25846 9.57004,0.78831 15.62407,-1.18086 19.3239,-4.88069 3.37846,-3.37847 8.5227,-14.52347 11.13279,-29.58938 1.65258,-9.53903 2.5099,-20.68952 2.29257,-32.68988 z"
     inkscape:connector-curvature="0" />
</svg>
