<?xml version="1.0" encoding="UTF-8" standalone="no"?>
<!DOCTYPE svg PUBLIC "-//W3C//DTD SVG 1.1//EN" "http://www.w3.org/Graphics/SVG/1.1/DTD/svg11.dtd">
<svg width="100%" height="100%" viewBox="0 0 512 512" version="1.1" xmlns="http://www.w3.org/2000/svg" xmlns:xlink="http://www.w3.org/1999/xlink" xml:space="preserve" style="fill-rule:evenodd;clip-rule:evenodd;stroke-linejoin:round;stroke-miterlimit:1.41421;">
    <path d="M0,0L512,0L512,512L0,512L0,0Z" style="fill-rule:nonzero;"/>
    <g transform="matrix(1,0,0,1,0.526253,-15.8501)">
        <path d="M271.889,478.74C267.546,479.503 262.643,479.816 257.122,479.643C256.569,479.626 256.02,479.608 255.474,479.589C254.928,479.608 254.379,479.626 253.826,479.643C249.109,479.791 244.897,479.528 241.146,478.883C156.235,473.302 173.282,446.955 143.022,430.932C110.241,413.574 74.471,397.619 53.171,363.913C39.338,342.023 62.025,224.567 62.025,224.567C46.01,219.136 39.167,210.368 32.071,199.554C26.938,191.733 8.891,148.85 16.861,117.417C18.86,109.536 26.718,79.701 49.137,67.851C57.631,63.362 85.903,54.38 145.856,99.961L176.837,90.845C196.645,84.85 225.409,81.749 245.105,80.793C247.799,80.576 250.702,80.466 253.826,80.466C254.358,80.466 254.907,80.468 255.474,80.474C256.04,80.468 256.59,80.466 257.122,80.466C259.596,80.466 261.947,80.55 264.178,80.717C283.889,81.574 313.738,84.679 334.11,90.845L365.091,99.961C425.044,54.38 453.317,63.362 461.81,67.851C484.23,79.701 492.088,109.536 494.086,117.417C502.057,148.85 484.009,191.733 478.877,199.554C471.78,210.368 464.938,219.136 448.923,224.567C448.923,224.567 471.61,342.023 457.777,363.913C436.477,397.619 400.707,413.574 367.925,430.932C337.916,446.822 354.433,472.867 271.889,478.74ZM260.982,323.589C301.252,325.92 333.464,374.948 333.464,410.905C333.464,447.745 299.65,457.003 258,457.003C216.35,457.003 182.536,447.745 182.536,410.905C182.536,376.147 212.636,329.174 251.018,323.976L251.018,316.748C235.486,315.62 223.459,310.324 223.459,298.944C223.459,294.042 225.69,284.209 229.472,279.47C235.697,271.67 246.121,269.981 257.709,269.981C269.223,269.981 279.208,271.593 285.154,279.323C288.827,284.099 290.959,293.992 290.959,298.944C290.959,311.144 278.021,316.352 260.982,316.927L260.982,323.589ZM320.682,196.071C332.758,190.077 347.046,194.241 352.567,205.364C358.088,216.487 352.766,230.384 340.689,236.379C328.613,242.373 289.111,236.862 289.111,236.862C289.111,236.862 308.605,202.066 320.682,196.071ZM190.266,196.071C178.189,190.077 163.902,194.241 158.381,205.364C152.859,216.487 158.181,230.384 170.258,236.379C182.335,242.373 221.837,236.862 221.837,236.862C221.837,236.862 202.342,202.066 190.266,196.071ZM441.313,113.238C446.205,113.238 447.588,126.427 447.177,132.789C445.427,159.914 442.705,176.59 437.813,176.59C435.113,176.59 431.294,162.088 425.274,149.361C420.384,139.022 412.852,130.364 412.852,127.507C412.852,121.132 436.42,113.238 441.313,113.238ZM69.635,113.238C64.742,113.238 63.36,126.427 63.77,132.789C65.52,159.914 68.242,176.59 73.135,176.59C75.834,176.59 79.654,162.088 85.673,149.361C90.563,139.022 98.095,130.364 98.095,127.507C98.095,121.132 74.527,113.238 69.635,113.238Z" style="fill:white;"/>
    </g>
</svg>
