<svg version="1.1" viewBox="0 0 512 512" xmlns="http://www.w3.org/2000/svg"><path d="M0 0h512v512H0z"/><path d="m233.84 17.466c-130.77-0.24773-156.36 95.513-156.77 185.41-0.50011 107.28 67.618 157.2 122.6 155.94-69.459 15.742-96.653 58.377-109.9 109.89l362.46 19.285c-11.36-67.128-53.034-115.31-146.53-131.1 64.195-10.275 105.72-76.748 105.8-158.3 0.08764-88.231-31.315-177.56-171.35-181.03-2.1292-0.05256-4.2347-0.08026-6.3102-0.08435zm-82.449 139.27h8.7098v54.534h-8.7098zm61.351 1.3708h8.7098v51.808h-8.7098z" fill="#fff" fill-rule="evenodd" stroke-width="1.2842"/></svg>
