<svg version="1.1" viewBox="0 0 512 512" xmlns="http://www.w3.org/2000/svg"><path d="M0 0h512v512H0z"/><path d="m250.3 77.853c-26.577 0.96158-53.407 9.6059-74.688 27.858-21.281 18.252-35.631 47.237-34.922 80.707l56.574-0.0518c-0.3799-17.935 5.9854-29.05 15.566-37.267 9.5804-8.2172 24.332-13.569 39.538-14.119 15.206-0.5505 30.117 3.7819 39.673 10.862 9.4823 7.025 14.94 15.228 15.199 30.981-0.30955 24.216-11.223 32.145-30.703 46.195-9.7792 7.0548-21.258 14.138-32.255 24.862-10.997 10.725-21.799 27.819-21.942 47.971-2.3e-4 0.0673-2.3e-4 0.13481 0 0.20265v57.979h57.166v-57.819c0.0151-2.4506-0.13533-2.7102 4.6839-7.4096 4.8546-4.734 14.46-11.253 25.791-19.427 22.661-16.347 54.021-45.418 54.453-92.283 3e-3 -0.19401 3e-3 -0.38802 0-0.58229-0.36472-32.475-16.244-60.208-38.365-76.598-22.122-16.389-49.19-23.022-75.768-22.061z" fill="#fff"/><path d="m220.72 393.24v40.83h57.162v-40.83z" fill="#fff"/></svg>
