<svg version="1.1" viewBox="0 0 512 512" xmlns="http://www.w3.org/2000/svg"><path d="M0 0h512v512H0z"/><path d="m249.65 26.07c-34.306 1.2412-68.938 12.399-96.408 35.959-27.47 23.56-45.993 60.974-45.078 104.18l73.026-0.0668c-0.49038-23.151 7.726-37.498 20.093-48.105 12.367-10.607 31.408-17.515 51.036-18.225 19.628-0.7106 38.875 4.8817 51.21 14.021 12.24 9.068 19.285 19.657 19.619 39.991-0.39957 31.258-14.487 41.493-39.632 59.629-12.623 9.1064-27.44 18.25-41.635 32.092-14.195 13.844-28.138 35.909-28.323 61.922-2.9e-4 0.0869-2.9e-4 0.17401 0 0.26157v74.84h73.791v-74.634c0.0195-3.1633-0.17469-3.4984 6.046-9.5644 6.2664-6.1107 18.665-14.526 33.291-25.077 29.251-21.101 69.731-58.626 70.289-119.12 3e-3 -0.25043 3e-3 -0.50086 0-0.75163-0.47079-41.919-20.968-77.717-49.522-98.874-28.555-21.155-63.495-29.717-97.802-28.477z" fill="#fff"/><path d="m211.46 433.18v52.704h73.785v-52.704z" fill="#fff"/></svg>
