<svg version="1.1" viewBox="0 0 512 512" xmlns="http://www.w3.org/2000/svg"><path d="M0 0h512v512H0z"/><path d="m163.99 15.239c-36.192-0.54782-62.169 17.402-79.238 45.938-17.073 28.54-26.017 67.503-30.645 110.88-9.2581 86.762-0.97868 191.51-0.58361 264.27v2.9015l2.5873 1.3634c142.34 74.946 274.12 55.25 399.77-4.2341l3.2961-1.5618-0.58596-3.5985c-17.245-105.74-47.775-208.96-95.476-286.33-47.695-77.362-113.22-129.1-199.14-129.62zm-0.12758 9.6898h0.0449c82.088 0.49059 144.32 49.361 190.97 125.02 46.103 74.78 76.285 175.52 93.505 279.17-122.24 57.133-247.93 75.396-385.23 4.1255-0.58318-73.272-8.3906-175.9 0.60014-260.16 4.5526-42.665 13.497-80.478 29.324-106.94 15.827-26.458 37.759-41.73 70.794-41.223z" fill="#fff"/><path d="m117.57 114.98-1.7319 27.69 9.6732 0.60487 1.7296-27.69-9.6708-0.60488z" fill="#fff"/><path d="m203.77 114.17-9.6001 1.335 3.4662 24.894 9.5976-1.335-3.4639-24.894z" fill="#fff"/><path d="m319.27 173.69c-14.028 0-25.955 10.5-25.955 23.942 0 13.441 11.927 23.944 25.955 23.944 14.028 0 25.955-10.503 25.955-23.944 0-13.441-11.927-23.942-25.955-23.942zm0 9.6921c9.2895 0 16.265 6.5978 16.265 14.25 0 7.6521-6.976 14.252-16.265 14.252-9.2894 0-16.263-6.6001-16.263-14.252 0-7.6521 6.9736-14.25 16.263-14.25z" fill="#fff"/><path d="m199.03 305.26c-40.015 1.4533-79.068 22.251-100.93 69.291l-5.1533 11.091 11.351-4.5507c72.778-29.178 152.09-16.961 217.4 3.5866l11.296 3.5536-5.5668-10.455c-21.229-39.868-65.563-67.48-111.23-71.975-5.7084-0.56188-11.447-0.74868-17.164-0.54109zm0.34733 9.6378c5.266-0.16343 10.567 0.0267 15.866 0.54817 38.189 3.7589 75.731 25.474 97.049 56.43-60.504-17.575-131.84-27.21-199.69-4.1183 20.944-36.234 53.124-51.816 86.775-52.86z" fill="#fff"/><path d="m224.1 311.94-8.18 0.26463-20.687 34.91-22.898-31.902-8.5131 1.1956-12.234 34.208-14.446-16.223-7.2513 6.4551 19.887 22.333 8.1941-1.5925 11.873-33.197 21.832 30.417 8.1185-0.35442 20.591-34.75 27.519 40.217 7.3554 0.77027 22.023-21.007 16.861 31.129 8.5344-4.624-19.886-36.713-7.6177-1.2003-22.484 21.451-28.595-41.788z" fill="#fff"/></svg>
