<svg version="1.1" viewBox="0 0 512 512" xmlns="http://www.w3.org/2000/svg"><path d="M0 0h512v512H0z"/><path d="m196.32 53.789c-29.917-0.45284-51.39 14.385-65.5 37.973-14.113 23.592-21.506 55.799-25.332 91.658-7.6529 71.719-0.809 158.31-0.48242 218.45v2.3984l2.1387 1.127c117.66 61.952 226.59 45.671 330.46-3.5l2.7246-1.291-0.48437-2.9746c-14.255-87.407-39.492-172.73-78.922-236.69-39.426-63.949-93.587-106.72-164.61-107.15zm-0.10547 8.0098h0.03711c67.856 0.40553 119.3 40.803 157.86 103.34 38.11 61.815 63.059 145.09 77.293 230.77-101.05 47.227-204.94 62.324-318.44 3.4102-0.48207-60.568-6.9358-145.4 0.49609-215.05 3.7633-35.268 11.157-66.525 24.24-88.396s31.212-34.495 58.52-34.076z" fill="#fff"/><path d="m157.95 136.24-1.4316 22.889 7.9961 0.5 1.4297-22.889-7.9941-0.5z" fill="#fff"/><path d="m229.21 135.57-7.9356 1.1035 2.8652 20.578 7.9336-1.1035-2.8633-20.578z" fill="#fff"/><path d="m324.68 184.77c-11.596 0-21.455 8.6798-21.455 19.791 0 11.111 9.8595 19.793 21.455 19.793 11.596 0 21.455-8.6818 21.455-19.793 0-11.111-9.8595-19.791-21.455-19.791zm0 8.0117c7.6789 0 13.445 5.4539 13.445 11.779 0 6.3254-5.7665 11.781-13.445 11.781-7.6788 0-13.443-5.4558-13.443-11.781 0-6.3254 5.7645-11.779 13.443-11.779z" fill="#fff"/><path d="m225.29 293.53c-33.077 1.2013-65.359 18.393-83.432 57.277l-4.2598 9.168 9.3828-3.7617c60.16-24.119 125.72-14.02 179.71 2.9648l9.3379 2.9375-4.6016-8.6426c-17.548-32.956-54.196-55.78-91.945-59.496-4.7187-0.46445-9.4622-0.61887-14.188-0.44727zm0.28711 7.9668c4.353-0.13509 8.7352 0.02201 13.115 0.45313 31.568 3.1072 62.601 21.057 80.223 46.646-50.014-14.528-108.98-22.492-165.07-3.4043 17.313-29.952 43.913-42.832 71.73-43.695z" fill="#fff"/><path d="m246.01 299.05-6.7617 0.21875-17.1 28.857-18.928-26.371-7.0371 0.98828-10.113 28.277-11.941-13.41-5.9941 5.3359 16.439 18.461 6.7734-1.3164 9.8144-27.441 18.047 25.143 6.7109-0.29297 17.021-28.725 22.748 33.244 6.0801 0.63672 18.205-17.365 13.938 25.732 7.0547-3.8223-16.438-30.348-6.2969-0.99218-18.586 17.732-23.637-34.543z" fill="#fff"/></svg>
