<svg version="1.1" viewBox="0 0 512 512" xmlns="http://www.w3.org/2000/svg"><path d="M0 0h512v512H0z"/><path d="m163.62 16.712c-36.117-0.54347-62.039 17.371-79.075 45.848-17.04 28.485-25.966 67.371-30.586 110.67-9.2401 86.593-0.97678 191.14-0.58247 263.76v2.8958l2.5823 1.3607c142.06 74.8 273.58 55.143 399-4.2259l3.2897-1.5588-0.58483-3.5915c-17.211-105.53-47.682-208.55-95.29-285.78-47.601-77.209-112.99-128.85-198.74-129.37h-0.01zm39.718 98.742 3.4571 24.846-9.579 1.3324-3.4594-24.846zm-86.039 0.80886 9.652 0.6037-1.7262 27.636-9.6544-0.6037 1.7285-27.636zm201.31 58.594c14.001 0 25.905 10.48 25.905 23.896 0 13.415-11.904 23.898-25.905 23.898-14.001 0-25.905-10.483-25.905-23.898 0-13.415 11.904-23.896 25.905-23.896zm0 9.6733c-9.271 0-16.231 6.585-16.231 14.222 0 7.637 6.9601 14.224 16.231 14.224 9.271 0 16.233-6.5873 16.233-14.224 0-7.6369-6.9623-14.222-16.233-14.222zm-115.71 121.56c4.285-9e-3 8.5744 0.20198 12.848 0.62256 45.578 4.4867 89.826 32.044 111.01 71.835l5.5559 10.435-11.275-3.5467c-65.187-20.508-144.34-32.701-216.98-3.5797l-11.329 4.5418 5.1433-11.069c21.821-46.948 60.798-67.706 100.74-69.156h7e-3c1.4264-0.0518 2.8542-0.0797 4.2825-0.0825zm7e-3 9.645c-1.3178-3e-3 -2.636 0.0158-3.95 0.0566h-2e-3c-8.3589 0.25934-16.626 1.417-24.653 3.568l20.516 28.584 18.789-31.706c-3.5712-0.31812-7.1416-0.49425-10.701-0.5023zm24.41 2.4925 24.851 36.316 19.724-18.818c-13.722-8.3267-28.946-14.36-44.575-17.498zm-66.218 5.6974c-7.8559 3.3524-15.371 7.793-22.394 13.415l12.552 14.098 9.8407-27.513zm58.825 0.65558-18.017 30.405c13.769 0.15603 27.422 1.218 40.846 2.9596l-22.829-33.364zm-50.444 4.6786-10.124 28.3c9.577-1.3069 19.158-2.0958 28.703-2.4172l-18.581-25.884zm-38.035 14.498c-7.0461 6.859-13.478 15.076-19.094 24.791 11.049-3.7602 22.192-6.6367 33.364-8.7654l-14.269-16.026zm145.26 0.76406-16.802 16.026c9.7433 1.6947 19.335 3.7124 28.723 5.9804l-11.921-22.007zm13.378 4.3556 11.331 20.922c3.4418 0.92697 6.8579 1.8797 10.235 2.8604-6.0118-8.7298-13.319-16.721-21.565-23.782z" fill="#fff"/></svg>
