<svg version="1.1" viewBox="0 0 512 512" xmlns="http://www.w3.org/2000/svg"><path d="M0 0h512v512H0z"/><path d="m196.31 53.789c-29.913-0.45012-51.383 14.387-65.492 37.973-14.113 23.592-21.506 55.799-25.332 91.658-7.6529 71.719-0.809 158.31-0.48242 218.45v2.3984l2.1387 1.127c117.66 61.952 226.59 45.671 330.46-3.5l2.7246-1.291-0.48437-2.9746c-14.255-87.407-39.492-172.73-78.922-236.69-39.425-63.947-93.582-106.72-164.6-107.15h-0.00781zm32.896 81.781 2.8633 20.578-7.9336 1.1035-2.8652-20.578 7.9355-1.1035zm-71.26 0.66992 7.9941 0.5-1.4297 22.889-7.9961-0.5 1.4316-22.889zm166.73 48.529c11.596 0 21.455 8.68 21.455 19.791 0 11.111-9.8591 19.793-21.455 19.793-11.596 0-21.455-8.682-21.455-19.793 0-11.111 9.8591-19.791 21.455-19.791zm0 8.0117c-7.6785 0-13.443 5.4539-13.443 11.779 0 6.3252 5.7646 11.781 13.443 11.781 7.6785 0 13.445-5.4558 13.445-11.781 0-6.3251-5.7664-11.779-13.445-11.779zm-95.838 100.68c3.549-0.00719 7.1016 0.16728 10.641 0.51562 37.749 3.716 74.397 26.54 91.945 59.496l4.6016 8.6426-9.3379-2.9375c-53.99-16.985-119.55-27.084-179.71-2.9648l-9.3828 3.7617 4.2598-9.168c18.073-38.884 50.355-56.076 83.432-57.277h0.00586c1.1814-0.0429 2.3639-0.06597 3.5469-0.06836zm0.00586 7.9883c-1.0914-0.00247-2.1832 0.0131-3.2715 0.04687h-0.00195c-6.9231 0.21479-13.77 1.1736-20.418 2.9551l16.992 23.674 15.562-26.26c-2.9578-0.26347-5.9149-0.40935-8.8633-0.41601zm20.217 2.0644 20.582 30.078 16.336-15.586c-11.365-6.8964-23.974-11.893-36.918-14.492zm-54.844 4.7188c-6.5065 2.7766-12.731 6.4544-18.547 11.111l10.396 11.676 8.1504-22.787zm48.721 0.54297-14.922 25.182c11.404 0.12923 22.712 1.0088 33.83 2.4512l-18.908-27.633zm-41.779 3.875-8.3848 23.439c7.932-1.0824 15.867-1.7358 23.773-2.002l-15.389-21.438zm-31.502 12.008c-5.8358 5.6808-11.163 12.486-15.814 20.533 9.1515-3.1143 18.38-5.4967 27.633-7.2598l-11.818-13.273zm120.31 0.63282-13.916 13.273c8.0697 1.4036 16.014 3.0747 23.789 4.9531l-9.873-18.227zm11.08 3.6074 9.3848 17.328c2.8506 0.76775 5.6799 1.5568 8.4766 2.3691-4.9792-7.2303-11.031-13.849-17.861-19.697z" fill="#fff"/></svg>
