<svg version="1.1" viewBox="0 0 512 512" xmlns="http://www.w3.org/2000/svg"><path d="M0 0h512v512H0z"/><path d="m253.39 87.392c-43.414-1.009-87.908 25.481-120.85 54.947-16.47 14.732-30.037 30.256-39.102 43.822-4.5325 6.7828-7.9484 13.065-10.025 18.675-2.0768 5.6096-3.0378 10.622-1.4807 15.189 6.1861 18.146 28.352 30.293 57.591 38.935 29.24 8.6424 66.195 13.476 103.65 14.449 37.453 0.97255 75.362-1.9205 106.48-8.9702 31.117-7.0497 55.765-17.895 66.107-35.084 6.0427-10.046 2.5411-23.698-5.4969-38.294s-21.192-30.641-37.46-45.764c-32.538-30.247-77.459-56.924-119.41-57.9z" fill="#fff"/><path d="m344.87 270.85-4.9542 0.93777c-58.424 11.025-116.76 11.515-175.12 6e-3l-4.7318-0.93158-0.24679 4.8184c-1.3098 25.32-1.7587 57.591 5.5032 84.342 3.631 13.375 9.2125 25.451 17.91 34.431 8.6948 8.9785 20.594 14.64 35.659 15.041 25.165 0.74723 45.862 0.9239 69.603-1.9619l0.0186-6e-3h0.0123c17.836-2.3059 30.759-8.9886 39.608-18.564 8.849-9.5755 13.546-21.789 15.954-34.825 4.8155-26.076 0.78817-55.992 0.78353-78.246v-5.0404zm-8.1869 9.8342c0.40745 22.442 3.3549 49.359-0.81436 71.934-2.2246 12.046-6.4331 22.622-13.875 30.674-7.437 8.0473-18.184 13.826-34.506 15.942-23.125 2.8109-43.285 2.6507-68.352 1.9064h-0.0126c-13.16-0.34797-22.571-4.9403-29.891-12.499-7.3204-7.5589-12.456-18.31-15.849-30.81-6.4047-23.594-6.37-52.827-5.2748-77.118 56.207 10.445 112.43 10.02 168.57-0.0316z" fill="#fff"/><path d="m225.62 308.16a4.1787 4.1787 0 0 0-0.15424 6e-3 4.1787 4.1787 0 0 0-3.9917 4.3496l0.83903 19.841a4.1787 4.1787 0 0 0 4.3556 3.9977 4.1787 4.1787 0 0 0 3.9977-4.3496l-0.84522-19.841a4.1787 4.1787 0 0 0-4.2015-4.004z" fill="#fff"/><path d="m280.52 309.42a4.1787 4.1787 0 0 0-4.1768 4.1768v17.731a4.1787 4.1787 0 0 0 4.1768 4.1768 4.1787 4.1787 0 0 0 4.1768-4.1768v-17.731a4.1787 4.1787 0 0 0-4.1768-4.1768z" fill="#fff"/></svg>
