<svg version="1.1" viewBox="0 0 512 512" xmlns="http://www.w3.org/2000/svg"><path d="M0 0h512v512H0z"/><path d="m253.39 87.392c-43.414-1.009-87.908 25.481-120.85 54.947-16.47 14.732-30.037 30.256-39.102 43.822-4.5325 6.7828-7.9484 13.065-10.025 18.675-2.0768 5.6096-3.0378 10.622-1.4807 15.189 6.1861 18.146 28.352 30.293 57.591 38.935 29.24 8.6424 66.195 13.476 103.65 14.449 37.453 0.97255 75.362-1.9205 106.48-8.9702 31.117-7.0497 55.765-17.895 66.107-35.084 6.0427-10.046 2.5411-23.698-5.4969-38.294s-21.192-30.641-37.46-45.764c-32.538-30.247-77.459-56.924-119.41-57.9zm-0.19127 8.3533c38.483 0.89444 82.409 26.393 113.91 55.673 15.749 14.64 28.412 30.2 35.833 43.673 7.4202 13.474 9.0214 24.36 5.6573 29.953-7.9834 13.271-30.622 24.408-60.787 31.242-30.166 6.8346-67.541 9.7242-104.41 8.7668-36.872-0.95742-73.29-5.7714-101.5-14.11-28.211-8.3382-47.577-20.501-52.053-33.625-0.47502-1.3934-0.32703-4.8879 1.4128-9.5875 1.7398-4.6996 4.8531-10.527 9.1307-16.929 8.5555-12.804 21.74-27.931 37.731-42.236 31.986-28.61 75.254-53.75 115.08-52.824z" fill="#fff"/><path d="m344.87 270.85-4.9531 0.9375c-58.424 11.025-116.76 11.515-175.12 0.00586l-4.7305-0.93164-0.24804 4.8184c-1.3098 25.32-1.758 57.593 5.5039 84.344 3.631 13.375 9.2127 25.45 17.91 34.43 8.6948 8.9785 20.593 14.64 35.658 15.041 25.165 0.74723 45.863 0.92486 69.604-1.9609l0.01953-0.00586h0.01172c17.836-2.3059 30.758-8.989 39.607-18.564 8.849-9.5755 13.547-21.79 15.955-34.826 4.8155-26.076 0.78784-55.99 0.7832-78.244v-5.041-0.00195zm-119.25 37.311a4.1787 4.1787 0 0 1 4.2012 4.0039l0.84571 19.84a4.1787 4.1787 0 0 1-3.998 4.3496 4.1787 4.1787 0 0 1-4.3555-3.9961l-0.83789-19.842a4.1787 4.1787 0 0 1 3.9902-4.3496 4.1787 4.1787 0 0 1 0.1543-0.00586zm54.9 1.2598a4.1787 4.1787 0 0 1 4.1777 4.1777v17.73a4.1787 4.1787 0 0 1-4.1777 4.1758 4.1787 4.1787 0 0 1-4.1758-4.1758v-17.73a4.1787 4.1787 0 0 1 4.1758-4.1777z" fill="#fff"/></svg>
