<svg version="1.1" viewBox="0 0 512 512" xmlns="http://www.w3.org/2000/svg"><path d="M0 0h512v512H0z"/><path d="m260.57 36.608c-59.125-1.3742-119.72 34.703-164.59 74.832-22.43 20.063-40.907 41.206-53.253 59.681-6.1728 9.2375-10.825 17.793-13.653 25.433-2.8284 7.6397-4.1372 14.466-2.0166 20.686 8.4248 24.713 38.613 41.256 78.433 53.026 39.822 11.77 90.151 18.353 141.16 19.678 51.007 1.3245 102.64-2.6155 145.02-12.216 42.378-9.601 75.946-24.371 90.031-47.781 8.2295-13.682 3.4607-32.274-7.4862-52.153-10.947-19.878-28.861-41.73-51.017-62.326-44.313-41.193-105.49-77.525-162.62-78.854z" fill="#fff"/><path d="m385.16 286.46-6.7456 1.2768c-79.568 15.015-159.02 15.682-238.5 8e-3l-6.4425-1.2688-0.3378 6.5622c-1.7838 34.483-2.3942 78.436 7.4958 114.87 4.9451 18.215 12.547 34.66 24.392 46.89 11.841 12.228 28.046 19.938 48.563 20.484 34.272 1.0176 62.461 1.2596 94.794-2.6706l0.0266-8e-3h0.016c24.291-3.1404 41.889-12.242 53.941-25.282 12.051-13.041 18.45-29.676 21.729-47.43 6.5582-35.513 1.073-76.253 1.0666-106.56v-6.8673zm-162.41 50.814a5.691 5.691 0 0 1 5.7216 5.4529l1.1518 27.02a5.691 5.691 0 0 1-5.4449 5.9237 5.691 5.691 0 0 1-5.9318-5.4423l-1.1411-27.023a5.691 5.691 0 0 1 5.4343-5.9237 5.691 5.691 0 0 1 0.21014-8e-3zm74.768 1.7157a5.691 5.691 0 0 1 5.6896 5.6896v24.146a5.691 5.691 0 0 1-5.6896 5.687 5.691 5.691 0 0 1-5.687-5.687v-24.146a5.691 5.691 0 0 1 5.687-5.6896z" fill="#fff"/></svg>
