<svg version="1.1" viewBox="0 0 512 512" xmlns="http://www.w3.org/2000/svg"><path d="M0 0h512v512H0z"/><path d="m260.45 35.943c-59.284-1.3778-120.04 34.795-165.03 75.032-22.49 20.117-41.017 41.316-53.395 59.841-6.1893 9.2622-10.854 17.841-13.69 25.501-2.836 7.6601-4.1482 14.505-2.022 20.741 8.4474 24.779 38.716 41.366 78.643 53.167 39.928 11.802 90.392 18.402 141.54 19.731 51.144 1.3281 102.91-2.6225 145.4-12.249 42.491-9.6267 76.149-24.436 90.272-47.909 8.2516-13.718 3.47-32.361-7.5062-52.292-10.976-19.931-28.938-41.841-51.153-62.493-44.432-41.303-105.77-77.732-163.06-79.065zm-0.26119 11.407c52.55 1.2214 112.53 36.041 155.55 76.024 21.506 19.992 38.798 41.239 48.931 59.637 10.133 18.399 12.319 33.265 7.7253 40.902-10.902 18.122-41.816 33.33-83.007 42.662-41.193 9.3329-92.23 13.279-142.58 11.971-50.35-1.3074-100.08-7.8811-138.6-19.268-38.523-11.386-64.968-27.995-71.08-45.916-0.64866-1.9027-0.44657-6.6746 1.9292-13.092 2.3758-6.4175 6.6271-14.375 12.468-23.117 11.683-17.484 29.687-38.141 51.523-57.675 43.678-39.068 102.76-73.398 157.15-72.133z" fill="#fff"/><path d="m385.37 286.46-6.7636 1.2802c-79.78 15.055-159.44 15.724-239.13 8e-3l-6.4597-1.2722-0.33871 6.5797c-1.7886 34.575-2.4006 78.645 7.5158 115.18 4.9583 18.264 12.58 34.753 24.457 47.016 11.873 12.26 28.121 19.992 48.692 20.539 34.364 1.0204 62.628 1.2629 95.047-2.6777l0.0267-8e-3h0.0159c24.356-3.1488 42.001-12.275 54.085-25.35 12.084-13.076 18.499-29.755 21.787-47.556 6.5758-35.608 1.0758-76.457 1.0695-106.85v-6.8857zm-162.84 50.95a5.7062 5.7062 0 0 1 5.7369 5.4675l1.1548 27.092a5.7062 5.7062 0 0 1-5.4594 5.9395 5.7062 5.7062 0 0 1-5.9476-5.4568l-1.1442-27.095a5.7062 5.7062 0 0 1 5.4488-5.9395 5.7062 5.7062 0 0 1 0.2107-8e-3zm74.968 1.7203a5.7062 5.7062 0 0 1 5.7048 5.7048v24.211a5.7062 5.7062 0 0 1-5.7048 5.7022 5.7062 5.7062 0 0 1-5.7022-5.7022v-24.211a5.7062 5.7062 0 0 1 5.7022-5.7048z" fill="#fff"/></svg>
