<svg version="1.1" viewBox="0 0 512 512" xmlns="http://www.w3.org/2000/svg"><path d="M0 0h512v512H0z"/><path d="m261.52 36.063c-59.009-1.3714-119.49 34.634-164.26 74.685-22.386 20.024-40.827 41.124-53.148 59.564-6.1606 9.2193-10.804 17.758-13.626 25.383-2.8228 7.6247-4.129 14.438-2.0126 20.645 8.4082 24.664 38.536 41.175 78.279 52.921 39.743 11.747 89.973 18.317 140.88 19.639 50.907 1.3219 102.43-2.6104 144.73-12.192 42.295-9.5821 75.797-24.323 89.854-47.687 8.2133-13.655 3.4539-32.211-7.4715-52.05-10.925-19.839-28.804-41.648-50.916-62.203-44.226-41.112-105.28-77.372-162.3-78.699z" fill="#fff"/><path d="m385.86 285.42-6.7338 1.2746c-79.411 14.985-158.7 15.651-238.03 8e-3l-6.4315-1.2662-0.33543 6.5492c-1.7803 34.415-2.3905 78.279 7.48 114.64 4.9353 18.18 12.522 34.593 24.344 46.799 11.818 12.204 27.992 19.899 48.468 20.444 34.205 1.0156 62.336 1.2558 94.606-2.6666l0.0253-8e-3h0.0168c24.243-3.1342 41.808-12.217 53.836-25.232 12.028-13.015 18.412-29.616 21.685-47.335 6.5453-35.443 1.0713-76.105 1.065-106.35v-6.851zm-11.128 13.367c0.55381 30.504 4.56 67.09-1.1069 97.774-3.0237 16.373-8.744 30.748-18.859 41.693-10.108 10.938-24.716 18.793-46.901 21.669-31.432 3.8206-58.834 3.6029-92.905 2.5912h-0.0171c-17.887-0.47296-30.679-6.7149-40.628-16.989-9.95-10.274-16.93-24.887-21.542-41.877-8.7054-32.069-8.6582-71.803-7.1696-104.82 76.397 14.197 152.82 13.619 229.12-0.0429z" fill="#fff"/><path d="m223.78 336.13a5.6798 5.6798 0 0 0-0.20965 8e-3 5.6798 5.6798 0 0 0-5.4256 5.912l1.1404 26.968a5.6798 5.6798 0 0 0 5.9202 5.4337 5.6798 5.6798 0 0 0 5.4337-5.912l-1.1488-26.968a5.6798 5.6798 0 0 0-5.7108-5.4423z" fill="#fff"/><path d="m298.4 337.85a5.6798 5.6798 0 0 0-5.6772 5.6772v24.1a5.6798 5.6798 0 0 0 5.6772 5.6772 5.6798 5.6798 0 0 0 5.6772-5.6772v-24.1a5.6798 5.6798 0 0 0-5.6772-5.6772z" fill="#fff"/></svg>
