<svg version="1.1" viewBox="0 0 512 512" xmlns="http://www.w3.org/2000/svg"><path d="M0 0h512v512H0z"/><path d="m260.74 35.053c-59.366-1.3797-120.21 34.844-165.26 75.137-22.522 20.145-41.074 41.373-53.47 59.924-6.1979 9.2751-10.869 17.866-13.709 25.537-2.8399 7.6708-4.154 14.525-2.0248 20.77 8.4591 24.814 38.77 41.424 78.752 53.241 39.984 11.818 90.518 18.428 141.74 19.758 51.215 1.3299 103.05-2.6262 145.6-12.266 42.551-9.64 76.255-24.47 90.397-47.975 8.263-13.737 3.4748-32.406-7.5167-52.365-10.991-19.959-28.979-41.9-51.224-62.579-44.494-41.361-105.92-77.84-163.29-79.175zm-0.26155 11.423c52.623 1.2231 112.69 36.091 155.77 76.129 21.536 20.019 38.852 41.297 48.999 59.72 10.147 18.425 12.336 33.311 7.736 40.959-10.917 18.147-41.874 33.376-83.123 42.722-41.25 9.3459-92.358 13.297-142.77 11.988-50.42-1.3092-100.22-7.892-138.8-19.295-38.577-11.402-65.059-28.034-71.179-45.98-0.64956-1.9054-0.44719-6.6839 1.9319-13.11 2.3791-6.4264 6.6363-14.395 12.486-23.149 11.699-17.509 29.728-38.194 51.595-57.755 43.739-39.122 102.91-73.5 157.36-72.234z" fill="#fff"/><path d="m385.83 285.92-6.7746 1.2823c-79.891 15.076-159.66 15.746-239.47 8e-3l-6.4704-1.2739-0.33747 6.5889c-1.7911 34.624-2.4049 78.752 7.5253 115.33 4.9652 18.29 12.598 34.803 24.491 47.082 11.89 12.278 28.161 20.019 48.762 20.568 34.412 1.0218 62.714 1.2634 95.178-2.6828l0.0254-8e-3h0.0168c24.39-3.1532 42.061-12.291 54.162-25.385 12.1-13.094 18.523-29.795 21.816-47.621 6.5849-35.657 1.0778-76.566 1.0714-107v-6.8924zm-11.195 13.448c0.55715 30.688 4.5876 67.495-1.1136 98.365-3.042 16.472-8.7969 30.934-18.973 41.945-10.17 11.004-24.866 18.906-47.185 21.8-31.622 3.8437-59.19 3.6247-93.467 2.6069h-0.0172c-17.996-0.47582-30.864-6.7556-40.874-17.092-10.01-10.336-17.033-25.038-21.673-42.131-8.758-32.263-8.7106-72.238-7.213-105.45 76.86 14.283 153.74 13.702 230.51-0.0432z" fill="#fff"/><path d="m222.76 336.94a5.7141 5.7141 0 0 0-0.21092 8e-3 5.7141 5.7141 0 0 0-5.4584 5.9478l1.1473 27.131a5.7141 5.7141 0 0 0 5.956 5.4666 5.7141 5.7141 0 0 0 5.4666-5.9478l-1.1558-27.131a5.7141 5.7141 0 0 0-5.7453-5.4752z" fill="#fff"/><path d="m297.84 338.66a5.7141 5.7141 0 0 0-5.7115 5.7115v24.246a5.7141 5.7141 0 0 0 5.7115 5.7115 5.7141 5.7141 0 0 0 5.7115-5.7115v-24.246a5.7141 5.7141 0 0 0-5.7115-5.7115z" fill="#fff"/></svg>
