<svg version="1.1" viewBox="0 0 512 512" xmlns="http://www.w3.org/2000/svg"><path d="M0 0h512v512H0z"/><path d="m213.31 45.169c-87.783 0.19463-163.14 88.11-146.67 323.97-218.97 124.96 604.51 94.052 376.24-1.9697 25.35-167.99-113.05-322.27-229.56-322.01zm-16.822 142.94c-4.1073 16.633-5.7072 38.56-4.8388 51.814-0.50641 2-11.562 1.7881-12.345 0.18035-0.89548-13.667 0.71209-35.64 4.9137-52.654 1.1149-2.6266 12.36-2.0757 12.27 0.66025zm55.724 5.5648c-3.536 15.542-3.5919 30.361-3.4475 47.042-1.4978 1.8762-11.389 1.5275-12.357 0.0234-0.14454-16.702-0.10094-31.772 3.5178-47.678 0.77432-2.7163 12.845-1.2929 12.286 0.61216z" fill="#fff"/></svg>
