<svg version="1.1" viewBox="0 0 512 512" xmlns="http://www.w3.org/2000/svg"><path d="M0 0h512v512H0z"/><path d="m220.68 79.121c-73.205 0.16231-136.05 73.478-122.31 270.17-182.61 104.21 504.12 78.433 313.76-1.6426 21.14-140.09-94.279-268.75-191.44-268.53zm-14.028 119.2c-3.4252 13.871-4.7594 32.156-4.0352 43.209-0.42232 1.6679-9.6416 1.4912-10.295 0.1504-0.74677-11.397 0.59384-29.721 4.0977-43.91 0.92978-2.1904 10.307-1.731 10.232 0.5506zm46.47 4.6407c-2.9488 12.961-2.9954 25.319-2.875 39.23-1.2491 1.5646-9.4974 1.2738-10.305 0.0195-0.12053-13.928-0.0842-26.496 2.9336-39.76 0.64572-2.2652 10.712-1.0782 10.246 0.5105z" fill="#fff"/></svg>
