<?xml version="1.0" encoding="utf-8"?>
<!-- Generator: Adobe Illustrator 28.1.0, SVG Export Plug-In . SVG Version: 6.00 Build 0)  -->
<svg version="1.1"
	 id="svg1" xmlns:inkscape="http://www.inkscape.org/namespaces/inkscape" xmlns:svg="http://www.w3.org/2000/svg" xmlns:sodipodi="http://sodipodi.sourceforge.net/DTD/sodipodi-0.dtd" inkscape:version="1.4 (86a8ad7, 2024-10-11)" sodipodi:docname="2d10.svg"
	 xmlns="http://www.w3.org/2000/svg" xmlns:xlink="http://www.w3.org/1999/xlink" x="0px" y="0px" viewBox="0 0 512 512"
	 style="enable-background:new 0 0 512 512;" xml:space="preserve">
<style type="text/css">
	.st0{fill:#FFFFFF;}
</style>
<sodipodi:namedview  bordercolor="#000000" borderopacity="0.25" id="namedview1" inkscape:current-layer="svg1" inkscape:cx="167.06376" inkscape:cy="217.47728" inkscape:deskcolor="#d1d1d1" inkscape:pagecheckerboard="0" inkscape:pageopacity="0.0" inkscape:showpageshadow="2" inkscape:window-height="1001" inkscape:window-maximized="1" inkscape:window-width="1920" inkscape:window-x="-9" inkscape:window-y="-9" inkscape:zoom="1.3587627" pagecolor="#aeaeae">
	</sodipodi:namedview>
<g id="g12" transform="translate(-2.0043071,-6.6128031)">
	<polygon id="polygon9" inkscape:label="polygon10" class="st0" points="230.5,465.8 296.3,340.9 299.7,341 405.3,346.5 
		455.5,391.6 234.4,464.6 	">
	</polygon>
	<path id="polygon7" inkscape:label="polygon9" class="st0" d="M159.1,253.9c-0.6-2.7-5.6-19.6-6.2-22.5c19,4.6,44.8,10.6,63.9,15.2
		l64.3,84.6L216,454.9L159.1,253.9z"/>
	<path id="polygon10" inkscape:label="polygon8" class="st0" d="M418.6,334.3L418.6,334.3l-0.1-4.2l-6.3-163.4
		c12.5,45.7,46.6,170.5,58.7,214.3C469.8,380.4,419.4,335,418.6,334.3z"/>
	<path id="polygon12" inkscape:label="polygon7" class="st0" d="M299.3,323l-2-0.1c-1.8-2.5-58.9-77.3-60.5-79.5
		c0,0-1.9-2.6-1.9-2.6c11.7-7.2,149.5-93.8,158.2-99.3c0.5,9.7,6.6,173.5,7.3,186.7l-3.2-0.2L299.3,323z"/>
	<path id="polygon11" inkscape:label="polygon6" class="st0" d="M220,228.9c-21.6-5.1-47.1-11.2-68.6-16.2
		c19.7-6.9,48.2-16.6,68-23.5l0-0.1c31.4-10.8,109.6-37.8,141.9-48.9l-138,86.7L220,228.9z"/>
	<path id="polygon3" inkscape:label="polygon5" class="st0" d="M207.4,174.3c-16.1,5.6-39.1,13.5-55,19l-2.6-11.3
		c5.5-4.3,40.1-31,46.4-35.9l27.9,0.6L207.4,174.3L207.4,174.3z"/>
	<polygon id="polygon1" inkscape:label="polygon4" class="st0" points="60.3,183.9 84.4,171.4 131.1,181.4 141.3,226 134.6,233.1 	
		">
	</polygon>
	<path id="polygon4" inkscape:label="polygon3" class="st0" d="M196.7,118L165,83.9c18.1,12.2,48.7,32.9,66.5,44.9l-25.3-0.5
		L196.7,118z"/>
	<path id="polygon6" inkscape:label="polygon2" class="st0" d="M148.4,160.3l-6.5,5c-12-2.6-41.4-8.9-53.4-11.4
		c3.7-12.2,25.3-82,29.2-94.5c8.9,9.5,58.6,63.1,67.3,72.5C179.7,136,154.2,155.8,148.4,160.3z"/>
	<path id="polygon5" inkscape:label="polygon1" class="st0" d="M67.8,159.7l-22.6,11.7l9.4-16.1l0,0c5.1-8.8,26.4-45.2,31.1-53.2
		C82.6,111.9,70.6,150.6,67.8,159.7z"/>
</g>
</svg>
