<?xml version="1.0" encoding="UTF-8" standalone="no"?>
<!-- Generator: Adobe Illustrator 28.1.0, SVG Export Plug-In . SVG Version: 6.00 Build 0)  -->

<svg
   version="1.1"
   id="svg1"
   inkscape:version="1.4 (86a8ad7, 2024-10-11)"
   sodipodi:docname="2d10.svg"
   x="0px"
   y="0px"
   viewBox="0 0 512 512"
   style="enable-background:new 0 0 512 512;"
   xml:space="preserve"
   xmlns:inkscape="http://www.inkscape.org/namespaces/inkscape"
   xmlns:sodipodi="http://sodipodi.sourceforge.net/DTD/sodipodi-0.dtd"
   xmlns="http://www.w3.org/2000/svg"
   xmlns:svg="http://www.w3.org/2000/svg"><defs
   id="defs1" />
<style
   type="text/css"
   id="style1">
	.st0{fill:#FFFFFF;}
</style>
<sodipodi:namedview
   bordercolor="#000000"
   borderopacity="0.25"
   id="namedview1"
   inkscape:current-layer="svg1"
   inkscape:cx="167.79972"
   inkscape:cy="217.47727"
   inkscape:deskcolor="#d1d1d1"
   inkscape:pagecheckerboard="0"
   inkscape:pageopacity="0.0"
   inkscape:showpageshadow="2"
   inkscape:window-height="1001"
   inkscape:window-maximized="1"
   inkscape:window-width="1920"
   inkscape:window-x="-9"
   inkscape:window-y="-9"
   inkscape:zoom="1.3587627"
   pagecolor="#aeaeae">
	</sodipodi:namedview>
<path
   d="M 0,0 H 512 V 512 H 0 Z"
   fill="#000000"
   fill-opacity="1"
   id="path1"
   style="enable-background:new 0 0 512 512" /><g
   id="g12"
   transform="translate(-2.0043071,-6.6128031)">
	<path
   id="polygon9"
   class="st0"
   inkscape:label="path2"
   d="M 117.69962 59.399912 C 113.79962 71.899912 92.200401 141.69991 88.500401 153.89991 C 100.5004 156.39991 129.90079 162.7003 141.90079 165.3003 L 148.40079 160.3003 C 154.20079 155.8003 179.7004 135.99991 185.0004 131.89991 C 176.3004 122.49991 126.59962 68.899912 117.69962 59.399912 z M 165.0004 83.899912 L 196.69962 117.99952 L 206.19962 128.3003 L 231.5004 128.8003 C 213.7004 116.8003 183.1004 96.099912 165.0004 83.899912 z M 85.69962 102.09913 C 80.99962 110.09913 59.70001 146.5003 54.60001 155.3003 L 45.19962 171.39991 L 67.799229 159.70069 C 70.599229 150.60069 82.59962 111.89913 85.69962 102.09913 z M 361.29923 140.20069 C 328.99923 151.30069 250.80079 178.29913 219.40079 189.09913 L 219.40079 189.20069 C 199.60079 196.10069 171.10079 205.80069 151.40079 212.70069 C 172.90079 217.70069 198.4004 223.79991 220.0004 228.89991 L 223.29923 226.89991 L 361.29923 140.20069 z M 393.10001 141.49952 C 384.40001 146.99952 246.60079 233.6003 234.90079 240.8003 L 236.79923 243.39991 C 238.39923 245.59991 295.49923 320.39991 297.29923 322.89991 L 299.29923 322.99952 L 397.19962 327.99952 L 400.40079 328.20069 C 399.70079 315.00069 393.60001 151.19952 393.10001 141.49952 z M 196.19962 146.09913 C 189.89962 150.99913 155.29923 177.69952 149.79923 181.99952 L 152.40079 193.3003 C 168.30079 187.8003 191.30079 179.9003 207.40079 174.3003 L 224.10001 146.70069 L 196.19962 146.09913 z M 412.19962 166.70069 L 418.5004 330.09913 L 418.60001 334.3003 C 419.40001 335.0003 469.80079 380.39952 470.90079 380.99952 C 458.80079 337.19952 424.69962 212.40069 412.19962 166.70069 z M 84.400791 171.39991 L 60.299229 183.89991 L 134.60001 233.09913 L 141.29923 225.99952 L 131.10001 181.39991 L 84.400791 171.39991 z M 152.90079 231.39991 C 153.50079 234.29991 158.50001 251.19991 159.10001 253.89991 L 216.0004 454.89991 L 281.10001 331.20069 L 216.79923 246.59913 C 197.69923 241.99913 171.90079 235.99991 152.90079 231.39991 z M 296.29923 340.89991 L 230.5004 465.8003 L 234.40079 464.59913 L 455.5004 391.59913 L 405.29923 346.49952 L 299.69962 340.99952 L 296.29923 340.89991 z " />
	
	
	
	
	
	
	
	
	
</g>
</svg>
