<?xml version="1.0" encoding="utf-8"?>
<!-- Generator: Adobe Illustrator 28.1.0, SVG Export Plug-In . SVG Version: 6.00 Build 0)  -->
<svg version="1.1"
	 id="svg1" xmlns:inkscape="http://www.inkscape.org/namespaces/inkscape" xmlns:svg="http://www.w3.org/2000/svg" xmlns:sodipodi="http://sodipodi.sourceforge.net/DTD/sodipodi-0.dtd" inkscape:version="1.4 (86a8ad7, 2024-10-11)" sodipodi:docname="accid-shield.svg"
	 xmlns="http://www.w3.org/2000/svg" xmlns:xlink="http://www.w3.org/1999/xlink" x="0px" y="0px" viewBox="0 0 512 512"
	 style="enable-background:new 0 0 512 512;" xml:space="preserve">
<style type="text/css">
	.st0{fill:#FFFFFF;}
</style>
<sodipodi:namedview  bordercolor="#000000" borderopacity="0.25" id="namedview1" inkscape:current-layer="svg1" inkscape:cx="33.290912" inkscape:cy="213.15431" inkscape:deskcolor="#d1d1d1" inkscape:pagecheckerboard="0" inkscape:pageopacity="0.0" inkscape:showpageshadow="2" inkscape:window-height="1001" inkscape:window-maximized="1" inkscape:window-width="1920" inkscape:window-x="-9" inkscape:window-y="-9" inkscape:zoom="1.0813762" pagecolor="#838383">
	</sodipodi:namedview>
<path id="path1" class="st0" d="M422.8,95.4c8.1-29.7,19.4-53.6,32.9-69.4c-95.2,12.9-304,12.9-399.5,0
	c55.4,73.8,55.4,202.6,28.3,289c37.2,80.7,92.5,122.8,175.9,171.3c92.1-49.3,141.3-96.7,169.7-163.4
	C406.2,259.5,403.9,163,422.8,95.4z M410.5,321.2c-26.6,66.5-87.1,109.9-150,144.7c-82.1-47.4-129.6-93.2-157.5-152.1
	c25-84.9,22.7-188.5-13.2-267.5c144.3,11.8,203.4,10.1,332.1,0C384.2,124.5,383.8,239.6,410.5,321.2z"/>
<g id="g8-5-1-1" transform="matrix(0.38774901,0,0,0.38774901,505.78408,97.887579)">
	<path class="st0" d="M-533,54.4c-131.3,2.4-131.3,197.4,0,199.8C-401.7,251.8-401.8,56.7-533,54.4z M-533,206
		c-21.5,0-40-13.2-47.8-31.9c40.6,29.2,97.5-18.2,75.6-63.5C-462.3,135.7-482.3,207.8-533,206z"/>
</g>
<g id="g8" transform="matrix(0.78860337,0,0,0.78860337,657.26997,194.57262)">
	<path class="st0" d="M-448.1,43.8c-5.4,0-10.7,0.6-15.8,1.7C-496-72.6-660.8,17.1-579.2,108.1c-73.9,43.4-40.9,163.8,46.1,162.2
		c44.1,0,80.7-32.7,86.8-75.2C-348.1,191.2-349.8,45.5-448.1,43.8z M-546.3,79.5c32.7,1.1,51.1-41.3,28.8-64.6
		c19.8,6.4,33.5,27.3,30.6,48.6c-11,6.7-18.7,18.2-20.3,31.6c-0.1,0.3-0.1,0.6-0.1,0.9c-26.4,18-65.4,0.5-69.5-31.3
		C-569.6,73.7-558.6,79.5-546.3,79.5z M-446.1,171.5c-8.7,0.3-17.5-1.5-25.1-5.4c21.3,91.1-119.1,112.5-125.8,18.9
		c41.6,66.5,134.5-6.5,79.8-62.7c4.8-0.6,9.5-1.8,13.9-3.5c32.2,59.2,114.8,0.7,69.3-49.3C-378.2,84.3-387.8,169.9-446.1,171.5z"/>
</g>
</svg>
