<?xml version="1.0" encoding="UTF-8" standalone="no"?>
<!-- Generator: Adobe Illustrator 28.1.0, SVG Export Plug-In . SVG Version: 6.00 Build 0)  -->

<svg
   version="1.1"
   id="svg1"
   inkscape:version="1.4 (86a8ad7, 2024-10-11)"
   sodipodi:docname="accid-shield.svg"
   x="0px"
   y="0px"
   viewBox="0 0 512 512"
   style="enable-background:new 0 0 512 512;"
   xml:space="preserve"
   xmlns:inkscape="http://www.inkscape.org/namespaces/inkscape"
   xmlns:sodipodi="http://sodipodi.sourceforge.net/DTD/sodipodi-0.dtd"
   xmlns="http://www.w3.org/2000/svg"
   xmlns:svg="http://www.w3.org/2000/svg"><defs
   id="defs3">
	

	
</defs>
<style
   type="text/css"
   id="style1">
	.st0{fill:#FFFFFF;}
</style>
<sodipodi:namedview
   bordercolor="#000000"
   borderopacity="0.25"
   id="namedview1"
   inkscape:current-layer="svg1"
   inkscape:cx="33.290912"
   inkscape:cy="212.22956"
   inkscape:deskcolor="#d1d1d1"
   inkscape:pagecheckerboard="0"
   inkscape:pageopacity="0.0"
   inkscape:showpageshadow="2"
   inkscape:window-height="1001"
   inkscape:window-maximized="1"
   inkscape:window-width="1920"
   inkscape:window-x="-9"
   inkscape:window-y="-9"
   inkscape:zoom="1.0813762"
   pagecolor="#838383">
	</sodipodi:namedview>
<path
   d="M 0,0 H 512 V 512 H 0 Z"
   fill="#000000"
   fill-opacity="1"
   id="path1-5"
   style="enable-background:new 0 0 512 512"
   inkscape:label="path2" /><g
   id="g3"><path
     id="path1"
     class="st0"
     d="M 56.199219 26 C 111.59922 99.8 111.6 228.6 84.5 315 C 121.7 395.7 177.00039 437.80078 260.40039 486.30078 C 352.50039 437.00078 401.69961 389.60039 430.09961 322.90039 C 406.19961 259.50039 403.90078 163.00039 422.80078 95.400391 C 430.90078 65.700391 442.19922 41.8 455.69922 26 C 360.49922 38.9 151.69922 38.9 56.199219 26 z M 89.800781 46.300781 C 234.10078 58.100781 293.20039 56.400781 421.90039 46.300781 C 384.20039 124.50078 383.8 239.59922 410.5 321.19922 C 383.9 387.69922 323.4 431.10039 260.5 465.90039 C 178.4 418.50039 130.9 372.70078 103 313.80078 C 128 228.90078 125.70078 125.30078 89.800781 46.300781 z M 299.11328 118.98047 C 248.20183 119.91106 248.20183 195.52253 299.11328 196.45312 C 350.02472 195.52253 349.98595 119.87229 299.11328 118.98047 z M 309.89258 140.77344 C 326.52701 150.50594 318.77215 178.46161 299.11328 177.76367 C 290.77667 177.76367 283.60453 172.64544 280.58008 165.39453 C 296.32269 176.7168 318.38428 158.33847 309.89258 140.77344 z M 240.37891 185.88672 C 199.73526 186.07387 158.282 232.72591 200.51172 279.82031 C 142.23393 314.0457 168.25674 408.99419 236.86523 407.73242 C 271.64264 407.73242 300.50593 381.94533 305.31641 348.42969 C 382.75726 345.35413 381.41619 230.4539 303.89648 229.11328 C 299.63802 229.11328 295.45937 229.58567 291.4375 230.45312 C 282.73575 198.4383 261.66843 185.78869 240.37891 185.88672 z M 249.16797 206.32227 C 264.78231 211.36933 275.58578 227.85119 273.29883 244.64844 C 264.62419 249.93209 258.55279 259.00108 257.29102 269.56836 C 257.21212 269.80494 257.21094 270.04272 257.21094 270.2793 C 236.39181 284.47416 205.63757 270.67329 202.4043 245.5957 C 208.08224 252.69313 216.75526 257.26562 226.45508 257.26562 C 252.24241 258.13308 266.75382 224.69673 249.16797 206.32227 z M 315.01562 249.38086 C 359.0197 261.05219 351.45018 328.55659 305.47461 329.81836 C 298.61376 330.05494 291.67308 328.6361 285.67969 325.56055 C 302.47694 397.40232 191.75825 414.27812 186.47461 340.46484 C 219.28051 392.90697 292.5409 335.33904 249.4043 291.01953 C 253.18959 290.54637 256.89538 289.59844 260.36523 288.25781 C 285.75826 334.94313 350.89708 288.81103 315.01562 249.38086 z " /></g>


</svg>
