<svg xmlns="http://www.w3.org/2000/svg" viewBox="0 0 512 512"><path d="M0 0h512v512H0z"/><path fill="#fff" d="M56.25 25.85c55.4 73.8 55.4 202.6 28.3 289 37.2 80.7 92.501 122.8 175.901 171.3 92.1-49.3 141.3-96.7 169.7-163.4-23.9-63.4-26.2-159.9-7.3-227.5 8.1-29.7 19.399-53.6 32.899-69.4-95.2 12.9-304 12.9-399.5 0zm33.602 20.3c144.3 11.8 203.4 10.1 332.1 0-37.7 78.2-38.101 193.299-11.401 274.899-26.6 66.5-87.1 109.901-150 144.701-82.1-47.4-129.6-93.2-157.5-152.1 25-84.9 22.7-188.5-13.2-267.5zm209.312 72.68c-50.911.93-50.911 76.542 0 77.473 50.912-.93 50.873-76.581 0-77.473zm10.78 21.793c16.634 9.733 8.879 37.688-10.78 36.99-8.337 0-15.509-5.118-18.533-12.369 15.742 11.322 37.804-7.056 29.312-24.62zm-69.514 45.113c-40.644.187-82.097 46.84-39.868 93.934-58.277 34.225-32.254 129.174 36.354 127.912 34.777 0 63.64-25.787 68.451-59.303 77.441-3.075 76.1-117.975-1.42-119.316a59.12 59.12 0 0 0-12.459 1.34c-8.701-32.015-29.769-44.665-51.058-44.567zm8.789 20.436c15.614 5.047 26.418 21.529 24.13 38.326a33.861 33.861 0 0 0-16.007 24.92c-.08.237-.08.474-.08.71-20.82 14.196-51.574.395-54.807-24.683 5.678 7.098 14.351 11.67 24.05 11.67 25.788.868 40.3-32.569 22.714-50.943zm65.847 43.058c44.004 11.672 36.435 79.176-9.54 80.438-6.861.237-13.802-1.182-19.796-4.258 16.798 71.842-93.921 88.718-99.205 14.904 32.806 52.443 106.067-5.125 62.93-49.445a46.552 46.552 0 0 0 10.961-2.762c25.393 46.686 90.532.554 54.65-38.877z"/></svg>
