<?xml version="1.0" encoding="UTF-8" standalone="no"?>
<!-- Generator: Adobe Illustrator 28.4.1, SVG Export Plug-In . SVG Version: 6.00 Build 0)  -->

<svg
   version="1.1"
   id="Слой_1"
   x="0px"
   y="0px"
   viewBox="0 0 512 512"
   style="enable-background:new 0 0 512 512;"
   xml:space="preserve"
   sodipodi:docname="archaic-ranged-weapon-blueprint.svg"
   inkscape:version="1.4 (86a8ad7, 2024-10-11)"
   xmlns:inkscape="http://www.inkscape.org/namespaces/inkscape"
   xmlns:sodipodi="http://sodipodi.sourceforge.net/DTD/sodipodi-0.dtd"
   xmlns="http://www.w3.org/2000/svg"
   xmlns:svg="http://www.w3.org/2000/svg"><defs
   id="defs2" /><sodipodi:namedview
   id="namedview2"
   pagecolor="#585858"
   bordercolor="#000000"
   borderopacity="0.25"
   inkscape:showpageshadow="2"
   inkscape:pageopacity="0.0"
   inkscape:pagecheckerboard="true"
   inkscape:deskcolor="#d1d1d1"
   inkscape:zoom="0.74425551"
   inkscape:cx="229.7598"
   inkscape:cy="225.05712"
   inkscape:window-width="1920"
   inkscape:window-height="1001"
   inkscape:window-x="-9"
   inkscape:window-y="-9"
   inkscape:window-maximized="1"
   inkscape:current-layer="g26" />
<style
   type="text/css"
   id="style1">
	.st0{fill:#FFFFFF;}
</style>



<g
   id="g26"
   transform="translate(4.558602,15.302734)"><path
     id="path47"
     d="M 414.05663,73.345703 C 384.44274,73.34518 359.73481,95.192688 355.22656,123.58008 H 29.257806 v 284.46875 h 334.562504 50.23632 c 32.78831,-6.9e-4 59.56894,-26.78201 59.56836,-59.57031 V 132.91406 c -7e-4,-32.7874 -26.78094,-59.56766 -59.56836,-59.568357 z M 47.925775,142.24805 H 354.48632 v 206.23047 h 9.33399 9.33398 c 3e-5,-1.41876 0.0721,-2.81896 0.21094,-4.19922 2.08322,-20.7039 19.41008,-36.70155 40.6914,-36.70118 22.69947,4.9e-4 40.89991,18.20092 40.90039,40.9004 4.1e-4,22.70009 -18.2003,40.90186 -40.90039,40.90234 H 363.82031 47.925775 Z"
     style="fill:#ffffff;fill-opacity:1" /><path
     style="enable-background:new 0 0 512 512;fill:#ffffff;stroke-dashoffset:30.6"
     d="m 163.1785,179.5 v 18 h -44.5 v -18 z"
     id="path2"
     transform="translate(-4.558602,-15.302734)" /><path
     style="enable-background:new 0 0 512 512;fill:#ffffff;stroke-dashoffset:30.6"
     d="m 155.5,179.5 v 18 h 95 v -18 z"
     transform="matrix(-1,0,0,1,481.24813,-15.302734)"
     id="path11" /><path
     style="enable-background:new 0 0 512 512;fill:#ffffff;stroke-dashoffset:30.6"
     d="m 220.5,361.5 v 18 h -29.75 v -18 z"
     transform="translate(-4.558602,-15.302734)"
     id="path4" /><path
     style="enable-background:new 0 0 512 512;fill:#ffffff;stroke-dashoffset:30.6"
     d="m 331.5,361.5 v 18 H 239 v -18 z"
     transform="translate(-4.558602,-15.302734)"
     id="path3" /><path
     style="enable-background:new 0 0 512 512;fill:#ffffff;stroke-dashoffset:30.6"
     d="m 110.5,331.5 v 30 H 161 v 18 H 92.5 v -48 z"
     transform="translate(-4.558602,-15.302734)"
     id="path5" /><path
     id="path1"
     d="m 85.979056,285.63824 c -0.0098,0.34699 0.05134,0.69265 0.178268,1.01396 6.271277,15.60026 31.236286,26.60102 41.654546,16.81654 0.61826,-0.55088 1.19469,-1.11262 1.79331,-1.66869 h 168.70329 c 0.59862,0.55607 1.17504,1.11781 1.7933,1.66869 10.41827,9.78448 35.38327,-1.21628 41.65455,-16.81654 2.04388,-5.08347 -14.21536,-15.76278 -13.69597,-12.2345 1.35335,9.19052 -11.37702,21.26065 -15.71741,15.96626 -17.73865,-21.63766 -54.36,-59.33362 -73.64541,-56.40154 -8.18042,1.24359 -16.49453,5.25908 -24.74123,8.7598 -8.24726,-3.50128 -16.56027,-7.51621 -24.74124,-8.7598 -19.28488,-2.93263 -55.90622,34.76332 -73.64542,56.40154 -4.33985,5.29383 -17.070225,-6.77574 -15.71741,-15.96626 0.48734,-3.3078 -13.772664,5.87159 -13.873174,11.22054 z m 53.567824,6.03761 c 14.32737,-15.55543 26.51769,-31.15593 58.04259,-38.91049 10.94744,-1.46632 21.78295,-0.68507 32.73366,0 31.52512,7.75461 43.71613,23.35495 58.04364,38.91049 z"
     style="enable-background:new 0 0 512 512;fill:#ffffff;fill-opacity:1;stroke-width:1"
     transform="translate(-4.558602,-15.302734)" /></g></svg>
