<?xml version="1.0" encoding="UTF-8" standalone="no"?>
<!-- Generator: Adobe Illustrator 28.4.1, SVG Export Plug-In . SVG Version: 6.00 Build 0)  -->

<svg
   version="1.1"
   id="Слой_1"
   x="0px"
   y="0px"
   viewBox="0 0 512 512"
   style="enable-background:new 0 0 512 512;"
   xml:space="preserve"
   sodipodi:docname="archaic-ranged-weapon-blueprint.svg"
   inkscape:version="1.4 (86a8ad7, 2024-10-11)"
   xmlns:inkscape="http://www.inkscape.org/namespaces/inkscape"
   xmlns:sodipodi="http://sodipodi.sourceforge.net/DTD/sodipodi-0.dtd"
   xmlns="http://www.w3.org/2000/svg"
   xmlns:svg="http://www.w3.org/2000/svg"><defs
   id="defs2" /><sodipodi:namedview
   id="namedview2"
   pagecolor="#585858"
   bordercolor="#000000"
   borderopacity="0.25"
   inkscape:showpageshadow="2"
   inkscape:pageopacity="0.0"
   inkscape:pagecheckerboard="true"
   inkscape:deskcolor="#d1d1d1"
   inkscape:zoom="0.74425551"
   inkscape:cx="229.7598"
   inkscape:cy="225.05712"
   inkscape:window-width="1920"
   inkscape:window-height="1001"
   inkscape:window-x="-9"
   inkscape:window-y="-9"
   inkscape:window-maximized="1"
   inkscape:current-layer="Слой_1" />
<style
   type="text/css"
   id="style1">
	.st0{fill:#FFFFFF;}
</style>



<path
   d="M -1e-6,0 H 512 V 512 H -1e-6 Z"
   fill="#000000"
   fill-opacity="1"
   id="path1-4"
   inkscape:label="path1" /><g
   id="g26"
   transform="translate(4.558602,15.302734)"><path
     id="path47"
     style="fill:#ffffff;fill-opacity:1"
     d="M 414.05663 73.345703 C 384.44274 73.34518 359.7348 95.192686 355.22655 123.58008 L 29.257804 123.58008 L 29.257804 408.04883 L 363.8203 408.04883 L 414.05663 408.04883 C 446.84494 408.04814 473.62557 381.26682 473.62499 348.47852 L 473.62499 132.91406 C 473.62429 100.12666 446.84405 73.346401 414.05663 73.345703 z M 47.925773 142.24805 L 354.48632 142.24805 L 354.48632 348.47852 L 363.8203 348.47852 L 373.15429 348.47852 C 373.15432 347.05976 373.22639 345.65956 373.36523 344.2793 C 375.44845 323.5754 392.77531 307.57776 414.05663 307.57813 C 436.7561 307.57862 454.95654 325.77904 454.95702 348.47852 C 454.95743 371.17861 436.75672 389.38038 414.05663 389.38086 L 363.8203 389.38086 L 47.925773 389.38086 L 47.925773 142.24805 z M 114.11913 164.19727 L 114.11913 182.19727 L 158.61913 182.19727 L 158.61913 164.19727 L 114.11913 164.19727 z M 230.74804 164.19727 L 230.74804 182.19727 L 325.74804 182.19727 L 325.74804 164.19727 L 230.74804 164.19727 z M 182.79882 218.52148 C 163.10119 218.08681 128.19656 254.12001 111.01171 275.08203 C 106.67186 280.37586 93.940146 268.30575 95.292961 259.11523 C 95.780301 255.80743 81.520424 264.98699 81.419914 270.33594 C 81.410114 270.68293 81.472673 271.0283 81.599601 271.34961 C 87.870878 286.94987 112.83564 297.9505 123.2539 288.16602 C 123.87216 287.61514 124.44825 287.05412 125.04687 286.49805 L 293.74999 286.49805 C 294.34861 287.05412 294.9247 287.61514 295.54296 288.16602 C 305.96123 297.9505 330.92598 286.94987 337.19726 271.34961 C 339.24114 266.26614 322.98255 255.58695 323.50194 259.11523 C 324.85529 268.30575 312.12554 280.37642 307.78515 275.08203 C 290.0465 253.44437 253.42407 215.74761 234.13866 218.67969 C 225.95824 219.92328 217.64513 223.93873 209.39843 227.43945 C 201.15117 223.93817 192.83721 219.92328 184.65624 218.67969 C 184.05359 218.58804 183.43423 218.53551 182.79882 218.52148 z M 205.31054 236.63672 C 212.12018 236.56782 218.91947 237.03472 225.76366 237.46289 C 257.28878 245.2175 269.48108 260.81751 283.80859 276.37305 L 134.98827 276.37305 C 149.31564 260.81762 161.50634 245.21745 193.03124 237.46289 C 197.13653 236.91302 201.22475 236.67806 205.31054 236.63672 z M 87.941398 316.19727 L 87.941398 364.19727 L 156.4414 364.19727 L 156.4414 346.19727 L 105.9414 346.19727 L 105.9414 316.19727 L 87.941398 316.19727 z M 186.1914 346.19727 L 186.1914 364.19727 L 215.9414 364.19727 L 215.9414 346.19727 L 186.1914 346.19727 z M 234.4414 346.19727 L 234.4414 364.19727 L 326.9414 364.19727 L 326.9414 346.19727 L 234.4414 346.19727 z "
     inkscape:label="path2" /></g></svg>
