<?xml version="1.0" encoding="UTF-8" standalone="no"?>
<!-- Generator: Adobe Illustrator 28.1.0, SVG Export Plug-In . SVG Version: 6.00 Build 0)  -->

<svg
   version="1.1"
   id="Слой_1"
   x="0px"
   y="0px"
   viewBox="0 0 512 512"
   style="enable-background:new 0 0 512 512;"
   xml:space="preserve"
   sodipodi:docname="armor-blueprint.svg"
   inkscape:version="1.4 (86a8ad7, 2024-10-11)"
   xmlns:inkscape="http://www.inkscape.org/namespaces/inkscape"
   xmlns:sodipodi="http://sodipodi.sourceforge.net/DTD/sodipodi-0.dtd"
   xmlns="http://www.w3.org/2000/svg"
   xmlns:svg="http://www.w3.org/2000/svg"><defs
   id="defs7">
		
	
		
	
		
	
		
		
	
		
	
		
		
		
	</defs>
<style
   type="text/css"
   id="style1">
	.st0{fill:#FFFFFF;}
</style>
<sodipodi:namedview
   bordercolor="#000000"
   borderopacity="0.25"
   id="namedview2"
   inkscape:current-layer="g16"
   inkscape:cx="278.60007"
   inkscape:cy="250.66936"
   inkscape:deskcolor="#d1d1d1"
   inkscape:pagecheckerboard="true"
   inkscape:pageopacity="0.0"
   inkscape:showpageshadow="2"
   inkscape:window-height="1001"
   inkscape:window-maximized="1"
   inkscape:window-width="1920"
   inkscape:window-x="-9"
   inkscape:window-y="-9"
   inkscape:zoom="1.4142136"
   pagecolor="#585858">
	</sodipodi:namedview>
<g
   id="g16">
	<path
   id="path47"
   class="st0"
   d="M418.7,88.6c-29.6,0-54.3,21.8-58.8,50.2h-326v284.5h334.6h50.2c32.8,0,59.6-26.8,59.6-59.6V148.2   C478.2,115.4,451.4,88.6,418.7,88.6L418.7,88.6z M52.5,157.5h306.6v206.2h9.3h9.3c0-1.4,0.1-2.8,0.2-4.2   c2.1-20.7,19.4-36.7,40.7-36.7c22.7,0,40.9,18.2,40.9,40.9c0,22.7-18.2,40.9-40.9,40.9h-50.2H52.5L52.5,157.5z" />
	<path
   class="st0"
   d="m 241.8,192 v 16.2 c -19.9,9.1 -40.5,9.6 -60.3,0.2 v -15.6 c 19,10.4 41.1,7.8 60.3,-0.8 z"
   id="path1" />
	<path
   id="path15"
   class="st0"
   d="M114.7,267.1v18h18.7v-18H114.7z" />
	<path
   id="path10"
   class="st0"
   d="M71.4,256.3v28.8h22.8v-18h-4.8v-10.8H71.4z" />
	<path
   id="path14"
   class="st0"
   d="M320.9,365.2v19.4h18v-19.4H320.9z" />
	<path
   id="path13"
   class="st0"
   d="M310.8,289v18h10.1v40.1h18V289H310.8z" />
	<path
   id="path11"
   class="st0"
   d="M278.6,289v18h13.8v-18H278.6z" />
	<path
   id="path12"
   class="st0"
   d="M71.5,335.7v18h44.2v-18H71.5z" />
	<path
   id="path16"
   class="st0"
   d="M320.9,173.2v19.4h18v-19.4H320.9z" />
	<path
   class="st0"
   d="m 287.7,349.8 c -12.5,12 -26.1,18.7 -42,20.2 -3.3,-13.1 -9.4,-27.3 -18.2,-37.7 12.1,-4.3 23.7,-11.6 33.3,-21 11.1,11.1 19.3,24.9 26.9,38.5 z"
   id="path2" />
	<path
   class="st0"
   d="m 195.4,332.7 c -2.2,2.9 -4.3,6 -6.3,9.1 -5.3,7.1 -8.9,19.7 -11.4,28 -15.9,-1.5 -29.6,-8.2 -42,-20.2 7.4,-13.6 15.3,-27.3 26.5,-38.1 6.3,5.8 18.9,16 33.2,21.2 z"
   id="path3" />
	<path
   class="st0"
   d="m 269.8,256.3 c 0,31 -29.5,59.4 -58.9,63.7 -32.6,-6 -62.8,-37.4 -58,-71.1 14.4,-5.4 23.2,-12.1 32.3,-21.9 16.4,6 34.6,5.9 51.1,0.3 l -0.1,0.4 c 11,6.9 20.5,16.7 33,20.9 0.4,2.5 0.6,5.1 0.6,7.7 z"
   id="path4" />
	<path
   class="st0"
   d="m 168.5,221.1 c -15.2,15 -40,19.3 -60.9,15.5 -2,-32.8 29.5,-42.8 55.8,-41.4 0.3,8.1 2.6,15.9 4.2,23.8 0.1,0.1 0.2,0.2 0.3,0.2 0.1,0.6 0.3,1.2 0.6,1.9 z"
   id="path5" />
	<path
   class="st0"
   d="m 316.2,236.6 c -21.4,4.4 -44.9,-0.1 -60.9,-15.5 0.1,-0.3 0.2,-0.7 0.3,-1 h 0.1 c 2.5,-8.1 4.2,-16.4 4.8,-24.9 19.2,-1.1 32.3,2.3 48.7,13.4 5.8,6.3 7.2,15.7 7,28 z"
   id="path7" />
</g>
</svg>
