<?xml version="1.0" encoding="UTF-8" standalone="no"?>
<!-- Generator: Adobe Illustrator 28.4.1, SVG Export Plug-In . SVG Version: 6.00 Build 0)  -->

<svg
   version="1.1"
   id="Слой_1"
   x="0px"
   y="0px"
   viewBox="0 0 512 512"
   style="enable-background:new 0 0 512 512;"
   xml:space="preserve"
   sodipodi:docname="blueprint.svg"
   inkscape:version="1.4 (86a8ad7, 2024-10-11)"
   xmlns:inkscape="http://www.inkscape.org/namespaces/inkscape"
   xmlns:sodipodi="http://sodipodi.sourceforge.net/DTD/sodipodi-0.dtd"
   xmlns="http://www.w3.org/2000/svg"
   xmlns:svg="http://www.w3.org/2000/svg"><defs
   id="defs2" /><sodipodi:namedview
   id="namedview2"
   pagecolor="#585858"
   bordercolor="#000000"
   borderopacity="0.25"
   inkscape:showpageshadow="2"
   inkscape:pageopacity="0.0"
   inkscape:pagecheckerboard="true"
   inkscape:deskcolor="#d1d1d1"
   inkscape:zoom="0.70710678"
   inkscape:cx="63.63961"
   inkscape:cy="246.78027"
   inkscape:window-width="1920"
   inkscape:window-height="1001"
   inkscape:window-x="-9"
   inkscape:window-y="-9"
   inkscape:window-maximized="1"
   inkscape:current-layer="Слой_1" />
<style
   type="text/css"
   id="style1">
	.st0{fill:#FFFFFF;}
</style>



<path
   d="M 0,0 H 512 V 512 H 0 Z"
   fill="#000000"
   fill-opacity="1"
   id="path1"
   style="enable-background:new 0 0 512 512" /><g
   id="g26"
   transform="translate(4.558602,15.302734)"><path
     id="path47"
     style="fill:#ffffff;fill-opacity:1"
     d="M 414.05663 73.345703 C 384.44274 73.34518 359.7348 95.192686 355.22655 123.58008 L 29.257804 123.58008 L 29.257804 408.04883 L 363.8203 408.04883 L 414.05663 408.04883 C 446.84494 408.04814 473.62557 381.26682 473.62499 348.47852 L 473.62499 132.91406 C 473.62429 100.12666 446.84405 73.346401 414.05663 73.345703 z M 47.925773 142.24805 L 354.48632 142.24805 L 354.48632 348.47852 L 363.8203 348.47852 L 373.15429 348.47852 C 373.15432 347.05976 373.22639 345.65956 373.36523 344.2793 C 375.44845 323.5754 392.77531 307.57776 414.05663 307.57813 C 436.7561 307.57862 454.95654 325.77904 454.95702 348.47852 C 454.95743 371.17861 436.75672 389.38038 414.05663 389.38086 L 363.8203 389.38086 L 47.925773 389.38086 L 47.925773 142.24805 z M 75.349601 183.25391 L 75.349601 201.92188 L 311.99999 201.92188 L 311.99999 348.47852 L 330.66601 348.47852 L 330.66601 183.25391 L 75.349601 183.25391 z M 162.66796 220.58789 L 162.66796 239.25391 L 181.33398 239.25391 L 181.33398 220.58789 L 162.66796 220.58789 z M 75.349601 237.63281 L 75.349601 348.47852 L 240.12304 348.47852 L 240.12304 329.8125 L 94.01757 329.8125 L 94.01757 237.63281 L 75.349601 237.63281 z M 162.66796 257.92188 L 162.66796 258.00977 L 162.66796 276.58789 L 162.66796 276.67773 L 181.33398 276.67773 L 181.33398 276.58789 L 181.33398 258.00977 L 181.33398 257.92188 L 162.66796 257.92188 z M 199.99999 258.00977 L 199.99999 276.67773 L 218.66796 276.67773 L 218.66796 258.00977 L 199.99999 258.00977 z M 237.33398 258.00977 L 237.33398 276.67773 L 255.99999 276.67773 L 255.99999 258.00977 L 237.33398 258.00977 z M 274.66796 258.00977 L 274.66796 276.67773 L 293.33398 276.67773 L 293.33398 258.00977 L 274.66796 258.00977 z " /></g></svg>
