<?xml version="1.0" encoding="UTF-8" standalone="no"?>
<!-- Generator: Adobe Illustrator 28.4.1, SVG Export Plug-In . SVG Version: 6.00 Build 0)  -->

<svg
   version="1.1"
   id="Слой_1"
   x="0px"
   y="0px"
   viewBox="0 0 512 512"
   style="enable-background:new 0 0 512 512;"
   xml:space="preserve"
   sodipodi:docname="building-blueprint.svg"
   inkscape:version="1.4 (86a8ad7, 2024-10-11)"
   xmlns:inkscape="http://www.inkscape.org/namespaces/inkscape"
   xmlns:sodipodi="http://sodipodi.sourceforge.net/DTD/sodipodi-0.dtd"
   xmlns="http://www.w3.org/2000/svg"
   xmlns:svg="http://www.w3.org/2000/svg"><defs
   id="defs2" /><sodipodi:namedview
   id="namedview2"
   pagecolor="#585858"
   bordercolor="#000000"
   borderopacity="0.25"
   inkscape:showpageshadow="2"
   inkscape:pageopacity="0.0"
   inkscape:pagecheckerboard="true"
   inkscape:deskcolor="#d1d1d1"
   inkscape:zoom="0.3535534"
   inkscape:cx="429.92091"
   inkscape:cy="335.16861"
   inkscape:window-width="1920"
   inkscape:window-height="1001"
   inkscape:window-x="-9"
   inkscape:window-y="-9"
   inkscape:window-maximized="1"
   inkscape:current-layer="Слой_1" />
<style
   type="text/css"
   id="style1">
	.st0{fill:#FFFFFF;}
</style>



<path
   d="M -4.558602,-15.302734 H 507.4414 V 496.69727 H -4.558602 Z"
   fill="#000000"
   fill-opacity="1"
   id="path1-0"
   style="enable-background:new 0 0 512 512"
   transform="translate(4.558602,15.302734)"
   inkscape:label="path1" /><g
   id="g26"
   transform="translate(4.558602,15.302734)"
   inkscape:label="g2"><path
     id="path47"
     style="fill:#ffffff;fill-opacity:1"
     d="M 414.05663 73.345703 C 384.44274 73.34518 359.7348 95.192686 355.22655 123.58008 L 29.257804 123.58008 L 29.257804 408.04883 L 363.8203 408.04883 L 414.05663 408.04883 C 446.84494 408.04814 473.62557 381.26682 473.62499 348.47852 L 473.62499 132.91406 C 473.62429 100.12666 446.84405 73.346401 414.05663 73.345703 z M 47.925773 142.24805 L 354.48632 142.24805 L 354.48632 348.47852 L 363.8203 348.47852 L 373.15429 348.47852 C 373.15432 347.05976 373.22639 345.65956 373.36523 344.2793 C 375.44845 323.5754 392.77531 307.57776 414.05663 307.57813 C 436.7561 307.57862 454.95654 325.77904 454.95702 348.47852 C 454.95743 371.17861 436.75672 389.38038 414.05663 389.38086 L 363.8203 389.38086 L 47.925773 389.38086 L 47.925773 142.24805 z M 73.441398 170.69727 L 73.441398 188.69727 L 159.9414 188.69727 L 159.9414 170.69727 L 73.441398 170.69727 z M 241.9414 170.69727 L 241.9414 188.69727 L 329.4414 188.69727 L 329.4414 170.69727 L 241.9414 170.69727 z M 204.0371 176.64063 L 95.119132 266.86133 L 132.97069 266.86133 L 132.97069 369.68555 L 275.10546 369.68555 L 275.10546 266.86133 L 312.95702 266.86133 L 204.0371 176.64063 z M 204.03905 200.01367 L 263.00976 248.86133 L 145.0664 248.86133 L 204.03905 200.01367 z M 150.97069 266.86133 L 257.10546 266.86133 L 257.10546 351.68555 L 150.97069 351.68555 L 150.97069 266.86133 z M 64.970695 281.68555 L 64.970695 310.18555 L 82.970695 310.18555 L 82.970695 281.68555 L 64.970695 281.68555 z M 64.970695 335.68555 L 64.970695 369.68555 L 112.47069 369.68555 L 112.47069 351.68555 L 82.970695 351.68555 L 82.970695 335.68555 L 64.970695 335.68555 z "
     inkscape:label="path4" /></g></svg>
