<?xml version="1.0" encoding="UTF-8" standalone="no"?>
<!-- Generator: Adobe Illustrator 28.1.0, SVG Export Plug-In . SVG Version: 6.00 Build 0)  -->

<svg
   version="1.1"
   id="svg1"
   x="0px"
   y="0px"
   viewBox="0 0 512 512"
   style="enable-background:new 0 0 512 512;"
   xml:space="preserve"
   sodipodi:docname="d00.svg"
   inkscape:version="1.4 (86a8ad7, 2024-10-11)"
   xmlns:inkscape="http://www.inkscape.org/namespaces/inkscape"
   xmlns:sodipodi="http://sodipodi.sourceforge.net/DTD/sodipodi-0.dtd"
   xmlns="http://www.w3.org/2000/svg"
   xmlns:svg="http://www.w3.org/2000/svg"><defs
   id="defs10" />
<style
   type="text/css"
   id="style1">
	.st0{fill:#FFFFFF;}
</style>
<sodipodi:namedview
   bordercolor="#000000"
   borderopacity="0.25"
   id="namedview1"
   inkscape:current-layer="g19"
   inkscape:cx="290.37073"
   inkscape:cy="113.74395"
   inkscape:deskcolor="#d1d1d1"
   inkscape:pagecheckerboard="true"
   inkscape:pageopacity="0.0"
   inkscape:showpageshadow="2"
   inkscape:window-height="1001"
   inkscape:window-maximized="1"
   inkscape:window-width="1920"
   inkscape:window-x="-9"
   inkscape:window-y="-9"
   inkscape:zoom="0.5406881"
   pagecolor="#cdcdcd">
	</sodipodi:namedview>
<g
   id="g19"
   inkscape:label="g1">
	<path
   id="path3"
   class="st0"
   d="M484.8,248.6l-91.6-22.9l-6.1-10.7L285,35.4l74.1,79.1c-0.6,0.6-1,1.2-1.5,1.8   c-1.3,1.9-2.3,4.1-2.9,6.5s-1,4.9-1.3,7.6l10.3,8.6c0.5-3.5,1.2-6.3,2.1-8.5s2.2-3.7,3.9-4.5h0.1l11.9,12.7   c0.2,0.8,0.4,1.6,0.6,2.4c0.5,2.6,0.7,5.6,0.7,9.1c0,3.4-0.1,7.8-0.3,13.1l-1.2,25.8l5.7,11.9l30.7-14.6l-6.8-14.4l-19.1,9.1   l-0.4-0.8l1-12.5c0.5-5.6,0.8-10.7,0.9-15.2c0-0.5,0-1.1,0-1.6L484.8,248.6z" />
	<path
   id="path4"
   class="st0"
   d="M105.4,177.3c2-4.9,5.9-11.6,11.5-20.2c5.6-8.6,10.2-14.8,13.8-18.6c3.6-3.8,6.5-5,8.7-3.6   c2.1,1.4,2.2,4.5,0.2,9.4s-5.8,11.6-11.4,20.2c-5.6,8.6-10.3,14.8-13.9,18.5s-6.5,4.9-8.6,3.5C103.5,185.2,103.4,182.1,105.4,177.3   z" />
	<path
   id="path5"
   class="st0"
   d="M227,35.4L124.9,215l-5.7,10.1l-92,23.8l67.9-72.6c-0.8,2.1-1.5,4.1-2,6c-2.2,8.3-0.8,14,4.1,17.2   c3.5,2.3,7.3,2.5,11.4,0.8s8.5-5.2,13.2-10.3s9.7-11.7,15-19.8c8-12.2,13-22.5,15.2-30.8s0.8-14.1-4.1-17.2   c-0.4-0.3-0.9-0.5-1.3-0.7L227,35.4z" />
	<path
   id="path6"
   class="st0"
   d="M129.2,356.8c0.6,2.8,1.2,5.4,1.6,7.8L109.2,342c-0.1-1.6-0.2-3.1-0.1-4.4c0.1-5.3,1.8-8.3,4.9-9   c3.2-0.7,6,1.3,8.3,6C124.7,339.4,127,346.8,129.2,356.8z" />
	<path
   id="path7"
   class="st0"
   d="M136.5,251.2l-14.9-6.9l-84.7,21.8L97,329.2c0.5-2.8,1.4-5.2,2.5-7.3c2.2-4.3,6-7,11.2-8.2   c7.3-1.6,13.5,1.1,18.7,8.3c5.2,7.2,9.4,17.9,12.5,32c2.1,9.5,3.3,17.8,3.4,24.8c0,0.4,0,0.8,0,1.2l101.2,106V302.4L136.5,251.2z    M178.8,391.7l-10.5,2.4l-19.7-87.6l12.8-2.9l11.4,50.7c0.5,2.1,1.1,4.9,1.8,8.4s1.3,6.5,1.8,9.1c0.2-0.5,0.6-1.6,1.3-3.1   c0.6-1.4,1.2-2.7,1.8-3.9l5.1-9.7l8.7,9.8L178.8,391.7z" />
	<path
   id="path8"
   class="st0"
   d="M350.8,328.3c-0.1,5.3-1.3,13-3.7,22.9c-2.4,9.9-4.9,17.3-7.2,22c-2.4,4.8-5.2,6.8-8.4,6   c-3.2-0.8-4.7-3.8-4.7-9.2c0-5.3,1.2-13,3.6-22.9c2.4-10,4.9-17.4,7.3-22c2.4-4.7,5.2-6.6,8.4-5.9C349.3,320,350.9,323,350.8,328.3   z" />
	<path
   id="path9"
   class="st0"
   d="M406.3,335.7c-2.7-1.8-5.3-3-7.9-3.6c-3.8-0.9-6.9-0.5-9.4,1.2c-2.6,1.8-4.4,5-5.6,9.8   c-1.8,7.4,0,12.3,5.3,14.9l19.8-20.6C407.9,336.8,407.1,336.3,406.3,335.7z M477,266.3l-87-21.8l-14.5,6.7l-110,51.1l0.2,183.4   L377,370.2c-1.2-0.8-2.3-1.8-3.2-2.9c-2.4-2.7-3.9-6.2-4.6-10.6c-0.7-4.3-0.4-9.4,1-15.2c2.3-9.4,6.1-16.4,11.5-20.9   c5.4-4.4,12-5.6,20-3.7c3.1,0.8,6,1.9,8.6,3.4s4.7,3.3,6.4,5.3l-1,4.3L477,266.3z M359.8,354.3c-2.3,9.4-4.9,17.3-7.9,23.7   c-3,6.4-6.4,11-10.4,13.8s-8.5,3.6-13.6,2.4c-7.2-1.8-11.5-7-13-15.7s-0.5-20.2,2.9-34.4c2.3-9.4,5-17.2,8-23.6   c3-6.3,6.5-10.9,10.4-13.8s8.5-3.7,13.6-2.4c7.3,1.8,11.6,7,13.1,15.7C364.2,328.9,363.2,340.3,359.8,354.3z" />
	
	<path
   class="st0"
   d="M 256,26 137.5,231 256,286 374.6,231 Z m -5.9,174.9 c -1.5,6.9 -4.1,12.2 -7.6,15.8 -3.5,3.7 -8.2,5.5 -14.1,5.5 -8.3,0 -14.4,-4.1 -18.2,-12.2 -3.9,-8.2 -5.8,-19.5 -5.8,-34 0,-9.7 0.8,-18 2.3,-24.9 1.5,-6.9 4.1,-12.2 7.6,-15.9 3.5,-3.7 8.2,-5.5 14.1,-5.5 8.2,0 14.3,4.1 18.2,12.2 3.9,8.1 5.9,19.5 5.9,34.1 0,9.7 -0.8,18 -2.4,24.9 z m 47.5,15.8 c -3.5,3.7 -8.2,5.5 -14.1,5.5 -8.3,0 -14.4,-4.1 -18.2,-12.2 -3.9,-8.2 -5.8,-19.5 -5.8,-34 0,-9.7 0.8,-18 2.3,-24.9 1.5,-6.9 4.1,-12.2 7.6,-15.9 3.5,-3.7 8.2,-5.5 14.1,-5.5 8.2,0 14.3,4.1 18.2,12.2 3.9,8.1 5.9,19.5 5.9,34.1 0,9.6 -0.8,17.9 -2.4,24.8 -1.5,6.9 -4,12.2 -7.6,15.9 z"
   id="path1"
   style="display:inline" />
	<path
   class="st0"
   d="M293.1,176.1c0,10.3-0.7,18-2.1,23.1c-1.2,4.5-3.3,7-6.2,7.6c-0.2,0-0.4,0.1-0.6,0.1c-0.2,0-0.4,0-0.6,0   c-0.2,0-0.4,0-0.7,0s-0.4,0-0.6-0.1c-3-0.6-5.1-3.1-6.2-7.6c-1.3-5.2-2-12.9-2-23.1c0-10.2,0.6-17.9,2-23.1   c1.1-4.6,3.2-7.1,6.2-7.7c0.2,0,0.4-0.1,0.6-0.1c0.2,0,0.5,0,0.7,0c0.2,0,0.4,0,0.6,0c0.4,0,0.8,0.1,1.2,0.2   c2.7,0.8,4.5,3.3,5.6,7.5C292.4,158.2,293.1,165.9,293.1,176.1z"
   id="path2" />
	<path
   class="st0"
   d="M238,176.1c0,10.3-0.7,18-2.1,23.1c-1.4,5.1-3.9,7.7-7.5,7.7c-3.7,0-6.2-2.6-7.5-7.7c-1.3-5.2-2-12.9-2-23.1   c0-10.2,0.6-17.9,2-23.1c1.3-5.2,3.8-7.8,7.5-7.8c3.6,0,6.1,2.6,7.5,7.8C237.3,158.2,238,165.9,238,176.1z"
   id="path10" />
</g>
</svg>
