<?xml version="1.0" encoding="UTF-8" standalone="no"?>
<!-- Generator: Adobe Illustrator 28.1.0, SVG Export Plug-In . SVG Version: 6.00 Build 0)  -->

<svg
   version="1.1"
   id="svg1"
   x="0px"
   y="0px"
   viewBox="0 0 512 512"
   style="enable-background:new 0 0 512 512;"
   xml:space="preserve"
   sodipodi:docname="d00.svg"
   inkscape:version="1.4 (86a8ad7, 2024-10-11)"
   xmlns:inkscape="http://www.inkscape.org/namespaces/inkscape"
   xmlns:sodipodi="http://sodipodi.sourceforge.net/DTD/sodipodi-0.dtd"
   xmlns="http://www.w3.org/2000/svg"
   xmlns:svg="http://www.w3.org/2000/svg"><defs
   id="defs10" />
<style
   type="text/css"
   id="style1">
	.st0{fill:#FFFFFF;}
</style>
<sodipodi:namedview
   bordercolor="#000000"
   borderopacity="0.25"
   id="namedview1"
   inkscape:current-layer="svg1"
   inkscape:cx="290.37073"
   inkscape:cy="113.74395"
   inkscape:deskcolor="#d1d1d1"
   inkscape:pagecheckerboard="true"
   inkscape:pageopacity="0.0"
   inkscape:showpageshadow="2"
   inkscape:window-height="1001"
   inkscape:window-maximized="1"
   inkscape:window-width="1920"
   inkscape:window-x="-9"
   inkscape:window-y="-9"
   inkscape:zoom="0.5406881"
   pagecolor="#cdcdcd">
	</sodipodi:namedview>
<path
   d="M 0,0 H 512 V 512 H 0 Z"
   fill="#000000"
   fill-opacity="1"
   id="path1-5"
   inkscape:label="path1" /><g
   id="g19"
   inkscape:label="g1"
   style="enable-background:new 0 0 512 512">
	<path
   id="path3"
   class="st0"
   d="M 256 26 L 137.5 231 L 256 286 L 374.59961 231 L 256 26 z M 227 35.400391 L 146.59961 121.5 C 146.99961 121.7 147.50039 121.89922 147.90039 122.19922 C 152.80039 125.29922 154.2 131.10039 152 139.40039 C 149.8 147.70039 144.80078 157.99922 136.80078 170.19922 C 131.50078 178.29922 126.50078 184.9 121.80078 190 C 117.10078 195.1 112.69961 198.60078 108.59961 200.30078 C 104.49961 202.00078 100.69922 201.8 97.199219 199.5 C 92.299219 196.3 90.899609 190.60078 93.099609 182.30078 C 93.599609 180.40078 94.299609 178.40078 95.099609 176.30078 L 27.199219 248.90039 L 119.19922 225.09961 L 124.90039 215 L 227 35.400391 z M 285 35.400391 L 387.09961 215 L 393.19922 225.69922 L 484.80078 248.59961 L 393.5 151 L 393.5 152.59961 C 393.4 157.09961 393.09961 162.20078 392.59961 167.80078 L 391.59961 180.30078 L 392 181.09961 L 411.09961 172 L 417.90039 186.40039 L 387.19922 201 L 381.5 189.09961 L 382.69922 163.30078 C 382.89922 158.00078 383 153.59922 383 150.19922 C 383 146.69922 382.80078 143.69961 382.30078 141.09961 L 381.69922 138.69922 L 369.80078 126 L 369.69922 126 C 367.99922 126.8 366.70078 128.3 365.80078 130.5 C 364.90078 132.7 364.19922 135.5 363.69922 139 L 353.40039 130.40039 C 353.70039 127.70039 354.09922 125.20078 354.69922 122.80078 C 355.29922 120.40078 356.29961 118.20078 357.59961 116.30078 C 358.09961 115.70078 358.49961 115.1 359.09961 114.5 L 285 35.400391 z M 228.40039 129.69922 C 236.60039 129.69922 242.69961 133.80039 246.59961 141.90039 C 250.49961 150.00039 252.5 161.4 252.5 176 C 252.5 185.7 251.69961 194.00039 250.09961 200.90039 C 248.59961 207.80039 246 213.09922 242.5 216.69922 C 239 220.39922 234.30039 222.19922 228.40039 222.19922 C 220.10039 222.19922 213.99922 218.1 210.19922 210 C 206.29922 201.8 204.40039 190.5 204.40039 176 C 204.40039 166.3 205.19922 157.99961 206.69922 151.09961 C 208.19922 144.19961 210.80078 138.89922 214.30078 135.19922 C 217.80078 131.49922 222.50039 129.69922 228.40039 129.69922 z M 283.5 129.69922 C 291.7 129.69922 297.79922 133.80039 301.69922 141.90039 C 305.59922 150.00039 307.59961 161.4 307.59961 176 C 307.59961 185.6 306.79922 193.90078 305.19922 200.80078 C 303.69922 207.70078 301.19961 212.99922 297.59961 216.69922 C 294.09961 220.39922 289.4 222.19922 283.5 222.19922 C 275.2 222.19922 269.10078 218.1 265.30078 210 C 261.40078 201.8 259.5 190.5 259.5 176 C 259.5 166.3 260.30078 157.99961 261.80078 151.09961 C 263.30078 144.19961 265.90039 138.89922 269.40039 135.19922 C 272.90039 131.49922 277.6 129.69922 283.5 129.69922 z M 137.61914 134.33789 C 135.70664 134.26289 133.39922 135.65 130.69922 138.5 C 127.09922 142.3 122.50039 148.49961 116.90039 157.09961 C 111.30039 165.69961 107.40039 172.40078 105.40039 177.30078 C 103.40039 182.10078 103.49922 185.2 105.69922 186.5 C 107.79922 187.9 110.70078 186.7 114.30078 183 C 117.90078 179.3 122.59922 173.1 128.19922 164.5 C 133.79922 155.9 137.59961 149.20078 139.59961 144.30078 C 141.59961 139.40078 141.50039 136.30039 139.40039 134.90039 C 138.85039 134.55039 138.25664 134.36289 137.61914 134.33789 z M 228.40039 145.19922 C 224.70039 145.19922 222.20039 147.8 220.90039 153 C 219.50039 158.2 218.90039 165.89961 218.90039 176.09961 C 218.90039 186.29961 219.60039 193.99922 220.90039 199.19922 C 222.20039 204.29922 224.70039 206.90039 228.40039 206.90039 C 232.00039 206.90039 234.50039 204.29922 235.90039 199.19922 C 237.30039 194.09922 238 186.39961 238 176.09961 C 238 165.89961 237.30039 158.2 235.90039 153 C 234.50039 147.8 232.00039 145.19922 228.40039 145.19922 z M 282.90039 145.19922 C 282.70039 145.19922 282.50078 145.30078 282.30078 145.30078 C 279.30078 145.90078 277.19961 148.4 276.09961 153 C 274.69961 158.2 274.09961 165.89961 274.09961 176.09961 C 274.09961 186.29961 274.79961 193.99922 276.09961 199.19922 C 277.19961 203.69922 279.30078 206.20078 282.30078 206.80078 C 282.50078 206.90078 282.60039 206.90039 282.90039 206.90039 L 283.59961 206.90039 L 284.19922 206.90039 C 284.39922 206.90039 284.60078 206.80078 284.80078 206.80078 C 287.70078 206.20078 289.8 203.69922 291 199.19922 C 292.4 194.09922 293.09961 186.39961 293.09961 176.09961 C 293.09961 165.89961 292.4 158.20039 291 152.90039 C 289.9 148.70039 288.10039 146.20039 285.40039 145.40039 C 285.00039 145.30039 284.59922 145.19922 284.19922 145.19922 L 283.59961 145.19922 L 282.90039 145.19922 z M 121.59961 244.30078 L 36.900391 266.09961 L 97 329.19922 C 97.5 326.39922 98.4 324.00039 99.5 321.90039 C 101.7 317.60039 105.49922 314.89922 110.69922 313.69922 C 117.99922 312.09922 124.20039 314.8 129.40039 322 C 134.60039 329.2 138.80039 339.9 141.90039 354 C 144.00039 363.5 145.20078 371.80078 145.30078 378.80078 L 145.30078 380 L 246.5 486 L 246.5 302.40039 L 136.5 251.19922 L 121.59961 244.30078 z M 390 244.5 L 375.5 251.19922 L 265.5 302.30078 L 265.69922 485.69922 L 377 370.19922 C 375.8 369.39922 374.70078 368.40078 373.80078 367.30078 C 371.40078 364.60078 369.89922 361.09922 369.19922 356.69922 C 368.49922 352.39922 368.79922 347.3 370.19922 341.5 C 372.49922 332.1 376.29922 325.09961 381.69922 320.59961 C 387.09922 316.19961 393.69922 315.00039 401.69922 316.90039 C 404.79922 317.70039 407.70078 318.80078 410.30078 320.30078 C 412.90078 321.80078 414.99922 323.59961 416.69922 325.59961 L 415.69922 329.90039 L 477 266.30078 L 390 244.5 z M 161.40039 303.59961 L 172.80078 354.30078 C 173.30078 356.40078 173.89961 359.19922 174.59961 362.69922 C 175.29961 366.19922 175.90039 369.20078 176.40039 371.80078 C 176.60039 371.30078 176.99922 370.19922 177.69922 368.69922 C 178.29922 367.29922 178.9 366.00078 179.5 364.80078 L 184.59961 355.09961 L 193.30078 364.90039 L 178.80078 391.69922 L 168.30078 394.09961 L 148.59961 306.5 L 161.40039 303.59961 z M 346.07227 303.71875 C 347.28164 303.78125 348.52578 303.97578 349.80078 304.30078 C 357.10078 306.10078 361.40039 311.3 362.90039 320 C 364.20039 328.9 363.20078 340.30078 359.80078 354.30078 C 357.50078 363.70078 354.90039 371.6 351.90039 378 C 348.90039 384.4 345.5 389.00078 341.5 391.80078 C 337.5 394.60078 333.00039 395.39922 327.90039 394.19922 C 320.70039 392.39922 316.40039 387.2 314.90039 378.5 C 313.40039 369.8 314.40078 358.29961 317.80078 344.09961 C 320.10078 334.69961 322.80078 326.9 325.80078 320.5 C 328.80078 314.2 332.29922 309.59922 336.19922 306.69922 C 339.12422 304.52422 342.44414 303.53125 346.07227 303.71875 z M 344.91797 319.06055 C 342.20547 319.01953 339.79922 320.98711 337.69922 325.09961 C 335.29922 329.69961 332.80039 337.09961 330.40039 347.09961 C 328.00039 356.99961 326.80078 364.7 326.80078 370 C 326.80078 375.4 328.3 378.39922 331.5 379.19922 C 334.7 379.99922 337.50039 377.99922 339.90039 373.19922 C 342.20039 368.49922 344.69961 361.09922 347.09961 351.19922 C 349.49961 341.29922 350.70078 333.60078 350.80078 328.30078 C 350.90078 323.00078 349.29961 319.99922 346.09961 319.19922 C 345.69961 319.11172 345.30547 319.06641 344.91797 319.06055 z M 115.18164 328.46484 C 114.79434 328.46797 114.4 328.51211 114 328.59961 C 110.9 329.29961 109.19961 332.29961 109.09961 337.59961 C 108.99961 338.89961 109.09922 340.4 109.19922 342 L 130.80078 364.59961 C 130.40078 362.19961 129.79922 359.60078 129.19922 356.80078 C 126.99922 346.80078 124.70078 339.39961 122.30078 334.59961 C 120.28828 330.48711 117.89277 328.44297 115.18164 328.46484 z M 395.67969 331.66797 C 393.0875 331.48047 390.875 332.02578 389 333.30078 C 386.4 335.10078 384.60039 338.29961 383.40039 343.09961 C 381.60039 350.49961 383.39922 355.4 388.69922 358 L 408.5 337.40039 C 407.9 336.80039 407.10078 336.29922 406.30078 335.69922 C 403.60078 333.89922 401.00039 332.69961 398.40039 332.09961 C 397.45039 331.87461 396.54375 331.73047 395.67969 331.66797 z " />
	
	
	
	
	
	
	
	
	
	
</g>
</svg>
