<?xml version="1.0" encoding="UTF-8" standalone="no"?>
<!-- Generator: Adobe Illustrator 28.1.0, SVG Export Plug-In . SVG Version: 6.00 Build 0)  -->

<svg
   version="1.1"
   id="Слой_1"
   x="0px"
   y="0px"
   viewBox="0 0 512 512"
   style="enable-background:new 0 0 512 512;"
   xml:space="preserve"
   sodipodi:docname="encumbered.svg"
   inkscape:version="1.4 (86a8ad7, 2024-10-11)"
   xmlns:inkscape="http://www.inkscape.org/namespaces/inkscape"
   xmlns:sodipodi="http://sodipodi.sourceforge.net/DTD/sodipodi-0.dtd"
   xmlns="http://www.w3.org/2000/svg"
   xmlns:svg="http://www.w3.org/2000/svg"><defs
   id="defs9" /><sodipodi:namedview
   id="namedview9"
   pagecolor="#000000"
   bordercolor="#000000"
   borderopacity="0.25"
   inkscape:showpageshadow="2"
   inkscape:pageopacity="0.0"
   inkscape:pagecheckerboard="0"
   inkscape:deskcolor="#d1d1d1"
   inkscape:zoom="1.5292969"
   inkscape:cx="255.67305"
   inkscape:cy="256"
   inkscape:window-width="1920"
   inkscape:window-height="1001"
   inkscape:window-x="-9"
   inkscape:window-y="-9"
   inkscape:window-maximized="1"
   inkscape:current-layer="Слой_1" />
<style
   type="text/css"
   id="style1">
	.st0{fill:#FFFFFF;}
	.st1{fill:none;}
</style>



<g
   id="g9">
	
	
	<polygon
   class="st0"
   points="449.1,270.5 488.7,201.1 473.4,188.4 "
   id="polygon1"
   style="enable-background:new 0 0 512 512" /><polygon
   class="st0"
   points="416.3,181.4 427.8,246.9 431.4,166 "
   id="polygon2"
   style="enable-background:new 0 0 512 512" /><path
   class="st0"
   d="M457.8,316.2c-0.1,0.5-0.2,1-0.3,1.5c-0.1,0.4-0.3,0.9-0.4,1.4c-0.3,1-0.7,1.9-1.1,2.8    c-0.2,0.4-0.5,0.9-0.7,1.3c-0.2,0.3-0.3,0.5-0.4,0.7c-0.3,0.5-0.5,0.9-0.8,1.3c-0.7,1-1.5,2-2.3,3c-0.3,0.3-0.6,0.7-1,1.1    c-0.3,0.4-0.7,0.7-1.1,1.1s-0.8,0.8-1.2,1.1c-0.2,0.2-0.4,0.3-0.6,0.5c-0.4,0.3-0.9,0.7-1.3,1c-1.1,0.8-2.3,1.6-3.5,2.3    c-0.5,0.3-1,0.5-1.5,0.8c-0.6,0.3-1.1,0.6-1.6,0.8c-0.5,0.2-1.1,0.5-1.6,0.7c-1.1,0.4-2.3,0.9-3.4,1.3c-0.6,0.2-1.2,0.4-1.8,0.6    c-1.1,0.4-2.4,0.7-3.6,1c-0.6,0.1-1.3,0.3-1.9,0.4c-0.6,0.2-1.3,0.3-1.9,0.4c-0.7,0.1-1.4,0.2-2,0.3c-3.3,0.5-6.7,0.8-10.2,0.8    c-3.8,0-7.7-0.3-11.7-0.9l-2.1-6.6c1.1-3,1.6-6.2,1.6-9.4c0-6.4-2.2-12.4-5.8-17.2c-1.2-8.3-4-15.9-6.7-23.2    c-1.2-3.2-2.4-6.5-3.5-9.9v-0.1c5.1-1.2,10.5-1.9,16.2-1.9c4,0,8.1,0.3,12.2,1c15.3,2.6,28.9,9.7,36.9,19.3c0.3,0.4,0.5,0.7,0.8,1    l0.3,0.4C456.9,301.7,459,309.1,457.8,316.2z"
   id="path2"
   style="enable-background:new 0 0 512 512" /><path
   class="st0"
   d="M370.7,259c-3.8,9.4,2.4,28.7,5.7,38.3c-8.5-1.1-17.2,2-23,7.6c-18.9-41.6-24.3-57.4-72.6-50.4    c-20,2.3-40.2,8.2-57.5,18.4c-36.6,22.9-39.9,46.5-89.8,49.4c-141.4-13.4-66.5-187,6.1-243C186,40.6,250.7,27.2,309.1,42    c85.1,23.3,97.4,69.7,88.2,133.6C390.1,224.9,383.6,233.2,370.7,259z"
   id="path4"
   style="enable-background:new 0 0 512 512" /><path
   class="st0"
   d="M400.8,389.7c-0.1-0.3-0.2-0.7-0.2-1c0-0.1-0.1-0.2-0.1-0.4l-6.2-18.7l-9.7-30c0,0-0.1,0-0.1,0.1l-2-6.1   c1.9-2.2,3-5,3-8.1c0-4.1-2-7.8-5.1-10c-2-1.5-4.6-2.4-7.3-2.4c-4.4,0-8.2,2.3-10.4,5.7c-1.2,1.9-2,4.2-2,6.7   c0,5.2,3.2,9.6,7.7,11.5l6.4,19.4l-10.3-12.6c-0.8-1.4-1.5-3-1.9-4.7c-4-2.1-7.9-5.2-11.7-9.3c-7.9-8.6-13.2-20.1-18.3-31.2   c-5.5-11.9-11.7-25.4-18.8-28.2c-0.6-0.1-1.2-0.1-1.8-0.2c-4.2-0.4-8.5-0.6-12.8-0.6c-5.4,0-10.8,0.3-16.2,0.9   c-1.5,0.2-3,0.4-4.6,0.6c-0.8,0.1-1.5,0.2-2.3,0.3c-1.5,0.2-3,0.5-4.5,0.8c-0.7,0.1-1.5,0.3-2.2,0.4c-1.5,0.3-2.9,0.7-4.4,1   c-0.7,0.2-1.5,0.4-2.2,0.6c-2.2,0.6-4.3,1.2-6.4,1.8c-2.1,0.7-4.2,1.4-6.2,2.1c-1,0.4-2,0.8-3,1.1c-1,0.4-2,0.8-2.9,1.2   c-4.5,1.9-8.7,4-12.7,6.4c-12.8,7.9-24.9,15.5-29.4,26.4c-0.3,0.7-0.5,1.7-0.7,2.9c-1.2,6.9-0.5,19.8-0.5,19.8   c3.4,20.1,8.8,36.2-1.1,52.3L141.1,427l-20.5,10l35,38.6h15.7L154,443.3l72.9-38.6c14.7-8.6,16.1-23.7,19.3-41.1   c16.1,11.9,33.6,23.2,47.6,32.5c-6.4,27.7-38.5,52.8-58.5,79.3h77.8l-2.9-5.2c0,0-38.9-6.8-43.8-7.5c4-0.3,19.9-12.9,34.8-27.1   c15.3-14.7,29.5-31,28.7-37.4c-10.5-18-25.3-35.2-41.3-52.1c2.1-0.7,4.3-1.2,6.6-1.6c1.1-0.2,2.3-0.4,3.5-0.6   c1.4-0.2,2.8-0.3,4.2-0.4c1.2-0.1,2.5-0.2,3.9-0.2c1.3,0,2.7,0.1,4,0.2c0.4,0,0.8,0,1.2,0.1c0.5,0,1.1,0.1,1.6,0.1   c7.7,0.7,19.5,6.1,29.1,9.8l45.4,42.6c1.4,1.4,3,2.1,4.7,2.1c0.4,0,0.8,0,1.1-0.1c0.2,0,0.5-0.1,0.7-0.2s0.5-0.1,0.7-0.2   c0.7-0.3,1.4-0.6,2-1.1c0.2-0.1,0.4-0.3,0.6-0.5s0.4-0.3,0.5-0.5c0.2-0.2,0.3-0.4,0.5-0.6l0,0c0.2-0.2,0.3-0.4,0.5-0.6l0,0   c0.1-0.2,0.3-0.4,0.4-0.7c0.6-1.1,0.9-2.3,0.9-3.6V390h0.1C400.8,389.8,400.8,389.8,400.8,389.7z M244.4,280.6   c0.9-0.4,1.9-0.8,2.9-1.2c1-0.4,2-0.7,3-1.1L244.4,280.6z M266.5,463.2C266.5,463.2,266.6,463.2,266.5,463.2L266.5,463.2   L266.5,463.2z M312.7,270.4c0.2,0,0.5,0,0.7,0c0.1,0,0.2,0.1,0.2,0.1C313.3,270.5,313,270.4,312.7,270.4z"
   id="path9" />
</g>
</svg>
