<?xml version="1.0" encoding="UTF-8" standalone="no"?>
<!-- Generator: Adobe Illustrator 28.1.0, SVG Export Plug-In . SVG Version: 6.00 Build 0)  -->

<svg
   version="1.1"
   id="Слой_1"
   x="0px"
   y="0px"
   viewBox="0 0 512 512"
   style="enable-background:new 0 0 512 512;"
   xml:space="preserve"
   sodipodi:docname="encumbered.svg"
   inkscape:version="1.4 (86a8ad7, 2024-10-11)"
   xmlns:inkscape="http://www.inkscape.org/namespaces/inkscape"
   xmlns:sodipodi="http://sodipodi.sourceforge.net/DTD/sodipodi-0.dtd"
   xmlns="http://www.w3.org/2000/svg"
   xmlns:svg="http://www.w3.org/2000/svg"><defs
   id="defs9" /><sodipodi:namedview
   id="namedview9"
   pagecolor="#000000"
   bordercolor="#000000"
   borderopacity="0.25"
   inkscape:showpageshadow="2"
   inkscape:pageopacity="0.0"
   inkscape:pagecheckerboard="0"
   inkscape:deskcolor="#d1d1d1"
   inkscape:zoom="0.76464845"
   inkscape:cx="171.97445"
   inkscape:cy="166.74329"
   inkscape:window-width="1920"
   inkscape:window-height="1001"
   inkscape:window-x="-9"
   inkscape:window-y="-9"
   inkscape:window-maximized="1"
   inkscape:current-layer="Слой_1" />
<style
   type="text/css"
   id="style1">
	.st0{fill:#FFFFFF;}
	.st1{fill:none;}
</style>



<path
   d="M 0,0 H 512 V 512 H 0 Z"
   fill="#000000"
   fill-opacity="1"
   id="path1" /><g
   id="g9"
   style="enable-background:new 0 0 512 512">
	
	
	<path
   id="polygon1"
   style="enable-background:new 0 0 512 512"
   class="st0"
   d="M 264.50391 36.142578 C 219.49453 35.481641 174.39961 50.275781 139.59961 79.300781 C 66.999609 135.30078 -7.9 308.90078 133.5 322.30078 C 183.4 319.40078 186.70078 295.80039 223.30078 272.90039 C 240.60078 262.70039 260.80078 256.8 280.80078 254.5 C 329.10078 247.5 334.50039 263.30039 353.40039 304.90039 C 359.20039 299.30039 367.90039 296.20078 376.40039 297.30078 C 373.10039 287.70078 366.89922 268.4 370.69922 259 C 383.59922 233.2 390.10078 224.89961 397.30078 175.59961 C 406.50078 111.69961 394.19961 65.3 309.09961 42 C 294.49961 38.3 279.50703 36.362891 264.50391 36.142578 z M 431.40039 166 L 416.30078 181.40039 L 427.80078 246.90039 L 431.40039 166 z M 473.40039 188.40039 L 449.09961 270.5 L 488.69922 201.09961 L 473.40039 188.40039 z M 299.19922 269.59961 C 293.79922 269.59961 288.4 269.9 283 270.5 C 281.5 270.7 280.00039 270.89961 278.40039 271.09961 C 277.60039 271.19961 276.89961 271.30039 276.09961 271.40039 C 274.59961 271.60039 273.09961 271.89922 271.59961 272.19922 C 270.89961 272.29922 270.10039 272.49961 269.40039 272.59961 C 267.90039 272.89961 266.5 273.29961 265 273.59961 C 264.3 273.79961 263.50078 273.99922 262.80078 274.19922 C 260.60078 274.79922 258.50039 275.4 256.40039 276 C 254.30039 276.7 252.19922 277.39961 250.19922 278.09961 C 249.19922 278.49961 248.19922 278.89922 247.19922 279.19922 C 246.19922 279.59922 245.20078 280.00039 244.30078 280.40039 C 239.80078 282.30039 235.59961 284.40078 231.59961 286.80078 C 218.79961 294.70078 206.69922 302.29922 202.19922 313.19922 C 201.89922 313.89922 201.7 314.89961 201.5 316.09961 C 200.3 322.99961 201 335.90039 201 335.90039 C 204.4 356.00039 209.80039 372.09922 199.90039 388.19922 L 141.09961 427 L 120.59961 437 L 155.59961 475.59961 L 171.30078 475.59961 L 154 443.30078 L 226.90039 404.69922 C 241.60039 396.09922 242.99922 380.99961 246.19922 363.59961 C 262.29922 375.49961 279.80078 386.79961 293.80078 396.09961 C 287.40078 423.79961 255.30078 448.90039 235.30078 475.40039 L 313.09961 475.40039 L 310.19922 470.19922 C 310.19922 470.19922 271.30039 463.39922 266.40039 462.69922 C 270.40039 462.39922 286.29922 449.79961 301.19922 435.59961 C 316.49922 420.89961 330.70039 404.59922 329.90039 398.19922 C 319.40039 380.19922 304.59961 362.99961 288.59961 346.09961 C 290.69961 345.39961 292.89922 344.9 295.19922 344.5 C 296.29922 344.3 297.49922 344.10039 298.69922 343.90039 C 300.09922 343.70039 301.50039 343.6 302.90039 343.5 C 304.10039 343.4 305.40078 343.30078 306.80078 343.30078 C 308.10078 343.30078 309.50078 343.4 310.80078 343.5 C 311.20078 343.5 311.6 343.49961 312 343.59961 C 312.5 343.59961 313.09961 343.69922 313.59961 343.69922 C 321.29961 344.39922 333.09922 349.8 342.69922 353.5 L 388.09961 396.09961 C 389.49961 397.49961 391.10078 398.19922 392.80078 398.19922 C 393.20078 398.19922 393.60039 398.19961 393.90039 398.09961 C 394.10039 398.09961 394.39961 398.00039 394.59961 397.90039 C 394.79961 397.80039 395.10078 397.79922 395.30078 397.69922 C 396.00078 397.39922 396.70078 397.09961 397.30078 396.59961 C 397.50078 396.49961 397.70039 396.29961 397.90039 396.09961 C 398.10039 395.89961 398.30039 395.79961 398.40039 395.59961 C 398.60039 395.39961 398.70039 395.2 398.90039 395 C 399.10039 394.8 399.20039 394.60039 399.40039 394.40039 C 399.50039 394.20039 399.70078 393.99922 399.80078 393.69922 C 400.40078 392.59922 400.69922 391.39961 400.69922 390.09961 L 400.69922 390 L 400.80078 390 L 400.80078 389.69922 C 400.70078 389.39922 400.59961 388.99922 400.59961 388.69922 C 400.59961 388.59922 400.5 388.50078 400.5 388.30078 L 394.30078 369.59961 L 384.59961 339.59961 C 384.59961 339.59961 384.5 339.59922 384.5 339.69922 L 382.5 333.59961 C 384.4 331.39961 385.5 328.6 385.5 325.5 C 385.5 321.4 383.50039 317.7 380.40039 315.5 C 378.40039 314 375.79961 313.09961 373.09961 313.09961 C 368.69961 313.09961 364.89922 315.40078 362.69922 318.80078 C 361.49922 320.70078 360.69922 323 360.69922 325.5 C 360.69922 330.7 363.90039 335.1 368.40039 337 L 374.80078 356.40039 L 364.5 343.80078 C 363.7 342.40078 362.99961 340.79961 362.59961 339.09961 C 358.59961 336.99961 354.70039 333.90078 350.90039 329.80078 C 343.00039 321.20078 337.69961 309.69961 332.59961 298.59961 C 327.09961 286.69961 320.90078 273.20039 313.80078 270.40039 C 313.20078 270.30039 312.6 270.29922 312 270.19922 C 307.8 269.79922 303.49922 269.59961 299.19922 269.59961 z M 312.69922 270.40039 L 313.40039 270.40039 C 313.50039 270.40039 313.59961 270.5 313.59961 270.5 C 313.29961 270.5 312.99922 270.40039 312.69922 270.40039 z M 401.59961 273.19922 C 395.89961 273.19922 390.50039 273.89961 385.40039 275.09961 L 385.40039 275.19922 C 386.50039 278.59922 387.70039 281.89961 388.90039 285.09961 C 391.60039 292.39961 394.39961 300.00078 395.59961 308.30078 C 399.19961 313.10078 401.40039 319.1 401.40039 325.5 C 401.40039 328.7 400.90078 331.90039 399.80078 334.90039 L 401.90039 341.5 C 405.90039 342.1 409.79961 342.40039 413.59961 342.40039 C 417.09961 342.40039 420.50078 342.09961 423.80078 341.59961 C 424.40078 341.49961 425.10078 341.40078 425.80078 341.30078 C 426.40078 341.20078 427.09922 341.10039 427.69922 340.90039 C 428.29922 340.80039 428.99961 340.6 429.59961 340.5 C 430.79961 340.2 432.09922 339.9 433.19922 339.5 L 435 338.90039 C 436.1 338.50039 437.30039 337.99961 438.40039 337.59961 C 438.90039 337.39961 439.5 337.10039 440 336.90039 C 440.5 336.70039 440.99961 336.39961 441.59961 336.09961 C 442.09961 335.79961 442.59961 335.60078 443.09961 335.30078 C 444.29961 334.60078 445.49961 333.8 446.59961 333 C 446.99961 332.7 447.50039 332.3 447.90039 332 C 448.10039 331.8 448.3 331.7 448.5 331.5 C 448.9 331.2 449.29922 330.80039 449.69922 330.40039 C 450.09922 330.00039 450.50078 329.70078 450.80078 329.30078 C 451.20078 328.90078 451.50078 328.49922 451.80078 328.19922 C 452.60078 327.19922 453.39961 326.19922 454.09961 325.19922 C 454.39961 324.79922 454.60039 324.40039 454.90039 323.90039 C 455.00039 323.70039 455.10078 323.49922 455.30078 323.19922 C 455.50078 322.79922 455.8 322.30039 456 321.90039 C 456.4 321.00039 456.79961 320.09961 457.09961 319.09961 C 457.19961 318.59961 457.4 318.09922 457.5 317.69922 L 457.80078 316.19922 C 459.00078 309.09922 456.90078 301.70039 451.80078 294.90039 L 451.5 294.5 C 451.2 294.2 450.99922 293.9 450.69922 293.5 C 442.69922 283.9 429.10078 276.79922 413.80078 274.19922 C 409.70078 273.49922 405.59961 273.19922 401.59961 273.19922 z M 250.30078 278.30078 L 244.40039 280.59961 C 245.30039 280.19961 246.30078 279.80039 247.30078 279.40039 C 248.30078 279.00039 249.30078 278.70078 250.30078 278.30078 z "
   inkscape:label="path2" />
</g>
</svg>
