<?xml version="1.0" encoding="UTF-8" standalone="no"?>
<svg
   viewBox="0 0 512 512"
   style="height: 512px; width: 512px;"
   version="1.1"
   id="svg1"
   sodipodi:docname="filled-shield.svg"
   inkscape:version="1.4 (86a8ad7, 2024-10-11)"
   xmlns:inkscape="http://www.inkscape.org/namespaces/inkscape"
   xmlns:sodipodi="http://sodipodi.sourceforge.net/DTD/sodipodi-0.dtd"
   xmlns="http://www.w3.org/2000/svg"
   xmlns:svg="http://www.w3.org/2000/svg">
  <defs
     id="defs1" />
  <sodipodi:namedview
     id="namedview1"
     pagecolor="#3e3e3e"
     bordercolor="#000000"
     borderopacity="0.25"
     inkscape:showpageshadow="2"
     inkscape:pageopacity="0.0"
     inkscape:pagecheckerboard="true"
     inkscape:deskcolor="#d1d1d1"
     inkscape:zoom="0.76464845"
     inkscape:cx="333.48658"
     inkscape:cy="374.68199"
     inkscape:window-width="1920"
     inkscape:window-height="1001"
     inkscape:window-x="-9"
     inkscape:window-y="-9"
     inkscape:window-maximized="1"
     inkscape:current-layer="svg1" />
  <path
     d="M 0,9.9999996e-7 H 512 V 512 H 0 Z"
     fill="#000000"
     fill-opacity="1"
     id="path1" />
  <g
     class=""
     style="height:512px;width:512px"
     id="g1">
    <path
       id="path11"
       style="display:inline;stroke:none;fill:#ffffff;fill-opacity:1"
       inkscape:label="Filler"
       d="M 45.90625 23.625 L 45.90625 32.96875 C 45.90625 135.64875 56.39625 238.05505 87.03125 321.12305 C 117.66825 404.19105 169.39525 468.5393 250.78125 490.9043 L 253.00195 491.5293 L 255.2207 491.0293 C 344.4897 471.9993 396.86475 407.3907 425.59375 323.4707 C 454.32175 239.5507 460.84375 135.6937 460.84375 32.970703 L 460.84375 23.625 L 45.90625 23.625 z M 64.716797 42.3125 L 64.720703 42.3125 L 442.06055 42.3125 C 441.64755 141.1125 434.56355 239.6545 407.93555 317.4375 C 380.72555 396.9245 334.54555 454.07575 253.56055 472.21875 C 180.28055 451.18875 133.64655 393.52225 104.56055 314.65625 C 76.085558 237.44425 65.353797 140.5265 64.716797 42.3125 z M 83.078125 60.3125 C 84.883786 150.95927 95.863202 239.04941 121.44922 308.42773 C 148.73233 382.40525 189.85527 433.31599 254.12109 453.48828 C 325.75694 435.77792 365.39982 386.11789 390.90625 311.60742 C 414.77464 241.88552 422.59202 152.07973 423.81445 60.3125 L 83.078125 60.3125 z " />
  </g>
</svg>
