<?xml version="1.0" encoding="UTF-8" standalone="no"?>
<!-- Generator: Adobe Illustrator 28.1.0, SVG Export Plug-In . SVG Version: 6.00 Build 0)  -->

<svg
   version="1.1"
   id="svg1"
   sodipodi:docname="heavily-encumbered-robber.svg"
   x="0px"
   y="0px"
   viewBox="0 0 512 512"
   style="enable-background:new 0 0 512 512;"
   xml:space="preserve"
   inkscape:version="1.4 (86a8ad7, 2024-10-11)"
   xmlns:inkscape="http://www.inkscape.org/namespaces/inkscape"
   xmlns:sodipodi="http://sodipodi.sourceforge.net/DTD/sodipodi-0.dtd"
   xmlns="http://www.w3.org/2000/svg"
   xmlns:svg="http://www.w3.org/2000/svg">
<style
   type="text/css"
   id="style1">
	.st0{fill:#FFFFFF;}
</style>
<defs
   id="defs1">
	
		<inkscape:path-effect
   apply_no_radius="true"
   apply_with_radius="true"
   chamfer_steps="1"
   effect="fillet_chamfer"
   flexible="false"
   hide_knots="false"
   id="path-effect5"
   is_visible="true"
   lpeversion="1"
   method="auto"
   mode="F"
   nodesatellites_param="F,0,0,1,0,0,0,1 @ F,0,0,1,0,0,0,1 @ F,0,0,1,0,0,0,1 @ F,0,0,1,0,0,0,1 @ F,0,0,1,0,0,0,1 @ F,0,0,1,0,0,0,1 @ F,0,0,1,0,0,0,1 @ F,0,0,1,0,0,0,1 @ F,0,0,1,0,0,0,1 @ F,0,0,1,0,0,0,1 @ F,0,0,1,0,0,0,1 @ F,0,0,1,0,0,0,1 @ F,0,0,1,0,0,0,1 @ F,0,0,1,0,0,0,1 @ F,0,0,1,0,0,0,1 @ F,0,0,1,0,0,0,1 @ F,0,0,1,0,0,0,1 @ F,0,0,1,0,0,0,1 @ F,0,0,1,0,0,0,1 @ F,0,0,1,0,0,0,1 @ F,0,0,1,0,0,0,1 @ F,0,0,1,0,0,0,1 @ F,0,0,1,0,0,0,1 @ F,0,0,1,0,0,0,1 @ F,0,0,1,0,0,0,1 @ F,0,0,1,0,0,0,1 @ F,0,0,1,0,0,0,1"
   only_selected="false"
   radius="0"
   unit="px"
   use_knot_distance="true">
		</inkscape:path-effect>
</defs>
<sodipodi:namedview
   bordercolor="#000000"
   borderopacity="0.25"
   id="namedview1"
   inkscape:current-layer="svg1"
   inkscape:cx="110.96971"
   inkscape:cy="367.58715"
   inkscape:deskcolor="#d1d1d1"
   inkscape:pagecheckerboard="0"
   inkscape:pageopacity="0.0"
   inkscape:showpageshadow="2"
   inkscape:window-height="1001"
   inkscape:window-maximized="1"
   inkscape:window-width="1920"
   inkscape:window-x="-9"
   inkscape:window-y="-9"
   inkscape:zoom="1.0813762"
   pagecolor="#838383">
	</sodipodi:namedview>
<path
   d="M 0,0 H 512 V 512 H 0 Z"
   fill="#000000"
   fill-opacity="1"
   id="path1-2"
   inkscape:label="path2" /><g
   id="g1">
	
	
<path
   id="path1"
   style="enable-background:new 0 0 512 512"
   class="st0"
   d="M 237.37109 51.763672 C 164.17578 52.837109 93.75 95.099609 55.5 165.59961 C -1.5 282.69961 32.500781 399.69922 38.800781 422.19922 C 45.200781 444.59922 66.000781 454.89961 129.80078 454.59961 C 193.60078 454.29961 206.30039 439.8 223.90039 404 C 242.20039 351.5 221.09922 243.10039 314.19922 187.90039 C 330.19922 177.80039 349 173.2 366.5 182.5 C 381.7 197.9 395.79961 222.49961 410.09961 246.59961 L 421.5 243.19922 C 389.1 183.89922 377.20039 90.200391 310.40039 64.900391 C 286.47539 55.625391 261.76953 51.405859 237.37109 51.763672 z M 455.40039 53.599609 L 458.69922 126.5 L 478.40039 57.199219 L 455.40039 53.599609 z M 400.90039 70 L 383.09961 73.199219 L 428 129.40039 L 400.90039 70 z M 457.05664 143.3457 C 449.10715 143.47595 441.11953 145.50078 432.80078 148.80078 L 488.5 175.59961 C 491.1 160.09961 482.80039 147.90039 467.90039 144.40039 C 464.27539 143.61914 460.67004 143.2865 457.05664 143.3457 z M 456 175.30078 L 462.30078 195 L 479.19922 191.40039 L 456 175.30078 z M 417.19922 188.40039 C 422.99922 203.00039 428.90039 217.40078 435.40039 230.80078 C 445.70039 227.70078 457.99922 221.2 466.19922 212.5 L 417.19922 188.40039 z M 344.5 195.09961 C 293.1 204.89961 243.06094 303.11133 283.46094 349.61133 C 299.66094 364.51133 318.69922 362.20078 340.69922 359.80078 L 342.69922 378.40039 C 319.69922 381.60039 296.89961 375.99922 272.09961 378.19922 C 269.29961 413.29922 258.30078 445.50078 257.30078 455.80078 L 309.90039 459 L 321.80078 438.30078 C 316.80078 427.30078 300.30039 428.19922 290.40039 429.19922 C 292.00039 418.69922 298.89922 414.09922 300.19922 403.69922 C 323.29922 410.39922 348.69961 414.10078 372.09961 410.30078 C 404.99961 401.00078 392.79922 316.99922 393.19922 317.19922 C 351.49922 300.79922 325.49961 266.10039 317.09961 246.90039 L 333.59961 239.69922 C 341.39961 265.29922 387.40078 303.10039 427.30078 291.90039 C 438.10078 289.20039 442.8 283.40039 451 272.90039 C 455.3 263.10039 449.70078 261.39922 443.30078 255.69922 L 399.90039 268.59961 C 389.00039 242.99961 374.6 222.00039 362.5 205.90039 C 358.8 198.40039 352.4 194.79961 344.5 195.09961 z M 409.69922 319.69922 C 414.29922 345.99922 410.2 410.9 387 421 C 385.8 430.8 384.60078 442.40039 383.80078 457.40039 C 454.30078 458.10039 431.6 458.8 489 459 L 486.19922 435.19922 C 462.59922 420.29922 442.80039 425.00039 421.90039 423.90039 C 433.40039 386.00039 463.09922 327.39922 409.69922 319.69922 z " /></g>







</svg>
