<?xml version="1.0" encoding="utf-8"?>
<!-- Generator: Adobe Illustrator 28.4.1, SVG Export Plug-In . SVG Version: 6.00 Build 0)  -->
<svg version="1.1" id="Слой_1" xmlns="http://www.w3.org/2000/svg" xmlns:xlink="http://www.w3.org/1999/xlink" x="0px" y="0px"
	 viewBox="0 0 512 512" style="enable-background:new 0 0 512 512;" xml:space="preserve">
<style type="text/css">
	.st0{fill:#FFFFFF;}
</style>
<g>
	<g>
		<path class="st0" d="M37.4,65.9l7.4,7.4C32.6,71.8,23,61.1,23,48.3C22.8,18,67.6,14.2,72.6,43.8C51.6,15.3,17.7,42.2,37.4,65.9z"
			/>
	</g>
	<g>
		<g>
			<path class="st0" d="M70.1,60.3l4.9,4.9c-3.4,2.9-6.6,6.1-9.4,9.7L47,56.3c-6.2-6.1,3.4-16,9.6-9.6
				C56.6,46.7,70.1,60.3,70.1,60.3z"/>
			<path class="st0" d="M193.2,138.3c-4.4-33.2-17-68.8-55-76c-23.3-4.5-48.6,3.1-63.1,22.2C40.2,134,71.8,188,138.3,193.3
				c0,0,350.7,295.6,350.7,295.6L193.2,138.3z M96.6,143.7c-3.4-40.9,57.5-73.7,77.1-28.3c-17.2-13.2-37.3-12.9-51.5,4.1
				c-15.9,16-16.7,33.4-6.5,54.2C105,167.4,97.9,156.2,96.6,143.7z"/>
		</g>
	</g>
</g>
</svg>
