<?xml version="1.0" encoding="utf-8"?>
<!-- Generator: Adobe Illustrator 28.4.1, SVG Export Plug-In . SVG Version: 6.00 Build 0)  -->
<svg version="1.1" id="Слой_1" xmlns="http://www.w3.org/2000/svg" xmlns:xlink="http://www.w3.org/1999/xlink" x="0px" y="0px"
	 viewBox="0 0 512 512" style="enable-background:new 0 0 512 512;" xml:space="preserve">
<style type="text/css">
	.st0{fill:#FFFFFF;}
</style>
<g>
	<g>
		<path class="st0" d="M482.8,29.2c0,0-2.7,16.3-8.2,21.8c-2.1,2.2-4.3,4.3-6.4,6.5c-36,36.4-65.3,66.1-105,106.3
			c-66.9,67.8-133.9,135.7-200.7,203.4c-0.6-0.2-17.5-17.2-17.8-17.8C222.3,273,300.4,195.9,378,119.3c22.9-22.6,42-41.4,63.7-62.9
			C457.2,41.4,462.9,31.7,482.8,29.2z"/>
	</g>
	<g>
		<path class="st0" d="M59.7,467.7l-7.5,15.1c-11.6-1.7-21.3-11.5-23-23l15.1-7.5L59.7,467.7z"/>
	</g>
	<g>
		<path class="st0" d="M134.7,391.1c-28.3,28-45.1,48.1-66.1,62.9L58,443.4c14.7-21,34.9-37.9,62.9-66.1L134.7,391.1z"/>
	</g>
	<g>
		<path class="st0" d="M195.3,411.9c0,0-1.5,8.4-5.1,12l-102-102c3.7-3.7,12-5.1,12-5.1c7,9.3,26.4,35.4,33.1,44.2
			c0,0,17.9,17.9,17.9,17.9C159.8,385.3,186.2,405,195.3,411.9z"/>
	</g>
</g>
</svg>
