<?xml version="1.0" encoding="UTF-8" standalone="no"?>
<!-- Generator: Adobe Illustrator 28.1.0, SVG Export Plug-In . SVG Version: 6.00 Build 0)  -->

<svg
   version="1.1"
   id="Слой_1"
   sodipodi:docname="modern-ranged-weapon-blueprint.svg"
   x="0px"
   y="0px"
   viewBox="0 0 512 512"
   style="enable-background:new 0 0 512 512;"
   xml:space="preserve"
   inkscape:version="1.4 (86a8ad7, 2024-10-11)"
   xmlns:inkscape="http://www.inkscape.org/namespaces/inkscape"
   xmlns:sodipodi="http://sodipodi.sourceforge.net/DTD/sodipodi-0.dtd"
   xmlns="http://www.w3.org/2000/svg"
   xmlns:svg="http://www.w3.org/2000/svg"><defs
   id="defs2" />
<style
   type="text/css"
   id="style1">
	.st0{fill:none;}
	.st1{fill:#FFFFFF;}
</style>
<sodipodi:namedview
   bordercolor="#000000"
   borderopacity="0.25"
   id="namedview2"
   inkscape:current-layer="Слой_1"
   inkscape:cx="278.37522"
   inkscape:cy="299.75216"
   inkscape:deskcolor="#d1d1d1"
   inkscape:pagecheckerboard="true"
   inkscape:pageopacity="0.0"
   inkscape:showpageshadow="2"
   inkscape:window-height="1001"
   inkscape:window-maximized="1"
   inkscape:window-width="1920"
   inkscape:window-x="-9"
   inkscape:window-y="-9"
   inkscape:zoom="1.0525362"
   pagecolor="#585858">
	</sodipodi:namedview>







<path
   d="M 0,0 H 512 V 512 H 0 Z"
   fill="#000000"
   fill-opacity="1"
   id="path1" /><g
   id="path15"
   inkscape:label="g1">
	<path
   id="path47"
   style="enable-background:new 0 0 512 512"
   class="st1"
   d="M 414.0996 73.300782 C 384.4996 73.300782 359.80077 95.1 355.30077 123.5 L 29.300773 123.5 L 29.300773 408 L 363.90038 408 L 414.0996 408 C 446.8996 408 473.69921 381.20039 473.69921 348.40039 L 473.69921 132.90039 C 473.59921 100.10039 446.7996 73.300782 414.0996 73.300782 z M 47.900382 142.19922 L 354.49999 142.19922 L 354.49999 348.40039 L 363.80077 348.40039 L 373.0996 348.40039 C 373.0996 347.00039 373.20077 345.59922 373.30077 344.19922 C 375.40077 323.49922 392.69999 307.5 413.99999 307.5 C 436.69999 307.5 454.90038 325.70039 454.90038 348.40039 C 454.90038 371.10039 436.69999 389.30078 413.99999 389.30078 L 363.80077 389.30078 L 47.900382 389.30078 L 47.900382 142.19922 z M 149.74804 164.19727 L 149.74804 182.19727 L 194.24804 182.19727 L 194.24804 164.19727 L 149.74804 164.19727 z M 230.74804 164.19727 L 230.74804 182.19727 L 325.74804 182.19727 L 325.74804 164.19727 L 230.74804 164.19727 z M 224.4414 221.19727 L 160.14062 223.99805 L 153.64062 231.99805 L 153.84179 250.59766 L 154.9414 252.49805 L 150.04101 275.09766 L 162.64062 282.49805 L 168.54101 260.39648 L 182.64062 259.29688 L 182.4414 244.89648 L 194.64062 244.89648 L 202.24218 244.79688 L 224.74218 244.49805 L 224.4414 221.19727 z M 242.4414 222.39648 L 242.74218 248.89648 L 275.04101 245.89648 L 274.74218 225.09766 L 242.4414 222.39648 z M 329.64062 222.89648 L 324.4414 235.69727 L 305.64062 234.79688 L 299.4414 227.39648 L 292.9414 226.79688 L 293.14062 245.49805 L 336.54101 244.99805 L 336.54101 223.09766 L 329.64062 222.89648 z M 135.74218 233.89648 L 81.441398 237.19727 L 81.441398 275.19727 L 135.84179 254.19727 L 135.74218 233.89648 z M 225.84179 262.49805 L 206.14062 262.79688 L 213.4414 283.29688 L 235.4414 309.39648 L 245.84179 291.39648 L 230.84179 274.49805 L 225.84179 262.49805 z M 87.941398 316.19727 L 87.941398 364.19727 L 156.4414 364.19727 L 156.4414 346.19727 L 105.9414 346.19727 L 105.9414 316.19727 L 87.941398 316.19727 z M 186.14062 346.19727 L 186.14062 364.19727 L 215.9414 364.19727 L 215.9414 346.19727 L 186.14062 346.19727 z M 234.4414 346.19727 L 234.4414 364.19727 L 326.9414 364.19727 L 326.9414 346.19727 L 234.4414 346.19727 z "
   transform="translate(4.558602,15.302734)"
   inkscape:label="path2" />
</g>
</svg>
