<?xml version="1.0" encoding="utf-8"?>
<!-- Generator: Adobe Illustrator 28.4.1, SVG Export Plug-In . SVG Version: 6.00 Build 0)  -->
<svg version="1.1" id="Слой_1" xmlns="http://www.w3.org/2000/svg" xmlns:xlink="http://www.w3.org/1999/xlink" x="0px" y="0px"
	 viewBox="0 0 512 512" style="enable-background:new 0 0 512 512;" xml:space="preserve">
<style type="text/css">
	.st0{fill:#FFFFFF;}
</style>
<g>
	<g>
		<path class="st0" d="M490.1,254.6L443,236c9.2-7.6,17-16.5,23.2-26.4L490.1,254.6z"/>
	</g>
	
		<rect x="113.8" y="353.5" transform="matrix(0.7071 -0.7071 0.7071 0.7071 -241.6367 201.8342)" class="st0" width="18" height="78.1"/>
	<g>
		<path class="st0" d="M343.4,42.9c-11.4,3.1-22.4,8-32.3,14.5l-2.3-40.6h9.7L343.4,42.9z"/>
	</g>
	<g>
		<path class="st0" d="M491.9,91.6v26.2l-10.8,10.3c-2.5-12.3-7.1-24.2-13.7-35.1L491.9,91.6z"/>
	</g>
	<polygon class="st0" points="87.3,395.4 20.1,462.6 20.1,495.1 52.6,495.1 119.8,427.9 	"/>
	<g>
		<path class="st0" d="M466.6,162c-3.1,25.6-16.5,49.3-38.4,65.3c1-4.7,2.9-13.9,3.8-18.6c-29.4-30.4-81.6-22.8-100,15.2l4.6,8.3
			l0.3,0.5h-0.5l4.2,7.5c-29.3-9.7-54.3-37-61.1-67.2c4.3,2.3,12.8,6.9,17.1,9.2c38.2-18.8,44.5-71.4,14.1-100
			c-0.1,0-6.1,1.3-6.5,1.4c17.1-17.5,41.2-28,65.6-28.5c-5.3,6.3-17.9,21.2-23,27.3c11.3,43.1,62.3,60.5,98.6,35.9
			c-0.1-8.2-0.1-20.9-0.2-29.1C462.7,110.1,469.7,136.8,466.6,162z"/>
	</g>
	<g>
		<path class="st0" d="M414.4,214.9c-5.3,25.9-13.4,65-18.8,91.2c-9.4-17-22.5-40.4-31.9-57.3c0.1,0,0.3,0.1,0.4,0.1l-13.5-24.4
			c1.4-2.2,3-4.2,4.7-6l0,0C370.4,203.2,397.8,201.4,414.4,214.9z"/>
	</g>
	<g>
		<path class="st0" d="M295.8,163.6L257.4,143l-43.7-23.4l47.2-10.3l43.8-9.5C319.1,116.9,317.3,149.7,295.8,163.6z"/>
	</g>
	<g>
		<path class="st0" d="M429.3,108.9c-22.5,11.8-55.1,1.1-64.2-23.3c12.9-15.3,45.5-53.9,58-68.7h5.5
			C428.8,36.7,429.1,88.4,429.3,108.9z"/>
	</g>
	<path class="st0" d="M281.1,266.6c-28.4,28.4-85.5,85.5-113.9,113.9l0,0l-9.2,9.1l-32.5-32.5l41-41l0,0c17.1-17.1,64.3-64.3,82-82
		C252.7,238.3,277.5,263.2,281.1,266.6z"/>
	<polygon class="st0" points="322.8,260.4 310.1,273 242.2,205.1 254.9,192.4 	"/>
</g>
</svg>
