<?xml version="1.0" encoding="UTF-8" standalone="no"?>
<!-- Generator: Adobe Illustrator 28.4.1, SVG Export Plug-In . SVG Version: 6.00 Build 0)  -->

<svg
   version="1.1"
   id="Слой_1"
   x="0px"
   y="0px"
   viewBox="0 0 512 512"
   style="enable-background:new 0 0 512 512;"
   xml:space="preserve"
   sodipodi:docname="overcast.svg"
   inkscape:version="1.4 (86a8ad7, 2024-10-11)"
   xmlns:inkscape="http://www.inkscape.org/namespaces/inkscape"
   xmlns:sodipodi="http://sodipodi.sourceforge.net/DTD/sodipodi-0.dtd"
   xmlns="http://www.w3.org/2000/svg"
   xmlns:svg="http://www.w3.org/2000/svg"><defs
   id="defs23">
	

	

	

	

	

	

	
	

	

	

	

	

	

		
	
		
	
		
	
		
	
		
	
		
	
		
	
		
	
		
	
		
	</defs><sodipodi:namedview
   id="namedview23"
   pagecolor="#ffffff"
   bordercolor="#000000"
   borderopacity="0.25"
   inkscape:showpageshadow="2"
   inkscape:pageopacity="0.0"
   inkscape:pagecheckerboard="0"
   inkscape:deskcolor="#d1d1d1"
   inkscape:zoom="0.5406881"
   inkscape:cx="388.39398"
   inkscape:cy="98.947989"
   inkscape:window-width="1920"
   inkscape:window-height="1001"
   inkscape:window-x="-9"
   inkscape:window-y="-9"
   inkscape:window-maximized="1"
   inkscape:current-layer="Слой_1" />
<style
   type="text/css"
   id="style1">
	.st0{fill:#FFFFFF;}
</style>
<path
   d="M 0,0 H 512 V 512 H 0 Z"
   fill="#000000"
   fill-opacity="1"
   id="path1-6"
   style="enable-background:new 0 0 512 512"
   inkscape:label="path2" /><g
   id="g23"
   inkscape:label="g1"><path
     id="path1"
     class="st0"
     d="M 197.55469 24.636719 C 165.52315 23.844897 132.45078 47.000391 135.30078 86.900391 C 113.90078 83.500391 93.899609 100.60078 94.099609 122.30078 C 93.599609 162.10078 151.49922 171.3 163.69922 134 C 177.89922 143 198.09922 145.30078 214.19922 139.30078 C 229.19922 160.70078 266.20078 156.99922 276.80078 133.19922 C 293.70078 158.49922 332.69961 165.80078 357.59961 148.30078 C 378.89961 169.60078 418.80039 153.09922 417.90039 122.19922 C 417.90039 102.79922 402.39961 86.900391 383.09961 86.400391 C 376.39961 47.400391 326.79961 26.100781 293.59961 48.300781 C 278.09961 42.200781 258.7 48.699219 250 62.199219 C 240.9 36.930469 219.471 25.178491 197.55469 24.636719 z M 204.09961 181.69922 C 201.09961 195.19922 192.59961 199.9 192.09961 213 C 192.29961 226.4 215.30078 227.19922 215.80078 213.69922 C 215.30078 200.99922 206.99961 195.19922 204.09961 181.69922 z M 98.099609 193.30078 C 95.099609 206.80078 86.599609 211.49961 86.099609 224.59961 C 86.299609 237.99961 109.30078 238.80078 109.80078 225.30078 C 109.30078 212.60078 100.99961 206.80078 98.099609 193.30078 z M 324.40039 204.09961 C 321.40039 217.59961 312.90039 222.30039 312.40039 235.40039 C 312.60039 248.80039 335.59961 249.59961 336.09961 236.09961 C 335.59961 223.39961 327.30039 217.59961 324.40039 204.09961 z M 411.40039 209.40039 C 408.40039 222.90039 399.90039 227.59922 399.40039 240.69922 C 399.60039 254.09922 422.59961 254.90039 423.09961 241.40039 C 422.59961 228.70039 414.30039 222.90039 411.40039 209.40039 z M 154 240.80078 C 151 254.30078 142.5 258.99961 142 272.09961 C 142.2 285.49961 165.19922 286.30078 165.69922 272.80078 C 165.19922 260.00078 156.9 254.20078 154 240.80078 z M 253.45898 251.29883 C 200.62174 252.42627 179.80156 325.35703 224 354.19922 L 224 334.59961 L 242.69922 334.59961 L 242.69922 362.5 C 251.19922 364.6 260.80078 364.6 269.30078 362.5 L 269.30078 334.59961 L 288 334.59961 L 288 354.19922 C 302.7 343.99922 312.40039 326.99922 312.40039 307.69922 C 312.40039 276.49922 287.2 251.30078 256 251.30078 C 255.14531 251.28203 254.29767 251.28093 253.45898 251.29883 z M 372.40039 270.09961 C 369.40039 283.59961 360.90039 288.30039 360.40039 301.40039 C 360.60039 314.80039 383.59961 315.59961 384.09961 302.09961 C 383.59961 289.29961 375.30039 283.49961 372.40039 270.09961 z M 106 320.5 C 103 334 94.5 338.70078 94 351.80078 C 94.2 365.20078 117.19922 366 117.69922 352.5 C 117.19922 339.7 108.9 333.9 106 320.5 z M 173.02734 325.32031 C 157.79583 325.01912 144.42422 339.34453 146.69922 357.30078 C 146.79922 358.60078 146.40039 434.19961 146.40039 435.59961 C 151.30039 445.59961 156.29922 461.49961 146.19922 470.59961 L 146.09961 489 L 199.19922 489 C 199.19922 462.7 198.69961 436.4 199.59961 410 L 201.19922 410.40039 C 206.89922 436.50039 211.40039 462.8 215.90039 489 L 295.90039 489 C 300.50039 462.8 304.89961 436.50039 310.59961 410.40039 L 312.40039 410 C 312.80039 436.3 312.69961 462.7 312.59961 489 L 347.30078 489 C 338.60078 467.5 357.19961 450.90078 365.59961 432.80078 L 365.30078 358.40039 C 368.70078 336.00039 347.80078 318.4 328.30078 328 C 308.30078 400.5 203.79922 400.6 183.69922 328 C 180.15547 326.2375 176.54231 325.38982 173.02734 325.32031 z M 405.19922 348.69922 C 402.19922 362.19922 393.69922 366.9 393.19922 380 C 393.39922 393.4 416.40039 394.19922 416.90039 380.69922 C 416.40039 367.89922 408.09922 362.09922 405.19922 348.69922 z M 125 420.19922 C 122 433.69922 113.5 438.4 113 451.5 C 113.2 464.8 136.19922 465.69922 136.69922 452.19922 C 136.29922 439.99922 127.3 432.19922 125 420.19922 z M 372.40039 444.80078 C 370.70039 451.60078 368.10078 456.30078 365.80078 460.30078 C 347.80078 485.60078 380.19961 496.30078 384.09961 476.80078 C 383.59961 464.00078 375.30039 458.20078 372.40039 444.80078 z " /></g>











</svg>
