<?xml version="1.0" encoding="utf-8"?>
<!-- Generator: Adobe Illustrator 28.4.1, SVG Export Plug-In . SVG Version: 6.00 Build 0)  -->
<svg version="1.1" id="Слой_1" xmlns="http://www.w3.org/2000/svg" xmlns:xlink="http://www.w3.org/1999/xlink" x="0px" y="0px"
	 viewBox="0 0 512 512" style="enable-background:new 0 0 512 512;" xml:space="preserve">
<style type="text/css">
	.st0{fill:#FFFFFF;}
</style>
<g>
	<path class="st0" d="M417.9,122.2c0.9,30.9-39,47.4-60.3,26.1c-24.9,17.5-63.9,10.2-80.8-15.1c-10.6,23.8-47.6,27.5-62.6,6.1
		c-16.1,6-36.3,3.7-50.5-5.3c-12.2,37.3-70.1,28.1-69.6-11.7c-0.2-21.7,19.8-38.8,41.2-35.4C130.5,19.7,227.6,0,250,62.2
		c8.7-13.5,28.1-20,43.6-13.9c33.2-22.2,82.8-0.9,89.5,38.1C402.4,86.9,417.9,102.8,417.9,122.2z"/>
</g>
<g transform="translate(0,0)">
	<path class="st0" d="M312.4,307.7c0,19.3-9.7,36.3-24.4,46.5v-19.6h-18.7v27.9c-8.5,2.1-18.1,2.1-26.6,0v-27.9H224v19.6
		c-44.9-29.3-22.7-104.1,32-102.9C287.2,251.3,312.4,276.5,312.4,307.7z"/>
	<path class="st0" d="M365.3,358.4l0.3,74.4c-8.4,18.1-27,34.7-18.3,56.2h-34.7c0.1-26.3,0.2-52.7-0.2-79l0,0c0-0.7,0,0.7,0,0
		l-1.8,0.4c-5.7,26.1-10.1,52.4-14.7,78.6h-80c-4.5-26.2-9-52.5-14.7-78.6l-1.6-0.4l0,0c-0.9,26.4-0.4,52.7-0.4,79h-53.1l0.1-18.4
		c10.1-9.1,5.1-25,0.2-35c0-1.4,0.4-77,0.3-78.3c-2.8-22.1,18.1-38.7,37-29.3c20.1,72.6,124.6,72.5,144.6,0
		C347.8,318.4,368.7,336,365.3,358.4z"/>
</g>
<g transform="translate(0,0)">
	<g>
		<path class="st0" d="M384.1,476.8c-3.9,19.5-36.3,8.8-18.3-16.5c2.3-4,4.9-8.7,6.6-15.5l0,0C375.3,458.2,383.6,464,384.1,476.8z"
			/>
	</g>
</g>
<g transform="translate(0,0)">
	<g>
		<path class="st0" d="M416.9,380.7c-0.5,13.5-23.5,12.7-23.7-0.7c0.5-13.1,9-17.8,12-31.3l0,0C408.1,362.1,416.4,367.9,416.9,380.7
			z"/>
	</g>
</g>
<g transform="translate(0,0)">
	<g>
		<path class="st0" d="M384.1,302.1c-0.5,13.5-23.5,12.7-23.7-0.7c0.5-13.1,9-17.8,12-31.3l0,0C375.3,283.5,383.6,289.3,384.1,302.1
			z"/>
	</g>
</g>
<g transform="translate(0,0)">
	<g>
		<path class="st0" d="M336.1,236.1c-0.5,13.5-23.5,12.7-23.7-0.7c0.5-13.1,9-17.8,12-31.3l0,0C327.3,217.6,335.6,223.4,336.1,236.1
			z"/>
	</g>
</g>
<g transform="translate(0,0)">
	<g>
		<path class="st0" d="M423.1,241.4c-0.5,13.5-23.5,12.7-23.7-0.7c0.5-13.1,9-17.8,12-31.3l0,0C414.3,222.9,422.6,228.7,423.1,241.4
			z"/>
	</g>
</g>
<g transform="translate(0,0)">
	<g>
		<path class="st0" d="M215.8,213.7c-0.5,13.5-23.5,12.7-23.7-0.7c0.5-13.1,9-17.8,12-31.3l0,0C207,195.2,215.3,201,215.8,213.7z"/>
	</g>
</g>
<g transform="translate(0,0)">
	<g>
		<path class="st0" d="M165.7,272.8c-0.5,13.5-23.5,12.7-23.7-0.7c0.5-13.1,9-17.8,12-31.3l0,0C156.9,254.2,165.2,260,165.7,272.8z"
			/>
	</g>
</g>
<g transform="translate(0,0)">
	<g>
		<path class="st0" d="M109.8,225.3c-0.5,13.5-23.5,12.7-23.7-0.7c0.5-13.1,9-17.8,12-31.3l0,0C101,206.8,109.3,212.6,109.8,225.3z"
			/>
	</g>
</g>
<g transform="translate(0,0)">
	<g>
		<path class="st0" d="M117.7,352.5c-0.5,13.5-23.5,12.7-23.7-0.7c0.5-13.1,9-17.8,12-31.3l0,0C108.9,333.9,117.2,339.7,117.7,352.5
			z"/>
	</g>
</g>
<g transform="translate(0,0)">
	<g>
		<path class="st0" d="M136.7,452.2c-0.5,13.5-23.5,12.6-23.7-0.7c0.5-13.1,9-17.8,12-31.3C127.3,432.2,136.3,440,136.7,452.2z"/>
	</g>
</g>
</svg>
