<?xml version="1.0" encoding="UTF-8" standalone="no"?>
<!-- Generator: Adobe Illustrator 28.4.1, SVG Export Plug-In . SVG Version: 6.00 Build 0)  -->

<svg
   version="1.1"
   id="Слой_1"
   x="0px"
   y="0px"
   viewBox="0 0 512 512"
   style="enable-background:new 0 0 512 512;"
   xml:space="preserve"
   sodipodi:docname="person-growth.svg"
   inkscape:version="1.4 (86a8ad7, 2024-10-11)"
   xmlns:inkscape="http://www.inkscape.org/namespaces/inkscape"
   xmlns:sodipodi="http://sodipodi.sourceforge.net/DTD/sodipodi-0.dtd"
   xmlns="http://www.w3.org/2000/svg"
   xmlns:svg="http://www.w3.org/2000/svg"><defs
   id="defs4" /><sodipodi:namedview
   id="namedview4"
   pagecolor="#000000"
   bordercolor="#000000"
   borderopacity="0.25"
   inkscape:showpageshadow="2"
   inkscape:pageopacity="0.0"
   inkscape:pagecheckerboard="0"
   inkscape:deskcolor="#d1d1d1"
   inkscape:zoom="1.5292969"
   inkscape:cx="255.67305"
   inkscape:cy="256"
   inkscape:window-width="1920"
   inkscape:window-height="1001"
   inkscape:window-x="-9"
   inkscape:window-y="-9"
   inkscape:window-maximized="1"
   inkscape:current-layer="Слой_1" />
<style
   type="text/css"
   id="style1">
	.st0{fill:#FFFFFF;}
</style>

<g
   id="g1"
   style="enable-background:new 0 0 512 512">
		
	<path
   class="st0"
   d="M383.7,481c16.8,0.1,33-2.2,49-5.9l9.7-146.4H481c-2.2-58.3,7.7-166.7-65.9-175.6    c38.1-38,17.7-127.4-38.3-122.7c-49.3,5.8-63.9,88.7-27.6,123.2c-70.1,10.7-64.1,123.8-66.4,175.1h40.7L334.6,475    C350.6,478.7,366.9,481.1,383.7,481z"
   id="path2"
   style="enable-background:new 0 0 512 512" /><polygon
   class="st0"
   points="205.9,66.8 145.9,210.3 188.8,196.3 176.4,465 235.4,465 223,196.3 265.9,210.3 "
   id="polygon4"
   style="enable-background:new 0 0 512 512" /><path
   class="st0"
   d="M83.7,244.6c-21,1.9-29.1,40.6-13.7,56.4l5.8,7c-39.2,1.8-36.6,56.2-37.9,85.8H59l5.8,77.6    c14.5,3.2,30.2,3.2,44.6,0l5.1-77.6h20.1c-1.2-30.6,4-85.1-37.7-85.9l5.8-7.2C118.8,282.9,108,241.9,83.7,244.6 M82.9,230.6    c33.5-2.4,50.6,41.2,36.8,68.5c34.4,20.9,27.3,72.5,28.8,108.7c-4.6,0-16.5,0-21,0c-0.5,7-4.7,70-5,75c-23,6.5-48,6.7-71,0    c-0.4-4.6-5.1-68.4-5.6-75c-5,0-17.1,0-22.2,0c1.2-34.1-3.4-85.8,29-107.8C39.7,275,52.5,233,82.9,230.6z"
   id="path1"
   style="enable-background:new 0 0 512 512" /></g>

</svg>
