<?xml version="1.0" encoding="UTF-8" standalone="no"?>
<!-- Generator: Adobe Illustrator 28.4.1, SVG Export Plug-In . SVG Version: 6.00 Build 0)  -->

<svg
   version="1.1"
   id="Слой_1"
   x="0px"
   y="0px"
   viewBox="0 0 512 512"
   style="enable-background:new 0 0 512 512;"
   xml:space="preserve"
   sodipodi:docname="person-shrinking.svg"
   inkscape:version="1.4 (86a8ad7, 2024-10-11)"
   xmlns:inkscape="http://www.inkscape.org/namespaces/inkscape"
   xmlns:sodipodi="http://sodipodi.sourceforge.net/DTD/sodipodi-0.dtd"
   xmlns="http://www.w3.org/2000/svg"
   xmlns:svg="http://www.w3.org/2000/svg"><defs
   id="defs3" /><sodipodi:namedview
   id="namedview3"
   pagecolor="#000000"
   bordercolor="#000000"
   borderopacity="0.25"
   inkscape:showpageshadow="2"
   inkscape:pageopacity="0.0"
   inkscape:pagecheckerboard="0"
   inkscape:deskcolor="#d1d1d1"
   inkscape:zoom="1.5292969"
   inkscape:cx="255.67305"
   inkscape:cy="256"
   inkscape:window-width="1920"
   inkscape:window-height="1001"
   inkscape:window-x="-9"
   inkscape:window-y="-9"
   inkscape:window-maximized="1"
   inkscape:current-layer="Слой_1" />
<style
   type="text/css"
   id="style1">
	.st0{fill:#FFFFFF;}
</style>
<g
   id="g1"
   style="enable-background:new 0 0 512 512">
		
	<polygon
   class="st0"
   points="306.1,465 366.1,321.5 323.2,335.5 335.6,66.8 276.6,66.8 289,335.5 246.1,321.5 "
   id="polygon3"
   style="enable-background:new 0 0 512 512" /><path
   class="st0"
   d="M134.7,37.4c40,3.6,55.3,77.4,26.1,107.4l-11.1,13.3c17.3,2.6,35.4,6,45.5,22.2   c25.4,38.2,25.4,94.6,26.6,141.2h-40.1l-11,147.7c-27.6,6.2-57.5,6.2-84.8,0l-9.7-147.8H38c1-46.9-1.8-103.8,24-142.3   c9.9-15.9,30.2-19.5,47.9-21.4l-11-13.8C68.4,109.8,88.1,32.9,134.7,37.4 M135.5,23.4C75.4,20.1,52.7,105,84.4,148   C15.5,169.5,26.2,274.6,24,335.6c8.7,0,30.2,0,39.1,0L72,470.3l0.7,10.4c36,9.6,75.3,9.6,111.3,0l0.8-10.3l10.1-134.8   c9.3,0,32.3,0,41.2,0C234,279.3,240.5,173,175.3,149C205.3,109.3,189.3,30.7,135.5,23.4L135.5,23.4z"
   id="path2"
   style="enable-background:new 0 0 512 512" /><path
   class="st0"
   d="M428.3,244.6c21,1.9,29.1,40.7,13.7,56.4l-5.8,7c39.2,1.8,36.5,56.2,37.9,85.9H453l-5.8,77.6    c-14.7,3.3-30.4,3.2-44.6,0l-5.1-77.6h-20.1c1.2-30.6-3.9-85.3,37.8-86l-5.8-7.2C393.3,283,404,241.8,428.3,244.6z"
   id="path1"
   style="enable-background:new 0 0 512 512" /></g>


</svg>
