<?xml version="1.0" encoding="UTF-8" standalone="no"?>
<!-- Generator: Adobe Illustrator 28.4.1, SVG Export Plug-In . SVG Version: 6.00 Build 0)  -->

<svg
   version="1.1"
   id="Слой_1"
   x="0px"
   y="0px"
   viewBox="0 0 512 512"
   style="enable-background:new 0 0 512 512;"
   xml:space="preserve"
   sodipodi:docname="person-strengthens.svg"
   inkscape:version="1.4 (86a8ad7, 2024-10-11)"
   xmlns:inkscape="http://www.inkscape.org/namespaces/inkscape"
   xmlns:sodipodi="http://sodipodi.sourceforge.net/DTD/sodipodi-0.dtd"
   xmlns="http://www.w3.org/2000/svg"
   xmlns:svg="http://www.w3.org/2000/svg"><defs
   id="defs9" /><sodipodi:namedview
   id="namedview9"
   pagecolor="#959595"
   bordercolor="#000000"
   borderopacity="0.25"
   inkscape:showpageshadow="2"
   inkscape:pageopacity="0.0"
   inkscape:pagecheckerboard="true"
   inkscape:deskcolor="#d1d1d1"
   inkscape:zoom="1.5761719"
   inkscape:cx="256.31722"
   inkscape:cy="256"
   inkscape:window-width="1920"
   inkscape:window-height="1001"
   inkscape:window-x="-9"
   inkscape:window-y="-9"
   inkscape:window-maximized="1"
   inkscape:current-layer="g9" />
<style
   type="text/css"
   id="style1">
	.st0{fill:#FFFFFF;}
</style>
<g
   id="g9">
	
	
	<path
   class="st0"
   d="M169.7,440.8l0.1-18.1l0.1-14c-10.4,12.6-16.7,22.2-16.7,22.2l26.3,38.7L138.3,493H199v-0.1l-3.9-52.1H169.7z"
   id="path2"
   style="enable-background:new 0 0 512 512" />
	<path
   class="st0"
   d="M359.6,430.8c0,0-6.6-10.2-17.5-23.2v15.2v18h-23.8l-3.4,51.8v0.4h58.9l-40.5-23.5L359.6,430.8z"
   id="path4" /><path
   class="st0"
   d="M256.7,181.2c27.4,0,51.3-26.9,51.3-63c0-36-23.9-63.6-51.3-63.6c-27.4,0-51.3,27.6-51.3,63.6   C205.4,154.3,229.3,181.2,256.7,181.2z"
   id="path3"
   style="enable-background:new 0 0 512 512" />
	<path
   class="st0"
   d="M346,18.7c-40.7,39.4,6.5,101.7,43.6,56.9c36.9,69.1,8.6,127.6-72.3,83.4c-11.9,24.5-34.2,41.4-60.7,41.4   c-26.7,0-49.2-17.2-61-42C114,203.7,85.2,145,122.3,75.6c37.1,44.8,84.4-17.5,43.6-56.9C15.6,59.3-42.2,198.5,92.7,245.4h-1.1   c0.6,0.1,1.3,0.2,1.9,0.3c9,3.1,18.8,5.7,29.5,7.9c28.1,11,51.8,30.8,67.8,54.3c0.2-0.3,0.5-0.7,0.7-1c2-2.7,4.1-5.2,6.3-7.5   c-1.5-6-2.2-12.2-2.2-18.4c0-15.8,4.8-31.2,13.4-43.5c10-14.2,24.1-23.1,39.9-25.2l1.2-0.1l1.3-0.2h1.3h1.2h2.3   c17.1,0.1,33.3,8.5,44.6,23c9.8,12.5,15.1,28.8,15.1,45.8c0,5.6-0.6,11.2-1.8,16.6c2.7,2.5,5.2,5.3,7.5,8.4   c0.1,0.2,0.2,0.3,0.3,0.5c16-22.8,39.3-42,66.8-52.8c10.7-2.2,20.5-4.9,29.5-7.9c0.6-0.1,1.3-0.2,1.9-0.3H419   C554.1,198.6,496.3,59.3,346,18.7z"
   id="path5" />
	
	<path
   class="st0"
   d="M323.8,387.9c-1.4-30.2-2.7-67-30.5-83.5c14.3-30-4.4-77-40.8-74.3c-33,3.6-47.4,47.8-33.5,75.4    c-35.1,25.2-29.6,79-31,117.3h24c1,12.1,5.2,69.7,6.1,80.7c25.4,7.3,52.9,7.2,78.2,0c0.9-13.4,4.3-66.6,5.3-80.7H324    C324,412.1,324.1,398.5,323.8,387.9z M286.4,406.8c0-0.6-5.3,81.2-5.5,83.5c-15.5,3.5-32.4,3.4-48,0c-0.1-1.9-6.3-84.7-6.2-83.6    H204c0.6-25.7,0.6-58.2,15-79.9c5.8-9.2,16-11.2,25.8-12.6c-6.5-7.2-13.3-15.8-14.5-25.9c-2.9-16.5,4.9-39.2,23.1-42.3    c26.4-2.8,37.6,41,20.4,60.4c0,0-6.2,7.8-6.2,7.8c10.1,1.1,21.5,3.1,27.1,12.1c14.7,22.2,12.9,54.5,13.5,80.5H286.4z"
   id="path7"
   style="enable-background:new 0 0 512 512" /><path
   class="st0"
   d="M426.8,256.3l-36,43.6l18.4,0.1c2.2,11.5-3.4,107.7-20.7,113.1c36.8-3.1,57-38.9,54.9-112.9l17.9-0.5   L426.8,256.3z"
   id="path8" />
	<path
   class="st0"
   d="M103.4,300l18.4-0.1l-36-43.6l-34.5,43.4l17.9,0.5c-2,74,18.2,109.8,54.9,112.9   C106.8,407.7,101.2,311.5,103.4,300z"
   id="path9" />
</g>
</svg>
