<?xml version="1.0" encoding="UTF-8" standalone="no"?>
<!-- Generator: Adobe Illustrator 28.4.1, SVG Export Plug-In . SVG Version: 6.00 Build 0)  -->

<svg
   version="1.1"
   id="Слой_1"
   x="0px"
   y="0px"
   viewBox="0 0 512 512"
   style="enable-background:new 0 0 512 512;"
   xml:space="preserve"
   sodipodi:docname="person-shrinking.svg"
   inkscape:version="1.4 (86a8ad7, 2024-10-11)"
   xmlns:inkscape="http://www.inkscape.org/namespaces/inkscape"
   xmlns:sodipodi="http://sodipodi.sourceforge.net/DTD/sodipodi-0.dtd"
   xmlns="http://www.w3.org/2000/svg"
   xmlns:svg="http://www.w3.org/2000/svg"><defs
   id="defs3" /><sodipodi:namedview
   id="namedview3"
   pagecolor="#000000"
   bordercolor="#000000"
   borderopacity="0.25"
   inkscape:showpageshadow="2"
   inkscape:pageopacity="0.0"
   inkscape:pagecheckerboard="0"
   inkscape:deskcolor="#d1d1d1"
   inkscape:zoom="0.38232423"
   inkscape:cx="190.93742"
   inkscape:cy="132.08684"
   inkscape:window-width="1920"
   inkscape:window-height="1001"
   inkscape:window-x="-9"
   inkscape:window-y="-9"
   inkscape:window-maximized="1"
   inkscape:current-layer="Слой_1" />
<style
   type="text/css"
   id="style1">
	.st0{fill:#FFFFFF;}
</style>
<path
   d="M 0,0 H 512 V 512 H 0 Z"
   fill="#000000"
   fill-opacity="1"
   id="path1-7"
   inkscape:label="path1" /><g
   id="g1"
   style="enable-background:new 0 0 512 512">
		
	<path
   id="polygon3"
   style="enable-background:new 0 0 512 512"
   class="st0"
   d="M 129.97656 23.345703 C 74.035223 25.365982 53.691016 106.34375 84.400391 148 C 15.500391 169.5 26.2 274.59961 24 335.59961 L 63.099609 335.59961 L 72 470.30078 L 72.699219 480.69922 C 108.69922 490.29922 148 490.29922 184 480.69922 L 184.80078 470.40039 L 194.90039 335.59961 L 236.09961 335.59961 C 233.99961 279.29961 240.50078 173 175.30078 149 C 205.30078 109.3 189.3 30.700391 135.5 23.400391 C 133.62187 23.297266 131.78112 23.280533 129.97656 23.345703 z M 130.41016 37.212891 C 131.81316 37.198322 133.24297 37.259766 134.69922 37.400391 C 174.69922 41.000391 190.00078 114.80078 160.80078 144.80078 L 149.69922 158.09961 C 166.99922 160.69961 185.09922 164.10078 195.19922 180.30078 C 220.59922 218.50078 220.60078 274.9 221.80078 321.5 L 181.69922 321.5 L 170.69922 469.19922 C 143.09922 475.39922 113.20039 475.39922 85.900391 469.19922 L 76.199219 321.40039 L 38 321.40039 C 39 274.50039 36.2 217.59961 62 179.09961 C 71.9 163.19961 92.200391 159.59922 109.90039 157.69922 L 98.900391 143.90039 C 69.353516 110.86602 86.91716 37.664532 130.41016 37.212891 z M 276.59961 66.800781 L 289 335.5 L 246.09961 321.5 L 306.09961 465 L 366.09961 321.5 L 323.19922 335.5 L 335.59961 66.800781 L 276.59961 66.800781 z M 426.0625 244.46484 C 403.3578 244.35255 393.80352 283.55234 409.40039 300.69922 L 415.19922 307.90039 C 373.49922 308.60039 378.60039 363.30039 377.40039 393.90039 L 397.5 393.90039 L 402.59961 471.5 C 416.79961 474.7 432.49922 474.8 447.19922 471.5 L 453 393.90039 L 474.09961 393.90039 C 472.69961 364.20039 475.39922 309.8 436.19922 308 L 442 301 C 457.4 285.3 449.30078 246.49961 428.30078 244.59961 C 427.54141 244.51211 426.79491 244.46847 426.0625 244.46484 z "
   inkscape:label="path2" /></g>


</svg>
