<?xml version="1.0" encoding="UTF-8" standalone="no"?>
<!-- Generator: Adobe Illustrator 28.4.1, SVG Export Plug-In . SVG Version: 6.00 Build 0)  -->

<svg
   version="1.1"
   id="Слой_1"
   x="0px"
   y="0px"
   viewBox="0 0 512 512"
   style="enable-background:new 0 0 512 512;"
   xml:space="preserve"
   sodipodi:docname="person-shrinking.svg"
   inkscape:version="1.4 (86a8ad7, 2024-10-11)"
   xmlns:inkscape="http://www.inkscape.org/namespaces/inkscape"
   xmlns:sodipodi="http://sodipodi.sourceforge.net/DTD/sodipodi-0.dtd"
   xmlns="http://www.w3.org/2000/svg"
   xmlns:svg="http://www.w3.org/2000/svg"><defs
   id="defs8" /><sodipodi:namedview
   id="namedview8"
   pagecolor="#4c4c4c"
   bordercolor="#000000"
   borderopacity="0.25"
   inkscape:showpageshadow="2"
   inkscape:pageopacity="0.0"
   inkscape:pagecheckerboard="true"
   inkscape:deskcolor="#d1d1d1"
   inkscape:zoom="1.5761719"
   inkscape:cx="255.68278"
   inkscape:cy="256"
   inkscape:window-width="1920"
   inkscape:window-height="1009"
   inkscape:window-x="-5"
   inkscape:window-y="1072"
   inkscape:window-maximized="1"
   inkscape:current-layer="Слой_1" />
<style
   type="text/css"
   id="style1">
	.st0{fill:#FFFFFF;}
</style>



<g
   id="g8"><path
     class="st0"
     d="M256.7,54.6c-67,1.1-67.5,125.8,0,126.6C324.2,180.4,323.7,55.7,256.7,54.6z M278.8,151.7    c-39.1,39.9-74.1-32.8-44.2-67.3C273.6,43.6,308.6,118.2,278.8,151.7z"
     id="path1"
     style="enable-background:new 0 0 512 512" /><path
     class="st0"
     d="M346,18.7c-42.9,42.6,11.2,100.2,43.6,56.9c44.2,84.1-9.5,122.1-72.3,83.4c-24.1,54.7-98.1,54.2-121.7-0.6    c-68.9,41-115.8-1.2-73.4-82.8c40.8,46.8,82.6-23,43.7-56.9C15.6,59.3-42.2,198.6,92.7,245.4h-1.1c39.3,7.1,77.9,29,99.3,62.6    c-19,26.8-20.7,68.7-21,100.6c-10.5,12.6-16.8,22.3-16.8,22.3l26.3,38.7L138.3,493h76.8c-0.3-4.1-4.7-63-5-68.2h-24.2    c1.2-40.6-3.4-94.2,30.4-120.2c-13.3-28.8,2.2-73.2,35.8-76.6c37.2-3,57.5,44.1,43.7,75.5c36.8,25.8,28.7,81.1,30.2,121.3h-22.8    c-0.6,8.8-3.9,59.8-4.5,68.2h74.8l-40.4-23.5l26.3-38.7c0,0-6.6-10.1-17.5-23.1c0-32.3-0.4-74.9-20.1-101.2    c21.2-32.7,59.9-54.2,98.3-61H419C554.1,198.6,496.4,59.3,346,18.7z M375.7,64.1c-16.2,22.2-35.9-2.5-23.4-24.8    c11.6,3.7,22.8,8,33.2,12.9L375.7,64.1z M159.5,39.3c8.6,15.7,2.4,31.9-9.5,33.9c-7.8,0.8-18.4-14.8-23.8-20.9    C136.7,47.3,147.9,43,159.5,39.3z M209,237.5c-5.3,7.5-9.1,16.1-11.3,25.3c-1.6,6.8-2.4,14.7-2,21.8c-6.4-7.6-13.6-14.7-21.4-21.1    c-19-13.5-32.1-19.9-46.1-27.2c-10.9-2.2-20.3-4.6-29.6-7.9C-4.8,194.1,32.6,103,109.7,60.9c-48.1,77.5-11,161.9,79,121.1    c12.2,16.8,28.8,28.7,47.4,33.7C225.6,219.8,216.3,227.3,209,237.5z M413.3,228.4c-9.5,3.3-19.5,5.8-29.5,7.9    c-13.8,7-24.4,11.5-46.3,27.1c-7.9,6.5-15.1,13.8-21.6,21.5c0.4-7.2-0.4-15.1-2-22c-4.6-20.5-18.8-39.4-38.1-46.9    c18.9-4.8,35.9-16.6,48.3-33.6c89.8,39.8,125.6-45,77.9-121.6C479.3,102.9,516.8,194,413.3,228.4z"
     id="path2"
     style="enable-background:new 0 0 512 512" /><path
     class="st0"
     d="M308.1,406.8h-21.6c-0.1,1-5.3,80.2-5.5,83.6c-15.5,3.5-32.4,3.4-48,0c-0.2-2.2-6.3-84.3-6.2-83.6H204     c0.8-26.8,0.3-59.9,16.5-81.9c5.5-7.7,15.5-9.3,24.2-10.6l-6.3-7.6c-16.6-16.9-7.7-58.7,14.9-60.7c26.4-2.8,37.6,41,20.4,60.4     l-6.2,7.8c8.4,1.1,19.2,2.4,24.5,9.1C309.9,345.4,307.3,379.4,308.1,406.8z"
     id="path3"
     style="enable-background:new 0 0 512 512" /><path
     class="st0"
     d="M443.4,379.2l17.9,0.5l-34.5,43.4l-36-43.6l18.4-0.1c2.2-11.5-3.4-107.7-20.7-113.1   C425.3,269.4,445.5,305.2,443.4,379.2z"
     id="path6"
     style="enable-background:new 0 0 512 512" /><path
     class="st0"
     d="M69.2,379.2l-17.9,0.5l34.5,43.4l36-43.6l-18.4-0.1c-2.2-11.5,3.4-107.7,20.7-113.1   C87.4,269.4,67.2,305.2,69.2,379.2z"
     id="path7"
     style="enable-background:new 0 0 512 512" /></g>
</svg>
