<?xml version="1.0" encoding="UTF-8" standalone="no"?>
<!-- Generator: Adobe Illustrator 28.4.1, SVG Export Plug-In . SVG Version: 6.00 Build 0)  -->

<svg
   version="1.1"
   id="Слой_1"
   x="0px"
   y="0px"
   viewBox="0 0 512 512"
   style="enable-background:new 0 0 512 512;"
   xml:space="preserve"
   sodipodi:docname="person-weakens.svg"
   inkscape:version="1.4 (86a8ad7, 2024-10-11)"
   xmlns:inkscape="http://www.inkscape.org/namespaces/inkscape"
   xmlns:sodipodi="http://sodipodi.sourceforge.net/DTD/sodipodi-0.dtd"
   xmlns="http://www.w3.org/2000/svg"
   xmlns:svg="http://www.w3.org/2000/svg"><defs
   id="defs8" /><sodipodi:namedview
   id="namedview8"
   pagecolor="#4c4c4c"
   bordercolor="#000000"
   borderopacity="0.25"
   inkscape:showpageshadow="2"
   inkscape:pageopacity="0.0"
   inkscape:pagecheckerboard="true"
   inkscape:deskcolor="#d1d1d1"
   inkscape:zoom="0.55726092"
   inkscape:cx="238.66737"
   inkscape:cy="218.03072"
   inkscape:window-width="1920"
   inkscape:window-height="1001"
   inkscape:window-x="-9"
   inkscape:window-y="-9"
   inkscape:window-maximized="1"
   inkscape:current-layer="Слой_1" />
<style
   type="text/css"
   id="style1">
	.st0{fill:#FFFFFF;}
</style>



<path
   d="M 0,0 H 512 V 512 H 0 Z"
   fill="#000000"
   fill-opacity="1"
   id="path1-5"
   inkscape:label="path1" /><g
   id="g8"><path
     id="path1"
     style="enable-background:new 0 0 512 512"
     class="st0"
     d="M 165.90039 18.699219 C 15.600391 59.299219 -42.200781 198.60039 92.699219 245.40039 L 91.599609 245.40039 C 130.89961 252.50039 169.50039 274.4 190.90039 308 C 171.90039 334.8 170.20039 376.69961 169.90039 408.59961 C 159.40039 421.19961 153.09961 430.90039 153.09961 430.90039 L 179.40039 469.59961 L 138.30078 493 L 215.09961 493 C 214.79961 488.9 210.39961 430.00078 210.09961 424.80078 L 185.90039 424.80078 C 187.10039 384.20078 182.50078 330.59961 216.30078 304.59961 C 203.00078 275.79961 218.49961 231.4 252.09961 228 C 289.29961 225 309.60078 272.1 295.80078 303.5 C 332.60078 329.3 324.5 384.60078 326 424.80078 L 303.19922 424.80078 C 302.59922 433.60078 299.29922 484.6 298.69922 493 L 373.5 493 L 333.09961 469.5 L 359.40039 430.80078 C 359.40039 430.80078 352.80039 420.69922 341.90039 407.69922 C 341.90039 375.39922 341.50078 332.8 321.80078 306.5 C 343.00078 273.8 381.69961 252.3 420.09961 245.5 L 419 245.5 C 554.1 198.6 496.4 59.299219 346 18.699219 C 303.1 61.299219 357.19961 118.89961 389.59961 75.599609 C 433.79961 159.69961 380.10078 197.7 317.30078 159 C 293.20078 213.7 219.19961 213.20039 195.59961 158.40039 C 126.69961 199.40039 79.799219 157.19961 122.19922 75.599609 C 162.99922 122.39961 204.80039 52.599219 165.90039 18.699219 z M 159.5 39.300781 C 168.1 55.000781 161.9 71.199219 150 73.199219 C 142.2 73.999219 131.59922 58.400781 126.19922 52.300781 C 136.69922 47.300781 147.9 43.000781 159.5 39.300781 z M 352.30078 39.300781 C 363.90078 43.000781 375.1 47.299219 385.5 52.199219 L 375.69922 64.099609 C 359.49922 86.299609 339.80078 61.600781 352.30078 39.300781 z M 256.69922 54.599609 C 189.69922 55.699609 189.19922 180.39922 256.69922 181.19922 C 324.19922 180.39922 323.69922 55.699609 256.69922 54.599609 z M 402 60.800781 C 479.3 102.90078 516.80078 194.00039 413.30078 228.40039 C 403.80078 231.70039 393.80078 234.20078 383.80078 236.30078 C 370.00078 243.30078 359.4 247.80039 337.5 263.40039 C 329.6 269.90039 322.40039 277.20039 315.90039 284.90039 C 316.30039 277.70039 315.50039 269.80039 313.90039 262.90039 C 309.30039 242.40039 295.10078 223.5 275.80078 216 C 294.70078 211.2 311.69961 199.40039 324.09961 182.40039 C 413.89961 222.20039 449.7 137.40078 402 60.800781 z M 109.69922 60.900391 C 61.599219 138.40039 98.699219 222.8 188.69922 182 C 200.89922 198.8 217.49961 210.69922 236.09961 215.69922 C 225.59961 219.79922 216.3 227.3 209 237.5 C 203.7 245 199.89922 253.60078 197.69922 262.80078 C 196.09922 269.60078 195.29922 277.49961 195.69922 284.59961 C 189.29922 276.99961 182.10078 269.9 174.30078 263.5 C 155.30078 250 142.19922 243.60078 128.19922 236.30078 C 117.29922 234.10078 107.89961 231.70039 98.599609 228.40039 C -4.8003906 194.10039 32.599219 103.00039 109.69922 60.900391 z M 257.36133 72.509766 C 285.1455 72.210218 302.54766 125.00391 278.80078 151.69922 C 239.70078 191.59922 204.69961 118.90039 234.59961 84.400391 C 242.52148 76.112891 250.27909 72.586121 257.36133 72.509766 z M 255.73047 245.87109 C 254.93556 245.86974 254.12578 245.9125 253.30078 246 C 230.70078 248 221.80039 289.79922 238.40039 306.69922 L 244.69922 314.30078 C 235.99922 315.60078 226 317.20039 220.5 324.90039 C 204.3 346.90039 204.8 380.00078 204 406.80078 L 226.80078 406.80078 C 226.70078 406.10078 232.8 488.20039 233 490.40039 C 248.6 493.80039 265.5 493.90039 281 490.40039 C 281.2 487.00039 286.4 407.80078 286.5 406.80078 L 308.09961 406.80078 C 307.29961 379.40078 309.9 345.40078 292 323.30078 C 286.7 316.60078 275.9 315.29922 267.5 314.19922 L 273.69922 306.40039 C 290.36172 287.60664 280.37267 245.91291 255.73047 245.87109 z M 124.09961 266.30078 C 87.399609 269.40078 67.199219 305.19922 69.199219 379.19922 L 51.300781 379.69922 L 85.800781 423.09961 L 121.80078 379.5 L 103.40039 379.40039 C 101.20039 367.90039 106.79961 271.70078 124.09961 266.30078 z M 388.5 266.30078 C 405.8 271.70078 411.39922 367.90039 409.19922 379.40039 L 390.80078 379.5 L 426.80078 423.09961 L 461.30078 379.69922 L 443.40039 379.19922 C 445.50039 305.19922 425.3 269.40078 388.5 266.30078 z "
     inkscape:label="path2" /></g>
</svg>
