<?xml version="1.0" encoding="UTF-8" standalone="no"?>
<!-- Generator: Adobe Illustrator 28.4.1, SVG Export Plug-In . SVG Version: 6.00 Build 0)  -->

<svg
   version="1.1"
   id="Слой_1"
   x="0px"
   y="0px"
   viewBox="0 0 512 512"
   style="enable-background:new 0 0 512 512;"
   xml:space="preserve"
   sodipodi:docname="person-strengthens.svg"
   inkscape:version="1.4 (86a8ad7, 2024-10-11)"
   xmlns:inkscape="http://www.inkscape.org/namespaces/inkscape"
   xmlns:sodipodi="http://sodipodi.sourceforge.net/DTD/sodipodi-0.dtd"
   xmlns="http://www.w3.org/2000/svg"
   xmlns:svg="http://www.w3.org/2000/svg"><defs
   id="defs9" /><sodipodi:namedview
   id="namedview9"
   pagecolor="#959595"
   bordercolor="#000000"
   borderopacity="0.25"
   inkscape:showpageshadow="2"
   inkscape:pageopacity="0.0"
   inkscape:pagecheckerboard="true"
   inkscape:deskcolor="#d1d1d1"
   inkscape:zoom="0.78808595"
   inkscape:cx="210.63692"
   inkscape:cy="381.30359"
   inkscape:window-width="1920"
   inkscape:window-height="1001"
   inkscape:window-x="-9"
   inkscape:window-y="-9"
   inkscape:window-maximized="1"
   inkscape:current-layer="Слой_1" />
<style
   type="text/css"
   id="style1">
	.st0{fill:#FFFFFF;}
</style>
<path
   d="M 0,0 H 512 V 512 H 0 Z"
   fill="#000000"
   fill-opacity="1"
   id="path1" /><g
   id="g9">
	
	
	
	
	
	
	<path
   id="path8"
   class="st0"
   d="M 165.94531 18.84375 L 165.93945 18.845703 C 15.626601 59.437656 -42.153089 198.70625 92.753906 245.53125 L 91.660156 245.53125 C 92.295166 245.61725 92.932443 245.7185 93.564453 245.8125 C 102.54945 248.8895 112.39567 251.54495 123.09766 253.75195 C 148.32869 263.66187 170.05089 280.65029 185.81445 301.02344 C 189.1231 295.06501 193.07281 289.38001 197.9707 284.23828 C 193.78984 268.26157 195.3798 251.27171 201.45312 236.10742 C 208.13112 219.43335 221.69053 204.03879 240.56836 198.28516 C 221.08945 192.92711 205.08422 178.12812 195.75586 158.5 C 113.98186 203.88 85.243358 145.1287 122.31836 75.720703 C 159.40835 120.5257 206.66931 58.21175 165.94531 18.84375 z M 346.06836 18.84375 C 305.34636 58.21375 352.60736 120.5267 389.69336 75.720703 C 426.59336 144.8007 398.29706 203.30795 317.41406 159.12695 C 307.84925 178.84593 291.50247 193.61282 271.67969 198.62695 C 288.10959 203.92501 301.02015 216.68372 308.07227 231.06055 C 315.72359 246.65896 318.34829 264.78584 314.36914 282.02148 C 319.77557 287.21778 324.08202 293.14419 327.52344 299.38672 C 343.17347 279.75001 364.36795 263.39275 388.91211 253.75195 C 399.61811 251.54495 409.45741 248.8905 418.44141 245.8125 C 419.07441 245.7175 419.71461 245.6182 420.34961 245.5332 L 419.22461 245.5332 C 554.15161 198.7132 496.38836 59.43975 346.06836 18.84375 z M 256.72852 54.765625 C 229.34133 54.766925 205.40039 82.321861 205.40039 118.375 C 205.40039 154.431 229.34247 181.36914 256.73047 181.36914 C 284.11747 181.36914 308.05664 154.43095 308.05664 118.37695 C 308.05664 82.319818 284.11765 54.766941 256.73047 54.765625 L 256.72852 54.765625 z M 255.85938 213.99023 C 254.75691 213.97953 253.6375 214.01523 252.5 214.09961 C 219.5 217.69961 205.1 261.9 219 289.5 C 208.5779 296.98254 201.79369 307.02147 197.28711 318.39258 C 188.82872 339.73498 188.51265 365.41706 188.29102 388.75781 C 188.23302 394.86311 188.20412 401.21763 188 406.80078 L 212 406.80078 C 212.21025 409.34478 212.85046 418.05695 213.2832 423.76758 C 214.90872 445.21832 217.38883 478.81273 218.09961 487.5 C 243.49961 494.8 271.00078 494.7 296.30078 487.5 C 296.98679 477.28606 298.91884 447.50834 300.33984 425.98828 C 300.7831 419.27548 301.36184 410.15328 301.59961 406.80078 L 324 406.80078 C 324 401.10692 324.01685 394.64057 323.99805 388.19336 C 323.98165 382.52487 323.94115 376.85974 323.80078 371.90039 C 322.96587 353.89024 322.12036 333.55989 315.71484 316.56055 C 311.37939 305.05484 304.5219 295.06041 293.30078 288.40039 C 307.15391 259.33789 290.03578 214.32073 255.85938 213.99023 z M 255.83008 229.87109 C 280.4723 229.91289 290.46328 271.60664 273.80078 290.40039 L 267.59961 298.19922 C 277.69961 299.29922 289.09922 301.30078 294.69922 310.30078 C 300.29375 318.74967 303.48129 328.66802 305.33789 339.13867 C 307.35579 350.51898 307.78637 362.4483 307.95703 373.98828 C 308.04193 379.72907 308.07575 385.45062 308.19922 390.80078 L 286.40039 390.80078 C 286.40039 390.63498 285.47084 404.87265 284.88086 413.875 C 283.33583 437.45001 281.04512 472.63636 280.90039 474.30078 C 265.40039 477.80078 248.50039 477.70078 232.90039 474.30078 C 232.82749 472.91533 230.13103 436.86061 228.37891 413.33984 C 227.72818 404.60432 226.67214 390.40132 226.69922 390.69922 L 204 390.69922 C 204.12107 385.51342 204.26549 379.93087 204.46094 374.33594 C 204.83734 363.56096 205.60614 352.44598 207.5957 341.72266 C 209.69287 330.41939 213.10151 319.68948 219 310.80078 C 224.8 301.60078 235.00078 299.59922 244.80078 298.19922 C 238.30078 290.99922 231.50078 282.40078 230.30078 272.30078 C 227.40078 255.80078 235.20039 233.1 253.40039 230 C 254.22539 229.9125 255.03517 229.86974 255.83008 229.87109 z M 85.800781 256.30078 L 51.300781 299.69922 L 69.199219 300.19922 C 67.199219 374.19922 87.399609 409.99961 124.09961 413.09961 C 106.79961 407.69961 101.20039 311.5 103.40039 300 L 121.80078 299.90039 L 85.800781 256.30078 z M 426.80078 256.30078 L 390.80078 299.90039 L 409.19922 300 C 411.39922 311.5 405.8 407.69961 388.5 413.09961 C 425.3 409.99961 445.50039 374.19922 443.40039 300.19922 L 461.30078 299.69922 L 426.80078 256.30078 z M 342 407.72656 L 342 424.80078 L 318.45703 424.80078 C 317.05128 446.01462 314.98127 477.96468 314.25977 488.70703 L 313.96094 493.15625 L 373.69141 493.15625 L 333.31641 469.6875 L 359.59961 431.00195 C 359.59961 431.00195 352.92698 420.79401 342 407.72656 z M 169.91211 408.87695 C 159.57007 421.37059 153.25391 431.00195 153.25391 431.00195 L 179.53516 469.6875 L 138.31445 493.15625 L 200.50195 493.15625 L 200.16016 488.96875 C 199.40837 479.78021 196.90757 445.90655 195.30859 424.80078 L 169.33008 424.80078 L 169.91211 408.87695 z " />
	
</g>
</svg>
