<?xml version="1.0" encoding="UTF-8" standalone="no"?>
<!-- Generator: Adobe Illustrator 28.1.0, SVG Export Plug-In . SVG Version: 6.00 Build 0)  -->

<svg
   version="1.1"
   id="svg1"
   x="0px"
   y="0px"
   viewBox="0 0 512 512"
   style="enable-background:new 0 0 512 512;"
   xml:space="preserve"
   sodipodi:docname="poison-shield.svg"
   inkscape:version="1.4 (86a8ad7, 2024-10-11)"
   xmlns:inkscape="http://www.inkscape.org/namespaces/inkscape"
   xmlns:sodipodi="http://sodipodi.sourceforge.net/DTD/sodipodi-0.dtd"
   xmlns="http://www.w3.org/2000/svg"
   xmlns:svg="http://www.w3.org/2000/svg"><defs
   id="defs11" />
<style
   type="text/css"
   id="style1">
	.st0{fill:#FFFFFF;}
</style>
<sodipodi:namedview
   bordercolor="#000000"
   borderopacity="0.25"
   id="namedview1"
   inkscape:current-layer="svg1"
   inkscape:cx="236.05619"
   inkscape:cy="256"
   inkscape:deskcolor="#d1d1d1"
   inkscape:pagecheckerboard="0"
   inkscape:pageopacity="0.0"
   inkscape:showpageshadow="2"
   inkscape:window-height="1001"
   inkscape:window-maximized="1"
   inkscape:window-width="1920"
   inkscape:window-x="-9"
   inkscape:window-y="-9"
   inkscape:zoom="1.5292969"
   pagecolor="#838383">
	</sodipodi:namedview>
<path
   d="M -20,0 H 492 V 512 H -20 Z"
   fill="#000000"
   fill-opacity="1"
   id="path1-8"
   style="enable-background:new 0 0 512 512"
   inkscape:label="path1" /><g
   id="g1"
   transform="translate(0,0)">
	
<path
   id="path11"
   style="stroke-width:1"
   class="st0"
   d="M 51 24.300781 C 52.1 222.40078 59.1 401.1 257.5 487.5 C 453.7 402.4 463.3 221.40039 464.5 24.400391 L 453.5 26.400391 C 322.6 49.900391 188.8 51.800781 51 24.300781 z M 445.69922 46.5 C 444.89922 141.7 434.39922 254.69922 406.19922 324.19922 C 377.59922 394.89922 331.1 422.00078 257.5 465.80078 C 78.8 384.80078 74.400391 228.69922 69.900391 46.699219 C 199.40039 69.699219 323.29922 67.3 445.69922 46.5 z M 256.81445 116.55078 C 234.26841 235.76434 167.06055 259.76307 167.06055 343.32031 C 167.06055 385.24587 212.69325 416.10352 256.81445 416.10352 C 446.89163 384.16956 277.95811 247.42122 256.81445 116.55078 z M 256.85352 273.1543 C 268.29706 273.19745 279.70016 275.78937 289.5 281.2168 C 315.71383 293.16754 327.25749 327.55075 307.83984 349.19922 C 303.95631 353.70525 299.10093 356.64331 300.17969 363.40234 C 300.39544 369.86749 299.85638 376.33216 299.64062 383.28711 C 290.57905 378.2913 281.733 373.58925 272.7793 368.69141 C 267.38551 377.31162 262.09933 385.83426 256.59766 394.65039 C 250.98812 385.73631 245.59542 377.21456 240.09375 368.39844 C 230.81643 373.39423 221.75479 378.29101 212.26172 383.38477 C 211.9381 376.23392 211.39799 369.47583 211.50586 362.7168 C 209.9956 347.53348 191.22467 344.79137 194.46094 317.95117 C 198.10512 289.57734 227.60891 273.04401 256.85352 273.1543 z M 219.48828 316.38281 C 196.29498 315.99098 210.21107 345.67217 225.96094 344.30078 C 234.91463 344.69261 243.54547 337.63929 245.27148 328.5293 C 245.70298 326.37425 245.48746 324.61148 242.89844 323.92578 C 235.45501 320.49729 226.50021 316.77464 219.48828 316.38281 z M 293.93555 316.49609 C 284.88164 316.50815 272.50977 321.5557 267.16992 324.80664 C 266.63054 325.19847 266.30618 326.37486 266.41406 327.06055 C 268.57158 348.21925 299.6411 350.37474 304.17188 328.82422 C 306.01251 319.52443 300.97747 316.48672 293.93555 316.49609 z M 255.84375 339.5 C 252.4996 347.04269 249.37104 353.99923 246.13477 361.24805 L 265.66016 361.24805 C 262.42389 353.99923 259.29578 347.04269 255.84375 339.5 z " /></g>


</svg>
