<?xml version="1.0" encoding="UTF-8" standalone="no"?>
<!-- Generator: Adobe Illustrator 28.1.0, SVG Export Plug-In . SVG Version: 6.00 Build 0)  -->

<svg
   version="1.1"
   id="svg1"
   x="0px"
   y="0px"
   viewBox="0 0 512 512"
   style="enable-background:new 0 0 512 512;"
   xml:space="preserve"
   sodipodi:docname="poison-shield.svg"
   inkscape:version="1.4 (86a8ad7, 2024-10-11)"
   xmlns:inkscape="http://www.inkscape.org/namespaces/inkscape"
   xmlns:sodipodi="http://sodipodi.sourceforge.net/DTD/sodipodi-0.dtd"
   xmlns="http://www.w3.org/2000/svg"
   xmlns:svg="http://www.w3.org/2000/svg"><defs
   id="defs11" />
<style
   type="text/css"
   id="style1">
	.st0{fill:#FFFFFF;}
</style>
<sodipodi:namedview
   bordercolor="#000000"
   borderopacity="0.25"
   id="namedview1"
   inkscape:current-layer="g1"
   inkscape:cx="236.05619"
   inkscape:cy="256"
   inkscape:deskcolor="#d1d1d1"
   inkscape:pagecheckerboard="0"
   inkscape:pageopacity="0.0"
   inkscape:showpageshadow="2"
   inkscape:window-height="1001"
   inkscape:window-maximized="1"
   inkscape:window-width="1920"
   inkscape:window-x="-9"
   inkscape:window-y="-9"
   inkscape:zoom="1.5292969"
   pagecolor="#838383">
	</sodipodi:namedview>
<g
   id="g1"
   transform="translate(0,0)">
	
<path
   class="st0"
   d="m 265.65953,361.24719 h -19.52552 c 3.23627,-7.24882 6.36467,-14.20375 9.70882,-21.74644 3.45203,7.54269 6.58043,14.49762 9.8167,21.74644 z"
   id="path11"
   style="stroke-width:1" /><path
   class="st0"
   d="m 304.17119,328.82345 c -4.53078,21.55052 -35.59901,19.39547 -37.75653,-1.76323 -0.10788,-0.68569 0.21575,-1.86118 0.75513,-2.25301 9.49307,-5.77945 41.20856,-17.24042 37.0014,4.01624 z"
   id="path9"
   style="enable-background:new 0 0 512 512;stroke-width:1" /><path
   class="st0"
   d="m 245.271,328.52958 c -1.72601,9.10999 -10.35608,16.16289 -19.30977,15.77106 -15.74987,1.37139 -29.66585,-28.30955 -6.47255,-27.91772 7.01193,0.39183 15.96562,4.11419 23.40905,7.54268 2.58902,0.6857 2.80477,2.44893 2.37327,4.60398 z"
   id="path6"
   style="enable-background:new 0 0 512 512;stroke-width:1" /><path
   class="st0"
   d="m 256.81371,116.55081 v 0 c -22.54604,119.21356 -89.75267,143.21302 -89.75267,226.77026 0,41.92556 45.63147,72.78199 89.75267,72.78199 190.07718,-31.93396 21.14366,-168.68181 0,-299.55225 z m 51.02526,232.64767 c -3.88353,4.50603 -8.73794,7.44473 -7.65918,14.20376 0.21575,6.46515 -0.32363,12.93031 -0.53938,19.88526 -9.06157,-4.99581 -17.90738,-9.69775 -26.86108,-14.59559 -5.39379,8.62021 -10.6797,17.14246 -16.18137,25.95859 -5.60954,-8.91408 -11.00333,-17.43633 -16.505,-26.25245 -9.27732,4.99579 -18.33889,9.89364 -27.83196,14.9874 -0.32362,-7.15085 -0.863,-13.90988 -0.75513,-20.66891 -1.51026,-15.18332 -20.28065,-17.92611 -17.04438,-44.76631 5.07017,-39.47664 60.19471,-56.03136 95.03859,-36.73384 26.21383,11.95074 37.75654,46.33362 18.33889,67.98209 z"
   id="path5"
   style="enable-background:new 0 0 512 512;stroke-width:1" /><path
   class="st0"
   d="M453.5,26.4C322.6,49.9,188.8,51.8,51,24.3c1.1,198.1,8.1,376.8,206.5,463.2c196.2-85.1,205.8-266.1,207-463.1   L453.5,26.4z M406.2,324.2c-28.6,70.7-75.1,97.8-148.7,141.6C78.8,384.8,74.4,228.7,69.9,46.7c129.5,23,253.4,20.6,375.8-0.2   C444.9,141.7,434.4,254.7,406.2,324.2z"
   id="path1"
   style="enable-background:new 0 0 512 512" /></g>


</svg>
