<?xml version="1.0" encoding="UTF-8" standalone="no"?>
<!-- Generator: Adobe Illustrator 28.4.1, SVG Export Plug-In . SVG Version: 6.00 Build 0)  -->

<svg
   version="1.1"
   id="Слой_1"
   x="0px"
   y="0px"
   viewBox="0 0 512 512"
   style="enable-background:new 0 0 512 512;"
   xml:space="preserve"
   sodipodi:docname="pouch-with-beads.svg"
   inkscape:version="1.4 (86a8ad7, 2024-10-11)"
   xmlns:inkscape="http://www.inkscape.org/namespaces/inkscape"
   xmlns:sodipodi="http://sodipodi.sourceforge.net/DTD/sodipodi-0.dtd"
   xmlns="http://www.w3.org/2000/svg"
   xmlns:svg="http://www.w3.org/2000/svg"><defs
   id="defs413" /><sodipodi:namedview
   id="namedview413"
   pagecolor="#434343"
   bordercolor="#000000"
   borderopacity="0.25"
   inkscape:showpageshadow="2"
   inkscape:pageopacity="0.0"
   inkscape:pagecheckerboard="0"
   inkscape:deskcolor="#d1d1d1"
   inkscape:zoom="1.5292969"
   inkscape:cx="255.67305"
   inkscape:cy="256"
   inkscape:window-width="1920"
   inkscape:window-height="1001"
   inkscape:window-x="-9"
   inkscape:window-y="-9"
   inkscape:window-maximized="1"
   inkscape:current-layer="g413" />
<style
   type="text/css"
   id="style1">
	.st0{fill:none;}
	.st1{fill:#FFFFFF;}
</style>
<g
   id="g413"
   inkscape:label="g1">
	<path
   class="st1"
   d="M207.9,441c0.9,13.4-14.5,31.1-32.5,31.5c-24.6,0.9-46.3-24.4-35.3-47.1c6.2-12.5,24.9-26.1,40.6-21.9    C195.7,407.7,207.3,425.3,207.9,441z"
   id="path410"
   style="enable-background:new 0 0 512 512" /><path
   class="st1"
   d="M113.9,425.6c-3.4,19.6-22.9,28.5-41.5,25.4c-23.9-0.3-33.6-32.8-20.6-54.7c7.3-12.5,25.8-16.1,40.1-11.2    C104.5,390.2,118,409.8,113.9,425.6z"
   id="path407"
   style="enable-background:new 0 0 512 512" /><path
   class="st1"
   d="M454.6,419.6c0.5,13.2,20,7.4-42.7,24.8c-66.3,17.1-183.8,0.6-188-0.5c1.6-17.3-10.3-38.3-23.5-48.2    c-22.2-18.7-55.8-5.2-70.5,15.6c-3.6-21.9-24.4-43.8-45.7-44c-3.2-11.5,0.2-18.6,2.1-21.6c21.5,11.8,45.7,18.9,70,21.3l0.4-1.6    C82.1,327,53.5,329,113.3,237c82.7,32.5,217.7,32,308.1-7.3c19.3,33.4,44.2,59.8,37.1,91.1c-71.1,5.3-132.3,68.2-207.2,48.2    l-0.5,1.5c71.9,25.4,137.1-25,206.2-33.9c7.6,8.6,2,23.3,7.5,32.9C470.9,380.6,454,406.5,454.6,419.6z"
   id="path403"
   style="enable-background:new 0 0 512 512" /><path
   class="st1"
   d="M418,213.5c-52.9,26.7-123.9,32.9-183.3,27.7c-40.6,0.5-84.5-1.2-120.4-21.7c-6.7-3.7-4-14.6,3.6-14.8     c5.5,0.2,10.3,4.8,15.9,6.5c37.2,16.8,79.5,13.2,119.2,14.7c50.5,5.1,114.4-5.1,157.6-26.4C419.5,194.4,427.4,208.8,418,213.5z"
   id="path404"
   style="enable-background:new 0 0 512 512" />
	
	<path
   class="st1"
   d="M437.5,145.5c0,1.2-0.1,2.4-0.3,3.6c0,0-15,10.3-25.5,33.5c-54.6,21.1-91.6,32.3-158.1,27.2     c-47.3-1.4-87.2,2.2-127.7-20c13.2-8.2-44.9-48.9-31-58.6c4.1,1.3,6.3,6,9.1,9.1v0c70.2,86.1,45.6,1.2,103.7,3.5     c15.5,0.2,31.9,3,47,7.3c21.2,9.8,30.3,33.8,47.7,48.2c7.1,6.5,16.7,5.9,22.5-2c24.9-42.2,87.7-53.9,106-59.8     C435.3,136.7,437.8,141.4,437.5,145.5z"
   id="path396"
   style="enable-background:new 0 0 512 512" /><path
   class="st1"
   d="m 408.8,126.1 c 0,0.4 0,0.7 0,1.1 -10.6,3 -25.3,7.4 -40.4,14.3 -1.2,-17.4 -7.4,-31.1 -19.9,-40.3 24.7,-18.8 59.9,-10.4 60.3,24.9 z"
   id="path250"
   style="enable-background:new 0 0 512 512" /><path
   class="st1"
   d="M352.5,143.3c0.1,2.1-0.2,4.5-1,6.9c-12,7.1-23.5,16.1-32.4,27.5c-26.9,3.3-47.4-38.5-28.4-58     C314.7,99.2,352.1,107,352.5,143.3z"
   id="path377"
   style="enable-background:new 0 0 512 512" /><path
   class="st1"
   d="m 341.8,86 c -3.8,2.7 -6.6,5.5 -8.8,8.2 -16.5,-4.8 -42.6,3.1 -50.8,11.5 C 282.1,95 279.4,84.8 274.9,76.9 287.3,47.7 340.4,51 341.8,86 Z"
   id="path221"
   style="enable-background:new 0 0 512 512" /><path
   class="st1"
   d="M266.3,104.8c0.4,8.7-6.6,21.1-16.9,28.4c-17.2-3.8-30.6-5.6-43.4-5.4C166.8,75,262.9,40.8,266.3,104.8z"
   id="path391"
   style="enable-background:new 0 0 512 512" /><path
   class="st1"
   d="M 212.9,57.9 C 193,65.5 184.4,76.4 181.5,94.8 173,88.3 161.7,85.2 150.2,86 131.5,45 195.4,20.6 212.9,57.9 Z"
   id="path278"
   style="enable-background:new 0 0 512 512" /><path
   class="st1"
   d="m 184.2,131 c -16.5,3.7 -24.8,20 -34.4,31.3 C 136,156.5 123.2,139 115.6,129.3 119.3,93 183,92.5 184.2,131 Z"
   id="path312"
   style="enable-background:new 0 0 512 512" />
</g>
</svg>
