<svg xmlns="http://www.w3.org/2000/svg" viewBox="0 0 512 512"><path d="M0 0h512v512H0z"/><path fill="#fff" d="M183.67 39.476c-22.415-.138-45.717 19.62-33.445 46.525 11.5-.8 22.8 2.301 31.3 8.801 2.9-18.4 11.5-29.3 31.4-36.9-6.015-12.822-17.514-18.354-29.255-18.426zm124.586 17.676c-13.735-.04-27.711 6.519-33.33 19.75 4.5 7.9 7.199 18.099 7.299 28.799 8.2-8.4 34.3-16.3 50.8-11.5 2.2-2.7 5.001-5.5 8.801-8.2-.765-19.14-16.993-28.8-33.57-28.85zm-74.76 12.857c-25.004.35-51.358 25.618-27.47 57.793 12.8-.2 26.2 1.599 43.4 5.399 10.3-7.3 17.3-19.699 16.9-28.399-1.328-25-16.802-35.017-32.83-34.793zM375.88 91.445c-9.132.046-18.863 3.293-27.354 9.756 12.5 9.2 18.7 22.9 19.9 40.3 15.1-6.9 29.801-11.3 40.401-14.3v-1.1c-.262-23.166-15.513-34.745-32.947-34.656zM150.863 102.1c-16.537-.15-33.388 9.051-35.238 27.201 7.6 9.7 20.401 27.2 34.201 33 9.6-11.3 17.899-27.6 34.399-31.3-.6-19.25-16.824-28.751-33.362-28.901zm169.858 6.488c-10.111-.282-20.996 3.424-29.996 11.112-19 19.5 1.5 61.3 28.4 58 8.9-11.4 20.4-20.4 32.4-27.5.8-2.4 1.1-4.799 1-6.899-.25-22.687-14.953-34.242-31.804-34.713zM94.926 131.201c-13.9 9.7 44.2 50.401 31 58.601 40.5 22.2 80.4 18.6 127.7 20 66.5 5.1 103.499-6.101 158.099-27.201 10.5-23.2 25.5-33.5 25.5-33.5.2-1.2.3-2.4.3-3.6.3-4.1-2.2-8.8-6.6-8-18.3 5.9-81.1 17.601-106 59.801-5.8 7.9-15.4 8.5-22.5 2-17.4-14.4-26.5-38.401-47.7-48.201-15.1-4.3-31.5-7.099-47-7.299-58.1-2.3-33.5 82.6-103.7-3.5-2.8-3.1-5-7.801-9.1-9.101zm318.959 67.246c-1.05.085-2.147.417-3.26 1.054-43.2 21.3-107.1 31.5-157.6 26.4-39.7-1.5-81.999 2.1-119.199-14.7-5.6-1.7-10.4-6.3-15.9-6.5-7.6.2-10.3 11.1-3.6 14.8 35.9 20.5 79.799 22.2 120.399 21.7 59.4 5.2 130.4-1 183.3-27.7 8.225-4.112 3.206-15.65-4.14-15.054zm7.54 31.254c-90.4 39.3-225.399 39.8-308.099 7.3-59.8 92-31.201 90 43.399 128.4l-.399 1.6c-24.3-2.4-48.5-9.5-70-21.3-1.9 3-5.301 10.101-2.101 21.601 21.3.2 42.1 22.1 45.7 44 14.7-20.8 48.3-34.301 70.5-15.601 13.2 9.9 25.1 30.9 23.5 48.2 4.2 1.1 121.7 17.6 188 .5 62.7-17.4 43.2-11.6 42.7-24.8-.6-13.1 16.3-39 9.9-50.1-5.5-9.6.1-24.3-7.5-32.9-69.1 8.9-134.299 59.3-206.199 33.9l.5-1.5c74.9 20 136.1-42.899 207.2-48.199 7.1-31.3-17.8-57.701-37.1-91.101zM79.206 382.994c-11.1-.063-22.132 4.324-27.379 13.308-13 21.9-3.3 54.4 20.6 54.7 18.6 3.1 38.1-5.801 41.5-25.401 4.1-15.8-9.4-35.4-22-40.5-4.022-1.378-8.377-2.083-12.72-2.107zm95.524 19.73c-14.182-.04-29.179 11.74-34.604 22.678-11 22.7 10.7 48 35.3 47.1 18-.4 33.4-18.1 32.5-31.5-.6-15.7-12.2-33.3-27.2-37.5a23.39 23.39 0 0 0-5.996-.778z"/></svg>
