<?xml version="1.0" encoding="UTF-8" standalone="no"?>
<!-- Generator: Adobe Illustrator 28.4.1, SVG Export Plug-In . SVG Version: 6.00 Build 0)  -->

<svg
   version="1.1"
   id="Слой_1"
   x="0px"
   y="0px"
   viewBox="0 0 512 512"
   style="enable-background:new 0 0 512 512;"
   xml:space="preserve"
   sodipodi:docname="pouch-with-beads.svg"
   inkscape:version="1.4 (86a8ad7, 2024-10-11)"
   xmlns:inkscape="http://www.inkscape.org/namespaces/inkscape"
   xmlns:sodipodi="http://sodipodi.sourceforge.net/DTD/sodipodi-0.dtd"
   xmlns="http://www.w3.org/2000/svg"
   xmlns:svg="http://www.w3.org/2000/svg"><defs
   id="defs413" /><sodipodi:namedview
   id="namedview413"
   pagecolor="#000000"
   bordercolor="#000000"
   borderopacity="0.25"
   inkscape:showpageshadow="2"
   inkscape:pageopacity="0.0"
   inkscape:pagecheckerboard="true"
   inkscape:deskcolor="#d1d1d1"
   inkscape:zoom="0.76464845"
   inkscape:cx="449.87994"
   inkscape:cy="268.75095"
   inkscape:window-width="1920"
   inkscape:window-height="1001"
   inkscape:window-x="-9"
   inkscape:window-y="-9"
   inkscape:window-maximized="1"
   inkscape:current-layer="Слой_1" />
<style
   type="text/css"
   id="style1">
	.st0{fill:none;}
	.st1{fill:#FFFFFF;}
</style>
<path
   d="M 0,5e-7 H 512 V 512 H 0 Z"
   fill="#000000"
   fill-opacity="1"
   id="path1"
   style="enable-background:new 0 0 512 512" /><g
   id="g413"
   inkscape:label="g1">
	<path
   id="path410"
   style="enable-background:new 0 0 512 512"
   class="st1"
   d="M 183.64453 39.474609 C 161.22911 39.336502 137.92734 59.09375 150.19922 86 C 161.69922 85.2 173 88.300781 181.5 94.800781 C 184.4 76.400781 193.00039 65.500391 212.90039 57.900391 C 206.88477 45.078516 195.38594 39.546951 183.64453 39.474609 z M 308.23047 57.150391 C 294.49507 57.110123 280.51914 63.669141 274.90039 76.900391 C 279.40039 84.800391 282.09922 94.999219 282.19922 105.69922 C 290.39922 97.299219 316.5 89.399219 333 94.199219 C 335.2 91.499219 338.00078 88.7 341.80078 86 C 341.03516 66.859375 324.80767 57.19899 308.23047 57.150391 z M 233.4707 70.007812 C 208.46693 70.356834 182.1125 95.625781 206 127.80078 C 218.8 127.60078 232.20039 129.39922 249.40039 133.19922 C 259.70039 125.89922 266.70078 113.50078 266.30078 104.80078 C 264.97266 79.800781 249.49876 69.784081 233.4707 70.007812 z M 375.85352 91.443359 C 366.72148 91.48992 356.99063 94.736719 348.5 101.19922 C 361 110.39922 367.20039 124.1 368.40039 141.5 C 383.50039 134.6 398.20078 130.19922 408.80078 127.19922 L 408.80078 126.09961 C 408.53828 102.93398 393.2874 91.354471 375.85352 91.443359 z M 150.83789 102.09961 C 134.30039 101.94961 117.44961 111.15078 115.59961 129.30078 C 123.19961 139.00078 136.00078 156.50078 149.80078 162.30078 C 159.40078 151.00078 167.69922 134.7 184.19922 131 C 183.59922 111.75 167.37539 102.24961 150.83789 102.09961 z M 320.69531 108.58789 C 310.58437 108.30547 299.69922 112.01172 290.69922 119.69922 C 271.69922 139.19922 292.19961 180.99922 319.09961 177.69922 C 327.99961 166.29922 339.5 157.29922 351.5 150.19922 C 352.3 147.79922 352.6 145.40078 352.5 143.30078 C 352.25 120.61328 337.54688 109.05859 320.69531 108.58789 z M 94.900391 131.19922 C 81.000391 140.89922 139.10039 181.60078 125.90039 189.80078 C 166.40039 212.00078 206.29961 208.40078 253.59961 209.80078 C 320.09961 214.90078 357.09922 203.69961 411.69922 182.59961 C 422.19922 159.39961 437.19922 149.09961 437.19922 149.09961 C 437.39922 147.89961 437.5 146.7 437.5 145.5 C 437.8 141.4 435.30039 136.7 430.90039 137.5 C 412.60039 143.4 349.80039 155.10078 324.90039 197.30078 C 319.10039 205.20078 309.50039 205.80078 302.40039 199.30078 C 285.00039 184.90078 275.89922 160.89961 254.69922 151.09961 C 239.59922 146.79961 223.19922 144.00078 207.69922 143.80078 C 149.59922 141.50078 174.2 226.40078 104 140.30078 C 101.2 137.20078 99.000391 132.49922 94.900391 131.19922 z M 413.85938 198.44531 C 412.80996 198.53047 411.71211 198.8625 410.59961 199.5 C 367.39961 220.8 303.5 231.00039 253 225.90039 C 213.3 224.40039 171.00078 227.99922 133.80078 211.19922 C 128.20078 209.49922 123.40039 204.89922 117.90039 204.69922 C 110.30039 204.89922 107.60078 215.8 114.30078 219.5 C 150.20078 240 194.09922 241.69922 234.69922 241.19922 C 294.09922 246.39922 365.1 240.2 418 213.5 C 426.225 209.3875 421.20527 197.84922 413.85938 198.44531 z M 421.40039 229.69922 C 331.00039 268.99922 196.00078 269.5 113.30078 237 C 53.500781 329 82.099219 327.00039 156.69922 365.40039 L 156.30078 367 C 132.00078 364.6 107.80078 357.49922 86.300781 345.69922 C 84.400781 348.69922 80.999219 355.80078 84.199219 367.30078 C 105.49922 367.50078 126.30039 389.40078 129.90039 411.30078 C 144.60039 390.50078 178.20039 376.99922 200.40039 395.69922 C 213.60039 405.59922 225.50039 426.60039 223.90039 443.90039 C 228.10039 445.00039 345.60039 461.50039 411.90039 444.40039 C 474.60039 427.00039 455.09961 432.79961 454.59961 419.59961 C 453.99961 406.49961 470.9 380.6 464.5 369.5 C 459 359.9 464.6 345.19961 457 336.59961 C 387.9 345.49961 322.70078 395.9 250.80078 370.5 L 251.30078 369 C 326.20078 389 387.4 326.10078 458.5 320.80078 C 465.6 289.50078 440.70039 263.09922 421.40039 229.69922 z M 79.179688 382.99219 C 68.079071 382.92958 57.047656 387.31641 51.800781 396.30078 C 38.800781 418.20078 48.500391 450.7 72.400391 451 C 91.000391 454.1 110.50039 445.19961 113.90039 425.59961 C 118.00039 409.79961 104.50039 390.19961 91.900391 385.09961 C 87.878516 383.72148 83.523407 383.01669 79.179688 382.99219 z M 174.70312 402.72266 C 160.52129 402.68301 145.52461 414.46289 140.09961 425.40039 C 129.09961 448.10039 150.80039 473.4 175.40039 472.5 C 193.40039 472.1 208.80039 454.4 207.90039 441 C 207.30039 425.3 195.69922 407.7 180.69922 403.5 C 178.73672 402.975 176.7291 402.72832 174.70312 402.72266 z "
   inkscape:label="path2" />
	
	
</g>
</svg>
