<?xml version="1.0" encoding="utf-8"?>
<!-- Generator: Adobe Illustrator 28.4.1, SVG Export Plug-In . SVG Version: 6.00 Build 0)  -->
<svg version="1.1" id="Слой_1" xmlns="http://www.w3.org/2000/svg" xmlns:xlink="http://www.w3.org/1999/xlink" x="0px" y="0px"
	 viewBox="0 0 512 512" style="enable-background:new 0 0 512 512;" xml:space="preserve">
<style type="text/css">
	.st0{fill:none;}
	.st1{fill:#FFFFFF;}
</style>
<g>
	<g>
		<g>
			<path class="st0" d="M378.4,91.6c0.3,0,0.6,0,0.9,0C379,91.6,378.7,91.6,378.4,91.6z"/>
			<path class="st0" d="M387.9,93.2c0.3,0.1,0.5,0.2,0.8,0.3C388.4,93.3,388.2,93.3,387.9,93.2z"/>
			<path class="st0" d="M392.1,94.9c0.3,0.1,0.5,0.3,0.8,0.4C392.6,95.2,392.4,95.1,392.1,94.9z"/>
			<path class="st0" d="M386.4,92.7c0.3,0.1,0.5,0.2,0.8,0.2C386.9,92.9,386.7,92.8,386.4,92.7z"/>
			<path class="st0" d="M390.7,94.3c0.3,0.1,0.5,0.2,0.8,0.4C391.3,94.5,391,94.4,390.7,94.3z"/>
			<path class="st0" d="M381.7,91.8c0.3,0,0.6,0.1,0.9,0.1C382.3,91.9,382,91.9,381.7,91.8z"/>
			<path class="st0" d="M380.1,91.7c0.3,0,0.6,0,0.9,0.1C380.7,91.7,380.4,91.7,380.1,91.7z"/>
			<path class="st0" d="M383.3,92.1c0.3,0,0.6,0.1,0.9,0.2C383.9,92.2,383.6,92.1,383.3,92.1z"/>
			<path class="st0" d="M384.9,92.4c0.3,0.1,0.6,0.1,0.8,0.2C385.4,92.5,385.2,92.4,384.9,92.4z"/>
			<path class="st0" d="M389.3,93.7c0.3,0.1,0.5,0.2,0.8,0.3C389.9,93.9,389.6,93.8,389.3,93.7z"/>
			<path class="st0" d="M400.8,102c0.2,0.2,0.4,0.5,0.6,0.7C401.2,102.5,401,102.3,400.8,102z"/>
			<path class="st0" d="M398.7,99.7c0.2,0.2,0.5,0.5,0.7,0.7C399.1,100.1,398.9,99.9,398.7,99.7z"/>
			<path class="st0" d="M399.8,100.8c0.2,0.2,0.4,0.5,0.6,0.7C400.2,101.3,400,101.1,399.8,100.8z"/>
			<path class="st0" d="M401.8,103.3c0.2,0.2,0.4,0.5,0.5,0.7C402.2,103.8,402,103.6,401.8,103.3z"/>
			<path class="st0" d="M393.4,95.6c0.3,0.2,0.5,0.3,0.8,0.5C394,96,393.7,95.8,393.4,95.6z"/>
			<path class="st0" d="M394.7,96.4c0.3,0.2,0.6,0.4,1,0.7C395.4,96.9,395,96.7,394.7,96.4z"/>
			<path class="st0" d="M397.4,98.5c0.3,0.3,0.6,0.5,0.9,0.8C398,99,397.7,98.7,397.4,98.5z"/>
			<path class="st0" d="M396,97.3c0.4,0.3,0.8,0.6,1.2,0.9C396.8,97.9,396.4,97.6,396,97.3z"/>
			<path class="st0" d="M340,77.9c0.1,0.3,0.2,0.6,0.3,1C340.2,78.5,340.1,78.2,340,77.9z"/>
			<path class="st0" d="M335.4,68.8c0.2,0.2,0.4,0.5,0.5,0.7C335.7,69.3,335.5,69.1,335.4,68.8z"/>
			<path class="st0" d="M333.3,66.4c0.2,0.2,0.4,0.5,0.6,0.7C333.8,66.8,333.5,66.6,333.3,66.4z"/>
			<path class="st0" d="M377.4,91.6c-0.3,0-0.6,0-0.8,0c0.4,0,0.7,0,1.1,0C377.6,91.6,377.5,91.6,377.4,91.6z"/>
			<path class="st0" d="M336.3,70.2c0.2,0.3,0.3,0.5,0.5,0.8C336.6,70.7,336.4,70.4,336.3,70.2z"/>
			<path class="st0" d="M334.4,67.6c0.2,0.2,0.4,0.5,0.6,0.7C334.8,68,334.6,67.8,334.4,67.6z"/>
			<path class="st0" d="M328.3,62c0.3,0.2,0.6,0.4,1,0.7C328.9,62.4,328.6,62.2,328.3,62z"/>
			<path class="st0" d="M329.5,62.8c0.4,0.3,0.8,0.6,1.2,0.9C330.3,63.5,329.9,63.1,329.5,62.8z"/>
			<path class="st0" d="M330.9,64c0.3,0.3,0.6,0.5,0.9,0.8C331.5,64.5,331.2,64.3,330.9,64z"/>
			<path class="st0" d="M332.2,65.2c0.2,0.2,0.5,0.5,0.7,0.7C332.7,65.7,332.5,65.4,332.2,65.2z"/>
			<path class="st0" d="M337.1,71.6c0.2,0.3,0.3,0.5,0.4,0.8C337.4,72.1,337.3,71.9,337.1,71.6z"/>
			<path class="st0" d="M337.9,73.1c0.1,0.3,0.3,0.6,0.4,0.8C338.2,73.6,338.1,73.3,337.9,73.1z"/>
			<path class="st0" d="M327,61.2c0.3,0.2,0.5,0.3,0.8,0.5C327.5,61.5,327.3,61.3,327,61.2z"/>
			<path class="st0" d="M340.5,79.7c0.1,0.3,0.2,0.7,0.3,1C340.7,80.3,340.6,80,340.5,79.7z"/>
			<path class="st0" d="M341.8,86L341.8,86c0-0.2-0.1-0.5-0.1-0.7C341.8,85.6,341.8,85.8,341.8,86z"/>
			<path class="st0" d="M341.4,83.4c0.1,0.4,0.1,0.7,0.2,1.1C341.5,84.1,341.5,83.7,341.4,83.4z"/>
			<path class="st0" d="M402.7,104.7c0.2,0.3,0.3,0.5,0.5,0.8C403.1,105.2,402.9,104.9,402.7,104.7z"/>
			<path class="st0" d="M338.7,74.6c0.1,0.3,0.3,0.6,0.4,0.9C338.9,75.2,338.8,74.9,338.7,74.6z"/>
			<path class="st0" d="M339.3,76.2c0.1,0.3,0.2,0.6,0.3,0.9C339.6,76.8,339.5,76.5,339.3,76.2z"/>
			<path class="st0" d="M341,81.5c0.1,0.3,0.2,0.7,0.2,1.1C341.1,82.2,341.1,81.8,341,81.5z"/>
			<path class="st0" d="M93.1,132.7c0-0.1,0-0.1,0.1-0.2C93.1,132.6,93.1,132.6,93.1,132.7z"/>
			<path class="st0" d="M93.6,131.8C93.6,131.8,93.6,131.8,93.6,131.8C93.6,131.8,93.6,131.8,93.6,131.8z"/>
			<path class="st0" d="M94.1,131.4C94.2,131.3,94.2,131.3,94.1,131.4C94.2,131.3,94.2,131.3,94.1,131.4z"/>
			<path class="st0" d="M437.2,148.5c0,0.1,0,0.1,0,0.2C437.2,148.6,437.2,148.5,437.2,148.5z"/>
			<path class="st0" d="M93.3,132.2c0,0,0-0.1,0.1-0.1C93.3,132.2,93.3,132.2,93.3,132.2z"/>
			<path class="st0" d="M92.9,133.2c0-0.1,0-0.1,0.1-0.2C92.9,133.1,92.9,133.1,92.9,133.2z"/>
			<path class="st0" d="M437.2,148.9c0,0,0,0.1,0,0.1C437.2,149,437.2,148.9,437.2,148.9z"/>
			<path class="st0" d="M437.2,148.7c0,0.1,0,0.1,0,0.1C437.2,148.8,437.2,148.8,437.2,148.7z"/>
			<path class="st0" d="M437.2,149C437.2,149,437.1,149.1,437.2,149C437.1,149.1,437.2,149,437.2,149z"/>
			<path class="st0" d="M93.9,131.5C93.9,131.5,93.9,131.5,93.9,131.5C93.9,131.5,93.9,131.5,93.9,131.5z"/>
			<path class="st0" d="M97.6,132.8c0,0,0.1,0.1,0.1,0.1C97.7,132.8,97.6,132.8,97.6,132.8z"/>
			<path class="st0" d="M96.9,132.2c0,0,0.1,0.1,0.1,0.1C97,132.2,97,132.2,96.9,132.2z"/>
			<path class="st0" d="M96.3,131.8C96.4,131.8,96.4,131.8,96.3,131.8C96.4,131.8,96.4,131.8,96.3,131.8z"/>
			<path class="st0" d="M94.4,131.2C94.4,131.2,94.5,131.2,94.4,131.2C94.5,131.2,94.4,131.2,94.4,131.2z"/>
			<path class="st0" d="M98.3,133.5c0,0,0.1,0.1,0.1,0.1C98.4,133.5,98.3,133.5,98.3,133.5z"/>
			<path class="st0" d="M95.8,131.4C95.8,131.4,95.8,131.5,95.8,131.4C95.8,131.5,95.8,131.4,95.8,131.4z"/>
			<path class="st0" d="M94.8,131.2C94.8,131.2,94.8,131.2,94.8,131.2C94.8,131.2,94.8,131.2,94.8,131.2
				C94.8,131.2,94.8,131.2,94.8,131.2z"/>
			<path class="st0" d="M95.2,131.2C95.3,131.2,95.3,131.2,95.2,131.2C95.3,131.2,95.3,131.2,95.2,131.2z"/>
			<path class="st0" d="M408.7,123.9c0.1,0.7,0.1,1.4,0.1,2.1C408.8,125.3,408.7,124.6,408.7,123.9z"/>
			<path class="st0" d="M407.9,117.9c0.1,0.4,0.1,0.7,0.2,1.1C408,118.6,407.9,118.2,407.9,117.9z"/>
			<path class="st0" d="M406.4,112.4c0.1,0.3,0.2,0.6,0.3,1C406.6,113,406.5,112.7,406.4,112.4z"/>
			<path class="st0" d="M407.4,116c0.1,0.3,0.2,0.7,0.2,1.1C407.6,116.7,407.5,116.3,407.4,116z"/>
			<path class="st0" d="M408.5,121.8c0.1,0.5,0.1,0.9,0.1,1.4C408.6,122.8,408.5,122.3,408.5,121.8z"/>
			<path class="st0" d="M408.2,119.8c0.1,0.4,0.1,0.8,0.2,1.2C408.3,120.6,408.3,120.2,408.2,119.8z"/>
			<path class="st0" d="M405.8,110.7c0.1,0.3,0.2,0.6,0.3,0.9C406,111.3,405.9,111,405.8,110.7z"/>
			<path class="st0" d="M404.4,107.5c0.1,0.3,0.3,0.6,0.4,0.8C404.7,108.1,404.5,107.8,404.4,107.5z"/>
			<path class="st0" d="M405.1,109.1c0.1,0.3,0.3,0.6,0.4,0.9C405.4,109.7,405.3,109.4,405.1,109.1z"/>
			<path class="st0" d="M282.9,65.9c-1.3,1-2.4,2.1-3.4,3.3C280.5,68,281.7,66.9,282.9,65.9z"/>
			<path class="st0" d="M437.4,146.7c0,0.1,0,0.3,0,0.4C437.4,147,437.4,146.9,437.4,146.7z"/>
			<path class="st0" d="M403.6,106.1c0.2,0.3,0.3,0.5,0.4,0.8C403.9,106.6,403.7,106.3,403.6,106.1z"/>
			<path class="st0" d="M437.5,145.7c0,0.1,0,0.3,0,0.4C437.5,145.9,437.5,145.8,437.5,145.7z"/>
			<path class="st0" d="M99,134.2c0.1,0.1,0.1,0.1,0.2,0.2C99.1,134.3,99,134.2,99,134.2z"/>
			<path class="st0" d="M437.5,146.2c0,0.1,0,0.3,0,0.4C437.4,146.5,437.4,146.3,437.5,146.2z"/>
			<path class="st0" d="M374.4,91.7c0.6,0,1.1-0.1,1.7-0.1c-6.4,0.3-12.9,1.6-17.8,3.6c0,0,0,0,0,0
				C362.8,93.4,368.2,92.2,374.4,91.7z"/>
			<path class="st0" d="M318.1,177.7c0.4,0,0.7,0,1.1,0C318.8,177.7,318.4,177.7,318.1,177.7L318.1,177.7z"/>
			<path class="st0" d="M437.3,148.1c0,0.1,0,0.2,0,0.3C437.3,148.3,437.3,148.2,437.3,148.1z"/>
			<path class="st0" d="M437.4,147.2c0,0.3-0.1,0.6-0.1,0.8C437.3,147.8,437.4,147.5,437.4,147.2z"/>
			<path class="st0" d="M198.3,42.5c0.3,0.1,0.5,0.2,0.8,0.4C198.8,42.8,198.5,42.7,198.3,42.5z"/>
			<path class="st0" d="M187.6,40c0.3,0,0.6,0,0.9,0.1C188.2,40,187.9,40,187.6,40z"/>
			<path class="st0" d="M195.4,41.4c0.3,0.1,0.5,0.2,0.8,0.3C196,41.6,195.7,41.5,195.4,41.4z"/>
			<path class="st0" d="M199.6,43.2c0.3,0.1,0.5,0.3,0.8,0.4C200.2,43.5,199.9,43.3,199.6,43.2z"/>
			<path class="st0" d="M189.3,40.1c0.3,0,0.6,0.1,0.9,0.1C189.8,40.2,189.5,40.1,189.3,40.1z"/>
			<path class="st0" d="M190.9,40.3c0.3,0,0.6,0.1,0.9,0.2C191.4,40.4,191.1,40.4,190.9,40.3z"/>
			<path class="st0" d="M201,43.9c0.3,0.2,0.5,0.3,0.8,0.5C201.5,44.3,201.2,44.1,201,43.9z"/>
			<path class="st0" d="M193.9,41c0.3,0.1,0.5,0.2,0.8,0.2C194.5,41.2,194.2,41.1,193.9,41z"/>
			<path class="st0" d="M192.4,40.6c0.3,0.1,0.6,0.1,0.8,0.2C193,40.8,192.7,40.7,192.4,40.6z"/>
			<path class="st0" d="M196.9,42c0.3,0.1,0.5,0.2,0.8,0.3C197.4,42.2,197.1,42.1,196.9,42z"/>
			<path class="st0" d="M208.4,50.3c0.2,0.2,0.4,0.5,0.6,0.7C208.8,50.8,208.6,50.6,208.4,50.3z"/>
			<path class="st0" d="M209.4,51.6c0.2,0.2,0.4,0.5,0.5,0.7C209.7,52.1,209.5,51.8,209.4,51.6z"/>
			<path class="st0" d="M210.3,52.9c0.2,0.3,0.3,0.5,0.5,0.8C210.6,53.4,210.4,53.2,210.3,52.9z"/>
			<path class="st0" d="M207.3,49.1c0.2,0.2,0.4,0.5,0.6,0.7C207.7,49.6,207.5,49.3,207.3,49.1z"/>
			<path class="st0" d="M203.5,45.6c0.4,0.3,0.8,0.6,1.2,0.9C204.3,46.2,203.9,45.9,203.5,45.6z"/>
			<path class="st0" d="M206.2,48c0.2,0.2,0.5,0.5,0.7,0.7C206.7,48.4,206.4,48.2,206.2,48z"/>
			<path class="st0" d="M202.3,44.7c0.3,0.2,0.6,0.4,1,0.7C202.9,45.2,202.6,44.9,202.3,44.7z"/>
			<path class="st0" d="M204.9,46.8c0.3,0.3,0.6,0.5,0.9,0.8C205.5,47.3,205.2,47,204.9,46.8z"/>
			<path class="st0" d="M186,39.9c0.3,0,0.6,0,0.9,0C186.6,39.9,186.3,39.9,186,39.9z"/>
			<path class="st0" d="M126.6,109.7c1.3-1,2.8-1.9,4.3-2.7C129.4,107.9,127.9,108.8,126.6,109.7z"/>
			<path class="st0" d="M124.1,111.8c0.8-0.7,1.6-1.4,2.5-2.1C125.7,110.4,124.9,111.1,124.1,111.8z"/>
			<path class="st0" d="M120,116.5c0.6-0.8,1.2-1.7,1.9-2.5C121.2,114.8,120.6,115.6,120,116.5z"/>
			<path class="st0" d="M130.9,107.1c1.6-0.8,3.2-1.5,5-2.2C134.2,105.5,132.5,106.2,130.9,107.1z"/>
			<path class="st0" d="M117.3,121.9c0.4-1,0.8-1.9,1.2-2.8C118,120,117.6,121,117.3,121.9z"/>
			<path class="st0" d="M211.1,54.3c0.2,0.3,0.3,0.5,0.4,0.8C211.4,54.9,211.3,54.6,211.1,54.3z"/>
			<path class="st0" d="M115.7,129.3L115.7,129.3c0-0.4,0.1-0.9,0.1-1.3C115.8,128.5,115.7,128.9,115.7,129.3z"/>
			<path class="st0" d="M115.8,128c0.2-1.6,0.5-3.1,1-4.6C116.3,124.9,116,126.4,115.8,128z"/>
			<path class="st0" d="M183.4,126.3c0.1,0.3,0.2,0.7,0.2,1.1C183.5,127,183.4,126.7,183.4,126.3z"/>
			<path class="st0" d="M147.7,64.6c0.2-1.1,0.4-2.2,0.8-3.3C148.1,62.4,147.8,63.5,147.7,64.6z"/>
			<path class="st0" d="M181.9,40c0.6,0,1.1-0.1,1.7-0.1C183.1,39.9,182.5,39.9,181.9,40z"/>
			<path class="st0" d="M150.1,57c0.5-0.9,1-1.8,1.5-2.6C151.1,55.3,150.6,56.1,150.1,57z"/>
			<path class="st0" d="M185.2,39.9c-0.4,0-0.7,0-1.1,0C184.5,39.9,184.9,39.8,185.2,39.9z"/>
			<path class="st0" d="M183.8,128.2c0.1,0.4,0.1,0.7,0.2,1.1C183.9,129,183.8,128.6,183.8,128.2z"/>
			<path class="st0" d="M147.2,69.2c0-0.6,0-1.2,0.1-1.8C147.3,68,147.2,68.6,147.2,69.2z"/>
			<path class="st0" d="M183.1,125.5c-0.1-0.2-0.1-0.5-0.2-0.7h0L183.1,125.5z"/>
			<path class="st0" d="M184.2,131C184.2,131,184.2,131,184.2,131c0-0.3-0.1-0.5-0.1-0.8C184.2,130.4,184.2,130.7,184.2,131z"/>
			<path class="st0" d="M235.9,70.3c0.3,0,0.6,0,0.9,0C236.5,70.3,236.2,70.3,235.9,70.3z"/>
			<path class="st0" d="M276.1,74.3c0.5-0.9,1-1.8,1.5-2.6C277.1,72.5,276.6,73.4,276.1,74.3z"/>
			<path class="st0" d="M267.3,139.6c-0.2-0.1-0.4-0.2-0.6-0.3c0.2-0.2,0.4-0.4,0.6-0.6C267.3,139,267.3,139.3,267.3,139.6z"/>
			<path class="st0" d="M307.9,57.2c0.6,0,1.1-0.1,1.7-0.1C309.1,57.1,308.5,57.2,307.9,57.2z"/>
			<path class="st0" d="M311.2,57.1c-0.4,0-0.7,0-1.1,0C310.5,57.1,310.9,57.1,311.2,57.1z"/>
			<path class="st0" d="M211.9,55.8c0.1,0.3,0.3,0.6,0.4,0.8C212.2,56.4,212.1,56.1,211.9,55.8z"/>
			<path class="st0" d="M257.7,80c-0.1-0.2-0.3-0.3-0.5-0.5C257.4,79.7,257.6,79.9,257.7,80C257.7,80.1,257.7,80,257.7,80z"/>
			<path class="st0" d="M233.5,70.3c-0.5,0-0.9,0-1.4,0.1c0,0,0,0,0,0C232.6,70.4,233.1,70.3,233.5,70.3z"/>
			<path class="st0" d="M312,57.1c0.3,0,0.6,0,0.9,0C312.6,57.1,312.3,57.1,312,57.1z"/>
			<path class="st0" d="M256.2,78.4c0.2,0.2,0.5,0.5,0.7,0.7C256.6,78.8,256.4,78.6,256.2,78.4z"/>
			<polygon class="st0" points="216.3,73.7 216.3,73.7 216.3,73.7 216.3,73.7 			"/>
			<path class="st0" d="M321.4,58.7c0.3,0.1,0.5,0.2,0.8,0.3C322,58.9,321.7,58.8,321.4,58.7z"/>
			<path class="st0" d="M319.9,58.2c0.3,0.1,0.5,0.2,0.8,0.2C320.5,58.4,320.2,58.3,319.9,58.2z"/>
			<path class="st0" d="M322.9,59.2c0.3,0.1,0.5,0.2,0.8,0.3C323.4,59.4,323.1,59.3,322.9,59.2z"/>
			<path class="st0" d="M324.3,59.8c0.3,0.1,0.5,0.2,0.8,0.4C324.8,60,324.5,59.9,324.3,59.8z"/>
			<path class="st0" d="M313.6,57.2c0.3,0,0.6,0,0.9,0.1C314.2,57.2,313.9,57.2,313.6,57.2z"/>
			<path class="st0" d="M318.4,57.9c0.3,0.1,0.6,0.1,0.8,0.2C319,58,318.7,57.9,318.4,57.9z"/>
			<path class="st0" d="M315.3,57.4c0.3,0,0.6,0.1,0.9,0.1C315.8,57.4,315.6,57.4,315.3,57.4z"/>
			<path class="st0" d="M316.9,57.6c0.3,0,0.6,0.1,0.9,0.2C317.4,57.7,317.1,57.6,316.9,57.6z"/>
			<rect x="197.4" y="104.1" class="st0" width="0" height="0"/>
			<path class="st0" d="M254.9,77.2c0.3,0.3,0.6,0.5,0.9,0.8C255.5,77.7,255.2,77.5,254.9,77.2z"/>
			<path class="st0" d="M239.2,70.5c0.3,0,0.6,0.1,0.9,0.1C239.8,70.6,239.5,70.6,239.2,70.5z"/>
			<path class="st0" d="M325.6,60.4c0.3,0.1,0.5,0.3,0.8,0.4C326.2,60.7,325.9,60.6,325.6,60.4z"/>
			<path class="st0" d="M240.8,70.8c0.3,0,0.6,0.1,0.9,0.2C241.4,70.9,241.1,70.8,240.8,70.8z"/>
			<path class="st0" d="M212.9,57.9C212.9,57.9,212.9,57.9,212.9,57.9c-0.1-0.2-0.2-0.4-0.2-0.5C212.7,57.6,212.8,57.7,212.9,57.9z"
				/>
			<path class="st0" d="M242.3,71.1c0.3,0.1,0.6,0.1,0.8,0.2C242.9,71.2,242.6,71.1,242.3,71.1z"/>
			<path class="st0" d="M234.9,70.3c-0.3,0-0.6,0-0.9,0c0.4,0,0.7,0,1.1,0C235.1,70.3,235,70.3,234.9,70.3z"/>
			<path class="st0" d="M156.9,48.7c-1.3,1-2.4,2.1-3.4,3.3C154.5,50.8,155.7,49.7,156.9,48.7z"/>
			<path class="st0" d="M237.6,70.4c0.3,0,0.6,0,0.9,0.1C238.2,70.4,237.9,70.4,237.6,70.4z"/>
			<path class="st0" d="M252.2,75.2c0.3,0.2,0.6,0.4,1,0.7C252.8,75.6,252.5,75.4,252.2,75.2z"/>
			<path class="st0" d="M250.9,74.4c0.3,0.2,0.6,0.3,0.8,0.5C251.5,74.7,251.2,74.5,250.9,74.4z"/>
			<path class="st0" d="M253.4,76c0.4,0.3,0.8,0.6,1.2,0.9C254.2,76.6,253.8,76.3,253.4,76z"/>
			<path class="st0" d="M243.9,71.4c0.3,0.1,0.5,0.2,0.8,0.2C244.4,71.6,244.1,71.5,243.9,71.4z"/>
			<path class="st0" d="M249.6,73.6c0.3,0.1,0.5,0.3,0.8,0.4C250.1,73.9,249.9,73.8,249.6,73.6z"/>
			<path class="st0" d="M245.4,71.9c0.3,0.1,0.5,0.2,0.8,0.3C245.9,72.1,245.6,72,245.4,71.9z"/>
			<path class="st0" d="M248.2,73c0.3,0.1,0.5,0.2,0.8,0.4C248.7,73.2,248.5,73.1,248.2,73z"/>
			<path class="st0" d="M246.8,72.4c0.3,0.1,0.5,0.2,0.8,0.3C247.3,72.6,247.1,72.5,246.8,72.4z"/>
			<path class="st0" d="M407,114.1c0.1,0.3,0.2,0.7,0.3,1C407.1,114.8,407.1,114.5,407,114.1z"/>
			<path class="st0" d="M437.4,143.7c0,0.4,0.1,0.8,0.1,1.2C437.4,144.5,437.4,144.1,437.4,143.7z"/>
			<path class="st0" d="M436.9,141.3c0.1,0.1,0.1,0.3,0.1,0.4C437,141.6,436.9,141.4,436.9,141.3z"/>
			<path class="st0" d="M291.8,188.6c0.1,0.1,0.2,0.3,0.3,0.4C292,188.8,291.9,188.7,291.8,188.6z"/>
			<path class="st0" d="M437,141.9c0,0.1,0.1,0.3,0.1,0.4C437.1,142.2,437.1,142.1,437,141.9z"/>
			<path class="st0" d="M437.2,142.5c0,0.1,0.1,0.3,0.1,0.4C437.2,142.8,437.2,142.7,437.2,142.5z"/>
			<path class="st0" d="M270.5,162.8c0.3,0.3,0.6,0.6,0.9,0.9C271.1,163.4,270.8,163.1,270.5,162.8z"/>
			<path class="st0" d="M271.7,164c0.4,0.4,0.8,0.8,1.1,1.2C272.4,164.8,272,164.4,271.7,164z"/>
			<path class="st0" d="M323.6,198.6c-0.1,0.1-0.2,0.2-0.3,0.3C323.4,198.7,323.5,198.6,323.6,198.6z"/>
			<path class="st0" d="M434.7,138.3c0.1,0.1,0.2,0.2,0.3,0.2C435,138.5,434.8,138.4,434.7,138.3z"/>
			<path class="st0" d="M289.3,185.6c0.1,0.2,0.3,0.3,0.4,0.5C289.6,185.9,289.5,185.7,289.3,185.6z"/>
			<path class="st0" d="M269.3,161.6c0.3,0.3,0.5,0.5,0.8,0.8C269.8,162.1,269.6,161.9,269.3,161.6z"/>
			<path class="st0" d="M433.4,137.7c0.4,0.1,0.8,0.3,1.1,0.5C434.2,138,433.9,137.8,433.4,137.7z"/>
			<path class="st0" d="M436.3,140.1c0.2,0.3,0.4,0.7,0.5,1.1C436.7,140.8,436.5,140.4,436.3,140.1z"/>
			<path class="st0" d="M290.6,187.2c0,0.1,0.1,0.1,0.1,0.2C290.7,187.3,290.7,187.2,290.6,187.2z"/>
			<path class="st0" d="M436,139.6c0.1,0.1,0.2,0.2,0.2,0.4C436.2,139.8,436.1,139.7,436,139.6z"/>
			<path class="st0" d="M435.6,139.1c0.1,0.1,0.2,0.2,0.2,0.3C435.8,139.3,435.7,139.2,435.6,139.1z"/>
			<path class="st0" d="M435.2,138.7c0.1,0.1,0.2,0.2,0.3,0.3C435.4,138.9,435.3,138.8,435.2,138.7z"/>
			<path class="st0" d="M437.3,143.1c0,0.2,0,0.3,0.1,0.5C437.3,143.5,437.3,143.3,437.3,143.1z"/>
			<path class="st0" d="M297.7,195.2c-0.1-0.1-0.2-0.2-0.4-0.4C297.5,194.9,297.6,195.1,297.7,195.2z"/>
			<path class="st0" d="M255.8,151.6c0.4,0.2,0.8,0.4,1.3,0.6C256.7,152,256.3,151.8,255.8,151.6z"/>
			<path class="st0" d="M313.4,203.9c-0.1,0-0.2,0-0.3,0C313.2,203.9,313.3,203.9,313.4,203.9z"/>
			<path class="st0" d="M254.5,151.1c0.3,0.1,0.6,0.2,0.9,0.4C255.1,151.3,254.8,151.2,254.5,151.1z"/>
			<path class="st0" d="M253.2,150.6c0.3,0.1,0.6,0.2,0.9,0.3C253.8,150.8,253.5,150.7,253.2,150.6z"/>
			<path class="st0" d="M273.4,165.9c-0.1-0.1-0.2-0.2-0.3-0.3C273.2,165.7,273.3,165.8,273.4,165.9
				C273.4,165.9,273.4,165.9,273.4,165.9z"/>
			<path class="st0" d="M437.5,145.5c0-0.2,0-0.3,0-0.5C437.5,145.2,437.5,145.3,437.5,145.5z"/>
			<path class="st0" d="M252.8,150.5c-0.3-0.1-0.5-0.1-0.8-0.2c0,0,0,0,0,0C252.3,150.3,252.5,150.4,252.8,150.5z"/>
			<path class="st0" d="M265.4,157.9c0.3,0.3,0.6,0.5,0.9,0.8C265.9,158.4,265.7,158.2,265.4,157.9z"/>
			<path class="st0" d="M268,160.3c0.3,0.3,0.6,0.6,0.9,0.9C268.6,160.9,268.3,160.6,268,160.3z"/>
			<path class="st0" d="M262.7,155.8c0.3,0.3,0.7,0.5,1,0.8C263.4,156.3,263,156,262.7,155.8z"/>
			<path class="st0" d="M264.1,156.9c0.3,0.2,0.6,0.5,0.8,0.7C264.7,157.3,264.4,157.1,264.1,156.9z"/>
			<path class="st0" d="M266.6,159c0.4,0.4,0.8,0.7,1.2,1.1C267.3,159.7,266.9,159.3,266.6,159z"/>
			<path class="st0" d="M258.8,153.1c0.3,0.2,0.6,0.3,0.9,0.5C259.3,153.5,259,153.3,258.8,153.1z"/>
			<path class="st0" d="M257.2,152.3c0.4,0.2,0.8,0.4,1.1,0.6C258,152.7,257.6,152.5,257.2,152.3z"/>
			<path class="st0" d="M261.3,154.8c0.4,0.3,0.8,0.6,1.2,0.9C262.1,155.3,261.7,155,261.3,154.8z"/>
			<path class="st0" d="M260,153.9c0.3,0.2,0.6,0.4,0.9,0.6C260.6,154.3,260.3,154.1,260,153.9z"/>
			<path class="st0" d="M304.3,200.8c0.1,0,0.1,0.1,0.2,0.1C304.4,200.8,304.3,200.8,304.3,200.8z"/>
			<path class="st0" d="M314.2,203.8c0.1,0,0.2,0,0.4,0C314.4,203.8,314.3,203.8,314.2,203.8z"/>
			<path class="st0" d="M310.8,203.7c0.1,0,0.2,0,0.3,0.1C311,203.7,310.9,203.7,310.8,203.7z"/>
			<path class="st0" d="M300.8,198.1c0.1,0.1,0.2,0.2,0.3,0.3C301,198.3,300.9,198.2,300.8,198.1z"/>
			<path class="st0" d="M299.8,197.2c0,0,0.1,0.1,0.1,0.1C299.9,197.2,299.8,197.2,299.8,197.2z"/>
			<path class="st0" d="M311.9,203.8c0.1,0,0.2,0,0.2,0C312,203.8,312,203.8,311.9,203.8z"/>
			<path class="st0" d="M315.2,203.7c0.1,0,0.2,0,0.4-0.1C315.5,203.6,315.4,203.7,315.2,203.7z"/>
			<path class="st0" d="M317.7,202.9C317.7,202.9,317.7,202.9,317.7,202.9C317.7,202.9,317.7,202.9,317.7,202.9z"/>
			<path class="st0" d="M316.3,203.4c0.1,0,0.2-0.1,0.3-0.1C316.5,203.3,316.4,203.4,316.3,203.4z"/>
			<path class="st0" d="M318.7,202.4c0.1-0.1,0.2-0.1,0.3-0.2C318.9,202.3,318.8,202.3,318.7,202.4z"/>
			<path class="st0" d="M306.3,202c0.1,0.1,0.2,0.1,0.4,0.2C306.5,202.1,306.4,202.1,306.3,202z"/>
			<path class="st0" d="M307.4,202.5c0.1,0,0.2,0.1,0.3,0.1C307.6,202.6,307.5,202.6,307.4,202.5z"/>
			<path class="st0" d="M308.7,203.1c0.1,0,0.1,0,0.2,0.1C308.8,203.1,308.8,203.1,308.7,203.1z"/>
			<path class="st0" d="M292.8,189.8c0.1,0.1,0.3,0.3,0.4,0.4C293.1,190.1,293,190,292.8,189.8z"/>
			<path class="st0" d="M302.9,199.8c0.1,0.1,0.2,0.2,0.3,0.2C303.1,200,303,199.9,302.9,199.8z"/>
			<path class="st0" d="M305.3,201.4c0.1,0.1,0.2,0.1,0.3,0.2C305.5,201.5,305.4,201.5,305.3,201.4z"/>
			<path class="st0" d="M301.9,199c0.1,0.1,0.2,0.2,0.4,0.3C302.1,199.1,302,199.1,301.9,199z"/>
			<path class="st0" d="M324.4,197.7c0.1-0.1,0.2-0.3,0.4-0.4C324.6,197.4,324.5,197.5,324.4,197.7z"/>
			<path class="st0" d="M429.1,137.7c0.1,0,0.3-0.1,0.4-0.1C429.4,137.7,429.3,137.7,429.1,137.7z"/>
			<path class="st0" d="M430.3,137.5c0.1,0,0.3,0,0.4,0C430.5,137.5,430.4,137.5,430.3,137.5z"/>
			<path class="st0" d="M296.3,193.7c0.1,0.1,0.2,0.2,0.3,0.4C296.6,194,296.4,193.8,296.3,193.7z"/>
			<path class="st0" d="M298.5,195.9c0.1,0.1,0.2,0.2,0.3,0.3C298.7,196.1,298.6,196,298.5,195.9z"/>
			<path class="st0" d="M295.3,192.6C295.3,192.6,295.3,192.7,295.3,192.6C295.3,192.7,295.3,192.6,295.3,192.6z"/>
			<path class="st0" d="M431.7,137.4h-0.4C431.4,137.4,431.6,137.4,431.7,137.4z"/>
			<path class="st0" d="M432.8,137.5c0.2,0,0.3,0.1,0.5,0.1C433.1,137.6,432.9,137.6,432.8,137.5z"/>
			<path class="st0" d="M432,137.5c0.2,0,0.3,0,0.5,0C432.3,137.5,432.2,137.5,432,137.5z"/>
			<path class="st0" d="M293.9,191.1c0.1,0.1,0.2,0.3,0.3,0.4C294.2,191.3,294,191.2,293.9,191.1z"/>
			<path class="st0" d="M322,200.1c0.1-0.1,0.2-0.1,0.2-0.2C322.2,199.9,322.1,200,322,200.1z"/>
			<path class="st0" d="M427.9,138.1c0.1,0,0.3-0.1,0.4-0.1C428.2,138,428.1,138,427.9,138.1z"/>
			<path class="st0" d="M320.8,201c0.1-0.1,0.2-0.2,0.4-0.3C321.1,200.8,321,200.9,320.8,201z"/>
			<path class="st0" d="M319.8,201.8c0.1-0.1,0.2-0.2,0.4-0.2C320,201.6,319.9,201.7,319.8,201.8z"/>
			<path class="st0" d="M326.6,194.9c0.1-0.2,0.2-0.3,0.3-0.5C326.8,194.6,326.7,194.7,326.6,194.9z"/>
			<path class="st0" d="M309.7,203.4c0.1,0,0.2,0.1,0.3,0.1C309.9,203.5,309.8,203.4,309.7,203.4z"/>
			<path class="st0" d="M325.4,196.4c0.1-0.2,0.3-0.3,0.4-0.5C325.7,196.1,325.6,196.2,325.4,196.4z"/>
			<path class="st1" d="M319.7,108.8c-6.4,0.3-12.9,1.6-17.8,3.6C306.8,110.4,313.3,109.1,319.7,108.8z"/>
			<polygon class="st1" points="325.4,109 325.4,109 325.4,109 			"/>
			<path class="st1" d="M290.7,119.7c-0.5,0.5-0.9,1-1.4,1.5l0,0C289.8,120.8,290.2,120.2,290.7,119.7z"/>
			<path class="st1" d="M322.1,108.8c0.3,0,0.6,0,0.9,0C322.7,108.8,322.4,108.8,322.1,108.8z"/>
			<path class="st1" d="M290.7,119.7c2.9-3,6.7-5.5,11.2-7.3C297.4,114.3,293.6,116.7,290.7,119.7z"/>
			<path class="st1" d="M341.8,86c-3.8,2.7-6.6,5.5-8.8,8.2c-16.5-4.8-42.6,3.1-50.8,11.5c-0.1-10.7-2.8-20.9-7.3-28.8
				C287.3,47.7,340.4,51,341.8,86z"/>
			<path class="st1" d="M323.7,108.9c0.3,0,0.6,0,0.9,0.1C324.3,108.9,324,108.9,323.7,108.9z"/>
			<path class="st1" d="M321.3,108.8c-0.4,0-0.7,0-1.1,0C320.6,108.8,321,108.8,321.3,108.8z"/>
			<path d="M266.2,102.7c0.1,0.7,0.1,1.4,0.1,2.2C266.3,104.1,266.2,103.4,266.2,102.7z"/>
			<path d="M258.3,80.8c0.2,0.2,0.4,0.5,0.6,0.7C258.7,81.2,258.5,81,258.3,80.8z"/>
			<path d="M265.7,98.5c0.1,0.4,0.1,0.8,0.2,1.2C265.8,99.3,265.7,98.9,265.7,98.5z"/>
			<path d="M264.9,94.7c0.1,0.3,0.2,0.7,0.2,1.1C265.1,95.4,265,95,264.9,94.7z"/>
			<path d="M263.3,89.4c0.1,0.3,0.2,0.6,0.3,0.9C263.5,90,263.4,89.7,263.3,89.4z"/>
			<path d="M263.9,91.1c0.1,0.3,0.2,0.6,0.3,1C264.1,91.7,264,91.4,263.9,91.1z"/>
			<path d="M264.4,92.8c0.1,0.3,0.2,0.7,0.3,1C264.6,93.5,264.5,93.2,264.4,92.8z"/>
			<path d="M283.8,133.3c0.7-4.2,2.4-7.9,4.9-11.2C286.2,125.4,284.5,129.1,283.8,133.3z"/>
			<path d="M358.3,95.2C358.3,95.2,358.3,95.2,358.3,95.2c-3.9,1.6-7.1,3.6-9.8,6v0C351.1,98.8,354.4,96.8,358.3,95.2z"/>
			<path d="M266,100.6c0.1,0.5,0.1,0.9,0.1,1.4C266.1,101.5,266,101,266,100.6z"/>
			<path d="M257.9,80.2c-0.1-0.1-0.1-0.1-0.2-0.2c0,0,0,0,0,0C257.8,80.1,257.8,80.2,257.9,80.2z"/>
			<path d="M265.3,96.6c0.1,0.4,0.1,0.7,0.2,1.1C265.5,97.3,265.4,96.9,265.3,96.6z"/>
			<path d="M261.1,84.8c0.2,0.3,0.3,0.5,0.4,0.8C261.4,85.3,261.2,85,261.1,84.8z"/>
			<path d="M260.2,83.4c0.2,0.3,0.3,0.5,0.5,0.8C260.5,83.9,260.4,83.6,260.2,83.4z"/>
			<path d="M259.3,82c0.2,0.2,0.4,0.5,0.5,0.7C259.6,82.5,259.5,82.3,259.3,82z"/>
			<path d="M262.6,87.8c0.1,0.3,0.3,0.6,0.4,0.9C262.9,88.4,262.7,88.1,262.6,87.8z"/>
			<path d="M261.9,86.3c0.1,0.3,0.3,0.6,0.4,0.8C262.1,86.8,262,86.5,261.9,86.3z"/>
			<path d="M289.3,121.3L289.3,121.3c-0.2,0.3-0.4,0.5-0.7,0.8C288.9,121.8,289.1,121.6,289.3,121.3z"/>
			<path class="st1" d="M352.1,139.1c0.1,0.5,0.1,0.9,0.1,1.4C352.2,140,352.2,139.5,352.1,139.1z"/>
			<path class="st1" d="M351.5,135.1c0.1,0.4,0.1,0.7,0.2,1.1C351.6,135.8,351.6,135.4,351.5,135.1z"/>
			<path class="st1" d="M352.3,141.2c0.1,0.7,0.1,1.4,0.1,2.1C352.4,142.6,352.4,141.9,352.3,141.2z"/>
			<path class="st1" d="M350.1,129.6c0.1,0.3,0.2,0.6,0.3,0.9C350.3,130.2,350.2,129.9,350.1,129.6z"/>
			<path class="st1" d="M350.6,131.4c0.1,0.3,0.2,0.7,0.3,1C350.8,132,350.7,131.7,350.6,131.4z"/>
			<path class="st1" d="M351.1,133.2c0.1,0.3,0.2,0.7,0.2,1.1C351.2,133.9,351.2,133.5,351.1,133.2z"/>
			<path class="st1" d="M351.9,137c0.1,0.4,0.1,0.8,0.2,1.2C352,137.8,351.9,137.4,351.9,137z"/>
			<path class="st1" d="M348,124.8c0.1,0.3,0.3,0.5,0.4,0.8C348.3,125.3,348.2,125,348,124.8z"/>
			<path class="st1" d="M408.8,126.1c0,0.4,0,0.7,0,1.1c-10.6,3-25.3,7.4-40.4,14.3c-1.2-17.4-7.4-31.1-19.9-40.3
				C373.2,82.4,408.4,90.8,408.8,126.1z"/>
			<path class="st1" d="M348.8,126.3c0.1,0.3,0.3,0.6,0.4,0.9C349,126.9,348.9,126.6,348.8,126.3z"/>
			<path class="st1" d="M346.9,122.6c-0.2-0.3-0.3-0.5-0.5-0.8C346.5,122.1,346.7,122.4,346.9,122.6z"/>
			<path class="st1" d="M347.2,123.3c0.1,0.3,0.3,0.5,0.4,0.8C347.5,123.8,347.4,123.5,347.2,123.3z"/>
			<path class="st1" d="M349.4,127.9c0.1,0.3,0.2,0.6,0.3,0.9C349.7,128.5,349.6,128.2,349.4,127.9z"/>
			<path class="st1" d="M344.5,119.3c0.2,0.2,0.4,0.5,0.6,0.7C344.9,119.7,344.7,119.5,344.5,119.3z"/>
			<path class="st1" d="M341,115.7c0.3,0.3,0.6,0.5,0.9,0.8C341.6,116.2,341.3,116,341,115.7z"/>
			<path class="st1" d="M343.4,118c0.2,0.2,0.4,0.5,0.6,0.7C343.9,118.5,343.7,118.3,343.4,118z"/>
			<path class="st1" d="M345.5,120.5c0.2,0.2,0.3,0.5,0.5,0.7C345.8,121,345.6,120.8,345.5,120.5z"/>
			<path class="st1" d="M342.3,116.9c0.2,0.2,0.5,0.5,0.7,0.7C342.8,117.3,342.6,117.1,342.3,116.9z"/>
			<path class="st1" d="M340.8,115.5c-0.1-0.1-0.3-0.2-0.4-0.4c0,0,0,0,0,0C340.5,115.2,340.6,115.4,340.8,115.5z"/>
			<path d="M328.5,109.6c0.3,0.1,0.6,0.1,0.8,0.2C329.1,109.7,328.8,109.6,328.5,109.6z"/>
			<path d="M327,109.3c0.3,0,0.6,0.1,0.9,0.2C327.5,109.4,327.2,109.3,327,109.3z"/>
			<path d="M330,109.9c0.3,0.1,0.5,0.2,0.8,0.2C330.6,110.1,330.3,110,330,109.9z"/>
			<path d="M333,110.9c0.3,0.1,0.5,0.2,0.8,0.3C333.5,111.1,333.2,111,333,110.9z"/>
			<path d="M331.5,110.4c0.3,0.1,0.5,0.2,0.8,0.3C332.1,110.6,331.8,110.5,331.5,110.4z"/>
			<path d="M326.2,109.2c-0.3,0-0.6-0.1-0.9-0.1c0,0,0,0,0,0C325.7,109.1,326,109.1,326.2,109.2z"/>
			<path d="M338.4,113.7c0.3,0.2,0.6,0.4,1,0.7C339,114.1,338.7,113.9,338.4,113.7z"/>
			<path d="M335.8,112.1c0.3,0.1,0.5,0.3,0.8,0.4C336.3,112.4,336,112.3,335.8,112.1z"/>
			<path d="M337.1,112.9c0.3,0.2,0.5,0.3,0.8,0.5C337.6,113.2,337.4,113,337.1,112.9z"/>
			<path d="M335.2,111.9c-0.3-0.1-0.5-0.3-0.8-0.4C334.7,111.6,334.9,111.7,335.2,111.9z"/>
			<path d="M340.4,115.1C340.4,115.1,340.4,115.1,340.4,115.1c-0.2-0.2-0.5-0.4-0.8-0.6C339.9,114.7,340.1,114.9,340.4,115.1z"/>
			<path class="st1" d="M170.6,106.8c0.3,0.2,0.6,0.4,1,0.7C171.3,107.3,171,107,170.6,106.8z"/>
			<path class="st1" d="M169.3,106c0.3,0.2,0.6,0.3,0.8,0.5C169.9,106.3,169.6,106.2,169.3,106z"/>
			<path class="st1" d="M168,105.3c0.3,0.1,0.5,0.3,0.8,0.4C168.6,105.6,168.3,105.4,168,105.3z"/>
			<path class="st1" d="M197.3,103.1c0,0.4,0.1,0.7,0.1,1.1l0,0C197.4,103.8,197.3,103.4,197.3,103.1z"/>
			<path class="st1" d="M216.3,73.7c-0.2,0.1-0.4,0.1-0.6,0.2C215.9,73.8,216.1,73.8,216.3,73.7z"/>
			<path class="st1" d="M197.4,96.4c-0.3,2.1-0.3,4.4-0.1,6.7C197.1,100.8,197.1,98.5,197.4,96.4z"/>
			<path class="st1" d="M212.9,57.9c-19.9,7.6-28.5,18.5-31.4,36.9c-8.5-6.5-19.8-9.6-31.3-8.8C131.5,45,195.4,20.6,212.9,57.9z"/>
			<path class="st1" d="M205.6,80.1c1.6-1.4,3.3-2.7,5.3-3.9C209,77.4,207.2,78.7,205.6,80.1z"/>
			<path class="st1" d="M200.8,86.1c0.5-0.9,1.1-1.7,1.7-2.5C201.9,84.4,201.3,85.3,200.8,86.1z"/>
			<path class="st1" d="M197.4,96.4c0.5-3.7,1.6-7.2,3.4-10.3C199,89.2,197.8,92.6,197.4,96.4z"/>
			<path class="st1" d="M211,76.2c1.5-0.9,3.1-1.6,4.8-2.3C214,74.6,212.4,75.4,211,76.2z"/>
			<path class="st1" d="M202.5,83.6c0.6-0.8,1.3-1.6,2-2.4C203.8,82,203.1,82.8,202.5,83.6z"/>
			<path class="st1" d="M166.7,104.6c0.3,0.1,0.5,0.2,0.8,0.4C167.2,104.9,166.9,104.7,166.7,104.6z"/>
			<path class="st1" d="M162.3,103.1c0.3,0.1,0.5,0.2,0.8,0.2C162.9,103.2,162.6,103.2,162.3,103.1z"/>
			<path class="st1" d="M165.2,104c0.3,0.1,0.5,0.2,0.8,0.3C165.8,104.3,165.5,104.1,165.2,104z"/>
			<path class="st1" d="M163.8,103.5c0.3,0.1,0.5,0.2,0.8,0.3C164.3,103.7,164.1,103.6,163.8,103.5z"/>
			<path d="M171.9,107.7c0.4,0.3,0.8,0.6,1.2,0.9C172.7,108.3,172.3,108,171.9,107.7z"/>
			<path d="M160.8,102.7c0.3,0.1,0.6,0.1,0.8,0.2C161.3,102.8,161.1,102.8,160.8,102.7z"/>
			<path d="M173.3,108.8c0.3,0.3,0.6,0.5,0.9,0.8C173.9,109.4,173.6,109.1,173.3,108.8z"/>
			<path d="M174.6,110c0.2,0.2,0.5,0.5,0.7,0.7C175.1,110.5,174.8,110.3,174.6,110z"/>
			<path d="M159.2,102.4c0.3,0,0.6,0.1,0.9,0.2C159.8,102.5,159.5,102.5,159.2,102.4z"/>
			<path d="M157.6,102.2c0.3,0,0.6,0.1,0.9,0.1C158.2,102.3,157.9,102.2,157.6,102.2z"/>
			<path d="M153.4,101.9c-0.3,0-0.6,0-0.8,0c0.4,0,0.7,0,1.1,0C153.5,101.9,153.4,101.9,153.4,101.9z"/>
			<path d="M175.7,111.2c0.2,0.2,0.4,0.5,0.6,0.7C176.1,111.6,175.9,111.4,175.7,111.2z"/>
			<path d="M156,102c0.3,0,0.6,0,0.9,0.1C156.6,102.1,156.3,102.1,156,102z"/>
			<path d="M154.3,102c0.3,0,0.6,0,0.9,0C155,102,154.6,102,154.3,102z"/>
			<path d="M150.3,102.1c0.6,0,1.1-0.1,1.7-0.1C151.4,102,150.9,102,150.3,102.1z"/>
			<path d="M183,124.8L183,124.8c0-0.1-0.1-0.2-0.1-0.3C182.9,124.6,182.9,124.7,183,124.8z"/>
			<path d="M182.3,122.7c0.1,0.3,0.2,0.6,0.3,1C182.5,123.4,182.4,123.1,182.3,122.7z"/>
			<path d="M176.7,112.4c0.2,0.2,0.4,0.5,0.6,0.7C177.1,112.9,176.9,112.6,176.7,112.4z"/>
			<path d="M231.9,70.4c0.1,0,0.2,0,0.2,0c0,0,0,0,0,0c-6,0.4-11.3,1.6-15.8,3.3c0,0,0,0,0,0C220.8,72,226,70.8,231.9,70.4z"/>
			<path d="M181.7,121.1c0.1,0.3,0.2,0.6,0.3,0.9C181.9,121.7,181.8,121.4,181.7,121.1z"/>
			<path d="M197.4,104.1L197.4,104.1c0.3,2.8,0.8,5.5,1.4,8C198.2,109.6,197.7,106.9,197.4,104.1z"/>
			<path d="M179.5,116.4c0.2,0.3,0.3,0.5,0.4,0.8C179.8,117,179.6,116.7,179.5,116.4z"/>
			<path d="M181,119.4c0.1,0.3,0.3,0.6,0.4,0.9C181.3,120,181.2,119.7,181,119.4z"/>
			<path d="M177.7,113.7c0.2,0.2,0.4,0.5,0.5,0.7C178.1,114.2,177.9,113.9,177.7,113.7z"/>
			<path d="M178.6,115c0.2,0.3,0.3,0.5,0.5,0.8C179,115.5,178.8,115.3,178.6,115z"/>
			<path d="M180.3,117.9c0.1,0.3,0.3,0.6,0.4,0.8C180.6,118.5,180.4,118.2,180.3,117.9z"/>
			<path class="st1" d="M169.2,163.7c-0.1,0.1-0.2,0.3-0.3,0.4C169,163.9,169.1,163.8,169.2,163.7z"/>
			<path class="st1" d="M174.5,156.4c0.1-0.1,0.1-0.2,0.2-0.2C174.6,156.2,174.6,156.3,174.5,156.4z"/>
			<path class="st1" d="M184.2,131c-16.5,3.7-24.8,20-34.4,31.3c-13.8-5.8-26.6-23.3-34.2-33C119.3,93,183,92.5,184.2,131z"/>
			<path class="st1" d="M171.4,160.5c0-0.1,0.1-0.1,0.1-0.2C171.5,160.4,171.4,160.4,171.4,160.5z"/>
			<path class="st1" d="M175.4,155.2C175.4,155.2,175.5,155.2,175.4,155.2C175.5,155.2,175.4,155.2,175.4,155.2z"/>
			<path class="st1" d="M176.1,154.4c0.1-0.1,0.1-0.2,0.2-0.2C176.3,154.2,176.2,154.3,176.1,154.4z"/>
			<path class="st1" d="M172.2,159.4c0-0.1,0.1-0.1,0.1-0.2C172.3,159.3,172.2,159.3,172.2,159.4z"/>
			<path class="st1" d="M170.7,161.5c0,0,0.1-0.1,0.1-0.1C170.8,161.4,170.7,161.4,170.7,161.5z"/>
			<path class="st1" d="M172.9,158.4c0.1-0.1,0.1-0.1,0.2-0.2C173,158.3,173,158.3,172.9,158.4z"/>
			<path class="st1" d="M173.8,157.3c0-0.1,0.1-0.1,0.1-0.2C173.9,157.2,173.8,157.2,173.8,157.3z"/>
			<path d="M125.8,165c0.5,0.5,1.1,0.9,1.6,1.4C126.8,166,126.3,165.5,125.8,165z"/>
			<path d="M131.5,169.8c0.6,0.5,1.2,0.9,1.8,1.4C132.7,170.8,132.1,170.3,131.5,169.8z"/>
			<path d="M139.7,175.3c0.2,0.1,0.4,0.2,0.6,0.3C140.1,175.5,139.9,175.4,139.7,175.3z"/>
			<path d="M138.6,174.7c0.2,0.1,0.4,0.2,0.6,0.4C139,174.9,138.8,174.8,138.6,174.7z"/>
			<path d="M141.9,176.3c0.2,0.1,0.4,0.2,0.6,0.3C142.3,176.5,142.1,176.4,141.9,176.3z"/>
			<path d="M140.8,175.8c0.2,0.1,0.4,0.2,0.6,0.3C141.2,176,141,175.9,140.8,175.8z"/>
			<path d="M135,172.4c0.3,0.2,0.5,0.4,0.8,0.5C135.5,172.8,135.2,172.6,135,172.4z"/>
			<path d="M136.3,173.2c0.2,0.2,0.5,0.3,0.7,0.5C136.7,173.5,136.5,173.4,136.3,173.2z"/>
			<path d="M137.4,174c0.2,0.1,0.4,0.3,0.7,0.4C137.9,174.3,137.7,174.1,137.4,174z"/>
			<path d="M153.7,178c0.3-0.1,0.6-0.2,0.9-0.3C154.3,177.8,154,177.9,153.7,178z"/>
			<path d="M143.9,177.2c0.2,0.1,0.4,0.1,0.6,0.2C144.3,177.3,144.1,177.2,143.9,177.2z"/>
			<path d="M151.5,178.3c0.3,0,0.6-0.1,1-0.1C152.1,178.3,151.8,178.3,151.5,178.3z"/>
			<path d="M147.7,178.2c0.3,0,0.5,0.1,0.8,0.1C148.3,178.2,148,178.2,147.7,178.2z"/>
			<path d="M152.6,178.2c0.3,0,0.5-0.1,0.8-0.2C153.2,178.1,152.9,178.1,152.6,178.2z"/>
			<path d="M150.4,178.4c0.3,0,0.6,0,0.8,0C151,178.4,150.7,178.4,150.4,178.4z"/>
			<path d="M144.9,177.5c0.2,0.1,0.4,0.1,0.6,0.2C145.3,177.6,145.1,177.6,144.9,177.5z"/>
			<path d="M146.7,178c0.3,0.1,0.6,0.1,0.9,0.2C147.3,178.1,147,178.1,146.7,178z"/>
			<path d="M145.8,177.8c0.2,0.1,0.4,0.1,0.6,0.2C146.2,177.9,146,177.8,145.8,177.8z"/>
			<path d="M142.9,176.8c0.2,0.1,0.4,0.2,0.6,0.2C143.3,176.9,143.1,176.9,142.9,176.8z"/>
			<path d="M103.9,140.2c1.5,1.9,3.2,4.1,5,6.4C107.1,144.3,105.4,142.2,103.9,140.2z"/>
			<path d="M103.2,139.3c0.2,0.3,0.5,0.6,0.7,1C103.7,139.9,103.4,139.6,103.2,139.3z"/>
			<path d="M110.3,148.3c0.8,1,1.6,2,2.5,3C111.9,150.3,111.1,149.3,110.3,148.3z"/>
			<path d="M102.3,138.2c0.1,0.1,0.2,0.3,0.4,0.4C102.5,138.5,102.4,138.3,102.3,138.2z"/>
			<path d="M109,146.7c0.4,0.5,0.8,1,1.2,1.5C109.7,147.7,109.4,147.2,109,146.7z"/>
			<path d="M99.8,135.1c0.1,0.1,0.1,0.2,0.2,0.3C99.9,135.2,99.8,135.2,99.8,135.1z"/>
			<path d="M101.4,137c0.1,0.1,0.2,0.2,0.3,0.3C101.6,137.2,101.5,137.1,101.4,137z"/>
			<path d="M100.6,136.1c0.1,0.1,0.1,0.2,0.2,0.3C100.8,136.3,100.7,136.2,100.6,136.1z"/>
			<path d="M115.8,154.9c0.4,0.5,0.9,1,1.4,1.5C116.6,155.9,116.2,155.4,115.8,154.9z"/>
			<path d="M118.9,158.3c0.5,0.5,0.9,1,1.4,1.5C119.9,159.3,119.4,158.8,118.9,158.3z"/>
			<path d="M124,163.4c0.5,0.5,1,1,1.6,1.4C125,164.3,124.5,163.8,124,163.4z"/>
			<path d="M122.1,161.6c0.5,0.5,1,1,1.5,1.5C123.1,162.6,122.6,162.1,122.1,161.6z"/>
			<path d="M127.5,166.5c0.6,0.5,1.1,1,1.7,1.4C128.6,167.5,128,167,127.5,166.5z"/>
			<path d="M112.9,151.5c0.4,0.5,0.8,1,1.3,1.5C113.7,152.5,113.3,152,112.9,151.5z"/>
			<path d="M114.4,153.3c0.4,0.5,0.9,1,1.3,1.5C115.2,154.3,114.8,153.8,114.4,153.3z"/>
			<path d="M117.3,156.6c0.5,0.5,0.9,1,1.4,1.5C118.2,157.5,117.7,157,117.3,156.6z"/>
			<path d="M129.5,168.2c0.6,0.5,1.1,0.9,1.7,1.4C130.6,169.1,130,168.7,129.5,168.2z"/>
			<path d="M148.8,178.3c0.2,0,0.4,0,0.5,0C149.2,178.3,149,178.3,148.8,178.3z"/>
			<path d="M165.7,168.5c0.2-0.2,0.4-0.5,0.5-0.7C166,168,165.9,168.3,165.7,168.5z"/>
			<path d="M166.4,167.5c0.2-0.3,0.4-0.5,0.6-0.8C166.8,167,166.6,167.2,166.4,167.5z"/>
			<path d="M163.4,171.3c0.2-0.3,0.4-0.5,0.7-0.8C163.8,170.8,163.6,171.1,163.4,171.3z"/>
			<path d="M164.9,169.5c0.2-0.3,0.4-0.5,0.6-0.8C165.3,168.9,165.1,169.2,164.9,169.5z"/>
			<path d="M167.9,165.4c0.2-0.2,0.3-0.4,0.5-0.7C168.2,165,168.1,165.2,167.9,165.4z"/>
			<path d="M164.2,170.4c0.2-0.2,0.4-0.4,0.5-0.7C164.5,169.9,164.4,170.2,164.2,170.4z"/>
			<path d="M122,161.4c-0.5-0.5-1-1-1.4-1.4C121,160.5,121.5,160.9,122,161.4z"/>
			<path d="M150.2,178.4c-0.2,0-0.3,0-0.5,0C149.9,178.4,150,178.4,150.2,178.4z"/>
			<path d="M162.5,172.3c-0.2,0.2-0.5,0.5-0.7,0.7C162,172.8,162.2,172.6,162.5,172.3z"/>
			<path d="M154.7,177.7c0.3-0.1,0.5-0.2,0.8-0.3C155.2,177.5,154.9,177.6,154.7,177.7z"/>
			<path d="M167.1,166.6c0.2-0.3,0.4-0.5,0.6-0.8C167.5,166,167.3,166.3,167.1,166.6z"/>
			<path d="M158.4,175.9c0.3-0.2,0.5-0.4,0.8-0.5C158.9,175.5,158.6,175.7,158.4,175.9z"/>
			<path d="M162.6,172.1c0.2-0.2,0.4-0.4,0.5-0.6C163,171.7,162.8,171.9,162.6,172.1z"/>
			<path d="M156.6,176.9c0.3-0.1,0.5-0.3,0.8-0.4C157.1,176.6,156.8,176.8,156.6,176.9z"/>
			<path d="M155.7,177.3c0.3-0.1,0.6-0.2,0.8-0.4C156.2,177.1,156,177.2,155.7,177.3z"/>
			<path d="M157.6,176.4c0.2-0.1,0.5-0.3,0.7-0.4C158,176.1,157.8,176.2,157.6,176.4z"/>
			<path d="M160.1,174.5c0.2-0.2,0.5-0.4,0.7-0.6C160.6,174.1,160.4,174.3,160.1,174.5z"/>
			<path d="M161,173.7c0.2-0.2,0.4-0.4,0.6-0.5C161.4,173.4,161.2,173.6,161,173.7z"/>
			<path d="M159.3,175.2c0.2-0.2,0.4-0.3,0.6-0.5C159.8,174.8,159.6,175,159.3,175.2z"/>
			<path d="M168.9,164.1c-0.1,0.1-0.1,0.2-0.2,0.3C168.8,164.2,168.8,164.1,168.9,164.1z"/>
			<path class="st1" d="M352.5,143.3c0.1,2.1-0.2,4.5-1,6.9c-12,7.1-23.5,16.1-32.4,27.5c-26.9,3.3-47.4-38.5-28.4-58
				C314.7,99.2,352.1,107,352.5,143.3z"/>
			<path d="M285.8,181.1c0.1,0.2,0.3,0.3,0.4,0.5C286,181.4,285.9,181.2,285.8,181.1z"/>
			<path d="M273.9,166.5c-0.2-0.2-0.4-0.4-0.6-0.7C273.5,166.1,273.7,166.3,273.9,166.5z"/>
			<path d="M278,171.3c0.3,0.3,0.6,0.7,0.8,1C278.6,172,278.3,171.7,278,171.3z"/>
			<path d="M276.6,169.6c0.4,0.4,0.7,0.9,1.1,1.3C277.4,170.5,277,170.1,276.6,169.6z"/>
			<path d="M287.2,182.9c0.1,0.1,0.2,0.3,0.3,0.4C287.4,183.1,287.3,183,287.2,182.9z"/>
			<path d="M288.2,184.2c0.1,0.2,0.3,0.3,0.4,0.5C288.5,184.5,288.4,184.4,288.2,184.2z"/>
			<path d="M282.8,177.3c0.3,0.4,0.6,0.7,0.9,1.1C283.4,178,283.1,177.7,282.8,177.3z"/>
			<path d="M284.1,178.9c0.3,0.4,0.6,0.8,1,1.2C284.7,179.7,284.4,179.3,284.1,178.9z"/>
			<path d="M274.3,167c0.3,0.3,0.5,0.6,0.8,0.9C274.8,167.6,274.6,167.3,274.3,167z"/>
			<path d="M275.5,168.3c0.3,0.3,0.6,0.7,0.9,1C276.1,169,275.8,168.7,275.5,168.3z"/>
			<path d="M281.4,175.6c0.4,0.5,0.7,0.9,1.1,1.4C282.2,176.5,281.8,176,281.4,175.6z"/>
			<path d="M280.3,174.2c0.3,0.4,0.6,0.8,0.9,1.1C280.9,175,280.6,174.6,280.3,174.2z"/>
			<path d="M279.2,172.8c0.3,0.3,0.5,0.6,0.8,0.9C279.7,173.4,279.5,173.1,279.2,172.8z"/>
			<path class="st1" d="M266.3,104.8c0.4,8.7-6.6,21.1-16.9,28.4c-17.2-3.8-30.6-5.6-43.4-5.4C166.8,75,262.9,40.8,266.3,104.8z"/>
			<path d="M207.6,143.8L207.6,143.8c4.9,0,10.2,0.4,15.7,1C217.8,144.2,212.5,143.8,207.6,143.8z"/>
			<path d="M252,150.3C252,150.3,252,150.3,252,150.3c-4.9-1.2-9.9-2.3-14.9-3.3C242.1,148,247.1,149,252,150.3z"/>
			<path d="M223.2,144.8c1.8,0.2,3.7,0.5,5.5,0.8C226.9,145.3,225,145,223.2,144.8z"/>
			<path d="M231.5,146c1.9,0.3,3.8,0.6,5.6,1C235.3,146.6,233.4,146.3,231.5,146z"/>
			<path class="st1" d="M437.5,145.5c0,1.2-0.1,2.4-0.3,3.6c0,0-15,10.3-25.5,33.5c-54.6,21.1-91.6,32.3-158.1,27.2
				c-47.3-1.4-87.2,2.2-127.7-20c13.2-8.2-44.9-48.9-31-58.6c4.1,1.3,6.3,6,9.1,9.1v0c70.2,86.1,45.6,1.2,103.7,3.5
				c15.5,0.2,31.9,3,47,7.3c21.2,9.8,30.3,33.8,47.7,48.2c7.1,6.5,16.7,5.9,22.5-2c24.9-42.2,87.7-53.9,106-59.8
				C435.3,136.7,437.8,141.4,437.5,145.5z"/>
		</g>
		<path class="st1" d="M141.5,214.1c-2.1-0.7-4-1.5-5.8-2.2C137.5,212.6,139.4,213.3,141.5,214.1z"/>
		<path class="st1" d="M152.5,234.3c-1.6-0.4-3.2-0.8-4.7-1.3C149.3,233.4,150.9,233.8,152.5,234.3z"/>
		<path class="st1" d="M189.4,240.4c-0.6-0.1-1.2-0.1-1.8-0.2C188.2,240.3,188.8,240.3,189.4,240.4z"/>
		<path class="st1" d="M208.5,240.9c-1.5,0-2.9,0-4.3,0C205.6,241,207,240.9,208.5,240.9z"/>
		<path class="st1" d="M228.9,241c-6.8-0.1-13.6-0.2-20.4-0.1C215.3,240.8,222.1,240.9,228.9,241z"/>
		<path class="st1" d="M193.4,410.8c-0.6-0.6-1.2-1.1-1.9-1.6C192.2,409.7,192.8,410.3,193.4,410.8z"/>
		<path class="st1" d="M454.6,419.6c0.5,13.2,20,7.4-42.7,24.8c-66.3,17.1-183.8,0.6-188-0.5c1.6-17.3-10.3-38.3-23.5-48.2
			c-22.2-18.7-55.8-5.2-70.5,15.6c-3.6-21.9-24.4-43.8-45.7-44c-3.2-11.5,0.2-18.6,2.1-21.6c21.5,11.8,45.7,18.9,70,21.3l0.4-1.6
			C82.1,327,53.5,329,113.3,237c82.7,32.5,217.7,32,308.1-7.3c19.3,33.4,44.2,59.8,37.1,91.1c-71.1,5.3-132.3,68.2-207.2,48.2
			l-0.5,1.5c71.9,25.4,137.1-25,206.2-33.9c7.6,8.6,2,23.3,7.5,32.9C470.9,380.6,454,406.5,454.6,419.6z"/>
		<g>
			<path class="st1" d="M418,213.5c-52.9,26.7-123.9,32.9-183.3,27.7c-40.6,0.5-84.5-1.2-120.4-21.7c-6.7-3.7-4-14.6,3.6-14.8
				c5.5,0.2,10.3,4.8,15.9,6.5c37.2,16.8,79.5,13.2,119.2,14.7c50.5,5.1,114.4-5.1,157.6-26.4C419.5,194.4,427.4,208.8,418,213.5z"
				/>
			<path class="st1" d="M177.7,239.1c-0.9-0.1-1.7-0.2-2.6-0.3C176,238.9,176.8,239,177.7,239.1z"/>
			<path class="st1" d="M183.8,239.9c-1.4-0.1-2.7-0.3-4-0.4C181.1,239.5,182.5,239.7,183.8,239.9z"/>
		</g>
	</g>
	<g>
		<path class="st1" d="M113.9,425.6c-3.4,19.6-22.9,28.5-41.5,25.4c-23.9-0.3-33.6-32.8-20.6-54.7c7.3-12.5,25.8-16.1,40.1-11.2
			C104.5,390.2,118,409.8,113.9,425.6z"/>
		<path class="st1" d="M109.8,436.2c-0.5,0.9-1,1.7-1.6,2.5C108.8,437.9,109.3,437.1,109.8,436.2z"/>
		<path d="M108.2,438.7c0.5-0.8,1.1-1.6,1.6-2.5C109.3,437.1,108.8,437.9,108.2,438.7z"/>
	</g>
	<g>
		<path class="st1" d="M207.9,441c0.9,13.4-14.5,31.1-32.5,31.5c-24.6,0.9-46.3-24.4-35.3-47.1c6.2-12.5,24.9-26.1,40.6-21.9
			C195.7,407.7,207.3,425.3,207.9,441z"/>
		<path class="st1" d="M193.4,410.8c-0.6-0.6-1.2-1.1-1.9-1.6C192.2,409.7,192.8,410.3,193.4,410.8z"/>
		<path d="M191.6,409.2c0.6,0.5,1.2,1.1,1.9,1.6C192.8,410.3,192.2,409.7,191.6,409.2z"/>
	</g>
</g>
</svg>
