<?xml version="1.0" encoding="UTF-8" standalone="no"?>
<!-- Generator: Adobe Illustrator 28.1.0, SVG Export Plug-In . SVG Version: 6.00 Build 0)  -->

<svg
   version="1.1"
   id="svg1"
   x="0px"
   y="0px"
   viewBox="0 0 512 512"
   style="enable-background:new 0 0 512 512;"
   xml:space="preserve"
   sodipodi:docname="radiation-shield.svg"
   inkscape:version="1.4 (86a8ad7, 2024-10-11)"
   xmlns:inkscape="http://www.inkscape.org/namespaces/inkscape"
   xmlns:sodipodi="http://sodipodi.sourceforge.net/DTD/sodipodi-0.dtd"
   xmlns="http://www.w3.org/2000/svg"
   xmlns:svg="http://www.w3.org/2000/svg"><defs
   id="defs5" />
<style
   type="text/css"
   id="style1">
	.st0{enable-background:new    ;}
	.st1{fill:#FFFFFF;}
</style>
<sodipodi:namedview
   bordercolor="#000000"
   borderopacity="0.25"
   id="namedview1"
   inkscape:current-layer="g5"
   inkscape:cx="40.541506"
   inkscape:cy="188.97573"
   inkscape:deskcolor="#d1d1d1"
   inkscape:pagecheckerboard="true"
   inkscape:pageopacity="0.0"
   inkscape:showpageshadow="2"
   inkscape:window-height="1001"
   inkscape:window-maximized="1"
   inkscape:window-width="1920"
   inkscape:window-x="-9"
   inkscape:window-y="-9"
   inkscape:zoom="0.76464845"
   pagecolor="#696969">
	</sodipodi:namedview>
<g
   id="g5"
   class="st0">
	<path
   id="circle4"
   class="st1"
   d="M 252.69922 234.19922 A 20.299999 20.299999 0 0 0 232.40039 254.5 A 20.299999 20.299999 0 0 0 252.69922 274.80078 A 20.299999 20.299999 0 0 0 273 254.5 A 20.299999 20.299999 0 0 0 252.69922 234.19922 z "
   style="enable-background:new 0 0 512 512" /><path
   class="st1"
   d="M369.7,252.7H289c-0.3-11.6-5.9-23.7-17.8-30.5l41.5-72.1C348.8,173.3,369,212.4,369.7,252.7z"
   id="path2"
   style="enable-background:new 0 0 512 512" /><path
   class="st1"
   d="M308.6,351.3c-36,19.2-78.8,20.3-111.8-0.4l36.9-63.6c12.2,6.4,26.4,6.6,37.6-0.6L308.6,351.3z"
   id="path1"
   style="enable-background:new 0 0 512 512" />
	
	<path
   class="st1"
   d="M233.8,221.4c-10.8,5.8-18.6,18.5-19.2,31.4h-76.2c-2.7-41.3,17.1-77.4,55.3-101L233.8,221.4z"
   id="path3"
   style="enable-background:new 0 0 512 512" /><path
   id="path3_00000173124944830917200050000010628938855484807847_"
   inkscape:label="path2"
   class="st1"
   d="M359.7,144.1     c-9.8-9.3-20.5-17.5-32.1-24.3c0,0,0,0,0,0C193.9,37.4,19.8,219.4,148.1,355.7C277.9,488.8,500.2,297.1,359.7,144.1z      M328.8,358.3c-70.7,46.5-157.3,21.9-192.3-51.8c-10.3-21-15.4-44.7-14-68c0.4-6.7,1.3-13.3,2.8-19.9c0.6-2.5,1.2-4.9,1.9-7.3     c2-6.8,4.6-13.5,7.8-19.9c5.4-10.8,12.5-20.7,20.8-29.4v0C294.4,23.5,482.4,240,328.8,358.3z"
   style="enable-background:new 0 0 512 512" /><path
   id="path4"
   inkscape:label="path1"
   class="st1"
   d="M48.5,22c3.7,179.7,1.8,419.4,205.4,467.7   c203.6-48.3,201.6-288,205.4-467.7H48.5z M253.9,470.3C71.4,424.4,73.1,206.6,67.3,40.7h373.1c-0.6,98.3-9.3,215.2-37.8,292.4   C373.7,411.5,326.4,449.2,253.9,470.3z"
   style="enable-background:new 0 0 512 512" />
</g>
</svg>
