<?xml version="1.0" encoding="utf-8"?>
<!-- Generator: Adobe Illustrator 28.1.0, SVG Export Plug-In . SVG Version: 6.00 Build 0)  -->
<svg version="1.1" xmlns="http://www.w3.org/2000/svg" xmlns:xlink="http://www.w3.org/1999/xlink" x="0px" y="0px"
	 viewBox="0 0 512 512" style="enable-background:new 0 0 512 512;" xml:space="preserve">
<style type="text/css">
	.st0{fill:#FFFFFF;}
</style>
<g id="Слой_2">
</g>
<g id="Слой_3">
	<g>
		<g>
			<path class="st0" d="M96.5,415.5c2.8,2.8,5.8,5.5,8.9,7.9c-10.1,10.6-20.5,20-34.7,33.3c-3-6.5-8.8-12.4-15.4-15.4
				c13.3-14.2,22.7-24.6,33.3-34.7C91.1,409.7,93.7,412.6,96.5,415.5z"/>
		</g>
		<g>
			<path class="st0" d="M53.1,482.4c-15,15.5-39-8.6-23.5-23.5C44.5,443.5,68.6,467.3,53.1,482.4z"/>
		</g>
		<g>
			<path class="st0" d="M167.4,426.3c-31.3,2.8-62.9-16.1-75.3-45c-5.2-11.6-7.3-24.2-6.4-36.7c15.2-11.4,35.8-14.5,53.7-8.3
				c-0.9,1.1-4.1,3.8-4.9,4.8c-27.5-7.1-12.5,27.2-0.3,36.6c9.4,12.2,43.7,27.2,36.6-0.3c1.1-0.8,3.8-4,4.8-4.9
				C181.8,390.4,179,410.6,167.4,426.3z"/>
		</g>
		<g>
			<path class="st0" d="M487.4,24.6c0,0-308.3,321.2-308.3,321.2c-3.4,3.5-13,13.6-16.3,17c-3.7,5.1-11,7.6-16,2.6
				c-5.2-4.9-3-12.5,2.4-16.3c3.3-3.3,13.5-12.9,17-16.3C166.2,332.9,487.4,24.6,487.4,24.6z"/>
		</g>
	</g>
</g>
<g id="Слой_1">
</g>
</svg>
