<?xml version="1.0" encoding="utf-8"?>
<!-- Generator: Adobe Illustrator 28.1.0, SVG Export Plug-In . SVG Version: 6.00 Build 0)  -->
<svg version="1.1" id="Слой_1" xmlns="http://www.w3.org/2000/svg" xmlns:xlink="http://www.w3.org/1999/xlink" x="0px" y="0px"
	 viewBox="0 0 512 512" style="enable-background:new 0 0 512 512;" xml:space="preserve">
<style type="text/css">
	.st0{fill:#FFFFA1;}
	.st1{fill:#FFC3A1;}
	.st2{fill:#FFFFFF;}
</style>
<g id="Слой_2_00000059295695382928893970000015014271075090269349_">
</g>
<g id="Слой_3">
	<path class="st0" d="M55.3,441.3c13.3-14.2,22.7-24.6,33.3-34.7c5,6.1,10.5,12,16.8,16.8c-10.1,10.6-20.5,20-34.7,33.3
		C67.7,450.2,61.9,444.3,55.3,441.3z"/>
	<path class="st1" d="M96.5,415.5c2.8,2.8,5.8,5.5,8.9,7.9c-10.1,10.6-20.5,20-34.7,33.3c-3-6.5-8.8-12.4-15.4-15.4
		c13.3-14.2,22.7-24.6,33.3-34.7C91.1,409.7,93.7,412.6,96.5,415.5z"/>
	<g>
		<g>
			<path class="st2" d="M105.4,423.4c-10.1,10.6-20.5,20-34.7,33.3c-3-6.5-8.8-12.4-15.4-15.4c13.3-14.2,22.7-24.6,33.3-34.7
				C93.6,412.7,99.1,418.6,105.4,423.4z"/>
		</g>
		<g>
			<path class="st2" d="M172.3,418.3c-12.4,42.9-79.3,77.7-137.7,67.2c-9.1-4.7-14.6-17.4-5-26.6c14.6-15.1,37.9,7.3,24.5,22.5
				c37.2-10.4,65.8-33.5,75.6-62c-28.3-12.7-46.7-43.9-44-74.8c15.2-11.4,35.8-14.5,53.7-8.3c-0.9,1.1-4.1,3.8-4.9,4.8
				c-24.4-6.2-14.6,19.8-6.6,29.9c8.1,13.8,49.3,38.2,42.9,6.4c1.4-1.1,3.8-4.1,4.8-4.9C180.8,387.5,179.7,404.1,172.3,418.3z"/>
		</g>
		<g>
			<path class="st2" d="M487.2,24.8c0,0-308.1,321-308.1,321c-2.8,2.9-10,10.5-14.2,14.9c-4.4,5.6-11.7,10.8-18.1,4.7
				c-7.2-7.2-0.1-14.7,6.1-19.9c4.4-4.3,10.7-10.2,13.3-12.7C166.2,332.9,477.5,34.1,487.2,24.8z"/>
		</g>
	</g>
</g>
<g id="Слой_1_00000072241352844175402830000012039557655821302425_">
</g>
</svg>
