<?xml version="1.0" encoding="utf-8"?>
<!-- Generator: Adobe Illustrator 28.4.1, SVG Export Plug-In . SVG Version: 6.00 Build 0)  -->
<svg version="1.1" id="Слой_1" xmlns="http://www.w3.org/2000/svg" xmlns:xlink="http://www.w3.org/1999/xlink" x="0px" y="0px"
	 viewBox="0 0 512 512" style="enable-background:new 0 0 512 512;" xml:space="preserve">
<style type="text/css">
	.st0{fill:#FFFFFF;}
</style>
<g>
	<path class="st0" d="M242.7,298.4v13.3H114.8v-13.3c0,0,0-27,13-59.6s15.2-44.1,21.1-62.7c5.9-15.3,10.6-45.2,10-89.7
		c0.9,0.1,1.9,0.2,2.8,0.2h33.9c1,0,1.9-0.1,2.8-0.2c-0.6,44.6,4.1,74.5,10,89.7c5.9,18.6,8.1,30.1,21.1,62.7
		C242.7,271.4,242.7,298.4,242.7,298.4z"/>
	<path class="st0" d="M242.7,462v6.2c0,7.4-6,13.3-13.4,13.3H128.1c-7.4,0-13.4-6-13.4-13.3V462H242.7z"/>
	<g>
		<g>
			<path class="st0" d="M114.8,327.7V446h127.9V327.7H114.8z M223.9,365.8v16h-9.7v53h-16v-53h-11.4v11.1h-16v-11.1H158v53h-16v-53
				h-8.5v-16h4.6c-8.8-2.6-13.4-5.2-13.8-5.4l4-6.9l4-6.9c0.2,0.1,15.4,8.5,46.4,8.5s46.2-8.4,46.4-8.5l8,13.8
				c-0.4,0.2-4.9,2.8-13.8,5.4H223.9z"/>
		</g>
	</g>
	<g>
		<g>
			<path class="st0" d="M201.7,64.5c0,2.6-1.7,5-4.2,5.8c-0.6,0.2-1.2,0.3-1.8,0.3h-34.1c-3,0-5.7-2.5-5.9-5.5
				c-0.1-0.5,1.6-27.9,1.5-28.5c0-3.3,2.7-6,6.1-6H194c3.3,0,6.1,2.7,6.1,6.1L201.7,64.5z"/>
		</g>
	</g>
	<path class="st0" d="M379.9,473.9c0,4.2-11.1,7.6-24.8,7.6c-13.7,0-24.8-3.4-24.8-7.6c0-1.6,1.7-3.2,4.6-4.4
		c5.1,1.2,10.8,2.2,17.1,2.8c1,0.1,2.4,0.1,3.6,0.1c0.9,0,1.8,0,2.5-0.1c6.8-0.5,12.7-1.4,17.8-2.6
		C378.4,470.9,379.9,472.4,379.9,473.9z"/>
	<g>
		<path class="st0" d="M397.2,429.7v-0.4c0-2.7-1.3-6.4-7.3-8.6c-2.2-0.8-5.2-1.5-8.9-2.1c-7-1.1-16.2-1.7-26-1.7s-19,0.6-26,1.7
			c-3.7,0.6-6.7,1.3-8.9,2.1c-6,2.2-7.3,5.9-7.3,8.6v0.4c-0.2,2.3-0.9,22.9,40,27.3c1.2,0.1,3.1,0.2,4.4,0.1
			C398.2,453.7,397.3,432,397.2,429.7z M389.1,430.7c-2.8,1.6-10.4,3-20.3,3.6c-4.2,0.3-8.9,0.4-13.7,0.4c-4.9,0-9.5-0.2-13.7-0.4
			c-5-0.3-9.3-0.8-12.8-1.4c-3.5-0.6-6.1-1.4-7.5-2.2c-0.8-0.4-1.2-0.9-1.2-1.4c0-3,15.8-5.5,35.2-5.5c19.5,0,35.2,2.4,35.2,5.5
			C390.3,429.7,389.9,430.2,389.1,430.7z"/>
	</g>
</g>
</svg>
