<?xml version="1.0" encoding="utf-8"?>
<!-- Generator: Adobe Illustrator 28.4.1, SVG Export Plug-In . SVG Version: 6.00 Build 0)  -->
<svg version="1.1" id="Слой_1" xmlns="http://www.w3.org/2000/svg" xmlns:xlink="http://www.w3.org/1999/xlink" x="0px" y="0px"
	 viewBox="0 0 512 512" style="enable-background:new 0 0 512 512;" xml:space="preserve">
<style type="text/css">
	.st0{fill:#FFFFFF;}
	.st1{fill:#1D1D1B;}
	.st2{fill:none;stroke:#1D1D1B;stroke-width:16;stroke-miterlimit:10;}
	.st3{fill:#2A0025;}
</style>
<g>
	<g>
		<path class="st0" d="M419.7,467.2c1.3,9.8-67.9,9.8-66.6,0c3.7-8.6,20.1-0.8,29.2-1.6c10.5,0.5,23.3-1.2,32.1-2.6
			C417.7,464.2,419.7,465.7,419.7,467.2z"/>
		<g>
			<path class="st0" d="M428.5,383c0.9-18.4-65.5-13.1-77.1-9c-6.2,2.4-7.3,5.9-7.3,9c-0.1,1-0.3,33.2,3,46.9
				c3.3,18.5,19.3,19.1,41.4,20.5c23-1.9,32.8-2.2,37-20.1C428.8,416.4,428.6,384,428.5,383z M420.4,384c-10.7,4.7-59.3,7-69.2-1.4
				C348.4,376.1,429.3,374.2,420.4,384z"/>
		</g>
	</g>
	<path class="st0" d="M275.7,188.4c-42.8-87.1-72.4-57.9-24.9-141.3c0,0,0-12.1-7.2-9.5c-7.2,2.6-29.9,7.3-54.8,6.8
		c-24.9,0.5-47.6-4.2-54.8-6.8c-7.2-2.6-7.2,9.5-7.2,9.5C206.4,178,51.6,68.6,89.5,422.5l28.5-7.7l9.5-10.2
		c1.2-8.9,3.6-26.7,4.8-35.5l11.4-8.9l-1-4.9c-13.9,7.7-32.7-1-36.1-16.2c-13.6-10.2-11.3-34.1,3.9-41.6
		c5.3-15.3,26.7-21.3,39.2-10.5c14.7,1.1,25.6,15.6,22.5,30.1l21.6-11l7.2,14.3l-29.3,14.9c-2,7.1-7,12.9-13.5,16l1.4,6.9l10.2,5.2
		l46.6-10.8l7.1-6.1c-9.6-6.2-13.7-19.9-9.1-30.3c-3.5-15.4,10.1-31.2,25.9-30.1c14.1-10.5,36.1-1.8,39.2,15.5
		c13.7,10.3,11.8,33.4-3.1,41.4c-5.4,14-24.9,19.9-37.1,11l-14.3,12.3c3,2.7,5.2,6,6.7,9.8c14.3,7.4,17.3,29.4,4.9,40.3
		c-3.3,15.5-22,24.3-36,16.7c-6.8,1.4-14.4-0.4-19.9-4.6l-13.2,4.5L140.6,414l-14,15.1l-35.2,9.5c2.2,16.3,4.2,34.2,16,36.2
		c0,0,162.8,0,162.8,0s8.3-2,11.1-10.6C293.2,408.5,303.4,256.5,275.7,188.4z M194.6,417.3c1,0.2,2,0.1,3-0.1
		C196.6,417.5,195.6,417.5,194.6,417.3z M193.8,382.1c0.4,0,0.9,0,1.3,0.1C194.7,382.2,194.2,382.1,193.8,382.1z M192.1,382.3
		c-0.5,0.1-1.1,0.2-1.6,0.4C191,382.6,191.6,382.4,192.1,382.3z M170.9,404.6c0.1-0.7,0.2-1.3,0.3-1.9c-3.7-7-3.6-16.4,0.4-23.4
		l-3.9,0.9l-14.4-7.3l-6.1,4.8c-0.6,4.5-2,14.9-2.6,19.5l25.4,17.9l1.4-0.5C170.6,411.4,170.4,408,170.9,404.6z M244.1,303.4
		c0.5,0.3,1,0.7,1.5,1.1C245.1,304.1,244.6,303.7,244.1,303.4z M246.8,339.4c0.3,0.3,0.7,0.7,1.1,1
		C247.5,340.1,247.1,339.7,246.8,339.4z M260.4,299.2c0.4,0.3,0.8,0.6,1.1,1C261.2,299.9,260.8,299.5,260.4,299.2z"/>
	<g>
		<path class="st1" d="M197.6,417.3c-1,0.2-2,0.2-3,0.1C195.6,417.5,196.6,417.5,197.6,417.3z"/>
		<path class="st1" d="M247.9,340.3c-0.4-0.3-0.8-0.6-1.1-1C247.1,339.7,247.5,340.1,247.9,340.3z"/>
		<path class="st2" d="M152.5,363.5"/>
	</g>
	<g>
		<path class="st0" d="M156.7,328c0.8,8.7-11.3,13.2-16.4,6.2c-0.4,2.7-2,5.2-4.4,6.6c-7.6,4.9-17.3-4.1-13-12
			c-14.4-0.2-10.7-22.4,3-17.9c-5.9-11.9,13.2-19.4,17.1-6.8c10.6-6.2,19.7,10.7,8.9,16.2C154.6,321.7,156.6,324.8,156.7,328z"/>
	</g>
	<g>
		<path class="st0" d="M228.5,399.3c-0.6,4.2-3.9,7.3-7.8,7.8c4.4,11.5-13.1,18-17.3,6.5c-3.2,4.7-10.7,5.1-14.3,0.8v0
			c-3.9-4.1-2.7-11.5,2.2-14.1c-13.4-4.4-4.2-24,7.8-16.5c2.5-14.2,23.5-7.6,17.3,5.5C222.6,386.9,229.6,392.6,228.5,399.3z"/>
		<path class="st0" d="M193.7,382.1c-0.2,0-0.4,0-0.6,0C193.3,382.2,193.5,382.1,193.7,382.1z"/>
	</g>
	<g>
		<path class="st0" d="M266.4,330c-1.4,0.4-2.8,0.5-4.2,0.2c3.2,9.4-9.9,16.4-15.9,8.6v0c-1.5-1.7-2.2-4.2-2.1-6.4
			c-9.9,8.9-22.3-7-11.3-14.5c-8.8-8.6,4.5-21.8,13.1-13c1.2-7.4,11.8-10.1,16.2-3.9c0.1,0.1,0.2,0.2,0.2,0.3c0,0,0,0,0,0
			c2.4,3.1,2.3,7.7,0.1,10.8C273.6,310.3,277.3,326.9,266.4,330z"/>
		<path class="st0" d="M244.1,303.4c0.5,0.3,1,0.7,1.5,1.1C245.1,304.1,244.6,303.7,244.1,303.4z"/>
		<path class="st0" d="M246.8,339.4c0.3,0.3,0.7,0.7,1.1,1C247.5,340.1,247.1,339.7,246.8,339.4z"/>
		<path class="st0" d="M261.5,300.2c-0.3-0.4-0.7-0.7-1.1-1C260.8,299.5,261.2,299.9,261.5,300.2z"/>
		<path class="st3" d="M260.4,299.2c0.4,0.3,0.8,0.6,1.1,1C261.2,299.9,260.8,299.5,260.4,299.2z M246.8,339.4
			c0.3,0.3,0.7,0.7,1.1,1C247.5,340.1,247.1,339.7,246.8,339.4z M244.1,303.4c0.5,0.3,1,0.7,1.5,1.1
			C245.1,304.1,244.6,303.7,244.1,303.4z"/>
	</g>
</g>
</svg>
