<?xml version="1.0" encoding="UTF-8" standalone="no"?>
<!-- Generator: Adobe Illustrator 28.4.1, SVG Export Plug-In . SVG Version: 6.00 Build 0)  -->

<svg
   version="1.1"
   id="Слой_1"
   x="0px"
   y="0px"
   viewBox="0 0 512 512"
   style="enable-background:new 0 0 512 512;"
   xml:space="preserve"
   sodipodi:docname="sake-bottle.svg"
   inkscape:version="1.4 (86a8ad7, 2024-10-11)"
   xmlns:inkscape="http://www.inkscape.org/namespaces/inkscape"
   xmlns:sodipodi="http://sodipodi.sourceforge.net/DTD/sodipodi-0.dtd"
   xmlns="http://www.w3.org/2000/svg"
   xmlns:svg="http://www.w3.org/2000/svg"><defs
   id="defs8">
		
	
		
	
		
	
			
		
			
		</defs><sodipodi:namedview
   id="namedview8"
   pagecolor="#ffffff"
   bordercolor="#000000"
   borderopacity="0.25"
   inkscape:showpageshadow="2"
   inkscape:pageopacity="0.0"
   inkscape:pagecheckerboard="0"
   inkscape:deskcolor="#d1d1d1"
   inkscape:zoom="1.0813762"
   inkscape:cx="315.33892"
   inkscape:cy="249.21947"
   inkscape:window-width="1920"
   inkscape:window-height="1001"
   inkscape:window-x="-9"
   inkscape:window-y="-9"
   inkscape:window-maximized="1"
   inkscape:current-layer="Слой_1" />
<style
   type="text/css"
   id="style1">
	.st0{fill:#FFFFFF;}
</style>

<path
   d="M 0,4.9999996e-7 H 512 V 512 H 0 Z"
   fill="#000000"
   fill-opacity="1"
   id="path1-8"
   inkscape:label="path2" /><g
   id="g8"
   style="enable-background:new 0 0 512 512"
   inkscape:label="g2">
	<path
   id="path1"
   class="st0"
   d="M 163.30078 30.599609 C 159.90078 30.599609 157.19922 33.299609 157.19922 36.599609 C 157.29922 37.199609 155.59922 64.599609 155.69922 65.099609 C 155.89922 68.099609 158.59961 70.599609 161.59961 70.599609 L 195.69922 70.599609 C 196.29922 70.599609 196.9 70.500781 197.5 70.300781 C 200 69.500781 201.69922 67.1 201.69922 64.5 L 200.09961 36.699219 C 200.09961 33.299219 197.3 30.599609 194 30.599609 L 163.30078 30.599609 z M 158.90039 86.400391 C 159.50039 130.90039 154.80039 160.79961 148.90039 176.09961 C 143.00039 194.69961 140.80078 206.20078 127.80078 238.80078 C 114.80078 271.40078 114.80078 298.40039 114.80078 298.40039 L 114.80078 311.69922 L 242.69922 311.69922 L 242.69922 298.40039 C 242.69922 298.40039 242.7 271.40078 229.5 238.80078 C 216.5 206.20078 214.30039 194.69961 208.40039 176.09961 C 202.50039 160.89961 197.80039 131.00039 198.40039 86.400391 C 197.50039 86.500391 196.59961 86.599609 195.59961 86.599609 L 161.69922 86.599609 C 160.79922 86.599609 159.80039 86.500391 158.90039 86.400391 z M 114.80078 327.69922 L 114.80078 446 L 242.69922 446 L 242.69922 327.69922 L 114.80078 327.69922 z M 132.30078 346.59961 C 132.50078 346.69961 147.69922 355.09961 178.69922 355.09961 C 209.69922 355.09961 224.89961 346.69961 225.09961 346.59961 L 233.09961 360.40039 C 232.69961 360.60039 228.20078 363.20078 219.30078 365.80078 L 223.90039 365.80078 L 223.90039 381.80078 L 214.19922 381.80078 L 214.19922 434.80078 L 198.19922 434.80078 L 198.19922 381.80078 L 186.80078 381.80078 L 186.80078 392.90039 L 170.80078 392.90039 L 170.80078 381.80078 L 158 381.80078 L 158 434.80078 L 142 434.80078 L 142 381.80078 L 133.5 381.80078 L 133.5 365.80078 L 138.09961 365.80078 C 129.29961 363.20078 124.70078 360.60039 124.30078 360.40039 L 128.30078 353.5 L 132.30078 346.59961 z M 355 416.90039 C 345.2 416.90039 336 417.49961 329 418.59961 C 325.3 419.19961 322.29961 419.89922 320.09961 420.69922 C 314.09961 422.89922 312.80078 426.60078 312.80078 429.30078 L 312.80078 429.69922 C 312.60078 431.99922 311.90078 452.6 352.80078 457 C 354.00078 457.1 355.89922 457.19961 357.19922 457.09961 C 398.19922 453.69961 397.29922 431.99922 397.19922 429.69922 L 397.19922 429.30078 C 397.19922 426.60078 395.90039 422.89922 389.90039 420.69922 C 387.70039 419.89922 384.7 419.19961 381 418.59961 C 374 417.49961 364.8 416.90039 355 416.90039 z M 355.09961 423.80078 C 374.59961 423.80078 390.30078 426.20078 390.30078 429.30078 C 390.30078 429.70078 389.89961 430.19922 389.09961 430.69922 C 386.29961 432.29922 378.70078 433.70078 368.80078 434.30078 C 364.60078 434.60078 359.89961 434.69922 355.09961 434.69922 C 350.19961 434.69922 345.60039 434.50078 341.40039 434.30078 C 336.40039 434.00078 332.09961 433.50039 328.59961 432.90039 C 325.09961 432.30039 322.49961 431.49922 321.09961 430.69922 C 320.29961 430.29922 319.90039 429.80078 319.90039 429.30078 C 319.90039 426.30078 335.69961 423.80078 355.09961 423.80078 z M 114.69922 462 L 114.69922 468.19922 C 114.69922 475.49922 120.69961 481.5 128.09961 481.5 L 229.30078 481.5 C 236.70078 481.5 242.69922 475.59922 242.69922 468.19922 L 242.69922 462 L 114.69922 462 z M 334.90039 469.5 C 332.00039 470.7 330.30078 472.30039 330.30078 473.90039 C 330.30078 478.10039 341.39961 481.5 355.09961 481.5 C 368.79961 481.5 379.90039 478.10039 379.90039 473.90039 C 379.90039 472.40039 378.40039 470.89922 375.90039 469.69922 C 370.80039 470.89922 364.89961 471.80078 358.09961 472.30078 C 357.39961 472.40078 356.49961 472.40039 355.59961 472.40039 C 354.39961 472.40039 353 472.40078 352 472.30078 C 345.7 471.70078 340.00039 470.7 334.90039 469.5 z " />
	
	
	
	
	
</g></svg>
