<?xml version="1.0" encoding="UTF-8" standalone="no"?>
<!-- Generator: Adobe Illustrator 28.4.1, SVG Export Plug-In . SVG Version: 6.00 Build 0)  -->

<svg
   version="1.1"
   id="Слой_1"
   x="0px"
   y="0px"
   viewBox="0 0 512 512"
   style="enable-background:new 0 0 512 512;"
   xml:space="preserve"
   sodipodi:docname="sake-bottle-authentic.svg"
   inkscape:version="1.4 (86a8ad7, 2024-10-11)"
   xmlns:inkscape="http://www.inkscape.org/namespaces/inkscape"
   xmlns:sodipodi="http://sodipodi.sourceforge.net/DTD/sodipodi-0.dtd"
   xmlns="http://www.w3.org/2000/svg"
   xmlns:svg="http://www.w3.org/2000/svg"><defs
   id="defs15">
		
	
		
		
		
		
		
	
		
		
		
	
		
		
	
		
		
	</defs><sodipodi:namedview
   id="namedview15"
   pagecolor="#ffffff"
   bordercolor="#000000"
   borderopacity="0.25"
   inkscape:showpageshadow="2"
   inkscape:pageopacity="0.0"
   inkscape:pagecheckerboard="0"
   inkscape:deskcolor="#d1d1d1"
   inkscape:zoom="0.76464844"
   inkscape:cx="455.11111"
   inkscape:cy="366.83525"
   inkscape:window-width="1920"
   inkscape:window-height="1001"
   inkscape:window-x="-9"
   inkscape:window-y="-9"
   inkscape:window-maximized="1"
   inkscape:current-layer="Слой_1" />
<style
   type="text/css"
   id="style1">
	.st0{fill:#FFFFFF;}
	.st1{fill:#1D1D1B;}
	.st2{fill:none;stroke:#1D1D1B;stroke-width:16;stroke-miterlimit:10;}
	.st3{fill:#2A0025;}
</style>

<path
   d="M 0,0 H 512 V 512 H 0 Z"
   fill="#000000"
   fill-opacity="1"
   id="path1-2"
   inkscape:label="path2" /><g
   id="g15"
   style="enable-background:new 0 0 512 512"
   inkscape:label="g1">
	<path
   id="path1"
   class="st0"
   d="M 131.62305 37.261719 C 126.79961 37.835938 126.80078 47.099609 126.80078 47.099609 C 206.40078 177.99961 51.6 68.6 89.5 422.5 L 118 414.80078 L 127.5 404.59961 C 128.7 395.69961 131.10078 377.89961 132.30078 369.09961 L 143.69922 360.19922 L 142.69922 355.30078 C 128.79922 363.00078 109.99961 354.29961 106.59961 339.09961 C 92.999609 328.89961 95.3 305 110.5 297.5 C 115.8 282.2 137.19922 276.2 149.69922 287 C 164.39922 288.1 175.29922 302.59961 172.19922 317.09961 L 193.80078 306.09961 L 201 320.40039 L 171.69922 335.30078 C 169.69922 342.40078 164.69922 348.20078 158.19922 351.30078 L 159.59961 358.19922 L 169.80078 363.40039 L 216.40039 352.59961 L 223.5 346.5 C 213.9 340.3 209.80039 326.59922 214.40039 316.19922 C 210.90039 300.79922 224.50078 284.99961 240.30078 286.09961 C 254.40078 275.59961 276.4 284.29961 279.5 301.59961 C 293.2 311.89961 291.30039 335 276.40039 343 C 271.00039 357 251.50078 362.9 239.30078 354 L 225 366.30078 C 228 369.00078 230.19922 372.29961 231.69922 376.09961 C 245.99922 383.49961 248.99961 405.50039 236.59961 416.40039 C 233.29961 431.90039 214.59961 440.69961 200.59961 433.09961 C 193.79961 434.49961 186.19922 432.7 180.69922 428.5 L 167.5 433 L 140.59961 414 L 126.59961 429.09961 L 91.400391 438.59961 C 93.600391 454.89961 95.600391 472.80078 107.40039 474.80078 L 270.19922 474.80078 C 270.19922 474.80078 278.50078 472.79922 281.30078 464.19922 C 293.20078 408.49922 303.39922 256.50039 275.69922 188.40039 C 232.89922 101.30039 203.30078 130.49961 250.80078 47.099609 C 250.80078 47.099609 250.79961 34.999609 243.59961 37.599609 C 236.39961 40.199609 213.70078 44.900391 188.80078 44.400391 C 163.90078 44.900391 141.2 40.199609 134 37.599609 C 133.1 37.274609 132.31211 37.179688 131.62305 37.261719 z M 255.45703 297.55859 C 251.17188 297.48633 246.75 300.27539 246 304.90039 C 237.4 296.10039 224.10039 309.30039 232.90039 317.90039 C 221.90039 325.40039 234.29922 341.30039 244.19922 332.40039 C 244.09922 334.60039 244.80078 337.10078 246.30078 338.80078 C 252.30078 346.60078 265.39922 339.59922 262.19922 330.19922 C 263.59922 330.49922 265.00039 330.4 266.40039 330 C 277.30039 326.9 273.6 310.29961 262.5 312.09961 C 264.7 308.99961 264.80039 304.40078 262.40039 301.30078 C 262.40039 301.20078 262.29922 301.1 262.19922 301 C 260.54922 298.675 258.02812 297.60195 255.45703 297.55859 z M 134.32031 297.57617 C 128.29102 297.74316 122.21289 303.46289 125.90039 310.90039 C 112.20039 306.40039 108.50039 328.60078 122.90039 328.80078 C 118.60039 336.70078 128.30039 345.70078 135.90039 340.80078 C 138.30039 339.40078 139.90078 336.89922 140.30078 334.19922 C 145.40078 341.19922 157.49922 336.7 156.69922 328 C 156.59922 324.8 154.60039 321.70078 151.90039 320.30078 C 162.70039 314.80078 153.6 297.89961 143 304.09961 C 141.5375 299.37461 137.93789 297.47598 134.32031 297.57617 z M 391.25977 370.00781 C 374.31615 369.89241 356.83789 372.07812 351.40039 374 C 345.20039 376.4 344.09961 379.9 344.09961 383 C 343.99961 384 343.79961 416.20039 347.09961 429.90039 C 350.39961 448.40039 366.4 449.00039 388.5 450.40039 C 411.5 448.50039 421.3 448.20078 425.5 430.30078 C 428.8 416.40078 428.6 384 428.5 383 C 428.97812 373.225 410.46253 370.1386 391.25977 370.00781 z M 153.30078 372.90039 L 147.19922 377.69922 C 146.59922 382.19922 145.19961 392.59922 144.59961 397.19922 L 170 415.09961 L 171.40039 414.59961 C 170.60039 411.39961 170.40039 407.99961 170.90039 404.59961 C 171.00039 403.89961 171.09922 403.29922 171.19922 402.69922 C 167.49922 395.69922 167.59961 386.30078 171.59961 379.30078 L 167.69922 380.19922 L 153.30078 372.90039 z M 208.24219 375.83398 C 204.18417 375.69588 200.11523 378.03203 199.09961 383.80078 C 187.09961 376.30078 177.90078 395.90078 191.30078 400.30078 C 186.40078 402.90078 185.19961 410.30039 189.09961 414.40039 C 190.50986 416.08486 192.52049 417.03672 194.63477 417.30273 C 194.66147 417.30795 194.68814 417.30562 194.71484 417.31055 C 194.96061 417.33939 195.20545 417.36881 195.45312 417.37891 C 195.86459 417.41104 196.27603 417.39594 196.6875 417.34375 C 199.31175 417.12253 201.85683 415.86672 203.40039 413.59961 C 207.60039 425.09961 225.09922 418.59961 220.69922 407.09961 C 224.59922 406.59961 227.9 403.50078 228.5 399.30078 C 229.6 392.60078 222.60039 386.90078 216.40039 389.30078 C 220.08164 381.52266 214.17314 376.03582 208.24219 375.83398 z M 388.08789 377.1875 C 406.85039 377.125 424.85039 379.1 420.40039 384 C 409.70039 388.7 361.09922 390.99961 351.19922 382.59961 C 349.79922 379.34961 369.32539 377.25 388.08789 377.1875 z M 193.80078 382.09961 C 194.20078 382.09961 194.69961 382.09922 195.09961 382.19922 C 194.69961 382.19922 194.20078 382.09961 193.80078 382.09961 z M 196.28516 417.375 C 196.10804 417.3881 195.93102 417.37673 195.75391 417.37695 C 195.93082 417.37877 196.10827 417.38268 196.28516 417.375 z M 414.40039 463 C 405.60039 464.4 392.80078 466.09961 382.30078 465.59961 C 373.20078 466.39961 356.79961 458.59922 353.09961 467.19922 C 351.79961 476.99922 420.99922 476.99922 419.69922 467.19922 C 419.69922 465.69922 417.70039 464.2 414.40039 463 z " />
	
	
	
	
	
</g></svg>
