<svg xmlns="http://www.w3.org/2000/svg" viewBox="0 0 512 512"><path d="M0 0h512v512H0z"/><path fill="#fff" d="M163.343 30.55c-3.4 0-6.102 2.7-6.102 6 .1.6-1.6 28-1.5 28.5.2 3 2.9 5.5 5.9 5.5h34.1c.6 0 1.2-.099 1.8-.299 2.5-.8 4.2-3.2 4.2-5.8l-1.6-27.802c0-3.4-2.8-6.1-6.1-6.1zm-4.4 55.8c.6 44.5-4.1 74.4-10 89.7-5.9 18.6-8.1 30.101-21.1 62.701-13 32.6-13 59.6-13 59.6v13.298H242.74v-13.298s0-27-13.2-59.6c-13-32.6-15.199-44.101-21.099-62.701-5.9-15.2-10.6-45.1-10-89.7-.9.1-1.8.2-2.8.2H161.74c-.9 0-1.899-.1-2.799-.2zm-44.1 241.3v118.3H242.74v-118.3zm17.5 18.9c.2.1 15.398 8.5 46.398 8.5 31 0 46.2-8.4 46.4-8.5l8 13.8c-.4.2-4.899 2.801-13.799 5.401h4.6v16h-9.701v53h-16v-53h-11.399v11.1h-16v-11.1h-12.8v53h-16v-53h-8.5v-16h4.6c-8.8-2.6-13.4-5.2-13.8-5.4l4-6.9zm222.699 70.3c-9.8 0-19 .6-26 1.7-3.7.6-6.7 1.3-8.9 2.1-6 2.2-7.3 5.901-7.3 8.601v.398c-.2 2.3-.9 22.901 40 27.301 1.2.1 3.099.2 4.399.1 41-3.4 40.1-25.1 40-27.4v-.399c0-2.7-1.299-6.402-7.299-8.602-2.2-.8-5.2-1.5-8.9-2.1-7-1.1-16.2-1.698-26-1.698zm.1 6.901c19.5 0 35.2 2.4 35.2 5.5 0 .4-.4.898-1.2 1.398-2.8 1.6-10.4 3.002-20.3 3.602-4.2.3-8.9.398-13.7.398-4.9 0-9.5-.198-13.7-.398-5-.3-9.3-.8-12.8-1.4-3.5-.6-6.1-1.402-7.5-2.202-.8-.4-1.2-.898-1.2-1.398 0-3 15.8-5.5 35.2-5.5zm-240.401 38.2v6.198c0 7.3 6 13.301 13.4 13.301h101.202c7.4 0 13.398-5.9 13.398-13.3v-6.2zm220.201 7.5c-2.9 1.2-4.6 2.8-4.6 4.4 0 4.2 11.1 7.6 24.8 7.6 13.7 0 24.8-3.4 24.8-7.6 0-1.5-1.5-3.002-4-4.202-5.1 1.2-11 2.102-17.8 2.602-.7.1-1.6.1-2.5.1-1.2 0-2.6 0-3.6-.1-6.3-.6-12-1.6-17.1-2.8z"/></svg>
