<?xml version="1.0" encoding="UTF-8" standalone="no"?>
<svg
   viewBox="0 0 512 512"
   style="height: 512px; width: 512px;"
   version="1.1"
   id="svg1"
   sodipodi:docname="shield-with-broken-bricks.svg"
   inkscape:version="1.4 (86a8ad7, 2024-10-11)"
   xmlns:inkscape="http://www.inkscape.org/namespaces/inkscape"
   xmlns:sodipodi="http://sodipodi.sourceforge.net/DTD/sodipodi-0.dtd"
   xmlns="http://www.w3.org/2000/svg"
   xmlns:svg="http://www.w3.org/2000/svg">
  <defs
     id="defs1" />
  <sodipodi:namedview
     id="namedview1"
     pagecolor="#3e3e3e"
     bordercolor="#000000"
     borderopacity="0.25"
     inkscape:showpageshadow="2"
     inkscape:pageopacity="0.0"
     inkscape:pagecheckerboard="true"
     inkscape:deskcolor="#d1d1d1"
     inkscape:zoom="1.5292969"
     inkscape:cx="256.32694"
     inkscape:cy="256"
     inkscape:window-width="1920"
     inkscape:window-height="1001"
     inkscape:window-x="-9"
     inkscape:window-y="-9"
     inkscape:window-maximized="1"
     inkscape:current-layer="g1" />
  <g
     class=""
     transform="translate(0,0)"
     style=""
     id="g1">
    <path
       id="path12"
       style="display:inline;stroke:none;fill:#ffffff;fill-opacity:1"
       d="m 45.90625,23.625 v 9.34375 c 0,102.68 10.49,205.0863 41.125,288.1543 30.637,83.068 82.364,147.41625 163.75,169.78125 l 2.2207,0.625 2.21875,-0.5 c 89.269,-19.03 141.64405,-83.6386 170.37305,-167.5586 28.728,-83.92 35.25,-187.777 35.25,-290.499997 V 23.625 Z m 18.810547,18.6875 h 0.0039 377.339843 c -0.413,98.8 -7.497,197.342 -34.125,275.125 -27.21,79.487 -73.39,136.63825 -154.375,154.78125 -73.28,-21.03 -119.914,-78.6965 -149,-157.5625 C 76.085551,237.44425 65.353797,140.5265 64.716797,42.3125 Z"
       sodipodi:nodetypes="cscccccsccccccccc"
       inkscape:label="Frame" />
    <path
       id="path14"
       style="display:inline;stroke:none;fill:#ffffff;fill-opacity:1"
       inkscape:label="Filler"
       d="M 423.80859 60.550781 L 368.53125 60.607422 L 368.53125 143.46875 L 420.45312 143.46875 C 422.33109 116.32884 423.43176 88.575748 423.80859 60.550781 z M 353.74609 60.621094 L 307.50977 70.53125 L 282.03906 123.39844 L 198.63867 93.867188 L 158.25391 143.46875 L 353.74609 143.46875 L 353.74609 60.621094 z M 89.054688 158.25391 C 92.427444 189.7625 97.297255 220.12365 103.88867 248.60742 L 248.60742 248.60742 L 248.60742 158.25391 L 89.054688 158.25391 z M 263.39258 158.25391 L 263.39258 248.60742 L 407.36133 248.60742 C 412.95002 220.13202 416.81757 189.74289 419.40625 158.25391 L 263.39258 158.25391 z M 107.51172 263.39258 C 111.5829 279.08882 116.19167 294.17151 121.44922 308.42773 C 127.45097 324.70135 134.16913 339.78661 141.60938 353.74609 L 143.46875 353.74609 L 143.46875 263.39258 L 107.51172 263.39258 z M 158.25391 263.39258 L 158.25391 353.74609 L 353.74609 353.74609 C 313.96733 263.44793 353.69946 352.72806 314.13672 263.39258 L 158.25391 263.39258 z M 150.02734 368.53125 C 170.03302 401.1797 195.0858 426.13992 226.66602 442.21289 L 248.60742 368.53125 L 150.02734 368.53125 z M 263.39258 368.53125 L 263.39258 414.35742 C 296.972 437.3421 294.9994 435.93501 296.83594 437.16211 C 325.92697 421.52187 348.08606 398.36013 365.4668 368.53125 L 263.39258 368.53125 z " />
  </g>
</svg>
