<?xml version="1.0" encoding="UTF-8" standalone="no"?>
<svg
   viewBox="0 0 512 512"
   style="height: 512px; width: 512px;"
   version="1.1"
   id="svg1"
   sodipodi:docname="shield-with-bricks.svg"
   inkscape:version="1.4 (86a8ad7, 2024-10-11)"
   xmlns:inkscape="http://www.inkscape.org/namespaces/inkscape"
   xmlns:sodipodi="http://sodipodi.sourceforge.net/DTD/sodipodi-0.dtd"
   xmlns="http://www.w3.org/2000/svg"
   xmlns:svg="http://www.w3.org/2000/svg">
  <defs
     id="defs1" />
  <sodipodi:namedview
     id="namedview1"
     pagecolor="#3e3e3e"
     bordercolor="#000000"
     borderopacity="0.25"
     inkscape:showpageshadow="2"
     inkscape:pageopacity="0.0"
     inkscape:pagecheckerboard="true"
     inkscape:deskcolor="#d1d1d1"
     inkscape:zoom="1.5292969"
     inkscape:cx="256.32694"
     inkscape:cy="256"
     inkscape:window-width="1920"
     inkscape:window-height="1001"
     inkscape:window-x="-9"
     inkscape:window-y="-9"
     inkscape:window-maximized="1"
     inkscape:current-layer="g1" />
  <g
     class=""
     transform="translate(0,0)"
     style=""
     id="g1">
    <path
       id="path12"
       style="display:inline;stroke:none;fill:#ffffff;fill-opacity:1"
       d="m 45.90625,23.625 v 9.34375 c 0,102.68 10.49,205.0863 41.125,288.1543 30.637,83.068 82.364,147.41625 163.75,169.78125 l 2.2207,0.625 2.21875,-0.5 c 89.269,-19.03 141.64405,-83.6386 170.37305,-167.5586 28.728,-83.92 35.25,-187.777 35.25,-290.499997 V 23.625 Z m 18.810547,18.6875 h 0.0039 377.339843 c -0.413,98.8 -7.497,197.342 -34.125,275.125 -27.21,79.487 -73.39,136.63825 -154.375,154.78125 -73.28,-21.03 -119.914,-78.6965 -149,-157.5625 C 76.085551,237.44425 65.353797,140.5265 64.716797,42.3125 Z"
       sodipodi:nodetypes="cscccccsccccccccc"
       inkscape:label="Frame" />
    <path
       id="path13"
       style="display:inline;stroke:none;fill:#ffffff;fill-opacity:1"
       inkscape:label="Filler"
       d="M 423.80859 60.53125 L 368.53125 60.587891 L 368.53125 143.44727 L 420.45508 143.44727 C 422.33252 116.30784 423.43206 88.555419 423.80859 60.53125 z M 353.74609 60.601562 L 158.25391 60.804688 L 158.25391 143.44727 L 353.74609 143.44727 L 353.74609 60.601562 z M 143.46875 60.820312 L 83.097656 60.882812 C 83.665893 88.807567 85.103293 116.48682 87.574219 143.44727 L 143.46875 143.44727 L 143.46875 60.820312 z M 89.050781 158.23242 C 92.422853 189.74143 97.29222 220.10333 103.88281 248.58789 L 248.60742 248.58789 L 248.60742 158.23242 L 89.050781 158.23242 z M 263.39258 158.23242 L 263.39258 248.58789 L 407.36523 248.58789 C 412.95312 220.1117 416.82011 189.72181 419.4082 158.23242 L 263.39258 158.23242 z M 107.50781 263.37305 C 111.58019 279.07621 116.18953 294.1657 121.44922 308.42773 C 127.44821 324.69387 134.16349 339.7724 141.59961 353.72656 L 143.46875 353.72656 L 143.46875 263.37305 L 107.50781 263.37305 z M 158.25391 263.37305 L 158.25391 353.72656 L 353.74609 353.72656 L 353.74609 263.37305 L 158.25391 263.37305 z M 368.53125 263.37305 L 368.53125 353.72656 L 373.47266 353.72656 C 379.9508 340.72774 385.73765 326.70617 390.90625 311.60742 C 396.10075 296.43378 400.49411 280.26236 404.26562 263.37305 L 368.53125 263.37305 z M 150.01562 368.51172 C 174.29079 408.13537 205.98862 436.44907 247.79297 451.26367 L 248.60742 451.26367 L 248.60742 368.51172 L 150.01562 368.51172 z M 263.39258 368.51172 L 263.39258 450.86719 C 309.74712 437.04046 341.97084 408.86448 365.47852 368.51172 L 263.39258 368.51172 z " />
  </g>
</svg>
