<?xml version="1.0" encoding="UTF-8" standalone="no"?>
<svg
   viewBox="0 0 512 512"
   style="height: 512px; width: 512px;"
   version="1.1"
   id="svg1"
   sodipodi:docname="shield-with-broken-bricks.svg"
   inkscape:version="1.4 (86a8ad7, 2024-10-11)"
   xmlns:inkscape="http://www.inkscape.org/namespaces/inkscape"
   xmlns:sodipodi="http://sodipodi.sourceforge.net/DTD/sodipodi-0.dtd"
   xmlns="http://www.w3.org/2000/svg"
   xmlns:svg="http://www.w3.org/2000/svg">
  <defs
     id="defs1" />
  <sodipodi:namedview
     id="namedview1"
     pagecolor="#3e3e3e"
     bordercolor="#000000"
     borderopacity="0.25"
     inkscape:showpageshadow="2"
     inkscape:pageopacity="0.0"
     inkscape:pagecheckerboard="true"
     inkscape:deskcolor="#d1d1d1"
     inkscape:zoom="1.5292969"
     inkscape:cx="256.32694"
     inkscape:cy="256"
     inkscape:window-width="1920"
     inkscape:window-height="1001"
     inkscape:window-x="-9"
     inkscape:window-y="-9"
     inkscape:window-maximized="1"
     inkscape:current-layer="svg1" />
  <path
     d="M 0,4.9999996e-7 H 512 V 512 H 0 Z"
     fill="#000000"
     fill-opacity="1"
     id="path1" />
  <g
     class=""
     style="height:512px;width:512px"
     id="g1">
    <path
       id="path12"
       style="display:inline;stroke:none;fill:#ffffff;fill-opacity:1"
       inkscape:label="Frame"
       d="M 45.90625 23.625 L 45.90625 32.96875 C 45.90625 135.64875 56.39625 238.05505 87.03125 321.12305 C 117.66825 404.19105 169.39525 468.5393 250.78125 490.9043 L 253.00195 491.5293 L 255.2207 491.0293 C 344.4897 471.9993 396.86475 407.3907 425.59375 323.4707 C 454.32175 239.5507 460.84375 135.6937 460.84375 32.970703 L 460.84375 23.625 L 45.90625 23.625 z M 64.716797 42.3125 L 64.720703 42.3125 L 442.06055 42.3125 C 441.64755 141.1125 434.56355 239.6545 407.93555 317.4375 C 380.72555 396.9245 334.54555 454.07575 253.56055 472.21875 C 180.28055 451.18875 133.64655 393.52225 104.56055 314.65625 C 76.085558 237.44425 65.353797 140.5265 64.716797 42.3125 z M 423.80859 60.550781 L 368.53125 60.607422 L 368.53125 143.46875 L 420.45312 143.46875 C 422.3311 116.32884 423.43176 88.575748 423.80859 60.550781 z M 353.74609 60.621094 L 307.50977 70.53125 L 282.03906 123.39844 L 198.63867 93.867188 L 158.25391 143.46875 L 353.74609 143.46875 L 353.74609 60.621094 z M 89.054688 158.25391 C 92.427443 189.7625 97.297257 220.12365 103.88867 248.60742 L 248.60742 248.60742 L 248.60742 158.25391 L 89.054688 158.25391 z M 263.39258 158.25391 L 263.39258 248.60742 L 407.36133 248.60742 C 412.95002 220.13202 416.81757 189.74289 419.40625 158.25391 L 263.39258 158.25391 z M 107.51172 263.39258 C 111.5829 279.08882 116.19167 294.17151 121.44922 308.42773 C 127.45097 324.70135 134.16913 339.78661 141.60938 353.74609 L 143.46875 353.74609 L 143.46875 263.39258 L 107.51172 263.39258 z M 158.25391 263.39258 L 158.25391 353.74609 L 353.74609 353.74609 C 313.96733 263.44793 353.69946 352.72806 314.13672 263.39258 L 158.25391 263.39258 z M 150.02734 368.53125 C 170.03302 401.1797 195.0858 426.13992 226.66602 442.21289 L 248.60742 368.53125 L 150.02734 368.53125 z M 263.39258 368.53125 L 263.39258 414.35742 C 296.972 437.3421 294.9994 435.93501 296.83594 437.16211 C 325.92697 421.52187 348.08606 398.36013 365.4668 368.53125 L 263.39258 368.53125 z " />
  </g>
</svg>
