<?xml version="1.0" encoding="UTF-8" standalone="no"?>
<svg
   viewBox="0 0 512 512"
   style="height: 512px; width: 512px;"
   version="1.1"
   id="svg1"
   sodipodi:docname="slightly-encumbered-robber.svg"
   inkscape:version="1.4 (86a8ad7, 2024-10-11)"
   xmlns:inkscape="http://www.inkscape.org/namespaces/inkscape"
   xmlns:sodipodi="http://sodipodi.sourceforge.net/DTD/sodipodi-0.dtd"
   xmlns="http://www.w3.org/2000/svg"
   xmlns:svg="http://www.w3.org/2000/svg">
  <defs
     id="defs1" />
  <sodipodi:namedview
     id="namedview1"
     pagecolor="#000000"
     bordercolor="#000000"
     borderopacity="0.25"
     inkscape:showpageshadow="2"
     inkscape:pageopacity="0.0"
     inkscape:pagecheckerboard="0"
     inkscape:deskcolor="#d1d1d1"
     inkscape:zoom="1.0813762"
     inkscape:cx="181.25052"
     inkscape:cy="248.29472"
     inkscape:window-width="1920"
     inkscape:window-height="1001"
     inkscape:window-x="-9"
     inkscape:window-y="-9"
     inkscape:window-maximized="1"
     inkscape:current-layer="svg1" />
  <g
     class=""
     transform="translate(44.976146,-4.3040707)"
     id="g1"
     style="fill:#ffffff;fill-opacity:1">
    <path
       d="m 249.00195,361.2207 c -3.61095,-0.20607 -7.33154,-0.37824 -11.24218,-0.49023 -7.72081,-0.22111 -15.75395,-0.52628 -23.91407,-1.69336 l -55.47265,62.39258 c 21.25069,14.21911 30.93837,39.91763 70.875,38.50195 l -1.09961,-22.71094 -31.8086,-18.54297 c 15.80453,-26.34224 27.5062,-18.73715 53.77539,-44.30859 -0.0753,-4.88574 -0.47044,-9.22709 -1.11328,-13.14844 z"
       id="path15"
       style="fill:#ffffff;fill-opacity:1" />
    <path
       d="m 235.41797,176.42969 c -8.527,0.283 -15.98167,4.99292 -24.26367,13.66992 -29.706,32.65 -56.17496,92.53361 -24.87696,134.34961 1.8353,3.0087 4.09888,5.4786 6.69727,7.52734 11.73695,9.25418 30.50925,9.73043 49.63086,10.23438 20.47649,0.53966 41.34219,1.12679 54.37305,12.70117 3.67588,35.87211 -4.9881,41.67471 -8.58399,105.25976 70.46704,0.66107 47.71498,1.39169 105.15625,1.57227 l -2.86719,-23.79102 c -23.5818,-14.92554 -43.43024,-10.20051 -64.31836,-11.3125 7.46334,-30.66437 33.495,-74.69759 9,-95.05859 -17.72,-14.73 -30.75867,-23.79295 -50.26367,-36.12695 2.437,-0.69 -6.53668,-19.76828 -7.55469,-21.98828 -29.352,-7.035 -49.36467,-22.81719 -62.13867,-39.36719 l 14.25,-11 c 13.5,17.492 35.28746,33.75264 73.68946,35.93164 19.65,-2.818 29.57893,-6.95413 35.33593,-11.70313 5.626,-4.63999 8.61454,-10.96318 12.89453,-20.61718 1.09501,-6.312 -0.24984,-7.85157 -2.83984,-10.10157 -1.95,-1.696 -5.24611,-3.19846 -8.78711,-4.73046 l -39.02344,23.10351 -4.88476,-6.09375 c -17.46,-21.77 -31.72213,-33.02005 -46.57813,-45.62305 -3.633,-3.94 -7.45222,-6.64793 -12.32422,-6.83593 -0.57316,-0.0197 -1.14754,-0.0197 -1.7207,0 z"
       style="display:inline;paint-order:stroke fill markers;fill:#ffffff;fill-opacity:1"
       id="path9" />
    <path
       d="m 298.119,153.163 c 9.177,12.81 18.397,25.33 28.04,36.72 7.273,-4.386 14.418,-10.424 20.662,-18 0.93407,-1.13991 3.80039,-6.06353 4.67469,-7.2499 z"
       id="path4"
       style="fill:#ffffff;fill-opacity:1" />
    <path
       d="m 362.9471,141.77458 -15.44901,7.60099 -10.83272,-17.63533 z"
       id="path3"
       style="fill:#ffffff;fill-opacity:1" />
    <path
       d="m 336.586,98.038 c -3.507,0.063 -7.26,0.632 -11.217,1.733 -7.08,1.97 -14.577,5.722 -21.718,11.09 l 60.545,12.47 c -0.844,-8.415 -4.142,-15.068 -9.524,-19.503 -4.425,-3.646 -10.055,-5.63 -16.6,-5.785 -0.49,-0.01 -0.987,-0.013 -1.487,-0.004 z"
       id="path2"
       style="fill:#ffffff;fill-opacity:1" />
    <path
       d="m 66.533,96.452 c -22.862,27.542 -36.27,68.923 -37.766,100.702 -0.9,19.145 -0.4,72.616 15.276,91.47 15.674,18.855 50.465,22.678 65.753,25.028 11.256,0.74 19.522,-9.182 25.182,-16.5 9.537,-12.442 19.204,-50.678 29.36,-69.014 10.155,-18.336 20.77,-36.82 33.798,-50.467 13.028,-13.645 30.24,-22.73 49.442,-17.89 3.34,1.09 3.565,1.663 12.38,8.788 12.605,10.736 26.244,21.81 41.694,39.33 l 3.803,3.486 10.238,-6.06 c -20.92,-23.726 -38.623,-51.403 -57.006,-76.168 -27.153,-36.58 -54.84,-65.76 -94.205,-69.893 -36.138,-3.317 -78.585,14.428 -97.95,37.19 z"
       id="path1"
       sodipodi:nodetypes="cccccccccccccccc"
       style="fill:#ffffff;fill-opacity:1" />
  </g>
</svg>
