<?xml version="1.0" encoding="UTF-8" standalone="no"?>
<svg
   viewBox="0 0 512 512"
   style="height: 512px; width: 512px;"
   version="1.1"
   id="svg1"
   sodipodi:docname="slightly-encumbered-robber.svg"
   inkscape:version="1.4 (86a8ad7, 2024-10-11)"
   xmlns:inkscape="http://www.inkscape.org/namespaces/inkscape"
   xmlns:sodipodi="http://sodipodi.sourceforge.net/DTD/sodipodi-0.dtd"
   xmlns="http://www.w3.org/2000/svg"
   xmlns:svg="http://www.w3.org/2000/svg">
  <defs
     id="defs1" />
  <sodipodi:namedview
     id="namedview1"
     pagecolor="#000000"
     bordercolor="#000000"
     borderopacity="0.25"
     inkscape:showpageshadow="2"
     inkscape:pageopacity="0.0"
     inkscape:pagecheckerboard="0"
     inkscape:deskcolor="#d1d1d1"
     inkscape:zoom="1.0813762"
     inkscape:cx="158.13183"
     inkscape:cy="248.29472"
     inkscape:window-width="1920"
     inkscape:window-height="1001"
     inkscape:window-x="-9"
     inkscape:window-y="-9"
     inkscape:window-maximized="1"
     inkscape:current-layer="svg1" />
  <path
     d="M 0,0 H 512 V 512 H 0 Z"
     fill="#000000"
     fill-opacity="1"
     id="path1-4"
     style="height:512px;width:512px"
     inkscape:label="path1" />
  <g
     class=""
     transform="translate(44.976146,-4.3040707)"
     id="g1"
     style="fill:#ffffff;fill-opacity:1">
    <path
       id="path15"
       style="fill:#ffffff;fill-opacity:1"
       d="M 157.63909 58.884149 C 123.12912 58.183928 84.687074 75.116055 66.531667 96.454461 C 43.670725 123.99646 30.262004 165.37549 28.766042 197.15368 C 27.866042 216.29868 28.367385 269.77038 44.043385 288.62438 C 59.717385 307.47938 94.507338 311.30173 109.79534 313.65173 C 121.05134 314.39173 129.31893 304.46973 134.97893 297.15173 C 144.51593 284.70973 154.18231 246.47406 164.33831 228.13806 C 174.49331 209.80206 185.10718 191.31826 198.13518 177.67126 C 211.16318 164.02626 228.37654 154.94063 247.57854 159.78063 C 250.91854 160.87063 251.14245 161.4447 259.95745 168.5697 C 272.56245 179.3057 286.20276 190.37977 301.65276 207.89977 L 305.45549 211.38415 L 315.69378 205.32556 C 294.77378 181.59956 277.07092 153.92259 258.68792 129.15759 C 231.53492 92.577586 203.84784 63.396055 164.48284 59.263055 C 162.22421 59.055743 159.93983 58.930832 157.63909 58.884149 z M 336.5844 98.038446 C 333.07796 98.10162 329.32583 98.67007 325.36956 99.770868 C 318.28956 101.74087 310.79181 105.49271 303.65081 110.86071 L 364.19573 123.33141 C 363.35173 114.91641 360.05429 108.26251 354.67229 103.82751 C 350.24729 100.18151 344.61768 98.197352 338.07268 98.042352 C 337.58333 98.032365 337.08569 98.029489 336.58635 98.038446 L 336.5844 98.038446 z M 336.66448 131.73962 L 347.49846 149.37634 L 362.94768 141.77477 L 336.66448 131.73962 z M 298.11956 153.16345 C 307.29656 165.97345 316.51562 178.4922 326.15862 189.8822 C 333.43162 185.4962 340.57673 179.4582 346.82073 171.8822 C 347.7548 170.74229 350.62221 165.81857 351.49651 164.6322 L 298.11956 153.16345 z M 235.41839 176.42907 C 226.89139 176.71207 219.43671 181.42199 211.15471 190.09899 C 181.44871 222.74899 154.97976 282.6326 186.27776 324.4486 C 188.11306 327.4573 190.37664 329.92721 192.97503 331.97595 C 204.71198 341.23013 223.48428 341.70637 242.60589 342.21032 C 263.08238 342.74998 283.94807 343.33711 296.97893 354.91149 C 300.65481 390.7836 291.99084 396.58621 288.39495 460.17126 C 358.86199 460.83233 336.10993 461.56294 393.5512 461.74352 L 390.68401 437.95251 C 367.10221 423.02697 347.25377 427.752 326.36565 426.64001 C 333.82899 395.97564 359.86065 351.94241 335.36565 331.58141 C 317.64565 316.85141 304.60698 307.78846 285.10198 295.45446 C 287.53898 294.76446 278.5653 275.68618 277.54729 273.46618 C 248.19529 266.43118 228.18262 250.64899 215.40862 234.09899 L 229.65862 223.09899 C 243.15862 240.59099 264.94607 256.85163 303.34807 259.03063 C 322.99807 256.21263 332.92701 252.07651 338.68401 247.32751 C 344.31001 242.68752 347.29855 236.36432 351.57854 226.71032 C 352.67355 220.39832 351.3287 218.85876 348.7387 216.60876 C 346.7887 214.91276 343.49259 213.41029 339.95159 211.87829 L 300.92815 234.98181 L 296.04339 228.88806 C 278.58339 207.11806 264.32126 195.86801 249.46526 183.26501 C 245.83226 179.32501 242.01304 176.61707 237.14104 176.42907 C 236.56788 176.40937 235.9935 176.40937 235.42034 176.42907 L 235.41839 176.42907 z M 213.84612 359.03649 L 158.37346 421.42907 C 179.62415 435.64818 189.31183 461.3467 229.24846 459.93102 L 228.14885 437.22009 L 196.34026 418.67712 C 212.14479 392.33488 223.84646 399.93996 250.11565 374.36852 C 250.04035 369.48278 249.64521 365.14144 249.00237 361.22009 C 245.39142 361.01402 241.67082 360.84184 237.76018 360.72985 C 230.03937 360.50874 222.00624 360.20357 213.84612 359.03649 z " />
  </g>
</svg>
