<?xml version="1.0" encoding="utf-8"?>
<!-- Generator: Adobe Illustrator 28.4.1, SVG Export Plug-In . SVG Version: 6.00 Build 0)  -->
<svg version="1.1" id="Слой_1" xmlns="http://www.w3.org/2000/svg" xmlns:xlink="http://www.w3.org/1999/xlink" x="0px" y="0px"
	 viewBox="0 0 512 512" style="enable-background:new 0 0 512 512;" xml:space="preserve">
<style type="text/css">
	.st0{fill:#FFFFFF;}
</style>
<g>
	<g>
		<path class="st0" d="M295,262.6L295,262.6c0,0-0.1,0-0.1-0.1C294.9,262.5,294.9,262.6,295,262.6z"/>
		<path class="st0" d="M488.7,488.8c-112-45.2-211.8-120.3-299.2-203.1c3.5-2.4,6.8-5.3,9.6-8.5v0c1.3-1.5,2.5-3.2,3.6-4.8
			c0,0,0,0,0,0c2-3.1,3.6-6.4,4.8-9.8l49.3,49.3c22.2-7.7,122.8,76.9,146.6,91.2l-1.3-1.8c0,0,0.1,0,0.1,0.1
			c-21.7-30.8-57.8-76.6-78.8-111c-13.7-25.5-12.5-20.9-11.6-33.5c-16-16-32-32-49.3-49.3c9.4-3.3,17.7-9.6,23.2-17.9
			C423.6,330.5,491.3,486.1,488.7,488.8z"/>
	</g>
	<g>
		<g>
			<path class="st0" d="M331.4,331.4c-15.5-10.9-52.9-37.3-68.8-36.4c-23.2-23.2-76.1-76.1-112.5-112.5c1.8-1.5,30.9-30.6,32.4-32.4
				c37,37,77.9,78,112.5,112.5C293.5,276.8,320.3,316.1,331.4,331.4z"/>
			<path d="M151,108.9L151,108.9c0.5,0.1,1,0.2,1.5,0.3C152,109,151.5,109,151,108.9z"/>
		</g>
	</g>
	<path class="st0" d="M129.5,101.6c-2.4,2-25.9,25.5-28,28L23,51V23h27.9L129.5,101.6z"/>
	<g>
		<path class="st0" d="M171,138.7c-0.4,0.7-1,1.4-1.6,2l-28.9,28.9c-4.6,4.6-12.3,4.7-17,0c-6.8-7-21.8-17.8-11.3-28.3
			c2.1-1.7,30.8-32.1,33-31.5c9.6-4.7,18.2,8.8,24.2,14C173.5,127.7,174,134,171,138.7z"/>
	</g>
</g>
</svg>
