<?xml version="1.0" encoding="utf-8"?>
<!-- Generator: Adobe Illustrator 28.4.1, SVG Export Plug-In . SVG Version: 6.00 Build 0)  -->
<svg version="1.1" id="Слой_1" xmlns="http://www.w3.org/2000/svg" xmlns:xlink="http://www.w3.org/1999/xlink" x="0px" y="0px"
	 viewBox="0 0 512 512" style="enable-background:new 0 0 512 512;" xml:space="preserve">
<style type="text/css">
	.st0{fill:#FFFFFF;}
</style>
<g>
	<path class="st0" d="M129.5,101.6c-2.4,2-25.9,25.5-28,28L23,51V23h27.9L129.5,101.6z"/>
	<g>
		<path class="st0" d="M171,138.7c-0.4,0.7-1,1.4-1.6,2l-28.9,28.9c-4.6,4.6-12.3,4.7-17,0c-6.8-7-21.8-17.8-11.3-28.3
			c2.1-1.7,30.8-32.1,33-31.5c9.6-4.7,18.2,8.8,24.2,14C173.5,127.7,174,134,171,138.7z"/>
	</g>
</g>
<path class="st0" d="M197.5,249.6l115.7,90.2L148.3,184.9l36.6-36.6l154.9,164.9l-90-115.4c41.3-4.2,106.7,9,130,64.9
	c41.7,100,109.3,226.8,109.3,226.8s-126.7-67.6-226.8-109.3C206.3,356.7,193.1,291,197.5,249.6z"/>
</svg>
