<?xml version="1.0" encoding="UTF-8" standalone="no"?>
<svg
   viewBox="0 0 512 512"
   style="height: 512px; width: 512px;"
   version="1.1"
   id="svg1"
   sodipodi:docname="thought-bubble.svg"
   inkscape:version="1.4 (86a8ad7, 2024-10-11)"
   xmlns:inkscape="http://www.inkscape.org/namespaces/inkscape"
   xmlns:sodipodi="http://sodipodi.sourceforge.net/DTD/sodipodi-0.dtd"
   xmlns="http://www.w3.org/2000/svg"
   xmlns:svg="http://www.w3.org/2000/svg">
  <defs
     id="defs1" />
  <sodipodi:namedview
     id="namedview1"
     pagecolor="#000000"
     bordercolor="#000000"
     borderopacity="0.25"
     inkscape:showpageshadow="2"
     inkscape:pageopacity="0.0"
     inkscape:pagecheckerboard="true"
     inkscape:deskcolor="#d1d1d1"
     inkscape:zoom="1.0813762"
     inkscape:cx="225.6384"
     inkscape:cy="290.83311"
     inkscape:window-width="1920"
     inkscape:window-height="1001"
     inkscape:window-x="-9"
     inkscape:window-y="-9"
     inkscape:window-maximized="1"
     inkscape:current-layer="svg1" />
  <path
     d="M 0,0 H 512 V 512 H 0 Z"
     fill="#000000"
     fill-opacity="1"
     id="path1-8"
     style="height:512px;width:512px"
     inkscape:label="path12" />
  <g
     class=""
     transform="translate(-25.501953,12.17446)"
     style="fill:#ffffff;fill-opacity:1"
     id="g1">
    <path
       id="path1"
       style="fill:#ffffff;fill-opacity:1;stroke-width:0.861616"
       d="M 281.50195 61.534524 C 251.28453 61.534524 226.19037 80.380549 217.82227 105.92124 C 208.69001 101.58694 198.61369 98.913431 187.6582 98.913431 C 150.63941 98.913431 120.62891 126.80692 120.62891 161.21226 C 120.62891 162.69413 120.93784 164.04017 121.04687 165.49546 C 89.601455 175.65426 67.003906 203.28416 67.003906 235.97007 C 67.003906 270.88813 92.797485 300.12914 127.61719 308.34702 A 56.103712 52.142902 0 0 0 171.92383 328.71031 A 56.103712 52.142902 0 0 0 200.52539 321.30991 A 67.791987 66.264939 0 0 0 251.12305 343.7689 A 67.791987 66.264939 0 0 0 296.10937 327.00718 A 103.44122 76.584889 0 0 0 347.61523 337.37827 A 103.44122 76.584889 0 0 0 426.8418 309.90952 C 465.91153 304.80045 496 273.69077 496 235.97007 C 496 203.28416 473.40245 175.65342 441.95703 165.49546 C 442.06696 164.04017 442.375 162.6933 442.375 161.21226 C 442.375 126.80692 412.36449 98.913432 375.3457 98.913431 C 364.39021 98.913431 354.3139 101.58942 345.18164 105.92124 C 336.81354 80.381379 311.71936 61.534524 281.50195 61.534524 z M 213.49609 245.64976 A 17.001278 17.001278 0 0 1 230.49805 262.65171 A 17.001278 17.001278 0 0 1 213.49609 279.65366 A 17.001278 17.001278 0 0 1 196.49609 262.65171 A 17.001278 17.001278 0 0 1 213.49609 245.64976 z M 281.50195 245.64976 A 17.001278 17.001278 0 0 1 298.50391 262.65171 A 17.001278 17.001278 0 0 1 281.50195 279.65366 A 17.001278 17.001278 0 0 1 264.5 262.65171 A 17.001278 17.001278 0 0 1 281.50195 245.64976 z M 349.50781 245.64976 A 17.001278 17.001278 0 0 1 366.50781 262.65171 A 17.001278 17.001278 0 0 1 349.50781 279.65366 A 17.001278 17.001278 0 0 1 332.50586 262.65171 A 17.001278 17.001278 0 0 1 349.50781 245.64976 z M 116.47266 325.52866 A 20.627315 21.661841 25.284147 0 0 107.32227 328.04038 A 7.1128667 7.4696001 25.284147 0 0 105.10937 326.37241 A 7.1128667 7.4696001 25.284147 0 0 95.488281 330.08921 A 11.854778 12.449334 25.284147 0 0 79.451172 336.28257 A 11.854778 12.449334 25.284147 0 0 84.664062 352.49351 A 12.091874 12.698321 25.284147 0 0 84.533203 352.72593 A 12.091874 12.698321 25.284147 0 0 90.042969 369.37241 A 12.091874 12.698321 25.284147 0 0 104.98242 365.34702 A 20.627315 21.661841 25.284147 0 0 107.10742 366.5521 A 20.627315 21.661841 25.284147 0 0 135.01172 355.77671 A 20.627315 21.661841 25.284147 0 0 125.61133 327.38023 A 20.627315 21.661841 25.284147 0 0 116.47266 325.52866 z M 114.88672 383.05406 A 14.915443 13.726139 0 0 0 101.81641 389.66929 A 14.915443 13.726139 0 0 0 106.85156 408.52085 A 14.915443 13.726139 0 0 0 111.5332 410.18101 A 16.415731 14.928017 5.7772672 0 0 119.51562 423.88023 A 16.415731 14.928017 5.7772672 0 0 141.98633 419.03257 A 16.415731 14.928017 5.7772672 0 0 144.22266 410.3021 A 15.792821 14.533559 0 0 0 149.14648 405.65562 A 15.792821 14.533559 0 0 0 143.81445 385.69468 A 15.792821 14.533559 0 0 0 125.25586 387.20054 A 14.915443 13.726139 0 0 0 122.30078 385.03648 A 14.915443 13.726139 0 0 0 114.88672 383.05406 z " />
  </g>
</svg>
