<svg xmlns="http://www.w3.org/2000/svg" viewBox="0 0 512 512"><path d="M0 0h512v512H0z"/><path fill="#fff" d="M256 73.71c-30.217 0-55.312 18.846-63.68 44.387-9.132-4.335-19.208-7.008-30.164-7.008-37.019 0-67.029 27.893-67.029 62.299 0 1.481.309 2.827.418 4.283-31.445 10.159-54.043 37.788-54.043 70.474 0 34.918 25.794 64.16 60.613 72.377 10.583 12.795 26.943 20.314 44.307 20.364 10.076-.035 19.956-2.592 28.601-7.4 12.808 14.209 31.224 22.383 50.598 22.458 16.589-.019 32.594-5.983 44.986-16.762 15.648 6.734 33.408 10.31 51.506 10.372 30.596-.031 59.605-10.089 79.227-27.47 39.07-5.108 69.158-36.218 69.158-73.939 0-32.686-22.598-60.316-54.043-70.474.11-1.456.418-2.802.418-4.283 0-34.406-30.01-62.3-67.03-62.3-10.955 0-21.031 2.677-30.163 7.008-8.368-25.54-33.463-44.386-63.68-44.386zm-68.006 184.115c9.39 0 17.002 7.612 17.002 17.002 0 9.39-7.612 17.002-17.002 17.002-9.39 0-17-7.613-17-17.002 0-9.39 7.61-17.001 17-17.002zm68.006 0c9.39 0 17.002 7.612 17.002 17.002 0 9.39-7.612 17.002-17.002 17.002-9.39 0-17.002-7.612-17.002-17.002 0-9.39 7.612-17.002 17.002-17.002zm68.006 0c9.39 0 17 7.613 17 17.002 0 9.39-7.61 17.001-17 17.002-9.39 0-17.002-7.612-17.002-17.002 0-9.39 7.612-17.002 17.002-17.002zM51.949 354.458c-2.888 6.134-.57 13.341 5.213 16.21-.044.078-.088.155-.13.233-2.996 6.341-.53 13.794 5.509 16.647 5.146 2.413 11.364.738 14.94-4.026.682.446 1.392.848 2.124 1.205 10.301 4.867 22.795.043 27.905-10.775 5.11-10.818-.8-23.353-9.4-28.397-13.519-7.925-43.14-1.912-46.16 8.903zm37.436 56.771c-5.328-.102-10.31 2.42-13.07 6.616-4.267 6.485-2.013 14.925 5.035 18.851a15.715 15.715 0 0 0 4.681 1.66c-.295 5.512 2.775 10.78 7.983 13.7 7.793 4.341 17.853 2.17 22.47-4.848 1.718-2.614 2.499-5.663 2.237-8.73 2-1.188 3.684-2.777 4.924-4.647 4.518-6.867 2.13-15.804-5.333-19.961-5.883-3.267-13.387-2.658-18.558 1.506a14.784 14.784 0 0 0-2.955-2.164 15.882 15.882 0 0 0-7.414-1.983z"/></svg>
