<?xml version="1.0" encoding="utf-8"?>
<!-- Generator: Adobe Illustrator 28.4.1, SVG Export Plug-In . SVG Version: 6.00 Build 0)  -->
<svg version="1.1" id="Слой_1" xmlns="http://www.w3.org/2000/svg" xmlns:xlink="http://www.w3.org/1999/xlink" x="0px" y="0px"
	 viewBox="0 0 512 512" style="enable-background:new 0 0 512 512;" xml:space="preserve">
<style type="text/css">
	.st0{fill:#FFFFFF;}
</style>
<path d="M119,423.2l0.5,0.3c-0.1,0.1-0.2,0.2-0.3,0.4L119,423.2z"/>
<g>
	<path class="st0" d="M107.8,404l-15.6-8.3c3.8-3.3,7.6-6.6,11.3-10L107.8,404z"/>
	<path class="st0" d="M113.4,425.9c-0.1,0.1-0.3,0.3-0.4,0.4c-16.8,17.7-32.4,36.5-45.2,57.3c-2.4,3.9-6.6,6.2-11.1,4.1
		c-3.1-0.8-7.7-3.7-12.5-7.8c26.1-22.2,54.3-51.3,53.1-51.6c-0.6-0.1-14.5,11.7-43.6,32.2c-6.1,4.3-12,8.2-17.6,11.7
		c-11.6-12.5-20-28.6-4.4-32.2c16.2-10,31.7-21,46.6-32.8l34.6,18.5L113.4,425.9z"/>
	<path class="st0" d="M120.1,383.6l21.1,14.5c-4.8,4.6-9.6,9.3-14.3,14L120.1,383.6z"/>
	<path class="st0" d="M134.4,354.7l22.7,28.4c-0.4,0.4-0.9,0.8-1.4,1.3c-0.7,0.7-1.4,1.3-2.1,2l-29.8-20.5
		C127.4,362.2,130.9,358.4,134.4,354.7z"/>
	<path class="st0" d="M163.9,339.4l-14-2.7c1.8-2.1,3.5-4.3,5.2-6.5L163.9,339.4z"/>
	<path class="st0" d="M155.9,354.9l25.9,4.9c-4.2,3.9-8.4,7.8-12.5,11.7L155.9,354.9z"/>
	<path class="st0" d="M488.8,70.2c-1.8,11.2-6.4,11.6-18.5,23.1c-25,31.2-54,58.5-83.1,85.7c-36.2,38.4-26.7,55.2-82.8,84
		c-38.9,23.3-73.8,52.3-107.3,82.8l-4.9-0.9l-26.8-27.9c4.3-5.8,8.4-11.6,12.4-17.6c12.1-18,20.9-39.9,40.7-50.7
		c19.4-8.3,24.7-28.7,34.8-45.3c15.4-22.5,35-41.6,52.2-62.6c-6.9,27.6-11.7,54-10.8,53.6c0.6-0.3,5.6-17.8,18.6-50.9
		c8.3-21.2,17-37.9,23.1-49.8c16.2-26.9,36.4-53.1,67.5-62.5C436.2,10.4,481.1,35.1,488.8,70.2z"/>
	<path d="M127.4,414.4l-1.9-1c0.4-0.4,0.9-0.9,1.3-1.3L127.4,414.4z"/>
	<path d="M183.8,360.2l-2-0.4c0.3-0.3,0.6-0.5,0.9-0.8L183.8,360.2z"/>
</g>
</svg>
