<?xml version="1.0" encoding="UTF-8" standalone="no"?>
<svg
   xmlns:dc="http://purl.org/dc/elements/1.1/"
   xmlns:cc="http://creativecommons.org/ns#"
   xmlns:rdf="http://www.w3.org/1999/02/22-rdf-syntax-ns#"
   xmlns:svg="http://www.w3.org/2000/svg"
   xmlns="http://www.w3.org/2000/svg"
   xmlns:sodipodi="http://sodipodi.sourceforge.net/DTD/sodipodi-0.dtd"
   xmlns:inkscape="http://www.inkscape.org/namespaces/inkscape"
   viewBox="0 0 512 512"
   id="svg2"
   version="1.1"
   inkscape:version="0.91 r13725"
   sodipodi:docname="directions-dotted-west.svg">
  <metadata
     id="metadata12">
    <rdf:RDF>
      <cc:Work
         rdf:about="">
        <dc:format>image/svg+xml</dc:format>
        <dc:type
           rdf:resource="http://purl.org/dc/dcmitype/StillImage" />
        <dc:title />
      </cc:Work>
    </rdf:RDF>
  </metadata>
  <defs
     id="defs10">
    <marker
       inkscape:isstock="true"
       style="overflow:visible;"
       id="marker6040"
       refX="0.0"
       refY="0.0"
       orient="auto"
       inkscape:stockid="Arrow2Send">
      <path
         transform="scale(0.3) rotate(180) translate(-2.3,0)"
         d="M 8.7185878,4.0337352 L -2.2072895,0.016013256 L 8.7185884,-4.0017078 C 6.9730900,-1.6296469 6.9831476,1.6157441 8.7185878,4.0337352 z "
         style="fill-rule:evenodd;stroke-width:0.625;stroke-linejoin:round;stroke:#ffffff;stroke-opacity:1;fill:#ffffff;fill-opacity:1"
         id="path6042" />
    </marker>
    <marker
       inkscape:isstock="true"
       style="overflow:visible;"
       id="marker5994"
       refX="0.0"
       refY="0.0"
       orient="auto"
       inkscape:stockid="Arrow2Send">
      <path
         transform="scale(0.3) rotate(180) translate(-2.3,0)"
         d="M 8.7185878,4.0337352 L -2.2072895,0.016013256 L 8.7185884,-4.0017078 C 6.9730900,-1.6296469 6.9831476,1.6157441 8.7185878,4.0337352 z "
         style="fill-rule:evenodd;stroke-width:0.625;stroke-linejoin:round;stroke:#ffffff;stroke-opacity:1;fill:#ffffff;fill-opacity:1"
         id="path5996" />
    </marker>
    <marker
       inkscape:isstock="true"
       style="overflow:visible;"
       id="marker5954"
       refX="0.0"
       refY="0.0"
       orient="auto"
       inkscape:stockid="Arrow2Send">
      <path
         transform="scale(0.3) rotate(180) translate(-2.3,0)"
         d="M 8.7185878,4.0337352 L -2.2072895,0.016013256 L 8.7185884,-4.0017078 C 6.9730900,-1.6296469 6.9831476,1.6157441 8.7185878,4.0337352 z "
         style="fill-rule:evenodd;stroke-width:0.625;stroke-linejoin:round;stroke:#ffffff;stroke-opacity:1;fill:#ffffff;fill-opacity:1"
         id="path5956" />
    </marker>
    <marker
       inkscape:isstock="true"
       style="overflow:visible;"
       id="marker5920"
       refX="0.0"
       refY="0.0"
       orient="auto"
       inkscape:stockid="Arrow2Send">
      <path
         transform="scale(0.3) rotate(180) translate(-2.3,0)"
         d="M 8.7185878,4.0337352 L -2.2072895,0.016013256 L 8.7185884,-4.0017078 C 6.9730900,-1.6296469 6.9831476,1.6157441 8.7185878,4.0337352 z "
         style="fill-rule:evenodd;stroke-width:0.625;stroke-linejoin:round;stroke:#ffffff;stroke-opacity:1;fill:#ffffff;fill-opacity:1"
         id="path5922" />
    </marker>
    <marker
       inkscape:isstock="true"
       style="overflow:visible;"
       id="marker5892"
       refX="0.0"
       refY="0.0"
       orient="auto"
       inkscape:stockid="Arrow2Send">
      <path
         transform="scale(0.3) rotate(180) translate(-2.3,0)"
         d="M 8.7185878,4.0337352 L -2.2072895,0.016013256 L 8.7185884,-4.0017078 C 6.9730900,-1.6296469 6.9831476,1.6157441 8.7185878,4.0337352 z "
         style="fill-rule:evenodd;stroke-width:0.625;stroke-linejoin:round;stroke:#ffffff;stroke-opacity:1;fill:#ffffff;fill-opacity:1"
         id="path5894" />
    </marker>
    <marker
       inkscape:isstock="true"
       style="overflow:visible;"
       id="marker5870"
       refX="0.0"
       refY="0.0"
       orient="auto"
       inkscape:stockid="Arrow2Send">
      <path
         transform="scale(0.3) rotate(180) translate(-2.3,0)"
         d="M 8.7185878,4.0337352 L -2.2072895,0.016013256 L 8.7185884,-4.0017078 C 6.9730900,-1.6296469 6.9831476,1.6157441 8.7185878,4.0337352 z "
         style="fill-rule:evenodd;stroke-width:0.625;stroke-linejoin:round;stroke:#ffffff;stroke-opacity:1;fill:#ffffff;fill-opacity:1"
         id="path5872" />
    </marker>
  </defs>
  <sodipodi:namedview
     pagecolor="#ffffff"
     bordercolor="#666666"
     borderopacity="1"
     objecttolerance="10"
     gridtolerance="10"
     guidetolerance="10"
     inkscape:pageopacity="0"
     inkscape:pageshadow="2"
     inkscape:window-width="1829"
     inkscape:window-height="966"
     id="namedview8"
     showgrid="false"
     inkscape:zoom="1.5449218"
     inkscape:cx="256"
     inkscape:cy="256"
     inkscape:window-x="-8"
     inkscape:window-y="-8"
     inkscape:window-maximized="1"
     inkscape:current-layer="svg2"
     showguides="false"
     inkscape:guide-bbox="true"
     inkscape:snap-center="true"
     inkscape:snap-global="true"
     inkscape:snap-bbox="true" />
  <path
     style="fill:#000000;stroke:#ffffff;stroke-width:0"
     inkscape:connector-curvature="0"
     d="m 0,-1e-5 512,0 0,512.00002 -512,0 z"
     id="path4344" />
  <path
     inkscape:connector-curvature="0"
     id="path4260"
     style="font-style:normal;font-variant:normal;font-weight:bold;font-stretch:normal;font-size:183.75px;line-height:125%;font-family:sans-serif;-inkscape-font-specification:'sans-serif, Bold';text-align:start;letter-spacing:0px;word-spacing:0px;writing-mode:lr-tb;text-anchor:start;fill:#ffffff;fill-opacity:1;stroke:none;stroke-width:1px;stroke-linecap:butt;stroke-linejoin:miter;stroke-opacity:1"
     d="m 353.7517,189.20222 -35.9784,133.59559 -38.1317,0 -23.9557,-87.03003 -23.3276,87.03003 -38.1317,0 -35.9784,-133.59559 35.9784,0 20.5462,91.96473 24.5838,-91.96473 34.3634,0 23.4173,91.96473 21.5332,-91.96473 35.0812,0 z" />
  <path
     style="color:#000000;font-style:normal;font-variant:normal;font-weight:normal;font-stretch:normal;font-size:medium;line-height:normal;font-family:sans-serif;text-indent:0;text-align:start;text-decoration:none;text-decoration-line:none;text-decoration-style:solid;text-decoration-color:#000000;letter-spacing:normal;word-spacing:normal;text-transform:none;direction:ltr;block-progression:tb;writing-mode:lr-tb;baseline-shift:baseline;text-anchor:start;white-space:normal;clip-rule:nonzero;display:inline;overflow:visible;visibility:visible;opacity:1;isolation:auto;mix-blend-mode:normal;color-interpolation:sRGB;color-interpolation-filters:linearRGB;solid-color:#000000;solid-opacity:1;fill:#ffffff;fill-opacity:1;fill-rule:nonzero;stroke:none;stroke-width:20;stroke-linecap:butt;stroke-linejoin:miter;stroke-miterlimit:4;stroke-dasharray:20, 40;stroke-dashoffset:0;stroke-opacity:1;color-rendering:auto;image-rendering:auto;shape-rendering:auto;text-rendering:auto;enable-background:accumulate"
     d="m 247.07422,67.603516 -0.11914,0.0039 -0.11914,0.0078 -4.2793,0.25586 -0.11914,0.0059 -0.11914,0.01172 -4.27148,0.357422 -0.11915,0.0098 -0.11914,0.01172 -4.26562,0.460938 -0.11914,0.01172 -0.11914,0.01563 -4.25391,0.5625 -0.11914,0.01563 -0.11914,0.01953 -1.38672,0.216796 3.0918,19.759766 1.23437,-0.195312 4.01563,-0.529297 4.0332,-0.4375 4.04688,-0.337891 4.05078,-0.242187 1.32812,-0.04883 -0.71484,-19.986328 z m 39.82617,22.640625 1.28125,0.230468 4.06445,0.839844 3.88282,0.896485 3.95507,1.015624 3.98829,1.13086 1.07617,0.332031 5.9082,-19.107422 -1.25,-0.386719 -0.11719,-0.03516 -0.11523,-0.0332 -4.1543,-1.173828 -0.11719,-0.0332 -0.11718,-0.03125 -4.17578,-1.072266 -0.11719,-0.0293 -0.11719,-0.02734 -4.19531,-0.970704 -0.11719,-0.02734 -0.11719,-0.02539 -4.21484,-0.867187 -0.11719,-0.02539 -0.11914,-0.02148 -1.42969,-0.257813 z m -101.75391,-9.085938 -0.11523,0.04492 -0.11328,0.04883 -4.01367,1.685547 -0.11328,0.04687 -0.11329,0.05078 -3.98046,1.78711 -0.11329,0.05078 -0.11132,0.05469 -3.94532,1.888672 -0.11132,0.05469 -0.10938,0.05469 -3.9082,1.992188 -0.11133,0.05664 -0.10938,0.06055 -0.66601,0.359375 9.52344,17.587889 0.55273,-0.29883 3.71289,-1.89453 3.69531,-1.76758 3.76172,-1.6914 3.81641,-1.601564 1.5,-0.585938 -7.28906,-18.625 z m 154.61914,28.478517 1.90626,1.09375 3.46093,2.10156 0.043,0.0273 3.60938,2.31835 3.46679,2.35352 3.4336,2.45703 11.64062,-16.26367 -3.54101,-2.5332 -0.10157,-0.0742 -0.10351,-0.0703 -3.69141,-2.503911 -0.10351,-0.07031 -0.10547,-0.06641 -3.73633,-2.402344 -0.10547,-0.06641 -0.10742,-0.06445 -3.7832,-2.298828 -0.10547,-0.06641 -0.10742,-0.06055 -2.01172,-1.154297 z m -210.00585,6.23047 -0.0957,0.084 -0.0918,0.0859 -3.36329,3.11523 -0.0918,0.0859 -0.0918,0.0898 -3.30078,3.21876 -0.0898,0.0879 -0.0898,0.0898 -3.2168,3.30078 -0.0898,0.0918 -0.0859,0.0918 -1.51367,1.63477 14.66797,13.5957 1.45313,-1.5664 3.01757,-3.09375 3.13477,-3.05664 3.15039,-2.92188 2.89258,-2.54687 -13.21875,-15.00782 z m 253.59765,29.64843 0.70703,0.80079 2.75391,3.29101 2.63867,3.32031 2.53516,3.36133 2.50586,3.50196 0.34961,0.51562 16.55078,-11.22852 -0.44532,-0.6582 -0.0703,-0.10351 -0.0742,-0.10157 -2.60547,-3.64062 -0.0723,-0.10156 -0.0762,-0.10157 -2.70703,-3.58789 -0.0762,-0.10156 -0.0781,-0.0977 -2.81055,-3.53515 -0.0781,-0.0996 -0.082,-0.0957 -2.91016,-3.48047 -0.082,-0.0957 -0.084,-0.0957 -0.77929,-0.88672 z M 91.25,164.09375 l -0.0625,0.10742 -0.05859,0.10938 -2.095703,3.86718 -0.05859,0.10938 -0.05664,0.11133 -1.992188,3.9082 -0.05469,0.10938 -0.05469,0.11132 -1.890625,3.94532 -0.05273,0.11132 -0.05078,0.11329 -1.703125,3.79296 18.244139,8.19336 1.68555,-3.75195 0.0195,-0.041 1.7207,-3.58789 1.89453,-3.71875 1.95899,-3.61523 1.28711,-2.24414 -17.345706,-9.95703 z m 321.39453,29.43359 1.11328,2.84766 1.40235,3.85938 1.29687,3.85937 1.1875,3.83594 1.02735,3.63281 19.24609,-5.44336 -1.04492,-3.69336 -0.0332,-0.11523 -0.0351,-0.11719 -1.27735,-4.12891 -0.0371,-0.11718 -0.0391,-0.11524 -1.3789,-4.10351 -0.0391,-0.11524 -0.041,-0.11523 -1.48242,-4.07617 -0.041,-0.11524 -0.0449,-0.11328 -1.1543,-2.95508 z m 11.79492,55.11328 0.11914,3.30469 0.0469,4.05469 -0.0469,4.05273 -0.14648,4.05274 -0.21289,3.56836 19.96484,1.19336 0.22071,-3.70313 0.008,-0.11914 0.004,-0.11914 0.15235,-4.2832 0.004,-0.11914 0.002,-0.11914 0.0508,-4.28516 0.002,-0.11914 -0.002,-0.11914 -0.0508,-4.28516 -0.002,-0.11914 -0.004,-0.11914 -0.12305,-3.43164 z m -7.98242,59.26758 -1.29687,3.85742 -1.40235,3.85938 -1.48437,3.79883 -1.27539,3.03711 18.43945,7.74218 1.31055,-3.12109 0.0488,-0.11328 0.043,-0.11523 1.58399,-4.04688 0.0449,-0.11328 0.041,-0.11524 1.48242,-4.07617 0.041,-0.11523 0.0391,-0.11524 1.3789,-4.10351 0.0391,-0.11524 0.0371,-0.11718 1.0625,-3.43946 -19.10742,-5.9082 z m -335.205077,19.17383 1.685547,4.01367 0.04687,0.11328 0.05078,0.11329 1.78711,3.98046 0.05078,0.11329 0.05273,0.11132 1.890625,3.94532 0.05469,0.11132 0.05469,0.10938 1.992188,3.9082 0.05664,0.11133 0.05859,0.10938 1.201172,2.21484 17.585935,-9.52344 -1.13476,-2.09765 -1.89649,-3.71875 -1.7207,-3.58789 -0.0195,-0.041 -1.71875,-3.82617 -1.638674,-3.9043 z m 310.742187,28.62695 -2.53711,3.36329 -2.63867,3.32031 -2.75781,3.29687 -2.85547,3.24219 -0.71485,0.76758 14.66993,13.5957 0.80273,-0.86719 0.0859,-0.0918 0.084,-0.0957 3.01367,-3.42187 0.084,-0.0957 0.0801,-0.0957 2.91211,-3.48047 0.082,-0.0957 0.0781,-0.0996 2.81055,-3.53515 0.0781,-0.0977 0.0762,-0.10156 2.70703,-3.58789 0.0762,-0.10157 0.0723,-0.10156 0.41407,-0.57812 -16.26367,-11.64063 z m -277.58398,24.87696 1.45703,1.65429 0.084,0.0957 0.0859,0.0918 3.11523,3.36329 0.0859,0.0918 0.0898,0.0918 3.2168,3.30078 0.0898,0.0898 0.0898,0.0879 3.30078,3.21876 0.0918,0.0898 0.0918,0.0859 2.92774,2.71093 13.59375,-14.66797 -2.81836,-2.61328 -3.13477,-3.05664 -3.01757,-3.09375 -2.95899,-3.18945 -1.38281,-1.57031 z m 234.37304,16.23828 -3.55273,2.28125 -3.52735,2.14648 -3.64257,2.08789 -2.0625,1.11914 9.52148,17.58594 2.16992,-1.17383 0.10938,-0.0586 0.10742,-0.0625 3.82813,-2.19727 0.10742,-0.0605 0.10547,-0.0664 3.7832,-2.29883 0.10742,-0.0645 0.10547,-0.0664 3.73633,-2.40234 0.10547,-0.0664 0.10351,-0.0703 3.51953,-2.38867 -11.22851,-16.55078 z m -185.48828,23.46875 0.79883,0.45703 0.10742,0.0625 0.10938,0.0586 3.86718,2.09375 0.10938,0.0606 0.11133,0.0566 3.9082,1.99219 0.10938,0.0547 0.11132,0.0547 3.94532,1.88868 0.11132,0.0547 0.11329,0.0508 3.98046,1.78711 0.11329,0.0508 0.11328,0.0469 1.43359,0.60156 7.74219,-18.43945 -1.32227,-0.55469 -3.76172,-1.6914 -3.69531,-1.76758 -3.7168,-1.89453 -3.61914,-1.96094 -0.71289,-0.4082 z m 136.78516,-1.51953 -3.95117,1.01562 -3.88282,0.89649 -4.06836,0.83984 -4,0.72461 -1.53515,0.23828 3.0918,19.75977 1.69531,-0.26563 0.11914,-0.0176 0.11719,-0.0215 4.22851,-0.76563 0.11914,-0.0215 0.11719,-0.0254 4.21484,-0.86719 0.11719,-0.0254 0.11719,-0.0273 4.19531,-0.97071 0.11719,-0.0273 0.11719,-0.0293 4.17578,-1.07226 0.11718,-0.0312 0.11719,-0.0332 1.02539,-0.28907 -5.44336,-19.24609 z m -77.39063,22.87109 1.64453,0.29883 0.11719,0.0215 0.11914,0.0176 4.24219,0.66406 0.11914,0.0195 0.11914,0.0156 4.25391,0.5625 0.11914,0.0156 0.11914,0.0117 4.26562,0.46094 0.11914,0.0117 0.11915,0.01 4.27148,0.35742 0.11914,0.01 0.11914,0.008 1.16211,0.0703 1.19336,-19.96484 -1.0625,-0.0645 -4.04883,-0.33789 -4.0332,-0.4375 -4.02344,-0.53125 -3.92773,-0.61523 -1.56055,-0.28321 z"
     id="path5394"
     inkscape:connector-curvature="0" />
  <path
     style="fill:#ffffff;stroke:none;stroke-width:20;stroke-miterlimit:4;stroke-dasharray:none"
     inkscape:transform-center-x="179.17189"
     inkscape:transform-center-y="1.5662006"
     d="m 126.6868,199.99419 -49.8588,28.786 -49.8588,28.786 49.8588,28.7861 49.8588,28.7859 c 0,0 -21.6744,-38.3813 -21.6745,-57.572 0,-19.1907 21.6745,-57.572 21.6745,-57.572 z"
     id="path5396"
     inkscape:connector-curvature="0"
     sodipodi:nodetypes="ccccczc" />
  <circle
     style="fill:none;stroke:#ffffff;stroke-width:14.53779507;stroke-linecap:butt;stroke-miterlimit:4;stroke-dasharray:none;stroke-dashoffset:134"
     id="path5043"
     cx="3116"
     cy="-311.10254"
     r="0" />
</svg>
