<?xml version="1.0" encoding="UTF-8" standalone="no"?>
<svg
   xmlns:dc="http://purl.org/dc/elements/1.1/"
   xmlns:cc="http://creativecommons.org/ns#"
   xmlns:rdf="http://www.w3.org/1999/02/22-rdf-syntax-ns#"
   xmlns:svg="http://www.w3.org/2000/svg"
   xmlns="http://www.w3.org/2000/svg"
   xmlns:sodipodi="http://sodipodi.sourceforge.net/DTD/sodipodi-0.dtd"
   xmlns:inkscape="http://www.inkscape.org/namespaces/inkscape"
   viewBox="0 0 512 512"
   id="svg2"
   version="1.1"
   inkscape:version="0.91 r13725"
   sodipodi:docname="directions-tactical-south.svg">
  <metadata
     id="metadata12">
    <rdf:RDF>
      <cc:Work
         rdf:about="">
        <dc:format>image/svg+xml</dc:format>
        <dc:type
           rdf:resource="http://purl.org/dc/dcmitype/StillImage" />
        <dc:title />
      </cc:Work>
    </rdf:RDF>
  </metadata>
  <defs
     id="defs10">
    <marker
       inkscape:isstock="true"
       style="overflow:visible;"
       id="marker6040"
       refX="0.0"
       refY="0.0"
       orient="auto"
       inkscape:stockid="Arrow2Send">
      <path
         transform="scale(0.3) rotate(180) translate(-2.3,0)"
         d="M 8.7185878,4.0337352 L -2.2072895,0.016013256 L 8.7185884,-4.0017078 C 6.9730900,-1.6296469 6.9831476,1.6157441 8.7185878,4.0337352 z "
         style="fill-rule:evenodd;stroke-width:0.625;stroke-linejoin:round;stroke:#ffffff;stroke-opacity:1;fill:#ffffff;fill-opacity:1"
         id="path6042" />
    </marker>
    <marker
       inkscape:isstock="true"
       style="overflow:visible;"
       id="marker5994"
       refX="0.0"
       refY="0.0"
       orient="auto"
       inkscape:stockid="Arrow2Send">
      <path
         transform="scale(0.3) rotate(180) translate(-2.3,0)"
         d="M 8.7185878,4.0337352 L -2.2072895,0.016013256 L 8.7185884,-4.0017078 C 6.9730900,-1.6296469 6.9831476,1.6157441 8.7185878,4.0337352 z "
         style="fill-rule:evenodd;stroke-width:0.625;stroke-linejoin:round;stroke:#ffffff;stroke-opacity:1;fill:#ffffff;fill-opacity:1"
         id="path5996" />
    </marker>
    <marker
       inkscape:isstock="true"
       style="overflow:visible;"
       id="marker5954"
       refX="0.0"
       refY="0.0"
       orient="auto"
       inkscape:stockid="Arrow2Send">
      <path
         transform="scale(0.3) rotate(180) translate(-2.3,0)"
         d="M 8.7185878,4.0337352 L -2.2072895,0.016013256 L 8.7185884,-4.0017078 C 6.9730900,-1.6296469 6.9831476,1.6157441 8.7185878,4.0337352 z "
         style="fill-rule:evenodd;stroke-width:0.625;stroke-linejoin:round;stroke:#ffffff;stroke-opacity:1;fill:#ffffff;fill-opacity:1"
         id="path5956" />
    </marker>
    <marker
       inkscape:isstock="true"
       style="overflow:visible;"
       id="marker5920"
       refX="0.0"
       refY="0.0"
       orient="auto"
       inkscape:stockid="Arrow2Send">
      <path
         transform="scale(0.3) rotate(180) translate(-2.3,0)"
         d="M 8.7185878,4.0337352 L -2.2072895,0.016013256 L 8.7185884,-4.0017078 C 6.9730900,-1.6296469 6.9831476,1.6157441 8.7185878,4.0337352 z "
         style="fill-rule:evenodd;stroke-width:0.625;stroke-linejoin:round;stroke:#ffffff;stroke-opacity:1;fill:#ffffff;fill-opacity:1"
         id="path5922" />
    </marker>
    <marker
       inkscape:isstock="true"
       style="overflow:visible;"
       id="marker5892"
       refX="0.0"
       refY="0.0"
       orient="auto"
       inkscape:stockid="Arrow2Send">
      <path
         transform="scale(0.3) rotate(180) translate(-2.3,0)"
         d="M 8.7185878,4.0337352 L -2.2072895,0.016013256 L 8.7185884,-4.0017078 C 6.9730900,-1.6296469 6.9831476,1.6157441 8.7185878,4.0337352 z "
         style="fill-rule:evenodd;stroke-width:0.625;stroke-linejoin:round;stroke:#ffffff;stroke-opacity:1;fill:#ffffff;fill-opacity:1"
         id="path5894" />
    </marker>
    <marker
       inkscape:isstock="true"
       style="overflow:visible;"
       id="marker5870"
       refX="0.0"
       refY="0.0"
       orient="auto"
       inkscape:stockid="Arrow2Send">
      <path
         transform="scale(0.3) rotate(180) translate(-2.3,0)"
         d="M 8.7185878,4.0337352 L -2.2072895,0.016013256 L 8.7185884,-4.0017078 C 6.9730900,-1.6296469 6.9831476,1.6157441 8.7185878,4.0337352 z "
         style="fill-rule:evenodd;stroke-width:0.625;stroke-linejoin:round;stroke:#ffffff;stroke-opacity:1;fill:#ffffff;fill-opacity:1"
         id="path5872" />
    </marker>
  </defs>
  <sodipodi:namedview
     pagecolor="#ffffff"
     bordercolor="#666666"
     borderopacity="1"
     objecttolerance="10"
     gridtolerance="10"
     guidetolerance="10"
     inkscape:pageopacity="0"
     inkscape:pageshadow="2"
     inkscape:window-width="1829"
     inkscape:window-height="966"
     id="namedview8"
     showgrid="false"
     inkscape:zoom="1.5449218"
     inkscape:cx="256"
     inkscape:cy="256"
     inkscape:window-x="-8"
     inkscape:window-y="-8"
     inkscape:window-maximized="1"
     inkscape:current-layer="svg2"
     showguides="false"
     inkscape:guide-bbox="true"
     inkscape:snap-center="true"
     inkscape:snap-global="true"
     inkscape:snap-bbox="true" />
  <path
     id="path5516"
     d="m 0,-1e-6 512,0 L 512,512 0,512 Z"
     inkscape:connector-curvature="0"
     style="fill:#000000;stroke:#ffffff;stroke-width:0" />
  <path
     inkscape:connector-curvature="0"
     id="path4608"
     style="font-style:normal;font-variant:normal;font-weight:bold;font-stretch:normal;font-size:183.75px;line-height:125%;font-family:sans-serif;-inkscape-font-specification:'sans-serif Bold';letter-spacing:0px;word-spacing:0px;fill:#ffffff;fill-opacity:1;stroke:none;stroke-width:1px;stroke-linecap:butt;stroke-linejoin:miter;stroke-opacity:1"
     d="m 313.108,280.80806 q 0,19.73877 -16.7779,32.12036 -16.6882,12.29187 -45.3992,12.29187 -16.5985,0 -28.9801,-2.87109 -12.2919,-2.96082 -23.0585,-7.4469 l 0,-32.03064 3.7684,0 q 10.6768,8.52356 23.8659,13.09936 13.2788,4.57581 25.481,4.57581 3.1402,0 8.2544,-0.53833 5.1141,-0.53833 8.3441,-1.79443 3.9477,-1.61499 6.4599,-4.03748 2.602,-2.42249 2.602,-7.17773 0,-4.39637 -3.7683,-7.53663 -3.6786,-3.22998 -10.8564,-4.93469 -7.5366,-1.79443 -15.9704,-3.3197 -8.3441,-1.61499 -15.7013,-4.03748 -16.8677,-5.47302 -24.3146,-14.80407 -7.3572,-9.42078 -7.3572,-23.32764 0,-18.66211 16.6883,-30.41565 16.7779,-11.84326 43.0664,-11.84326 13.1891,0 26.0193,2.60193 12.9199,2.51221 22.3407,6.37024 l 0,30.77453 -3.6786,0 q -8.075,-6.45996 -19.8285,-10.7666 -11.6638,-4.39636 -23.866,-4.39636 -4.3066,0 -8.6133,0.62805 -4.2169,0.53833 -8.1646,2.15332 -3.4992,1.34583 -6.0114,4.1272 -2.5122,2.69165 -2.5122,6.19079 0,5.29358 4.0375,8.16468 4.0374,2.78137 15.2527,5.11413 7.3571,1.52527 14.0863,2.96082 6.8188,1.43555 14.6246,3.94775 15.3424,5.02442 22.6099,13.72742 7.3571,8.61328 7.3571,22.43042 z" />
  <path
     inkscape:transform-center-y="1.0742187e-005"
     inkscape:transform-center-x="-8.5664061e-005"
     sodipodi:nodetypes="csssssssssssssc"
     inkscape:connector-curvature="0"
     id="path5570"
     d="m 323.2098,421.52859 c 21.5005,-8.71877 41.6467,-21.79699 59.0842,-39.23453 17.4376,-17.4376 30.5158,-37.58371 39.2345,-59.08414 8.7188,-21.50043 13.0782,-44.35518 13.0782,-67.20986 0,-22.85468 -4.3594,-45.70944 -13.0782,-67.20987 -8.7187,-21.50043 -21.797,-41.64661 -39.2345,-59.08414 -17.4376,-17.43761 -37.5837,-30.515761 -59.0842,-39.234531 -21.5005,-8.71884 -44.3551,-13.07829 -67.2099,-13.07822 -22.8547,0 -45.7094,4.35938 -67.2098,13.07815 -21.5005,8.71877 -41.6466,21.796921 -59.0842,39.234531 -17.4376,17.4376 -30.5158,37.58371 -39.2345,59.08414 -8.7188,21.50043 -13.0782,44.35511 -13.0782,67.20987 1e-4,22.85475 4.3595,45.7095 13.0783,67.20993 8.7187,21.50043 21.7969,41.64654 39.2345,59.08414 17.4375,17.43754 37.5837,30.51576 59.0841,39.23453"
     style="fill:none;stroke:#ffffff;stroke-width:20;stroke-miterlimit:4;stroke-dasharray:160, 80;stroke-dashoffset:186" />
  <path
     sodipodi:nodetypes="ccccczc"
     inkscape:connector-curvature="0"
     id="path5572"
     d="m 199.9942,385.31306 28.786,49.8588 28.786,49.85881 28.7861,-49.85881 28.7859,-49.8588 c 0,0 -38.3813,21.67445 -57.572,21.67452 -19.1907,0 -57.572,-21.67452 -57.572,-21.67452 z"
     inkscape:transform-center-y="-107.44635"
     inkscape:transform-center-x="-105.23139"
     style="fill:#ffffff;stroke:none;stroke-width:20;stroke-miterlimit:4;stroke-dasharray:none" />
  <circle
     style="fill:none;stroke:#ffffff;stroke-width:14.53779507;stroke-linecap:butt;stroke-miterlimit:4;stroke-dasharray:none;stroke-dashoffset:134"
     id="path5043"
     cx="4836"
     cy="-881.86377"
     r="0" />
</svg>
