<?xml version="1.0" encoding="UTF-8" standalone="no"?>
<svg
   xmlns:dc="http://purl.org/dc/elements/1.1/"
   xmlns:cc="http://creativecommons.org/ns#"
   xmlns:rdf="http://www.w3.org/1999/02/22-rdf-syntax-ns#"
   xmlns:svg="http://www.w3.org/2000/svg"
   xmlns="http://www.w3.org/2000/svg"
   xmlns:sodipodi="http://sodipodi.sourceforge.net/DTD/sodipodi-0.dtd"
   xmlns:inkscape="http://www.inkscape.org/namespaces/inkscape"
   viewBox="0 0 512 512"
   id="svg2"
   version="1.1"
   inkscape:version="0.91 r13725"
   sodipodi:docname="directions-funky-north.svg">
  <metadata
     id="metadata12">
    <rdf:RDF>
      <cc:Work
         rdf:about="">
        <dc:format>image/svg+xml</dc:format>
        <dc:type
           rdf:resource="http://purl.org/dc/dcmitype/StillImage" />
        <dc:title />
      </cc:Work>
    </rdf:RDF>
  </metadata>
  <defs
     id="defs10">
    <marker
       inkscape:isstock="true"
       style="overflow:visible;"
       id="marker6040"
       refX="0.0"
       refY="0.0"
       orient="auto"
       inkscape:stockid="Arrow2Send">
      <path
         transform="scale(0.3) rotate(180) translate(-2.3,0)"
         d="M 8.7185878,4.0337352 L -2.2072895,0.016013256 L 8.7185884,-4.0017078 C 6.9730900,-1.6296469 6.9831476,1.6157441 8.7185878,4.0337352 z "
         style="fill-rule:evenodd;stroke-width:0.625;stroke-linejoin:round;stroke:#ffffff;stroke-opacity:1;fill:#ffffff;fill-opacity:1"
         id="path6042" />
    </marker>
    <marker
       inkscape:isstock="true"
       style="overflow:visible;"
       id="marker5994"
       refX="0.0"
       refY="0.0"
       orient="auto"
       inkscape:stockid="Arrow2Send">
      <path
         transform="scale(0.3) rotate(180) translate(-2.3,0)"
         d="M 8.7185878,4.0337352 L -2.2072895,0.016013256 L 8.7185884,-4.0017078 C 6.9730900,-1.6296469 6.9831476,1.6157441 8.7185878,4.0337352 z "
         style="fill-rule:evenodd;stroke-width:0.625;stroke-linejoin:round;stroke:#ffffff;stroke-opacity:1;fill:#ffffff;fill-opacity:1"
         id="path5996" />
    </marker>
    <marker
       inkscape:isstock="true"
       style="overflow:visible;"
       id="marker5954"
       refX="0.0"
       refY="0.0"
       orient="auto"
       inkscape:stockid="Arrow2Send">
      <path
         transform="scale(0.3) rotate(180) translate(-2.3,0)"
         d="M 8.7185878,4.0337352 L -2.2072895,0.016013256 L 8.7185884,-4.0017078 C 6.9730900,-1.6296469 6.9831476,1.6157441 8.7185878,4.0337352 z "
         style="fill-rule:evenodd;stroke-width:0.625;stroke-linejoin:round;stroke:#ffffff;stroke-opacity:1;fill:#ffffff;fill-opacity:1"
         id="path5956" />
    </marker>
    <marker
       inkscape:isstock="true"
       style="overflow:visible;"
       id="marker5920"
       refX="0.0"
       refY="0.0"
       orient="auto"
       inkscape:stockid="Arrow2Send">
      <path
         transform="scale(0.3) rotate(180) translate(-2.3,0)"
         d="M 8.7185878,4.0337352 L -2.2072895,0.016013256 L 8.7185884,-4.0017078 C 6.9730900,-1.6296469 6.9831476,1.6157441 8.7185878,4.0337352 z "
         style="fill-rule:evenodd;stroke-width:0.625;stroke-linejoin:round;stroke:#ffffff;stroke-opacity:1;fill:#ffffff;fill-opacity:1"
         id="path5922" />
    </marker>
    <marker
       inkscape:isstock="true"
       style="overflow:visible;"
       id="marker5892"
       refX="0.0"
       refY="0.0"
       orient="auto"
       inkscape:stockid="Arrow2Send">
      <path
         transform="scale(0.3) rotate(180) translate(-2.3,0)"
         d="M 8.7185878,4.0337352 L -2.2072895,0.016013256 L 8.7185884,-4.0017078 C 6.9730900,-1.6296469 6.9831476,1.6157441 8.7185878,4.0337352 z "
         style="fill-rule:evenodd;stroke-width:0.625;stroke-linejoin:round;stroke:#ffffff;stroke-opacity:1;fill:#ffffff;fill-opacity:1"
         id="path5894" />
    </marker>
    <marker
       inkscape:isstock="true"
       style="overflow:visible;"
       id="marker5870"
       refX="0.0"
       refY="0.0"
       orient="auto"
       inkscape:stockid="Arrow2Send">
      <path
         transform="scale(0.3) rotate(180) translate(-2.3,0)"
         d="M 8.7185878,4.0337352 L -2.2072895,0.016013256 L 8.7185884,-4.0017078 C 6.9730900,-1.6296469 6.9831476,1.6157441 8.7185878,4.0337352 z "
         style="fill-rule:evenodd;stroke-width:0.625;stroke-linejoin:round;stroke:#ffffff;stroke-opacity:1;fill:#ffffff;fill-opacity:1"
         id="path5872" />
    </marker>
  </defs>
  <sodipodi:namedview
     pagecolor="#ffffff"
     bordercolor="#666666"
     borderopacity="1"
     objecttolerance="10"
     gridtolerance="10"
     guidetolerance="10"
     inkscape:pageopacity="0"
     inkscape:pageshadow="2"
     inkscape:window-width="1829"
     inkscape:window-height="966"
     id="namedview8"
     showgrid="false"
     inkscape:zoom="1.5449218"
     inkscape:cx="256"
     inkscape:cy="256"
     inkscape:window-x="-8"
     inkscape:window-y="-8"
     inkscape:window-maximized="1"
     inkscape:current-layer="svg2"
     showguides="false"
     inkscape:guide-bbox="true"
     inkscape:snap-center="true"
     inkscape:snap-global="true"
     inkscape:snap-bbox="true" />
  <path
     id="path15424"
     d="m 0,0 512,0 0,512 -512,0 z"
     inkscape:connector-curvature="0"
     style="fill:#000000;stroke:#ffffff;stroke-width:0" />
  <path
     sodipodi:nodetypes="sssssssssss"
     inkscape:connector-curvature="0"
     id="path15493"
     style="font-style:normal;font-variant:normal;font-weight:bold;font-stretch:normal;font-size:183.75px;line-height:125%;font-family:sans-serif;-inkscape-font-specification:'sans-serif Bold';letter-spacing:0px;word-spacing:0px;fill:#ffffff;fill-opacity:1;stroke:none;stroke-width:1px;stroke-linecap:butt;stroke-linejoin:miter;stroke-opacity:1"
     d="m 316.7416,322.7977 c -7.8246,7.8246 -23.5313,5.3873 -33.197,0 -31.3907,-17.4961 -22.1359,-101.5205 -56.7041,-91.6955 -29.4007,8.3563 21.6128,70.0827 0,91.6955 -7.444,7.444 -24.1381,7.444 -31.5821,0 -31.4888,-31.4888 -31.4888,-102.1068 0,-133.5956 9.7068,-9.7068 29.1483,-6.6049 41.1823,0 26.5107,14.5503 19.6844,84.9899 48.7189,76.5326 24.493,-7.1344 -18.0389,-58.4937 0,-76.5326 7.4439,-7.4439 24.1381,-7.4439 31.582,0 31.4888,31.4888 31.4888,102.1068 0,133.5956 z" />
  <path
     style="color:#000000;font-style:normal;font-variant:normal;font-weight:normal;font-stretch:normal;font-size:medium;line-height:normal;font-family:sans-serif;text-indent:0;text-align:start;text-decoration:none;text-decoration-line:none;text-decoration-style:solid;text-decoration-color:#000000;letter-spacing:normal;word-spacing:normal;text-transform:none;direction:ltr;block-progression:tb;writing-mode:lr-tb;baseline-shift:baseline;text-anchor:start;white-space:normal;clip-rule:nonzero;display:inline;overflow:visible;visibility:visible;opacity:1;isolation:auto;mix-blend-mode:normal;color-interpolation:sRGB;color-interpolation-filters:linearRGB;solid-color:#000000;solid-opacity:1;fill:#ffffff;fill-opacity:1;fill-rule:nonzero;stroke:none;stroke-width:20;stroke-linecap:butt;stroke-linejoin:miter;stroke-miterlimit:4;stroke-dasharray:none;stroke-dashoffset:174;stroke-opacity:1;color-rendering:auto;image-rendering:auto;shape-rendering:auto;text-rendering:auto;enable-background:accumulate"
     d="m 165.0375,70.8663 a 31.069534,31.716816 0 0 0 -31.0703,31.7168 31.069534,31.716816 0 0 0 0.8418,7.1602 c -3.8968,4.2365 -7.926,8.6447 -12.1739,12.8925 -18.3929,18.3931 -32.2217,39.6848 -41.4316,62.3965 -9.21,22.7118 -13.8106,46.8405 -13.8105,70.9668 0,24.1264 4.6005,48.257 13.8105,70.9688 9.2099,22.7117 23.0388,44.0036 41.4316,62.3965 18.393,18.3929 39.6847,32.2217 62.3965,41.4316 22.7118,9.2101 46.8423,13.8106 70.9688,13.8106 24.1263,0 48.2551,-4.6006 70.9668,-13.8106 22.7117,-9.21 44.0054,-23.0387 62.3984,-41.4316 18.393,-18.393 32.2198,-39.6847 41.4297,-62.3965 9.21,-22.7117 13.8105,-46.8424 13.8105,-70.9688 -10e-5,-24.1264 -4.6005,-48.255 -13.8105,-70.9668 -9.2099,-22.7117 -23.0367,-44.0035 -41.4297,-62.3965 -4.6759,-4.6759 -10.0337,-9.9534 -15.668,-15.1484 a 31.069534,31.716816 0 0 0 0.4121,-4.9043 31.069534,31.716816 0 0 0 -31.0703,-31.7168 31.069534,31.716816 0 0 0 -26.0039,14.4102 c -0.6222,0.5539 -0.9768,1.1525 -1.1133,1.8554 a 31.069534,31.716816 0 0 0 -3.9531,15.4512 31.069534,31.716816 0 0 0 31.0703,31.7168 31.069534,31.716816 0 0 0 19.4375,-6.9844 c 4.7797,2.8134 9.1943,5.9092 12.7461,9.461 16.4823,16.4822 28.8116,35.4824 37.0391,55.7715 8.2276,20.2892 12.3436,41.8699 12.3437,63.4531 -2e-4,21.5824 -4.1163,43.1626 -12.3437,63.4512 -8.2275,20.2892 -20.5568,39.2892 -37.0391,55.7714 -16.4822,16.4823 -35.4822,28.8095 -55.7715,37.0371 -20.2891,8.2277 -41.8681,12.3458 -63.4511,12.3458 -21.5832,0 -43.1639,-4.1179 -63.4532,-12.3458 C 172.2581,404.0334 153.26,391.706 136.7777,375.2237 120.2956,358.7416 107.9661,339.7413 99.7387,319.4523 91.511,299.163 87.3928,277.5822 87.393,255.9991 c 0,-21.583 4.118,-43.1619 12.3457,-63.4511 8.2275,-20.2891 20.5569,-39.2892 37.039,-55.7715 3.0182,-3.0182 6.2816,-6.0085 9.6035,-8.8789 a 31.069534,31.716816 0 0 0 18.6563,6.4023 31.069534,31.716816 0 0 0 31.0683,-31.7168 31.069534,31.716816 0 0 0 -31.0683,-31.7168 z"
     id="path15474"
     inkscape:connector-curvature="0" />
  <g
     style="font-style:normal;font-weight:normal;font-size:20px;line-height:125%;font-family:sans-serif;letter-spacing:0px;word-spacing:0px;fill:#000000;fill-opacity:1;stroke:none;stroke-width:1px;stroke-linecap:butt;stroke-linejoin:miter;stroke-opacity:1"
     id="text15804"
     transform="translate(5811.9242,1740.8546)" />
  <circle
     style="fill:none;stroke:#ffffff;stroke-width:14.53779507;stroke-linecap:butt;stroke-miterlimit:4;stroke-dasharray:none;stroke-dashoffset:134"
     id="path5043"
     cx="5996"
     cy="255.99998"
     r="0" />
</svg>
