<?xml version="1.0" encoding="UTF-8" standalone="no"?>
<svg
   xmlns:dc="http://purl.org/dc/elements/1.1/"
   xmlns:cc="http://creativecommons.org/ns#"
   xmlns:rdf="http://www.w3.org/1999/02/22-rdf-syntax-ns#"
   xmlns:svg="http://www.w3.org/2000/svg"
   xmlns="http://www.w3.org/2000/svg"
   xmlns:sodipodi="http://sodipodi.sourceforge.net/DTD/sodipodi-0.dtd"
   xmlns:inkscape="http://www.inkscape.org/namespaces/inkscape"
   viewBox="0 0 512 512"
   id="svg2"
   version="1.1"
   inkscape:version="0.91 r13725"
   sodipodi:docname="directions-dashed-dotted-south-west.svg">
  <metadata
     id="metadata12">
    <rdf:RDF>
      <cc:Work
         rdf:about="">
        <dc:format>image/svg+xml</dc:format>
        <dc:type
           rdf:resource="http://purl.org/dc/dcmitype/StillImage" />
        <dc:title />
      </cc:Work>
    </rdf:RDF>
  </metadata>
  <defs
     id="defs10">
    <marker
       inkscape:isstock="true"
       style="overflow:visible;"
       id="marker6040"
       refX="0.0"
       refY="0.0"
       orient="auto"
       inkscape:stockid="Arrow2Send">
      <path
         transform="scale(0.3) rotate(180) translate(-2.3,0)"
         d="M 8.7185878,4.0337352 L -2.2072895,0.016013256 L 8.7185884,-4.0017078 C 6.9730900,-1.6296469 6.9831476,1.6157441 8.7185878,4.0337352 z "
         style="fill-rule:evenodd;stroke-width:0.625;stroke-linejoin:round;stroke:#ffffff;stroke-opacity:1;fill:#ffffff;fill-opacity:1"
         id="path6042" />
    </marker>
    <marker
       inkscape:isstock="true"
       style="overflow:visible;"
       id="marker5994"
       refX="0.0"
       refY="0.0"
       orient="auto"
       inkscape:stockid="Arrow2Send">
      <path
         transform="scale(0.3) rotate(180) translate(-2.3,0)"
         d="M 8.7185878,4.0337352 L -2.2072895,0.016013256 L 8.7185884,-4.0017078 C 6.9730900,-1.6296469 6.9831476,1.6157441 8.7185878,4.0337352 z "
         style="fill-rule:evenodd;stroke-width:0.625;stroke-linejoin:round;stroke:#ffffff;stroke-opacity:1;fill:#ffffff;fill-opacity:1"
         id="path5996" />
    </marker>
    <marker
       inkscape:isstock="true"
       style="overflow:visible;"
       id="marker5954"
       refX="0.0"
       refY="0.0"
       orient="auto"
       inkscape:stockid="Arrow2Send">
      <path
         transform="scale(0.3) rotate(180) translate(-2.3,0)"
         d="M 8.7185878,4.0337352 L -2.2072895,0.016013256 L 8.7185884,-4.0017078 C 6.9730900,-1.6296469 6.9831476,1.6157441 8.7185878,4.0337352 z "
         style="fill-rule:evenodd;stroke-width:0.625;stroke-linejoin:round;stroke:#ffffff;stroke-opacity:1;fill:#ffffff;fill-opacity:1"
         id="path5956" />
    </marker>
    <marker
       inkscape:isstock="true"
       style="overflow:visible;"
       id="marker5920"
       refX="0.0"
       refY="0.0"
       orient="auto"
       inkscape:stockid="Arrow2Send">
      <path
         transform="scale(0.3) rotate(180) translate(-2.3,0)"
         d="M 8.7185878,4.0337352 L -2.2072895,0.016013256 L 8.7185884,-4.0017078 C 6.9730900,-1.6296469 6.9831476,1.6157441 8.7185878,4.0337352 z "
         style="fill-rule:evenodd;stroke-width:0.625;stroke-linejoin:round;stroke:#ffffff;stroke-opacity:1;fill:#ffffff;fill-opacity:1"
         id="path5922" />
    </marker>
    <marker
       inkscape:isstock="true"
       style="overflow:visible;"
       id="marker5892"
       refX="0.0"
       refY="0.0"
       orient="auto"
       inkscape:stockid="Arrow2Send">
      <path
         transform="scale(0.3) rotate(180) translate(-2.3,0)"
         d="M 8.7185878,4.0337352 L -2.2072895,0.016013256 L 8.7185884,-4.0017078 C 6.9730900,-1.6296469 6.9831476,1.6157441 8.7185878,4.0337352 z "
         style="fill-rule:evenodd;stroke-width:0.625;stroke-linejoin:round;stroke:#ffffff;stroke-opacity:1;fill:#ffffff;fill-opacity:1"
         id="path5894" />
    </marker>
    <marker
       inkscape:isstock="true"
       style="overflow:visible;"
       id="marker5870"
       refX="0.0"
       refY="0.0"
       orient="auto"
       inkscape:stockid="Arrow2Send">
      <path
         transform="scale(0.3) rotate(180) translate(-2.3,0)"
         d="M 8.7185878,4.0337352 L -2.2072895,0.016013256 L 8.7185884,-4.0017078 C 6.9730900,-1.6296469 6.9831476,1.6157441 8.7185878,4.0337352 z "
         style="fill-rule:evenodd;stroke-width:0.625;stroke-linejoin:round;stroke:#ffffff;stroke-opacity:1;fill:#ffffff;fill-opacity:1"
         id="path5872" />
    </marker>
  </defs>
  <sodipodi:namedview
     pagecolor="#ffffff"
     bordercolor="#666666"
     borderopacity="1"
     objecttolerance="10"
     gridtolerance="10"
     guidetolerance="10"
     inkscape:pageopacity="0"
     inkscape:pageshadow="2"
     inkscape:window-width="1829"
     inkscape:window-height="966"
     id="namedview8"
     showgrid="false"
     inkscape:zoom="1.5449218"
     inkscape:cx="256"
     inkscape:cy="256"
     inkscape:window-x="-8"
     inkscape:window-y="-8"
     inkscape:window-maximized="1"
     inkscape:current-layer="svg2"
     showguides="false"
     inkscape:guide-bbox="true"
     inkscape:snap-center="true"
     inkscape:snap-global="true"
     inkscape:snap-bbox="true" />
  <path
     style="fill:#000000;stroke:#ffffff;stroke-width:0"
     inkscape:connector-curvature="0"
     d="m 0,0 512,0 0,512 -512,0 z"
     id="path15326" />
  <path
     inkscape:connector-curvature="0"
     id="path4554"
     style="font-style:normal;font-variant:normal;font-weight:bold;font-stretch:normal;font-size:122.5px;line-height:125%;font-family:sans-serif;-inkscape-font-specification:'sans-serif Bold';letter-spacing:0px;word-spacing:0px;fill:#ffffff;fill-opacity:1;stroke:none;stroke-width:1px;stroke-linecap:butt;stroke-linejoin:miter;stroke-opacity:1"
     d="m 224.7172,272.5388 q 0,13.1591 -11.1853,21.4135 -11.1255,8.1946 -30.2661,8.1946 -11.0657,0 -19.3201,-1.9141 -8.1946,-1.9738 -15.3723,-4.9646 l 0,-21.3537 2.5122,0 q 7.1179,5.6824 15.9106,8.7329 8.8526,3.0505 16.9873,3.0505 2.0935,0 5.503,-0.3589 3.4094,-0.3588 5.5627,-1.1962 2.6318,-1.0767 4.3066,-2.6917 1.7347,-1.615 1.7347,-4.7851 0,-2.931 -2.5122,-5.0245 -2.4524,-2.1533 -7.2376,-3.2898 -5.0244,-1.1962 -10.647,-2.2131 -5.5627,-1.0767 -10.4675,-2.6916 -11.2451,-3.6487 -16.2097,-9.8694 -4.9048,-6.2805 -4.9048,-15.5518 0,-12.4414 11.1255,-20.2771 11.1853,-7.8955 28.7109,-7.8955 8.7928,0 17.3462,1.7346 8.6133,1.6748 14.8938,4.2469 l 0,20.5163 -2.4524,0 q -5.3833,-4.3066 -13.219,-7.1777 -7.7758,-2.9309 -15.9106,-2.9309 -2.8711,0 -5.7422,0.4187 -2.8113,0.3589 -5.4431,1.4355 -2.3328,0.8972 -4.0076,2.7515 -1.6748,1.7944 -1.6748,4.1272 0,3.529 2.6917,5.4431 2.6916,1.8542 10.1684,3.4094 4.9048,1.0169 9.3909,1.9739 4.5459,0.957 9.7497,2.6318 10.2283,3.3496 15.0733,9.1516 4.9048,5.7422 4.9048,14.9537 z" />
  <path
     inkscape:connector-curvature="0"
     id="path4556"
     style="font-style:normal;font-variant:normal;font-weight:bold;font-stretch:normal;font-size:122.5px;line-height:125%;font-family:sans-serif;-inkscape-font-specification:'sans-serif Bold';letter-spacing:0px;word-spacing:0px;fill:#ffffff;fill-opacity:1;stroke:none;stroke-width:1px;stroke-linecap:butt;stroke-linejoin:miter;stroke-opacity:1"
     d="m 363.4269,211.4682 -23.9856,89.0637 -25.4212,0 -15.9704,-58.02 -15.5518,58.02 -25.4211,0 -23.9856,-89.0637 23.9856,0 13.6975,61.3098 16.3892,-61.3098 22.9089,0 15.6116,61.3098 14.3554,-61.3098 23.3875,0 z" />
  <path
     style="color:#000000;font-style:normal;font-variant:normal;font-weight:normal;font-stretch:normal;font-size:medium;line-height:normal;font-family:sans-serif;text-indent:0;text-align:start;text-decoration:none;text-decoration-line:none;text-decoration-style:solid;text-decoration-color:#000000;letter-spacing:normal;word-spacing:normal;text-transform:none;direction:ltr;block-progression:tb;writing-mode:lr-tb;baseline-shift:baseline;text-anchor:start;white-space:normal;clip-rule:nonzero;display:inline;overflow:visible;visibility:visible;opacity:1;isolation:auto;mix-blend-mode:normal;color-interpolation:sRGB;color-interpolation-filters:linearRGB;solid-color:#000000;solid-opacity:1;fill:#ffffff;fill-opacity:1;fill-rule:nonzero;stroke:none;stroke-width:20;stroke-linecap:butt;stroke-linejoin:miter;stroke-miterlimit:4;stroke-dasharray:80, 40, 20, 40;stroke-dashoffset:174;stroke-opacity:1;color-rendering:auto;image-rendering:auto;shape-rendering:auto;text-rendering:auto;enable-background:accumulate"
     d="m 262.19336,87.519531 2.52539,0.0957 4.2793,0.271485 4.24609,0.376953 4.2207,0.482422 4.26954,0.597656 4.14648,0.6875 4.14062,0.794922 4.07618,0.888672 4.00195,0.974609 4.08984,1.107422 3.95703,1.175781 3.95899,1.28711 3.89648,1.373046 3.8125,1.449219 3.8086,1.554689 3.72656,1.63086 3.71484,1.73437 3.69922,1.83789 1.79297,0.94532 9.33203,-17.687504 -1.91211,-1.009765 -0.10742,-0.05664 -0.10742,-0.05273 -3.87891,-1.927735 -0.10742,-0.05469 -0.11133,-0.05078 -3.92968,-1.835937 -0.11133,-0.05078 -0.11133,-0.04883 -3.98242,-1.742188 -0.11133,-0.04883 -0.11328,-0.04687 -4.03125,-1.646484 -0.11524,-0.04687 -0.11328,-0.04297 -4.08008,-1.550781 -0.11523,-0.04492 -0.11719,-0.04102 -4.125,-1.453125 -0.11719,-0.04102 -0.11718,-0.03906 -4.17383,-1.353516 -0.11719,-0.03906 -0.11914,-0.03516 -4.2168,-1.253907 -0.11914,-0.03516 -0.11914,-0.0332 -4.25976,-1.152344 -0.11914,-0.0332 -0.1211,-0.0293 -4.30078,-1.048828 -0.12109,-0.0293 -0.12305,-0.02734 L 294.12305,71.25 294,71.224609 l -0.12305,-0.02344 -4.3789,-0.839844 -0.12305,-0.02344 -0.125,-0.01953 -4.41602,-0.732421 -0.12304,-0.02148 -0.125,-0.01758 -4.45313,-0.623047 -0.12304,-0.01563 -0.12696,-0.01563 -4.48633,-0.511719 -0.125,-0.01563 -0.125,-0.0098 -4.51953,-0.402344 -0.12695,-0.01172 -0.125,-0.0078 -4.55078,-0.28711 -0.12695,-0.0078 -0.12696,-0.0059 -2.61914,-0.09961 z M 218.12305,71.201172 218,71.224609 217.87695,71.25 l -4.33984,0.945312 -0.12305,0.02734 -0.12109,0.0293 -4.30078,1.048828 -0.1211,0.0293 -0.11914,0.0332 -4.25976,1.152344 -0.11914,0.0332 -0.11914,0.03516 -3.74414,1.113282 5.70117,19.169922 3.59961,-1.070313 4.08984,-1.107422 4.00195,-0.974609 4.07618,-0.888672 2.66992,-0.511719 -3.76367,-19.642578 z m -59.82617,23.441406 -0.10352,0.06055 -0.10352,0.06445 -3.65234,2.28125 -0.10156,0.0625 -0.10156,0.06641 -3.59376,2.365235 -0.0996,0.06641 -0.0996,0.06836 -3.53125,2.449216 -0.0996,0.0684 -0.0957,0.0703 -3.4707,2.53126 -0.0977,0.0703 -0.0937,0.0723 -3.40625,2.61133 -0.0957,0.0742 -0.0918,0.0742 -3.34179,2.6914 -0.0937,0.0742 -0.0898,0.0781 -3.27539,2.76758 -0.0918,0.0781 -0.0879,0.0781 -3.20704,2.8457 -0.0898,0.0781 -0.0859,0.082 -3.13672,2.91992 -0.0879,0.082 -0.0859,0.082 -3.06641,2.99414 -0.084,0.084 -0.084,0.0859 -2.99414,3.06446 -0.082,0.0859 -0.082,0.0879 -2.91992,3.13672 -0.082,0.0859 -0.0781,0.0898 -2.8457,3.20704 -0.0781,0.0898 -0.0781,0.0898 -2.76758,3.27539 -0.0781,0.0898 -0.0742,0.0937 -2.6914,3.34179 -0.0742,0.0918 -0.0742,0.0957 -2.61133,3.40625 -0.0723,0.0957 -0.0703,0.0957 -2.53126,3.4707 -0.0703,0.0957 -0.0684,0.0996 -1.77148,2.55664 16.43555,11.39258 1.73828,-2.50196 2.34375,-3.2168 2.46875,-3.21874 2.5664,-3.18555 2.61133,-3.08594 2.68164,-3.02344 2.75391,-2.95898 2.82226,-2.89063 2.89063,-2.82226 2.95898,-2.75391 3.02344,-2.68164 3.08594,-2.61133 3.18555,-2.5664 3.21874,-2.46875 3.21485,-2.34375 3.37695,-2.3418 3.4336,-2.25977 3.43554,-2.14257 3.26367,-1.92969 -10.17773,-17.216798 z m 207.47265,33.384762 0.58203,0.49219 3.02149,2.68164 2.95898,2.75391 2.89063,2.82226 2.82226,2.89063 1.2832,1.37891 14.63868,-13.62891 -1.35938,-1.45899 -0.082,-0.0879 -0.082,-0.0859 -2.99414,-3.06641 -0.084,-0.084 -0.0859,-0.084 -3.06446,-2.99414 -0.0859,-0.082 -0.0879,-0.082 -3.13672,-2.91992 -0.0859,-0.082 -0.0898,-0.0781 -3.20704,-2.8457 -0.0879,-0.0781 -0.0918,-0.0781 -0.65821,-0.55664 z m 36.07617,43.33204 0.41602,0.70117 2.00586,3.58984 1.89258,3.58789 1.83789,3.69727 1.73437,3.71484 1.63086,3.72656 1.55469,3.8086 1.43945,3.78711 1.38281,3.92187 1.28711,3.95899 1.17578,3.95703 1.10743,4.08984 0.97461,4.00195 0.88867,4.07618 0.79492,4.14062 0.6875,4.14648 0.59766,4.26954 0.48242,4.2207 0.36523,4.12891 19.92188,-1.76954 -0.37891,-4.26171 -0.01,-0.125 -0.0156,-0.125 -0.51172,-4.48633 -0.0156,-0.12696 -0.0156,-0.12304 -0.62305,-4.45313 -0.0176,-0.125 -0.0215,-0.12304 -0.73242,-4.41602 -0.0195,-0.125 -0.0234,-0.12305 -0.83984,-4.3789 -0.0234,-0.12305 -0.0254,-0.12305 -0.94531,-4.33984 -0.0274,-0.12305 -0.0293,-0.12109 -1.04883,-4.30078 -0.0293,-0.1211 -0.0332,-0.11914 -1.15234,-4.25976 -0.0332,-0.11914 -0.0351,-0.11914 -1.25391,-4.2168 -0.0352,-0.11914 -0.0391,-0.11719 -1.35351,-4.17383 -0.0391,-0.11718 -0.041,-0.11524 -1.45313,-4.12695 -0.041,-0.11719 -0.0449,-0.11523 -1.55078,-4.08008 -0.043,-0.11328 -0.0469,-0.11524 -1.64649,-4.03125 -0.0469,-0.11328 -0.0488,-0.11133 -1.74219,-3.98242 -0.0488,-0.11133 -0.0508,-0.11133 -1.83593,-3.92968 -0.0508,-0.10938 -0.0547,-0.10937 -1.92578,-3.87891 -0.0547,-0.10742 -0.0566,-0.10742 -2.01758,-3.82422 -0.0566,-0.10742 -0.0586,-0.10547 -2.10742,-3.76758 -0.0586,-0.10742 -0.0625,-0.10352 -0.48828,-0.82617 z m -321.320309,15.36718 -0.04687,0.11524 -0.04297,0.11328 -1.550781,4.08008 -0.04492,0.11523 -0.04102,0.11719 -1.453125,4.12695 -0.04102,0.11524 -0.03906,0.11718 -1.353516,4.17383 -0.03906,0.11719 -0.03516,0.11914 -1.253907,4.2168 -0.03516,0.11914 -0.0332,0.11914 -0.615234,2.27734 19.304687,5.22461 0.591797,-2.18164 1.175781,-3.95898 1.28711,-3.95899 1.382812,-3.92187 1.429688,-3.75977 0.01172,-0.0293 0.04492,-0.12109 -4.896484,-1.86133 -13.664063,-5.58203 z m -13.066407,64.28321 -0.0059,0.12695 0,0.12695 -0.05859,4.60938 -0.002,0.12695 0.002,0.12695 0.05859,4.60938 0,0.12695 0.0059,0.12695 0.173828,4.58008 0.0059,0.12696 0.0078,0.12695 0.28711,4.55078 0.0078,0.125 0.01172,0.12695 0.402344,4.51953 0.0098,0.125 0.01563,0.125 0.511719,4.48633 0.01563,0.12696 0.01563,0.125 0.623047,4.45117 0.01758,0.125 0.02148,0.12304 0.732421,4.41602 0.01953,0.125 0.02344,0.12305 0.839844,4.3789 0.02344,0.12305 0.02539,0.12305 0.945312,4.33984 0.02734,0.12305 0.0293,0.12109 1.048828,4.30078 0.0293,0.1211 0.0332,0.11914 1.152344,4.25976 0.0332,0.1211 0.03516,0.11914 1.253907,4.21484 0.03516,0.11914 0.03906,0.11914 1.353516,4.17188 0.03906,0.11718 0.04102,0.11719 1.453125,4.125 0.04102,0.11719 0.04492,0.11523 1.550781,4.08008 0.04297,0.11328 0.04687,0.11524 1.646484,4.03125 18.513675,-7.56446 -1.603519,-3.92578 -1.449219,-3.8125 -1.373046,-3.89648 -1.28711,-3.95899 -1.175781,-3.95703 -1.107422,-4.08984 -0.974609,-4.00195 -0.888672,-4.07618 -0.794922,-4.14062 -0.6875,-4.14648 -0.597656,-4.27735 -0.482422,-4.21289 -0.376953,-4.24609 -0.271485,-4.2793 -0.166015,-4.38477 -0.05469,-4.33398 0.05469,-4.33789 0.0918,-2.44141 -19.984375,-0.75976 z m 355.197266,30.72265 -0.6875,4.14844 -0.79492,4.14062 -0.88867,4.07618 -0.97657,4.0039 -0.20703,0.77149 19.30469,5.22461 0.23047,-0.84961 0.0332,-0.11914 0.0293,-0.1211 1.04883,-4.30078 0.0293,-0.12109 0.0274,-0.12305 0.94531,-4.33984 0.0254,-0.12305 0.0234,-0.12305 0.83984,-4.3789 0.0234,-0.12305 0.0195,-0.125 0.73242,-4.41602 0.0215,-0.12304 0.0176,-0.125 0.18165,-1.30469 -19.80665,-2.77148 z m -18.38867,54.61719 -2.00977,3.5957 -2.04101,3.45117 -2.14453,3.4375 -2.25977,3.4336 -2.3418,3.37695 -2.34375,3.21485 -2.49804,3.25781 -2.53516,3.14648 -2.61328,3.08594 -2.68164,3.02344 -2.75391,2.95898 -2.82226,2.89063 -2.89063,2.82226 -2.95898,2.75391 -3.02344,2.68164 -3.08594,2.61133 -3.18555,2.5664 -3.27148,2.50977 12.16797,15.87109 3.37891,-2.58984 0.0957,-0.0742 0.0918,-0.0742 3.34179,-2.6914 0.0937,-0.0742 0.0899,-0.0781 3.27539,-2.76758 0.0918,-0.0781 0.0879,-0.0781 3.20704,-2.8457 0.0898,-0.0781 0.0859,-0.082 3.13672,-2.91992 0.0879,-0.082 0.0859,-0.082 3.06446,-2.99414 0.0859,-0.084 0.084,-0.084 2.99414,-3.06641 0.082,-0.0859 0.082,-0.0879 2.91992,-3.13672 0.082,-0.0859 0.0781,-0.0898 2.8457,-3.20704 0.0781,-0.0879 0.0781,-0.0918 2.76758,-3.27539 0.0781,-0.0899 0.0742,-0.0937 2.6914,-3.33984 0.0742,-0.0937 0.0742,-0.0957 2.61133,-3.40625 0.0723,-0.0937 0.0703,-0.0977 2.53126,-3.4707 0.0703,-0.0957 0.0684,-0.0996 2.44922,-3.53125 0.0684,-0.0996 0.0664,-0.0996 2.36524,-3.59376 0.0664,-0.10156 0.0625,-0.10156 2.28125,-3.65234 0.0645,-0.10352 0.0605,-0.10352 2.19336,-3.71093 0.0625,-0.10352 0.0586,-0.10547 2.10742,-3.76953 0.0586,-0.10547 0.0566,-0.10742 1.2832,-2.43164 -17.68945,-9.33203 z m -82.64649,75.01367 -3.80664,1.55469 -3.88086,1.47461 -3.82617,1.34765 -3.43554,1.11524 6.17578,19.02148 3.52539,-1.14257 0.11718,-0.0391 0.11719,-0.041 4.125,-1.45313 0.11719,-0.041 0.11523,-0.043 4.08008,-1.55274 0.11328,-0.043 0.11524,-0.0469 4.03125,-1.64649 0.11328,-0.0469 0.11133,-0.0488 2.93359,-1.2832 -8.01758,-18.32227 z m -133.12695,20.78711 2.54102,0.9668 0.11523,0.043 0.11719,0.041 4.125,1.45313 0.11719,0.041 0.11718,0.0391 4.17383,1.35351 0.11719,0.0391 0.11914,0.0352 4.2168,1.25391 0.11914,0.0351 0.11914,0.0332 4.25976,1.15234 0.11914,0.0332 0.1211,0.0293 4.30078,1.04883 0.12109,0.0293 0.12305,0.0274 4.33984,0.94531 0.12305,0.0254 0.12305,0.0234 4.3789,0.83984 0.12305,0.0234 0.125,0.0215 4.41602,0.73047 0.12304,0.0215 0.125,0.0176 4.45313,0.62305 0.12304,0.0176 0.12696,0.0137 4.48633,0.51172 0.125,0.0156 0.125,0.01 4.51953,0.40235 0.12695,0.0117 0.125,0.008 4.55078,0.28711 0.12695,0.01 0.12696,0.004 4.58008,0.17383 0.12695,0.006 0.12695,0 4.60938,0.0586 0.12695,0.002 0.12695,-0.002 4.60938,-0.0586 0.12695,0 0.12695,-0.006 4.58008,-0.17383 0.12696,-0.004 0.12695,-0.01 4.55078,-0.28711 0.125,-0.008 0.12695,-0.0117 0.8418,-0.0742 -1.76953,-19.92188 -0.69922,0.0625 -4.28125,0.27149 -4.31055,0.16406 -4.4082,0.0566 -4.41016,-0.0566 -4.30859,-0.16406 -4.2793,-0.27149 -4.24609,-0.37695 -4.2207,-0.48242 -4.26954,-0.59766 -4.14648,-0.6875 -4.14062,-0.79492 -4.07618,-0.88867 -4.00195,-0.97461 -4.08984,-1.10743 -3.95703,-1.17578 -3.96094,-1.28711 -3.82617,-1.34765 -2.46485,-0.9375 z"
     id="path15366"
     inkscape:connector-curvature="0" />
  <path
     style="fill:#ffffff;stroke:none;stroke-width:20;stroke-miterlimit:4;stroke-dasharray:none"
     inkscape:transform-center-x="-105.23139"
     inkscape:transform-center-y="-107.44635"
     d="m 124.9598,307.8361 -14.9007,55.6103 -14.9007,55.6103 55.6103,-14.9007 55.6102,-14.9008 c 0,0 -42.4658,-11.8135 -56.0357,-25.3833 -13.5699,-13.5699 -25.3834,-56.0358 -25.3834,-56.0358 z"
     id="path15368"
     inkscape:connector-curvature="0"
     sodipodi:nodetypes="ccccczc" />
  <circle
     style="fill:none;stroke:#ffffff;stroke-width:14.53779507;stroke-linecap:butt;stroke-miterlimit:4;stroke-dasharray:none;stroke-dashoffset:134"
     id="path5043"
     cx="5416"
     cy="-3201.4958"
     r="0" />
</svg>
