<?xml version="1.0" encoding="UTF-8" standalone="no"?>
<svg
   xmlns:dc="http://purl.org/dc/elements/1.1/"
   xmlns:cc="http://creativecommons.org/ns#"
   xmlns:rdf="http://www.w3.org/1999/02/22-rdf-syntax-ns#"
   xmlns:svg="http://www.w3.org/2000/svg"
   xmlns="http://www.w3.org/2000/svg"
   xmlns:sodipodi="http://sodipodi.sourceforge.net/DTD/sodipodi-0.dtd"
   xmlns:inkscape="http://www.inkscape.org/namespaces/inkscape"
   viewBox="0 0 512 512"
   id="svg2"
   version="1.1"
   inkscape:version="0.91 r13725"
   sodipodi:docname="directions-funky-east.svg">
  <metadata
     id="metadata12">
    <rdf:RDF>
      <cc:Work
         rdf:about="">
        <dc:format>image/svg+xml</dc:format>
        <dc:type
           rdf:resource="http://purl.org/dc/dcmitype/StillImage" />
        <dc:title />
      </cc:Work>
    </rdf:RDF>
  </metadata>
  <defs
     id="defs10">
    <marker
       inkscape:isstock="true"
       style="overflow:visible;"
       id="marker6040"
       refX="0.0"
       refY="0.0"
       orient="auto"
       inkscape:stockid="Arrow2Send">
      <path
         transform="scale(0.3) rotate(180) translate(-2.3,0)"
         d="M 8.7185878,4.0337352 L -2.2072895,0.016013256 L 8.7185884,-4.0017078 C 6.9730900,-1.6296469 6.9831476,1.6157441 8.7185878,4.0337352 z "
         style="fill-rule:evenodd;stroke-width:0.625;stroke-linejoin:round;stroke:#ffffff;stroke-opacity:1;fill:#ffffff;fill-opacity:1"
         id="path6042" />
    </marker>
    <marker
       inkscape:isstock="true"
       style="overflow:visible;"
       id="marker5994"
       refX="0.0"
       refY="0.0"
       orient="auto"
       inkscape:stockid="Arrow2Send">
      <path
         transform="scale(0.3) rotate(180) translate(-2.3,0)"
         d="M 8.7185878,4.0337352 L -2.2072895,0.016013256 L 8.7185884,-4.0017078 C 6.9730900,-1.6296469 6.9831476,1.6157441 8.7185878,4.0337352 z "
         style="fill-rule:evenodd;stroke-width:0.625;stroke-linejoin:round;stroke:#ffffff;stroke-opacity:1;fill:#ffffff;fill-opacity:1"
         id="path5996" />
    </marker>
    <marker
       inkscape:isstock="true"
       style="overflow:visible;"
       id="marker5954"
       refX="0.0"
       refY="0.0"
       orient="auto"
       inkscape:stockid="Arrow2Send">
      <path
         transform="scale(0.3) rotate(180) translate(-2.3,0)"
         d="M 8.7185878,4.0337352 L -2.2072895,0.016013256 L 8.7185884,-4.0017078 C 6.9730900,-1.6296469 6.9831476,1.6157441 8.7185878,4.0337352 z "
         style="fill-rule:evenodd;stroke-width:0.625;stroke-linejoin:round;stroke:#ffffff;stroke-opacity:1;fill:#ffffff;fill-opacity:1"
         id="path5956" />
    </marker>
    <marker
       inkscape:isstock="true"
       style="overflow:visible;"
       id="marker5920"
       refX="0.0"
       refY="0.0"
       orient="auto"
       inkscape:stockid="Arrow2Send">
      <path
         transform="scale(0.3) rotate(180) translate(-2.3,0)"
         d="M 8.7185878,4.0337352 L -2.2072895,0.016013256 L 8.7185884,-4.0017078 C 6.9730900,-1.6296469 6.9831476,1.6157441 8.7185878,4.0337352 z "
         style="fill-rule:evenodd;stroke-width:0.625;stroke-linejoin:round;stroke:#ffffff;stroke-opacity:1;fill:#ffffff;fill-opacity:1"
         id="path5922" />
    </marker>
    <marker
       inkscape:isstock="true"
       style="overflow:visible;"
       id="marker5892"
       refX="0.0"
       refY="0.0"
       orient="auto"
       inkscape:stockid="Arrow2Send">
      <path
         transform="scale(0.3) rotate(180) translate(-2.3,0)"
         d="M 8.7185878,4.0337352 L -2.2072895,0.016013256 L 8.7185884,-4.0017078 C 6.9730900,-1.6296469 6.9831476,1.6157441 8.7185878,4.0337352 z "
         style="fill-rule:evenodd;stroke-width:0.625;stroke-linejoin:round;stroke:#ffffff;stroke-opacity:1;fill:#ffffff;fill-opacity:1"
         id="path5894" />
    </marker>
    <marker
       inkscape:isstock="true"
       style="overflow:visible;"
       id="marker5870"
       refX="0.0"
       refY="0.0"
       orient="auto"
       inkscape:stockid="Arrow2Send">
      <path
         transform="scale(0.3) rotate(180) translate(-2.3,0)"
         d="M 8.7185878,4.0337352 L -2.2072895,0.016013256 L 8.7185884,-4.0017078 C 6.9730900,-1.6296469 6.9831476,1.6157441 8.7185878,4.0337352 z "
         style="fill-rule:evenodd;stroke-width:0.625;stroke-linejoin:round;stroke:#ffffff;stroke-opacity:1;fill:#ffffff;fill-opacity:1"
         id="path5872" />
    </marker>
  </defs>
  <sodipodi:namedview
     pagecolor="#ffffff"
     bordercolor="#666666"
     borderopacity="1"
     objecttolerance="10"
     gridtolerance="10"
     guidetolerance="10"
     inkscape:pageopacity="0"
     inkscape:pageshadow="2"
     inkscape:window-width="1829"
     inkscape:window-height="966"
     id="namedview8"
     showgrid="false"
     inkscape:zoom="1.5449218"
     inkscape:cx="256"
     inkscape:cy="256"
     inkscape:window-x="-8"
     inkscape:window-y="-8"
     inkscape:window-maximized="1"
     inkscape:current-layer="svg2"
     showguides="false"
     inkscape:guide-bbox="true"
     inkscape:snap-center="true"
     inkscape:snap-global="true"
     inkscape:snap-bbox="true" />
  <path
     style="fill:#000000;stroke:#ffffff;stroke-width:0"
     inkscape:connector-curvature="0"
     d="m 0,0 512,0 0,512 -512,0 z"
     id="path15406" />
  <path
     sodipodi:nodetypes="zzzzzzzzzzzzz"
     inkscape:connector-curvature="0"
     id="path15518"
     style="font-style:normal;font-variant:normal;font-weight:bold;font-stretch:normal;font-size:183.75px;line-height:125%;font-family:sans-serif;-inkscape-font-specification:'sans-serif Bold';letter-spacing:0px;word-spacing:0px;fill:#ffffff;fill-opacity:1;stroke:none;stroke-width:1px;stroke-linecap:butt;stroke-linejoin:miter;stroke-opacity:1"
     d="m 304.3154,322.79779 c -14.4332,14.43323 -69.4978,27.13237 -96.6302,0 -27.1324,-27.13237 -27.1324,-106.46321 0,-133.59558 27.1324,-27.13237 82.197,-14.43323 96.6302,0 14.4332,14.43323 10.394,15.4458 0,25.83984 -10.394,10.39404 -52.2902,-10.06625 -62.3565,0 -10.0663,10.06625 -9.5376,13.5209 0,23.05847 9.5376,9.53757 48.0051,-9.86536 57.8705,0 9.8654,9.86536 9.8654,15.97449 0,25.83985 -9.8654,9.86536 -47.1592,-10.71126 -57.8705,0 -10.7113,10.71126 -11.2399,21.77763 0,33.01757 11.2399,11.23994 51.9625,-10.39404 62.3565,0 10.394,10.39404 14.4332,11.40662 0,25.83985 z" />
  <path
     id="path15586"
     d="m 442.8695,165.0381 a 31.716816,31.069534 0 0 0 -31.7168,-31.0703 31.716816,31.069534 0 0 0 -7.1602,0.8418 c -4.2365,-3.8968 -8.6447,-7.926 -12.8925,-12.1739 -18.3931,-18.3929 -39.6848,-32.2217 -62.3964,-41.4316 -22.7118,-9.21 -46.8405,-13.8106 -70.9668,-13.8105 -24.1264,0 -48.257,4.6005 -70.9688,13.8105 -22.7117,9.2099 -44.0036,23.0388 -62.3965,41.4316 -18.3929,18.393 -32.2217,39.6847 -41.4316,62.3965 -9.2101,22.7118 -13.8106,46.8423 -13.8106,70.9688 0,24.1263 4.6006,48.2551 13.8106,70.9668 9.21,22.7117 23.0387,44.0054 41.4316,62.3984 18.393,18.393 39.6847,32.2198 62.3965,41.4297 22.7117,9.21 46.8424,13.8105 70.9688,13.8105 24.1264,-1e-4 48.255,-4.6005 70.9668,-13.8105 22.7116,-9.2099 44.0034,-23.0367 62.3964,-41.4297 4.6759,-4.6759 9.9534,-10.0337 15.1484,-15.668 a 31.716816,31.069534 0 0 0 4.9043,0.4121 31.716816,31.069534 0 0 0 31.7168,-31.0703 31.716816,31.069534 0 0 0 -14.4102,-26.0039 c -0.5539,-0.6222 -1.1525,-0.9768 -1.8554,-1.1133 a 31.716816,31.069534 0 0 0 -15.4512,-3.9531 31.716816,31.069534 0 0 0 -31.7168,31.0703 31.716816,31.069534 0 0 0 6.9844,19.4375 c -2.8134,4.7797 -5.9092,9.1943 -9.461,12.7461 -16.4822,16.4823 -35.4824,28.8116 -55.7714,37.0391 -20.2892,8.2276 -41.8699,12.3436 -63.4531,12.3437 -21.5824,-2e-4 -43.1626,-4.1163 -63.4512,-12.3437 -20.2892,-8.2275 -39.2892,-20.5568 -55.7714,-37.0391 C 122.0299,358.7414 109.7027,339.7414 101.4751,319.4521 93.2474,299.163 89.1293,277.584 89.1293,256.001 c 0,-21.5832 4.1179,-43.1639 12.3458,-63.4532 8.2274,-20.2891 20.5548,-39.2872 37.0371,-55.7695 16.4821,-16.4821 35.4824,-28.8116 55.7714,-37.039 20.2893,-8.2277 41.8701,-12.3459 63.4532,-12.3457 21.583,0 43.1619,4.118 63.4511,12.3457 20.289,8.2275 39.2891,20.5569 55.7714,37.039 3.0182,3.0182 6.0085,6.2816 8.8789,9.6035 a 31.716816,31.069534 0 0 0 -6.4023,18.6563 31.716816,31.069534 0 0 0 31.7168,31.0683 31.716816,31.069534 0 0 0 31.7168,-31.0683 z"
     style="color:#000000;font-style:normal;font-variant:normal;font-weight:normal;font-stretch:normal;font-size:medium;line-height:normal;font-family:sans-serif;text-indent:0;text-align:start;text-decoration:none;text-decoration-line:none;text-decoration-style:solid;text-decoration-color:#000000;letter-spacing:normal;word-spacing:normal;text-transform:none;direction:ltr;block-progression:tb;writing-mode:lr-tb;baseline-shift:baseline;text-anchor:start;white-space:normal;clip-rule:nonzero;display:inline;overflow:visible;visibility:visible;opacity:1;isolation:auto;mix-blend-mode:normal;color-interpolation:sRGB;color-interpolation-filters:linearRGB;solid-color:#000000;solid-opacity:1;fill:#ffffff;fill-opacity:1;fill-rule:nonzero;stroke:none;stroke-width:20;stroke-linecap:butt;stroke-linejoin:miter;stroke-miterlimit:4;stroke-dasharray:none;stroke-dashoffset:174;stroke-opacity:1;color-rendering:auto;image-rendering:auto;shape-rendering:auto;text-rendering:auto;enable-background:accumulate"
     inkscape:connector-curvature="0" />
  <g
     style="font-style:normal;font-weight:normal;font-size:20px;line-height:125%;font-family:sans-serif;letter-spacing:0px;word-spacing:0px;fill:#000000;fill-opacity:1;stroke:none;stroke-width:1px;stroke-linecap:butt;stroke-linejoin:miter;stroke-opacity:1"
     id="text15804"
     transform="translate(5811.9242,10.27728)" />
  <circle
     style="fill:none;stroke:#ffffff;stroke-width:14.53779507;stroke-linecap:butt;stroke-miterlimit:4;stroke-dasharray:none;stroke-dashoffset:134"
     id="path5043"
     cx="5996"
     cy="-1474.5774"
     r="0" />
</svg>
