<?xml version="1.0" encoding="UTF-8" standalone="no"?>
<svg
   xmlns:dc="http://purl.org/dc/elements/1.1/"
   xmlns:cc="http://creativecommons.org/ns#"
   xmlns:rdf="http://www.w3.org/1999/02/22-rdf-syntax-ns#"
   xmlns:svg="http://www.w3.org/2000/svg"
   xmlns="http://www.w3.org/2000/svg"
   xmlns:sodipodi="http://sodipodi.sourceforge.net/DTD/sodipodi-0.dtd"
   xmlns:inkscape="http://www.inkscape.org/namespaces/inkscape"
   viewBox="0 0 512 512"
   id="svg2"
   version="1.1"
   inkscape:version="0.91 r13725"
   sodipodi:docname="directions-tactical-south-east.svg">
  <metadata
     id="metadata12">
    <rdf:RDF>
      <cc:Work
         rdf:about="">
        <dc:format>image/svg+xml</dc:format>
        <dc:type
           rdf:resource="http://purl.org/dc/dcmitype/StillImage" />
        <dc:title />
      </cc:Work>
    </rdf:RDF>
  </metadata>
  <defs
     id="defs10">
    <marker
       inkscape:isstock="true"
       style="overflow:visible;"
       id="marker6040"
       refX="0.0"
       refY="0.0"
       orient="auto"
       inkscape:stockid="Arrow2Send">
      <path
         transform="scale(0.3) rotate(180) translate(-2.3,0)"
         d="M 8.7185878,4.0337352 L -2.2072895,0.016013256 L 8.7185884,-4.0017078 C 6.9730900,-1.6296469 6.9831476,1.6157441 8.7185878,4.0337352 z "
         style="fill-rule:evenodd;stroke-width:0.625;stroke-linejoin:round;stroke:#ffffff;stroke-opacity:1;fill:#ffffff;fill-opacity:1"
         id="path6042" />
    </marker>
    <marker
       inkscape:isstock="true"
       style="overflow:visible;"
       id="marker5994"
       refX="0.0"
       refY="0.0"
       orient="auto"
       inkscape:stockid="Arrow2Send">
      <path
         transform="scale(0.3) rotate(180) translate(-2.3,0)"
         d="M 8.7185878,4.0337352 L -2.2072895,0.016013256 L 8.7185884,-4.0017078 C 6.9730900,-1.6296469 6.9831476,1.6157441 8.7185878,4.0337352 z "
         style="fill-rule:evenodd;stroke-width:0.625;stroke-linejoin:round;stroke:#ffffff;stroke-opacity:1;fill:#ffffff;fill-opacity:1"
         id="path5996" />
    </marker>
    <marker
       inkscape:isstock="true"
       style="overflow:visible;"
       id="marker5954"
       refX="0.0"
       refY="0.0"
       orient="auto"
       inkscape:stockid="Arrow2Send">
      <path
         transform="scale(0.3) rotate(180) translate(-2.3,0)"
         d="M 8.7185878,4.0337352 L -2.2072895,0.016013256 L 8.7185884,-4.0017078 C 6.9730900,-1.6296469 6.9831476,1.6157441 8.7185878,4.0337352 z "
         style="fill-rule:evenodd;stroke-width:0.625;stroke-linejoin:round;stroke:#ffffff;stroke-opacity:1;fill:#ffffff;fill-opacity:1"
         id="path5956" />
    </marker>
    <marker
       inkscape:isstock="true"
       style="overflow:visible;"
       id="marker5920"
       refX="0.0"
       refY="0.0"
       orient="auto"
       inkscape:stockid="Arrow2Send">
      <path
         transform="scale(0.3) rotate(180) translate(-2.3,0)"
         d="M 8.7185878,4.0337352 L -2.2072895,0.016013256 L 8.7185884,-4.0017078 C 6.9730900,-1.6296469 6.9831476,1.6157441 8.7185878,4.0337352 z "
         style="fill-rule:evenodd;stroke-width:0.625;stroke-linejoin:round;stroke:#ffffff;stroke-opacity:1;fill:#ffffff;fill-opacity:1"
         id="path5922" />
    </marker>
    <marker
       inkscape:isstock="true"
       style="overflow:visible;"
       id="marker5892"
       refX="0.0"
       refY="0.0"
       orient="auto"
       inkscape:stockid="Arrow2Send">
      <path
         transform="scale(0.3) rotate(180) translate(-2.3,0)"
         d="M 8.7185878,4.0337352 L -2.2072895,0.016013256 L 8.7185884,-4.0017078 C 6.9730900,-1.6296469 6.9831476,1.6157441 8.7185878,4.0337352 z "
         style="fill-rule:evenodd;stroke-width:0.625;stroke-linejoin:round;stroke:#ffffff;stroke-opacity:1;fill:#ffffff;fill-opacity:1"
         id="path5894" />
    </marker>
    <marker
       inkscape:isstock="true"
       style="overflow:visible;"
       id="marker5870"
       refX="0.0"
       refY="0.0"
       orient="auto"
       inkscape:stockid="Arrow2Send">
      <path
         transform="scale(0.3) rotate(180) translate(-2.3,0)"
         d="M 8.7185878,4.0337352 L -2.2072895,0.016013256 L 8.7185884,-4.0017078 C 6.9730900,-1.6296469 6.9831476,1.6157441 8.7185878,4.0337352 z "
         style="fill-rule:evenodd;stroke-width:0.625;stroke-linejoin:round;stroke:#ffffff;stroke-opacity:1;fill:#ffffff;fill-opacity:1"
         id="path5872" />
    </marker>
  </defs>
  <sodipodi:namedview
     pagecolor="#ffffff"
     bordercolor="#666666"
     borderopacity="1"
     objecttolerance="10"
     gridtolerance="10"
     guidetolerance="10"
     inkscape:pageopacity="0"
     inkscape:pageshadow="2"
     inkscape:window-width="1829"
     inkscape:window-height="966"
     id="namedview8"
     showgrid="false"
     inkscape:zoom="1.5449218"
     inkscape:cx="256"
     inkscape:cy="256"
     inkscape:window-x="-8"
     inkscape:window-y="-8"
     inkscape:window-maximized="1"
     inkscape:current-layer="svg2"
     showguides="false"
     inkscape:guide-bbox="true"
     inkscape:snap-center="true"
     inkscape:snap-global="true"
     inkscape:snap-bbox="true" />
  <path
     style="fill:#000000;stroke:#ffffff;stroke-width:0"
     inkscape:connector-curvature="0"
     d="m 0,0 512,0 0,512 -512,0 z"
     id="path5552" />
  <path
     inkscape:connector-curvature="0"
     id="path4582"
     style="font-style:normal;font-variant:normal;font-weight:bold;font-stretch:normal;font-size:122.5px;line-height:125%;font-family:sans-serif;-inkscape-font-specification:'sans-serif Bold';letter-spacing:0px;word-spacing:0px;fill:#ffffff;fill-opacity:1;stroke:none;stroke-width:1px;stroke-linecap:butt;stroke-linejoin:miter;stroke-opacity:1"
     d="m 253.9662,272.5385 q 0,13.1592 -11.1853,21.4136 -11.1255,8.1946 -30.2661,8.1946 -11.0657,0 -19.3201,-1.9141 -8.1946,-1.9739 -15.3723,-4.9646 l 0,-21.3538 2.5122,0 q 7.1179,5.6824 15.9106,8.733 8.8526,3.0505 16.9873,3.0505 2.0936,0 5.503,-0.3589 3.4094,-0.3589 5.5627,-1.1963 2.6319,-1.0766 4.3067,-2.6916 1.7346,-1.615 1.7346,-4.7852 0,-2.9309 -2.5122,-5.0244 -2.4524,-2.1533 -7.2376,-3.2898 -5.0244,-1.1963 -10.6469,-2.2131 -5.5628,-1.0767 -10.4676,-2.6917 -11.2451,-3.6487 -16.2097,-9.8694 -4.9048,-6.2805 -4.9048,-15.5517 0,-12.4414 11.1255,-20.2771 11.1853,-7.8955 28.7109,-7.8955 8.7928,0 17.3462,1.7346 8.6133,1.6748 14.8938,4.2468 l 0,20.5164 -2.4524,0 q -5.3833,-4.3067 -13.2189,-7.1778 -7.7759,-2.9309 -15.9107,-2.9309 -2.8711,0 -5.7422,0.4187 -2.8113,0.3589 -5.4431,1.4356 -2.3328,0.8972 -4.0076,2.7514 -1.6748,1.7945 -1.6748,4.1272 0,3.5291 2.6917,5.4432 2.6916,1.8542 10.1684,3.4094 4.9048,1.0168 9.3909,1.9739 4.5459,0.957 9.7498,2.6318 10.2282,3.3496 15.0732,9.1516 4.9048,5.7422 4.9048,14.9536 z" />
  <path
     inkscape:connector-curvature="0"
     id="path4584"
     style="font-style:normal;font-variant:normal;font-weight:bold;font-stretch:normal;font-size:122.5px;line-height:125%;font-family:sans-serif;-inkscape-font-specification:'sans-serif Bold';letter-spacing:0px;word-spacing:0px;fill:#ffffff;fill-opacity:1;stroke:none;stroke-width:1px;stroke-linecap:butt;stroke-linejoin:miter;stroke-opacity:1"
     d="m 334.1774,300.5317 -64.4202,0 0,-89.0637 64.4202,0 0,17.2265 -41.5711,0 0,15.3723 38.5804,0 0,17.2266 -38.5804,0 0,22.0117 41.5711,0 0,17.2266 z" />
  <path
     style="fill:none;stroke:#ffffff;stroke-width:20;stroke-miterlimit:4;stroke-dasharray:160, 80;stroke-dashoffset:186"
     d="m 325.5218,420.5709 c -21.3682,9.038 -44.8614,14.0358 -69.5218,14.0358 -24.6605,0 -48.1536,-4.9978 -69.5218,-14.0358 C 165.11,411.5329 145.8667,398.4547 129.706,382.294 113.5453,366.1333 100.4671,346.89 91.4291,325.5218 82.3911,304.1536 77.3933,280.6604 77.3933,256 c 0,-24.6605 4.9978,-48.1536 14.0358,-69.5218 9.038,-21.3683 22.1161,-40.6116 38.2769,-56.7723 C 145.8667,113.5452 165.11,100.467 186.4782,91.429 207.8464,82.391 231.3395,77.3932 256,77.3932 c 24.6605,0 48.1536,4.9978 69.5218,14.0358 21.3682,9.038 40.6115,22.1161 56.7722,38.2769 16.1607,16.1608 29.2389,35.4041 38.2769,56.7723 9.038,21.3682 14.0358,44.8613 14.0358,69.5218 0,24.6604 -4.9978,48.1536 -14.0358,69.5218"
     id="path5582"
     inkscape:connector-curvature="0"
     sodipodi:nodetypes="csssssssssssssc"
     inkscape:transform-center-x="-8.5664061e-005"
     inkscape:transform-center-y="1.0742187e-005" />
  <path
     style="fill:#ffffff;stroke:none;stroke-width:20;stroke-miterlimit:4;stroke-dasharray:none"
     inkscape:transform-center-x="-105.23139"
     inkscape:transform-center-y="-107.44635"
     d="m 387.0402,307.836 14.9007,55.6103 14.9007,55.6103 -55.6103,-14.9007 -55.6102,-14.9008 c 0,0 42.4658,-11.8135 56.0357,-25.3833 13.5699,-13.5699 25.3834,-56.0358 25.3834,-56.0358 z"
     id="path5584"
     inkscape:connector-curvature="0"
     sodipodi:nodetypes="ccccczc" />
  <circle
     style="fill:none;stroke:#ffffff;stroke-width:14.53779507;stroke-linecap:butt;stroke-miterlimit:4;stroke-dasharray:none;stroke-dashoffset:134"
     id="path5043"
     cx="4836"
     cy="-3812.5032"
     r="0" />
</svg>
