<?xml version="1.0" encoding="UTF-8" standalone="no"?>
<svg
   xmlns:dc="http://purl.org/dc/elements/1.1/"
   xmlns:cc="http://creativecommons.org/ns#"
   xmlns:rdf="http://www.w3.org/1999/02/22-rdf-syntax-ns#"
   xmlns:svg="http://www.w3.org/2000/svg"
   xmlns="http://www.w3.org/2000/svg"
   xmlns:sodipodi="http://sodipodi.sourceforge.net/DTD/sodipodi-0.dtd"
   xmlns:inkscape="http://www.inkscape.org/namespaces/inkscape"
   viewBox="0 0 512 512"
   id="svg2"
   version="1.1"
   inkscape:version="0.91 r13725"
   sodipodi:docname="directions-dotted-north-west.svg">
  <metadata
     id="metadata12">
    <rdf:RDF>
      <cc:Work
         rdf:about="">
        <dc:format>image/svg+xml</dc:format>
        <dc:type
           rdf:resource="http://purl.org/dc/dcmitype/StillImage" />
        <dc:title />
      </cc:Work>
    </rdf:RDF>
  </metadata>
  <defs
     id="defs10">
    <marker
       inkscape:isstock="true"
       style="overflow:visible;"
       id="marker6040"
       refX="0.0"
       refY="0.0"
       orient="auto"
       inkscape:stockid="Arrow2Send">
      <path
         transform="scale(0.3) rotate(180) translate(-2.3,0)"
         d="M 8.7185878,4.0337352 L -2.2072895,0.016013256 L 8.7185884,-4.0017078 C 6.9730900,-1.6296469 6.9831476,1.6157441 8.7185878,4.0337352 z "
         style="fill-rule:evenodd;stroke-width:0.625;stroke-linejoin:round;stroke:#ffffff;stroke-opacity:1;fill:#ffffff;fill-opacity:1"
         id="path6042" />
    </marker>
    <marker
       inkscape:isstock="true"
       style="overflow:visible;"
       id="marker5994"
       refX="0.0"
       refY="0.0"
       orient="auto"
       inkscape:stockid="Arrow2Send">
      <path
         transform="scale(0.3) rotate(180) translate(-2.3,0)"
         d="M 8.7185878,4.0337352 L -2.2072895,0.016013256 L 8.7185884,-4.0017078 C 6.9730900,-1.6296469 6.9831476,1.6157441 8.7185878,4.0337352 z "
         style="fill-rule:evenodd;stroke-width:0.625;stroke-linejoin:round;stroke:#ffffff;stroke-opacity:1;fill:#ffffff;fill-opacity:1"
         id="path5996" />
    </marker>
    <marker
       inkscape:isstock="true"
       style="overflow:visible;"
       id="marker5954"
       refX="0.0"
       refY="0.0"
       orient="auto"
       inkscape:stockid="Arrow2Send">
      <path
         transform="scale(0.3) rotate(180) translate(-2.3,0)"
         d="M 8.7185878,4.0337352 L -2.2072895,0.016013256 L 8.7185884,-4.0017078 C 6.9730900,-1.6296469 6.9831476,1.6157441 8.7185878,4.0337352 z "
         style="fill-rule:evenodd;stroke-width:0.625;stroke-linejoin:round;stroke:#ffffff;stroke-opacity:1;fill:#ffffff;fill-opacity:1"
         id="path5956" />
    </marker>
    <marker
       inkscape:isstock="true"
       style="overflow:visible;"
       id="marker5920"
       refX="0.0"
       refY="0.0"
       orient="auto"
       inkscape:stockid="Arrow2Send">
      <path
         transform="scale(0.3) rotate(180) translate(-2.3,0)"
         d="M 8.7185878,4.0337352 L -2.2072895,0.016013256 L 8.7185884,-4.0017078 C 6.9730900,-1.6296469 6.9831476,1.6157441 8.7185878,4.0337352 z "
         style="fill-rule:evenodd;stroke-width:0.625;stroke-linejoin:round;stroke:#ffffff;stroke-opacity:1;fill:#ffffff;fill-opacity:1"
         id="path5922" />
    </marker>
    <marker
       inkscape:isstock="true"
       style="overflow:visible;"
       id="marker5892"
       refX="0.0"
       refY="0.0"
       orient="auto"
       inkscape:stockid="Arrow2Send">
      <path
         transform="scale(0.3) rotate(180) translate(-2.3,0)"
         d="M 8.7185878,4.0337352 L -2.2072895,0.016013256 L 8.7185884,-4.0017078 C 6.9730900,-1.6296469 6.9831476,1.6157441 8.7185878,4.0337352 z "
         style="fill-rule:evenodd;stroke-width:0.625;stroke-linejoin:round;stroke:#ffffff;stroke-opacity:1;fill:#ffffff;fill-opacity:1"
         id="path5894" />
    </marker>
    <marker
       inkscape:isstock="true"
       style="overflow:visible;"
       id="marker5870"
       refX="0.0"
       refY="0.0"
       orient="auto"
       inkscape:stockid="Arrow2Send">
      <path
         transform="scale(0.3) rotate(180) translate(-2.3,0)"
         d="M 8.7185878,4.0337352 L -2.2072895,0.016013256 L 8.7185884,-4.0017078 C 6.9730900,-1.6296469 6.9831476,1.6157441 8.7185878,4.0337352 z "
         style="fill-rule:evenodd;stroke-width:0.625;stroke-linejoin:round;stroke:#ffffff;stroke-opacity:1;fill:#ffffff;fill-opacity:1"
         id="path5872" />
    </marker>
  </defs>
  <sodipodi:namedview
     pagecolor="#ffffff"
     bordercolor="#666666"
     borderopacity="1"
     objecttolerance="10"
     gridtolerance="10"
     guidetolerance="10"
     inkscape:pageopacity="0"
     inkscape:pageshadow="2"
     inkscape:window-width="1829"
     inkscape:window-height="966"
     id="namedview8"
     showgrid="false"
     inkscape:zoom="1.5449218"
     inkscape:cx="256"
     inkscape:cy="256"
     inkscape:window-x="-8"
     inkscape:window-y="-8"
     inkscape:window-maximized="1"
     inkscape:current-layer="svg2"
     showguides="false"
     inkscape:guide-bbox="true"
     inkscape:snap-center="true"
     inkscape:snap-global="true"
     inkscape:snap-bbox="true" />
  <path
     style="fill:#000000;stroke:#ffffff;stroke-width:0"
     inkscape:connector-curvature="0"
     d="m 0,0 512,0 0,512 -512,0 z"
     id="path4362" />
  <g
     style="font-style:normal;font-weight:normal;font-size:122.5px;line-height:125%;font-family:sans-serif;letter-spacing:0px;word-spacing:0px;fill:#000000;fill-opacity:1;stroke:none;stroke-width:1px;stroke-linecap:butt;stroke-linejoin:miter;stroke-opacity:1"
     id="text4364"
     transform="translate(2931.9242,-1131.2452)">
    <path
       d="m -2708.3137,1431.7771 -22.1314,0 -37.8027,-61.1304 0,61.1304 -21.0547,0 0,-89.0637 27.4548,0 32.4793,51.0217 0,-51.0217 21.0547,0 0,89.0637 z"
       style="font-style:normal;font-variant:normal;font-weight:bold;font-stretch:normal;font-size:122.5px;font-family:sans-serif;-inkscape-font-specification:'sans-serif Bold';fill:#ffffff"
       id="path4260"
       inkscape:connector-curvature="0" />
    <path
       d="m -2562.5459,1342.7134 -23.9856,89.0637 -25.4211,0 -15.9705,-58.02 -15.5518,58.02 -25.4211,0 -23.9856,-89.0637 23.9856,0 13.6975,61.3098 16.3892,-61.3098 22.9089,0 15.6116,61.3098 14.3555,-61.3098 23.3874,0 z"
       style="font-style:normal;font-variant:normal;font-weight:bold;font-stretch:normal;font-size:122.5px;font-family:sans-serif;-inkscape-font-specification:'sans-serif Bold';fill:#ffffff"
       id="path4262"
       inkscape:connector-curvature="0" />
  </g>
  <path
     style="color:#000000;font-style:normal;font-variant:normal;font-weight:normal;font-stretch:normal;font-size:medium;line-height:normal;font-family:sans-serif;text-indent:0;text-align:start;text-decoration:none;text-decoration-line:none;text-decoration-style:solid;text-decoration-color:#000000;letter-spacing:normal;word-spacing:normal;text-transform:none;direction:ltr;block-progression:tb;writing-mode:lr-tb;baseline-shift:baseline;text-anchor:start;white-space:normal;clip-rule:nonzero;display:inline;overflow:visible;visibility:visible;opacity:1;isolation:auto;mix-blend-mode:normal;color-interpolation:sRGB;color-interpolation-filters:linearRGB;solid-color:#000000;solid-opacity:1;fill:#ffffff;fill-opacity:1;fill-rule:nonzero;stroke:none;stroke-width:20;stroke-linecap:butt;stroke-linejoin:miter;stroke-miterlimit:4;stroke-dasharray:20, 40;stroke-dashoffset:0;stroke-opacity:1;color-rendering:auto;image-rendering:auto;shape-rendering:auto;text-rendering:auto;enable-background:accumulate"
     d="m 255.87305,67.394531 -4.60938,0.05859 -0.12695,0 -0.12695,0.0059 -4.58008,0.173828 -0.12696,0.0059 -0.12695,0.0078 -2.19922,0.138672 1.26367,19.960938 2.04297,-0.13086 4.38282,-0.166015 4.33398,-0.05469 4.33594,0.05469 3.88086,0.146484 0.75976,-19.986328 -3.98633,-0.150391 -0.12695,-0.0059 -0.12695,0 -4.60938,-0.05859 -0.12695,-0.002 z m 45.52343,26.1875 0.79297,0.214844 3.95703,1.175781 3.95899,1.28711 3.92187,1.382812 3.78711,1.439453 1.33399,0.544922 7.56445,-18.513672 -1.43945,-0.58789 -0.11524,-0.04687 -0.11328,-0.04297 -4.08008,-1.550781 -0.11523,-0.04492 -0.11719,-0.04102 -4.12695,-1.453125 -0.11524,-0.04102 -0.11718,-0.03906 -4.17383,-1.353516 -0.11719,-0.03906 -0.11914,-0.03516 -4.2168,-1.253907 -0.11914,-0.03516 -0.11914,-0.0332 -0.88672,-0.240234 z m -101.35937,-17.74414 -0.11914,0.03516 -0.11914,0.03906 -4.17188,1.353516 -0.11718,0.03906 -0.11719,0.04102 -4.125,1.453125 -0.11719,0.04102 -0.11523,0.04492 -4.08008,1.550781 -0.11328,0.04297 -0.11524,0.04687 -4.03125,1.646484 7.56446,18.513675 3.92578,-1.603519 3.8125,-1.449219 3.89648,-1.373046 3.95899,-1.28711 2.30078,-0.683594 -5.70313,-19.169921 z m 152.28516,41.773439 1.32031,0.91797 3.2168,2.34375 3.21874,2.46875 3.18555,2.5664 3.0918,2.61328 0.76367,0.67774 13.27344,-14.95899 -0.8711,-0.77343 -0.0898,-0.0781 -0.0898,-0.0781 -3.27539,-2.76758 -0.0899,-0.0781 -0.0937,-0.0742 -3.34179,-2.6914 -0.0918,-0.0742 -0.0957,-0.0742 -3.40625,-2.61133 -0.0957,-0.0723 -0.0957,-0.0703 -3.4707,-2.53126 -0.0957,-0.0703 -0.0996,-0.0684 -1.37304,-0.95117 z m 40.24218,39.50195 0.94141,1.29492 2.30664,3.32422 2.25977,3.4336 2.14453,3.4375 2.03906,3.44726 0.47852,0.85742 17.45703,-9.75976 -0.51953,-0.93164 -0.0586,-0.10547 -0.0625,-0.10352 -2.19336,-3.71093 -0.0625,-0.10352 -0.0625,-0.10352 -2.28125,-3.65234 -0.0625,-0.10156 -0.0664,-0.10156 -2.36524,-3.59376 -0.0664,-0.0996 -0.0684,-0.0996 -2.44922,-3.53125 -0.0684,-0.0996 -0.0703,-0.0957 -1.01172,-1.38672 z m -313.681638,33.92188 -0.04297,0.11523 -0.04102,0.11719 -1.453125,4.125 -0.04102,0.11719 -0.03906,0.11718 -1.353516,4.17383 -0.03906,0.11719 -0.03516,0.11914 -1.253907,4.2168 -0.03516,0.11914 -0.0332,0.11914 -0.699219,2.58789 19.304688,5.22461 0.675781,-2.49414 1.175781,-3.95703 1.28711,-3.96094 1.347656,-3.82617 1.449219,-3.81055 -18.695313,-7.10742 z m 338.660158,16.55664 0.66015,2.21875 1.10743,4.08984 0.97461,4.00195 0.88867,4.07618 0.7832,4.08398 19.64258,-3.76367 -0.80078,-4.17578 -0.0234,-0.12305 -0.0254,-0.12305 -0.94531,-4.33984 -0.0274,-0.12305 -0.0293,-0.12109 -1.04883,-4.30078 -0.0293,-0.1211 -0.0332,-0.11914 -1.15234,-4.25976 -0.0332,-0.11914 -0.0351,-0.11914 -0.70313,-2.36524 z m -350.083986,43.41797 -0.0059,0.12695 0,0.12695 -0.05859,4.60938 -0.002,0.12695 0.002,0.12695 0.05859,4.60938 0,0.12695 0.0059,0.12695 0.173828,4.58008 0.0039,0.12696 0.0098,0.12695 0.25,3.95703 19.958985,-1.26367 -0.240235,-3.79688 -0.164062,-4.3125 -0.05664,-4.4082 0.05664,-4.4082 0.07813,-2.04883 -19.986328,-0.75977 z m 356.925786,13.70898 -0.27149,4.2793 -0.37695,4.24609 -0.48242,4.2207 -0.59766,4.25977 -0.0898,0.54101 19.73242,3.26954 0.11523,-0.70118 0.0215,-0.12304 0.0176,-0.125 0.6211,-4.45313 0.0176,-0.12304 0.0156,-0.12696 0.51172,-4.48633 0.0156,-0.125 0.01,-0.125 0.40235,-4.51953 0.0117,-0.12695 0.008,-0.125 0.28711,-4.55078 0.008,-0.12695 0.006,-0.12696 0.0449,-1.17969 -19.98633,-0.75976 z m -348.763676,46.51758 0.216797,0.72656 0.03516,0.11914 0.03906,0.11719 1.353516,4.17383 0.03906,0.11718 0.04102,0.11719 1.453125,4.125 0.04102,0.11719 0.04297,0.11523 1.552735,4.08008 0.04297,0.11328 0.04687,0.11524 1.646484,4.03125 0.04687,0.11328 0.04883,0.11133 0.705078,1.61328 18.324224,-8.01563 -0.66016,-1.50781 -1.554689,-3.80469 -1.474609,-3.88086 -1.347656,-3.82617 -1.28711,-3.96484 -0.18164,-0.60742 z m 335.787106,10.27734 -0.0195,0.0449 -1.6582,3.79297 -1.73242,3.71289 -1.83789,3.69727 -1.61719,3.0664 17.68945,9.33399 1.67969,-3.18555 0.0566,-0.10742 0.0527,-0.10742 1.92774,-3.87891 0.0547,-0.10742 0.0508,-0.11133 1.83593,-3.92968 0.0508,-0.11133 0.0488,-0.11133 1.74219,-3.98242 0.0488,-0.11133 0.0469,-0.11328 1.28126,-3.13477 -18.51563,-7.56445 z m -307.43945,46.10742 0.82813,1.13477 0.0703,0.0977 0.0723,0.0937 2.61133,3.40625 0.0742,0.0957 0.0742,0.0918 2.6914,3.34179 0.0742,0.0937 0.0781,0.0899 2.76758,3.27539 0.0781,0.0918 0.0781,0.0879 2.8457,3.20704 0.0781,0.0898 0.082,0.0859 0.98046,1.05273 14.63868,-13.62695 -0.89258,-0.95703 -2.67969,-3.02344 -2.61133,-3.08594 -2.5664,-3.18555 -2.46875,-3.2207 -0.7461,-1.02148 z m 276.83008,1.75196 -2.75391,2.95898 -2.82226,2.89063 -2.89063,2.82226 -2.43164,2.26367 13.62695,14.63868 2.51368,-2.33985 0.0879,-0.082 0.0859,-0.082 3.06446,-2.99414 0.0859,-0.084 0.084,-0.084 2.99414,-3.06641 0.082,-0.0859 0.082,-0.0879 2.91992,-3.13672 0.082,-0.0859 0.0781,-0.0898 2.46289,-2.7754 -14.96094,-13.27343 z m -231.55078,42.12109 1.19336,0.82813 0.0996,0.0684 0.0996,0.0664 3.59376,2.36524 0.10156,0.0664 0.10156,0.0625 3.65234,2.28125 0.10352,0.0645 0.10352,0.0605 3.71093,2.19336 0.10352,0.0625 0.10547,0.0586 3.76953,2.10742 0.10547,0.0586 0.10742,0.0566 1.1582,0.61133 9.33203,-17.68945 -1.03711,-0.54688 -3.59765,-2.01172 -3.45117,-2.04101 -3.4375,-2.14453 -3.43164,-2.25782 -1.0918,-0.75781 z m 187.10156,-7.22656 -3.58789,1.89258 -3.69727,1.83789 -3.71484,1.73437 -2.75977,1.20703 8.01563,18.32227 2.90625,-1.27149 0.11133,-0.0488 0.11133,-0.0508 3.92968,-1.83593 0.10938,-0.0508 0.10937,-0.0547 3.87891,-1.92578 0.10742,-0.0547 0.10742,-0.0566 3.82422,-2.01758 0.10742,-0.0566 0.10547,-0.0586 3.34961,-1.87305 -9.75781,-17.45703 z m -129.83594,33.76367 2.23828,0.60547 0.11914,0.0332 0.1211,0.0293 4.30078,1.04883 0.12109,0.0293 0.12305,0.0274 4.33984,0.94531 0.12305,0.0254 0.12305,0.0234 4.3789,0.83984 0.12305,0.0234 0.12305,0.0215 4.29687,0.71094 3.26758,-19.73047 -4.19141,-0.69531 -4.14257,-0.79492 -4.07618,-0.88867 -4.00195,-0.97461 -2.16406,-0.58594 z m 79.35938,-16.0625 -4.13867,0.6875 -4.26954,0.59766 -4.2207,0.48242 -4.25195,0.37695 -1.06055,0.0684 1.26367,19.95898 1.17969,-0.0742 0.125,-0.008 0.12695,-0.0117 4.51953,-0.40235 0.125,-0.01 0.125,-0.0156 4.48633,-0.51172 0.12696,-0.0137 0.12304,-0.0176 4.45313,-0.62305 0.125,-0.0176 0.12304,-0.0215 4.41602,-0.73047 0.125,-0.0215 0.12305,-0.0234 0.77929,-0.15039 -3.76367,-19.64258 z"
     id="circle4399"
     inkscape:connector-curvature="0" />
  <path
     style="fill:#ffffff;stroke:none;stroke-width:20;stroke-miterlimit:4;stroke-dasharray:none"
     inkscape:transform-center-x="105.23141"
     inkscape:transform-center-y="-107.44635"
     d="M 124.9597,204.16397 110.059,148.5537 95.1583,92.943425 l 55.6103,14.900715 55.6102,14.90072 c 0,0 -42.4658,11.8135 -56.0357,25.38337 -13.5699,13.56987 -25.3834,56.03574 -25.3834,56.03574 z"
     id="path4402"
     inkscape:connector-curvature="0"
     sodipodi:nodetypes="ccccczc" />
  <g
     style="font-style:normal;font-weight:normal;font-size:20px;line-height:125%;font-family:sans-serif;letter-spacing:0px;word-spacing:0px;fill:#000000;fill-opacity:1;stroke:none;stroke-width:1px;stroke-linecap:butt;stroke-linejoin:miter;stroke-opacity:1"
     id="text15804"
     transform="translate(2931.9242,-1131.2452)" />
  <circle
     style="fill:none;stroke:#ffffff;stroke-width:14.53779507;stroke-linecap:butt;stroke-miterlimit:4;stroke-dasharray:none;stroke-dashoffset:134"
     id="path5043"
     cx="3116"
     cy="-2616.0999"
     r="0" />
</svg>
