<?xml version="1.0" encoding="UTF-8" standalone="no"?>
<svg
   xmlns:dc="http://purl.org/dc/elements/1.1/"
   xmlns:cc="http://creativecommons.org/ns#"
   xmlns:rdf="http://www.w3.org/1999/02/22-rdf-syntax-ns#"
   xmlns:svg="http://www.w3.org/2000/svg"
   xmlns="http://www.w3.org/2000/svg"
   xmlns:sodipodi="http://sodipodi.sourceforge.net/DTD/sodipodi-0.dtd"
   xmlns:inkscape="http://www.inkscape.org/namespaces/inkscape"
   viewBox="0 0 512 512"
   id="svg2"
   version="1.1"
   inkscape:version="0.91 r13725"
   sodipodi:docname="directions-funky-west.svg">
  <metadata
     id="metadata12">
    <rdf:RDF>
      <cc:Work
         rdf:about="">
        <dc:format>image/svg+xml</dc:format>
        <dc:type
           rdf:resource="http://purl.org/dc/dcmitype/StillImage" />
        <dc:title />
      </cc:Work>
    </rdf:RDF>
  </metadata>
  <defs
     id="defs10">
    <marker
       inkscape:isstock="true"
       style="overflow:visible;"
       id="marker6040"
       refX="0.0"
       refY="0.0"
       orient="auto"
       inkscape:stockid="Arrow2Send">
      <path
         transform="scale(0.3) rotate(180) translate(-2.3,0)"
         d="M 8.7185878,4.0337352 L -2.2072895,0.016013256 L 8.7185884,-4.0017078 C 6.9730900,-1.6296469 6.9831476,1.6157441 8.7185878,4.0337352 z "
         style="fill-rule:evenodd;stroke-width:0.625;stroke-linejoin:round;stroke:#ffffff;stroke-opacity:1;fill:#ffffff;fill-opacity:1"
         id="path6042" />
    </marker>
    <marker
       inkscape:isstock="true"
       style="overflow:visible;"
       id="marker5994"
       refX="0.0"
       refY="0.0"
       orient="auto"
       inkscape:stockid="Arrow2Send">
      <path
         transform="scale(0.3) rotate(180) translate(-2.3,0)"
         d="M 8.7185878,4.0337352 L -2.2072895,0.016013256 L 8.7185884,-4.0017078 C 6.9730900,-1.6296469 6.9831476,1.6157441 8.7185878,4.0337352 z "
         style="fill-rule:evenodd;stroke-width:0.625;stroke-linejoin:round;stroke:#ffffff;stroke-opacity:1;fill:#ffffff;fill-opacity:1"
         id="path5996" />
    </marker>
    <marker
       inkscape:isstock="true"
       style="overflow:visible;"
       id="marker5954"
       refX="0.0"
       refY="0.0"
       orient="auto"
       inkscape:stockid="Arrow2Send">
      <path
         transform="scale(0.3) rotate(180) translate(-2.3,0)"
         d="M 8.7185878,4.0337352 L -2.2072895,0.016013256 L 8.7185884,-4.0017078 C 6.9730900,-1.6296469 6.9831476,1.6157441 8.7185878,4.0337352 z "
         style="fill-rule:evenodd;stroke-width:0.625;stroke-linejoin:round;stroke:#ffffff;stroke-opacity:1;fill:#ffffff;fill-opacity:1"
         id="path5956" />
    </marker>
    <marker
       inkscape:isstock="true"
       style="overflow:visible;"
       id="marker5920"
       refX="0.0"
       refY="0.0"
       orient="auto"
       inkscape:stockid="Arrow2Send">
      <path
         transform="scale(0.3) rotate(180) translate(-2.3,0)"
         d="M 8.7185878,4.0337352 L -2.2072895,0.016013256 L 8.7185884,-4.0017078 C 6.9730900,-1.6296469 6.9831476,1.6157441 8.7185878,4.0337352 z "
         style="fill-rule:evenodd;stroke-width:0.625;stroke-linejoin:round;stroke:#ffffff;stroke-opacity:1;fill:#ffffff;fill-opacity:1"
         id="path5922" />
    </marker>
    <marker
       inkscape:isstock="true"
       style="overflow:visible;"
       id="marker5892"
       refX="0.0"
       refY="0.0"
       orient="auto"
       inkscape:stockid="Arrow2Send">
      <path
         transform="scale(0.3) rotate(180) translate(-2.3,0)"
         d="M 8.7185878,4.0337352 L -2.2072895,0.016013256 L 8.7185884,-4.0017078 C 6.9730900,-1.6296469 6.9831476,1.6157441 8.7185878,4.0337352 z "
         style="fill-rule:evenodd;stroke-width:0.625;stroke-linejoin:round;stroke:#ffffff;stroke-opacity:1;fill:#ffffff;fill-opacity:1"
         id="path5894" />
    </marker>
    <marker
       inkscape:isstock="true"
       style="overflow:visible;"
       id="marker5870"
       refX="0.0"
       refY="0.0"
       orient="auto"
       inkscape:stockid="Arrow2Send">
      <path
         transform="scale(0.3) rotate(180) translate(-2.3,0)"
         d="M 8.7185878,4.0337352 L -2.2072895,0.016013256 L 8.7185884,-4.0017078 C 6.9730900,-1.6296469 6.9831476,1.6157441 8.7185878,4.0337352 z "
         style="fill-rule:evenodd;stroke-width:0.625;stroke-linejoin:round;stroke:#ffffff;stroke-opacity:1;fill:#ffffff;fill-opacity:1"
         id="path5872" />
    </marker>
  </defs>
  <sodipodi:namedview
     pagecolor="#ffffff"
     bordercolor="#666666"
     borderopacity="1"
     objecttolerance="10"
     gridtolerance="10"
     guidetolerance="10"
     inkscape:pageopacity="0"
     inkscape:pageshadow="2"
     inkscape:window-width="1829"
     inkscape:window-height="966"
     id="namedview8"
     showgrid="false"
     inkscape:zoom="1.5449218"
     inkscape:cx="256"
     inkscape:cy="256"
     inkscape:window-x="-8"
     inkscape:window-y="-8"
     inkscape:window-maximized="1"
     inkscape:current-layer="svg2"
     showguides="false"
     inkscape:guide-bbox="true"
     inkscape:snap-center="true"
     inkscape:snap-global="true"
     inkscape:snap-bbox="true" />
  <path
     style="fill:#000000;stroke:#ffffff;stroke-width:0"
     inkscape:connector-curvature="0"
     d="m 0,-1e-5 512,0 0,512.00002 -512,0 z"
     id="path15418" />
  <path
     sodipodi:nodetypes="ssssssssssssss"
     inkscape:connector-curvature="0"
     id="path15497"
     style="font-style:normal;font-variant:normal;font-weight:bold;font-stretch:normal;font-size:183.75px;line-height:125%;font-family:sans-serif;-inkscape-font-specification:'sans-serif, Bold';text-align:start;letter-spacing:0px;word-spacing:0px;writing-mode:lr-tb;text-anchor:start;fill:#ffffff;fill-opacity:1;stroke:none;stroke-width:1px;stroke-linecap:butt;stroke-linejoin:miter;stroke-opacity:1"
     d="m 353.7517,189.20222 c 28.052,36.60604 0.6276,105.54363 -35.9784,133.59559 -10.0889,7.73131 -28.0215,7.70334 -38.1317,0 -23.9334,-18.23564 6.1331,-87.13114 -23.9557,-87.03003 -30.0339,0.10093 0.5008,68.74747 -23.3276,87.03003 -10.0843,7.73727 -28.0428,7.73131 -38.1317,0 -36.606,-28.05196 -64.0304,-96.98955 -35.9784,-133.59559 7.2947,-9.51915 26.6193,-7.49891 35.9784,0 24.5128,19.64059 -10.8577,91.31448 20.5462,91.96473 31.7245,0.65688 -0.5846,-72.64053 24.5838,-91.96473 9.0854,-6.97571 25.3196,-7.02954 34.3634,0 24.9757,19.41305 -8.2143,92.27049 23.4173,91.96473 31.4825,-0.30432 -3.1369,-72.40381 21.5332,-91.96473 9.1629,-7.26528 27.9684,-9.28177 35.0812,0 z" />
  <path
     id="path15582"
     d="m 69.1293,346.96192 a 31.716816,31.069534 0 0 0 31.7168,31.0703 31.716816,31.069534 0 0 0 7.1602,-0.8418 c 4.2365,3.8968 8.6447,7.926 12.8925,12.1739 18.3931,18.3929 39.6848,32.2217 62.3964,41.4316 22.7118,9.21 46.8405,13.8106 70.9668,13.8105 24.1264,0 48.257,-4.6005 70.9688,-13.8105 22.7117,-9.2099 44.0036,-23.0388 62.3965,-41.4316 18.3929,-18.393 32.2217,-39.6847 41.4316,-62.3965 9.2101,-22.7118 13.8106,-46.8423 13.8106,-70.9688 0,-24.1263 -4.6006,-48.2551 -13.8106,-70.9668 -9.21,-22.71173 -23.0387,-44.00543 -41.4316,-62.39843 -18.393,-18.393 -39.6847,-32.2198 -62.3965,-41.4297 -22.7117,-9.21 -46.8424,-13.8105 -70.9688,-13.8105 -24.1264,1e-4 -48.255,4.6005 -70.9668,13.8105 -22.7116,9.2099 -44.0034,23.0367 -62.3964,41.4297 -4.6759,4.6759 -9.9534,10.0337 -15.1484,15.668 a 31.716816,31.069534 0 0 0 -4.9043,-0.4121 31.716816,31.069534 0 0 0 -31.7168,31.0703 31.716816,31.069534 0 0 0 14.4102,26.00393 c 0.5539,0.6222 1.1525,0.9768 1.8554,1.1133 a 31.716816,31.069534 0 0 0 15.4512,3.9531 31.716816,31.069534 0 0 0 31.7168,-31.07033 31.716816,31.069534 0 0 0 -6.9844,-19.4375 c 2.8134,-4.7797 5.9092,-9.1943 9.461,-12.7461 16.4822,-16.4823 35.4824,-28.8116 55.7714,-37.0391 20.2892,-8.2276 41.8699,-12.3436 63.4531,-12.3437 21.5824,2e-4 43.1626,4.1163 63.4512,12.3437 20.2892,8.2275 39.2892,20.5568 55.7714,37.0391 16.4823,16.4822 28.8095,35.4822 37.0371,55.77153 8.2277,20.2891 12.3458,41.8681 12.3458,63.4511 0,21.5832 -4.1179,43.1639 -12.3458,63.4532 -8.2274,20.2891 -20.5548,39.2872 -37.0371,55.7695 -16.4821,16.4821 -35.4824,28.8116 -55.7714,37.039 -20.2893,8.2277 -41.8701,12.3459 -63.4532,12.3457 -21.583,0 -43.1619,-4.118 -63.4511,-12.3457 -20.289,-8.2275 -39.2891,-20.5569 -55.7714,-37.039 -3.0182,-3.0182 -6.0085,-6.2816 -8.8789,-9.6035 a 31.716816,31.069534 0 0 0 6.4023,-18.6563 31.716816,31.069534 0 0 0 -31.7168,-31.0683 31.716816,31.069534 0 0 0 -31.7168,31.0683 z"
     style="color:#000000;font-style:normal;font-variant:normal;font-weight:normal;font-stretch:normal;font-size:medium;line-height:normal;font-family:sans-serif;text-indent:0;text-align:start;text-decoration:none;text-decoration-line:none;text-decoration-style:solid;text-decoration-color:#000000;letter-spacing:normal;word-spacing:normal;text-transform:none;direction:ltr;block-progression:tb;writing-mode:lr-tb;baseline-shift:baseline;text-anchor:start;white-space:normal;clip-rule:nonzero;display:inline;overflow:visible;visibility:visible;opacity:1;isolation:auto;mix-blend-mode:normal;color-interpolation:sRGB;color-interpolation-filters:linearRGB;solid-color:#000000;solid-opacity:1;fill:#ffffff;fill-opacity:1;fill-rule:nonzero;stroke:none;stroke-width:20;stroke-linecap:butt;stroke-linejoin:miter;stroke-miterlimit:4;stroke-dasharray:none;stroke-dashoffset:174;stroke-opacity:1;color-rendering:auto;image-rendering:auto;shape-rendering:auto;text-rendering:auto;enable-background:accumulate"
     inkscape:connector-curvature="0" />
  <g
     style="font-style:normal;font-weight:normal;font-size:20px;line-height:125%;font-family:sans-serif;letter-spacing:0px;word-spacing:0px;fill:#000000;fill-opacity:1;stroke:none;stroke-width:1px;stroke-linecap:butt;stroke-linejoin:miter;stroke-opacity:1"
     id="text15804"
     transform="translate(5811.9242,1173.7521)" />
  <circle
     style="fill:none;stroke:#ffffff;stroke-width:14.53779507;stroke-linecap:butt;stroke-miterlimit:4;stroke-dasharray:none;stroke-dashoffset:134"
     id="path5043"
     cx="5996"
     cy="-311.10254"
     r="0" />
</svg>
