<?xml version="1.0" encoding="UTF-8" standalone="no"?>
<svg
   xmlns:dc="http://purl.org/dc/elements/1.1/"
   xmlns:cc="http://creativecommons.org/ns#"
   xmlns:rdf="http://www.w3.org/1999/02/22-rdf-syntax-ns#"
   xmlns:svg="http://www.w3.org/2000/svg"
   xmlns="http://www.w3.org/2000/svg"
   xmlns:sodipodi="http://sodipodi.sourceforge.net/DTD/sodipodi-0.dtd"
   xmlns:inkscape="http://www.inkscape.org/namespaces/inkscape"
   viewBox="0 0 512 512"
   id="svg2"
   version="1.1"
   inkscape:version="0.91 r13725"
   sodipodi:docname="directions-dashed-dotted-west.svg">
  <metadata
     id="metadata12">
    <rdf:RDF>
      <cc:Work
         rdf:about="">
        <dc:format>image/svg+xml</dc:format>
        <dc:type
           rdf:resource="http://purl.org/dc/dcmitype/StillImage" />
        <dc:title />
      </cc:Work>
    </rdf:RDF>
  </metadata>
  <defs
     id="defs10">
    <marker
       inkscape:isstock="true"
       style="overflow:visible;"
       id="marker6040"
       refX="0.0"
       refY="0.0"
       orient="auto"
       inkscape:stockid="Arrow2Send">
      <path
         transform="scale(0.3) rotate(180) translate(-2.3,0)"
         d="M 8.7185878,4.0337352 L -2.2072895,0.016013256 L 8.7185884,-4.0017078 C 6.9730900,-1.6296469 6.9831476,1.6157441 8.7185878,4.0337352 z "
         style="fill-rule:evenodd;stroke-width:0.625;stroke-linejoin:round;stroke:#ffffff;stroke-opacity:1;fill:#ffffff;fill-opacity:1"
         id="path6042" />
    </marker>
    <marker
       inkscape:isstock="true"
       style="overflow:visible;"
       id="marker5994"
       refX="0.0"
       refY="0.0"
       orient="auto"
       inkscape:stockid="Arrow2Send">
      <path
         transform="scale(0.3) rotate(180) translate(-2.3,0)"
         d="M 8.7185878,4.0337352 L -2.2072895,0.016013256 L 8.7185884,-4.0017078 C 6.9730900,-1.6296469 6.9831476,1.6157441 8.7185878,4.0337352 z "
         style="fill-rule:evenodd;stroke-width:0.625;stroke-linejoin:round;stroke:#ffffff;stroke-opacity:1;fill:#ffffff;fill-opacity:1"
         id="path5996" />
    </marker>
    <marker
       inkscape:isstock="true"
       style="overflow:visible;"
       id="marker5954"
       refX="0.0"
       refY="0.0"
       orient="auto"
       inkscape:stockid="Arrow2Send">
      <path
         transform="scale(0.3) rotate(180) translate(-2.3,0)"
         d="M 8.7185878,4.0337352 L -2.2072895,0.016013256 L 8.7185884,-4.0017078 C 6.9730900,-1.6296469 6.9831476,1.6157441 8.7185878,4.0337352 z "
         style="fill-rule:evenodd;stroke-width:0.625;stroke-linejoin:round;stroke:#ffffff;stroke-opacity:1;fill:#ffffff;fill-opacity:1"
         id="path5956" />
    </marker>
    <marker
       inkscape:isstock="true"
       style="overflow:visible;"
       id="marker5920"
       refX="0.0"
       refY="0.0"
       orient="auto"
       inkscape:stockid="Arrow2Send">
      <path
         transform="scale(0.3) rotate(180) translate(-2.3,0)"
         d="M 8.7185878,4.0337352 L -2.2072895,0.016013256 L 8.7185884,-4.0017078 C 6.9730900,-1.6296469 6.9831476,1.6157441 8.7185878,4.0337352 z "
         style="fill-rule:evenodd;stroke-width:0.625;stroke-linejoin:round;stroke:#ffffff;stroke-opacity:1;fill:#ffffff;fill-opacity:1"
         id="path5922" />
    </marker>
    <marker
       inkscape:isstock="true"
       style="overflow:visible;"
       id="marker5892"
       refX="0.0"
       refY="0.0"
       orient="auto"
       inkscape:stockid="Arrow2Send">
      <path
         transform="scale(0.3) rotate(180) translate(-2.3,0)"
         d="M 8.7185878,4.0337352 L -2.2072895,0.016013256 L 8.7185884,-4.0017078 C 6.9730900,-1.6296469 6.9831476,1.6157441 8.7185878,4.0337352 z "
         style="fill-rule:evenodd;stroke-width:0.625;stroke-linejoin:round;stroke:#ffffff;stroke-opacity:1;fill:#ffffff;fill-opacity:1"
         id="path5894" />
    </marker>
    <marker
       inkscape:isstock="true"
       style="overflow:visible;"
       id="marker5870"
       refX="0.0"
       refY="0.0"
       orient="auto"
       inkscape:stockid="Arrow2Send">
      <path
         transform="scale(0.3) rotate(180) translate(-2.3,0)"
         d="M 8.7185878,4.0337352 L -2.2072895,0.016013256 L 8.7185884,-4.0017078 C 6.9730900,-1.6296469 6.9831476,1.6157441 8.7185878,4.0337352 z "
         style="fill-rule:evenodd;stroke-width:0.625;stroke-linejoin:round;stroke:#ffffff;stroke-opacity:1;fill:#ffffff;fill-opacity:1"
         id="path5872" />
    </marker>
  </defs>
  <sodipodi:namedview
     pagecolor="#ffffff"
     bordercolor="#666666"
     borderopacity="1"
     objecttolerance="10"
     gridtolerance="10"
     guidetolerance="10"
     inkscape:pageopacity="0"
     inkscape:pageshadow="2"
     inkscape:window-width="1829"
     inkscape:window-height="966"
     id="namedview8"
     showgrid="false"
     inkscape:zoom="1.5449218"
     inkscape:cx="256"
     inkscape:cy="256"
     inkscape:window-x="-8"
     inkscape:window-y="-8"
     inkscape:window-maximized="1"
     inkscape:current-layer="svg2"
     showguides="false"
     inkscape:guide-bbox="true"
     inkscape:snap-center="true"
     inkscape:snap-global="true"
     inkscape:snap-bbox="true" />
  <path
     id="path15302"
     d="m 0,-1e-5 512,0 0,512.00002 -512,0 z"
     inkscape:connector-curvature="0"
     style="fill:#000000;stroke:#ffffff;stroke-width:0" />
  <path
     inkscape:connector-curvature="0"
     id="path4573"
     style="font-style:normal;font-variant:normal;font-weight:bold;font-stretch:normal;font-size:183.75px;line-height:125%;font-family:sans-serif;-inkscape-font-specification:'sans-serif, Bold';text-align:start;letter-spacing:0px;word-spacing:0px;writing-mode:lr-tb;text-anchor:start;fill:#ffffff;fill-opacity:1;stroke:none;stroke-width:1px;stroke-linecap:butt;stroke-linejoin:miter;stroke-opacity:1"
     d="m 353.7517,189.20222 -35.9784,133.59559 -38.1317,0 -23.9557,-87.03003 -23.3276,87.03003 -38.1317,0 -35.9784,-133.59559 35.9784,0 20.5462,91.96473 24.5838,-91.96473 34.3634,0 23.4173,91.96473 21.5332,-91.96473 35.0812,0 z" />
  <path
     style="color:#000000;font-style:normal;font-variant:normal;font-weight:normal;font-stretch:normal;font-size:medium;line-height:normal;font-family:sans-serif;text-indent:0;text-align:start;text-decoration:none;text-decoration-line:none;text-decoration-style:solid;text-decoration-color:#000000;letter-spacing:normal;word-spacing:normal;text-transform:none;direction:ltr;block-progression:tb;writing-mode:lr-tb;baseline-shift:baseline;text-anchor:start;white-space:normal;clip-rule:nonzero;display:inline;overflow:visible;visibility:visible;opacity:1;isolation:auto;mix-blend-mode:normal;color-interpolation:sRGB;color-interpolation-filters:linearRGB;solid-color:#000000;solid-opacity:1;fill:#ffffff;fill-opacity:1;fill-rule:nonzero;stroke:none;stroke-width:20;stroke-linecap:butt;stroke-linejoin:miter;stroke-miterlimit:4;stroke-dasharray:80, 40, 20, 40;stroke-dashoffset:174;stroke-opacity:1;color-rendering:auto;image-rendering:auto;shape-rendering:auto;text-rendering:auto;enable-background:accumulate"
     d="m 255.88086,67.394531 -4.28516,0.05078 -0.11914,0.002 -0.11914,0.0039 -4.2832,0.152344 -0.11914,0.0039 -0.11914,0.0078 -4.2793,0.25586 -0.11914,0.0059 -0.11914,0.01172 -4.27148,0.357422 -0.11915,0.0098 -0.11914,0.01172 -4.26562,0.460938 -0.11914,0.01172 -0.11914,0.01563 -4.25391,0.5625 -0.11914,0.01563 -0.11914,0.01953 -4.24219,0.664062 -0.11914,0.01758 -0.11719,0.02148 -3.06054,0.554687 3.5664,19.679688 2.97461,-0.539063 3.92969,-0.615234 4.02344,-0.53125 4.0332,-0.4375 4.04688,-0.337891 4.04687,-0.242187 4.05274,-0.146485 4.05273,-0.04687 4.05273,0.04687 4.05079,0.146485 4.05468,0.242187 4.04102,0.337891 4.0332,0.4375 4.02344,0.53125 3.91602,0.613281 4.00585,0.724609 4.06836,0.839844 3.88086,0.896485 3.72071,0.957031 4.97656,-19.371094 -3.81445,-0.980469 -0.11719,-0.0293 -0.11719,-0.02734 -4.19531,-0.970704 -0.11719,-0.02734 -0.11719,-0.02539 -4.21484,-0.867187 -0.11719,-0.02539 -0.11914,-0.02148 -4.22851,-0.765625 -0.11719,-0.02148 -0.11914,-0.01758 -4.24414,-0.664062 -0.11719,-0.01953 -0.11914,-0.01563 -4.25586,-0.5625 -0.11719,-0.01563 -0.11914,-0.01172 -4.26562,-0.460938 -0.11914,-0.01172 -0.11915,-0.0098 -4.27148,-0.357422 -0.11914,-0.01172 -0.11914,-0.0059 -4.2793,-0.25586 -0.11914,-0.0078 -0.11914,-0.0039 -4.2832,-0.152344 -0.11914,-0.0039 -0.11914,-0.002 -4.28516,-0.05078 L 256,67.392578 Z M 180.9043,82.9375 l -0.11328,0.04687 -0.11329,0.05078 -3.98046,1.78711 -0.11329,0.05078 -0.11132,0.05469 -3.94532,1.888672 -0.11132,0.05469 -0.10938,0.05469 -3.9082,1.992188 -0.11133,0.05664 -0.10938,0.06055 -3.86718,2.09375 -0.10938,0.05859 -0.10742,0.0625 -2.04687,1.173828 9.95703,17.345702 1.96484,-1.12695 3.61523,-1.95899 3.7168,-1.89453 3.69531,-1.76758 3.75586,-1.68945 0.002,0 0.11718,-0.0527 -2.15234,-4.794925 -5.70898,-13.591797 z m 153.82812,23.91797 3.33008,1.80469 3.60938,2.07031 3.46093,2.10156 0.043,0.0273 3.60742,2.3164 2.20508,1.49805 11.22852,-16.55078 -2.32813,-1.580081 -0.10351,-0.07031 -0.10547,-0.06641 -3.73633,-2.402344 -0.10547,-0.06641 -0.10742,-0.06445 -3.7832,-2.298828 -0.10547,-0.06641 -0.10742,-0.06055 -3.82813,-2.197266 -0.10742,-0.0625 -0.10938,-0.05859 -3.43554,-1.859375 z m -208.52344,12.29687 -0.0918,0.0859 -0.0918,0.0898 -3.30078,3.21876 -0.0898,0.0879 -0.0898,0.0898 -3.2168,3.30078 -0.0898,0.0918 -0.0859,0.0918 -3.11523,3.36329 -0.0859,0.0918 -0.084,0.0957 -3.01367,3.42187 -0.084,0.0957 -0.082,0.0957 -2.91211,3.48047 -0.0801,0.0957 -0.0781,0.0996 -2.81055,3.53515 -0.0781,0.0977 -0.0762,0.10156 -2.70703,3.58789 -0.0762,0.10157 -0.0723,0.10156 -2.60547,3.64062 -0.0742,0.10157 -0.0703,0.10351 -2.503911,3.68946 -0.07031,0.10546 -0.06641,0.10352 -2.402344,3.73828 -0.06641,0.10547 -0.06445,0.10742 -2.298828,3.78125 -0.06641,0.10742 -0.06055,0.10742 -2.197266,3.82813 -0.0625,0.10742 -0.05859,0.10938 -2.095703,3.86718 -0.05859,0.10938 -0.05664,0.11133 -1.992188,3.9082 -0.05469,0.10938 -0.05469,0.11132 -1.890625,3.94532 -0.05273,0.11132 -0.05078,0.11329 -1.78711,3.98046 -0.05078,0.11329 -0.04687,0.11328 -1.685547,4.01367 18.439453,7.74414 1.638674,-3.9043 1.71875,-3.82617 0.0195,-0.041 1.7207,-3.58789 1.89453,-3.71875 1.95899,-3.61523 2.08789,-3.64063 2.10156,-3.46093 0.0273,-0.043 2.31835,-3.60938 2.35352,-3.46875 2.43945,-3.4082 2.57032,-3.41016 2.63867,-3.31835 2.75976,-3.29883 2.86133,-3.24805 2.95899,-3.18945 3.01757,-3.09375 3.13477,-3.05664 1.76367,-1.63477 -13.5957,-14.66797 z m 253.30274,22.0918 1.68945,1.82031 2.85938,3.2461 2.75781,3.29687 2.63867,3.32031 2.53516,3.36133 2.51172,3.50977 2.31836,3.41601 2.28125,3.55274 2.19921,3.61719 2.05469,3.58398 1.95899,3.61523 1.89453,3.7168 1.76758,3.69531 1.6914,3.76172 1.60352,3.81836 1.48437,3.79883 1.40235,3.85938 1.29687,3.85937 0.60156,1.94336 19.10547,-5.9082 -0.63672,-2.06446 -0.0371,-0.11718 -0.0391,-0.11524 -1.3789,-4.10351 -0.0391,-0.11524 -0.041,-0.11523 -1.48242,-4.07617 -0.041,-0.11524 -0.0449,-0.11328 -1.58399,-4.04688 -0.043,-0.11523 -0.0488,-0.11328 -1.68555,-4.01367 -0.0469,-0.11328 -0.0508,-0.11329 -1.78711,-3.98046 -0.0508,-0.11329 -0.0547,-0.11132 -1.88868,-3.94532 -0.0547,-0.11132 -0.0547,-0.10938 -1.99414,-3.9082 -0.0547,-0.11133 -0.0606,-0.10938 -2.09375,-3.86718 -0.0586,-0.10938 -0.0625,-0.10742 -2.19727,-3.82813 -0.0605,-0.10742 -0.0664,-0.10742 -2.29883,-3.78125 -0.0645,-0.10742 -0.0664,-0.10547 -2.40234,-3.73828 -0.0664,-0.10352 -0.0723,-0.10546 -2.50196,-3.68946 -0.0703,-0.10351 -0.0742,-0.10157 -2.60547,-3.64062 -0.0723,-0.10156 -0.0762,-0.10157 -2.70703,-3.58789 -0.0762,-0.10156 -0.0781,-0.0977 -2.81055,-3.53515 -0.0781,-0.0996 -0.082,-0.0957 -2.91016,-3.48047 -0.082,-0.0957 -0.084,-0.0957 -3.01367,-3.42187 -0.084,-0.0957 -0.0859,-0.0918 -1.78125,-1.92188 z m 44.59766,101.88281 0.0605,0.72266 0.24219,4.04492 0.14648,4.05274 0.0469,4.05273 -0.0469,4.05273 -0.0684,1.86915 19.98829,0.71484 0.0703,-1.99414 0.004,-0.11914 0.002,-0.11914 0.0508,-4.28516 0.002,-0.11914 -0.002,-0.11914 -0.0508,-4.28516 -0.002,-0.11914 -0.004,-0.11914 -0.15235,-4.2832 -0.006,-0.11914 -0.006,-0.11914 -0.25586,-4.2793 -0.008,-0.11914 -0.01,-0.11914 -0.0703,-0.85938 z m -5.3379,56.95899 -1.12695,3.98437 -1.1875,3.83594 -1.29687,3.85937 -1.40235,3.85938 -1.48437,3.79883 -1.60352,3.81836 -1.6914,3.76172 -1.76758,3.69531 -1.89453,3.71484 -1.97852,3.65039 -2.03516,3.55078 -2.19921,3.61719 -2.28125,3.55274 -2.31836,3.41601 -2.51172,3.50977 -2.53516,3.36133 -2.63867,3.31835 -2.67774,3.20118 15.33594,12.83593 2.7461,-3.28125 0.082,-0.0957 0.0781,-0.0996 2.81055,-3.53515 0.0781,-0.0977 0.0762,-0.10156 2.70703,-3.58789 0.0762,-0.10157 0.0723,-0.10156 2.60547,-3.64062 0.0742,-0.10157 0.0703,-0.10351 2.50196,-3.68946 0.0703,-0.10546 0.0684,-0.10547 2.40039,-3.73633 0.0684,-0.10547 0.0645,-0.10742 2.29883,-3.78125 0.0645,-0.10742 0.0625,-0.10742 2.19727,-3.82813 0.0625,-0.10742 0.0586,-0.10938 2.09375,-3.86718 0.0606,-0.10938 0.0547,-0.11133 1.99414,-3.9082 0.0547,-0.10938 0.0547,-0.11132 1.88868,-3.94532 0.0547,-0.11132 0.0508,-0.11329 1.78711,-3.98046 0.0508,-0.11329 0.0469,-0.11328 1.68555,-4.01367 0.0488,-0.11328 0.043,-0.11523 1.58399,-4.04688 0.0449,-0.11328 0.041,-0.11524 1.48242,-4.07617 0.041,-0.11523 0.0391,-0.11524 1.3789,-4.10351 0.0391,-0.11524 0.0371,-0.11718 1.27735,-4.12891 0.0351,-0.11719 0.0332,-0.11523 1.17383,-4.1543 0.0332,-0.11719 0.0312,-0.11718 0.23828,-0.92969 -19.37109,-4.97656 z m -335.062496,32.73633 1.113282,2.48046 0.05078,0.11329 0.05273,0.11132 1.890625,3.94532 0.05469,0.11132 0.05469,0.10938 1.992188,3.9082 0.05664,0.11133 0.05859,0.10938 2.095703,3.86718 0.05859,0.10938 0.0625,0.10742 2.197266,3.82813 0.06055,0.10742 0.06641,0.10742 2.298828,3.78125 0.06445,0.10742 0.06641,0.10547 2.402344,3.73633 0.06641,0.10547 0.07031,0.10546 2.503911,3.68946 0.0703,0.10351 0.0742,0.10157 2.60547,3.64062 0.0723,0.10156 0.0762,0.10157 2.70703,3.58789 0.0762,0.10156 0.0781,0.0977 2.81055,3.53515 0.0781,0.0996 0.0801,0.0957 2.91211,3.48047 0.082,0.0957 0.084,0.0957 3.01367,3.42187 0.084,0.0957 0.0859,0.0918 3.11523,3.36329 0.0859,0.0918 0.0898,0.0918 3.2168,3.30078 0.0898,0.0898 0.0898,0.0879 3.30078,3.21876 0.0918,0.0898 0.0918,0.0859 3.36329,3.11523 0.0918,0.0859 0.0957,0.084 3.42187,3.01367 0.0937,0.084 0.0977,0.082 0.64843,0.54102 12.83594,-15.33594 -0.54492,-0.45508 -3.25,-2.86328 -3.15039,-2.92188 -3.13477,-3.05664 -3.01757,-3.09375 -2.95899,-3.18945 -2.86133,-3.24805 -2.75976,-3.29883 -2.63867,-3.31835 -2.57032,-3.41016 -2.43945,-3.4082 -2.35352,-3.46875 -2.31835,-3.60938 -0.0273,-0.043 -2.10156,-3.46093 -2.08789,-3.64063 -1.95899,-3.61523 -1.89453,-3.71875 -1.7207,-3.58789 -0.0195,-0.041 -1.09571,-2.43945 z m 272.001956,59.16992 -3.50977,2.51172 -3.41601,2.31836 -3.55469,2.2832 -3.5293,2.14648 -0.6875,0.39453 9.95703,17.34375 0.76368,-0.4375 0.10742,-0.0605 0.10547,-0.0664 3.7832,-2.29883 0.10742,-0.0645 0.10547,-0.0664 3.73633,-2.40234 0.10547,-0.0664 0.10351,-0.0703 3.69141,-2.50391 0.10351,-0.0703 0.10157,-0.0742 3.64062,-2.60547 0.10156,-0.0723 0.10157,-0.0762 1.05078,-0.79297 -12.04688,-15.96484 z m -186.70508,31.39843 3.30078,1.6836 0.10938,0.0547 0.11132,0.0547 3.94532,1.88868 0.11132,0.0547 0.11329,0.0508 3.98046,1.78711 0.11329,0.0508 0.11328,0.0469 4.01367,1.68555 0.11328,0.0488 0.11523,0.043 2.98047,1.16797 7.28711,-18.625 -2.83594,-1.10937 -3.82031,-1.60352 -3.76172,-1.6914 -3.69531,-1.76758 -3.21289,-1.63867 z m 135.0625,-5.74609 -3.98438,1.12891 -3.95507,1.01562 -3.88282,0.89649 -4.06836,0.83984 -4.00585,0.72461 -3.91602,0.61328 -4.02344,0.53125 -4.0332,0.4375 -4.04883,0.33789 -4.04687,0.24219 -4.05079,0.14648 -4.05273,0.0469 -4.05273,-0.0469 -4.05274,-0.14648 -4.04687,-0.24219 -4.04688,-0.33789 -4.03125,-0.43555 -4.06641,-0.53906 -2.61914,19.82813 4.22071,0.55859 0.11914,0.0156 0.11914,0.0117 4.26562,0.46094 0.11914,0.0117 0.11915,0.01 4.27148,0.35742 0.11914,0.01 0.11914,0.008 4.2793,0.25586 0.11914,0.008 0.11914,0.004 4.2832,0.15235 0.11914,0.004 0.11914,0.002 4.28516,0.0508 0.11914,0.002 0.11914,-0.002 4.28516,-0.0508 0.11914,-0.002 0.11914,-0.004 4.2832,-0.15235 0.11914,-0.004 0.11914,-0.008 4.2793,-0.25586 0.11914,-0.008 0.11719,-0.01 4.27343,-0.35742 0.11915,-0.01 0.11914,-0.0117 4.26562,-0.46094 0.11914,-0.0117 0.11719,-0.0156 4.25586,-0.5625 0.11914,-0.0156 0.11719,-0.0195 4.24414,-0.66406 0.11914,-0.0176 0.11719,-0.0215 4.22851,-0.76563 0.11914,-0.0215 0.11719,-0.0254 4.21484,-0.86719 0.11719,-0.0254 0.11719,-0.0273 4.19531,-0.97071 0.11719,-0.0273 0.11719,-0.0293 4.17578,-1.07226 0.11718,-0.0312 0.11719,-0.0332 4.1543,-1.17383 0.11523,-0.0332 0.11719,-0.0351 2.625,-0.8125 -5.9082,-19.10742 z"
     id="path15354"
     inkscape:connector-curvature="0" />
  <path
     sodipodi:nodetypes="ccccczc"
     inkscape:connector-curvature="0"
     id="path15356"
     d="m 126.6868,199.99419 -49.8588,28.786 -49.8588,28.786 49.8588,28.7861 49.8588,28.7859 c 0,0 -21.6744,-38.3813 -21.6745,-57.572 0,-19.1907 21.6745,-57.572 21.6745,-57.572 z"
     inkscape:transform-center-y="1.5662006"
     inkscape:transform-center-x="179.17189"
     style="fill:#ffffff;stroke:none;stroke-width:20;stroke-miterlimit:4;stroke-dasharray:none" />
  <circle
     style="fill:none;stroke:#ffffff;stroke-width:14.53779507;stroke-linecap:butt;stroke-miterlimit:4;stroke-dasharray:none;stroke-dashoffset:134"
     id="path5043"
     cx="5416"
     cy="-311.10254"
     r="0" />
</svg>
