<?xml version="1.0" encoding="UTF-8" standalone="no"?>
<svg
   xmlns:dc="http://purl.org/dc/elements/1.1/"
   xmlns:cc="http://creativecommons.org/ns#"
   xmlns:rdf="http://www.w3.org/1999/02/22-rdf-syntax-ns#"
   xmlns:svg="http://www.w3.org/2000/svg"
   xmlns="http://www.w3.org/2000/svg"
   xmlns:sodipodi="http://sodipodi.sourceforge.net/DTD/sodipodi-0.dtd"
   xmlns:inkscape="http://www.inkscape.org/namespaces/inkscape"
   viewBox="0 0 512 512"
   id="svg2"
   version="1.1"
   inkscape:version="0.91 r13725"
   sodipodi:docname="directions-dashed-dotted-north.svg">
  <metadata
     id="metadata12">
    <rdf:RDF>
      <cc:Work
         rdf:about="">
        <dc:format>image/svg+xml</dc:format>
        <dc:type
           rdf:resource="http://purl.org/dc/dcmitype/StillImage" />
        <dc:title />
      </cc:Work>
    </rdf:RDF>
  </metadata>
  <defs
     id="defs10">
    <marker
       inkscape:isstock="true"
       style="overflow:visible;"
       id="marker6040"
       refX="0.0"
       refY="0.0"
       orient="auto"
       inkscape:stockid="Arrow2Send">
      <path
         transform="scale(0.3) rotate(180) translate(-2.3,0)"
         d="M 8.7185878,4.0337352 L -2.2072895,0.016013256 L 8.7185884,-4.0017078 C 6.9730900,-1.6296469 6.9831476,1.6157441 8.7185878,4.0337352 z "
         style="fill-rule:evenodd;stroke-width:0.625;stroke-linejoin:round;stroke:#ffffff;stroke-opacity:1;fill:#ffffff;fill-opacity:1"
         id="path6042" />
    </marker>
    <marker
       inkscape:isstock="true"
       style="overflow:visible;"
       id="marker5994"
       refX="0.0"
       refY="0.0"
       orient="auto"
       inkscape:stockid="Arrow2Send">
      <path
         transform="scale(0.3) rotate(180) translate(-2.3,0)"
         d="M 8.7185878,4.0337352 L -2.2072895,0.016013256 L 8.7185884,-4.0017078 C 6.9730900,-1.6296469 6.9831476,1.6157441 8.7185878,4.0337352 z "
         style="fill-rule:evenodd;stroke-width:0.625;stroke-linejoin:round;stroke:#ffffff;stroke-opacity:1;fill:#ffffff;fill-opacity:1"
         id="path5996" />
    </marker>
    <marker
       inkscape:isstock="true"
       style="overflow:visible;"
       id="marker5954"
       refX="0.0"
       refY="0.0"
       orient="auto"
       inkscape:stockid="Arrow2Send">
      <path
         transform="scale(0.3) rotate(180) translate(-2.3,0)"
         d="M 8.7185878,4.0337352 L -2.2072895,0.016013256 L 8.7185884,-4.0017078 C 6.9730900,-1.6296469 6.9831476,1.6157441 8.7185878,4.0337352 z "
         style="fill-rule:evenodd;stroke-width:0.625;stroke-linejoin:round;stroke:#ffffff;stroke-opacity:1;fill:#ffffff;fill-opacity:1"
         id="path5956" />
    </marker>
    <marker
       inkscape:isstock="true"
       style="overflow:visible;"
       id="marker5920"
       refX="0.0"
       refY="0.0"
       orient="auto"
       inkscape:stockid="Arrow2Send">
      <path
         transform="scale(0.3) rotate(180) translate(-2.3,0)"
         d="M 8.7185878,4.0337352 L -2.2072895,0.016013256 L 8.7185884,-4.0017078 C 6.9730900,-1.6296469 6.9831476,1.6157441 8.7185878,4.0337352 z "
         style="fill-rule:evenodd;stroke-width:0.625;stroke-linejoin:round;stroke:#ffffff;stroke-opacity:1;fill:#ffffff;fill-opacity:1"
         id="path5922" />
    </marker>
    <marker
       inkscape:isstock="true"
       style="overflow:visible;"
       id="marker5892"
       refX="0.0"
       refY="0.0"
       orient="auto"
       inkscape:stockid="Arrow2Send">
      <path
         transform="scale(0.3) rotate(180) translate(-2.3,0)"
         d="M 8.7185878,4.0337352 L -2.2072895,0.016013256 L 8.7185884,-4.0017078 C 6.9730900,-1.6296469 6.9831476,1.6157441 8.7185878,4.0337352 z "
         style="fill-rule:evenodd;stroke-width:0.625;stroke-linejoin:round;stroke:#ffffff;stroke-opacity:1;fill:#ffffff;fill-opacity:1"
         id="path5894" />
    </marker>
    <marker
       inkscape:isstock="true"
       style="overflow:visible;"
       id="marker5870"
       refX="0.0"
       refY="0.0"
       orient="auto"
       inkscape:stockid="Arrow2Send">
      <path
         transform="scale(0.3) rotate(180) translate(-2.3,0)"
         d="M 8.7185878,4.0337352 L -2.2072895,0.016013256 L 8.7185884,-4.0017078 C 6.9730900,-1.6296469 6.9831476,1.6157441 8.7185878,4.0337352 z "
         style="fill-rule:evenodd;stroke-width:0.625;stroke-linejoin:round;stroke:#ffffff;stroke-opacity:1;fill:#ffffff;fill-opacity:1"
         id="path5872" />
    </marker>
  </defs>
  <sodipodi:namedview
     pagecolor="#ffffff"
     bordercolor="#666666"
     borderopacity="1"
     objecttolerance="10"
     gridtolerance="10"
     guidetolerance="10"
     inkscape:pageopacity="0"
     inkscape:pageshadow="2"
     inkscape:window-width="1829"
     inkscape:window-height="966"
     id="namedview8"
     showgrid="false"
     inkscape:zoom="1.5449218"
     inkscape:cx="256"
     inkscape:cy="256"
     inkscape:window-x="-8"
     inkscape:window-y="-8"
     inkscape:window-maximized="1"
     inkscape:current-layer="svg2"
     showguides="false"
     inkscape:guide-bbox="true"
     inkscape:snap-center="true"
     inkscape:snap-global="true"
     inkscape:snap-bbox="true" />
  <path
     style="fill:#000000;stroke:#ffffff;stroke-width:0"
     inkscape:connector-curvature="0"
     d="m 0,0 512,0 0,512 -512,0 z"
     id="path15308" />
  <path
     inkscape:connector-curvature="0"
     id="path4570"
     style="font-style:normal;font-variant:normal;font-weight:bold;font-stretch:normal;font-size:183.75px;line-height:125%;font-family:sans-serif;-inkscape-font-specification:'sans-serif Bold';letter-spacing:0px;word-spacing:0px;fill:#ffffff;fill-opacity:1;stroke:none;stroke-width:1px;stroke-linecap:butt;stroke-linejoin:miter;stroke-opacity:1"
     d="m 316.7416,322.7977 -33.197,0 -56.7041,-91.6955 0,91.6955 -31.5821,0 0,-133.5956 41.1823,0 48.7189,76.5326 0,-76.5326 31.582,0 0,133.5956 z" />
  <path
     style="color:#000000;font-style:normal;font-variant:normal;font-weight:normal;font-stretch:normal;font-size:medium;line-height:normal;font-family:sans-serif;text-indent:0;text-align:start;text-decoration:none;text-decoration-line:none;text-decoration-style:solid;text-decoration-color:#000000;letter-spacing:normal;word-spacing:normal;text-transform:none;direction:ltr;block-progression:tb;writing-mode:lr-tb;baseline-shift:baseline;text-anchor:start;white-space:normal;clip-rule:nonzero;display:inline;overflow:visible;visibility:visible;opacity:1;isolation:auto;mix-blend-mode:normal;color-interpolation:sRGB;color-interpolation-filters:linearRGB;solid-color:#000000;solid-opacity:1;fill:#ffffff;fill-opacity:1;fill-rule:nonzero;stroke:none;stroke-width:20;stroke-linecap:butt;stroke-linejoin:miter;stroke-miterlimit:4;stroke-dasharray:80, 40, 20, 40;stroke-dashoffset:174;stroke-opacity:1;color-rendering:auto;image-rendering:auto;shape-rendering:auto;text-rendering:auto;enable-background:accumulate"
     d="m 319.33789,99.691406 3.9043,1.638674 3.76172,1.6914 3.69531,1.76758 3.7168,1.89453 3.61523,1.95899 3.63867,2.08789 3.56055,2.16406 3.55469,2.2832 3.41601,2.31836 3.50977,2.51172 3.4082,2.57227 3.27148,2.59961 3.29883,2.75976 3.24805,2.86133 3.15039,2.92188 3.13477,3.05468 3.05468,3.13477 1.63477,1.76367 14.66797,-13.5957 -1.73242,-1.8711 -0.0859,-0.0918 -0.0898,-0.0918 -3.21876,-3.30078 -0.0879,-0.0898 -0.0898,-0.0879 -3.30078,-3.21876 -0.0918,-0.0898 -0.0918,-0.0859 -3.36329,-3.11523 -0.0918,-0.0859 -0.0957,-0.084 -3.42187,-3.01367 -0.0957,-0.084 -0.0957,-0.082 -3.48047,-2.91016 -0.0957,-0.082 -0.0996,-0.0781 -3.53515,-2.81055 -0.0977,-0.0781 -0.10156,-0.0762 -3.58789,-2.70703 -0.10157,-0.0762 -0.10156,-0.0723 -3.64062,-2.60547 -0.10157,-0.0742 -0.10351,-0.0703 -3.68946,-2.503911 -0.10546,-0.07031 -0.10352,-0.06641 -3.73828,-2.402344 -0.10547,-0.06641 -0.10742,-0.06445 -3.78125,-2.298828 -0.10742,-0.06641 -0.10742,-0.06055 -3.82813,-2.197266 -0.10742,-0.0625 -0.10938,-0.05859 -3.86718,-2.09375 -0.10938,-0.06055 -0.11133,-0.05664 -3.9082,-1.992188 -0.10938,-0.05469 -0.11132,-0.05469 -3.94532,-1.888672 -0.11132,-0.05469 -0.11329,-0.05078 -3.98046,-1.78711 -0.11329,-0.05078 -0.11328,-0.04687 -4.01367,-1.685547 z m -142.64062,-14.86914 -0.11329,0.05078 -0.11132,0.05469 -3.94532,1.888672 -0.11132,0.05469 -0.10938,0.05469 -3.9082,1.992188 -0.11133,0.05664 -0.10938,0.06055 -3.86718,2.09375 -0.10938,0.05859 -0.10742,0.0625 -3.82813,2.197266 -0.10742,0.06055 -0.10742,0.06641 -3.78125,2.298828 -0.10742,0.06445 -0.10547,0.06641 -3.73633,2.402344 -0.10547,0.06641 -0.10546,0.07031 -3.68946,2.503911 -0.10351,0.0703 -0.10157,0.0742 -3.64062,2.60547 -0.10156,0.0723 -0.10157,0.0762 -3.58789,2.70703 -0.10156,0.0762 -0.0977,0.0781 -3.53515,2.81055 -0.0996,0.0781 -0.0957,0.082 -3.48047,2.91016 -0.0957,0.082 -0.0957,0.084 -3.42187,3.01367 -0.0957,0.084 -0.0918,0.0859 -3.36329,3.11523 -0.0918,0.0859 -0.0918,0.0898 -3.30078,3.21876 -0.0898,0.0879 -0.0879,0.0898 -3.21876,3.30078 -0.0898,0.0918 -0.0859,0.0918 -3.11523,3.36329 -0.0859,0.0918 -0.084,0.0957 -3.01367,3.42187 -0.084,0.0957 -0.082,0.0957 -0.54102,0.64843 15.33594,12.83594 0.45508,-0.54492 2.86328,-3.25 2.92188,-3.15039 3.05468,-3.13477 3.13477,-3.05468 3.15039,-2.92188 3.24805,-2.86133 3.29883,-2.75976 3.27148,-2.59961 3.4082,-2.57227 3.50977,-2.51172 3.41601,-2.31836 3.55469,-2.2832 3.56055,-2.16406 3.60547,-2.06836 3.65039,-1.97852 3.71484,-1.89453 3.69531,-1.76758 2.375,-1.06836 -8.19336,-18.244136 z m 225.5332,87.181644 1.12695,1.96484 1.95899,3.61523 1.89453,3.7168 1.76758,3.69531 1.68945,3.75586 0,0.002 0.0527,0.11718 4.79492,-2.15234 13.5918,-5.70898 -0.0449,-0.10547 -0.0469,-0.11328 -0.0508,-0.11329 -1.78711,-3.98046 -0.0508,-0.11329 -0.0547,-0.11132 -1.88868,-3.94532 -0.0547,-0.11132 -0.0547,-0.10938 -1.99219,-3.9082 -0.0566,-0.11133 -0.0606,-0.10938 -2.09375,-3.86718 -0.0586,-0.10938 -0.0625,-0.10742 -1.17383,-2.04687 z m -315.304689,0.30273 -0.05469,0.10938 -0.05469,0.11132 -1.888672,3.94532 -0.05469,0.11132 -0.05078,0.11329 -1.78711,3.98046 -0.05078,0.11329 -0.04687,0.11328 -1.685547,4.01367 -0.04883,0.11328 -0.04492,0.11523 -1.166015,2.98047 18.625,7.28711 1.109374,-2.83594 1.603518,-3.82031 1.6914,-3.76172 1.76758,-3.69531 1.63867,-3.21094 -17.818355,-9.08398 z m 334.783199,52.5332 0.54102,2.98828 0.61328,3.91602 0.53125,4.02344 0.4375,4.0332 0.33789,4.04102 0.24219,4.05468 0.14648,4.05079 0.0469,4.05273 -0.0469,4.05273 -0.14648,4.05274 -0.24219,4.04687 -0.33789,4.04688 -0.4375,4.0332 -0.53125,4.02344 -0.61523,3.92969 -0.72266,3.99218 -0.83594,4.05274 -0.90039,3.89648 -0.95703,3.72071 19.37109,4.97656 0.98047,-3.81445 0.0293,-0.11719 0.0273,-0.11719 0.97071,-4.19531 0.0273,-0.11719 0.0254,-0.11719 0.86719,-4.21484 0.0254,-0.11719 0.0215,-0.11719 0.76563,-4.23046 0.0215,-0.11719 0.0176,-0.11914 0.66406,-4.24219 0.0195,-0.11914 0.0156,-0.11914 0.5625,-4.25586 0.0156,-0.11719 0.0117,-0.11914 0.46094,-4.26562 0.0117,-0.11914 0.01,-0.11915 0.35742,-4.27148 0.0117,-0.11914 0.006,-0.11914 0.25586,-4.2793 0.008,-0.11914 0.004,-0.11914 0.15235,-4.2832 0.004,-0.11914 0.002,-0.11914 0.0508,-4.28516 0.002,-0.11914 -0.002,-0.11914 -0.0508,-4.28516 -0.002,-0.11914 -0.004,-0.11914 -0.15235,-4.2832 -0.004,-0.11914 -0.008,-0.11914 -0.25586,-4.2793 -0.006,-0.11914 -0.0117,-0.11914 -0.35742,-4.27148 -0.01,-0.11915 -0.0117,-0.11914 -0.46094,-4.26562 -0.0117,-0.11914 -0.0156,-0.11719 -0.5625,-4.25586 -0.0156,-0.11914 -0.0195,-0.11719 -0.66406,-4.24414 -0.0176,-0.11914 -0.0215,-0.11719 -0.55469,-3.06054 z m -352.953121,8.4668 -0.01563,0.11719 -0.01172,0.11914 -0.460938,4.26562 -0.01172,0.11914 -0.0098,0.11915 -0.357422,4.27148 -0.0098,0.11914 -0.0078,0.11914 -0.25586,4.2793 -0.0078,0.11914 -0.0039,0.11914 -0.152344,4.2832 -0.0039,0.11914 -0.002,0.11914 -0.05078,4.28516 -0.002,0.11914 0.002,0.11914 0.05078,4.28516 0.002,0.11914 0.0039,0.11914 0.152344,4.2832 0.0039,0.11914 0.0078,0.11914 0.25586,4.2793 0.0078,0.11914 0.0098,0.11914 0.357422,4.27148 0.0098,0.11915 0.01172,0.11914 0.460938,4.26562 0.01172,0.11914 0.01563,0.11719 0.5625,4.25586 0.01563,0.11914 0.01953,0.11719 0.664062,4.24414 0.01758,0.11914 0.02148,0.11719 0.765625,4.23046 0.02148,0.11719 0.02539,0.11719 0.867187,4.21484 0.02539,0.11719 0.02734,0.11719 0.970704,4.19531 0.02734,0.11719 0.0293,0.11719 1.072266,4.17578 0.03125,0.11718 0.0332,0.11719 1.173828,4.1543 0.0332,0.11523 0.03516,0.11719 0.8125,2.625 19.107422,-5.9082 -0.759765,-2.45313 -1.126953,-3.98633 -1.017578,-3.95507 -0.896485,-3.88282 -0.839844,-4.06836 -0.724609,-4.00585 -0.613281,-3.91602 -0.53125,-4.02344 -0.4375,-4.0332 -0.337891,-4.04102 -0.242187,-4.05468 -0.146485,-4.05079 -0.04687,-4.05273 0.04687,-4.05273 0.146485,-4.05079 0.242187,-4.05468 0.337891,-4.04102 0.435547,-4.03125 0.539062,-4.06641 -19.828125,-2.61914 z m 334.601561,104.72461 -2.08789,3.64063 -2.10156,3.46093 -0.0274,0.043 -2.3164,3.60742 -1.49805,2.20508 16.55078,11.22852 1.58008,-2.32618 0.0703,-0.10546 0.0664,-0.10352 2.40234,-3.73828 0.0664,-0.10547 0.0645,-0.10742 2.29883,-3.78125 0.0664,-0.10742 0.0605,-0.10742 2.19727,-3.82813 0.0625,-0.10742 0.0586,-0.10938 1.85938,-3.43359 -17.58594,-9.52344 z m -310.347654,12.93945 0.4375,0.76368 0.06055,0.10742 0.06641,0.10742 2.298828,3.78125 0.06445,0.10742 0.06641,0.10547 2.402344,3.73828 0.06641,0.10352 0.07031,0.10546 2.503911,3.68946 0.0703,0.10351 0.0742,0.10157 2.60547,3.64062 0.0723,0.10156 0.0762,0.10157 0.79297,1.05078 15.96484,-12.04688 -0.69531,-0.92187 -2.51172,-3.50977 -2.31836,-3.41601 -2.2832,-3.55469 -2.16406,-3.55859 -0.37695,-0.65821 z m 275.927734,30.22852 -3.24805,2.86133 -3.29883,2.75976 -3.31835,2.63867 -3.41016,2.57032 -3.4082,2.43945 -3.46875,2.35352 -3.60938,2.31835 -0.043,0.0274 -3.46093,2.10156 -3.64063,2.08789 -3.61523,1.95899 -3.71875,1.89453 -3.58789,1.7207 -0.041,0.0195 -3.82617,1.71875 -3.82031,1.60352 -3.72852,1.45898 -3.92774,1.42774 -3.85937,1.29687 -1.94336,0.60156 5.9082,19.10743 2.06446,-0.63868 0.11718,-0.0371 0.11524,-0.0371 4.10351,-1.38085 0.11524,-0.0391 0.11523,-0.041 4.07617,-1.48047 0.11524,-0.043 0.11328,-0.0449 4.04688,-1.58203 0.11523,-0.0449 0.11328,-0.0488 4.01367,-1.68555 0.11328,-0.0469 0.11329,-0.0508 3.98046,-1.78711 0.11329,-0.0508 0.11132,-0.0527 3.94532,-1.89063 0.11132,-0.0547 0.10938,-0.0547 3.9082,-1.99219 0.11133,-0.0566 0.10938,-0.0606 3.86718,-2.09375 0.10938,-0.0586 0.10742,-0.0625 3.82813,-2.19727 0.10742,-0.0605 0.10742,-0.0664 3.78125,-2.29883 0.10742,-0.0645 0.10547,-0.0664 3.73828,-2.40234 0.10352,-0.0664 0.10546,-0.0703 3.68946,-2.50391 0.10351,-0.0703 0.10157,-0.0742 3.64062,-2.60547 0.10156,-0.0723 0.10157,-0.0762 3.58789,-2.70703 0.10156,-0.0762 0.0977,-0.0781 3.53515,-2.81055 0.0996,-0.0781 0.0957,-0.0801 3.48047,-2.91211 0.0957,-0.082 0.0957,-0.084 3.42187,-3.01367 0.0957,-0.084 0.0918,-0.0859 1.92188,-1.78125 -13.59375,-14.66797 z m -235.36523,18.27734 3.28125,2.7461 0.0957,0.082 0.0996,0.0781 3.53515,2.81055 0.0977,0.0781 0.10156,0.0762 3.58789,2.70703 0.10157,0.0762 0.10156,0.0723 3.64062,2.60547 0.10157,0.0742 0.10351,0.0703 3.68946,2.50391 0.10546,0.0703 0.10547,0.0664 3.73633,2.40234 0.10547,0.0664 0.10742,0.0645 3.78125,2.29883 0.10742,0.0664 0.10742,0.0605 3.82813,2.19727 0.10742,0.0625 0.10938,0.0586 3.86718,2.09375 0.10938,0.0606 0.11133,0.0566 3.9082,1.99219 0.10938,0.0547 0.11132,0.0547 3.94532,1.88868 0.11132,0.0547 0.11329,0.0508 3.98046,1.78711 0.11329,0.0508 0.11328,0.0469 4.01367,1.68555 0.11328,0.0488 0.11523,0.043 4.04688,1.58399 0.11328,0.0449 0.11524,0.043 4.07617,1.48047 0.11523,0.041 0.11524,0.0391 4.10351,1.3789 0.11524,0.0391 0.11718,0.0371 4.12891,1.27735 0.11719,0.0351 0.11523,0.0332 4.1543,1.17383 0.11719,0.0332 0.11718,0.0312 0.92969,0.23828 4.97656,-19.37109 -0.80664,-0.20704 -3.98242,-1.12695 -3.83789,-1.1875 -3.85937,-1.29687 -3.92774,-1.42774 -3.72852,-1.45898 -3.82031,-1.60352 -3.76172,-1.6914 -3.69531,-1.76758 -3.71484,-1.89453 -3.65039,-1.97852 -3.60547,-2.06836 -3.56055,-2.16406 -3.55469,-2.2832 -3.41601,-2.31836 -3.51172,-2.51172 -3.35938,-2.53321 -3.31835,-2.63867 -3.20118,-2.67969 z m 134.57812,24.69336 -4.04492,0.24219 -4.05274,0.14648 -4.05273,0.0469 -4.05273,-0.0469 -1.86915,-0.0684 -0.71484,19.98829 1.99414,0.0703 0.11914,0.004 0.11914,0.002 4.28516,0.0508 0.11914,0.002 0.11914,-0.002 4.28516,-0.0508 0.11914,-0.002 0.11914,-0.004 4.2832,-0.15235 0.11914,-0.004 0.11914,-0.008 4.2793,-0.25586 0.11914,-0.006 0.11914,-0.0117 0.85742,-0.0703 -1.66797,-19.93164 z"
     id="path15358"
     inkscape:connector-curvature="0" />
  <path
     style="fill:#ffffff;stroke:none;stroke-width:20;stroke-miterlimit:4;stroke-dasharray:none"
     inkscape:transform-center-x="-105.23139"
     inkscape:transform-center-y="-107.44635"
     d="m 312.0058,126.687 -28.786,-49.8588 -28.786,-49.8588 -28.7861,49.8588 -28.7859,49.8588 c 0,0 38.3813,-21.6744 57.572,-21.6745 19.1907,0 57.572,21.6745 57.572,21.6745 z"
     id="path15360"
     inkscape:connector-curvature="0"
     sodipodi:nodetypes="ccccczc" />
  <circle
     style="fill:none;stroke:#ffffff;stroke-width:14.53779507;stroke-linecap:butt;stroke-miterlimit:4;stroke-dasharray:none;stroke-dashoffset:134"
     id="path5043"
     cx="5416"
     cy="255.99998"
     r="0" />
</svg>
