<?xml version="1.0" encoding="UTF-8" standalone="no"?>
<svg
   xmlns:dc="http://purl.org/dc/elements/1.1/"
   xmlns:cc="http://creativecommons.org/ns#"
   xmlns:rdf="http://www.w3.org/1999/02/22-rdf-syntax-ns#"
   xmlns:svg="http://www.w3.org/2000/svg"
   xmlns="http://www.w3.org/2000/svg"
   xmlns:sodipodi="http://sodipodi.sourceforge.net/DTD/sodipodi-0.dtd"
   xmlns:inkscape="http://www.inkscape.org/namespaces/inkscape"
   viewBox="0 0 512 512"
   id="svg2"
   version="1.1"
   inkscape:version="0.91 r13725"
   sodipodi:docname="directions-funky-north-west.svg">
  <metadata
     id="metadata12">
    <rdf:RDF>
      <cc:Work
         rdf:about="">
        <dc:format>image/svg+xml</dc:format>
        <dc:type
           rdf:resource="http://purl.org/dc/dcmitype/StillImage" />
        <dc:title />
      </cc:Work>
    </rdf:RDF>
  </metadata>
  <defs
     id="defs10">
    <marker
       inkscape:isstock="true"
       style="overflow:visible;"
       id="marker6040"
       refX="0.0"
       refY="0.0"
       orient="auto"
       inkscape:stockid="Arrow2Send">
      <path
         transform="scale(0.3) rotate(180) translate(-2.3,0)"
         d="M 8.7185878,4.0337352 L -2.2072895,0.016013256 L 8.7185884,-4.0017078 C 6.9730900,-1.6296469 6.9831476,1.6157441 8.7185878,4.0337352 z "
         style="fill-rule:evenodd;stroke-width:0.625;stroke-linejoin:round;stroke:#ffffff;stroke-opacity:1;fill:#ffffff;fill-opacity:1"
         id="path6042" />
    </marker>
    <marker
       inkscape:isstock="true"
       style="overflow:visible;"
       id="marker5994"
       refX="0.0"
       refY="0.0"
       orient="auto"
       inkscape:stockid="Arrow2Send">
      <path
         transform="scale(0.3) rotate(180) translate(-2.3,0)"
         d="M 8.7185878,4.0337352 L -2.2072895,0.016013256 L 8.7185884,-4.0017078 C 6.9730900,-1.6296469 6.9831476,1.6157441 8.7185878,4.0337352 z "
         style="fill-rule:evenodd;stroke-width:0.625;stroke-linejoin:round;stroke:#ffffff;stroke-opacity:1;fill:#ffffff;fill-opacity:1"
         id="path5996" />
    </marker>
    <marker
       inkscape:isstock="true"
       style="overflow:visible;"
       id="marker5954"
       refX="0.0"
       refY="0.0"
       orient="auto"
       inkscape:stockid="Arrow2Send">
      <path
         transform="scale(0.3) rotate(180) translate(-2.3,0)"
         d="M 8.7185878,4.0337352 L -2.2072895,0.016013256 L 8.7185884,-4.0017078 C 6.9730900,-1.6296469 6.9831476,1.6157441 8.7185878,4.0337352 z "
         style="fill-rule:evenodd;stroke-width:0.625;stroke-linejoin:round;stroke:#ffffff;stroke-opacity:1;fill:#ffffff;fill-opacity:1"
         id="path5956" />
    </marker>
    <marker
       inkscape:isstock="true"
       style="overflow:visible;"
       id="marker5920"
       refX="0.0"
       refY="0.0"
       orient="auto"
       inkscape:stockid="Arrow2Send">
      <path
         transform="scale(0.3) rotate(180) translate(-2.3,0)"
         d="M 8.7185878,4.0337352 L -2.2072895,0.016013256 L 8.7185884,-4.0017078 C 6.9730900,-1.6296469 6.9831476,1.6157441 8.7185878,4.0337352 z "
         style="fill-rule:evenodd;stroke-width:0.625;stroke-linejoin:round;stroke:#ffffff;stroke-opacity:1;fill:#ffffff;fill-opacity:1"
         id="path5922" />
    </marker>
    <marker
       inkscape:isstock="true"
       style="overflow:visible;"
       id="marker5892"
       refX="0.0"
       refY="0.0"
       orient="auto"
       inkscape:stockid="Arrow2Send">
      <path
         transform="scale(0.3) rotate(180) translate(-2.3,0)"
         d="M 8.7185878,4.0337352 L -2.2072895,0.016013256 L 8.7185884,-4.0017078 C 6.9730900,-1.6296469 6.9831476,1.6157441 8.7185878,4.0337352 z "
         style="fill-rule:evenodd;stroke-width:0.625;stroke-linejoin:round;stroke:#ffffff;stroke-opacity:1;fill:#ffffff;fill-opacity:1"
         id="path5894" />
    </marker>
    <marker
       inkscape:isstock="true"
       style="overflow:visible;"
       id="marker5870"
       refX="0.0"
       refY="0.0"
       orient="auto"
       inkscape:stockid="Arrow2Send">
      <path
         transform="scale(0.3) rotate(180) translate(-2.3,0)"
         d="M 8.7185878,4.0337352 L -2.2072895,0.016013256 L 8.7185884,-4.0017078 C 6.9730900,-1.6296469 6.9831476,1.6157441 8.7185878,4.0337352 z "
         style="fill-rule:evenodd;stroke-width:0.625;stroke-linejoin:round;stroke:#ffffff;stroke-opacity:1;fill:#ffffff;fill-opacity:1"
         id="path5872" />
    </marker>
  </defs>
  <sodipodi:namedview
     pagecolor="#ffffff"
     bordercolor="#666666"
     borderopacity="1"
     objecttolerance="10"
     gridtolerance="10"
     guidetolerance="10"
     inkscape:pageopacity="0"
     inkscape:pageshadow="2"
     inkscape:window-width="1829"
     inkscape:window-height="966"
     id="namedview8"
     showgrid="false"
     inkscape:zoom="1.5449218"
     inkscape:cx="256"
     inkscape:cy="256"
     inkscape:window-x="-8"
     inkscape:window-y="-8"
     inkscape:window-maximized="1"
     inkscape:current-layer="svg2"
     showguides="false"
     inkscape:guide-bbox="true"
     inkscape:snap-center="true"
     inkscape:snap-global="true"
     inkscape:snap-bbox="true" />
  <path
     style="fill:#000000;stroke:#ffffff;stroke-width:0"
     inkscape:connector-curvature="0"
     d="m 0,0 512,0 0,512 -512,0 z"
     id="path15436" />
  <path
     sodipodi:nodetypes="sssssssssss"
     inkscape:connector-curvature="0"
     id="path15510"
     style="font-style:normal;font-variant:normal;font-weight:bold;font-stretch:normal;font-size:122.5px;line-height:125%;font-family:sans-serif;-inkscape-font-specification:'sans-serif Bold';letter-spacing:0px;word-spacing:0px;fill:#ffffff;fill-opacity:1;stroke:none;stroke-width:1px;stroke-linecap:butt;stroke-linejoin:miter;stroke-opacity:1"
     d="m 223.6107,300.5319 c -5.2164,5.2164 -15.6875,3.5915 -22.1313,0 -20.9272,-11.6641 -14.7573,-67.6804 -37.8028,-61.1304 -19.6005,5.5709 14.4086,46.7218 0,61.1304 -4.9626,4.9626 -16.092,4.9626 -21.0546,0 -20.9925,-20.9925 -20.9925,-68.0712 0,-89.0637 6.4712,-6.4712 19.4321,-4.4032 27.4548,0 17.6738,9.7002 13.1229,56.6599 32.4792,51.0217 16.3286,-4.7562 -12.0259,-38.9958 0,-51.0217 4.9626,-4.9626 16.0921,-4.9626 21.0547,0 20.9925,20.9925 20.9925,68.0712 0,89.0637 z" />
  <path
     sodipodi:nodetypes="ssssssssssssss"
     inkscape:connector-curvature="0"
     id="path15512"
     style="font-style:normal;font-variant:normal;font-weight:bold;font-stretch:normal;font-size:122.5px;line-height:125%;font-family:sans-serif;-inkscape-font-specification:'sans-serif Bold';letter-spacing:0px;word-spacing:0px;fill:#ffffff;fill-opacity:1;stroke:none;stroke-width:1px;stroke-linecap:butt;stroke-linejoin:miter;stroke-opacity:1"
     d="m 369.3785,211.4682 c 18.7013,24.404 0.4185,70.3624 -23.9855,89.0637 -6.7259,5.1542 -18.681,5.1356 -25.4212,0 -15.9556,-12.1571 4.0887,-58.0874 -15.9705,-58.02 -20.0226,0.067 0.3339,45.8316 -15.5517,58.02 -6.7229,5.1582 -18.6953,5.1542 -25.4212,0 -24.404,-18.7013 -42.6868,-64.6597 -23.9855,-89.0637 4.8631,-6.3461 17.7461,-4.9992 23.9855,0 16.3419,13.0937 -7.2383,60.8763 13.6976,61.3098 21.1496,0.4379 -0.3898,-48.427 16.3891,-61.3098 6.0569,-4.6505 16.8798,-4.6864 22.909,0 16.6505,12.942 -5.4762,61.5136 15.6115,61.3098 20.9884,-0.2029 -2.0912,-48.2692 14.3555,-61.3098 6.1086,-4.8435 18.6455,-6.1878 23.3874,0 z" />
  <path
     id="path15590"
     d="m 59.5425,188.1827 a 31.716816,31.069534 45 0 0 0.4572,44.3971 31.716816,31.069534 45 0 0 5.6582,4.4678 c 0.2402,5.7511 0.5082,11.7173 0.5081,17.7247 2e-4,26.0116 5.2773,50.8455 14.8244,73.4174 9.5472,22.5722 23.3557,42.8868 40.4156,59.9466 17.0599,17.06 37.3759,30.8698 59.948,40.4171 22.572,9.5472 47.4062,14.8243 73.4176,14.8244 26.0115,-10e-5 50.8455,-5.2772 73.4175,-14.8244 22.5722,-9.5472 42.8881,-23.357 59.9481,-40.417 17.0599,-17.0599 30.8684,-37.3746 40.4156,-59.9467 9.5471,-22.572 14.8257,-47.4073 14.8257,-73.4189 0,-26.0116 -5.2785,-50.8441 -14.8257,-73.4162 -9.5472,-22.572 -23.3571,-42.8881 -40.4171,-59.948 -17.06,-17.0599 -37.3744,-30.8684 -59.9466,-40.4156 -22.5719,-9.5471 -47.4045,-14.8257 -73.4161,-14.8257 -6.6127,0 -14.133,0.057 -21.7905,0.3674 a 31.716816,31.069534 45 0 0 -3.1765,-3.7592 31.716816,31.069534 45 0 0 -44.3971,-0.4572 31.716816,31.069534 45 0 0 -8.198,28.5771 c -0.048,0.8316 0.1242,1.5056 0.5247,2.0992 a 31.716816,31.069534 45 0 0 8.1304,13.7209 31.716816,31.069534 45 0 0 44.3972,0.4571 31.716816,31.069534 45 0 0 8.8057,-18.6831 c 5.3691,-1.3903 10.6797,-2.3229 15.7028,-2.3229 23.3094,-10e-5 45.4627,4.717 65.6269,13.2458 20.1644,8.5288 38.3347,20.8782 53.5964,36.1398 15.2609,15.2612 27.6099,33.4312 36.1385,53.595 8.5289,20.1644 13.2458,42.3176 13.2457,65.627 10e-5,23.3094 -4.7183,45.4611 -13.2472,65.6256 -8.5287,20.1644 -20.8754,38.335 -36.1369,53.5965 -15.2616,15.2616 -33.4333,27.6097 -53.598,36.1384 -20.1642,8.5289 -42.3147,13.2458 -65.6242,13.2458 -23.3092,0 -45.4627,-4.717 -65.6268,-13.2458 -20.1646,-8.5289 -38.3365,-20.8768 -53.598,-36.1385 -15.2614,-15.2615 -27.6082,-33.4319 -36.1369,-53.5964 -8.5288,-20.1642 -13.2457,-42.3175 -13.2458,-65.6269 0,-4.2684 0.1931,-8.6904 0.5123,-13.069 a 31.716816,31.069534 45 0 0 17.7191,-8.6649 31.716816,31.069534 45 0 0 -0.4585,-44.3958 31.716816,31.069534 45 0 0 -44.3958,-0.4585 z"
     style="color:#000000;font-style:normal;font-variant:normal;font-weight:normal;font-stretch:normal;font-size:medium;line-height:normal;font-family:sans-serif;text-indent:0;text-align:start;text-decoration:none;text-decoration-line:none;text-decoration-style:solid;text-decoration-color:#000000;letter-spacing:normal;word-spacing:normal;text-transform:none;direction:ltr;block-progression:tb;writing-mode:lr-tb;baseline-shift:baseline;text-anchor:start;white-space:normal;clip-rule:nonzero;display:inline;overflow:visible;visibility:visible;opacity:1;isolation:auto;mix-blend-mode:normal;color-interpolation:sRGB;color-interpolation-filters:linearRGB;solid-color:#000000;solid-opacity:1;fill:#ffffff;fill-opacity:1;fill-rule:nonzero;stroke:none;stroke-width:20;stroke-linecap:butt;stroke-linejoin:miter;stroke-miterlimit:4;stroke-dasharray:none;stroke-dashoffset:174;stroke-opacity:1;color-rendering:auto;image-rendering:auto;shape-rendering:auto;text-rendering:auto;enable-background:accumulate"
     inkscape:connector-curvature="0" />
  <g
     style="font-style:normal;font-weight:normal;font-size:20px;line-height:125%;font-family:sans-serif;letter-spacing:0px;word-spacing:0px;fill:#000000;fill-opacity:1;stroke:none;stroke-width:1px;stroke-linecap:butt;stroke-linejoin:miter;stroke-opacity:1"
     id="text15804"
     transform="translate(5811.9242,-1131.2452)" />
  <circle
     style="fill:none;stroke:#ffffff;stroke-width:14.53779507;stroke-linecap:butt;stroke-miterlimit:4;stroke-dasharray:none;stroke-dashoffset:134"
     id="path5043"
     cx="5996"
     cy="-2616.0999"
     r="0" />
</svg>
