<?xml version="1.0" encoding="UTF-8" standalone="no"?>
<svg
   xmlns:dc="http://purl.org/dc/elements/1.1/"
   xmlns:cc="http://creativecommons.org/ns#"
   xmlns:rdf="http://www.w3.org/1999/02/22-rdf-syntax-ns#"
   xmlns:svg="http://www.w3.org/2000/svg"
   xmlns="http://www.w3.org/2000/svg"
   xmlns:sodipodi="http://sodipodi.sourceforge.net/DTD/sodipodi-0.dtd"
   xmlns:inkscape="http://www.inkscape.org/namespaces/inkscape"
   viewBox="0 0 512 512"
   id="svg2"
   version="1.1"
   inkscape:version="0.91 r13725"
   sodipodi:docname="directions-dashed-north.svg">
  <metadata
     id="metadata12">
    <rdf:RDF>
      <cc:Work
         rdf:about="">
        <dc:format>image/svg+xml</dc:format>
        <dc:type
           rdf:resource="http://purl.org/dc/dcmitype/StillImage" />
        <dc:title />
      </cc:Work>
    </rdf:RDF>
  </metadata>
  <defs
     id="defs10">
    <marker
       inkscape:isstock="true"
       style="overflow:visible;"
       id="marker6040"
       refX="0.0"
       refY="0.0"
       orient="auto"
       inkscape:stockid="Arrow2Send">
      <path
         transform="scale(0.3) rotate(180) translate(-2.3,0)"
         d="M 8.7185878,4.0337352 L -2.2072895,0.016013256 L 8.7185884,-4.0017078 C 6.9730900,-1.6296469 6.9831476,1.6157441 8.7185878,4.0337352 z "
         style="fill-rule:evenodd;stroke-width:0.625;stroke-linejoin:round;stroke:#ffffff;stroke-opacity:1;fill:#ffffff;fill-opacity:1"
         id="path6042" />
    </marker>
    <marker
       inkscape:isstock="true"
       style="overflow:visible;"
       id="marker5994"
       refX="0.0"
       refY="0.0"
       orient="auto"
       inkscape:stockid="Arrow2Send">
      <path
         transform="scale(0.3) rotate(180) translate(-2.3,0)"
         d="M 8.7185878,4.0337352 L -2.2072895,0.016013256 L 8.7185884,-4.0017078 C 6.9730900,-1.6296469 6.9831476,1.6157441 8.7185878,4.0337352 z "
         style="fill-rule:evenodd;stroke-width:0.625;stroke-linejoin:round;stroke:#ffffff;stroke-opacity:1;fill:#ffffff;fill-opacity:1"
         id="path5996" />
    </marker>
    <marker
       inkscape:isstock="true"
       style="overflow:visible;"
       id="marker5954"
       refX="0.0"
       refY="0.0"
       orient="auto"
       inkscape:stockid="Arrow2Send">
      <path
         transform="scale(0.3) rotate(180) translate(-2.3,0)"
         d="M 8.7185878,4.0337352 L -2.2072895,0.016013256 L 8.7185884,-4.0017078 C 6.9730900,-1.6296469 6.9831476,1.6157441 8.7185878,4.0337352 z "
         style="fill-rule:evenodd;stroke-width:0.625;stroke-linejoin:round;stroke:#ffffff;stroke-opacity:1;fill:#ffffff;fill-opacity:1"
         id="path5956" />
    </marker>
    <marker
       inkscape:isstock="true"
       style="overflow:visible;"
       id="marker5920"
       refX="0.0"
       refY="0.0"
       orient="auto"
       inkscape:stockid="Arrow2Send">
      <path
         transform="scale(0.3) rotate(180) translate(-2.3,0)"
         d="M 8.7185878,4.0337352 L -2.2072895,0.016013256 L 8.7185884,-4.0017078 C 6.9730900,-1.6296469 6.9831476,1.6157441 8.7185878,4.0337352 z "
         style="fill-rule:evenodd;stroke-width:0.625;stroke-linejoin:round;stroke:#ffffff;stroke-opacity:1;fill:#ffffff;fill-opacity:1"
         id="path5922" />
    </marker>
    <marker
       inkscape:isstock="true"
       style="overflow:visible;"
       id="marker5892"
       refX="0.0"
       refY="0.0"
       orient="auto"
       inkscape:stockid="Arrow2Send">
      <path
         transform="scale(0.3) rotate(180) translate(-2.3,0)"
         d="M 8.7185878,4.0337352 L -2.2072895,0.016013256 L 8.7185884,-4.0017078 C 6.9730900,-1.6296469 6.9831476,1.6157441 8.7185878,4.0337352 z "
         style="fill-rule:evenodd;stroke-width:0.625;stroke-linejoin:round;stroke:#ffffff;stroke-opacity:1;fill:#ffffff;fill-opacity:1"
         id="path5894" />
    </marker>
    <marker
       inkscape:isstock="true"
       style="overflow:visible;"
       id="marker5870"
       refX="0.0"
       refY="0.0"
       orient="auto"
       inkscape:stockid="Arrow2Send">
      <path
         transform="scale(0.3) rotate(180) translate(-2.3,0)"
         d="M 8.7185878,4.0337352 L -2.2072895,0.016013256 L 8.7185884,-4.0017078 C 6.9730900,-1.6296469 6.9831476,1.6157441 8.7185878,4.0337352 z "
         style="fill-rule:evenodd;stroke-width:0.625;stroke-linejoin:round;stroke:#ffffff;stroke-opacity:1;fill:#ffffff;fill-opacity:1"
         id="path5872" />
    </marker>
  </defs>
  <sodipodi:namedview
     pagecolor="#ffffff"
     bordercolor="#666666"
     borderopacity="1"
     objecttolerance="10"
     gridtolerance="10"
     guidetolerance="10"
     inkscape:pageopacity="0"
     inkscape:pageshadow="2"
     inkscape:window-width="1829"
     inkscape:window-height="966"
     id="namedview8"
     showgrid="false"
     inkscape:zoom="1.5449218"
     inkscape:cx="256"
     inkscape:cy="256"
     inkscape:window-x="-8"
     inkscape:window-y="-8"
     inkscape:window-maximized="1"
     inkscape:current-layer="svg2"
     showguides="false"
     inkscape:guide-bbox="true"
     inkscape:snap-center="true"
     inkscape:snap-global="true"
     inkscape:snap-bbox="true" />
  <path
     style="fill:#000000;stroke:#ffffff;stroke-width:0"
     inkscape:connector-curvature="0"
     d="m 0,0 512,0 0,512 -512,0 z"
     id="path5448" />
  <path
     inkscape:connector-curvature="0"
     id="path4634"
     style="font-style:normal;font-variant:normal;font-weight:bold;font-stretch:normal;font-size:183.75px;line-height:125%;font-family:sans-serif;-inkscape-font-specification:'sans-serif Bold';letter-spacing:0px;word-spacing:0px;fill:#ffffff;fill-opacity:1;stroke:none;stroke-width:1px;stroke-linecap:butt;stroke-linejoin:miter;stroke-opacity:1"
     d="m 316.7416,322.7977 -33.197,0 -56.7041,-91.6955 0,91.6955 -31.5821,0 0,-133.5956 41.1823,0 48.7189,76.5326 0,-76.5326 31.582,0 0,133.5956 z" />
  <path
     style="color:#000000;font-style:normal;font-variant:normal;font-weight:normal;font-stretch:normal;font-size:medium;line-height:normal;font-family:sans-serif;text-indent:0;text-align:start;text-decoration:none;text-decoration-line:none;text-decoration-style:solid;text-decoration-color:#000000;letter-spacing:normal;word-spacing:normal;text-transform:none;direction:ltr;block-progression:tb;writing-mode:lr-tb;baseline-shift:baseline;text-anchor:start;white-space:normal;clip-rule:nonzero;display:inline;overflow:visible;visibility:visible;opacity:1;isolation:auto;mix-blend-mode:normal;color-interpolation:sRGB;color-interpolation-filters:linearRGB;solid-color:#000000;solid-opacity:1;fill:#ffffff;fill-opacity:1;fill-rule:nonzero;stroke:none;stroke-width:20;stroke-linecap:butt;stroke-linejoin:miter;stroke-miterlimit:4;stroke-dasharray:80, 40;stroke-dashoffset:86;stroke-opacity:1;color-rendering:auto;image-rendering:auto;shape-rendering:auto;text-rendering:auto;enable-background:accumulate"
     d="m 347.08984,109.78711 -1.95703,3.04492 0.0762,0.0488 3.57618,2.29687 3.41601,2.31836 3.50977,2.51172 3.4082,2.57227 3.27148,2.59961 3.29883,2.75976 3.24805,2.86133 3.15039,2.92188 3.13477,3.05468 3.05468,3.13477 2.92188,3.15039 2.86133,3.24805 2.75976,3.29883 2.63867,3.31835 2.53321,3.35938 2.51172,3.51172 2.32031,3.41797 1.52344,2.37109 16.82617,-10.81055 -1.58008,-2.45703 -0.0664,-0.10547 -0.0703,-0.10546 -2.50391,-3.68946 -0.0703,-0.10351 -0.0742,-0.10157 -2.60547,-3.64062 -0.0723,-0.10156 -0.0762,-0.10157 -2.70703,-3.58789 -0.0762,-0.10156 -0.0781,-0.0977 -2.81055,-3.53515 -0.0781,-0.0996 -0.082,-0.0957 -2.91016,-3.48047 -0.082,-0.0957 -0.084,-0.0957 -3.01367,-3.42187 -0.084,-0.0957 -0.0859,-0.0918 -3.11523,-3.36329 -0.0859,-0.0918 -0.0898,-0.0918 -3.21876,-3.30078 -0.0879,-0.0898 -0.0898,-0.0879 -3.30078,-3.21876 -0.0918,-0.0898 -0.0918,-0.0859 -3.36329,-3.11523 -0.0918,-0.0859 -0.0957,-0.084 -3.42187,-3.01367 -0.0957,-0.084 -0.0957,-0.082 -3.48047,-2.91016 -0.0957,-0.082 -0.0996,-0.0781 -3.53515,-2.81055 -0.0977,-0.0781 -0.10156,-0.0762 -3.58789,-2.70703 -0.10157,-0.0762 -0.10156,-0.0723 -3.64062,-2.60547 -0.10157,-0.0742 -0.10351,-0.0703 -3.68946,-2.503911 -0.10546,-0.07031 -0.10352,-0.06641 -3.73828,-2.402344 -0.10547,-0.06641 -0.10742,-0.06445 -0.13477,-0.08203 z m -194.76953,-11.38086 -0.10547,0.06641 -0.10546,0.07031 -3.68946,2.503911 -0.10351,0.0703 -0.10157,0.0742 -3.64062,2.60547 -0.10156,0.0723 -0.10157,0.0762 -3.58789,2.70703 -0.10156,0.0762 -0.0977,0.0781 -3.53515,2.81055 -0.0996,0.0781 -0.0957,0.082 -3.48047,2.91016 -0.0957,0.082 -0.0957,0.084 -3.42187,3.01367 -0.0957,0.084 -0.0918,0.0859 -3.36329,3.11523 -0.0918,0.0859 -0.0918,0.0898 -3.30078,3.21876 -0.0898,0.0879 -0.0879,0.0898 -3.21876,3.30078 -0.0898,0.0918 -0.0859,0.0918 -3.11523,3.36329 -0.0859,0.0918 -0.084,0.0957 -3.01367,3.42187 -0.084,0.0957 -0.082,0.0957 -2.91016,3.48047 -0.082,0.0957 -0.0781,0.0996 -2.81055,3.53515 -0.0781,0.0977 -0.0762,0.10156 -2.70703,3.58789 -0.0762,0.10157 -0.0723,0.10156 -2.60547,3.64062 -0.0742,0.10157 -0.0703,0.10351 -2.503911,3.68946 -0.07031,0.10546 -0.06641,0.10547 -2.402344,3.73633 -0.06641,0.10547 -0.06445,0.10742 -0.998047,1.63867 17.0918,10.38672 0.92773,-1.52539 2.2832,-3.55469 2.31836,-3.41601 2.51172,-3.51172 2.53321,-3.35938 2.63867,-3.31835 2.75976,-3.29883 2.86133,-3.24805 2.92188,-3.15039 3.05468,-3.13477 3.13477,-3.05468 3.15039,-2.92188 3.24805,-2.86133 3.29883,-2.75976 3.27148,-2.59961 3.4082,-2.57227 3.50977,-2.51172 3.41406,-2.3164 0.89453,-0.57422 -10.81054,-16.828126 z m 262.56055,101.05664 0.2793,0.76758 1.29687,3.86328 1.1875,3.83594 1.12695,3.98633 1.01758,3.95507 0.89649,3.88282 0.83984,4.06836 0.72461,4.00585 0.61328,3.91602 0.53125,4.02344 0.4375,4.0332 0.33789,4.04102 0.24219,4.05468 0.14648,4.05079 0.0469,4.05273 -0.0469,4.05273 -0.14648,4.05274 -0.24219,4.04687 -0.33789,4.04493 -0.16992,1.5625 19.88477,2.14453 0.18554,-1.71289 0.0117,-0.11914 0.01,-0.11915 0.35742,-4.27148 0.0117,-0.11914 0.006,-0.11914 0.25586,-4.2793 0.008,-0.11914 0.004,-0.11914 0.15235,-4.2832 0.004,-0.11914 0.002,-0.11914 0.0508,-4.28516 0.002,-0.11914 -0.002,-0.11914 -0.0508,-4.28516 -0.002,-0.11914 -0.004,-0.11914 -0.15235,-4.2832 -0.004,-0.11914 -0.008,-0.11914 -0.25586,-4.2793 -0.006,-0.11914 -0.0117,-0.11914 -0.35742,-4.27148 -0.01,-0.11915 -0.0117,-0.11914 -0.46094,-4.26562 -0.0117,-0.11914 -0.0156,-0.11719 -0.5625,-4.25586 -0.0156,-0.11914 -0.0195,-0.11719 -0.66406,-4.24414 -0.0176,-0.11914 -0.0215,-0.11719 -0.76563,-4.23046 -0.0215,-0.11719 -0.0254,-0.11719 -0.86719,-4.21484 -0.0254,-0.11719 -0.0273,-0.11719 -0.97071,-4.19531 -0.0273,-0.11719 -0.0293,-0.11719 -1.07226,-4.17578 -0.0312,-0.11718 -0.0332,-0.11719 -1.17383,-4.1543 -0.0332,-0.11523 -0.0351,-0.11719 -1.27735,-4.12891 -0.0371,-0.11718 -0.0391,-0.11524 -1.3789,-4.10351 -0.0391,-0.11524 -0.041,-0.11523 -0.31446,-0.86719 z m -338.332032,-1.63086 -0.03906,0.11524 -0.03711,0.11718 -1.277344,4.12891 -0.03516,0.11719 -0.0332,0.11523 -1.173828,4.1543 -0.0332,0.11719 -0.03125,0.11718 -1.072266,4.17578 -0.0293,0.11719 -0.02734,0.11719 -0.970704,4.19531 -0.02734,0.11719 -0.02539,0.11719 -0.867187,4.21484 -0.02539,0.11719 -0.02148,0.11719 -0.765625,4.23046 -0.02148,0.11719 -0.01758,0.11914 -0.664062,4.24414 -0.01953,0.11719 -0.01563,0.11914 -0.5625,4.25586 -0.01563,0.11719 -0.01172,0.11914 -0.460938,4.26562 -0.01172,0.11914 -0.0098,0.11915 -0.357422,4.27148 -0.0098,0.11914 -0.0078,0.11914 -0.25586,4.2793 -0.0078,0.11914 -0.0039,0.11914 -0.152344,4.2832 -0.0039,0.11914 -0.002,0.11914 -0.05078,4.28516 -0.002,0.11914 0.002,0.11914 0.05078,4.28516 0.002,0.11914 0.0039,0.11914 0.152344,4.2832 0.0039,0.11914 0.0078,0.11914 0.25586,4.2793 0.0078,0.11914 0.0098,0.11914 0.357422,4.27148 0.0098,0.11915 0.01172,0.11914 0.460938,4.26562 0.01172,0.11914 0.01563,0.11719 0.115235,0.86523 19.828125,-2.61914 -0.0957,-0.71484 -0.435547,-4.02539 -0.337891,-4.04102 -0.242187,-4.05468 -0.146485,-4.05079 -0.04687,-4.05273 0.04687,-4.05273 0.146485,-4.05079 0.242187,-4.05468 0.337891,-4.04102 0.4375,-4.0332 0.53125,-4.02344 0.613281,-3.91602 0.724609,-4.00585 0.839844,-4.06836 0.896485,-3.88282 1.017578,-3.95507 1.126953,-3.98633 1.185547,-3.83399 0.542968,-1.60937 -18.958984,-6.3711 z m 338.611332,113.93359 -1.42774,3.92774 -1.45898,3.72852 -1.60352,3.82031 -1.71875,3.82617 -0.0195,0.041 -1.7207,3.58789 -1.89453,3.71875 -1.95899,3.61523 -2.08789,3.64063 -2.10156,3.46093 -0.0274,0.043 -2.31835,3.60938 -2.35352,3.46875 -2.43945,3.4082 -2.57032,3.41016 -2.63867,3.31835 -2.75976,3.29883 -2.86133,3.24805 -2.95899,3.18945 -2.11132,2.16602 14.32031,13.96094 2.22266,-2.2793 0.0898,-0.0918 0.0859,-0.0918 3.11523,-3.36329 0.0859,-0.0918 0.084,-0.0957 3.01367,-3.42187 0.084,-0.0957 0.082,-0.0957 2.91211,-3.48047 0.0801,-0.0957 0.0781,-0.0996 2.81055,-3.53515 0.0781,-0.0977 0.0762,-0.10156 2.70703,-3.58789 0.0762,-0.10157 0.0723,-0.10156 2.60547,-3.64062 0.0742,-0.10157 0.0703,-0.10351 2.50391,-3.68946 0.0703,-0.10546 0.0664,-0.10352 2.40234,-3.73828 0.0664,-0.10547 0.0645,-0.10742 2.29883,-3.78125 0.0664,-0.10742 0.0605,-0.10742 2.19727,-3.82813 0.0625,-0.10742 0.0586,-0.10938 2.09571,-3.86718 0.0586,-0.10938 0.0566,-0.11133 1.99219,-3.9082 0.0547,-0.10938 0.0547,-0.11132 1.89063,-3.94532 0.0527,-0.11132 0.0508,-0.11329 1.78711,-3.98046 0.0508,-0.11329 0.0469,-0.11328 1.68555,-4.01367 0.0488,-0.11328 0.0449,-0.11523 1.58203,-4.04688 0.0449,-0.11328 0.043,-0.11524 1.48047,-4.07617 0.041,-0.11523 0.0391,-0.11524 0.42773,-1.27343 -18.95703,-6.3711 z m -336.435551,8.70704 0.763672,2.10546 0.04297,0.11524 0.04492,0.11328 1.582031,4.04688 0.04492,0.11523 0.04883,0.11328 1.685547,4.01367 0.04687,0.11328 0.05078,0.11329 1.78711,3.98046 0.05078,0.11329 0.05469,0.11132 1.888672,3.94532 0.05469,0.11132 0.05469,0.10938 1.992188,3.9082 0.05664,0.11133 0.06055,0.10938 2.09375,3.86718 0.05859,0.10938 0.0625,0.10742 2.197266,3.82813 0.06055,0.10742 0.06641,0.10742 2.298828,3.78125 0.06445,0.10742 0.06641,0.10547 2.402344,3.73828 0.06641,0.10352 0.07031,0.10546 2.503911,3.68946 0.0703,0.10351 0.0742,0.10157 2.60547,3.64062 0.0723,0.10156 0.0762,0.10157 2.70703,3.58789 0.0762,0.10156 0.0781,0.0977 2.81055,3.53515 0.0781,0.0996 0.082,0.0957 2.91016,3.48047 0.082,0.0957 0.084,0.0957 3.01367,3.42187 0.084,0.0957 0.0859,0.0918 3.11523,3.36329 0.0859,0.0918 0.0898,0.0918 3.21876,3.30078 0.0879,0.0898 0.0898,0.0879 1.44141,1.40626 13.96289,-14.32032 -1.35157,-1.3164 -3.05468,-3.13477 -2.92188,-3.15039 -2.86133,-3.24805 -2.75976,-3.29883 -2.59961,-3.27148 -2.57227,-3.4082 -2.51172,-3.50977 -2.31836,-3.41601 -2.2832,-3.55469 -2.16406,-3.56055 -2.08789,-3.63867 -1.95899,-3.61523 -1.89453,-3.7168 -1.76758,-3.69531 -1.6914,-3.76172 -1.603518,-3.82031 -1.458984,-3.72852 -0.746094,-2.05274 z m 266.451171,78.66796 -0.043,0.0274 -3.46093,2.10156 -3.64063,2.08789 -3.61523,1.95899 -3.71875,1.89453 -3.58789,1.7207 -0.041,0.0195 -3.82617,1.71875 -3.82031,1.60352 -3.72852,1.45898 -3.92774,1.42774 -3.85937,1.29687 -3.83594,1.1875 -3.98633,1.12695 -3.95507,1.01758 -3.89844,0.90039 -4.05274,0.83594 -3.99218,0.72266 -3.93164,0.61523 -3.89649,0.51563 2.61914,19.82812 3.97266,-0.52539 0.11914,-0.0156 0.11914,-0.0195 4.24219,-0.66406 0.11914,-0.0176 0.11719,-0.0215 4.23046,-0.76563 0.11719,-0.0215 0.11719,-0.0254 4.21484,-0.86719 0.11719,-0.0254 0.11719,-0.0273 4.19531,-0.97071 0.11719,-0.0273 0.11719,-0.0293 4.17578,-1.07226 0.11718,-0.0312 0.11719,-0.0332 4.1543,-1.17383 0.11523,-0.0332 0.11719,-0.0351 4.12891,-1.27735 0.11718,-0.0371 0.11524,-0.0371 4.10351,-1.38085 0.11524,-0.0391 0.11523,-0.041 4.07617,-1.48047 0.11524,-0.043 0.11328,-0.0449 4.04688,-1.58203 0.11523,-0.0449 0.11328,-0.0488 4.01367,-1.68555 0.11328,-0.0469 0.11329,-0.0508 3.98046,-1.78711 0.11329,-0.0508 0.11132,-0.0527 3.94532,-1.89063 0.11132,-0.0547 0.10938,-0.0547 3.9082,-1.99219 0.11133,-0.0566 0.10938,-0.0606 3.86718,-2.09375 0.10938,-0.0586 0.10742,-0.0625 3.82813,-2.19727 0.10742,-0.0605 0.10742,-0.0664 3.78125,-2.29883 0.10742,-0.0645 0.10547,-0.0664 1.77344,-1.13867 -10.81055,-16.82812 z m -187.76758,17.67969 2.64258,1.60547 0.10742,0.0664 0.10742,0.0605 3.82813,2.19727 0.10742,0.0625 0.10938,0.0586 3.86718,2.09375 0.10938,0.0606 0.11133,0.0566 3.9082,1.99219 0.10938,0.0547 0.11132,0.0547 3.94532,1.88868 0.11132,0.0547 0.11329,0.0508 3.98046,1.78711 0.11329,0.0508 0.11328,0.0469 4.01367,1.68555 0.11328,0.0488 0.11523,0.043 4.04688,1.58399 0.11328,0.0449 0.11524,0.043 4.07617,1.48047 0.11523,0.041 0.11524,0.0391 4.10351,1.3789 0.11524,0.0391 0.11718,0.0371 4.12891,1.27735 0.11719,0.0351 0.11523,0.0332 4.1543,1.17383 0.11719,0.0332 0.11718,0.0312 4.17578,1.07226 0.11719,0.0293 0.11719,0.0273 4.19531,0.97071 0.11719,0.0273 0.11719,0.0254 4.21484,0.86719 0.11719,0.0254 0.11719,0.0215 4.23046,0.76563 0.11719,0.0215 0.11914,0.0176 4.24414,0.66406 0.11719,0.0195 0.11914,0.0156 4.25586,0.5625 0.11719,0.0156 0.11914,0.0117 3.13672,0.3379 2.14453,-19.88477 -3.05664,-0.33008 -4.02344,-0.53125 -3.91602,-0.61328 -4.00585,-0.72461 -4.06836,-0.83984 -3.88282,-0.89649 -3.95507,-1.01562 -3.98438,-1.12891 -3.83789,-1.1875 -3.85937,-1.29687 -3.92774,-1.42774 -3.72852,-1.45898 -3.82031,-1.60352 -3.76172,-1.6914 -3.69531,-1.76758 -3.71484,-1.89453 -3.65039,-1.97852 -3.60743,-2.06836 -2.53515,-1.54101 z"
     id="path5498"
     inkscape:connector-curvature="0" />
  <path
     style="fill:#ffffff;stroke:none;stroke-width:20;stroke-miterlimit:4;stroke-dasharray:none"
     inkscape:transform-center-x="-105.23139"
     inkscape:transform-center-y="-107.44635"
     d="m 312.0058,126.687 -28.786,-49.8588 -28.786,-49.8588 -28.7861,49.8588 -28.7859,49.8588 c 0,0 38.3813,-21.6744 57.572,-21.6745 19.1907,0 57.572,21.6745 57.572,21.6745 z"
     id="path5500"
     inkscape:connector-curvature="0"
     sodipodi:nodetypes="ccccczc" />
  <circle
     style="fill:none;stroke:#ffffff;stroke-width:14.53779507;stroke-linecap:butt;stroke-miterlimit:4;stroke-dasharray:none;stroke-dashoffset:134"
     id="path5043"
     cx="4256"
     cy="255.99998"
     r="0" />
</svg>
