<?xml version="1.0" encoding="UTF-8" standalone="no"?>
<svg
   xmlns:dc="http://purl.org/dc/elements/1.1/"
   xmlns:cc="http://creativecommons.org/ns#"
   xmlns:rdf="http://www.w3.org/1999/02/22-rdf-syntax-ns#"
   xmlns:svg="http://www.w3.org/2000/svg"
   xmlns="http://www.w3.org/2000/svg"
   xmlns:sodipodi="http://sodipodi.sourceforge.net/DTD/sodipodi-0.dtd"
   xmlns:inkscape="http://www.inkscape.org/namespaces/inkscape"
   viewBox="0 0 512 512"
   id="svg2"
   version="1.1"
   inkscape:version="0.91 r13725"
   sodipodi:docname="directions-dashed-dotted-south.svg">
  <metadata
     id="metadata12">
    <rdf:RDF>
      <cc:Work
         rdf:about="">
        <dc:format>image/svg+xml</dc:format>
        <dc:type
           rdf:resource="http://purl.org/dc/dcmitype/StillImage" />
        <dc:title />
      </cc:Work>
    </rdf:RDF>
  </metadata>
  <defs
     id="defs10">
    <marker
       inkscape:isstock="true"
       style="overflow:visible;"
       id="marker6040"
       refX="0.0"
       refY="0.0"
       orient="auto"
       inkscape:stockid="Arrow2Send">
      <path
         transform="scale(0.3) rotate(180) translate(-2.3,0)"
         d="M 8.7185878,4.0337352 L -2.2072895,0.016013256 L 8.7185884,-4.0017078 C 6.9730900,-1.6296469 6.9831476,1.6157441 8.7185878,4.0337352 z "
         style="fill-rule:evenodd;stroke-width:0.625;stroke-linejoin:round;stroke:#ffffff;stroke-opacity:1;fill:#ffffff;fill-opacity:1"
         id="path6042" />
    </marker>
    <marker
       inkscape:isstock="true"
       style="overflow:visible;"
       id="marker5994"
       refX="0.0"
       refY="0.0"
       orient="auto"
       inkscape:stockid="Arrow2Send">
      <path
         transform="scale(0.3) rotate(180) translate(-2.3,0)"
         d="M 8.7185878,4.0337352 L -2.2072895,0.016013256 L 8.7185884,-4.0017078 C 6.9730900,-1.6296469 6.9831476,1.6157441 8.7185878,4.0337352 z "
         style="fill-rule:evenodd;stroke-width:0.625;stroke-linejoin:round;stroke:#ffffff;stroke-opacity:1;fill:#ffffff;fill-opacity:1"
         id="path5996" />
    </marker>
    <marker
       inkscape:isstock="true"
       style="overflow:visible;"
       id="marker5954"
       refX="0.0"
       refY="0.0"
       orient="auto"
       inkscape:stockid="Arrow2Send">
      <path
         transform="scale(0.3) rotate(180) translate(-2.3,0)"
         d="M 8.7185878,4.0337352 L -2.2072895,0.016013256 L 8.7185884,-4.0017078 C 6.9730900,-1.6296469 6.9831476,1.6157441 8.7185878,4.0337352 z "
         style="fill-rule:evenodd;stroke-width:0.625;stroke-linejoin:round;stroke:#ffffff;stroke-opacity:1;fill:#ffffff;fill-opacity:1"
         id="path5956" />
    </marker>
    <marker
       inkscape:isstock="true"
       style="overflow:visible;"
       id="marker5920"
       refX="0.0"
       refY="0.0"
       orient="auto"
       inkscape:stockid="Arrow2Send">
      <path
         transform="scale(0.3) rotate(180) translate(-2.3,0)"
         d="M 8.7185878,4.0337352 L -2.2072895,0.016013256 L 8.7185884,-4.0017078 C 6.9730900,-1.6296469 6.9831476,1.6157441 8.7185878,4.0337352 z "
         style="fill-rule:evenodd;stroke-width:0.625;stroke-linejoin:round;stroke:#ffffff;stroke-opacity:1;fill:#ffffff;fill-opacity:1"
         id="path5922" />
    </marker>
    <marker
       inkscape:isstock="true"
       style="overflow:visible;"
       id="marker5892"
       refX="0.0"
       refY="0.0"
       orient="auto"
       inkscape:stockid="Arrow2Send">
      <path
         transform="scale(0.3) rotate(180) translate(-2.3,0)"
         d="M 8.7185878,4.0337352 L -2.2072895,0.016013256 L 8.7185884,-4.0017078 C 6.9730900,-1.6296469 6.9831476,1.6157441 8.7185878,4.0337352 z "
         style="fill-rule:evenodd;stroke-width:0.625;stroke-linejoin:round;stroke:#ffffff;stroke-opacity:1;fill:#ffffff;fill-opacity:1"
         id="path5894" />
    </marker>
    <marker
       inkscape:isstock="true"
       style="overflow:visible;"
       id="marker5870"
       refX="0.0"
       refY="0.0"
       orient="auto"
       inkscape:stockid="Arrow2Send">
      <path
         transform="scale(0.3) rotate(180) translate(-2.3,0)"
         d="M 8.7185878,4.0337352 L -2.2072895,0.016013256 L 8.7185884,-4.0017078 C 6.9730900,-1.6296469 6.9831476,1.6157441 8.7185878,4.0337352 z "
         style="fill-rule:evenodd;stroke-width:0.625;stroke-linejoin:round;stroke:#ffffff;stroke-opacity:1;fill:#ffffff;fill-opacity:1"
         id="path5872" />
    </marker>
  </defs>
  <sodipodi:namedview
     pagecolor="#ffffff"
     bordercolor="#666666"
     borderopacity="1"
     objecttolerance="10"
     gridtolerance="10"
     guidetolerance="10"
     inkscape:pageopacity="0"
     inkscape:pageshadow="2"
     inkscape:window-width="1829"
     inkscape:window-height="966"
     id="namedview8"
     showgrid="false"
     inkscape:zoom="1.5449218"
     inkscape:cx="256"
     inkscape:cy="256"
     inkscape:window-x="-8"
     inkscape:window-y="-8"
     inkscape:window-maximized="1"
     inkscape:current-layer="svg2"
     showguides="false"
     inkscape:guide-bbox="true"
     inkscape:snap-center="true"
     inkscape:snap-global="true"
     inkscape:snap-bbox="true" />
  <path
     style="fill:#000000;stroke:#ffffff;stroke-width:0"
     inkscape:connector-curvature="0"
     d="m 0,-1e-6 512,0 L 512,512 0,512 Z"
     id="path15296" />
  <path
     inkscape:connector-curvature="0"
     id="path4576"
     style="font-style:normal;font-variant:normal;font-weight:bold;font-stretch:normal;font-size:183.75px;line-height:125%;font-family:sans-serif;-inkscape-font-specification:'sans-serif Bold';letter-spacing:0px;word-spacing:0px;fill:#ffffff;fill-opacity:1;stroke:none;stroke-width:1px;stroke-linecap:butt;stroke-linejoin:miter;stroke-opacity:1"
     d="m 313.108,280.80806 q 0,19.73877 -16.7779,32.12036 -16.6882,12.29187 -45.3992,12.29187 -16.5985,0 -28.9801,-2.87109 -12.2919,-2.96082 -23.0585,-7.4469 l 0,-32.03064 3.7684,0 q 10.6768,8.52356 23.8659,13.09936 13.2788,4.57581 25.481,4.57581 3.1402,0 8.2544,-0.53833 5.1141,-0.53833 8.3441,-1.79443 3.9477,-1.61499 6.4599,-4.03748 2.602,-2.42249 2.602,-7.17773 0,-4.39637 -3.7683,-7.53663 -3.6786,-3.22998 -10.8564,-4.93469 -7.5366,-1.79443 -15.9704,-3.3197 -8.3441,-1.61499 -15.7013,-4.03748 -16.8677,-5.47302 -24.3146,-14.80407 -7.3572,-9.42078 -7.3572,-23.32764 0,-18.66211 16.6883,-30.41565 16.7779,-11.84326 43.0664,-11.84326 13.1891,0 26.0193,2.60193 12.9199,2.51221 22.3407,6.37024 l 0,30.77453 -3.6786,0 q -8.075,-6.45996 -19.8285,-10.7666 -11.6638,-4.39636 -23.866,-4.39636 -4.3066,0 -8.6133,0.62805 -4.2169,0.53833 -8.1646,2.15332 -3.4992,1.34583 -6.0114,4.1272 -2.5122,2.69165 -2.5122,6.19079 0,5.29358 4.0375,8.16468 4.0374,2.78137 15.2527,5.11413 7.3571,1.52527 14.0863,2.96082 6.8188,1.43555 14.6246,3.94775 15.3424,5.02442 22.6099,13.72742 7.3571,8.61328 7.3571,22.43042 z" />
  <path
     style="color:#000000;font-style:normal;font-variant:normal;font-weight:normal;font-stretch:normal;font-size:medium;line-height:normal;font-family:sans-serif;text-indent:0;text-align:start;text-decoration:none;text-decoration-line:none;text-decoration-style:solid;text-decoration-color:#000000;letter-spacing:normal;word-spacing:normal;text-transform:none;direction:ltr;block-progression:tb;writing-mode:lr-tb;baseline-shift:baseline;text-anchor:start;white-space:normal;clip-rule:nonzero;display:inline;overflow:visible;visibility:visible;opacity:1;isolation:auto;mix-blend-mode:normal;color-interpolation:sRGB;color-interpolation-filters:linearRGB;solid-color:#000000;solid-opacity:1;fill:#ffffff;fill-opacity:1;fill-rule:nonzero;stroke:none;stroke-width:20;stroke-linecap:butt;stroke-linejoin:miter;stroke-miterlimit:4;stroke-dasharray:80, 40, 20, 40;stroke-dashoffset:174;stroke-opacity:1;color-rendering:auto;image-rendering:auto;shape-rendering:auto;text-rendering:auto;enable-background:accumulate"
     d="m 255.88086,67.394531 -4.28516,0.05078 -0.11914,0.002 -0.11914,0.0039 -4.2832,0.152344 -0.11914,0.0039 -0.11914,0.0078 -4.2793,0.25586 -0.11914,0.0078 -0.11914,0.0098 -0.85742,0.07031 1.66797,19.931641 0.7207,-0.06055 4.04492,-0.242187 4.05274,-0.146485 4.05273,-0.04687 4.05273,0.04687 1.86915,0.06836 0.71484,-19.988282 -1.99414,-0.07031 -0.11914,-0.0039 -0.11914,-0.002 -4.28516,-0.05078 -0.11914,-0.002 z m 43.39844,25.626953 0.80664,0.207032 3.98242,1.126953 3.83789,1.1875 3.85937,1.296875 3.92774,1.427734 3.72852,1.458984 3.82031,1.603518 3.76172,1.6914 3.69531,1.76758 3.71484,1.89453 3.65039,1.97852 3.55078,2.03516 3.61719,2.19921 3.55274,2.28125 3.41601,2.31836 3.50977,2.51172 3.4082,2.57227 3.27148,2.59961 3.20118,2.67969 12.83593,-15.33594 -3.28125,-2.7461 -0.0957,-0.082 -0.0996,-0.0781 -3.53515,-2.81055 -0.0977,-0.0781 -0.10156,-0.0762 -3.58789,-2.70703 -0.10157,-0.0762 -0.10156,-0.0723 -3.64062,-2.60547 -0.10157,-0.0742 -0.10351,-0.0703 -3.68946,-2.503911 -0.10546,-0.07031 -0.10547,-0.06641 -3.73633,-2.402344 -0.10547,-0.06641 -0.10742,-0.06445 -3.78125,-2.298828 -0.10742,-0.06641 -0.10742,-0.06055 -3.82813,-2.197266 -0.10742,-0.0625 -0.10938,-0.05859 -3.86718,-2.09375 -0.10938,-0.06055 -0.11133,-0.05469 -3.9082,-1.994141 -0.10938,-0.05469 -0.11132,-0.05469 -3.94532,-1.888672 -0.11132,-0.05469 -0.11329,-0.05078 -3.98046,-1.78711 -0.11329,-0.05078 -0.11328,-0.04687 -4.01367,-1.685547 -0.11328,-0.04883 -0.11523,-0.04297 -4.04688,-1.583984 -0.11328,-0.04492 -0.11524,-0.04297 -4.07617,-1.480469 -0.11523,-0.04102 -0.11524,-0.03906 -4.10351,-1.378906 -0.11524,-0.03906 -0.11718,-0.03711 -4.12891,-1.277344 -0.11719,-0.03516 -0.11523,-0.0332 -4.1543,-1.173828 -0.11719,-0.0332 -0.11718,-0.03125 -0.92969,-0.238281 z m -101.21485,-16.548828 -0.11718,0.03711 -0.11524,0.03906 -4.10351,1.378906 -0.11524,0.03906 -0.11523,0.04102 -4.07617,1.480469 -0.11524,0.04297 -0.11328,0.04492 -4.04688,1.582031 -0.11523,0.04492 -0.11328,0.04883 -4.01367,1.685547 -0.11328,0.04687 -0.11329,0.05078 -3.98046,1.78711 -0.11329,0.05078 -0.11132,0.05469 -3.94532,1.888672 -0.11132,0.05469 -0.10938,0.05469 -3.9082,1.992188 -0.11133,0.05664 -0.10938,0.06055 -3.86718,2.09375 -0.10938,0.05859 -0.10742,0.0625 -3.82813,2.197266 -0.10742,0.06055 -0.10742,0.06641 -3.78125,2.298828 -0.10742,0.06445 -0.10547,0.06641 -3.73828,2.402344 -0.10352,0.06641 -0.10546,0.07031 -3.68946,2.503911 -0.10351,0.0703 -0.10157,0.0742 -3.64062,2.60547 -0.10156,0.0723 -0.10157,0.0762 -3.58789,2.70703 -0.10156,0.0762 -0.0977,0.0781 -3.53515,2.81055 -0.0996,0.0781 -0.0957,0.082 -3.48047,2.91016 -0.0957,0.082 -0.0957,0.084 -3.42187,3.01367 -0.0957,0.084 -0.0918,0.0859 -1.92188,1.78125 13.59375,14.66797 1.81836,-1.68555 3.24805,-2.86133 3.29883,-2.75976 3.31835,-2.63867 3.40821,-2.57032 3.46289,-2.47461 3.41601,-2.31836 3.55469,-2.2832 3.56055,-2.16406 3.63867,-2.08789 3.61523,-1.95899 3.7168,-1.89453 3.69531,-1.76758 3.76172,-1.6914 3.82031,-1.603518 3.72852,-1.458984 3.92774,-1.427734 3.85937,-1.296875 1.94336,-0.601563 -5.9082,-19.107422 z m 193.23243,78.894534 0.69531,0.92187 2.51172,3.50977 2.31836,3.41601 2.2832,3.55469 2.16406,3.55859 0.37695,0.65821 17.34375,-9.95703 -0.4375,-0.76368 -0.0605,-0.10742 -0.0664,-0.10547 -2.29883,-3.7832 -0.0645,-0.10742 -0.0664,-0.10547 -2.40234,-3.73633 -0.0664,-0.10547 -0.0703,-0.10546 -2.50391,-3.68946 -0.0703,-0.10351 -0.0742,-0.10157 -2.60547,-3.64062 -0.0723,-0.10156 -0.0762,-0.10157 -0.79297,-1.05078 z m -292.753911,-3.25781 -0.07031,0.10546 -0.06641,0.10547 -2.402344,3.73633 -0.06641,0.10547 -0.06445,0.10742 -2.298828,3.78125 -0.06641,0.10742 -0.06055,0.10742 -2.197266,3.82813 -0.0625,0.10742 -0.05859,0.10938 -1.859375,3.43359 17.585939,9.52344 1.78711,-3.29883 2.08789,-3.64063 2.10156,-3.46093 0.0273,-0.043 2.3164,-3.60742 1.49805,-2.20508 -16.55078,-11.22852 z m 318.341801,53.36718 0.75976,2.45313 1.12695,3.98633 1.01758,3.95507 0.89649,3.88282 0.83984,4.06836 0.72461,4.00585 0.61328,3.91602 0.53125,4.02344 0.4375,4.0332 0.33789,4.04102 0.24219,4.05468 0.14648,4.05079 0.0469,4.05273 -0.0469,4.05273 -0.14648,4.05274 -0.24219,4.04687 -0.33789,4.04688 -0.43555,4.03125 -0.53906,4.06641 19.82813,2.61914 0.55859,-4.22266 0.0156,-0.11719 0.0117,-0.11914 0.46094,-4.26562 0.0117,-0.11914 0.01,-0.11915 0.35742,-4.27148 0.01,-0.11914 0.008,-0.11914 0.25586,-4.2793 0.008,-0.11914 0.004,-0.11914 0.15235,-4.2832 0.004,-0.11914 0.002,-0.11914 0.0508,-4.28516 0.002,-0.11914 -0.002,-0.11914 -0.0508,-4.28516 -0.002,-0.11914 -0.004,-0.11914 -0.15235,-4.2832 -0.004,-0.11914 -0.008,-0.11914 -0.25586,-4.2793 -0.008,-0.11914 -0.01,-0.11914 -0.35742,-4.27148 -0.01,-0.11915 -0.0117,-0.11914 -0.46094,-4.26562 -0.0117,-0.11914 -0.0156,-0.11719 -0.5625,-4.25586 -0.0156,-0.11914 -0.0195,-0.11719 -0.66406,-4.24414 -0.0176,-0.11914 -0.0215,-0.11719 -0.76563,-4.23046 -0.0215,-0.11719 -0.0254,-0.11719 -0.86719,-4.21484 -0.0254,-0.11719 -0.0273,-0.11719 -0.97071,-4.19531 -0.0273,-0.11719 -0.0293,-0.11719 -1.07226,-4.17578 -0.0312,-0.11718 -0.0332,-0.11719 -1.17383,-4.1543 -0.0332,-0.11523 -0.0351,-0.11719 -0.8125,-2.625 z m -344.068364,5.51367 -0.0293,0.11719 -0.02734,0.11719 -0.970704,4.19531 -0.02734,0.11719 -0.02539,0.11719 -0.867187,4.21484 -0.02539,0.11719 -0.02148,0.11719 -0.765625,4.23046 -0.02148,0.11719 -0.01758,0.11914 -0.664062,4.24414 -0.01953,0.11719 -0.01563,0.11914 -0.5625,4.25586 -0.01563,0.11719 -0.01172,0.11914 -0.460938,4.26562 -0.01172,0.11914 -0.0098,0.11915 -0.357422,4.27148 -0.01172,0.11914 -0.0059,0.11914 -0.25586,4.2793 -0.0078,0.11914 -0.0039,0.11914 -0.152344,4.2832 -0.0039,0.11914 -0.002,0.11914 -0.05078,4.28516 -0.002,0.11914 0.002,0.11914 0.05078,4.28516 0.002,0.11914 0.0039,0.11914 0.152344,4.2832 0.0039,0.11914 0.0078,0.11914 0.25586,4.2793 0.0059,0.11914 0.01172,0.11914 0.357422,4.27148 0.0098,0.11915 0.01172,0.11914 0.460938,4.26562 0.01172,0.11914 0.01563,0.11719 0.5625,4.25586 0.01563,0.11914 0.01953,0.11719 0.664062,4.24414 0.01758,0.11914 0.02148,0.11719 0.554687,3.06054 19.679688,-3.5664 -0.539063,-2.97461 -0.615234,-3.92969 -0.53125,-4.02344 -0.4375,-4.0332 -0.337891,-4.04102 -0.242187,-4.05468 -0.146485,-4.05079 -0.04687,-4.05273 0.04687,-4.05273 0.146485,-4.05274 0.242187,-4.04687 0.337891,-4.04688 0.4375,-4.0332 0.53125,-4.02344 0.615234,-3.92969 0.722656,-3.99218 0.839844,-4.06836 0.896485,-3.88086 0.957031,-3.72071 -19.371094,-4.97656 z m 339.457034,108.43165 -1.60352,3.82031 -1.6914,3.76172 -1.76758,3.69531 -1.63867,3.21094 17.81835,9.08398 1.6836,-3.30078 0.0547,-0.10938 0.0547,-0.11132 1.88868,-3.94532 0.0547,-0.11132 0.0508,-0.11329 1.78711,-3.98046 0.0508,-0.11329 0.0469,-0.11328 1.68555,-4.01367 0.0488,-0.11328 0.0449,-0.11523 1.16601,-2.98047 -18.625,-7.28711 z m -315.789065,5.85937 -13.591797,5.70898 0.04492,0.10547 0.04687,0.11328 0.05078,0.11329 1.78711,3.98046 0.05078,0.11329 0.05469,0.11132 1.888672,3.94532 0.05469,0.11132 0.05469,0.10938 1.992188,3.9082 0.05664,0.11133 0.06055,0.10938 2.09375,3.86718 0.05859,0.10938 0.0625,0.10742 1.173828,2.04687 17.345702,-9.95703 -1.12695,-1.96484 -1.95899,-3.61523 -1.89453,-3.7168 -1.76758,-3.69531 -1.68945,-3.75586 0,-0.002 -0.0527,-0.11718 z m 287.578125,40.40625 -2.86328,3.25 -2.92188,3.15039 -3.05664,3.13477 -3.09375,3.01757 -3.18945,2.95899 -3.24805,2.86133 -3.29883,2.75976 -3.31835,2.63867 -3.40821,2.57032 -3.46289,2.47461 -3.41601,2.31836 -3.55469,2.2832 -3.56055,2.16406 -3.60547,2.06836 -3.65039,1.97852 -3.71679,1.89453 -3.58789,1.7207 -0.041,0.0195 -2.43945,1.09571 8.19336,18.24414 2.48046,-1.11329 0.11329,-0.0508 0.11132,-0.0527 3.94532,-1.89063 0.11132,-0.0547 0.10938,-0.0547 3.9082,-1.99219 0.11133,-0.0566 0.10938,-0.0606 3.86718,-2.09375 0.10938,-0.0586 0.10742,-0.0625 3.82813,-2.19727 0.10742,-0.0605 0.10742,-0.0664 3.78125,-2.29883 0.10742,-0.0645 0.10547,-0.0664 3.73633,-2.40234 0.10547,-0.0664 0.10546,-0.0703 3.68946,-2.50391 0.10351,-0.0703 0.10157,-0.0742 3.64062,-2.60547 0.10156,-0.0723 0.10157,-0.0762 3.58789,-2.70703 0.10156,-0.0762 0.0977,-0.0781 3.53515,-2.81055 0.0996,-0.0781 0.0957,-0.0801 3.48047,-2.91211 0.0957,-0.082 0.0957,-0.084 3.42187,-3.01367 0.0957,-0.084 0.0918,-0.0859 3.36329,-3.11523 0.0918,-0.0859 0.0918,-0.0898 3.30078,-3.21876 0.0898,-0.0879 0.0879,-0.0898 3.21876,-3.30078 0.0898,-0.0918 0.0859,-0.0918 3.11523,-3.36329 0.0859,-0.0918 0.084,-0.0957 3.01367,-3.42187 0.084,-0.0957 0.082,-0.0957 0.54102,-0.64843 -15.33594,-12.83594 z m -266.64258,18.23242 1.73242,1.8711 0.0859,0.0918 0.0898,0.0918 3.21876,3.30078 0.0879,0.0898 0.0898,0.0879 3.30078,3.21876 0.0918,0.0898 0.0918,0.0859 3.36329,3.11523 0.0918,0.0859 0.0957,0.084 3.42187,3.01367 0.0957,0.084 0.0957,0.082 3.48047,2.91211 0.0957,0.0801 0.0996,0.0781 3.53515,2.81055 0.0977,0.0781 0.10156,0.0762 3.58789,2.70703 0.10157,0.0762 0.10156,0.0723 3.64062,2.60547 0.10157,0.0742 0.10351,0.0703 3.68946,2.50391 0.10546,0.0703 0.10547,0.0664 3.73633,2.40234 0.10547,0.0664 0.10742,0.0645 3.78125,2.29883 0.10742,0.0664 0.10742,0.0605 3.82813,2.19727 0.10742,0.0625 0.10938,0.0586 3.86718,2.09375 0.10938,0.0606 0.11133,0.0566 3.9082,1.99219 0.10938,0.0547 0.11132,0.0547 3.94532,1.89063 0.11132,0.0527 0.11329,0.0508 3.98046,1.78711 0.11329,0.0508 0.11328,0.0469 4.01367,1.68555 7.74414,-18.43946 -3.9043,-1.63867 -3.82617,-1.71875 -0.041,-0.0195 -3.58789,-1.7207 -3.71875,-1.89453 -3.61523,-1.95899 -3.63867,-2.08789 -3.56055,-2.16406 -3.55469,-2.2832 -3.41601,-2.31836 -3.46289,-2.47461 -3.40821,-2.57032 -3.31835,-2.63867 -3.29883,-2.75976 -3.24805,-2.86133 -3.18945,-2.95899 -3.09375,-3.01757 -3.05664,-3.13477 -1.63477,-1.76367 z"
     id="path15350"
     inkscape:connector-curvature="0" />
  <path
     style="fill:#ffffff;stroke:none;stroke-width:20;stroke-miterlimit:4;stroke-dasharray:none"
     inkscape:transform-center-x="-105.23139"
     inkscape:transform-center-y="-107.44635"
     d="m 199.9942,385.31306 28.786,49.8588 28.786,49.85881 28.7861,-49.85881 28.7859,-49.8588 c 0,0 -38.3813,21.67445 -57.572,21.67452 -19.1907,0 -57.572,-21.67452 -57.572,-21.67452 z"
     id="path15352"
     inkscape:connector-curvature="0"
     sodipodi:nodetypes="ccccczc" />
  <circle
     style="fill:none;stroke:#ffffff;stroke-width:14.53779507;stroke-linecap:butt;stroke-miterlimit:4;stroke-dasharray:none;stroke-dashoffset:134"
     id="path5043"
     cx="5416"
     cy="-881.86377"
     r="0" />
</svg>
