<?xml version="1.0" encoding="UTF-8" standalone="no"?>
<svg
   xmlns:dc="http://purl.org/dc/elements/1.1/"
   xmlns:cc="http://creativecommons.org/ns#"
   xmlns:rdf="http://www.w3.org/1999/02/22-rdf-syntax-ns#"
   xmlns:svg="http://www.w3.org/2000/svg"
   xmlns="http://www.w3.org/2000/svg"
   xmlns:sodipodi="http://sodipodi.sourceforge.net/DTD/sodipodi-0.dtd"
   xmlns:inkscape="http://www.inkscape.org/namespaces/inkscape"
   viewBox="0 0 512 512"
   id="svg2"
   version="1.1"
   inkscape:version="0.91 r13725"
   sodipodi:docname="directions-dotted-north.svg">
  <metadata
     id="metadata12">
    <rdf:RDF>
      <cc:Work
         rdf:about="">
        <dc:format>image/svg+xml</dc:format>
        <dc:type
           rdf:resource="http://purl.org/dc/dcmitype/StillImage" />
        <dc:title />
      </cc:Work>
    </rdf:RDF>
  </metadata>
  <defs
     id="defs10">
    <marker
       inkscape:isstock="true"
       style="overflow:visible;"
       id="marker6040"
       refX="0.0"
       refY="0.0"
       orient="auto"
       inkscape:stockid="Arrow2Send">
      <path
         transform="scale(0.3) rotate(180) translate(-2.3,0)"
         d="M 8.7185878,4.0337352 L -2.2072895,0.016013256 L 8.7185884,-4.0017078 C 6.9730900,-1.6296469 6.9831476,1.6157441 8.7185878,4.0337352 z "
         style="fill-rule:evenodd;stroke-width:0.625;stroke-linejoin:round;stroke:#ffffff;stroke-opacity:1;fill:#ffffff;fill-opacity:1"
         id="path6042" />
    </marker>
    <marker
       inkscape:isstock="true"
       style="overflow:visible;"
       id="marker5994"
       refX="0.0"
       refY="0.0"
       orient="auto"
       inkscape:stockid="Arrow2Send">
      <path
         transform="scale(0.3) rotate(180) translate(-2.3,0)"
         d="M 8.7185878,4.0337352 L -2.2072895,0.016013256 L 8.7185884,-4.0017078 C 6.9730900,-1.6296469 6.9831476,1.6157441 8.7185878,4.0337352 z "
         style="fill-rule:evenodd;stroke-width:0.625;stroke-linejoin:round;stroke:#ffffff;stroke-opacity:1;fill:#ffffff;fill-opacity:1"
         id="path5996" />
    </marker>
    <marker
       inkscape:isstock="true"
       style="overflow:visible;"
       id="marker5954"
       refX="0.0"
       refY="0.0"
       orient="auto"
       inkscape:stockid="Arrow2Send">
      <path
         transform="scale(0.3) rotate(180) translate(-2.3,0)"
         d="M 8.7185878,4.0337352 L -2.2072895,0.016013256 L 8.7185884,-4.0017078 C 6.9730900,-1.6296469 6.9831476,1.6157441 8.7185878,4.0337352 z "
         style="fill-rule:evenodd;stroke-width:0.625;stroke-linejoin:round;stroke:#ffffff;stroke-opacity:1;fill:#ffffff;fill-opacity:1"
         id="path5956" />
    </marker>
    <marker
       inkscape:isstock="true"
       style="overflow:visible;"
       id="marker5920"
       refX="0.0"
       refY="0.0"
       orient="auto"
       inkscape:stockid="Arrow2Send">
      <path
         transform="scale(0.3) rotate(180) translate(-2.3,0)"
         d="M 8.7185878,4.0337352 L -2.2072895,0.016013256 L 8.7185884,-4.0017078 C 6.9730900,-1.6296469 6.9831476,1.6157441 8.7185878,4.0337352 z "
         style="fill-rule:evenodd;stroke-width:0.625;stroke-linejoin:round;stroke:#ffffff;stroke-opacity:1;fill:#ffffff;fill-opacity:1"
         id="path5922" />
    </marker>
    <marker
       inkscape:isstock="true"
       style="overflow:visible;"
       id="marker5892"
       refX="0.0"
       refY="0.0"
       orient="auto"
       inkscape:stockid="Arrow2Send">
      <path
         transform="scale(0.3) rotate(180) translate(-2.3,0)"
         d="M 8.7185878,4.0337352 L -2.2072895,0.016013256 L 8.7185884,-4.0017078 C 6.9730900,-1.6296469 6.9831476,1.6157441 8.7185878,4.0337352 z "
         style="fill-rule:evenodd;stroke-width:0.625;stroke-linejoin:round;stroke:#ffffff;stroke-opacity:1;fill:#ffffff;fill-opacity:1"
         id="path5894" />
    </marker>
    <marker
       inkscape:isstock="true"
       style="overflow:visible;"
       id="marker5870"
       refX="0.0"
       refY="0.0"
       orient="auto"
       inkscape:stockid="Arrow2Send">
      <path
         transform="scale(0.3) rotate(180) translate(-2.3,0)"
         d="M 8.7185878,4.0337352 L -2.2072895,0.016013256 L 8.7185884,-4.0017078 C 6.9730900,-1.6296469 6.9831476,1.6157441 8.7185878,4.0337352 z "
         style="fill-rule:evenodd;stroke-width:0.625;stroke-linejoin:round;stroke:#ffffff;stroke-opacity:1;fill:#ffffff;fill-opacity:1"
         id="path5872" />
    </marker>
  </defs>
  <sodipodi:namedview
     pagecolor="#ffffff"
     bordercolor="#666666"
     borderopacity="1"
     objecttolerance="10"
     gridtolerance="10"
     guidetolerance="10"
     inkscape:pageopacity="0"
     inkscape:pageshadow="2"
     inkscape:window-width="1829"
     inkscape:window-height="966"
     id="namedview8"
     showgrid="false"
     inkscape:zoom="1.5449218"
     inkscape:cx="256"
     inkscape:cy="256"
     inkscape:window-x="-8"
     inkscape:window-y="-8"
     inkscape:window-maximized="1"
     inkscape:current-layer="svg2"
     showguides="false"
     inkscape:guide-bbox="true"
     inkscape:snap-center="true"
     inkscape:snap-global="true"
     inkscape:snap-bbox="true" />
  <path
     id="path4350"
     d="m 0,0 512,0 0,512 -512,0 z"
     inkscape:connector-curvature="0"
     style="fill:#000000;stroke:#ffffff;stroke-width:0" />
  <g
     style="font-style:normal;font-weight:normal;font-size:183.75px;line-height:125%;font-family:sans-serif;letter-spacing:0px;word-spacing:0px;fill:#000000;fill-opacity:1;stroke:none;stroke-width:1px;stroke-linecap:butt;stroke-linejoin:miter;stroke-opacity:1"
     id="text4352"
     transform="translate(2931.9242,1740.8546)">
    <path
       d="m -2615.1826,-1418.0569 -33.197,0 -56.7041,-91.6955 0,91.6955 -31.5821,0 0,-133.5956 41.1823,0 48.7189,76.5326 0,-76.5326 31.582,0 0,133.5956 z"
       style="font-style:normal;font-variant:normal;font-weight:bold;font-stretch:normal;font-size:183.75px;font-family:sans-serif;-inkscape-font-specification:'sans-serif Bold';fill:#ffffff"
       id="path4260"
       inkscape:connector-curvature="0" />
  </g>
  <path
     style="color:#000000;font-style:normal;font-variant:normal;font-weight:normal;font-stretch:normal;font-size:medium;line-height:normal;font-family:sans-serif;text-indent:0;text-align:start;text-decoration:none;text-decoration-line:none;text-decoration-style:solid;text-decoration-color:#000000;letter-spacing:normal;word-spacing:normal;text-transform:none;direction:ltr;block-progression:tb;writing-mode:lr-tb;baseline-shift:baseline;text-anchor:start;white-space:normal;clip-rule:nonzero;display:inline;overflow:visible;visibility:visible;opacity:1;isolation:auto;mix-blend-mode:normal;color-interpolation:sRGB;color-interpolation-filters:linearRGB;solid-color:#000000;solid-opacity:1;fill:#ffffff;fill-opacity:1;fill-rule:nonzero;stroke:none;stroke-width:20;stroke-linecap:butt;stroke-linejoin:miter;stroke-miterlimit:4;stroke-dasharray:20, 40;stroke-dashoffset:0;stroke-opacity:1;color-rendering:auto;image-rendering:auto;shape-rendering:auto;text-rendering:auto;enable-background:accumulate"
     d="m 180.9043,82.9375 -0.11328,0.04687 -0.11329,0.05078 -3.98046,1.78711 -0.11329,0.05078 -0.11132,0.05469 -3.94532,1.888672 -0.11132,0.05469 -0.10938,0.05469 -3.9082,1.992188 -0.11133,0.05664 -0.10938,0.06055 -2.21484,1.199219 9.52344,17.585935 2.09765,-1.13476 3.7168,-1.89649 3.69531,-1.76758 3.76172,-1.6914 3.9043,-1.638674 -7.74414,-18.439453 z m 142.41211,18.42578 3.6875,1.6582 3.69531,1.76758 3.7168,1.89453 3.61523,1.95899 2.24414,1.28711 9.95703,-17.345706 -2.32617,-1.333984 -0.10742,-0.0625 -0.10938,-0.05859 -3.86718,-2.09375 -0.10938,-0.06055 -0.11133,-0.05664 -3.9082,-1.992188 -0.10938,-0.05469 -0.11132,-0.05469 -3.94532,-1.888672 -0.11132,-0.05469 -0.11329,-0.05078 -3.79296,-1.703125 z m -193.55664,14.50391 -0.0957,0.084 -0.0918,0.0859 -3.36329,3.11523 -0.0918,0.0859 -0.0918,0.0898 -3.30078,3.21876 -0.0898,0.0879 -0.0879,0.0898 -3.21876,3.30078 -0.0898,0.0918 -0.0859,0.0918 -2.71093,2.92774 14.66797,13.59375 2.61328,-2.81836 3.05468,-3.13477 3.13477,-3.05468 3.15039,-2.92188 1.57031,-1.38281 -13.21875,-15.00781 z m 240.80078,16.43945 1.52734,1.41602 3.13477,3.05468 3.05468,3.13477 2.92188,3.15039 2.54687,2.89258 15.00782,-13.21875 -2.6211,-2.97656 -0.084,-0.0957 -0.0859,-0.0918 -3.11523,-3.36329 -0.0859,-0.0918 -0.0898,-0.0918 -3.21876,-3.30078 -0.0879,-0.0898 -0.0898,-0.0879 -3.30078,-3.21876 -0.0918,-0.0898 -0.0918,-0.0859 -1.63477,-1.51367 z M 91.25,164.09375 l -0.0625,0.10742 -0.05859,0.10938 -2.09375,3.86718 -0.06055,0.10938 -0.05664,0.11133 -1.992188,3.9082 -0.05469,0.10938 -0.05469,0.11132 -1.888672,3.94532 -0.05469,0.11132 -0.05078,0.11329 -1.78711,3.98046 -0.05078,0.11329 -0.04687,0.11328 -0.601562,1.43359 18.439452,7.74219 0.55469,-1.32227 1.6914,-3.76172 1.76758,-3.69531 1.89453,-3.7168 1.96094,-3.61914 0.4082,-0.71289 -17.345699,-9.95703 z m 313.76758,12.94141 0.29883,0.55273 1.89453,3.71289 1.76758,3.69531 1.6914,3.76172 1.60156,3.81641 0.58594,1.5 18.625,-7.28711 -0.64062,-1.64063 -0.0449,-0.11523 -0.0488,-0.11328 -1.68555,-4.01367 -0.0469,-0.11328 -0.0508,-0.11329 -1.78711,-3.98046 -0.0508,-0.11329 -0.0547,-0.11132 -1.88868,-3.94532 -0.0547,-0.11132 -0.0547,-0.10938 -1.99219,-3.9082 -0.0566,-0.11133 -0.0606,-0.10938 -0.35937,-0.66601 z m -334.960939,47.29882 -0.02148,0.11719 -0.01758,0.11914 -0.664062,4.24414 -0.01953,0.11719 -0.01563,0.11914 -0.5625,4.25586 -0.01563,0.11719 -0.01172,0.11914 -0.460938,4.26562 -0.01172,0.11914 -0.0098,0.11915 -0.357422,4.27148 -0.0098,0.11914 -0.0078,0.11914 -0.07031,1.16211 19.964844,1.19336 0.06445,-1.06641 0.337891,-4.04492 0.4375,-4.0332 0.53125,-4.02344 0.613281,-3.91406 0.285156,-1.57422 -19.679687,-3.56641 z m 352.613279,6.1836 0.19531,1.23437 0.5293,4.01563 0.4375,4.0332 0.33789,4.04102 0.24219,4.05664 0.0488,1.32812 19.98633,-0.71484 -0.0508,-1.4375 -0.004,-0.11914 -0.008,-0.11914 -0.25586,-4.2793 -0.006,-0.11914 -0.0117,-0.11914 -0.35742,-4.27148 -0.01,-0.11915 -0.0117,-0.11914 -0.46094,-4.26562 -0.0117,-0.11914 -0.0156,-0.11719 -0.5625,-4.25586 -0.0156,-0.11914 -0.0195,-0.11719 -0.21679,-1.38867 z m -352.917967,55.2168 0.265625,1.69531 0.01758,0.11914 0.02148,0.11719 0.765625,4.23046 0.02148,0.11719 0.02539,0.11719 0.867187,4.21484 0.02539,0.11719 0.02734,0.11719 0.970704,4.19531 0.02734,0.11719 0.0293,0.11719 1.072266,4.17578 0.03125,0.11718 0.0332,0.11719 0.289063,1.02539 19.246093,-5.44336 -0.261719,-0.92187 -1.015624,-3.95117 -0.896485,-3.88282 -0.839844,-4.06836 -0.724609,-4 -0.238281,-1.53515 z m 351.773437,2.44921 -0.83594,4.04688 -0.90039,3.89844 -1.01758,3.95507 -1.12695,3.98633 -0.33398,1.07813 19.10547,5.9082 0.38867,-1.25 0.0351,-0.11719 0.0332,-0.11523 1.17383,-4.1543 0.0332,-0.11719 0.0312,-0.11718 1.07226,-4.17578 0.0293,-0.11719 0.0273,-0.11719 0.97071,-4.19531 0.0273,-0.11719 0.0254,-0.11719 0.86719,-4.21484 0.0254,-0.11719 0.0215,-0.11719 0.25782,-1.42968 -19.67969,-3.56641 z m -331.570312,57.33789 1.173828,2.16797 0.05859,0.10938 0.0625,0.10742 2.197266,3.82813 0.06055,0.10742 0.06641,0.10742 2.298828,3.78125 0.06445,0.10742 0.06641,0.10547 2.402344,3.73828 0.06641,0.10352 0.07031,0.10546 2.388671,3.51758 16.55078,-11.22851 -2.30664,-3.39649 -2.28125,-3.55273 -2.16406,-3.56055 -2.08789,-3.63867 -1.10156,-2.0332 z m 311.314452,-3.8496 -2.10156,3.46093 -0.0274,0.043 -2.31835,3.60938 -2.35352,3.46679 -2.45703,3.4336 16.26367,11.64062 2.5332,-3.54101 0.0742,-0.10157 0.0703,-0.10351 2.50391,-3.68946 0.0703,-0.10546 0.0664,-0.10352 2.40234,-3.73828 0.0664,-0.10547 0.0645,-0.10742 2.29883,-3.78125 0.0664,-0.10742 0.0605,-0.10742 1.1543,-2.01172 -17.34375,-9.95704 z m -272.56445,53.48828 0.86719,0.80273 0.0918,0.0859 0.0957,0.084 3.42187,3.01367 0.0957,0.084 0.0957,0.082 3.48047,2.91016 0.0957,0.082 0.0996,0.0781 3.53515,2.81055 0.0977,0.0781 0.10156,0.0762 3.58789,2.70703 0.10157,0.0762 0.10156,0.0723 0.57812,0.41407 11.64063,-16.26367 -0.50391,-0.36133 -3.36133,-2.53321 -3.31835,-2.63867 -3.29883,-2.75976 -3.24219,-2.85547 -0.76758,-0.71485 z m 236.97851,-11.09571 -3.29297,2.75586 -3.31835,2.63867 -3.41016,2.57032 -3.4043,2.43554 -0.56445,0.38282 11.22852,16.55078 0.6582,-0.44532 0.10351,-0.0703 0.10157,-0.0742 3.64062,-2.60547 0.10156,-0.0723 0.10157,-0.0762 3.58789,-2.70703 0.10156,-0.0762 0.0977,-0.0781 3.53515,-2.81055 0.0996,-0.0781 0.0957,-0.0801 3.48047,-2.91211 0.0957,-0.082 0.0957,-0.084 0.88672,-0.77929 -13.2207,-15.00977 z m -183.88671,45.37305 3.12109,1.31055 0.11328,0.0488 0.11523,0.043 4.04688,1.58399 0.11328,0.0449 0.11524,0.043 4.07617,1.48047 0.11523,0.041 0.11524,0.0391 4.10351,1.3789 0.11524,0.0391 0.11718,0.0371 3.43946,1.0625 5.9082,-19.10742 -3.32031,-1.02539 -3.85742,-1.29687 -3.92774,-1.42774 -3.72852,-1.45898 -3.03906,-1.27539 z m 133.89453,-15.70508 -3.92579,1.42774 -3.85937,1.29687 -3.83594,1.1875 -3.63281,1.02735 5.44336,19.24609 3.69336,-1.04492 0.11523,-0.0332 0.11719,-0.0351 4.12891,-1.27735 0.11718,-0.0371 0.11524,-0.0371 4.10351,-1.38085 0.11524,-0.0391 0.11523,-0.041 4.07617,-1.48047 0.11524,-0.043 0.11328,-0.0449 2.95313,-1.1543 -7.28711,-18.625 z m -72.5586,30.43164 3.70313,0.22071 0.11914,0.008 0.11914,0.004 4.2832,0.15235 0.11914,0.004 0.11914,0.002 4.28516,0.0508 0.11914,0.002 0.11914,-0.002 4.28516,-0.0508 0.11914,-0.002 0.11914,-0.004 3.43164,-0.12305 -0.71484,-19.98633 -3.30469,0.11914 -4.05469,0.0469 -4.05273,-0.0469 -4.05274,-0.14648 -3.56836,-0.21289 z"
     id="path5400"
     inkscape:connector-curvature="0" />
  <path
     sodipodi:nodetypes="ccccczc"
     inkscape:connector-curvature="0"
     id="path5402"
     d="m 312.0058,126.687 -28.786,-49.8588 -28.786,-49.8588 -28.7861,49.8588 -28.7859,49.8588 c 0,0 38.3813,-21.6744 57.572,-21.6745 19.1907,0 57.572,21.6745 57.572,21.6745 z"
     inkscape:transform-center-y="-107.44635"
     inkscape:transform-center-x="-105.23139"
     style="fill:#ffffff;stroke:none;stroke-width:20;stroke-miterlimit:4;stroke-dasharray:none" />
  <g
     style="font-style:normal;font-weight:normal;font-size:20px;line-height:125%;font-family:sans-serif;letter-spacing:0px;word-spacing:0px;fill:#000000;fill-opacity:1;stroke:none;stroke-width:1px;stroke-linecap:butt;stroke-linejoin:miter;stroke-opacity:1"
     id="text15804"
     transform="translate(2931.9242,1740.8546)" />
  <circle
     style="fill:none;stroke:#ffffff;stroke-width:14.53779507;stroke-linecap:butt;stroke-miterlimit:4;stroke-dasharray:none;stroke-dashoffset:134"
     id="path5043"
     cx="3116"
     cy="255.99998"
     r="0" />
</svg>
