<?xml version="1.0" encoding="UTF-8" standalone="no"?>
<svg
   xmlns:dc="http://purl.org/dc/elements/1.1/"
   xmlns:cc="http://creativecommons.org/ns#"
   xmlns:rdf="http://www.w3.org/1999/02/22-rdf-syntax-ns#"
   xmlns:svg="http://www.w3.org/2000/svg"
   xmlns="http://www.w3.org/2000/svg"
   xmlns:sodipodi="http://sodipodi.sourceforge.net/DTD/sodipodi-0.dtd"
   xmlns:inkscape="http://www.inkscape.org/namespaces/inkscape"
   viewBox="0 0 512 512"
   id="svg2"
   version="1.1"
   inkscape:version="0.91 r13725"
   sodipodi:docname="compass-ship-fore-south - Copy (3).svg">
  <metadata
     id="metadata12">
    <rdf:RDF>
      <cc:Work
         rdf:about="">
        <dc:format>image/svg+xml</dc:format>
        <dc:type
           rdf:resource="http://purl.org/dc/dcmitype/StillImage" />
        <dc:title />
      </cc:Work>
    </rdf:RDF>
  </metadata>
  <defs
     id="defs10">
    <marker
       inkscape:isstock="true"
       style="overflow:visible;"
       id="marker6040"
       refX="0.0"
       refY="0.0"
       orient="auto"
       inkscape:stockid="Arrow2Send">
      <path
         transform="scale(0.3) rotate(180) translate(-2.3,0)"
         d="M 8.7185878,4.0337352 L -2.2072895,0.016013256 L 8.7185884,-4.0017078 C 6.9730900,-1.6296469 6.9831476,1.6157441 8.7185878,4.0337352 z "
         style="fill-rule:evenodd;stroke-width:0.625;stroke-linejoin:round;stroke:#ffffff;stroke-opacity:1;fill:#ffffff;fill-opacity:1"
         id="path6042" />
    </marker>
    <marker
       inkscape:isstock="true"
       style="overflow:visible;"
       id="marker5994"
       refX="0.0"
       refY="0.0"
       orient="auto"
       inkscape:stockid="Arrow2Send">
      <path
         transform="scale(0.3) rotate(180) translate(-2.3,0)"
         d="M 8.7185878,4.0337352 L -2.2072895,0.016013256 L 8.7185884,-4.0017078 C 6.9730900,-1.6296469 6.9831476,1.6157441 8.7185878,4.0337352 z "
         style="fill-rule:evenodd;stroke-width:0.625;stroke-linejoin:round;stroke:#ffffff;stroke-opacity:1;fill:#ffffff;fill-opacity:1"
         id="path5996" />
    </marker>
    <marker
       inkscape:isstock="true"
       style="overflow:visible;"
       id="marker5954"
       refX="0.0"
       refY="0.0"
       orient="auto"
       inkscape:stockid="Arrow2Send">
      <path
         transform="scale(0.3) rotate(180) translate(-2.3,0)"
         d="M 8.7185878,4.0337352 L -2.2072895,0.016013256 L 8.7185884,-4.0017078 C 6.9730900,-1.6296469 6.9831476,1.6157441 8.7185878,4.0337352 z "
         style="fill-rule:evenodd;stroke-width:0.625;stroke-linejoin:round;stroke:#ffffff;stroke-opacity:1;fill:#ffffff;fill-opacity:1"
         id="path5956" />
    </marker>
    <marker
       inkscape:isstock="true"
       style="overflow:visible;"
       id="marker5920"
       refX="0.0"
       refY="0.0"
       orient="auto"
       inkscape:stockid="Arrow2Send">
      <path
         transform="scale(0.3) rotate(180) translate(-2.3,0)"
         d="M 8.7185878,4.0337352 L -2.2072895,0.016013256 L 8.7185884,-4.0017078 C 6.9730900,-1.6296469 6.9831476,1.6157441 8.7185878,4.0337352 z "
         style="fill-rule:evenodd;stroke-width:0.625;stroke-linejoin:round;stroke:#ffffff;stroke-opacity:1;fill:#ffffff;fill-opacity:1"
         id="path5922" />
    </marker>
    <marker
       inkscape:isstock="true"
       style="overflow:visible;"
       id="marker5892"
       refX="0.0"
       refY="0.0"
       orient="auto"
       inkscape:stockid="Arrow2Send">
      <path
         transform="scale(0.3) rotate(180) translate(-2.3,0)"
         d="M 8.7185878,4.0337352 L -2.2072895,0.016013256 L 8.7185884,-4.0017078 C 6.9730900,-1.6296469 6.9831476,1.6157441 8.7185878,4.0337352 z "
         style="fill-rule:evenodd;stroke-width:0.625;stroke-linejoin:round;stroke:#ffffff;stroke-opacity:1;fill:#ffffff;fill-opacity:1"
         id="path5894" />
    </marker>
    <marker
       inkscape:isstock="true"
       style="overflow:visible;"
       id="marker5870"
       refX="0.0"
       refY="0.0"
       orient="auto"
       inkscape:stockid="Arrow2Send">
      <path
         transform="scale(0.3) rotate(180) translate(-2.3,0)"
         d="M 8.7185878,4.0337352 L -2.2072895,0.016013256 L 8.7185884,-4.0017078 C 6.9730900,-1.6296469 6.9831476,1.6157441 8.7185878,4.0337352 z "
         style="fill-rule:evenodd;stroke-width:0.625;stroke-linejoin:round;stroke:#ffffff;stroke-opacity:1;fill:#ffffff;fill-opacity:1"
         id="path5872" />
    </marker>
  </defs>
  <sodipodi:namedview
     pagecolor="#ffffff"
     bordercolor="#666666"
     borderopacity="1"
     objecttolerance="10"
     gridtolerance="10"
     guidetolerance="10"
     inkscape:pageopacity="0"
     inkscape:pageshadow="2"
     inkscape:window-width="1829"
     inkscape:window-height="966"
     id="namedview8"
     showgrid="false"
     inkscape:zoom="0.13875968"
     inkscape:cx="-3666.036"
     inkscape:cy="-296.28975"
     inkscape:window-x="-8"
     inkscape:window-y="-8"
     inkscape:window-maximized="1"
     inkscape:current-layer="svg2"
     showguides="false"
     inkscape:guide-bbox="true"
     inkscape:snap-center="true"
     inkscape:snap-global="true"
     inkscape:snap-bbox="true" />
  <path
     style="fill:#000000;stroke:#ffffff;stroke-width:0"
     inkscape:connector-curvature="0"
     d="m 0,0 512,0 0,512 -512,0 z"
     id="path4294" />
  <path
     inkscape:connector-curvature="0"
     id="path4533"
     style="font-style:normal;font-variant:normal;font-weight:bold;font-stretch:normal;font-size:122.5px;line-height:125%;font-family:sans-serif;-inkscape-font-specification:'sans-serif Bold';letter-spacing:0px;word-spacing:0px;fill:#ffffff;fill-opacity:1;stroke:none;stroke-width:1px;stroke-linecap:butt;stroke-linejoin:miter;stroke-opacity:1"
     d="m 224.717,272.5388 q 0,13.1591 -11.1853,21.4135 -11.1254,8.1946 -30.2661,8.1946 -11.0656,0 -19.32,-1.9141 -8.1946,-1.9738 -15.3724,-4.9646 l 0,-21.3537 2.5123,0 q 7.1179,5.6824 15.9106,8.7329 8.8525,3.0505 16.9873,3.0505 2.0935,0 5.5029,-0.3589 3.4095,-0.3588 5.5628,-1.1962 2.6318,-1.0767 4.3066,-2.6917 1.7346,-1.615 1.7346,-4.7851 0,-2.931 -2.5122,-5.0245 -2.4524,-2.1533 -7.2375,-3.2898 -5.0244,-1.1962 -10.647,-2.2131 -5.5627,-1.0767 -10.4675,-2.6916 -11.2451,-3.6487 -16.2097,-9.8694 -4.9048,-6.2805 -4.9048,-15.5518 0,-12.4414 11.1255,-20.2771 11.1853,-7.8955 28.7109,-7.8955 8.7927,0 17.3462,1.7346 8.6133,1.6748 14.8938,4.2469 l 0,20.5163 -2.4524,0 q -5.3833,-4.3066 -13.219,-7.1777 -7.7759,-2.9309 -15.9106,-2.9309 -2.8711,0 -5.7422,0.4187 -2.8113,0.3589 -5.4431,1.4355 -2.3328,0.8972 -4.0076,2.7515 -1.6748,1.7944 -1.6748,4.1272 0,3.529 2.6916,5.4431 2.6917,1.8542 10.1685,3.4094 4.9048,1.0169 9.3909,1.9739 4.5459,0.957 9.7497,2.6318 10.2283,3.3496 15.0733,9.1516 4.9047,5.7422 4.9047,14.9537 z" />
  <path
     inkscape:connector-curvature="0"
     id="path4535"
     style="font-style:normal;font-variant:normal;font-weight:bold;font-stretch:normal;font-size:122.5px;line-height:125%;font-family:sans-serif;-inkscape-font-specification:'sans-serif Bold';letter-spacing:0px;word-spacing:0px;fill:#ffffff;fill-opacity:1;stroke:none;stroke-width:1px;stroke-linecap:butt;stroke-linejoin:miter;stroke-opacity:1"
     d="m 363.42676,211.4682 -23.98559,89.0637 -25.42114,0 -15.97046,-58.02 -15.55176,58.02 -25.42114,0 -23.9856,-89.0637 23.9856,0 13.69751,61.3098 16.38916,-61.3098 22.90893,0 15.61157,61.3098 14.35547,-61.3098 23.38745,0 z" />
  <path
     inkscape:transform-center-y="-16.705511"
     inkscape:transform-center-x="-19.293234"
     sodipodi:nodetypes="cscsccccssscccc"
     inkscape:connector-curvature="0"
     id="path4324"
     d="m 414.62161,313.5832 c 0,0 -102.8486,87.9322 -179.92859,100.9923 -55.67072,9.4325 -161.69062,3.3953 -161.69062,3.3953 0,0 -6.7933,-106.3414 3.3967,-161.6892 C 90.3576,180.4654 182.8853,81.8469 182.8853,81.8469 l 19.3806,19.3805 c -14.8608,4.3337 -27.8743,11.8981 -38.2996,22.2626 -19.3491,19.4226 -28.6547,47.5246 -26.158,78.9922 -11.5624,3.2836 -22.0137,9.1559 -30.5806,17.7228 -34.261,34.2613 -25.4254,98.645 19.7349,143.8056 45.1605,45.1614 109.54542,53.9976 143.80702,19.7363 7.35929,-7.3592 12.72439,-16.1114 16.17389,-25.7613 34.2142,4.543 65.131,-4.6152 86.0336,-25.4847 10.3794,-10.4049 17.9623,-23.3995 22.3178,-38.2444 z"
     style="fill:#ffffff" />
  <text
     xml:space="preserve"
     style="font-style:normal;font-weight:normal;font-size:20px;line-height:125%;font-family:sans-serif;letter-spacing:0px;word-spacing:0px;fill:#000000;fill-opacity:1;stroke:none;stroke-width:1px;stroke-linecap:butt;stroke-linejoin:miter;stroke-opacity:1"
     x="2309.179"
     y="334.37085"
     id="text15804"
     sodipodi:linespacing="125%"><tspan
       sodipodi:role="line"
       id="tspan15806"
       x="2309.179"
       y="334.37085" /></text>
  <ellipse
     style="fill:none;stroke:#ffffff;stroke-width:14.53779507;stroke-linecap:butt;stroke-miterlimit:4;stroke-dasharray:none;stroke-dashoffset:134"
     id="path5043"
     cx="184.07581"
     cy="-1484.8546"
     r="237.03972" />
</svg>
