<?xml version="1.0" encoding="UTF-8" standalone="no"?>
<svg
   xmlns:dc="http://purl.org/dc/elements/1.1/"
   xmlns:cc="http://creativecommons.org/ns#"
   xmlns:rdf="http://www.w3.org/1999/02/22-rdf-syntax-ns#"
   xmlns:svg="http://www.w3.org/2000/svg"
   xmlns="http://www.w3.org/2000/svg"
   xmlns:sodipodi="http://sodipodi.sourceforge.net/DTD/sodipodi-0.dtd"
   xmlns:inkscape="http://www.inkscape.org/namespaces/inkscape"
   viewBox="0 0 512 512"
   id="svg2"
   version="1.1"
   inkscape:version="0.91 r13725"
   sodipodi:docname="directions-dashed-dotted-south-east.svg">
  <metadata
     id="metadata12">
    <rdf:RDF>
      <cc:Work
         rdf:about="">
        <dc:format>image/svg+xml</dc:format>
        <dc:type
           rdf:resource="http://purl.org/dc/dcmitype/StillImage" />
        <dc:title />
      </cc:Work>
    </rdf:RDF>
  </metadata>
  <defs
     id="defs10">
    <marker
       inkscape:isstock="true"
       style="overflow:visible;"
       id="marker6040"
       refX="0.0"
       refY="0.0"
       orient="auto"
       inkscape:stockid="Arrow2Send">
      <path
         transform="scale(0.3) rotate(180) translate(-2.3,0)"
         d="M 8.7185878,4.0337352 L -2.2072895,0.016013256 L 8.7185884,-4.0017078 C 6.9730900,-1.6296469 6.9831476,1.6157441 8.7185878,4.0337352 z "
         style="fill-rule:evenodd;stroke-width:0.625;stroke-linejoin:round;stroke:#ffffff;stroke-opacity:1;fill:#ffffff;fill-opacity:1"
         id="path6042" />
    </marker>
    <marker
       inkscape:isstock="true"
       style="overflow:visible;"
       id="marker5994"
       refX="0.0"
       refY="0.0"
       orient="auto"
       inkscape:stockid="Arrow2Send">
      <path
         transform="scale(0.3) rotate(180) translate(-2.3,0)"
         d="M 8.7185878,4.0337352 L -2.2072895,0.016013256 L 8.7185884,-4.0017078 C 6.9730900,-1.6296469 6.9831476,1.6157441 8.7185878,4.0337352 z "
         style="fill-rule:evenodd;stroke-width:0.625;stroke-linejoin:round;stroke:#ffffff;stroke-opacity:1;fill:#ffffff;fill-opacity:1"
         id="path5996" />
    </marker>
    <marker
       inkscape:isstock="true"
       style="overflow:visible;"
       id="marker5954"
       refX="0.0"
       refY="0.0"
       orient="auto"
       inkscape:stockid="Arrow2Send">
      <path
         transform="scale(0.3) rotate(180) translate(-2.3,0)"
         d="M 8.7185878,4.0337352 L -2.2072895,0.016013256 L 8.7185884,-4.0017078 C 6.9730900,-1.6296469 6.9831476,1.6157441 8.7185878,4.0337352 z "
         style="fill-rule:evenodd;stroke-width:0.625;stroke-linejoin:round;stroke:#ffffff;stroke-opacity:1;fill:#ffffff;fill-opacity:1"
         id="path5956" />
    </marker>
    <marker
       inkscape:isstock="true"
       style="overflow:visible;"
       id="marker5920"
       refX="0.0"
       refY="0.0"
       orient="auto"
       inkscape:stockid="Arrow2Send">
      <path
         transform="scale(0.3) rotate(180) translate(-2.3,0)"
         d="M 8.7185878,4.0337352 L -2.2072895,0.016013256 L 8.7185884,-4.0017078 C 6.9730900,-1.6296469 6.9831476,1.6157441 8.7185878,4.0337352 z "
         style="fill-rule:evenodd;stroke-width:0.625;stroke-linejoin:round;stroke:#ffffff;stroke-opacity:1;fill:#ffffff;fill-opacity:1"
         id="path5922" />
    </marker>
    <marker
       inkscape:isstock="true"
       style="overflow:visible;"
       id="marker5892"
       refX="0.0"
       refY="0.0"
       orient="auto"
       inkscape:stockid="Arrow2Send">
      <path
         transform="scale(0.3) rotate(180) translate(-2.3,0)"
         d="M 8.7185878,4.0337352 L -2.2072895,0.016013256 L 8.7185884,-4.0017078 C 6.9730900,-1.6296469 6.9831476,1.6157441 8.7185878,4.0337352 z "
         style="fill-rule:evenodd;stroke-width:0.625;stroke-linejoin:round;stroke:#ffffff;stroke-opacity:1;fill:#ffffff;fill-opacity:1"
         id="path5894" />
    </marker>
    <marker
       inkscape:isstock="true"
       style="overflow:visible;"
       id="marker5870"
       refX="0.0"
       refY="0.0"
       orient="auto"
       inkscape:stockid="Arrow2Send">
      <path
         transform="scale(0.3) rotate(180) translate(-2.3,0)"
         d="M 8.7185878,4.0337352 L -2.2072895,0.016013256 L 8.7185884,-4.0017078 C 6.9730900,-1.6296469 6.9831476,1.6157441 8.7185878,4.0337352 z "
         style="fill-rule:evenodd;stroke-width:0.625;stroke-linejoin:round;stroke:#ffffff;stroke-opacity:1;fill:#ffffff;fill-opacity:1"
         id="path5872" />
    </marker>
  </defs>
  <sodipodi:namedview
     pagecolor="#ffffff"
     bordercolor="#666666"
     borderopacity="1"
     objecttolerance="10"
     gridtolerance="10"
     guidetolerance="10"
     inkscape:pageopacity="0"
     inkscape:pageshadow="2"
     inkscape:window-width="1829"
     inkscape:window-height="966"
     id="namedview8"
     showgrid="false"
     inkscape:zoom="1.5449218"
     inkscape:cx="256"
     inkscape:cy="256"
     inkscape:window-x="-8"
     inkscape:window-y="-8"
     inkscape:window-maximized="1"
     inkscape:current-layer="svg2"
     showguides="false"
     inkscape:guide-bbox="true"
     inkscape:snap-center="true"
     inkscape:snap-global="true"
     inkscape:snap-bbox="true" />
  <path
     id="path15332"
     d="m 0,0 512,0 0,512 -512,0 z"
     inkscape:connector-curvature="0"
     style="fill:#000000;stroke:#ffffff;stroke-width:0" />
  <path
     inkscape:connector-curvature="0"
     id="path4548"
     style="font-style:normal;font-variant:normal;font-weight:bold;font-stretch:normal;font-size:122.5px;line-height:125%;font-family:sans-serif;-inkscape-font-specification:'sans-serif Bold';letter-spacing:0px;word-spacing:0px;fill:#ffffff;fill-opacity:1;stroke:none;stroke-width:1px;stroke-linecap:butt;stroke-linejoin:miter;stroke-opacity:1"
     d="m 253.9662,272.5385 q 0,13.1592 -11.1853,21.4136 -11.1255,8.1946 -30.2661,8.1946 -11.0657,0 -19.3201,-1.9141 -8.1946,-1.9739 -15.3723,-4.9646 l 0,-21.3538 2.5122,0 q 7.1179,5.6824 15.9106,8.733 8.8526,3.0505 16.9873,3.0505 2.0936,0 5.503,-0.3589 3.4094,-0.3589 5.5627,-1.1963 2.6319,-1.0766 4.3067,-2.6916 1.7346,-1.615 1.7346,-4.7852 0,-2.9309 -2.5122,-5.0244 -2.4524,-2.1533 -7.2376,-3.2898 -5.0244,-1.1963 -10.6469,-2.2131 -5.5628,-1.0767 -10.4676,-2.6917 -11.2451,-3.6487 -16.2097,-9.8694 -4.9048,-6.2805 -4.9048,-15.5517 0,-12.4414 11.1255,-20.2771 11.1853,-7.8955 28.7109,-7.8955 8.7928,0 17.3462,1.7346 8.6133,1.6748 14.8938,4.2468 l 0,20.5164 -2.4524,0 q -5.3833,-4.3067 -13.2189,-7.1778 -7.7759,-2.9309 -15.9107,-2.9309 -2.8711,0 -5.7422,0.4187 -2.8113,0.3589 -5.4431,1.4356 -2.3328,0.8972 -4.0076,2.7514 -1.6748,1.7945 -1.6748,4.1272 0,3.5291 2.6917,5.4432 2.6916,1.8542 10.1684,3.4094 4.9048,1.0168 9.3909,1.9739 4.5459,0.957 9.7498,2.6318 10.2282,3.3496 15.0732,9.1516 4.9048,5.7422 4.9048,14.9536 z" />
  <path
     inkscape:connector-curvature="0"
     id="path4550"
     style="font-style:normal;font-variant:normal;font-weight:bold;font-stretch:normal;font-size:122.5px;line-height:125%;font-family:sans-serif;-inkscape-font-specification:'sans-serif Bold';letter-spacing:0px;word-spacing:0px;fill:#ffffff;fill-opacity:1;stroke:none;stroke-width:1px;stroke-linecap:butt;stroke-linejoin:miter;stroke-opacity:1"
     d="m 334.1774,300.5317 -64.4202,0 0,-89.0637 64.4202,0 0,17.2265 -41.5711,0 0,15.3723 38.5804,0 0,17.2266 -38.5804,0 0,22.0117 41.5711,0 0,17.2266 z" />
  <path
     style="color:#000000;font-style:normal;font-variant:normal;font-weight:normal;font-stretch:normal;font-size:medium;line-height:normal;font-family:sans-serif;text-indent:0;text-align:start;text-decoration:none;text-decoration-line:none;text-decoration-style:solid;text-decoration-color:#000000;letter-spacing:normal;word-spacing:normal;text-transform:none;direction:ltr;block-progression:tb;writing-mode:lr-tb;baseline-shift:baseline;text-anchor:start;white-space:normal;clip-rule:nonzero;display:inline;overflow:visible;visibility:visible;opacity:1;isolation:auto;mix-blend-mode:normal;color-interpolation:sRGB;color-interpolation-filters:linearRGB;solid-color:#000000;solid-opacity:1;fill:#ffffff;fill-opacity:1;fill-rule:nonzero;stroke:none;stroke-width:20;stroke-linecap:butt;stroke-linejoin:miter;stroke-miterlimit:4;stroke-dasharray:80, 40, 20, 40;stroke-dashoffset:174;stroke-opacity:1;color-rendering:auto;image-rendering:auto;shape-rendering:auto;text-rendering:auto;enable-background:accumulate"
     d="m 246.42969,67.632812 -0.12696,0.0039 -0.12695,0.0098 -4.55078,0.28711 -0.125,0.0078 -0.12695,0.01172 -4.51953,0.402344 -0.125,0.0098 -0.125,0.01563 -4.48633,0.511719 -0.12696,0.01367 -0.12304,0.01758 -4.45313,0.623047 -0.125,0.01758 -0.12304,0.02148 -4.41602,0.730468 -0.125,0.02148 -0.12305,0.02344 -4.3789,0.839844 -0.12305,0.02344 -0.12305,0.02539 -4.33984,0.945312 -0.12305,0.02734 -0.12109,0.0293 -4.30078,1.048828 -0.1211,0.0293 -0.11914,0.0332 -4.25976,1.152344 -0.11914,0.0332 -0.11914,0.03516 -4.2168,1.253907 -0.11914,0.03516 -0.11719,0.03906 -4.17383,1.353516 -0.11718,0.03906 -0.11719,0.04102 -4.125,1.453125 -0.11719,0.04102 -0.11523,0.04297 -4.08008,1.552735 -0.11328,0.04297 -0.11524,0.04687 -4.03125,1.646484 -0.11328,0.04687 -0.11133,0.04883 -3.98242,1.742188 -0.11133,0.04883 -0.11133,0.05078 -3.92968,1.835937 -0.11133,0.05078 -0.10742,0.05469 -3.87891,1.925781 -0.10742,0.05469 -0.10742,0.05664 -1.91211,1.009765 9.33203,17.687504 1.79297,-0.94532 3.69922,-1.83789 3.71484,-1.73437 3.72656,-1.63086 3.8086,-1.554689 3.88086,-1.474609 3.82617,-1.347656 3.96094,-1.28711 3.95703,-1.175781 4.08984,-1.107422 4.00195,-0.974609 4.07618,-0.888672 4.14062,-0.794922 4.14648,-0.6875 4.26954,-0.597656 4.2207,-0.482422 4.24609,-0.376953 4.2793,-0.271485 2.52539,-0.0957 -0.75781,-19.986328 z m 40.92187,22.681641 2.66992,0.511719 4.07618,0.888672 4.00195,0.974609 4.08984,1.107422 3.59961,1.070313 5.70117,-19.169922 -3.74414,-1.113282 -0.11914,-0.03516 -0.11914,-0.0332 -4.25976,-1.152344 -0.11914,-0.0332 -0.1211,-0.0293 -4.30078,-1.048828 -0.12109,-0.0293 -0.12305,-0.02734 L 294.12305,71.25 294,71.224609 l -0.12305,-0.02344 -2.76172,-0.529297 z m 52.78321,19.541017 3.26367,1.92969 3.43554,2.14257 3.4336,2.25977 3.37695,2.3418 3.21485,2.34375 3.21874,2.46875 3.18555,2.5664 3.13281,2.64844 0.0312,0.0273 2.94532,2.61524 2.95898,2.75586 2.89063,2.82226 2.82226,2.89063 2.75391,2.95898 2.68164,3.02344 2.61133,3.08594 2.5664,3.18555 2.46875,3.21874 2.34375,3.2168 1.73828,2.50196 16.43555,-11.39454 -1.77148,-2.55468 -0.0684,-0.0996 -0.0703,-0.0957 -2.53126,-3.4707 -0.0703,-0.0977 -0.0723,-0.0937 -2.61133,-3.40625 -0.0742,-0.0957 -0.0742,-0.0918 -2.6914,-3.34179 -0.0742,-0.0937 -0.0781,-0.0898 -2.76758,-3.27539 -0.0781,-0.0918 -0.0781,-0.0879 -2.8457,-3.20704 -0.0781,-0.0898 -0.082,-0.0859 -2.91992,-3.13672 -0.082,-0.0879 -0.082,-0.0859 -2.99414,-3.06641 -0.084,-0.084 -0.084,-0.084 -3.06641,-2.99414 -0.0859,-0.082 -0.0879,-0.082 -3.13672,-2.91992 -0.0859,-0.082 -0.0898,-0.0781 -3.20704,-2.8457 -0.0879,-0.0781 -0.0918,-0.0781 -3.27539,-2.76758 -0.0899,-0.0781 -0.0937,-0.0742 -3.34179,-2.6914 -0.0918,-0.0742 -0.0957,-0.0742 -3.40625,-2.61133 -0.0937,-0.0723 -0.0977,-0.0703 -3.4707,-2.53126 -0.0957,-0.0703 -0.0996,-0.0684 -3.53125,-2.449216 -0.0996,-0.06836 -0.0996,-0.06641 -3.59376,-2.365235 -0.10156,-0.06641 -0.10156,-0.0625 -3.65234,-2.28125 -0.10352,-0.06445 -0.10352,-0.06055 -3.39062,-2.003906 z m -207.47657,3.45508 -0.0918,0.0781 -0.0879,0.0781 -3.20704,2.8457 -0.0898,0.0781 -0.0859,0.082 -3.13672,2.91992 -0.0879,0.082 -0.0859,0.082 -3.06446,2.99414 -0.0859,0.084 -0.084,0.084 -2.99414,3.06641 -0.082,0.0859 -0.082,0.0879 -1.35938,1.45899 14.63868,13.62891 1.2832,-1.37891 2.82226,-2.89063 2.89063,-2.82226 2.95898,-2.75391 3.02149,-2.68164 0.58203,-0.49219 -12.91406,-15.27343 z m -40.208981,48.69726 -0.0625,0.10352 -0.05859,0.10547 -2.107422,3.76953 -0.05859,0.10547 -0.05664,0.10742 -2.017578,3.82422 -0.05664,0.10742 -0.05469,0.10742 -1.925781,3.87891 -0.05469,0.10742 -0.05078,0.11133 -1.835937,3.92968 -0.05078,0.11133 -0.04883,0.11133 -1.742188,3.98242 -0.04883,0.11133 -0.04687,0.11328 -1.646484,4.03125 -0.04687,0.11524 -0.04297,0.11328 -1.550781,4.08008 -0.04492,0.11523 -0.04102,0.11719 -1.453125,4.125 -0.04102,0.11719 -0.03906,0.11718 -1.353516,4.17383 -0.03906,0.11719 -0.03516,0.11914 -1.253907,4.2168 -0.03516,0.11914 -0.0332,0.11914 -1.152344,4.25976 -0.0332,0.11914 -0.0293,0.1211 -1.048828,4.30078 -0.0293,0.12109 -0.02734,0.12305 L 71.25,217.87695 71.224609,218 l -0.02344,0.12305 -0.839844,4.3789 -0.02344,0.12305 -0.01953,0.125 -0.732421,4.41602 -0.02148,0.12304 -0.01758,0.125 -0.623047,4.45313 -0.01563,0.12304 -0.01563,0.12696 -0.511719,4.48633 -0.01563,0.125 -0.0098,0.125 -0.378907,4.26171 19.921876,1.76954 0.365234,-4.12891 0.482422,-4.2207 0.597656,-4.26954 0.6875,-4.14648 0.794922,-4.14062 0.888672,-4.07618 0.974609,-4.00195 1.107422,-4.08984 1.175781,-3.95703 1.28711,-3.95899 1.373046,-3.89648 1.449219,-3.8125 1.554689,-3.8086 1.63086,-3.72656 1.73437,-3.71484 1.83789,-3.69727 1.89258,-3.58789 2.00586,-3.58984 0.41602,-0.70117 -17.2168,-10.17774 z m 325.318361,30.19336 -4.89649,1.86133 0.0449,0.12109 0.0117,0.0293 1.43946,3.78516 1.37304,3.89648 1.28711,3.95899 1.17578,3.95898 0.5918,2.18164 19.30469,-5.22461 -0.61523,-2.27734 -0.0332,-0.11914 -0.0351,-0.11914 -1.25391,-4.2168 -0.0352,-0.11914 -0.0391,-0.11719 -1.35351,-4.17383 -0.0391,-0.11718 -0.041,-0.11719 -1.45313,-4.125 -0.041,-0.11719 -0.0449,-0.11523 -1.55078,-4.08008 -0.043,-0.11328 -0.0469,-0.11524 -0.043,-0.10742 z m 6.6914,57.01953 0.0918,2.44336 0.0547,4.33594 -0.0547,4.33594 -0.16601,4.38281 -0.27149,4.2793 -0.37695,4.24609 -0.48242,4.2207 -0.59766,4.26954 -0.6875,4.14648 -0.79492,4.14062 -0.88867,4.07618 -0.97461,4.00195 -1.10743,4.08984 -1.17578,3.95703 -1.28711,3.95899 -1.37304,3.89648 -1.44922,3.8125 -1.60352,3.92578 18.51367,7.56446 1.64649,-4.03125 0.0469,-0.11524 0.043,-0.11328 1.55078,-4.08008 0.0449,-0.11523 0.041,-0.11719 1.45313,-4.125 0.041,-0.11719 0.0391,-0.11718 1.35351,-4.17383 0.0391,-0.11719 0.0352,-0.11914 1.25391,-4.2168 0.0351,-0.11914 0.0332,-0.11914 1.15234,-4.25976 0.0332,-0.11914 0.0293,-0.1211 1.04883,-4.30078 0.0293,-0.12109 0.0274,-0.12305 0.94531,-4.33984 0.0254,-0.12305 0.0234,-0.12305 0.83984,-4.3789 0.0234,-0.12305 0.0195,-0.125 0.73242,-4.41602 0.0215,-0.12304 0.0176,-0.125 0.62305,-4.45313 0.0156,-0.12304 0.0156,-0.12696 0.51172,-4.48633 0.0156,-0.125 0.01,-0.125 0.40235,-4.51953 0.0117,-0.12695 0.008,-0.125 0.28711,-4.55078 0.008,-0.12695 0.006,-0.12696 0.17383,-4.58008 0.006,-0.12695 0,-0.12695 0.0586,-4.60938 0.002,-0.12695 -0.002,-0.12695 -0.0586,-4.60938 0,-0.12695 -0.006,-0.12695 -0.0977,-2.54883 z m -355.093746,34.06055 0.181641,1.30469 0.01758,0.125 0.02148,0.12304 0.732421,4.41602 0.01953,0.125 0.02344,0.12305 0.839844,4.3789 0.02344,0.12305 0.02539,0.12305 0.945312,4.33984 0.02734,0.12305 0.0293,0.12109 1.048828,4.30078 0.0293,0.1211 0.0332,0.11914 0.230469,0.84961 19.304688,-5.22461 -0.207032,-0.77149 -0.976562,-4.0039 -0.888672,-4.07618 -0.794922,-4.14062 -0.6875,-4.14844 -0.171875,-1.22265 z m 19.457032,60.08789 1.283203,2.43164 0.05664,0.10742 0.05859,0.10547 2.107422,3.76953 0.05859,0.10547 0.0625,0.10352 2.193359,3.71093 0.06055,0.10352 0.06445,0.10352 2.28125,3.65234 0.0625,0.10156 0.06641,0.10156 2.365235,3.59376 0.06641,0.0996 0.06836,0.0996 2.449216,3.53125 0.0684,0.0996 0.0703,0.0957 2.53126,3.4707 0.0703,0.0977 0.0723,0.0937 2.61133,3.40625 0.0742,0.0957 0.0742,0.0918 2.6914,3.34179 0.0742,0.0937 0.0781,0.0899 2.76758,3.27539 0.0781,0.0918 0.0781,0.0879 2.8457,3.20704 0.0781,0.0898 0.082,0.0859 2.91992,3.13672 0.082,0.0879 0.082,0.0859 2.99414,3.06446 0.084,0.0859 0.0859,0.084 3.06446,2.99414 0.0859,0.082 0.0879,0.082 3.13672,2.91992 0.0859,0.082 0.0898,0.0781 3.20704,2.8457 0.0879,0.0781 0.0918,0.0781 3.27539,2.76758 0.0898,0.0781 0.0937,0.0742 3.34179,2.6914 0.0918,0.0742 0.0957,0.0742 3.37891,2.58984 12.16797,-15.87109 -3.27148,-2.50977 -3.18555,-2.5664 -3.08594,-2.61133 -3.02344,-2.68164 -2.95898,-2.75391 -2.89063,-2.82226 -2.82226,-2.89063 -2.75391,-2.95898 -2.68164,-3.02344 -2.61133,-3.08594 -2.5664,-3.18555 -2.46875,-3.21874 -2.34375,-3.21485 -2.3418,-3.37695 -2.25977,-3.4336 -2.14453,-3.4375 -2.04101,-3.45117 -2.00977,-3.5957 -1.2207,-2.3125 z m 90.714844,85.08008 2.93359,1.2832 0.11133,0.0488 0.11328,0.0469 4.03125,1.64649 0.11524,0.0469 0.11328,0.043 4.08008,1.55078 0.11523,0.0449 0.11719,0.041 4.125,1.45313 0.11719,0.041 0.11718,0.0391 3.52539,1.14257 6.17578,-19.02148 -3.43359,-1.11524 -3.89648,-1.37304 -3.8125,-1.44922 -3.80664,-1.55469 -2.82422,-1.23633 z M 314,414.36719 l -3.89453,1.37304 -3.95899,1.28711 -3.95703,1.17578 -4.08984,1.10743 -4.00195,0.97461 -4.07618,0.88867 -4.14062,0.79492 -4.14648,0.6875 -4.26954,0.59766 -4.2207,0.48242 -4.24609,0.37695 -4.2793,0.27149 -4.38281,0.16601 -4.33594,0.0547 -4.33398,-0.0547 -4.38477,-0.16601 -4.28125,-0.27149 -0.69922,-0.0625 -1.76953,19.92188 0.8418,0.0742 0.12695,0.0117 0.125,0.008 4.55078,0.28711 0.12695,0.008 0.12696,0.006 4.58008,0.17383 0.12695,0.006 0.12695,0 4.60938,0.0586 0.12695,0.002 0.12695,-0.002 4.60938,-0.0586 0.12695,0 0.12695,-0.006 4.58008,-0.17383 0.12696,-0.006 0.12695,-0.008 4.55078,-0.28711 0.125,-0.008 0.12695,-0.0117 4.51953,-0.40235 0.125,-0.01 0.125,-0.0156 4.48633,-0.51172 0.12696,-0.0156 0.12304,-0.0156 4.45313,-0.62305 0.125,-0.0176 0.12304,-0.0215 4.41602,-0.73242 0.125,-0.0195 0.12305,-0.0234 4.3789,-0.83984 0.12305,-0.0234 0.12305,-0.0254 4.33984,-0.94531 0.12305,-0.0274 0.12109,-0.0293 4.30078,-1.04883 0.1211,-0.0293 0.11914,-0.0332 4.25976,-1.15234 0.11914,-0.0332 0.11914,-0.0351 4.2168,-1.25391 0.11914,-0.0352 0.11719,-0.0391 4.17383,-1.35351 0.11718,-0.0391 0.11719,-0.041 4.125,-1.45313 0.11719,-0.041 0.11523,-0.0449 2.54102,-0.96484 -7.10742,-18.69531 z"
     id="path15362"
     inkscape:connector-curvature="0" />
  <path
     sodipodi:nodetypes="ccccczc"
     inkscape:connector-curvature="0"
     id="path15364"
     d="m 387.0402,307.836 14.9007,55.6103 14.9007,55.6103 -55.6103,-14.9007 -55.6102,-14.9008 c 0,0 42.4658,-11.8135 56.0357,-25.3833 13.5699,-13.5699 25.3834,-56.0358 25.3834,-56.0358 z"
     inkscape:transform-center-y="-107.44635"
     inkscape:transform-center-x="-105.23139"
     style="fill:#ffffff;stroke:none;stroke-width:20;stroke-miterlimit:4;stroke-dasharray:none" />
  <circle
     style="fill:none;stroke:#ffffff;stroke-width:14.53779507;stroke-linecap:butt;stroke-miterlimit:4;stroke-dasharray:none;stroke-dashoffset:134"
     id="path5043"
     cx="5416"
     cy="-3812.5032"
     r="0" />
</svg>
