<?xml version="1.0" encoding="UTF-8" standalone="no"?>
<svg
   xmlns:dc="http://purl.org/dc/elements/1.1/"
   xmlns:cc="http://creativecommons.org/ns#"
   xmlns:rdf="http://www.w3.org/1999/02/22-rdf-syntax-ns#"
   xmlns:svg="http://www.w3.org/2000/svg"
   xmlns="http://www.w3.org/2000/svg"
   xmlns:sodipodi="http://sodipodi.sourceforge.net/DTD/sodipodi-0.dtd"
   xmlns:inkscape="http://www.inkscape.org/namespaces/inkscape"
   viewBox="0 0 512 512"
   id="svg2"
   version="1.1"
   inkscape:version="0.91 r13725"
   sodipodi:docname="directions-dotted-south-west.svg">
  <metadata
     id="metadata12">
    <rdf:RDF>
      <cc:Work
         rdf:about="">
        <dc:format>image/svg+xml</dc:format>
        <dc:type
           rdf:resource="http://purl.org/dc/dcmitype/StillImage" />
        <dc:title />
      </cc:Work>
    </rdf:RDF>
  </metadata>
  <defs
     id="defs10">
    <marker
       inkscape:isstock="true"
       style="overflow:visible;"
       id="marker6040"
       refX="0.0"
       refY="0.0"
       orient="auto"
       inkscape:stockid="Arrow2Send">
      <path
         transform="scale(0.3) rotate(180) translate(-2.3,0)"
         d="M 8.7185878,4.0337352 L -2.2072895,0.016013256 L 8.7185884,-4.0017078 C 6.9730900,-1.6296469 6.9831476,1.6157441 8.7185878,4.0337352 z "
         style="fill-rule:evenodd;stroke-width:0.625;stroke-linejoin:round;stroke:#ffffff;stroke-opacity:1;fill:#ffffff;fill-opacity:1"
         id="path6042" />
    </marker>
    <marker
       inkscape:isstock="true"
       style="overflow:visible;"
       id="marker5994"
       refX="0.0"
       refY="0.0"
       orient="auto"
       inkscape:stockid="Arrow2Send">
      <path
         transform="scale(0.3) rotate(180) translate(-2.3,0)"
         d="M 8.7185878,4.0337352 L -2.2072895,0.016013256 L 8.7185884,-4.0017078 C 6.9730900,-1.6296469 6.9831476,1.6157441 8.7185878,4.0337352 z "
         style="fill-rule:evenodd;stroke-width:0.625;stroke-linejoin:round;stroke:#ffffff;stroke-opacity:1;fill:#ffffff;fill-opacity:1"
         id="path5996" />
    </marker>
    <marker
       inkscape:isstock="true"
       style="overflow:visible;"
       id="marker5954"
       refX="0.0"
       refY="0.0"
       orient="auto"
       inkscape:stockid="Arrow2Send">
      <path
         transform="scale(0.3) rotate(180) translate(-2.3,0)"
         d="M 8.7185878,4.0337352 L -2.2072895,0.016013256 L 8.7185884,-4.0017078 C 6.9730900,-1.6296469 6.9831476,1.6157441 8.7185878,4.0337352 z "
         style="fill-rule:evenodd;stroke-width:0.625;stroke-linejoin:round;stroke:#ffffff;stroke-opacity:1;fill:#ffffff;fill-opacity:1"
         id="path5956" />
    </marker>
    <marker
       inkscape:isstock="true"
       style="overflow:visible;"
       id="marker5920"
       refX="0.0"
       refY="0.0"
       orient="auto"
       inkscape:stockid="Arrow2Send">
      <path
         transform="scale(0.3) rotate(180) translate(-2.3,0)"
         d="M 8.7185878,4.0337352 L -2.2072895,0.016013256 L 8.7185884,-4.0017078 C 6.9730900,-1.6296469 6.9831476,1.6157441 8.7185878,4.0337352 z "
         style="fill-rule:evenodd;stroke-width:0.625;stroke-linejoin:round;stroke:#ffffff;stroke-opacity:1;fill:#ffffff;fill-opacity:1"
         id="path5922" />
    </marker>
    <marker
       inkscape:isstock="true"
       style="overflow:visible;"
       id="marker5892"
       refX="0.0"
       refY="0.0"
       orient="auto"
       inkscape:stockid="Arrow2Send">
      <path
         transform="scale(0.3) rotate(180) translate(-2.3,0)"
         d="M 8.7185878,4.0337352 L -2.2072895,0.016013256 L 8.7185884,-4.0017078 C 6.9730900,-1.6296469 6.9831476,1.6157441 8.7185878,4.0337352 z "
         style="fill-rule:evenodd;stroke-width:0.625;stroke-linejoin:round;stroke:#ffffff;stroke-opacity:1;fill:#ffffff;fill-opacity:1"
         id="path5894" />
    </marker>
    <marker
       inkscape:isstock="true"
       style="overflow:visible;"
       id="marker5870"
       refX="0.0"
       refY="0.0"
       orient="auto"
       inkscape:stockid="Arrow2Send">
      <path
         transform="scale(0.3) rotate(180) translate(-2.3,0)"
         d="M 8.7185878,4.0337352 L -2.2072895,0.016013256 L 8.7185884,-4.0017078 C 6.9730900,-1.6296469 6.9831476,1.6157441 8.7185878,4.0337352 z "
         style="fill-rule:evenodd;stroke-width:0.625;stroke-linejoin:round;stroke:#ffffff;stroke-opacity:1;fill:#ffffff;fill-opacity:1"
         id="path5872" />
    </marker>
  </defs>
  <sodipodi:namedview
     pagecolor="#ffffff"
     bordercolor="#666666"
     borderopacity="1"
     objecttolerance="10"
     gridtolerance="10"
     guidetolerance="10"
     inkscape:pageopacity="0"
     inkscape:pageshadow="2"
     inkscape:window-width="1829"
     inkscape:window-height="966"
     id="namedview8"
     showgrid="false"
     inkscape:zoom="1.5449218"
     inkscape:cx="256"
     inkscape:cy="256"
     inkscape:window-x="-8"
     inkscape:window-y="-8"
     inkscape:window-maximized="1"
     inkscape:current-layer="svg2"
     showguides="false"
     inkscape:guide-bbox="true"
     inkscape:snap-center="true"
     inkscape:snap-global="true"
     inkscape:snap-bbox="true" />
  <path
     id="path4368"
     d="m 0,0 512,0 0,512 -512,0 z"
     inkscape:connector-curvature="0"
     style="fill:#000000;stroke:#ffffff;stroke-width:0" />
  <g
     style="font-style:normal;font-weight:normal;font-size:122.5px;line-height:125%;font-family:sans-serif;letter-spacing:0px;word-spacing:0px;fill:#000000;fill-opacity:1;stroke:none;stroke-width:1px;stroke-linecap:butt;stroke-linejoin:miter;stroke-opacity:1"
     id="text4370"
     transform="translate(2931.9242,-1716.6413)">
    <path
       d="m -2707.207,1989.1801 q 0,13.1591 -11.1853,21.4135 -11.1255,8.1946 -30.2661,8.1946 -11.0657,0 -19.3201,-1.9141 -8.1946,-1.9738 -15.3723,-4.9646 l 0,-21.3537 2.5122,0 q 7.1179,5.6824 15.9106,8.7329 8.8526,3.0505 16.9873,3.0505 2.0935,0 5.503,-0.3589 3.4094,-0.3588 5.5627,-1.1962 2.6318,-1.0767 4.3066,-2.6917 1.7347,-1.615 1.7347,-4.7851 0,-2.931 -2.5122,-5.0245 -2.4524,-2.1533 -7.2376,-3.2898 -5.0244,-1.1962 -10.647,-2.2131 -5.5627,-1.0767 -10.4675,-2.6916 -11.2451,-3.6487 -16.2097,-9.8694 -4.9048,-6.2805 -4.9048,-15.5518 0,-12.4414 11.1255,-20.2771 11.1853,-7.8955 28.7109,-7.8955 8.7928,0 17.3462,1.7346 8.6133,1.6748 14.8938,4.2469 l 0,20.5163 -2.4524,0 q -5.3833,-4.3066 -13.219,-7.1777 -7.7758,-2.9309 -15.9106,-2.9309 -2.8711,0 -5.7422,0.4187 -2.8113,0.3589 -5.4431,1.4355 -2.3328,0.8972 -4.0076,2.7515 -1.6748,1.7944 -1.6748,4.1272 0,3.529 2.6917,5.4431 2.6916,1.8542 10.1684,3.4094 4.9048,1.0169 9.3909,1.9739 4.5459,0.957 9.7497,2.6318 10.2283,3.3496 15.0733,9.1516 4.9048,5.7422 4.9048,14.9537 z"
       style="font-style:normal;font-variant:normal;font-weight:bold;font-stretch:normal;font-size:122.5px;font-family:sans-serif;-inkscape-font-specification:'sans-serif Bold';fill:#ffffff"
       id="path4260"
       inkscape:connector-curvature="0" />
    <path
       d="m -2568.4973,1928.1095 -23.9856,89.0637 -25.4212,0 -15.9704,-58.02 -15.5518,58.02 -25.4211,0 -23.9856,-89.0637 23.9856,0 13.6975,61.3098 16.3892,-61.3098 22.9089,0 15.6116,61.3098 14.3554,-61.3098 23.3875,0 z"
       style="font-style:normal;font-variant:normal;font-weight:bold;font-stretch:normal;font-size:122.5px;font-family:sans-serif;-inkscape-font-specification:'sans-serif Bold';fill:#ffffff"
       id="path4262"
       inkscape:connector-curvature="0" />
  </g>
  <path
     style="color:#000000;font-style:normal;font-variant:normal;font-weight:normal;font-stretch:normal;font-size:medium;line-height:normal;font-family:sans-serif;text-indent:0;text-align:start;text-decoration:none;text-decoration-line:none;text-decoration-style:solid;text-decoration-color:#000000;letter-spacing:normal;word-spacing:normal;text-transform:none;direction:ltr;block-progression:tb;writing-mode:lr-tb;baseline-shift:baseline;text-anchor:start;white-space:normal;clip-rule:nonzero;display:inline;overflow:visible;visibility:visible;opacity:1;isolation:auto;mix-blend-mode:normal;color-interpolation:sRGB;color-interpolation-filters:linearRGB;solid-color:#000000;solid-opacity:1;fill:#ffffff;fill-opacity:1;fill-rule:nonzero;stroke:none;stroke-width:20;stroke-linecap:butt;stroke-linejoin:miter;stroke-miterlimit:4;stroke-dasharray:20, 40;stroke-dashoffset:0;stroke-opacity:1;color-rendering:auto;image-rendering:auto;shape-rendering:auto;text-rendering:auto;enable-background:accumulate"
     d="m 267.93164,87.820312 1.06836,0.06641 4.24414,0.376953 4.2207,0.482422 4.26954,0.597656 4.13867,0.6875 0.64062,0.123047 3.76367,-19.642578 -0.77929,-0.150391 -0.12305,-0.02344 -0.125,-0.01953 -4.41602,-0.732421 -0.12304,-0.02148 -0.125,-0.01758 -4.45313,-0.623047 -0.12304,-0.01563 -0.12696,-0.01563 -4.48633,-0.511719 -0.125,-0.01563 -0.125,-0.0098 -4.51953,-0.402344 -0.12695,-0.01172 -0.125,-0.0078 -1.17969,-0.07422 z M 222.75,70.318359 l -0.125,0.01953 -0.12305,0.02344 -4.3789,0.839844 -0.12305,0.02344 -0.12305,0.02539 -4.33984,0.945312 -0.12305,0.02734 -0.12109,0.0293 -4.30078,1.048828 -0.1211,0.0293 -0.11914,0.0332 -2.23828,0.605469 5.22461,19.306641 2.16406,-0.585938 4,-0.974609 4.07618,-0.888672 4.14257,-0.794922 4.19141,-0.695312 -3.26758,-19.730469 z m 99.83984,30.742191 2.75977,1.20703 3.71484,1.73437 3.69727,1.83789 3.58789,1.89258 3.25586,1.81836 9.75781,-17.45703 -3.34961,-1.873047 -0.10547,-0.05859 -0.10742,-0.05664 -3.82422,-2.017578 -0.10742,-0.05664 -0.10742,-0.05273 -3.87891,-1.927735 -0.10742,-0.05469 -0.11133,-0.05078 -3.92968,-1.835937 -0.11133,-0.05078 -0.11133,-0.04883 -2.90625,-1.271485 z m -156.39062,-10.955081 -0.10742,0.05664 -0.10547,0.05859 -3.76953,2.107422 -0.10547,0.05859 -0.10352,0.0625 -3.71093,2.193359 -0.10352,0.06055 -0.10352,0.06445 -3.65234,2.28125 -0.10156,0.0625 -0.10156,0.06641 -3.59376,2.365235 -0.0996,0.06641 -0.0996,0.06836 -1.19336,0.828126 11.39453,16.4375 1.0918,-0.75781 3.43164,-2.25782 3.4375,-2.14453 3.45117,-2.04101 3.59375,-2.00977 1.04297,-0.54883 -9.33399,-17.689449 z m 203.70117,41.585941 2.43164,2.26367 2.89063,2.82226 2.82226,2.89063 2.75391,2.95898 2.39062,2.69336 14.96094,-13.27343 -2.46289,-2.7754 -0.0781,-0.0898 -0.082,-0.0859 -2.91992,-3.13672 -0.082,-0.0879 -0.082,-0.0859 -2.99414,-3.06641 -0.084,-0.084 -0.0859,-0.084 -3.06446,-2.99414 -0.0859,-0.082 -0.0879,-0.082 -2.51368,-2.33985 z m -253.42773,-2.59571 -0.082,0.0859 -0.0781,0.0898 -2.8457,3.20704 -0.0781,0.0898 -0.0781,0.0898 -2.76758,3.27539 -0.0781,0.0898 -0.0742,0.0937 -2.6914,3.34179 -0.0742,0.0918 -0.0742,0.0957 -2.61133,3.40625 -0.0723,0.0957 -0.0703,0.0957 -0.82813,1.13477 16.1582,11.78515 0.7461,-1.02148 2.46875,-3.2207 2.5664,-3.18555 2.61133,-3.08594 2.67969,-3.02344 0.89258,-0.95703 -14.63868,-13.62695 z m 288.07031,47.07618 1.61719,3.0664 1.83789,3.69727 1.73437,3.71484 1.62891,3.72461 1.23242,3.01953 18.51563,-7.56445 -1.28126,-3.13477 -0.0469,-0.11328 -0.0488,-0.11133 -1.74219,-3.98242 -0.0488,-0.11133 -0.0508,-0.11133 -1.83593,-3.92968 -0.0508,-0.10938 -0.0547,-0.10937 -1.92578,-3.87891 -0.0547,-0.10742 -0.0566,-0.10742 -1.67969,-3.18555 z m -322.275392,6.29882 -0.04883,0.11133 -0.04687,0.11328 -1.646484,4.03125 -0.04687,0.11524 -0.04297,0.11328 -1.550781,4.08008 -0.04492,0.11523 -0.04102,0.11719 -1.453125,4.12695 -0.04102,0.11524 -0.03906,0.11718 -1.353516,4.17383 -0.03906,0.11719 -0.03516,0.11914 -0.214844,0.72656 19.167969,5.70117 0.18164,-0.60742 1.28711,-3.96289 1.382812,-3.92187 1.439453,-3.78711 1.554689,-3.80469 0.66016,-1.50781 -18.324224,-8.01563 z m 340.298832,47.26368 0.0898,0.54101 0.59766,4.25977 0.48242,4.2207 0.37695,4.24609 0.27149,4.2793 0.041,1.08789 19.98633,-0.75976 -0.0449,-1.17969 -0.006,-0.12696 -0.008,-0.12695 -0.28711,-4.55078 -0.008,-0.125 -0.0117,-0.12695 -0.40235,-4.51953 -0.01,-0.125 -0.0156,-0.125 -0.51172,-4.48633 -0.0156,-0.12696 -0.0156,-0.12304 -0.62305,-4.45313 -0.0176,-0.125 -0.0215,-0.12304 -0.11523,-0.70118 z m -354.919926,16.4414 -0.0078,0.12695 -0.0059,0.12696 -0.173828,4.58008 -0.0059,0.12695 0,0.12695 -0.05859,4.60938 -0.002,0.12695 0.002,0.12695 0.05859,4.60938 0,0.12695 0.0059,0.12695 0.08398,2.22657 19.986328,-0.75977 -0.08008,-2.12109 -0.05469,-4.33594 0.05469,-4.33594 0.166015,-4.38281 0.242188,-3.79883 -19.960938,-1.26367 z m 353.527346,43.8457 -0.88867,4.07618 -0.97461,4.00195 -1.10743,4.08984 -0.66015,2.21875 19.16992,5.70313 0.70313,-2.36328 0.0351,-0.11914 0.0332,-0.1211 1.15234,-4.25976 0.0332,-0.11914 0.0293,-0.1211 1.04883,-4.30078 0.0293,-0.12109 0.0274,-0.12305 0.94531,-4.33984 0.0254,-0.12305 0.0234,-0.12305 0.80078,-4.17578 -19.64258,-3.76367 z m -347.357424,14.89844 0.699219,2.58789 0.0332,0.1211 0.03516,0.11914 1.253907,4.21484 0.03516,0.11914 0.03906,0.11914 1.353516,4.17188 0.03906,0.11718 0.04102,0.11719 1.453125,4.125 0.04102,0.11719 0.04492,0.11523 1.476562,3.88672 18.695313,-7.10742 L 97.632812,314 l -1.373046,-3.89453 -1.28711,-3.95899 -1.175781,-3.95703 -0.675781,-2.49414 z m 328.439454,35.0293 -2.03906,3.44726 -2.14453,3.4375 -2.25977,3.4336 -2.3418,3.375 -0.90625,1.24414 16.15821,11.78516 1.01172,-1.38672 0.0703,-0.0957 0.0684,-0.0996 2.44922,-3.53125 0.0684,-0.0996 0.0664,-0.0996 2.36524,-3.59376 0.0664,-0.10156 0.0625,-0.10156 2.28125,-3.65234 0.0645,-0.10352 0.0605,-0.10352 2.19336,-3.71093 0.0625,-0.10352 0.0586,-0.10547 0.51953,-0.93164 -17.45703,-9.75976 z m -35.90039,43.5293 -3.0918,2.61328 -3.18555,2.5664 -3.21874,2.46875 -3.2168,2.34375 -1.32031,0.91797 11.39453,16.43555 1.37304,-0.95117 0.0996,-0.0684 0.0957,-0.0703 3.4707,-2.53126 0.0977,-0.0703 0.0937,-0.0723 3.40625,-2.61133 0.0957,-0.0742 0.0918,-0.0742 3.34179,-2.6914 0.0937,-0.0742 0.0899,-0.0781 3.27539,-2.76758 0.0918,-0.0781 0.0879,-0.0781 0.8711,-0.77343 -13.27344,-14.95899 z m -183.66016,46.3496 4.03125,1.64649 0.11524,0.0469 0.11328,0.043 4.08008,1.55274 0.11523,0.043 0.11719,0.041 4.125,1.45313 0.11719,0.041 0.11718,0.0391 4.17383,1.35351 0.11719,0.0391 0.11914,0.0352 2.41406,0.71875 5.70313,-19.16992 -2.30078,-0.6836 -3.96094,-1.28711 -3.82617,-1.34765 -3.88086,-1.47461 -3.92578,-1.60352 z m 135.11914,-16.91015 -3.88086,1.47461 -3.82617,1.34765 -3.96094,1.28711 -3.95703,1.17578 -0.79297,0.21485 5.22461,19.30664 0.88672,-0.24023 0.11914,-0.0332 0.11914,-0.0351 4.2168,-1.25391 0.11914,-0.0352 0.11719,-0.0391 4.17383,-1.35351 0.11718,-0.0391 0.11719,-0.041 4.125,-1.45313 0.11719,-0.041 0.11523,-0.043 4.08008,-1.55274 0.11328,-0.043 0.11524,-0.0469 1.43945,-0.58789 -7.56445,-18.51367 z m -73.83789,31.29687 2.19922,0.13868 0.12695,0.01 0.12696,0.004 4.58008,0.17383 0.12695,0.006 0.12695,0 4.60938,0.0586 0.12695,0.002 0.12695,-0.002 4.60938,-0.0586 0.12695,0 0.12695,-0.006 3.98633,-0.1504 -0.75976,-19.98632 -3.80664,0.14453 -4.41016,0.0566 -4.41016,-0.0566 -4.31054,-0.16406 -2.03907,-0.12891 z"
     id="path5412"
     inkscape:connector-curvature="0" />
  <path
     sodipodi:nodetypes="ccccczc"
     inkscape:connector-curvature="0"
     id="path5414"
     d="m 124.9598,307.8361 -14.9007,55.6103 -14.9007,55.6103 55.6103,-14.9007 55.6102,-14.9008 c 0,0 -42.4658,-11.8135 -56.0357,-25.3833 -13.5699,-13.5699 -25.3834,-56.0358 -25.3834,-56.0358 z"
     inkscape:transform-center-y="-107.44635"
     inkscape:transform-center-x="-105.23139"
     style="fill:#ffffff;stroke:none;stroke-width:20;stroke-miterlimit:4;stroke-dasharray:none" />
  <text
     xml:space="preserve"
     style="font-style:normal;font-weight:normal;font-size:20px;line-height:125%;font-family:sans-serif;letter-spacing:0px;word-spacing:0px;fill:#000000;fill-opacity:1;stroke:none;stroke-width:1px;stroke-linecap:butt;stroke-linejoin:miter;stroke-opacity:1"
     x="2309.179"
     y="334.37085"
     id="text15804"
     sodipodi:linespacing="125%"><tspan
       sodipodi:role="line"
       id="tspan15806"
       x="2309.179"
       y="334.37085" /></text>
  <ellipse
     style="fill:none;stroke:#ffffff;stroke-width:14.53779507;stroke-linecap:butt;stroke-miterlimit:4;stroke-dasharray:none;stroke-dashoffset:134"
     id="path5043"
     cx="184.07581"
     cy="-1484.8546"
     r="237.03972" />
</svg>
