<?xml version="1.0" encoding="UTF-8" standalone="no"?>
<svg
   xmlns:dc="http://purl.org/dc/elements/1.1/"
   xmlns:cc="http://creativecommons.org/ns#"
   xmlns:rdf="http://www.w3.org/1999/02/22-rdf-syntax-ns#"
   xmlns:svg="http://www.w3.org/2000/svg"
   xmlns="http://www.w3.org/2000/svg"
   xmlns:sodipodi="http://sodipodi.sourceforge.net/DTD/sodipodi-0.dtd"
   xmlns:inkscape="http://www.inkscape.org/namespaces/inkscape"
   viewBox="0 0 512 512"
   id="svg2"
   version="1.1"
   inkscape:version="0.91 r13725"
   sodipodi:docname="directions-dotted-south.svg">
  <metadata
     id="metadata12">
    <rdf:RDF>
      <cc:Work
         rdf:about="">
        <dc:format>image/svg+xml</dc:format>
        <dc:type
           rdf:resource="http://purl.org/dc/dcmitype/StillImage" />
        <dc:title />
      </cc:Work>
    </rdf:RDF>
  </metadata>
  <defs
     id="defs10">
    <marker
       inkscape:isstock="true"
       style="overflow:visible;"
       id="marker6040"
       refX="0.0"
       refY="0.0"
       orient="auto"
       inkscape:stockid="Arrow2Send">
      <path
         transform="scale(0.3) rotate(180) translate(-2.3,0)"
         d="M 8.7185878,4.0337352 L -2.2072895,0.016013256 L 8.7185884,-4.0017078 C 6.9730900,-1.6296469 6.9831476,1.6157441 8.7185878,4.0337352 z "
         style="fill-rule:evenodd;stroke-width:0.625;stroke-linejoin:round;stroke:#ffffff;stroke-opacity:1;fill:#ffffff;fill-opacity:1"
         id="path6042" />
    </marker>
    <marker
       inkscape:isstock="true"
       style="overflow:visible;"
       id="marker5994"
       refX="0.0"
       refY="0.0"
       orient="auto"
       inkscape:stockid="Arrow2Send">
      <path
         transform="scale(0.3) rotate(180) translate(-2.3,0)"
         d="M 8.7185878,4.0337352 L -2.2072895,0.016013256 L 8.7185884,-4.0017078 C 6.9730900,-1.6296469 6.9831476,1.6157441 8.7185878,4.0337352 z "
         style="fill-rule:evenodd;stroke-width:0.625;stroke-linejoin:round;stroke:#ffffff;stroke-opacity:1;fill:#ffffff;fill-opacity:1"
         id="path5996" />
    </marker>
    <marker
       inkscape:isstock="true"
       style="overflow:visible;"
       id="marker5954"
       refX="0.0"
       refY="0.0"
       orient="auto"
       inkscape:stockid="Arrow2Send">
      <path
         transform="scale(0.3) rotate(180) translate(-2.3,0)"
         d="M 8.7185878,4.0337352 L -2.2072895,0.016013256 L 8.7185884,-4.0017078 C 6.9730900,-1.6296469 6.9831476,1.6157441 8.7185878,4.0337352 z "
         style="fill-rule:evenodd;stroke-width:0.625;stroke-linejoin:round;stroke:#ffffff;stroke-opacity:1;fill:#ffffff;fill-opacity:1"
         id="path5956" />
    </marker>
    <marker
       inkscape:isstock="true"
       style="overflow:visible;"
       id="marker5920"
       refX="0.0"
       refY="0.0"
       orient="auto"
       inkscape:stockid="Arrow2Send">
      <path
         transform="scale(0.3) rotate(180) translate(-2.3,0)"
         d="M 8.7185878,4.0337352 L -2.2072895,0.016013256 L 8.7185884,-4.0017078 C 6.9730900,-1.6296469 6.9831476,1.6157441 8.7185878,4.0337352 z "
         style="fill-rule:evenodd;stroke-width:0.625;stroke-linejoin:round;stroke:#ffffff;stroke-opacity:1;fill:#ffffff;fill-opacity:1"
         id="path5922" />
    </marker>
    <marker
       inkscape:isstock="true"
       style="overflow:visible;"
       id="marker5892"
       refX="0.0"
       refY="0.0"
       orient="auto"
       inkscape:stockid="Arrow2Send">
      <path
         transform="scale(0.3) rotate(180) translate(-2.3,0)"
         d="M 8.7185878,4.0337352 L -2.2072895,0.016013256 L 8.7185884,-4.0017078 C 6.9730900,-1.6296469 6.9831476,1.6157441 8.7185878,4.0337352 z "
         style="fill-rule:evenodd;stroke-width:0.625;stroke-linejoin:round;stroke:#ffffff;stroke-opacity:1;fill:#ffffff;fill-opacity:1"
         id="path5894" />
    </marker>
    <marker
       inkscape:isstock="true"
       style="overflow:visible;"
       id="marker5870"
       refX="0.0"
       refY="0.0"
       orient="auto"
       inkscape:stockid="Arrow2Send">
      <path
         transform="scale(0.3) rotate(180) translate(-2.3,0)"
         d="M 8.7185878,4.0337352 L -2.2072895,0.016013256 L 8.7185884,-4.0017078 C 6.9730900,-1.6296469 6.9831476,1.6157441 8.7185878,4.0337352 z "
         style="fill-rule:evenodd;stroke-width:0.625;stroke-linejoin:round;stroke:#ffffff;stroke-opacity:1;fill:#ffffff;fill-opacity:1"
         id="path5872" />
    </marker>
  </defs>
  <sodipodi:namedview
     pagecolor="#ffffff"
     bordercolor="#666666"
     borderopacity="1"
     objecttolerance="10"
     gridtolerance="10"
     guidetolerance="10"
     inkscape:pageopacity="0"
     inkscape:pageshadow="2"
     inkscape:window-width="1829"
     inkscape:window-height="966"
     id="namedview8"
     showgrid="false"
     inkscape:zoom="1.5449218"
     inkscape:cx="256"
     inkscape:cy="256"
     inkscape:window-x="-8"
     inkscape:window-y="-8"
     inkscape:window-maximized="1"
     inkscape:current-layer="svg2"
     showguides="false"
     inkscape:guide-bbox="true"
     inkscape:snap-center="true"
     inkscape:snap-global="true"
     inkscape:snap-bbox="true" />
  <path
     id="path4338"
     d="m 0,-1e-6 512,0 L 512,512 0,512 Z"
     inkscape:connector-curvature="0"
     style="fill:#000000;stroke:#ffffff;stroke-width:0" />
  <g
     style="font-style:normal;font-weight:normal;font-size:183.75px;line-height:125%;font-family:sans-serif;letter-spacing:0px;word-spacing:0px;fill:#000000;fill-opacity:1;stroke:none;stroke-width:1px;stroke-linecap:butt;stroke-linejoin:miter;stroke-opacity:1"
     id="text4340"
     transform="translate(2931.9242,602.99086)">
    <path
       d="m -2618.8164,-322.1828 q 0,19.73877 -16.778,32.12036 -16.6882,12.29187 -45.3991,12.29187 -16.5985,0 -28.9801,-2.87109 -12.2919,-2.96082 -23.0585,-7.4469 l 0,-32.03064 3.7683,0 q 10.6769,8.52356 23.866,13.09936 13.2788,4.57581 25.4809,4.57581 3.1403,0 8.2544,-0.53833 5.1142,-0.53833 8.3441,-1.79443 3.9478,-1.61499 6.46,-4.03748 2.6019,-2.42249 2.6019,-7.17773 0,-4.39637 -3.7683,-7.53663 -3.6786,-3.22998 -10.8563,-4.93469 -7.5366,-1.79443 -15.9705,-3.3197 -8.3441,-1.61499 -15.7013,-4.03748 -16.8676,-5.47302 -24.3145,-14.80407 -7.3572,-9.42078 -7.3572,-23.32764 0,-18.66211 16.6882,-30.41565 16.778,-11.84326 43.0664,-11.84326 13.1891,0 26.0193,2.60193 12.9199,2.51221 22.3407,6.37024 l 0,30.77453 -3.6786,0 q -8.0749,-6.45996 -19.8285,-10.7666 -11.6638,-4.39636 -23.8659,-4.39636 -4.3067,0 -8.6133,0.62805 -4.2169,0.53833 -8.1647,2.15332 -3.4991,1.34583 -6.0113,4.1272 -2.5122,2.69165 -2.5122,6.19079 0,5.29358 4.0374,8.16468 4.0375,2.78137 15.2527,5.11413 7.3572,1.52527 14.0863,2.96082 6.8189,1.43555 14.6247,3.94775 15.3424,5.02442 22.6098,13.72742 7.3572,8.61328 7.3572,22.43042 z"
       style="font-style:normal;font-variant:normal;font-weight:bold;font-stretch:normal;font-size:183.75px;font-family:sans-serif;-inkscape-font-specification:'sans-serif Bold';fill:#ffffff"
       id="path4260"
       inkscape:connector-curvature="0" />
  </g>
  <path
     style="color:#000000;font-style:normal;font-variant:normal;font-weight:normal;font-stretch:normal;font-size:medium;line-height:normal;font-family:sans-serif;text-indent:0;text-align:start;text-decoration:none;text-decoration-line:none;text-decoration-style:solid;text-decoration-color:#000000;letter-spacing:normal;word-spacing:normal;text-transform:none;direction:ltr;block-progression:tb;writing-mode:lr-tb;baseline-shift:baseline;text-anchor:start;white-space:normal;clip-rule:nonzero;display:inline;overflow:visible;visibility:visible;opacity:1;isolation:auto;mix-blend-mode:normal;color-interpolation:sRGB;color-interpolation-filters:linearRGB;solid-color:#000000;solid-opacity:1;fill:#ffffff;fill-opacity:1;fill-rule:nonzero;stroke:none;stroke-width:20;stroke-linecap:butt;stroke-linejoin:miter;stroke-miterlimit:4;stroke-dasharray:20, 40;stroke-dashoffset:0;stroke-opacity:1;color-rendering:auto;image-rendering:auto;shape-rendering:auto;text-rendering:auto;enable-background:accumulate"
     d="m 255.88086,67.394531 -4.28516,0.05078 -0.11914,0.002 -0.11914,0.0039 -3.43164,0.123047 0.71484,19.986328 3.30469,-0.119141 4.05469,-0.04687 4.05273,0.04687 4.05274,0.146485 3.57031,0.21289 1.19141,-19.964843 -3.70313,-0.220704 -0.11914,-0.0078 -0.11914,-0.0039 -4.2832,-0.152344 -0.11914,-0.0039 -0.11914,-0.002 -4.28516,-0.05078 -0.11914,-0.002 z m -53.45508,7.732422 -0.11523,0.0332 -0.11719,0.03516 -4.12891,1.277344 -0.11718,0.03711 -0.11524,0.03906 -4.10351,1.378906 -0.11524,0.03906 -0.11523,0.04102 -4.07617,1.480469 -0.11524,0.04297 -0.11328,0.04492 -2.95313,1.154297 7.28711,18.625 2.78125,-1.087891 3.92579,-1.427734 3.85937,-1.296875 3.83594,-1.1875 3.63281,-1.027344 -5.44336,-19.246094 z m 102.16211,19.390625 3.32031,1.025391 3.85742,1.296875 3.92774,1.427734 3.72852,1.458984 3.03906,1.275388 7.74218,-18.43945 -3.12109,-1.310547 -0.11328,-0.04883 -0.11523,-0.04297 -4.04688,-1.583984 -0.11328,-0.04492 -0.11524,-0.04297 -4.07617,-1.480469 -0.11523,-0.04102 -0.11524,-0.03906 -4.10351,-1.378906 -0.11524,-0.03906 -0.11718,-0.03711 -3.43946,-1.0625 z m -156.16797,6.529302 -0.10351,0.0703 -0.10157,0.0742 -3.64062,2.60547 -0.10156,0.0723 -0.10157,0.0762 -3.58789,2.70703 -0.10156,0.0762 -0.0977,0.0781 -3.53515,2.81055 -0.0996,0.0781 -0.0957,0.082 -3.48047,2.91016 -0.0957,0.082 -0.0957,0.084 -0.88672,0.77929 13.2207,15.00977 0.80079,-0.70703 3.29297,-2.75586 3.31835,-2.63867 3.40821,-2.57032 3.45508,-2.46875 0.51562,-0.34961 -11.22852,-16.55078 z m 206.78711,18.5996 0.50195,0.35938 3.41016,2.57422 3.27148,2.59961 3.29883,2.75976 3.24219,2.85547 0.76758,0.71485 13.5957,-14.66993 -0.86719,-0.80273 -0.0918,-0.0859 -0.0957,-0.084 -3.42187,-3.01367 -0.0957,-0.084 -0.0957,-0.082 -3.48047,-2.91016 -0.0957,-0.082 -0.0996,-0.0781 -3.53515,-2.81055 -0.0977,-0.0781 -0.10156,-0.0762 -3.58789,-2.70703 -0.10157,-0.0762 -0.10156,-0.0723 -0.57812,-0.41407 z m -254.01562,28.56836 -0.0742,0.10157 -0.0703,0.10351 -2.503911,3.68946 -0.07031,0.10546 -0.06641,0.10547 -2.402344,3.73633 -0.06641,0.10547 -0.06445,0.10742 -2.298828,3.78125 -0.06641,0.10742 -0.06055,0.10742 -1.154297,2.01172 17.343751,9.95704 1.09375,-1.90626 2.10156,-3.46093 0.0273,-0.043 2.31835,-3.60938 2.35352,-3.46679 2.45703,-3.4336 -16.26367,-11.64062 z m 293.32617,11.60547 2.30664,3.39649 2.28125,3.55273 2.16406,3.56055 2.07031,3.60742 1.11914,2.06445 17.58594,-9.52148 -1.17383,-2.16992 -0.0586,-0.10938 -0.0625,-0.10742 -2.19727,-3.82813 -0.0605,-0.10742 -0.0664,-0.10547 -2.29883,-3.7832 -0.0645,-0.10742 -0.0664,-0.10547 -2.40234,-3.73633 -0.0664,-0.10547 -0.0703,-0.10546 -2.38867,-3.51758 z m -319.322268,42.37305 -0.03516,0.11719 -0.0332,0.11523 -1.173828,4.1543 -0.0332,0.11719 -0.03125,0.11718 -1.072266,4.17578 -0.0293,0.11719 -0.02734,0.11719 -0.970704,4.19531 -0.02734,0.11719 -0.02539,0.11719 -0.867187,4.21484 -0.02539,0.11719 -0.02148,0.11719 -0.257813,1.42968 19.679688,3.56641 0.230468,-1.28125 0.839844,-4.06445 0.896485,-3.88282 1.017578,-3.95507 1.126953,-3.98633 0.333984,-1.07813 -19.105469,-5.9082 z m 343.316408,8.80469 0.26172,0.92187 1.01562,3.95117 0.89649,3.88282 0.83984,4.06836 0.72461,4 0.23828,1.53515 19.75977,-3.0918 -0.26563,-1.69531 -0.0176,-0.11914 -0.0215,-0.11719 -0.76563,-4.23046 -0.0215,-0.11719 -0.0254,-0.11719 -0.86719,-4.21484 -0.0254,-0.11719 -0.0273,-0.11719 -0.97071,-4.19531 -0.0273,-0.11719 -0.0293,-0.11719 -1.07226,-4.17578 -0.0312,-0.11718 -0.0332,-0.11719 -0.28907,-1.02539 z m -350.958986,52.49023 0.05078,1.4375 0.0039,0.11914 0.0078,0.11914 0.25586,4.2793 0.0059,0.11914 0.01172,0.11914 0.357422,4.27148 0.0098,0.11915 0.01172,0.11914 0.460938,4.26562 0.01172,0.11914 0.01563,0.11719 0.5625,4.25586 0.01563,0.11914 0.01953,0.11719 0.216796,1.38867 19.759766,-3.0918 -0.195312,-1.23437 -0.529297,-4.01563 -0.4375,-4.0332 -0.337891,-4.04102 -0.242187,-4.05664 -0.04883,-1.32812 z m 356.617186,4.66211 -0.33789,4.04883 -0.4375,4.0332 -0.53125,4.02344 -0.61523,3.92773 -0.28321,1.56055 19.67969,3.56641 0.29883,-1.64453 0.0215,-0.11719 0.0176,-0.11914 0.66406,-4.24414 0.0195,-0.11719 0.0156,-0.11914 0.5625,-4.25586 0.0156,-0.11719 0.0117,-0.11914 0.46094,-4.26562 0.0117,-0.11914 0.01,-0.11915 0.35742,-4.27148 0.01,-0.11914 0.008,-0.11914 0.0703,-1.16211 -19.96484,-1.19336 z m -343.652342,57.06445 0.640625,1.63868 0.04492,0.11523 0.04883,0.11328 1.685547,4.01367 0.04687,0.11328 0.05078,0.11329 1.78711,3.98046 0.05078,0.11329 0.05469,0.11132 1.888672,3.94532 0.05469,0.11132 0.05469,0.10938 1.992188,3.9082 0.05664,0.11133 0.06055,0.10938 0.359375,0.66601 17.587889,-9.52344 -0.29883,-0.55273 -1.89453,-3.71289 -1.76758,-3.69531 -1.6914,-3.76172 -1.601564,-3.81641 -0.585938,-1.5 z m 330.152342,-1.97265 -1.6914,3.76172 -1.76758,3.69531 -1.89453,3.7168 -1.96094,3.61914 -0.4082,0.71289 17.3457,9.95703 0.45703,-0.79883 0.0625,-0.10742 0.0586,-0.10938 2.09375,-3.86718 0.0606,-0.10938 0.0566,-0.11133 1.99219,-3.9082 0.0547,-0.10938 0.0547,-0.11132 1.88868,-3.94532 0.0547,-0.11132 0.0508,-0.11329 1.78711,-3.98046 0.0508,-0.11329 0.0469,-0.11328 0.60156,-1.43359 -18.43945,-7.74219 z m -297.42383,56.02148 2.6211,2.97656 0.084,0.0957 0.0859,0.0918 3.11523,3.36329 0.0859,0.0918 0.0898,0.0918 3.21876,3.30078 0.0879,0.0898 0.0898,0.0879 3.30078,3.21876 0.0918,0.0898 0.0918,0.0859 1.63477,1.51367 13.5957,-14.66797 -1.5664,-1.45313 -3.09375,-3.01757 -3.05664,-3.13477 -2.92188,-3.15039 -2.54687,-2.89258 z m 265.03125,-7.17578 -3.05664,3.13477 -3.09375,3.01757 -3.18945,2.95899 -1.57031,1.38281 13.21875,15.00781 1.65429,-1.45703 0.0957,-0.084 0.0918,-0.0859 3.36329,-3.11523 0.0918,-0.0859 0.0918,-0.0898 3.30078,-3.21876 0.0898,-0.0879 0.0879,-0.0898 3.21876,-3.30078 0.0898,-0.0918 0.0859,-0.0918 2.71093,-2.92774 -14.66797,-13.59375 z m -216.50976,47.32813 2.32617,1.33398 0.10742,0.0625 0.10938,0.0586 3.86718,2.09375 0.10938,0.0606 0.11133,0.0566 3.9082,1.99219 0.10938,0.0547 0.11132,0.0547 3.94532,1.89063 0.11132,0.0527 0.11329,0.0508 3.79296,1.70313 8.19336,-18.24414 -3.75195,-1.68555 -0.041,-0.0195 -3.58789,-1.7207 -3.71875,-1.89453 -3.61523,-1.95899 -2.24414,-1.28711 z m 172.64844,-14.10157 -3.71875,1.89649 -3.58789,1.7207 -0.041,0.0195 -3.82617,1.71875 -3.9043,1.63867 7.74414,18.43946 4.01367,-1.68555 0.11328,-0.0469 0.11329,-0.0508 3.98046,-1.78711 0.11329,-0.0508 0.11132,-0.0527 3.94532,-1.89063 0.11132,-0.0547 0.10938,-0.0547 3.9082,-1.99219 0.11133,-0.0566 0.10938,-0.0606 2.21484,-1.19922 -9.52344,-17.58593 z"
     id="path5388"
     inkscape:connector-curvature="0" />
  <path
     sodipodi:nodetypes="ccccczc"
     inkscape:connector-curvature="0"
     id="path5390"
     d="m 199.9942,385.31306 28.786,49.8588 28.786,49.85881 28.7861,-49.85881 28.7859,-49.8588 c 0,0 -38.3813,21.67445 -57.572,21.67452 -19.1907,0 -57.572,-21.67452 -57.572,-21.67452 z"
     inkscape:transform-center-y="-107.44635"
     inkscape:transform-center-x="-105.23139"
     style="fill:#ffffff;stroke:none;stroke-width:20;stroke-miterlimit:4;stroke-dasharray:none" />
  <g
     style="font-style:normal;font-weight:normal;font-size:20px;line-height:125%;font-family:sans-serif;letter-spacing:0px;word-spacing:0px;fill:#000000;fill-opacity:1;stroke:none;stroke-width:1px;stroke-linecap:butt;stroke-linejoin:miter;stroke-opacity:1"
     id="text15804"
     transform="translate(2931.9242,602.99086)" />
  <circle
     style="fill:none;stroke:#ffffff;stroke-width:14.53779507;stroke-linecap:butt;stroke-miterlimit:4;stroke-dasharray:none;stroke-dashoffset:134"
     id="path5043"
     cx="3116"
     cy="-881.86377"
     r="0" />
</svg>
