<?xml version="1.0" encoding="UTF-8" standalone="no"?>
<svg
   xmlns:dc="http://purl.org/dc/elements/1.1/"
   xmlns:cc="http://creativecommons.org/ns#"
   xmlns:rdf="http://www.w3.org/1999/02/22-rdf-syntax-ns#"
   xmlns:svg="http://www.w3.org/2000/svg"
   xmlns="http://www.w3.org/2000/svg"
   xmlns:sodipodi="http://sodipodi.sourceforge.net/DTD/sodipodi-0.dtd"
   xmlns:inkscape="http://www.inkscape.org/namespaces/inkscape"
   viewBox="0 0 512 512"
   id="svg2"
   version="1.1"
   inkscape:version="0.91 r13725"
   sodipodi:docname="directions-funky-south.svg">
  <metadata
     id="metadata12">
    <rdf:RDF>
      <cc:Work
         rdf:about="">
        <dc:format>image/svg+xml</dc:format>
        <dc:type
           rdf:resource="http://purl.org/dc/dcmitype/StillImage" />
        <dc:title />
      </cc:Work>
    </rdf:RDF>
  </metadata>
  <defs
     id="defs10">
    <marker
       inkscape:isstock="true"
       style="overflow:visible;"
       id="marker6040"
       refX="0.0"
       refY="0.0"
       orient="auto"
       inkscape:stockid="Arrow2Send">
      <path
         transform="scale(0.3) rotate(180) translate(-2.3,0)"
         d="M 8.7185878,4.0337352 L -2.2072895,0.016013256 L 8.7185884,-4.0017078 C 6.9730900,-1.6296469 6.9831476,1.6157441 8.7185878,4.0337352 z "
         style="fill-rule:evenodd;stroke-width:0.625;stroke-linejoin:round;stroke:#ffffff;stroke-opacity:1;fill:#ffffff;fill-opacity:1"
         id="path6042" />
    </marker>
    <marker
       inkscape:isstock="true"
       style="overflow:visible;"
       id="marker5994"
       refX="0.0"
       refY="0.0"
       orient="auto"
       inkscape:stockid="Arrow2Send">
      <path
         transform="scale(0.3) rotate(180) translate(-2.3,0)"
         d="M 8.7185878,4.0337352 L -2.2072895,0.016013256 L 8.7185884,-4.0017078 C 6.9730900,-1.6296469 6.9831476,1.6157441 8.7185878,4.0337352 z "
         style="fill-rule:evenodd;stroke-width:0.625;stroke-linejoin:round;stroke:#ffffff;stroke-opacity:1;fill:#ffffff;fill-opacity:1"
         id="path5996" />
    </marker>
    <marker
       inkscape:isstock="true"
       style="overflow:visible;"
       id="marker5954"
       refX="0.0"
       refY="0.0"
       orient="auto"
       inkscape:stockid="Arrow2Send">
      <path
         transform="scale(0.3) rotate(180) translate(-2.3,0)"
         d="M 8.7185878,4.0337352 L -2.2072895,0.016013256 L 8.7185884,-4.0017078 C 6.9730900,-1.6296469 6.9831476,1.6157441 8.7185878,4.0337352 z "
         style="fill-rule:evenodd;stroke-width:0.625;stroke-linejoin:round;stroke:#ffffff;stroke-opacity:1;fill:#ffffff;fill-opacity:1"
         id="path5956" />
    </marker>
    <marker
       inkscape:isstock="true"
       style="overflow:visible;"
       id="marker5920"
       refX="0.0"
       refY="0.0"
       orient="auto"
       inkscape:stockid="Arrow2Send">
      <path
         transform="scale(0.3) rotate(180) translate(-2.3,0)"
         d="M 8.7185878,4.0337352 L -2.2072895,0.016013256 L 8.7185884,-4.0017078 C 6.9730900,-1.6296469 6.9831476,1.6157441 8.7185878,4.0337352 z "
         style="fill-rule:evenodd;stroke-width:0.625;stroke-linejoin:round;stroke:#ffffff;stroke-opacity:1;fill:#ffffff;fill-opacity:1"
         id="path5922" />
    </marker>
    <marker
       inkscape:isstock="true"
       style="overflow:visible;"
       id="marker5892"
       refX="0.0"
       refY="0.0"
       orient="auto"
       inkscape:stockid="Arrow2Send">
      <path
         transform="scale(0.3) rotate(180) translate(-2.3,0)"
         d="M 8.7185878,4.0337352 L -2.2072895,0.016013256 L 8.7185884,-4.0017078 C 6.9730900,-1.6296469 6.9831476,1.6157441 8.7185878,4.0337352 z "
         style="fill-rule:evenodd;stroke-width:0.625;stroke-linejoin:round;stroke:#ffffff;stroke-opacity:1;fill:#ffffff;fill-opacity:1"
         id="path5894" />
    </marker>
    <marker
       inkscape:isstock="true"
       style="overflow:visible;"
       id="marker5870"
       refX="0.0"
       refY="0.0"
       orient="auto"
       inkscape:stockid="Arrow2Send">
      <path
         transform="scale(0.3) rotate(180) translate(-2.3,0)"
         d="M 8.7185878,4.0337352 L -2.2072895,0.016013256 L 8.7185884,-4.0017078 C 6.9730900,-1.6296469 6.9831476,1.6157441 8.7185878,4.0337352 z "
         style="fill-rule:evenodd;stroke-width:0.625;stroke-linejoin:round;stroke:#ffffff;stroke-opacity:1;fill:#ffffff;fill-opacity:1"
         id="path5872" />
    </marker>
  </defs>
  <sodipodi:namedview
     pagecolor="#ffffff"
     bordercolor="#666666"
     borderopacity="1"
     objecttolerance="10"
     gridtolerance="10"
     guidetolerance="10"
     inkscape:pageopacity="0"
     inkscape:pageshadow="2"
     inkscape:window-width="1829"
     inkscape:window-height="966"
     id="namedview8"
     showgrid="false"
     inkscape:zoom="1.5449218"
     inkscape:cx="256"
     inkscape:cy="256"
     inkscape:window-x="-8"
     inkscape:window-y="-8"
     inkscape:window-maximized="1"
     inkscape:current-layer="svg2"
     showguides="false"
     inkscape:guide-bbox="true"
     inkscape:snap-center="true"
     inkscape:snap-global="true"
     inkscape:snap-bbox="true" />
  <path
     id="path15412"
     d="m 0,-1e-6 512,0 L 512,512 0,512 Z"
     inkscape:connector-curvature="0"
     style="fill:#000000;stroke:#ffffff;stroke-width:0" />
  <path
     sodipodi:nodetypes="aaaaaaaaaaaaaaaaaa"
     inkscape:connector-curvature="0"
     id="path15515"
     d="m 313.108,280.80806 c -4.053,19.85639 -25.1104,34.32084 -43.7938,42.17147 -21.1713,8.89601 -50.8869,16.29058 -68.8641,2.00129 -7.2058,-5.72761 -8.1841,-18.2836 -5.4469,-27.07207 1.4843,-4.76571 6.2944,-8.1913 10.7672,-10.40691 6.1067,-3.02494 13.4014,-3.36457 20.2105,-3.08456 16.3009,0.67035 36.3854,23.16801 47.614,11.33217 4.6657,-4.918 -1.0314,-14.63555 -5.7433,-19.50923 -13.4016,-13.86165 -42.1581,-3.732 -54.9051,-18.19785 -10.032,-11.38475 -14.9936,-30.82971 -8.7712,-44.66936 6.8975,-15.34129 27.3096,-20.99917 43.4913,-25.59071 19.2138,-5.45188 44.4307,-13.89332 59.9036,-1.26465 6.592,5.38023 6.9639,16.94151 4.5858,25.11129 -1.6557,5.68815 -6.4903,11.06875 -12.0774,13.03859 -19.0772,6.72596 -46.5692,-23.9016 -60.0411,-8.81238 -4.5679,5.11633 0.089,15.39297 5.2672,19.89079 12.9906,11.28399 37.4974,-4.22711 51.2594,6.10208 11.2842,8.46946 19.3656,25.13604 16.5439,38.96004 z"
     style="font-style:normal;font-variant:normal;font-weight:bold;font-stretch:normal;font-size:183.75px;line-height:125%;font-family:sans-serif;-inkscape-font-specification:'sans-serif Bold';letter-spacing:0px;word-spacing:0px;fill:#ffffff;fill-opacity:1;stroke:none;stroke-width:1px;stroke-linecap:butt;stroke-linejoin:miter;stroke-opacity:1" />
  <path
     inkscape:connector-curvature="0"
     style="color:#000000;font-style:normal;font-variant:normal;font-weight:normal;font-stretch:normal;font-size:medium;line-height:normal;font-family:sans-serif;text-indent:0;text-align:start;text-decoration:none;text-decoration-line:none;text-decoration-style:solid;text-decoration-color:#000000;letter-spacing:normal;word-spacing:normal;text-transform:none;direction:ltr;block-progression:tb;writing-mode:lr-tb;baseline-shift:baseline;text-anchor:start;white-space:normal;clip-rule:nonzero;display:inline;overflow:visible;visibility:visible;opacity:1;isolation:auto;mix-blend-mode:normal;color-interpolation:sRGB;color-interpolation-filters:linearRGB;solid-color:#000000;solid-opacity:1;fill:#ffffff;fill-opacity:1;fill-rule:nonzero;stroke:none;stroke-width:20;stroke-linecap:butt;stroke-linejoin:miter;stroke-miterlimit:4;stroke-dasharray:none;stroke-dashoffset:174;stroke-opacity:1;color-rendering:auto;image-rendering:auto;shape-rendering:auto;text-rendering:auto;enable-background:accumulate"
     d="m 346.9613,442.87013 a 31.069534,31.716816 0 0 0 31.0703,-31.7168 31.069534,31.716816 0 0 0 -0.8418,-7.1602 c 3.8968,-4.2365 7.926,-8.6447 12.1739,-12.8925 18.3929,-18.3931 32.2217,-39.6848 41.4316,-62.39646 9.21,-22.7118 13.8106,-46.8405 13.8105,-70.9668 0,-24.1264 -4.6005,-48.257 -13.8105,-70.9688 -9.2099,-22.7117 -23.0388,-44.0036 -41.4316,-62.3965 -18.393,-18.3929 -39.6847,-32.221701 -62.3965,-41.431601 -22.7118,-9.2101 -46.8423,-13.8106 -70.9688,-13.8106 -24.1263,0 -48.2551,4.6006 -70.9668,13.8106 -22.7117,9.21 -44.0054,23.038701 -62.3984,41.431601 -18.393,18.393 -32.2198,39.6847 -41.4297,62.3965 -9.21,22.7117 -13.8105,46.8424 -13.8105,70.9688 1e-4,24.1264 4.6005,48.255 13.8105,70.9668 9.2099,22.71166 23.0367,44.00346 41.4297,62.39646 4.6759,4.6759 10.0337,9.9534 15.668,15.1484 a 31.069534,31.716816 0 0 0 -0.4121,4.9043 31.069534,31.716816 0 0 0 31.0703,31.7168 31.069534,31.716816 0 0 0 26.0039,-14.4102 c 0.6222,-0.5539 0.9768,-1.1525 1.1133,-1.8554 a 31.069534,31.716816 0 0 0 3.9531,-15.4512 31.069534,31.716816 0 0 0 -31.0703,-31.7168 31.069534,31.716816 0 0 0 -19.4375,6.9844 c -4.7797,-2.8134 -9.1943,-5.9092 -12.7461,-9.461 -16.4823,-16.4822 -28.8116,-35.4824 -37.0391,-55.77146 -8.2276,-20.2892 -12.3436,-41.8699 -12.3437,-63.4531 2e-4,-21.5824 4.1163,-43.1626 12.3437,-63.4512 8.2275,-20.2892 20.5568,-39.2892 37.0391,-55.7714 16.4822,-16.4823 35.4822,-28.8095 55.7715,-37.0371 20.2891,-8.227701 41.8681,-12.345801 63.4511,-12.345801 21.5832,0 43.1639,4.1179 63.4532,12.345801 20.2891,8.2274 39.2872,20.5548 55.7695,37.0371 16.4821,16.4821 28.8116,35.4824 37.039,55.7714 8.2277,20.2893 12.3459,41.8701 12.3457,63.4532 0,21.583 -4.118,43.1619 -12.3457,63.4511 -8.2275,20.28906 -20.5569,39.28916 -37.039,55.77146 -3.0182,3.0182 -6.2816,6.0085 -9.6035,8.8789 a 31.069534,31.716816 0 0 0 -18.6563,-6.4023 31.069534,31.716816 0 0 0 -31.0683,31.7168 31.069534,31.716816 0 0 0 31.0683,31.7168 z"
     id="path15584" />
  <g
     style="font-style:normal;font-weight:normal;font-size:20px;line-height:125%;font-family:sans-serif;letter-spacing:0px;word-spacing:0px;fill:#000000;fill-opacity:1;stroke:none;stroke-width:1px;stroke-linecap:butt;stroke-linejoin:miter;stroke-opacity:1"
     id="text15804"
     transform="translate(5811.9242,602.99086)" />
  <circle
     style="fill:none;stroke:#ffffff;stroke-width:14.53779507;stroke-linecap:butt;stroke-miterlimit:4;stroke-dasharray:none;stroke-dashoffset:134"
     id="path5043"
     cx="5996"
     cy="-881.86377"
     r="0" />
</svg>
