<?xml version="1.0" encoding="UTF-8" standalone="no"?>
<svg
   xmlns:dc="http://purl.org/dc/elements/1.1/"
   xmlns:cc="http://creativecommons.org/ns#"
   xmlns:rdf="http://www.w3.org/1999/02/22-rdf-syntax-ns#"
   xmlns:svg="http://www.w3.org/2000/svg"
   xmlns="http://www.w3.org/2000/svg"
   xmlns:sodipodi="http://sodipodi.sourceforge.net/DTD/sodipodi-0.dtd"
   xmlns:inkscape="http://www.inkscape.org/namespaces/inkscape"
   viewBox="0 0 512 512"
   id="svg2"
   version="1.1"
   inkscape:version="0.91 r13725"
   sodipodi:docname="directions-dashed-south.svg">
  <metadata
     id="metadata12">
    <rdf:RDF>
      <cc:Work
         rdf:about="">
        <dc:format>image/svg+xml</dc:format>
        <dc:type
           rdf:resource="http://purl.org/dc/dcmitype/StillImage" />
        <dc:title />
      </cc:Work>
    </rdf:RDF>
  </metadata>
  <defs
     id="defs10">
    <marker
       inkscape:isstock="true"
       style="overflow:visible;"
       id="marker6040"
       refX="0.0"
       refY="0.0"
       orient="auto"
       inkscape:stockid="Arrow2Send">
      <path
         transform="scale(0.3) rotate(180) translate(-2.3,0)"
         d="M 8.7185878,4.0337352 L -2.2072895,0.016013256 L 8.7185884,-4.0017078 C 6.9730900,-1.6296469 6.9831476,1.6157441 8.7185878,4.0337352 z "
         style="fill-rule:evenodd;stroke-width:0.625;stroke-linejoin:round;stroke:#ffffff;stroke-opacity:1;fill:#ffffff;fill-opacity:1"
         id="path6042" />
    </marker>
    <marker
       inkscape:isstock="true"
       style="overflow:visible;"
       id="marker5994"
       refX="0.0"
       refY="0.0"
       orient="auto"
       inkscape:stockid="Arrow2Send">
      <path
         transform="scale(0.3) rotate(180) translate(-2.3,0)"
         d="M 8.7185878,4.0337352 L -2.2072895,0.016013256 L 8.7185884,-4.0017078 C 6.9730900,-1.6296469 6.9831476,1.6157441 8.7185878,4.0337352 z "
         style="fill-rule:evenodd;stroke-width:0.625;stroke-linejoin:round;stroke:#ffffff;stroke-opacity:1;fill:#ffffff;fill-opacity:1"
         id="path5996" />
    </marker>
    <marker
       inkscape:isstock="true"
       style="overflow:visible;"
       id="marker5954"
       refX="0.0"
       refY="0.0"
       orient="auto"
       inkscape:stockid="Arrow2Send">
      <path
         transform="scale(0.3) rotate(180) translate(-2.3,0)"
         d="M 8.7185878,4.0337352 L -2.2072895,0.016013256 L 8.7185884,-4.0017078 C 6.9730900,-1.6296469 6.9831476,1.6157441 8.7185878,4.0337352 z "
         style="fill-rule:evenodd;stroke-width:0.625;stroke-linejoin:round;stroke:#ffffff;stroke-opacity:1;fill:#ffffff;fill-opacity:1"
         id="path5956" />
    </marker>
    <marker
       inkscape:isstock="true"
       style="overflow:visible;"
       id="marker5920"
       refX="0.0"
       refY="0.0"
       orient="auto"
       inkscape:stockid="Arrow2Send">
      <path
         transform="scale(0.3) rotate(180) translate(-2.3,0)"
         d="M 8.7185878,4.0337352 L -2.2072895,0.016013256 L 8.7185884,-4.0017078 C 6.9730900,-1.6296469 6.9831476,1.6157441 8.7185878,4.0337352 z "
         style="fill-rule:evenodd;stroke-width:0.625;stroke-linejoin:round;stroke:#ffffff;stroke-opacity:1;fill:#ffffff;fill-opacity:1"
         id="path5922" />
    </marker>
    <marker
       inkscape:isstock="true"
       style="overflow:visible;"
       id="marker5892"
       refX="0.0"
       refY="0.0"
       orient="auto"
       inkscape:stockid="Arrow2Send">
      <path
         transform="scale(0.3) rotate(180) translate(-2.3,0)"
         d="M 8.7185878,4.0337352 L -2.2072895,0.016013256 L 8.7185884,-4.0017078 C 6.9730900,-1.6296469 6.9831476,1.6157441 8.7185878,4.0337352 z "
         style="fill-rule:evenodd;stroke-width:0.625;stroke-linejoin:round;stroke:#ffffff;stroke-opacity:1;fill:#ffffff;fill-opacity:1"
         id="path5894" />
    </marker>
    <marker
       inkscape:isstock="true"
       style="overflow:visible;"
       id="marker5870"
       refX="0.0"
       refY="0.0"
       orient="auto"
       inkscape:stockid="Arrow2Send">
      <path
         transform="scale(0.3) rotate(180) translate(-2.3,0)"
         d="M 8.7185878,4.0337352 L -2.2072895,0.016013256 L 8.7185884,-4.0017078 C 6.9730900,-1.6296469 6.9831476,1.6157441 8.7185878,4.0337352 z "
         style="fill-rule:evenodd;stroke-width:0.625;stroke-linejoin:round;stroke:#ffffff;stroke-opacity:1;fill:#ffffff;fill-opacity:1"
         id="path5872" />
    </marker>
  </defs>
  <sodipodi:namedview
     pagecolor="#ffffff"
     bordercolor="#666666"
     borderopacity="1"
     objecttolerance="10"
     gridtolerance="10"
     guidetolerance="10"
     inkscape:pageopacity="0"
     inkscape:pageshadow="2"
     inkscape:window-width="1829"
     inkscape:window-height="966"
     id="namedview8"
     showgrid="false"
     inkscape:zoom="1.5449218"
     inkscape:cx="256"
     inkscape:cy="256"
     inkscape:window-x="-8"
     inkscape:window-y="-8"
     inkscape:window-maximized="1"
     inkscape:current-layer="svg2"
     showguides="false"
     inkscape:guide-bbox="true"
     inkscape:snap-center="true"
     inkscape:snap-global="true"
     inkscape:snap-bbox="true" />
  <path
     style="fill:#000000;stroke:#ffffff;stroke-width:0"
     inkscape:connector-curvature="0"
     d="m 0,-1e-6 512,0 L 512,512 0,512 Z"
     id="path5436" />
  <path
     inkscape:connector-curvature="0"
     id="path4640"
     style="font-style:normal;font-variant:normal;font-weight:bold;font-stretch:normal;font-size:183.75px;line-height:125%;font-family:sans-serif;-inkscape-font-specification:'sans-serif Bold';letter-spacing:0px;word-spacing:0px;fill:#ffffff;fill-opacity:1;stroke:none;stroke-width:1px;stroke-linecap:butt;stroke-linejoin:miter;stroke-opacity:1"
     d="m 313.1078,280.80806 q 0,19.73877 -16.778,32.12036 -16.6882,12.29187 -45.3991,12.29187 -16.5985,0 -28.9801,-2.87109 -12.2919,-2.96082 -23.0585,-7.4469 l 0,-32.03064 3.7683,0 q 10.6769,8.52356 23.866,13.09936 13.2788,4.57581 25.4809,4.57581 3.1403,0 8.2544,-0.53833 5.1142,-0.53833 8.3441,-1.79443 3.9478,-1.61499 6.46,-4.03748 2.6019,-2.42249 2.6019,-7.17773 0,-4.39637 -3.7683,-7.53663 -3.6786,-3.22998 -10.8563,-4.93469 -7.5366,-1.79443 -15.9705,-3.3197 -8.3441,-1.61499 -15.7013,-4.03748 -16.8676,-5.47302 -24.3145,-14.80407 -7.3572,-9.42078 -7.3572,-23.32764 0,-18.66211 16.6882,-30.41565 16.778,-11.84326 43.0664,-11.84326 13.1891,0 26.0193,2.60193 12.9199,2.51221 22.3407,6.37024 l 0,30.77453 -3.6786,0 q -8.0749,-6.45996 -19.8285,-10.7666 -11.6638,-4.39636 -23.8659,-4.39636 -4.3067,0 -8.6133,0.62805 -4.2169,0.53833 -8.1647,2.15332 -3.4991,1.34583 -6.0113,4.1272 -2.5122,2.69165 -2.5122,6.19079 0,5.29358 4.0374,8.16468 4.0375,2.78137 15.2527,5.11413 7.3572,1.52527 14.0863,2.96082 6.8189,1.43555 14.6247,3.94775 15.3424,5.02442 22.6098,13.72742 7.3572,8.61328 7.3572,22.43042 z" />
  <path
     style="color:#000000;font-style:normal;font-variant:normal;font-weight:normal;font-stretch:normal;font-size:medium;line-height:normal;font-family:sans-serif;text-indent:0;text-align:start;text-decoration:none;text-decoration-line:none;text-decoration-style:solid;text-decoration-color:#000000;letter-spacing:normal;word-spacing:normal;text-transform:none;direction:ltr;block-progression:tb;writing-mode:lr-tb;baseline-shift:baseline;text-anchor:start;white-space:normal;clip-rule:nonzero;display:inline;overflow:visible;visibility:visible;opacity:1;isolation:auto;mix-blend-mode:normal;color-interpolation:sRGB;color-interpolation-filters:linearRGB;solid-color:#000000;solid-opacity:1;fill:#ffffff;fill-opacity:1;fill-rule:nonzero;stroke:none;stroke-width:20;stroke-linecap:butt;stroke-linejoin:miter;stroke-miterlimit:4;stroke-dasharray:80, 40;stroke-dashoffset:86;stroke-opacity:1;color-rendering:auto;image-rendering:auto;shape-rendering:auto;text-rendering:auto;enable-background:accumulate"
     d="m 273.17578,88.275391 c 25.07852,2.526056 49.57152,10.766077 71.03125,23.996089 3.46159,-5.69726 6.92318,-11.39453 10.38477,-17.091792 -23.95449,-14.753525 -51.28563,-23.956253 -79.27149,-26.789071 -0.71484,6.628258 -1.42969,13.256516 -2.14453,19.884774 z m -44.125,-18.957032 c -26.52523,3.803864 -52.23072,13.315773 -74.76758,27.824215 3.60352,5.609376 7.20703,11.218746 10.81055,16.828126 21.19476,-13.64778 45.52975,-22.329843 70.54883,-25.34961 -0.87305,-6.609375 -1.74609,-13.21875 -2.61914,-19.828125 -1.32422,0.175131 -2.64844,0.350263 -3.97266,0.525394 z m 144.82031,66.142581 c 18.02234,17.5667 32.05882,39.21998 40.60743,62.89844 6.26562,-2.27735 12.53125,-4.55469 18.79687,-6.83204 -9.5664,-26.49696 -25.2716,-50.73027 -45.44131,-70.38672 -4.65433,4.77344 -9.30866,9.54688 -13.96299,14.32032 z m -254.54297,-9.43555 c -18.69508,19.6202 -33.125282,43.30282 -41.828036,68.97659 6.31901,2.1237 12.638021,4.2474 18.957031,6.3711 8.102145,-23.8381 21.716045,-45.76339 39.413975,-63.66408 -4.77343,-4.6543 -9.54687,-9.30859 -14.32031,-13.96289 -0.74088,0.75976 -1.48177,1.51952 -2.22266,2.27928 z m 303.97266,109.03516 c 3.11765,24.95344 0.60479,50.60401 -7.38476,74.45312 6.31966,2.1237 12.63932,4.2474 18.95898,6.3711 8.96019,-26.72665 11.77922,-55.47958 8.25377,-83.44336 -6.60933,0.87305 -13.21866,1.74609 -19.82799,2.61914 z m -355.033202,2.74804 c -2.650932,27.48597 0.7672,55.54984 10.054684,81.56055 6.265625,-2.27734 12.53125,-4.55469 18.796875,-6.83203 -8.427191,-23.69568 -11.439579,-49.29017 -8.78125,-74.29688 -6.628255,-0.71484 -13.256511,-1.42969 -19.884766,-2.14453 l -0.110513,1.02023 -0.07503,0.69266 z M 399.10547,345.23047 c -13.02933,20.81802 -30.62834,38.76597 -51.21289,52.16406 3.60351,5.60938 7.20703,11.21875 10.81054,16.82813 23.6228,-15.36014 43.76342,-36.06307 58.42177,-60.13076 -5.69727,-3.46224 -11.39453,-6.92448 -17.0918,-10.38672 l -0.53322,0.87678 -0.3944,0.64851 z M 96.826172,357.22266 c 15.130478,23.77412 35.663268,44.08245 59.577998,58.98623 3.42589,-5.68222 7.04604,-11.53086 10.38669,-17.08981 -21.32461,-13.34195 -39.63897,-31.47902 -53.13868,-52.70703 -5.60867,3.60354 -11.21734,7.20707 -16.826008,10.81061 z"
     id="path5490"
     inkscape:connector-curvature="0" />
  <path
     style="fill:#ffffff;stroke:none;stroke-width:20;stroke-miterlimit:4;stroke-dasharray:none"
     inkscape:transform-center-x="-105.23139"
     inkscape:transform-center-y="-107.44635"
     d="m 199.9942,385.31306 28.786,49.8588 28.786,49.85881 28.7861,-49.85881 28.7859,-49.8588 c 0,0 -38.3813,21.67445 -57.572,21.67452 -19.1907,0 -57.572,-21.67452 -57.572,-21.67452 z"
     id="path5492"
     inkscape:connector-curvature="0"
     sodipodi:nodetypes="ccccczc" />
  <circle
     style="fill:none;stroke:#ffffff;stroke-width:14.53779507;stroke-linecap:butt;stroke-miterlimit:4;stroke-dasharray:none;stroke-dashoffset:134"
     id="path5043"
     cx="4256"
     cy="-881.86377"
     r="0" />
</svg>
