<?xml version="1.0" encoding="UTF-8" standalone="no"?>
<svg
   xmlns:dc="http://purl.org/dc/elements/1.1/"
   xmlns:cc="http://creativecommons.org/ns#"
   xmlns:rdf="http://www.w3.org/1999/02/22-rdf-syntax-ns#"
   xmlns:svg="http://www.w3.org/2000/svg"
   xmlns="http://www.w3.org/2000/svg"
   xmlns:sodipodi="http://sodipodi.sourceforge.net/DTD/sodipodi-0.dtd"
   xmlns:inkscape="http://www.inkscape.org/namespaces/inkscape"
   viewBox="0 0 512 512"
   id="svg2"
   version="1.1"
   inkscape:version="0.91 r13725"
   sodipodi:docname="directions-dashed-dotted-east.svg">
  <metadata
     id="metadata12">
    <rdf:RDF>
      <cc:Work
         rdf:about="">
        <dc:format>image/svg+xml</dc:format>
        <dc:type
           rdf:resource="http://purl.org/dc/dcmitype/StillImage" />
        <dc:title />
      </cc:Work>
    </rdf:RDF>
  </metadata>
  <defs
     id="defs10">
    <marker
       inkscape:isstock="true"
       style="overflow:visible;"
       id="marker6040"
       refX="0.0"
       refY="0.0"
       orient="auto"
       inkscape:stockid="Arrow2Send">
      <path
         transform="scale(0.3) rotate(180) translate(-2.3,0)"
         d="M 8.7185878,4.0337352 L -2.2072895,0.016013256 L 8.7185884,-4.0017078 C 6.9730900,-1.6296469 6.9831476,1.6157441 8.7185878,4.0337352 z "
         style="fill-rule:evenodd;stroke-width:0.625;stroke-linejoin:round;stroke:#ffffff;stroke-opacity:1;fill:#ffffff;fill-opacity:1"
         id="path6042" />
    </marker>
    <marker
       inkscape:isstock="true"
       style="overflow:visible;"
       id="marker5994"
       refX="0.0"
       refY="0.0"
       orient="auto"
       inkscape:stockid="Arrow2Send">
      <path
         transform="scale(0.3) rotate(180) translate(-2.3,0)"
         d="M 8.7185878,4.0337352 L -2.2072895,0.016013256 L 8.7185884,-4.0017078 C 6.9730900,-1.6296469 6.9831476,1.6157441 8.7185878,4.0337352 z "
         style="fill-rule:evenodd;stroke-width:0.625;stroke-linejoin:round;stroke:#ffffff;stroke-opacity:1;fill:#ffffff;fill-opacity:1"
         id="path5996" />
    </marker>
    <marker
       inkscape:isstock="true"
       style="overflow:visible;"
       id="marker5954"
       refX="0.0"
       refY="0.0"
       orient="auto"
       inkscape:stockid="Arrow2Send">
      <path
         transform="scale(0.3) rotate(180) translate(-2.3,0)"
         d="M 8.7185878,4.0337352 L -2.2072895,0.016013256 L 8.7185884,-4.0017078 C 6.9730900,-1.6296469 6.9831476,1.6157441 8.7185878,4.0337352 z "
         style="fill-rule:evenodd;stroke-width:0.625;stroke-linejoin:round;stroke:#ffffff;stroke-opacity:1;fill:#ffffff;fill-opacity:1"
         id="path5956" />
    </marker>
    <marker
       inkscape:isstock="true"
       style="overflow:visible;"
       id="marker5920"
       refX="0.0"
       refY="0.0"
       orient="auto"
       inkscape:stockid="Arrow2Send">
      <path
         transform="scale(0.3) rotate(180) translate(-2.3,0)"
         d="M 8.7185878,4.0337352 L -2.2072895,0.016013256 L 8.7185884,-4.0017078 C 6.9730900,-1.6296469 6.9831476,1.6157441 8.7185878,4.0337352 z "
         style="fill-rule:evenodd;stroke-width:0.625;stroke-linejoin:round;stroke:#ffffff;stroke-opacity:1;fill:#ffffff;fill-opacity:1"
         id="path5922" />
    </marker>
    <marker
       inkscape:isstock="true"
       style="overflow:visible;"
       id="marker5892"
       refX="0.0"
       refY="0.0"
       orient="auto"
       inkscape:stockid="Arrow2Send">
      <path
         transform="scale(0.3) rotate(180) translate(-2.3,0)"
         d="M 8.7185878,4.0337352 L -2.2072895,0.016013256 L 8.7185884,-4.0017078 C 6.9730900,-1.6296469 6.9831476,1.6157441 8.7185878,4.0337352 z "
         style="fill-rule:evenodd;stroke-width:0.625;stroke-linejoin:round;stroke:#ffffff;stroke-opacity:1;fill:#ffffff;fill-opacity:1"
         id="path5894" />
    </marker>
    <marker
       inkscape:isstock="true"
       style="overflow:visible;"
       id="marker5870"
       refX="0.0"
       refY="0.0"
       orient="auto"
       inkscape:stockid="Arrow2Send">
      <path
         transform="scale(0.3) rotate(180) translate(-2.3,0)"
         d="M 8.7185878,4.0337352 L -2.2072895,0.016013256 L 8.7185884,-4.0017078 C 6.9730900,-1.6296469 6.9831476,1.6157441 8.7185878,4.0337352 z "
         style="fill-rule:evenodd;stroke-width:0.625;stroke-linejoin:round;stroke:#ffffff;stroke-opacity:1;fill:#ffffff;fill-opacity:1"
         id="path5872" />
    </marker>
  </defs>
  <sodipodi:namedview
     pagecolor="#ffffff"
     bordercolor="#666666"
     borderopacity="1"
     objecttolerance="10"
     gridtolerance="10"
     guidetolerance="10"
     inkscape:pageopacity="0"
     inkscape:pageshadow="2"
     inkscape:window-width="1829"
     inkscape:window-height="966"
     id="namedview8"
     showgrid="false"
     inkscape:zoom="1.5449218"
     inkscape:cx="256"
     inkscape:cy="256"
     inkscape:window-x="-8"
     inkscape:window-y="-8"
     inkscape:window-maximized="1"
     inkscape:current-layer="svg2"
     showguides="false"
     inkscape:guide-bbox="true"
     inkscape:snap-center="true"
     inkscape:snap-global="true"
     inkscape:snap-bbox="true" />
  <path
     id="path15290"
     d="m 0,0 512,0 0,512 -512,0 z"
     inkscape:connector-curvature="0"
     style="fill:#000000;stroke:#ffffff;stroke-width:0" />
  <path
     inkscape:connector-curvature="0"
     id="path4579"
     style="font-style:normal;font-variant:normal;font-weight:bold;font-stretch:normal;font-size:183.75px;line-height:125%;font-family:sans-serif;-inkscape-font-specification:'sans-serif Bold';letter-spacing:0px;word-spacing:0px;fill:#ffffff;fill-opacity:1;stroke:none;stroke-width:1px;stroke-linecap:butt;stroke-linejoin:miter;stroke-opacity:1"
     d="m 304.3154,322.79779 -96.6302,0 0,-133.59558 96.6302,0 0,25.83984 -62.3565,0 0,23.05847 57.8705,0 0,25.83985 -57.8705,0 0,33.01757 62.3565,0 0,25.83985 z" />
  <path
     style="color:#000000;font-style:normal;font-variant:normal;font-weight:normal;font-stretch:normal;font-size:medium;line-height:normal;font-family:sans-serif;text-indent:0;text-align:start;text-decoration:none;text-decoration-line:none;text-decoration-style:solid;text-decoration-color:#000000;letter-spacing:normal;word-spacing:normal;text-transform:none;direction:ltr;block-progression:tb;writing-mode:lr-tb;baseline-shift:baseline;text-anchor:start;white-space:normal;clip-rule:nonzero;display:inline;overflow:visible;visibility:visible;opacity:1;isolation:auto;mix-blend-mode:normal;color-interpolation:sRGB;color-interpolation-filters:linearRGB;solid-color:#000000;solid-opacity:1;fill:#ffffff;fill-opacity:1;fill-rule:nonzero;stroke:none;stroke-width:20;stroke-linecap:butt;stroke-linejoin:miter;stroke-miterlimit:4;stroke-dasharray:80, 40, 20, 40;stroke-dashoffset:174;stroke-opacity:1;color-rendering:auto;image-rendering:auto;shape-rendering:auto;text-rendering:auto;enable-background:accumulate"
     d="m 255.88086,67.394531 -4.28516,0.05078 -0.11914,0.002 -0.11914,0.0039 -4.2832,0.152344 -0.11914,0.0039 -0.11914,0.0078 -4.2793,0.25586 -0.11914,0.0078 -0.11914,0.0098 -4.27148,0.357422 -0.11915,0.0098 -0.11914,0.01172 -4.26562,0.460938 -0.11914,0.01172 -0.11719,0.01563 -4.25586,0.5625 -0.11914,0.01563 -0.11719,0.01953 -4.24414,0.664062 -0.11914,0.01758 -0.11719,0.02148 -4.23046,0.765625 -0.11719,0.02148 -0.11719,0.02539 -4.21484,0.867187 -0.11719,0.02539 -0.11719,0.02734 -4.19531,0.970704 -0.11719,0.02734 -0.11719,0.0293 -4.17578,1.072266 -0.11718,0.03125 -0.11719,0.0332 -4.1543,1.173828 -0.11523,0.0332 -0.11719,0.03516 -2.625,0.8125 5.9082,19.107422 2.45313,-0.759765 3.98633,-1.126953 3.95507,-1.017578 3.88282,-0.896485 4.06836,-0.839844 4.00585,-0.724609 3.91602,-0.613281 4.02344,-0.53125 4.0332,-0.4375 4.04102,-0.337891 4.05468,-0.242187 4.05079,-0.146485 4.05273,-0.04687 4.05273,0.04687 4.05079,0.146485 4.05468,0.242187 4.04102,0.337891 4.03125,0.435547 4.06641,0.539062 2.61914,-19.828125 -4.22266,-0.558594 -0.11719,-0.01563 -0.11914,-0.01172 -4.26562,-0.460938 -0.11914,-0.01172 -0.11915,-0.0098 -4.27148,-0.357422 -0.11914,-0.0098 -0.11914,-0.0078 -4.2793,-0.25586 -0.11914,-0.0078 -0.11914,-0.0039 -4.2832,-0.152344 -0.11914,-0.0039 -0.11914,-0.002 -4.28516,-0.05078 -0.11914,-0.002 z m 60.70508,31.222657 2.83594,1.109374 3.82031,1.603518 3.76172,1.6914 3.69531,1.76758 3.21094,1.63867 9.08398,-17.818355 -3.30078,-1.683594 -0.10938,-0.05469 -0.11132,-0.05469 -3.94532,-1.888672 -0.11132,-0.05469 -0.11329,-0.05078 -3.98046,-1.78711 -0.11329,-0.05078 -0.11328,-0.04687 -4.01367,-1.685547 -0.11328,-0.04883 -0.11523,-0.04492 -2.98047,-1.166015 z m -156.32032,-5.169922 -0.10742,0.06055 -0.10742,0.06641 -3.78125,2.298828 -0.10742,0.06445 -0.10547,0.06641 -3.73633,2.402344 -0.10547,0.06641 -0.10546,0.07031 -3.68946,2.503911 -0.10351,0.0703 -0.10157,0.0742 -3.64062,2.60547 -0.10156,0.0723 -0.10157,0.0762 -1.05078,0.79297 12.04688,15.96484 0.92187,-0.69531 3.50977,-2.51172 3.41601,-2.31836 3.55469,-2.2832 3.55859,-2.16406 0.65821,-0.37695 -9.95703,-17.343754 z m 204.87696,34.035154 0.54492,0.45508 3.25,2.86328 3.15039,2.92188 3.13477,3.05468 3.05468,3.13477 2.92188,3.15039 2.86133,3.24805 2.75976,3.29883 2.63867,3.31835 2.57032,3.40821 2.47461,3.46289 2.31836,3.41601 2.2832,3.55469 2.16406,3.56055 2.08789,3.63867 1.95899,3.61523 1.89453,3.71875 1.7207,3.58789 0.0195,0.041 1.09571,2.43945 18.24414,-8.19336 -1.11329,-2.48046 -0.0508,-0.11329 -0.0527,-0.11132 -1.89063,-3.94532 -0.0547,-0.11132 -0.0547,-0.10938 -1.99219,-3.9082 -0.0566,-0.11133 -0.0606,-0.10938 -2.09375,-3.86718 -0.0586,-0.10938 -0.0625,-0.10742 -2.19727,-3.82813 -0.0605,-0.10742 -0.0664,-0.10742 -2.29883,-3.78125 -0.0645,-0.10742 -0.0664,-0.10547 -2.40234,-3.73633 -0.0664,-0.10547 -0.0703,-0.10546 -2.50391,-3.68946 -0.0703,-0.10351 -0.0742,-0.10157 -2.60547,-3.64062 -0.0723,-0.10156 -0.0762,-0.10157 -2.70703,-3.58789 -0.0762,-0.10156 -0.0781,-0.0977 -2.81055,-3.53515 -0.0781,-0.0996 -0.082,-0.0957 -2.91016,-3.48047 -0.082,-0.0957 -0.084,-0.0957 -3.01367,-3.42187 -0.084,-0.0957 -0.0859,-0.0918 -3.11523,-3.36329 -0.0859,-0.0918 -0.0898,-0.0918 -3.21876,-3.30078 -0.0879,-0.0898 -0.0898,-0.0879 -3.30078,-3.21876 -0.0918,-0.0898 -0.0918,-0.0859 -3.36329,-3.11523 -0.0918,-0.0859 -0.0957,-0.084 -3.42187,-3.01367 -0.0957,-0.084 -0.0957,-0.082 -0.64843,-0.54102 z m -255.36524,9.3711 -0.082,0.0957 -0.0781,0.0996 -2.81055,3.53515 -0.0781,0.0977 -0.0762,0.10156 -2.70703,3.58789 -0.0762,0.10157 -0.0723,0.10156 -2.60547,3.64062 -0.0742,0.10157 -0.0703,0.10351 -2.503911,3.68946 -0.07031,0.10546 -0.06641,0.10547 -2.402344,3.73633 -0.06641,0.10547 -0.06445,0.10742 -2.298828,3.78125 -0.06641,0.10742 -0.06055,0.10742 -2.197266,3.82813 -0.0625,0.10742 -0.05859,0.10938 -2.09375,3.86718 -0.06055,0.10938 -0.05469,0.11133 -1.994141,3.9082 -0.05469,0.10938 -0.05469,0.11132 -1.888672,3.94532 -0.05469,0.11132 -0.05078,0.11329 -1.78711,3.98046 -0.05078,0.11329 -0.04687,0.11328 -1.685547,4.01367 -0.04883,0.11328 -0.04492,0.11523 -1.582031,4.04688 -0.04492,0.11328 -0.04297,0.11524 -1.480469,4.07617 -0.04102,0.11523 -0.03906,0.11524 -1.378906,4.10351 -0.03906,0.11524 -0.03711,0.11718 -1.277344,4.12891 -0.03516,0.11719 -0.0332,0.11523 -1.173828,4.1543 -0.0332,0.11719 -0.03125,0.11718 -0.238281,0.92969 19.371093,4.97656 0.207032,-0.80664 1.126953,-3.98437 1.1875,-3.83594 1.296875,-3.85937 1.427734,-3.92774 1.458984,-3.72852 1.603518,-3.82031 1.6914,-3.76172 1.76758,-3.69531 1.89453,-3.71484 1.97852,-3.65039 2.03516,-3.55078 2.19921,-3.61719 2.28125,-3.55274 2.31836,-3.41601 2.51172,-3.50977 2.57227,-3.4082 2.59961,-3.27148 2.67969,-3.20118 -15.33594,-12.83593 z m -42.326168,114.5039 -0.0039,0.11914 -0.002,0.11914 -0.05078,4.28516 -0.002,0.11914 0.002,0.11914 0.05078,4.28516 0.002,0.11914 0.0039,0.11914 0.152344,4.2832 0.0039,0.11914 0.0078,0.11914 0.25586,4.2793 0.0078,0.11914 0.0098,0.11914 0.07031,0.85742 19.931641,-1.66797 -0.06055,-0.7207 -0.242187,-4.04492 -0.146485,-4.05274 -0.04687,-4.05273 0.04687,-4.05273 0.06836,-1.86915 -19.988282,-0.71484 z m 8.382812,60.51367 0.638672,2.06446 0.03711,0.11718 0.03906,0.11524 1.378906,4.10351 0.03906,0.11524 0.04102,0.11523 1.480469,4.07617 0.04297,0.11524 0.04492,0.11328 1.582031,4.04688 0.04492,0.11523 0.04883,0.11328 1.685547,4.01367 0.04687,0.11328 0.05078,0.11329 1.78711,3.98046 0.05078,0.11329 0.05273,0.11132 1.890625,3.94532 0.05469,0.11132 0.05469,0.10938 1.992188,3.9082 0.05664,0.11133 0.06055,0.10938 2.09375,3.86718 0.05859,0.10938 0.0625,0.10742 2.197266,3.82813 0.06055,0.10742 0.06641,0.10742 2.298828,3.78125 0.06445,0.10742 0.06641,0.10547 2.402344,3.73828 0.06641,0.10352 0.07031,0.10546 2.503911,3.68946 0.0703,0.10351 0.0742,0.10157 2.60547,3.64062 0.0723,0.10156 0.0762,0.10157 2.70703,3.58789 0.0762,0.10156 0.0781,0.0977 2.81055,3.53515 0.0781,0.0996 0.082,0.0957 2.91016,3.48047 0.082,0.0957 0.084,0.0957 3.01367,3.42187 0.084,0.0957 0.0859,0.0918 1.78125,1.92188 14.66797,-13.59375 -1.68555,-1.81836 -2.86133,-3.24805 -2.75976,-3.29883 -2.63867,-3.31835 -2.57032,-3.40821 -2.47461,-3.46289 -2.31836,-3.41601 -2.2832,-3.55469 -2.16406,-3.56055 -2.08789,-3.63867 -1.95899,-3.61523 -1.89453,-3.71875 -1.7207,-3.58789 -0.0195,-0.041 -1.71875,-3.82617 -1.603518,-3.82031 -1.458984,-3.72852 -1.427734,-3.92774 -1.296875,-3.85937 -0.601563,-1.94336 z m 334.835936,11.3711 -1.71875,3.82617 -0.0195,0.041 -1.7207,3.58789 -1.89453,3.71679 -1.97852,3.65039 -2.06836,3.60547 -2.16406,3.56055 -2.2832,3.55469 -2.31836,3.41601 -2.47461,3.46289 -2.57032,3.40821 -2.63867,3.31835 -2.75976,3.29883 -2.86133,3.24805 -2.92188,3.15039 -3.05468,3.13477 -3.13477,3.05468 -1.76367,1.63477 13.5957,14.66797 1.8711,-1.73242 0.0918,-0.0859 0.0918,-0.0898 3.30078,-3.21876 0.0898,-0.0879 0.0879,-0.0898 3.21876,-3.30078 0.0898,-0.0918 0.0859,-0.0918 3.11523,-3.36329 0.0859,-0.0918 0.084,-0.0957 3.01367,-3.42187 0.084,-0.0957 0.082,-0.0957 2.91016,-3.48047 0.082,-0.0957 0.0781,-0.0996 2.81055,-3.53515 0.0781,-0.0977 0.0762,-0.10156 2.70703,-3.58789 0.0762,-0.10157 0.0723,-0.10156 2.60547,-3.64062 0.0742,-0.10157 0.0703,-0.10351 2.50391,-3.68946 0.0703,-0.10546 0.0664,-0.10547 2.40234,-3.73633 0.0664,-0.10547 0.0645,-0.10742 2.29883,-3.78125 0.0664,-0.10742 0.0605,-0.10742 2.19727,-3.82813 0.0625,-0.10742 0.0586,-0.10938 2.09375,-3.86718 0.0606,-0.10938 0.0566,-0.11133 1.99219,-3.9082 0.0547,-0.10938 0.0547,-0.11132 1.89063,-3.94532 0.0527,-0.11132 0.0508,-0.11329 1.78711,-3.98046 0.0508,-0.11329 0.0469,-0.11328 1.68555,-4.01367 -18.43946,-7.74414 z m -260.88672,88.63476 2.32618,1.58008 0.10546,0.0703 0.10547,0.0664 3.73633,2.40234 0.10547,0.0664 0.10742,0.0645 3.78125,2.29883 0.10742,0.0664 0.10742,0.0605 3.82813,2.19727 0.10742,0.0625 0.10938,0.0586 3.43554,1.85938 9.52149,-17.58594 -3.33008,-1.80469 -3.60938,-2.07031 -3.46093,-2.10156 -0.043,-0.0274 -3.60742,-2.3164 -2.20508,-1.49805 z m 188.28125,-8.53906 -3.65039,1.97852 -3.71484,1.89453 -3.69531,1.76758 -3.75586,1.68945 -0.002,0 -0.11718,0.0527 2.15234,4.79492 5.70898,13.5918 0.10547,-0.0449 0.11328,-0.0469 0.11329,-0.0508 3.98046,-1.78711 0.11329,-0.0508 0.11132,-0.0547 3.94532,-1.88868 0.11132,-0.0547 0.10938,-0.0547 3.9082,-1.99219 0.11133,-0.0566 0.10938,-0.0606 3.86718,-2.09375 0.10938,-0.0586 0.10742,-0.0625 2.04687,-1.17383 -9.95703,-17.3457 z m -130.88867,34.86523 3.81445,0.98047 0.11719,0.0293 0.11719,0.0273 4.19531,0.97071 0.11719,0.0273 0.11719,0.0254 4.21484,0.86719 0.11719,0.0254 0.11719,0.0215 4.23046,0.76563 0.11719,0.0215 0.11914,0.0176 4.24414,0.66406 0.11719,0.0195 0.11914,0.0156 4.25586,0.5625 0.11719,0.0156 0.11914,0.0117 4.26562,0.46094 0.11914,0.0117 0.11915,0.01 4.27148,0.35742 0.11914,0.0117 0.11914,0.006 4.2793,0.25586 0.11914,0.008 0.11914,0.004 4.2832,0.15235 0.11914,0.004 0.11914,0.002 4.28516,0.0508 0.11914,0.002 0.11914,-0.002 4.28516,-0.0508 0.11914,-0.002 0.11914,-0.004 4.2832,-0.15235 0.11914,-0.004 0.11914,-0.008 4.2793,-0.25586 0.11914,-0.008 0.11914,-0.01 4.27148,-0.35742 0.11915,-0.01 0.11914,-0.0117 4.26562,-0.46094 0.11914,-0.0117 0.11719,-0.0156 4.25586,-0.5625 0.11914,-0.0156 0.11719,-0.0195 4.24414,-0.66406 0.11914,-0.0176 0.11719,-0.0215 3.06054,-0.55469 -3.5664,-19.67969 -2.97461,0.53907 -3.92969,0.61523 -4.02344,0.53125 -4.0332,0.4375 -4.04102,0.33789 -4.05468,0.24219 -4.05079,0.14648 -4.05273,0.0469 -4.05273,-0.0469 -4.05274,-0.14648 -4.04687,-0.24219 -4.04688,-0.33789 -4.0332,-0.4375 -4.02344,-0.53125 -3.92969,-0.61523 -3.99218,-0.72266 -4.05274,-0.83594 -3.89648,-0.90039 -3.72071,-0.95703 z"
     id="path15346"
     inkscape:connector-curvature="0" />
  <path
     sodipodi:nodetypes="ccccczc"
     inkscape:connector-curvature="0"
     id="path15348"
     d="m 385.313,312.00582 49.8588,-28.78603 49.8589,-28.78604 -49.8589,-28.78603 -49.8588,-28.78589 c 0,0 21.6745,38.38126 21.6746,57.57192 0,19.19074 -21.6746,57.57207 -21.6746,57.57207 z"
     inkscape:transform-center-y="-107.44635"
     inkscape:transform-center-x="-105.23139"
     style="fill:#ffffff;stroke:none;stroke-width:20;stroke-miterlimit:4;stroke-dasharray:none" />
  <circle
     style="fill:none;stroke:#ffffff;stroke-width:14.53779507;stroke-linecap:butt;stroke-miterlimit:4;stroke-dasharray:none;stroke-dashoffset:134"
     id="path5043"
     cx="5416"
     cy="-1474.5774"
     r="0" />
</svg>
