<?xml version="1.0" encoding="UTF-8" standalone="no"?>
<svg
   xmlns:dc="http://purl.org/dc/elements/1.1/"
   xmlns:cc="http://creativecommons.org/ns#"
   xmlns:rdf="http://www.w3.org/1999/02/22-rdf-syntax-ns#"
   xmlns:svg="http://www.w3.org/2000/svg"
   xmlns="http://www.w3.org/2000/svg"
   xmlns:sodipodi="http://sodipodi.sourceforge.net/DTD/sodipodi-0.dtd"
   xmlns:inkscape="http://www.inkscape.org/namespaces/inkscape"
   viewBox="0 0 512 512"
   id="svg2"
   version="1.1"
   inkscape:version="0.91 r13725"
   sodipodi:docname="directions-funky-south-west.svg">
  <metadata
     id="metadata12">
    <rdf:RDF>
      <cc:Work
         rdf:about="">
        <dc:format>image/svg+xml</dc:format>
        <dc:type
           rdf:resource="http://purl.org/dc/dcmitype/StillImage" />
        <dc:title />
      </cc:Work>
    </rdf:RDF>
  </metadata>
  <defs
     id="defs10">
    <marker
       inkscape:isstock="true"
       style="overflow:visible;"
       id="marker6040"
       refX="0.0"
       refY="0.0"
       orient="auto"
       inkscape:stockid="Arrow2Send">
      <path
         transform="scale(0.3) rotate(180) translate(-2.3,0)"
         d="M 8.7185878,4.0337352 L -2.2072895,0.016013256 L 8.7185884,-4.0017078 C 6.9730900,-1.6296469 6.9831476,1.6157441 8.7185878,4.0337352 z "
         style="fill-rule:evenodd;stroke-width:0.625;stroke-linejoin:round;stroke:#ffffff;stroke-opacity:1;fill:#ffffff;fill-opacity:1"
         id="path6042" />
    </marker>
    <marker
       inkscape:isstock="true"
       style="overflow:visible;"
       id="marker5994"
       refX="0.0"
       refY="0.0"
       orient="auto"
       inkscape:stockid="Arrow2Send">
      <path
         transform="scale(0.3) rotate(180) translate(-2.3,0)"
         d="M 8.7185878,4.0337352 L -2.2072895,0.016013256 L 8.7185884,-4.0017078 C 6.9730900,-1.6296469 6.9831476,1.6157441 8.7185878,4.0337352 z "
         style="fill-rule:evenodd;stroke-width:0.625;stroke-linejoin:round;stroke:#ffffff;stroke-opacity:1;fill:#ffffff;fill-opacity:1"
         id="path5996" />
    </marker>
    <marker
       inkscape:isstock="true"
       style="overflow:visible;"
       id="marker5954"
       refX="0.0"
       refY="0.0"
       orient="auto"
       inkscape:stockid="Arrow2Send">
      <path
         transform="scale(0.3) rotate(180) translate(-2.3,0)"
         d="M 8.7185878,4.0337352 L -2.2072895,0.016013256 L 8.7185884,-4.0017078 C 6.9730900,-1.6296469 6.9831476,1.6157441 8.7185878,4.0337352 z "
         style="fill-rule:evenodd;stroke-width:0.625;stroke-linejoin:round;stroke:#ffffff;stroke-opacity:1;fill:#ffffff;fill-opacity:1"
         id="path5956" />
    </marker>
    <marker
       inkscape:isstock="true"
       style="overflow:visible;"
       id="marker5920"
       refX="0.0"
       refY="0.0"
       orient="auto"
       inkscape:stockid="Arrow2Send">
      <path
         transform="scale(0.3) rotate(180) translate(-2.3,0)"
         d="M 8.7185878,4.0337352 L -2.2072895,0.016013256 L 8.7185884,-4.0017078 C 6.9730900,-1.6296469 6.9831476,1.6157441 8.7185878,4.0337352 z "
         style="fill-rule:evenodd;stroke-width:0.625;stroke-linejoin:round;stroke:#ffffff;stroke-opacity:1;fill:#ffffff;fill-opacity:1"
         id="path5922" />
    </marker>
    <marker
       inkscape:isstock="true"
       style="overflow:visible;"
       id="marker5892"
       refX="0.0"
       refY="0.0"
       orient="auto"
       inkscape:stockid="Arrow2Send">
      <path
         transform="scale(0.3) rotate(180) translate(-2.3,0)"
         d="M 8.7185878,4.0337352 L -2.2072895,0.016013256 L 8.7185884,-4.0017078 C 6.9730900,-1.6296469 6.9831476,1.6157441 8.7185878,4.0337352 z "
         style="fill-rule:evenodd;stroke-width:0.625;stroke-linejoin:round;stroke:#ffffff;stroke-opacity:1;fill:#ffffff;fill-opacity:1"
         id="path5894" />
    </marker>
    <marker
       inkscape:isstock="true"
       style="overflow:visible;"
       id="marker5870"
       refX="0.0"
       refY="0.0"
       orient="auto"
       inkscape:stockid="Arrow2Send">
      <path
         transform="scale(0.3) rotate(180) translate(-2.3,0)"
         d="M 8.7185878,4.0337352 L -2.2072895,0.016013256 L 8.7185884,-4.0017078 C 6.9730900,-1.6296469 6.9831476,1.6157441 8.7185878,4.0337352 z "
         style="fill-rule:evenodd;stroke-width:0.625;stroke-linejoin:round;stroke:#ffffff;stroke-opacity:1;fill:#ffffff;fill-opacity:1"
         id="path5872" />
    </marker>
  </defs>
  <sodipodi:namedview
     pagecolor="#ffffff"
     bordercolor="#666666"
     borderopacity="1"
     objecttolerance="10"
     gridtolerance="10"
     guidetolerance="10"
     inkscape:pageopacity="0"
     inkscape:pageshadow="2"
     inkscape:window-width="1829"
     inkscape:window-height="966"
     id="namedview8"
     showgrid="false"
     inkscape:zoom="1.5449218"
     inkscape:cx="256"
     inkscape:cy="256"
     inkscape:window-x="-8"
     inkscape:window-y="-8"
     inkscape:window-maximized="1"
     inkscape:current-layer="svg2"
     showguides="false"
     inkscape:guide-bbox="true"
     inkscape:snap-center="true"
     inkscape:snap-global="true"
     inkscape:snap-bbox="true" />
  <path
     id="path15442"
     d="m 0,0 512,0 0,512 -512,0 z"
     inkscape:connector-curvature="0"
     style="fill:#000000;stroke:#ffffff;stroke-width:0" />
  <path
     sodipodi:nodetypes="ssssssssssssss"
     inkscape:connector-curvature="0"
     id="path15507"
     style="font-style:normal;font-variant:normal;font-weight:bold;font-stretch:normal;font-size:122.5px;line-height:125%;font-family:sans-serif;-inkscape-font-specification:'sans-serif Bold';letter-spacing:0px;word-spacing:0px;fill:#ffffff;fill-opacity:1;stroke:none;stroke-width:1px;stroke-linecap:butt;stroke-linejoin:miter;stroke-opacity:1"
     d="m 363.4269,211.4682 c 18.7013,24.404 0.4184,70.3624 -23.9856,89.0637 -6.7259,5.1542 -18.681,5.1356 -25.4212,0 -15.9556,-12.1571 4.0888,-58.0874 -15.9704,-58.02 -20.0226,0.067 0.3338,45.8316 -15.5518,58.02 -6.7229,5.1582 -18.6952,5.1542 -25.4211,0 -24.404,-18.7013 -42.6869,-64.6597 -23.9856,-89.0637 4.8631,-6.3461 17.7462,-4.9993 23.9856,0 16.3418,13.0937 -7.2384,60.8763 13.6975,61.3098 21.1497,0.4379 -0.3898,-48.427 16.3892,-61.3098 6.0569,-4.6505 16.8797,-4.6863 22.9089,0 16.6505,12.942 -5.4762,61.5137 15.6116,61.3098 20.9884,-0.2029 -2.0913,-48.2692 14.3554,-61.3098 6.1086,-4.8435 18.6456,-6.1879 23.3875,0 z" />
  <path
     sodipodi:nodetypes="aaaaaaaaaaaaaaaaaa"
     inkscape:connector-curvature="0"
     id="path15515-9"
     d="m 225.7039,270.9566 c -2.5964,12.72 -16.0857,21.9859 -28.0543,27.015 -13.5623,5.6988 -32.5981,10.4357 -44.1143,1.282 -4.616,-3.6691 -5.2427,-11.7124 -3.4892,-17.3423 0.9508,-3.0529 4.0321,-5.2473 6.8974,-6.6667 3.912,-1.9377 8.5849,-2.1553 12.9468,-1.9759 10.4424,0.4294 23.3085,14.8414 30.5015,7.2594 2.9889,-3.1505 -0.6607,-9.3756 -3.6791,-12.4976 -8.5851,-8.8798 -27.0065,-2.3908 -35.1722,-11.6576 -6.4265,-7.293 -9.6049,-19.7495 -5.6188,-28.6151 4.4185,-9.8276 17.4945,-13.4521 27.8605,-16.3934 12.3083,-3.4925 28.4622,-8.9 38.3742,-0.8101 4.2228,3.4465 4.461,10.8527 2.9376,16.0862 -1.0606,3.6439 -4.1577,7.0907 -7.7367,8.3525 -12.2209,4.3087 -29.8322,-15.3113 -38.4623,-5.6452 -2.9262,3.2776 0.057,9.8608 3.3741,12.7421 8.3218,7.2285 24.0208,-2.7079 32.8368,3.9089 7.2286,5.4256 12.4056,16.1022 10.598,24.9578 z"
     style="font-style:normal;font-variant:normal;font-weight:bold;font-stretch:normal;font-size:183.75px;line-height:125%;font-family:sans-serif;-inkscape-font-specification:'sans-serif Bold';letter-spacing:0px;word-spacing:0px;fill:#ffffff;fill-opacity:1;stroke:none;stroke-width:1px;stroke-linecap:butt;stroke-linejoin:miter;stroke-opacity:1" />
  <path
     inkscape:connector-curvature="0"
     style="color:#000000;font-style:normal;font-variant:normal;font-weight:normal;font-stretch:normal;font-size:medium;line-height:normal;font-family:sans-serif;text-indent:0;text-align:start;text-decoration:none;text-decoration-line:none;text-decoration-style:solid;text-decoration-color:#000000;letter-spacing:normal;word-spacing:normal;text-transform:none;direction:ltr;block-progression:tb;writing-mode:lr-tb;baseline-shift:baseline;text-anchor:start;white-space:normal;clip-rule:nonzero;display:inline;overflow:visible;visibility:visible;opacity:1;isolation:auto;mix-blend-mode:normal;color-interpolation:sRGB;color-interpolation-filters:linearRGB;solid-color:#000000;solid-opacity:1;fill:#ffffff;fill-opacity:1;fill-rule:nonzero;stroke:none;stroke-width:20;stroke-linecap:butt;stroke-linejoin:miter;stroke-miterlimit:4;stroke-dasharray:none;stroke-dashoffset:174;stroke-opacity:1;color-rendering:auto;image-rendering:auto;shape-rendering:auto;text-rendering:auto;enable-background:accumulate"
     d="m 188.1821,452.4569 a 31.069534,31.716816 45 0 0 44.3971,-0.4572 31.069534,31.716816 45 0 0 4.4678,-5.6582 c 5.7511,-0.2402 11.7173,-0.5082 17.7247,-0.5081 26.0116,-2e-4 50.8455,-5.2773 73.4174,-14.8244 22.5722,-9.5472 42.8868,-23.3557 59.9466,-40.4156 17.06,-17.0599 30.8698,-37.3759 40.4171,-59.948 9.5472,-22.572 14.8243,-47.4062 14.8244,-73.4176 -1e-4,-26.0115 -5.2772,-50.8455 -14.8244,-73.4175 -9.5472,-22.5722 -23.357,-42.8881 -40.417,-59.9481 -17.0599,-17.0599 -37.3746,-30.8684 -59.9467,-40.4156 -22.572,-9.5471 -47.4073,-14.8257 -73.4189,-14.8257 -26.0116,0 -50.8441,5.2785 -73.4162,14.8257 -22.572,9.5472 -42.8881,23.3571 -59.948,40.4171 -17.0599,17.06 -30.8684,37.3744 -40.4156,59.9466 -9.5471,22.5719 -14.8257,47.4045 -14.8257,73.4161 0,6.6127 0.057,14.133 0.3674,21.7905 a 31.069534,31.716816 45 0 0 -3.7592,3.1765 31.069534,31.716816 45 0 0 -0.4572,44.3971 31.069534,31.716816 45 0 0 28.5771,8.198 c 0.8316,0.048 1.5056,-0.1242 2.0992,-0.5247 a 31.069534,31.716816 45 0 0 13.7209,-8.1304 31.069534,31.716816 45 0 0 0.4571,-44.3972 31.069534,31.716816 45 0 0 -18.6831,-8.8057 c -1.3903,-5.3691 -2.3229,-10.6797 -2.3229,-15.7028 -1e-4,-23.3094 4.717,-45.4627 13.2458,-65.6269 8.5288,-20.1644 20.8782,-38.3347 36.1398,-53.5964 15.2612,-15.2609 33.4312,-27.6099 53.595,-36.1385 20.1644,-8.5289 42.3176,-13.2458 65.627,-13.2457 23.3094,-1e-4 45.4611,4.7183 65.6256,13.2472 20.1644,8.5287 38.335,20.8754 53.5965,36.1369 15.2616,15.2616 27.6097,33.4333 36.1384,53.598 8.5289,20.1642 13.2458,42.3147 13.2458,65.6242 0,23.3092 -4.717,45.4627 -13.2458,65.6268 -8.5289,20.1646 -20.8768,38.3365 -36.1385,53.598 -15.2615,15.2614 -33.4319,27.6082 -53.5964,36.1369 -20.1642,8.5288 -42.3175,13.2457 -65.6269,13.2458 -4.2684,0 -8.6904,-0.1931 -13.069,-0.5123 a 31.069534,31.716816 45 0 0 -8.6649,-17.7191 31.069534,31.716816 45 0 0 -44.3958,0.4585 31.069534,31.716816 45 0 0 -0.4585,44.3958 z"
     id="path15592" />
  <g
     style="font-style:normal;font-weight:normal;font-size:20px;line-height:125%;font-family:sans-serif;letter-spacing:0px;word-spacing:0px;fill:#000000;fill-opacity:1;stroke:none;stroke-width:1px;stroke-linecap:butt;stroke-linejoin:miter;stroke-opacity:1"
     id="text15804"
     transform="translate(5811.9242,-1716.6413)" />
  <circle
     style="fill:none;stroke:#ffffff;stroke-width:14.53779507;stroke-linecap:butt;stroke-miterlimit:4;stroke-dasharray:none;stroke-dashoffset:134"
     id="path5043"
     cx="5996"
     cy="-3201.4958"
     r="0" />
</svg>
