<?xml version="1.0" encoding="UTF-8" standalone="no"?>
<svg
   xmlns:dc="http://purl.org/dc/elements/1.1/"
   xmlns:cc="http://creativecommons.org/ns#"
   xmlns:rdf="http://www.w3.org/1999/02/22-rdf-syntax-ns#"
   xmlns:svg="http://www.w3.org/2000/svg"
   xmlns="http://www.w3.org/2000/svg"
   xmlns:sodipodi="http://sodipodi.sourceforge.net/DTD/sodipodi-0.dtd"
   xmlns:inkscape="http://www.inkscape.org/namespaces/inkscape"
   viewBox="0 0 512 512"
   id="svg2"
   version="1.1"
   inkscape:version="0.91 r13725"
   sodipodi:docname="directions-funky-north-east.svg">
  <metadata
     id="metadata12">
    <rdf:RDF>
      <cc:Work
         rdf:about="">
        <dc:format>image/svg+xml</dc:format>
        <dc:type
           rdf:resource="http://purl.org/dc/dcmitype/StillImage" />
        <dc:title />
      </cc:Work>
    </rdf:RDF>
  </metadata>
  <defs
     id="defs10">
    <marker
       inkscape:isstock="true"
       style="overflow:visible;"
       id="marker6040"
       refX="0.0"
       refY="0.0"
       orient="auto"
       inkscape:stockid="Arrow2Send">
      <path
         transform="scale(0.3) rotate(180) translate(-2.3,0)"
         d="M 8.7185878,4.0337352 L -2.2072895,0.016013256 L 8.7185884,-4.0017078 C 6.9730900,-1.6296469 6.9831476,1.6157441 8.7185878,4.0337352 z "
         style="fill-rule:evenodd;stroke-width:0.625;stroke-linejoin:round;stroke:#ffffff;stroke-opacity:1;fill:#ffffff;fill-opacity:1"
         id="path6042" />
    </marker>
    <marker
       inkscape:isstock="true"
       style="overflow:visible;"
       id="marker5994"
       refX="0.0"
       refY="0.0"
       orient="auto"
       inkscape:stockid="Arrow2Send">
      <path
         transform="scale(0.3) rotate(180) translate(-2.3,0)"
         d="M 8.7185878,4.0337352 L -2.2072895,0.016013256 L 8.7185884,-4.0017078 C 6.9730900,-1.6296469 6.9831476,1.6157441 8.7185878,4.0337352 z "
         style="fill-rule:evenodd;stroke-width:0.625;stroke-linejoin:round;stroke:#ffffff;stroke-opacity:1;fill:#ffffff;fill-opacity:1"
         id="path5996" />
    </marker>
    <marker
       inkscape:isstock="true"
       style="overflow:visible;"
       id="marker5954"
       refX="0.0"
       refY="0.0"
       orient="auto"
       inkscape:stockid="Arrow2Send">
      <path
         transform="scale(0.3) rotate(180) translate(-2.3,0)"
         d="M 8.7185878,4.0337352 L -2.2072895,0.016013256 L 8.7185884,-4.0017078 C 6.9730900,-1.6296469 6.9831476,1.6157441 8.7185878,4.0337352 z "
         style="fill-rule:evenodd;stroke-width:0.625;stroke-linejoin:round;stroke:#ffffff;stroke-opacity:1;fill:#ffffff;fill-opacity:1"
         id="path5956" />
    </marker>
    <marker
       inkscape:isstock="true"
       style="overflow:visible;"
       id="marker5920"
       refX="0.0"
       refY="0.0"
       orient="auto"
       inkscape:stockid="Arrow2Send">
      <path
         transform="scale(0.3) rotate(180) translate(-2.3,0)"
         d="M 8.7185878,4.0337352 L -2.2072895,0.016013256 L 8.7185884,-4.0017078 C 6.9730900,-1.6296469 6.9831476,1.6157441 8.7185878,4.0337352 z "
         style="fill-rule:evenodd;stroke-width:0.625;stroke-linejoin:round;stroke:#ffffff;stroke-opacity:1;fill:#ffffff;fill-opacity:1"
         id="path5922" />
    </marker>
    <marker
       inkscape:isstock="true"
       style="overflow:visible;"
       id="marker5892"
       refX="0.0"
       refY="0.0"
       orient="auto"
       inkscape:stockid="Arrow2Send">
      <path
         transform="scale(0.3) rotate(180) translate(-2.3,0)"
         d="M 8.7185878,4.0337352 L -2.2072895,0.016013256 L 8.7185884,-4.0017078 C 6.9730900,-1.6296469 6.9831476,1.6157441 8.7185878,4.0337352 z "
         style="fill-rule:evenodd;stroke-width:0.625;stroke-linejoin:round;stroke:#ffffff;stroke-opacity:1;fill:#ffffff;fill-opacity:1"
         id="path5894" />
    </marker>
    <marker
       inkscape:isstock="true"
       style="overflow:visible;"
       id="marker5870"
       refX="0.0"
       refY="0.0"
       orient="auto"
       inkscape:stockid="Arrow2Send">
      <path
         transform="scale(0.3) rotate(180) translate(-2.3,0)"
         d="M 8.7185878,4.0337352 L -2.2072895,0.016013256 L 8.7185884,-4.0017078 C 6.9730900,-1.6296469 6.9831476,1.6157441 8.7185878,4.0337352 z "
         style="fill-rule:evenodd;stroke-width:0.625;stroke-linejoin:round;stroke:#ffffff;stroke-opacity:1;fill:#ffffff;fill-opacity:1"
         id="path5872" />
    </marker>
  </defs>
  <sodipodi:namedview
     pagecolor="#ffffff"
     bordercolor="#666666"
     borderopacity="1"
     objecttolerance="10"
     gridtolerance="10"
     guidetolerance="10"
     inkscape:pageopacity="0"
     inkscape:pageshadow="2"
     inkscape:window-width="1829"
     inkscape:window-height="966"
     id="namedview8"
     showgrid="false"
     inkscape:zoom="1.5449219"
     inkscape:cx="256"
     inkscape:cy="256"
     inkscape:window-x="-8"
     inkscape:window-y="-8"
     inkscape:window-maximized="1"
     inkscape:current-layer="svg2"
     showguides="false"
     inkscape:guide-bbox="true"
     inkscape:snap-center="true"
     inkscape:snap-global="true"
     inkscape:snap-bbox="true" />
  <path
     id="path15430"
     d="m 0,4.9999999e-6 512,0 L 512,511.99999 l -512,0 z"
     inkscape:connector-curvature="0"
     style="fill:#000000;stroke:#ffffff;stroke-width:0" />
  <path
     sodipodi:nodetypes="sssssssssss"
     inkscape:connector-curvature="0"
     id="path15521"
     style="font-style:normal;font-variant:normal;font-weight:bold;font-stretch:normal;font-size:122.5px;line-height:125%;font-family:sans-serif;-inkscape-font-specification:'sans-serif Bold';letter-spacing:0px;word-spacing:0px;fill:#ffffff;fill-opacity:1;stroke:none;stroke-width:1px;stroke-linecap:butt;stroke-linejoin:miter;stroke-opacity:1"
     d="m 252.8597,300.53186 c -5.2164,5.2164 -15.6875,3.59155 -22.1313,0 -20.9272,-11.66407 -14.7572,-67.68036 -37.8027,-61.13037 -19.6005,5.57085 14.4086,46.7218 0,61.13037 -4.9626,4.96264 -16.0921,4.96264 -21.0547,0 -20.9925,-20.99252 -20.9925,-68.0712 0,-89.06372 6.4712,-6.47116 19.4321,-4.40322 27.4548,0 17.6738,9.70022 13.1229,56.65992 32.4793,51.02173 16.3286,-4.75626 -12.0259,-38.99578 0,-51.02173 4.9626,-4.96262 16.092,-4.96262 21.0546,0 20.9925,20.99252 20.9925,68.0712 0,89.06372 z" />
  <path
     sodipodi:nodetypes="sssssssssssss"
     inkscape:connector-curvature="0"
     id="path15523"
     style="font-style:normal;font-variant:normal;font-weight:bold;font-stretch:normal;font-size:122.5px;line-height:125%;font-family:sans-serif;-inkscape-font-specification:'sans-serif Bold';letter-spacing:0px;word-spacing:0px;fill:#ffffff;fill-opacity:1;stroke:none;stroke-width:1px;stroke-linecap:butt;stroke-linejoin:miter;stroke-opacity:1"
     d="m 340.129,300.53186 c -15.184,15.18396 -49.2361,15.18396 -64.4201,0 -20.9925,-20.99252 -20.9925,-68.0712 0,-89.06372 15.184,-15.18396 49.2361,-15.18396 64.4201,0 4.0603,4.06034 4.0603,13.16622 0,17.22656 -9.7984,9.79838 -31.7726,-9.79838 -41.571,0 -3.6233,3.62329 -3.6233,11.74902 0,15.37231 9.0935,9.09346 29.4868,-9.09346 38.5803,0 4.0603,4.06034 4.0603,13.16623 0,17.22657 -9.0935,9.09346 -29.4868,-9.09346 -38.5803,0 -5.1882,5.18821 -5.1882,16.82351 0,22.01172 9.7984,9.79838 31.7726,-9.79838 41.571,0 4.0603,4.06034 4.0603,13.16622 0,17.22656 z" />
  <path
     inkscape:connector-curvature="0"
     style="color:#000000;font-style:normal;font-variant:normal;font-weight:normal;font-stretch:normal;font-size:medium;line-height:normal;font-family:sans-serif;text-indent:0;text-align:start;text-decoration:none;text-decoration-line:none;text-decoration-style:solid;text-decoration-color:#000000;letter-spacing:normal;word-spacing:normal;text-transform:none;direction:ltr;block-progression:tb;writing-mode:lr-tb;baseline-shift:baseline;text-anchor:start;white-space:normal;clip-rule:nonzero;display:inline;overflow:visible;visibility:visible;opacity:1;isolation:auto;mix-blend-mode:normal;color-interpolation:sRGB;color-interpolation-filters:linearRGB;solid-color:#000000;solid-opacity:1;fill:#ffffff;fill-opacity:1;fill-rule:nonzero;stroke:none;stroke-width:20;stroke-linecap:butt;stroke-linejoin:miter;stroke-miterlimit:4;stroke-dasharray:none;stroke-dashoffset:174;stroke-opacity:1;color-rendering:auto;image-rendering:auto;shape-rendering:auto;text-rendering:auto;enable-background:accumulate"
     d="m 323.8168,59.543095 a 31.069534,31.716816 45 0 0 -44.3972,0.45714 31.069534,31.716816 45 0 0 -4.4678,5.65827 c -5.7511,0.2402 -11.7173,0.5082 -17.7246,0.50813 -26.0117,1.4e-4 -50.8456,5.27721 -73.4176,14.82439 -22.5721,9.54722 -42.8868,23.355665 -59.9466,40.415605 -17.0599,17.05994 -30.8698,37.3759 -40.417,59.94802 -9.5472,22.57199 -14.8243,47.40613 -14.8244,73.41755 1e-4,26.01157 5.2771,50.8455 14.8244,73.41755 9.5472,22.5722 23.357,42.88809 40.417,59.94809 17.0598,17.05988 37.3746,30.8684 59.9466,40.41554 22.5721,9.54714 47.4074,14.8257 73.4189,14.82577 26.0117,0 50.8442,-5.27849 73.4163,-14.82577 22.572,-9.54714 42.888,-23.35708 59.948,-40.41702 17.0598,-17.06001 30.8684,-37.37448 40.4156,-59.94661 9.5472,-22.57195 14.8257,-47.40454 14.8257,-73.41618 0,-6.61272 -0.057,-14.13301 -0.3674,-21.79048 a 31.069534,31.716816 45 0 0 3.7593,-3.17647 31.069534,31.716816 45 0 0 0.4571,-44.39718 31.069534,31.716816 45 0 0 -28.5771,-8.19799 c -0.8316,-0.0483 -1.5056,0.12424 -2.0992,0.52475 a 31.069534,31.716816 45 0 0 -13.7209,8.13038 31.069534,31.716816 45 0 0 -0.4571,44.39719 31.069534,31.716816 45 0 0 18.6831,8.80567 c 1.3904,5.36913 2.3229,10.67979 2.3229,15.70279 1e-4,23.30942 -4.717,45.46272 -13.2458,65.62698 -8.5288,20.16442 -20.8782,38.33473 -36.1398,53.59643 -15.2612,15.26093 -33.4312,27.6099 -53.5951,36.13846 -20.1643,8.52891 -42.3175,13.2458 -65.6269,13.24573 -23.3094,7e-5 -45.4611,-4.71831 -65.6256,-13.24722 -20.1644,-8.52869 -38.335,-20.87541 -53.5965,-36.13689 -15.2616,-15.26163 -27.6097,-33.43328 -36.1384,-53.59799 -8.5289,-20.16422 -13.2458,-42.31468 -13.2458,-65.62418 0,-23.30921 4.717,-45.46272 13.2458,-65.62686 8.5289,-20.16457 20.8768,-38.3365 36.1385,-53.59791 15.2615,-15.26149 33.4319,-27.60821 53.5964,-36.136985 20.1643,-8.52881 42.3176,-13.24571 65.6269,-13.24585 4.2684,0 8.6904,0.19311 13.069,0.51237 a 31.069534,31.716816 45 0 0 8.6649,17.719115 31.069534,31.716816 45 0 0 44.3958,-0.45856 31.069534,31.716816 45 0 0 0.4586,-44.395775 z"
     id="path15588" />
  <g
     style="font-style:normal;font-weight:normal;font-size:20px;line-height:125%;font-family:sans-serif;letter-spacing:0px;word-spacing:0px;fill:#000000;fill-opacity:1;stroke:none;stroke-width:1px;stroke-linecap:butt;stroke-linejoin:miter;stroke-opacity:1"
     id="text15804"
     transform="translate(5811.9242,-542.19031)" />
  <circle
     style="fill:none;stroke:#ffffff;stroke-width:14.53779507;stroke-linecap:butt;stroke-miterlimit:4;stroke-dasharray:none;stroke-dashoffset:134"
     id="path5043"
     cx="5996"
     cy="-2027.0449"
     r="0" />
</svg>
