<?xml version="1.0" encoding="UTF-8" standalone="no"?>
<svg
   xmlns:dc="http://purl.org/dc/elements/1.1/"
   xmlns:cc="http://creativecommons.org/ns#"
   xmlns:rdf="http://www.w3.org/1999/02/22-rdf-syntax-ns#"
   xmlns:svg="http://www.w3.org/2000/svg"
   xmlns="http://www.w3.org/2000/svg"
   xmlns:sodipodi="http://sodipodi.sourceforge.net/DTD/sodipodi-0.dtd"
   xmlns:inkscape="http://www.inkscape.org/namespaces/inkscape"
   viewBox="0 0 512 512"
   id="svg2"
   version="1.1"
   inkscape:version="0.91 r13725"
   sodipodi:docname="directions-dotted-south-east.svg">
  <metadata
     id="metadata12">
    <rdf:RDF>
      <cc:Work
         rdf:about="">
        <dc:format>image/svg+xml</dc:format>
        <dc:type
           rdf:resource="http://purl.org/dc/dcmitype/StillImage" />
        <dc:title />
      </cc:Work>
    </rdf:RDF>
  </metadata>
  <defs
     id="defs10">
    <marker
       inkscape:isstock="true"
       style="overflow:visible;"
       id="marker6040"
       refX="0.0"
       refY="0.0"
       orient="auto"
       inkscape:stockid="Arrow2Send">
      <path
         transform="scale(0.3) rotate(180) translate(-2.3,0)"
         d="M 8.7185878,4.0337352 L -2.2072895,0.016013256 L 8.7185884,-4.0017078 C 6.9730900,-1.6296469 6.9831476,1.6157441 8.7185878,4.0337352 z "
         style="fill-rule:evenodd;stroke-width:0.625;stroke-linejoin:round;stroke:#ffffff;stroke-opacity:1;fill:#ffffff;fill-opacity:1"
         id="path6042" />
    </marker>
    <marker
       inkscape:isstock="true"
       style="overflow:visible;"
       id="marker5994"
       refX="0.0"
       refY="0.0"
       orient="auto"
       inkscape:stockid="Arrow2Send">
      <path
         transform="scale(0.3) rotate(180) translate(-2.3,0)"
         d="M 8.7185878,4.0337352 L -2.2072895,0.016013256 L 8.7185884,-4.0017078 C 6.9730900,-1.6296469 6.9831476,1.6157441 8.7185878,4.0337352 z "
         style="fill-rule:evenodd;stroke-width:0.625;stroke-linejoin:round;stroke:#ffffff;stroke-opacity:1;fill:#ffffff;fill-opacity:1"
         id="path5996" />
    </marker>
    <marker
       inkscape:isstock="true"
       style="overflow:visible;"
       id="marker5954"
       refX="0.0"
       refY="0.0"
       orient="auto"
       inkscape:stockid="Arrow2Send">
      <path
         transform="scale(0.3) rotate(180) translate(-2.3,0)"
         d="M 8.7185878,4.0337352 L -2.2072895,0.016013256 L 8.7185884,-4.0017078 C 6.9730900,-1.6296469 6.9831476,1.6157441 8.7185878,4.0337352 z "
         style="fill-rule:evenodd;stroke-width:0.625;stroke-linejoin:round;stroke:#ffffff;stroke-opacity:1;fill:#ffffff;fill-opacity:1"
         id="path5956" />
    </marker>
    <marker
       inkscape:isstock="true"
       style="overflow:visible;"
       id="marker5920"
       refX="0.0"
       refY="0.0"
       orient="auto"
       inkscape:stockid="Arrow2Send">
      <path
         transform="scale(0.3) rotate(180) translate(-2.3,0)"
         d="M 8.7185878,4.0337352 L -2.2072895,0.016013256 L 8.7185884,-4.0017078 C 6.9730900,-1.6296469 6.9831476,1.6157441 8.7185878,4.0337352 z "
         style="fill-rule:evenodd;stroke-width:0.625;stroke-linejoin:round;stroke:#ffffff;stroke-opacity:1;fill:#ffffff;fill-opacity:1"
         id="path5922" />
    </marker>
    <marker
       inkscape:isstock="true"
       style="overflow:visible;"
       id="marker5892"
       refX="0.0"
       refY="0.0"
       orient="auto"
       inkscape:stockid="Arrow2Send">
      <path
         transform="scale(0.3) rotate(180) translate(-2.3,0)"
         d="M 8.7185878,4.0337352 L -2.2072895,0.016013256 L 8.7185884,-4.0017078 C 6.9730900,-1.6296469 6.9831476,1.6157441 8.7185878,4.0337352 z "
         style="fill-rule:evenodd;stroke-width:0.625;stroke-linejoin:round;stroke:#ffffff;stroke-opacity:1;fill:#ffffff;fill-opacity:1"
         id="path5894" />
    </marker>
    <marker
       inkscape:isstock="true"
       style="overflow:visible;"
       id="marker5870"
       refX="0.0"
       refY="0.0"
       orient="auto"
       inkscape:stockid="Arrow2Send">
      <path
         transform="scale(0.3) rotate(180) translate(-2.3,0)"
         d="M 8.7185878,4.0337352 L -2.2072895,0.016013256 L 8.7185884,-4.0017078 C 6.9730900,-1.6296469 6.9831476,1.6157441 8.7185878,4.0337352 z "
         style="fill-rule:evenodd;stroke-width:0.625;stroke-linejoin:round;stroke:#ffffff;stroke-opacity:1;fill:#ffffff;fill-opacity:1"
         id="path5872" />
    </marker>
  </defs>
  <sodipodi:namedview
     pagecolor="#ffffff"
     bordercolor="#666666"
     borderopacity="1"
     objecttolerance="10"
     gridtolerance="10"
     guidetolerance="10"
     inkscape:pageopacity="0"
     inkscape:pageshadow="2"
     inkscape:window-width="1829"
     inkscape:window-height="966"
     id="namedview8"
     showgrid="false"
     inkscape:zoom="1.5449218"
     inkscape:cx="256"
     inkscape:cy="256"
     inkscape:window-x="-8"
     inkscape:window-y="-8"
     inkscape:window-maximized="1"
     inkscape:current-layer="svg2"
     showguides="false"
     inkscape:guide-bbox="true"
     inkscape:snap-center="true"
     inkscape:snap-global="true"
     inkscape:snap-bbox="true" />
  <path
     style="fill:#000000;stroke:#ffffff;stroke-width:0"
     inkscape:connector-curvature="0"
     d="m 0,0 512,0 0,512 -512,0 z"
     id="path4374" />
  <g
     style="font-style:normal;font-weight:normal;font-size:122.5px;line-height:125%;font-family:sans-serif;letter-spacing:0px;word-spacing:0px;fill:#000000;fill-opacity:1;stroke:none;stroke-width:1px;stroke-linecap:butt;stroke-linejoin:miter;stroke-opacity:1"
     id="text4376"
     transform="translate(2931.9242,-2327.6485)">
    <path
       d="m -2677.958,2600.187 q 0,13.1592 -11.1853,21.4136 -11.1255,8.1946 -30.2661,8.1946 -11.0657,0 -19.3201,-1.9141 -8.1946,-1.9739 -15.3723,-4.9646 l 0,-21.3538 2.5122,0 q 7.1179,5.6824 15.9106,8.733 8.8526,3.0505 16.9873,3.0505 2.0936,0 5.503,-0.3589 3.4094,-0.3589 5.5627,-1.1963 2.6319,-1.0766 4.3067,-2.6916 1.7346,-1.615 1.7346,-4.7852 0,-2.9309 -2.5122,-5.0244 -2.4524,-2.1533 -7.2376,-3.2898 -5.0244,-1.1963 -10.6469,-2.2131 -5.5628,-1.0767 -10.4676,-2.6917 -11.2451,-3.6487 -16.2097,-9.8694 -4.9048,-6.2805 -4.9048,-15.5517 0,-12.4414 11.1255,-20.2771 11.1853,-7.8955 28.7109,-7.8955 8.7928,0 17.3462,1.7346 8.6133,1.6748 14.8938,4.2468 l 0,20.5164 -2.4524,0 q -5.3833,-4.3067 -13.2189,-7.1778 -7.7759,-2.9309 -15.9107,-2.9309 -2.8711,0 -5.7422,0.4187 -2.8113,0.3589 -5.4431,1.4356 -2.3328,0.8972 -4.0076,2.7514 -1.6748,1.7945 -1.6748,4.1272 0,3.5291 2.6917,5.4432 2.6916,1.8542 10.1684,3.4094 4.9048,1.0168 9.3909,1.9739 4.5459,0.957 9.7498,2.6318 10.2282,3.3496 15.0732,9.1516 4.9048,5.7422 4.9048,14.9536 z"
       style="font-style:normal;font-variant:normal;font-weight:bold;font-stretch:normal;font-size:122.5px;font-family:sans-serif;-inkscape-font-specification:'sans-serif Bold';fill:#ffffff"
       id="path4260"
       inkscape:connector-curvature="0" />
    <path
       d="m -2597.7468,2628.1802 -64.4202,0 0,-89.0637 64.4202,0 0,17.2265 -41.5711,0 0,15.3723 38.5804,0 0,17.2266 -38.5804,0 0,22.0117 41.5711,0 0,17.2266 z"
       style="font-style:normal;font-variant:normal;font-weight:bold;font-stretch:normal;font-size:122.5px;font-family:sans-serif;-inkscape-font-specification:'sans-serif Bold';fill:#ffffff"
       id="path4262"
       inkscape:connector-curvature="0" />
  </g>
  <path
     style="color:#000000;font-style:normal;font-variant:normal;font-weight:normal;font-stretch:normal;font-size:medium;line-height:normal;font-family:sans-serif;text-indent:0;text-align:start;text-decoration:none;text-decoration-line:none;text-decoration-style:solid;text-decoration-color:#000000;letter-spacing:normal;word-spacing:normal;text-transform:none;direction:ltr;block-progression:tb;writing-mode:lr-tb;baseline-shift:baseline;text-anchor:start;white-space:normal;clip-rule:nonzero;display:inline;overflow:visible;visibility:visible;opacity:1;isolation:auto;mix-blend-mode:normal;color-interpolation:sRGB;color-interpolation-filters:linearRGB;solid-color:#000000;solid-opacity:1;fill:#ffffff;fill-opacity:1;fill-rule:nonzero;stroke:none;stroke-width:20;stroke-linecap:butt;stroke-linejoin:miter;stroke-miterlimit:4;stroke-dasharray:20, 40;stroke-dashoffset:0;stroke-opacity:1;color-rendering:auto;image-rendering:auto;shape-rendering:auto;text-rendering:auto;enable-background:accumulate"
     d="m 241.625,67.933594 -0.125,0.0078 -0.12695,0.01172 -4.51953,0.402344 -0.125,0.0098 -0.125,0.01563 -4.48633,0.511719 -0.12696,0.01367 -0.12304,0.01758 -4.45313,0.623047 -0.125,0.01758 -0.12304,0.02148 -4.41602,0.730468 -0.125,0.02148 -0.12305,0.02344 -0.77929,0.150391 3.76367,19.642578 0.64062,-0.123047 4.13867,-0.6875 4.26954,-0.597656 4.2207,-0.482422 4.25195,-0.376953 1.06055,-0.06836 -1.26367,-19.958984 z m 40.0625,21.402344 4.19141,0.695312 4.14257,0.794922 4.07618,0.888672 4,0.974609 2.16406,0.585938 5.22461,-19.306641 -2.23828,-0.605469 -0.11914,-0.0332 -0.1211,-0.0293 -4.30078,-1.048828 -0.12109,-0.0293 -0.12305,-0.02734 L 294.12305,71.25 294,71.224609 l -0.12305,-0.02344 -4.3789,-0.839844 -0.12305,-0.02344 -0.125,-0.02148 -4.29492,-0.710937 z m -103.19922,-5.326172 -0.11133,0.04883 -0.11133,0.05078 -3.92968,1.835937 -0.11133,0.05078 -0.10742,0.05469 -3.87891,1.925781 -0.10742,0.05469 -0.10742,0.05664 -3.82422,2.017578 -0.10742,0.05664 -0.10547,0.05859 -3.34961,1.873047 9.75781,17.45703 3.25586,-1.81836 3.58789,-1.89258 3.69727,-1.83789 3.71484,-1.73437 2.75977,-1.20703 -8.01563,-18.322269 z m 156.82031,23.173824 1.04297,0.54883 3.59375,2.00977 3.45117,2.04101 3.4375,2.14453 3.43164,2.25782 1.0918,0.75781 11.39453,-16.4375 -1.19336,-0.828126 -0.0996,-0.06836 -0.0996,-0.06641 -3.59376,-2.365235 -0.10156,-0.06641 -0.10156,-0.0625 -3.65234,-2.28125 -0.10352,-0.06445 -0.10352,-0.06055 -3.71093,-2.193359 -0.10352,-0.0625 -0.10547,-0.05859 -3.76953,-2.107422 -0.10547,-0.05859 -0.10742,-0.05664 -1.1582,-0.611328 z m -209.34961,12.20899 -0.0879,0.082 -0.0859,0.082 -3.06446,2.99414 -0.0859,0.084 -0.084,0.084 -2.99414,3.06641 -0.082,0.0859 -0.082,0.0879 -2.91992,3.13672 -0.082,0.0859 -0.0781,0.0898 -2.46289,2.7754 14.96094,13.27343 2.39062,-2.69336 2.75391,-2.95898 2.82226,-2.89063 2.89063,-2.82226 2.43164,-2.26367 -13.62695,-14.63868 z m 253.94922,22.27734 0.89258,0.95703 2.67969,3.02344 2.61133,3.08594 2.5664,3.18555 2.46875,3.2207 0.7461,1.02148 16.1582,-11.78515 -0.82813,-1.13477 -0.0703,-0.0977 -0.0723,-0.0937 -2.61133,-3.40625 -0.0742,-0.0957 -0.0742,-0.0918 -2.6914,-3.34179 -0.0742,-0.0937 -0.0781,-0.0898 -2.76758,-3.27539 -0.0781,-0.0918 -0.0781,-0.0879 -2.8457,-3.20704 -0.0781,-0.0898 -0.082,-0.0859 -0.98046,-1.05273 z m -291.820309,28.35352 -0.05664,0.10742 -0.05469,0.10742 -1.925781,3.87891 -0.05469,0.10742 -0.05078,0.11133 -1.835937,3.92968 -0.05078,0.11133 -0.04883,0.11133 -1.742188,3.98242 -0.04883,0.11133 -0.04687,0.11328 -1.28125,3.13477 18.515625,7.56445 1.23242,-3.01953 1.62891,-3.72461 1.73437,-3.71484 1.83789,-3.69727 1.61719,-3.0664 -17.689452,-9.33399 z m 322.615229,18.84961 0.66016,1.50781 1.55469,3.80469 1.44922,3.8125 1.37304,3.89648 1.28711,3.96289 0.18164,0.60742 19.16797,-5.70117 -0.21484,-0.72656 -0.0352,-0.11914 -0.0391,-0.11719 -1.35351,-4.17383 -0.0391,-0.11718 -0.041,-0.11719 -1.45313,-4.125 -0.041,-0.11719 -0.0449,-0.11523 -1.55078,-4.08008 -0.043,-0.11328 -0.0469,-0.11524 -1.64649,-4.03125 -0.0469,-0.11328 -0.0488,-0.11133 -0.70508,-1.61328 z m -341.117182,38.29297 -0.02148,0.12304 -0.01758,0.125 -0.623047,4.45313 -0.01563,0.12304 -0.01563,0.12696 -0.511719,4.48633 -0.01563,0.125 -0.0098,0.125 -0.402344,4.51953 -0.01172,0.12695 -0.0078,0.125 -0.28711,4.55078 -0.0078,0.12695 -0.0059,0.12696 -0.04492,1.17969 19.986328,0.75976 0.04102,-1.08789 0.271485,-4.2793 0.376953,-4.24609 0.482422,-4.2207 0.597656,-4.25977 0.08984,-0.54101 -19.732422,-3.26954 z m 354.556642,16.3164 0.24219,3.79883 0.16601,4.38477 0.0547,4.33398 -0.0547,4.33594 -0.0801,2.12109 19.98633,0.75977 0.084,-2.22657 0.006,-0.12695 0,-0.12695 0.0586,-4.60938 0.002,-0.12695 -0.002,-0.12695 -0.0586,-4.60938 0,-0.12695 -0.006,-0.12695 -0.17383,-4.58008 -0.006,-0.12696 -0.008,-0.12695 -0.25,-3.95703 z m -353.742189,46.21875 0.800781,4.17578 0.02344,0.12305 0.02539,0.12305 0.945312,4.33984 0.02734,0.12305 0.0293,0.12109 1.048828,4.30078 0.0293,0.1211 0.0332,0.11914 1.152344,4.25976 0.0332,0.11914 0.03516,0.11914 0.703125,2.36524 19.169922,-5.70313 -0.660156,-2.21875 -1.107422,-4.08984 -0.974609,-4.00195 -0.888672,-4.07618 -0.783203,-4.08398 z m 347.802729,12.48828 -1.17578,3.95703 -1.28711,3.95899 -1.37304,3.89453 -1.42383,3.74414 18.69531,7.10742 1.47656,-3.88672 0.0449,-0.11523 0.041,-0.11719 1.45313,-4.125 0.041,-0.11719 0.0391,-0.11718 1.35351,-4.17383 0.0391,-0.11719 0.0352,-0.11914 1.25391,-4.2168 0.0351,-0.11914 0.0332,-0.11914 0.69921,-2.58789 -19.30468,-5.22461 z m -326.394526,46.66211 0.519531,0.93164 0.05859,0.10547 0.0625,0.10352 2.193359,3.71093 0.06055,0.10352 0.06445,0.10352 2.28125,3.65234 0.0625,0.10156 0.06641,0.10156 2.365235,3.59376 0.06641,0.0996 0.06836,0.0996 2.449216,3.53125 0.0684,0.0996 0.0703,0.0957 1.01172,1.38672 16.15821,-11.78516 -0.90625,-1.24414 -2.3418,-3.375 -2.25977,-3.4336 -2.14453,-3.4375 -2.03906,-3.44726 -0.47852,-0.85742 z m 39.798826,48.90821 0.8711,0.77343 0.0879,0.0781 0.0918,0.0781 3.27539,2.76758 0.0898,0.0781 0.0937,0.0742 3.34179,2.6914 0.0918,0.0742 0.0957,0.0742 3.40625,2.61133 0.0937,0.0723 0.0977,0.0703 3.4707,2.53126 0.0957,0.0703 0.0996,0.0684 1.37304,0.95117 11.39453,-16.43555 -1.32031,-0.91797 -3.2168,-2.34375 -3.21874,-2.46875 -3.18555,-2.5664 -3.0918,-2.61328 -0.76367,-0.67774 z m 186.20703,15.1582 -3.8125,1.44922 -3.89648,1.37304 -3.95899,1.28711 -2.30078,0.6836 5.70313,19.16992 2.41406,-0.71875 0.11914,-0.0352 0.11719,-0.0391 4.17383,-1.35351 0.11718,-0.0391 0.11719,-0.041 4.125,-1.45313 0.11719,-0.041 0.11523,-0.0449 4.08008,-1.55078 0.11328,-0.043 0.11524,-0.0469 4.03125,-1.64649 -7.56446,-18.51367 z m -132.52734,17.96875 1.43945,0.58789 0.11524,0.0469 0.11328,0.043 4.08008,1.55078 0.11523,0.0449 0.11719,0.041 4.125,1.45313 0.11719,0.041 0.11718,0.0391 4.17383,1.35351 0.11719,0.0391 0.11914,0.0352 4.2168,1.25391 0.11914,0.0351 0.11914,0.0332 0.88672,0.24023 5.22461,-19.30664 -0.79297,-0.21485 -3.95703,-1.17578 -3.95899,-1.28711 -3.89648,-1.37304 -3.8125,-1.44922 -1.33399,-0.54492 z m 79.42969,-6.50195 -4.38086,0.16601 -4.33594,0.0547 -4.33594,-0.0547 -3.88086,-0.14648 -0.75976,19.98632 3.98633,0.1504 0.12695,0.006 0.12695,0 4.60938,0.0586 0.12695,0.002 0.12695,-0.002 4.60938,-0.0586 0.12695,0 0.12695,-0.006 4.58008,-0.17383 0.12696,-0.006 0.12695,-0.008 2.19922,-0.13868 -1.26367,-19.96093 z"
     id="path5406"
     inkscape:connector-curvature="0" />
  <path
     style="fill:#ffffff;stroke:none;stroke-width:20;stroke-miterlimit:4;stroke-dasharray:none"
     inkscape:transform-center-x="-105.23139"
     inkscape:transform-center-y="-107.44635"
     d="m 387.0402,307.836 14.9007,55.6103 14.9007,55.6103 -55.6103,-14.9007 -55.6102,-14.9008 c 0,0 42.4658,-11.8135 56.0357,-25.3833 13.5699,-13.5699 25.3834,-56.0358 25.3834,-56.0358 z"
     id="path5408"
     inkscape:connector-curvature="0"
     sodipodi:nodetypes="ccccczc" />
  <g
     style="font-style:normal;font-weight:normal;font-size:20px;line-height:125%;font-family:sans-serif;letter-spacing:0px;word-spacing:0px;fill:#000000;fill-opacity:1;stroke:none;stroke-width:1px;stroke-linecap:butt;stroke-linejoin:miter;stroke-opacity:1"
     id="text15804"
     transform="translate(2931.9242,-2327.6485)" />
  <circle
     style="fill:none;stroke:#ffffff;stroke-width:14.53779507;stroke-linecap:butt;stroke-miterlimit:4;stroke-dasharray:none;stroke-dashoffset:134"
     id="path5043"
     cx="3116"
     cy="-3812.5032"
     r="0" />
</svg>
