<?xml version="1.0" encoding="UTF-8" standalone="no"?>
<svg
   xmlns:dc="http://purl.org/dc/elements/1.1/"
   xmlns:cc="http://creativecommons.org/ns#"
   xmlns:rdf="http://www.w3.org/1999/02/22-rdf-syntax-ns#"
   xmlns:svg="http://www.w3.org/2000/svg"
   xmlns="http://www.w3.org/2000/svg"
   xmlns:sodipodi="http://sodipodi.sourceforge.net/DTD/sodipodi-0.dtd"
   xmlns:inkscape="http://www.inkscape.org/namespaces/inkscape"
   viewBox="0 0 512 512"
   id="svg2"
   version="1.1"
   inkscape:version="0.91 r13725"
   sodipodi:docname="directions-south-east.svg">
  <metadata
     id="metadata12">
    <rdf:RDF>
      <cc:Work
         rdf:about="">
        <dc:format>image/svg+xml</dc:format>
        <dc:type
           rdf:resource="http://purl.org/dc/dcmitype/StillImage" />
        <dc:title />
      </cc:Work>
    </rdf:RDF>
  </metadata>
  <defs
     id="defs10">
    <marker
       inkscape:isstock="true"
       style="overflow:visible;"
       id="marker6040"
       refX="0.0"
       refY="0.0"
       orient="auto"
       inkscape:stockid="Arrow2Send">
      <path
         transform="scale(0.3) rotate(180) translate(-2.3,0)"
         d="M 8.7185878,4.0337352 L -2.2072895,0.016013256 L 8.7185884,-4.0017078 C 6.9730900,-1.6296469 6.9831476,1.6157441 8.7185878,4.0337352 z "
         style="fill-rule:evenodd;stroke-width:0.625;stroke-linejoin:round;stroke:#ffffff;stroke-opacity:1;fill:#ffffff;fill-opacity:1"
         id="path6042" />
    </marker>
    <marker
       inkscape:isstock="true"
       style="overflow:visible;"
       id="marker5994"
       refX="0.0"
       refY="0.0"
       orient="auto"
       inkscape:stockid="Arrow2Send">
      <path
         transform="scale(0.3) rotate(180) translate(-2.3,0)"
         d="M 8.7185878,4.0337352 L -2.2072895,0.016013256 L 8.7185884,-4.0017078 C 6.9730900,-1.6296469 6.9831476,1.6157441 8.7185878,4.0337352 z "
         style="fill-rule:evenodd;stroke-width:0.625;stroke-linejoin:round;stroke:#ffffff;stroke-opacity:1;fill:#ffffff;fill-opacity:1"
         id="path5996" />
    </marker>
    <marker
       inkscape:isstock="true"
       style="overflow:visible;"
       id="marker5954"
       refX="0.0"
       refY="0.0"
       orient="auto"
       inkscape:stockid="Arrow2Send">
      <path
         transform="scale(0.3) rotate(180) translate(-2.3,0)"
         d="M 8.7185878,4.0337352 L -2.2072895,0.016013256 L 8.7185884,-4.0017078 C 6.9730900,-1.6296469 6.9831476,1.6157441 8.7185878,4.0337352 z "
         style="fill-rule:evenodd;stroke-width:0.625;stroke-linejoin:round;stroke:#ffffff;stroke-opacity:1;fill:#ffffff;fill-opacity:1"
         id="path5956" />
    </marker>
    <marker
       inkscape:isstock="true"
       style="overflow:visible;"
       id="marker5920"
       refX="0.0"
       refY="0.0"
       orient="auto"
       inkscape:stockid="Arrow2Send">
      <path
         transform="scale(0.3) rotate(180) translate(-2.3,0)"
         d="M 8.7185878,4.0337352 L -2.2072895,0.016013256 L 8.7185884,-4.0017078 C 6.9730900,-1.6296469 6.9831476,1.6157441 8.7185878,4.0337352 z "
         style="fill-rule:evenodd;stroke-width:0.625;stroke-linejoin:round;stroke:#ffffff;stroke-opacity:1;fill:#ffffff;fill-opacity:1"
         id="path5922" />
    </marker>
    <marker
       inkscape:isstock="true"
       style="overflow:visible;"
       id="marker5892"
       refX="0.0"
       refY="0.0"
       orient="auto"
       inkscape:stockid="Arrow2Send">
      <path
         transform="scale(0.3) rotate(180) translate(-2.3,0)"
         d="M 8.7185878,4.0337352 L -2.2072895,0.016013256 L 8.7185884,-4.0017078 C 6.9730900,-1.6296469 6.9831476,1.6157441 8.7185878,4.0337352 z "
         style="fill-rule:evenodd;stroke-width:0.625;stroke-linejoin:round;stroke:#ffffff;stroke-opacity:1;fill:#ffffff;fill-opacity:1"
         id="path5894" />
    </marker>
    <marker
       inkscape:isstock="true"
       style="overflow:visible;"
       id="marker5870"
       refX="0.0"
       refY="0.0"
       orient="auto"
       inkscape:stockid="Arrow2Send">
      <path
         transform="scale(0.3) rotate(180) translate(-2.3,0)"
         d="M 8.7185878,4.0337352 L -2.2072895,0.016013256 L 8.7185884,-4.0017078 C 6.9730900,-1.6296469 6.9831476,1.6157441 8.7185878,4.0337352 z "
         style="fill-rule:evenodd;stroke-width:0.625;stroke-linejoin:round;stroke:#ffffff;stroke-opacity:1;fill:#ffffff;fill-opacity:1"
         id="path5872" />
    </marker>
  </defs>
  <sodipodi:namedview
     pagecolor="#ffffff"
     bordercolor="#666666"
     borderopacity="1"
     objecttolerance="10"
     gridtolerance="10"
     guidetolerance="10"
     inkscape:pageopacity="0"
     inkscape:pageshadow="2"
     inkscape:window-width="1829"
     inkscape:window-height="966"
     id="namedview8"
     showgrid="false"
     inkscape:zoom="1.5449218"
     inkscape:cx="256"
     inkscape:cy="256"
     inkscape:window-x="-8"
     inkscape:window-y="-8"
     inkscape:window-maximized="1"
     inkscape:current-layer="svg2"
     showguides="false"
     inkscape:guide-bbox="true"
     inkscape:snap-center="true"
     inkscape:snap-global="true"
     inkscape:snap-bbox="true" />
  <path
     id="path8678"
     d="m 0,0 512,0 0,512 -512,0 z"
     inkscape:connector-curvature="0"
     style="fill:#000000;stroke:#ffffff;stroke-width:0" />
  <g
     style="font-style:normal;font-weight:normal;font-size:200px;line-height:125%;font-family:sans-serif;letter-spacing:0px;word-spacing:0px;fill:#000000;fill-opacity:1;stroke:none;stroke-width:1px;stroke-linecap:butt;stroke-linejoin:miter;stroke-opacity:1"
     id="text8680"
     transform="translate(2358.5299,-2327.6485)">
    <path
       d="m -2105.8501,2704.6504 q 0,21.4844 -18.2617,34.9609 -18.1641,13.3789 -49.4141,13.3789 -18.0664,0 -31.5429,-3.125 -13.379,-3.2226 -25.0977,-8.1054 l 0,-34.8633 4.1016,0 q 11.6211,9.2773 25.9765,14.2578 14.4531,4.9805 27.7344,4.9805 3.418,0 8.9844,-0.586 5.5664,-0.5859 9.082,-1.9531 4.2969,-1.7578 7.0313,-4.3945 2.832,-2.6367 2.832,-7.8125 0,-4.7852 -4.1016,-8.2032 -4.0039,-3.5156 -11.8164,-5.371 -8.2031,-1.9532 -17.3828,-3.6133 -9.082,-1.7578 -17.0898,-4.3946 -18.3594,-5.957 -26.4649,-16.1132 -8.0078,-10.2539 -8.0078,-25.3907 0,-20.3125 18.1641,-33.1054 18.2617,-12.8907 46.875,-12.8907 14.3554,0 28.3203,2.8321 14.0625,2.7343 24.3164,6.9336 l 0,33.4961 -4.0039,0 q -8.7891,-7.0313 -21.5821,-11.7188 -12.6953,-4.7851 -25.9765,-4.7851 -4.6875,0 -9.375,0.6835 -4.5899,0.586 -8.8867,2.3438 -3.8086,1.4648 -6.543,4.4922 -2.7344,2.9297 -2.7344,6.7383 0,5.7617 4.3946,8.8867 4.3945,3.0273 16.6015,5.5664 8.0078,1.6601 15.332,3.2226 7.4219,1.5625 15.918,4.2969 16.6992,5.4688 24.6094,14.9414 8.0078,9.375 8.0078,24.4141 z"
       style="font-style:normal;font-variant:normal;font-weight:bold;font-stretch:normal;font-size:200px;font-family:sans-serif;-inkscape-font-specification:'sans-serif Bold';fill:#ffffff"
       id="path4252"
       inkscape:connector-curvature="0" />
    <path
       d="m -1974.8931,2750.3535 -105.1757,0 0,-145.4101 105.1757,0 0,28.125 -67.8711,0 0,25.0976 62.9883,0 0,28.125 -62.9883,0 0,35.9375 67.8711,0 0,28.125 z"
       style="font-style:normal;font-variant:normal;font-weight:bold;font-stretch:normal;font-size:200px;font-family:sans-serif;-inkscape-font-specification:'sans-serif Bold';fill:#ffffff"
       id="path4254"
       inkscape:connector-curvature="0" />
  </g>
  <path
     id="path8731"
     d="m 179.8832,141.733 83.3981,32.2372 51.5777,19.5706 17.2578,6.8257 -6.4369,-17.6634 -19.0132,-50.1082 -31.8496,-85.7958 z M 311.5037,179.7534 195.5595,133.9503 230.63,98.8797 c 24.9106,24.8894 55.966,55.9858 80.8737,80.8737 z"
     inkscape:connector-curvature="0"
     style="fill:#ffffff"
     sodipodi:nodetypes="cccccccccccc" />
  <g
     style="font-style:normal;font-weight:normal;font-size:20px;line-height:125%;font-family:sans-serif;letter-spacing:0px;word-spacing:0px;fill:#000000;fill-opacity:1;stroke:none;stroke-width:1px;stroke-linecap:butt;stroke-linejoin:miter;stroke-opacity:1"
     id="text15804"
     transform="translate(2358.5299,-2327.6485)" />
  <circle
     style="fill:none;stroke:#ffffff;stroke-width:14.53779507;stroke-linecap:butt;stroke-miterlimit:4;stroke-dasharray:none;stroke-dashoffset:134"
     id="path5043"
     cx="2542.6057"
     cy="-3812.5032"
     r="0" />
</svg>
