<?xml version="1.0" encoding="UTF-8" standalone="no"?>
<svg
   xmlns:dc="http://purl.org/dc/elements/1.1/"
   xmlns:cc="http://creativecommons.org/ns#"
   xmlns:rdf="http://www.w3.org/1999/02/22-rdf-syntax-ns#"
   xmlns:svg="http://www.w3.org/2000/svg"
   xmlns="http://www.w3.org/2000/svg"
   xmlns:sodipodi="http://sodipodi.sourceforge.net/DTD/sodipodi-0.dtd"
   xmlns:inkscape="http://www.inkscape.org/namespaces/inkscape"
   viewBox="0 0 512 512"
   id="svg2"
   version="1.1"
   inkscape:version="0.91 r13725"
   sodipodi:docname="directions-funky-south-east.svg">
  <metadata
     id="metadata12">
    <rdf:RDF>
      <cc:Work
         rdf:about="">
        <dc:format>image/svg+xml</dc:format>
        <dc:type
           rdf:resource="http://purl.org/dc/dcmitype/StillImage" />
        <dc:title />
      </cc:Work>
    </rdf:RDF>
  </metadata>
  <defs
     id="defs10">
    <marker
       inkscape:isstock="true"
       style="overflow:visible;"
       id="marker6040"
       refX="0.0"
       refY="0.0"
       orient="auto"
       inkscape:stockid="Arrow2Send">
      <path
         transform="scale(0.3) rotate(180) translate(-2.3,0)"
         d="M 8.7185878,4.0337352 L -2.2072895,0.016013256 L 8.7185884,-4.0017078 C 6.9730900,-1.6296469 6.9831476,1.6157441 8.7185878,4.0337352 z "
         style="fill-rule:evenodd;stroke-width:0.625;stroke-linejoin:round;stroke:#ffffff;stroke-opacity:1;fill:#ffffff;fill-opacity:1"
         id="path6042" />
    </marker>
    <marker
       inkscape:isstock="true"
       style="overflow:visible;"
       id="marker5994"
       refX="0.0"
       refY="0.0"
       orient="auto"
       inkscape:stockid="Arrow2Send">
      <path
         transform="scale(0.3) rotate(180) translate(-2.3,0)"
         d="M 8.7185878,4.0337352 L -2.2072895,0.016013256 L 8.7185884,-4.0017078 C 6.9730900,-1.6296469 6.9831476,1.6157441 8.7185878,4.0337352 z "
         style="fill-rule:evenodd;stroke-width:0.625;stroke-linejoin:round;stroke:#ffffff;stroke-opacity:1;fill:#ffffff;fill-opacity:1"
         id="path5996" />
    </marker>
    <marker
       inkscape:isstock="true"
       style="overflow:visible;"
       id="marker5954"
       refX="0.0"
       refY="0.0"
       orient="auto"
       inkscape:stockid="Arrow2Send">
      <path
         transform="scale(0.3) rotate(180) translate(-2.3,0)"
         d="M 8.7185878,4.0337352 L -2.2072895,0.016013256 L 8.7185884,-4.0017078 C 6.9730900,-1.6296469 6.9831476,1.6157441 8.7185878,4.0337352 z "
         style="fill-rule:evenodd;stroke-width:0.625;stroke-linejoin:round;stroke:#ffffff;stroke-opacity:1;fill:#ffffff;fill-opacity:1"
         id="path5956" />
    </marker>
    <marker
       inkscape:isstock="true"
       style="overflow:visible;"
       id="marker5920"
       refX="0.0"
       refY="0.0"
       orient="auto"
       inkscape:stockid="Arrow2Send">
      <path
         transform="scale(0.3) rotate(180) translate(-2.3,0)"
         d="M 8.7185878,4.0337352 L -2.2072895,0.016013256 L 8.7185884,-4.0017078 C 6.9730900,-1.6296469 6.9831476,1.6157441 8.7185878,4.0337352 z "
         style="fill-rule:evenodd;stroke-width:0.625;stroke-linejoin:round;stroke:#ffffff;stroke-opacity:1;fill:#ffffff;fill-opacity:1"
         id="path5922" />
    </marker>
    <marker
       inkscape:isstock="true"
       style="overflow:visible;"
       id="marker5892"
       refX="0.0"
       refY="0.0"
       orient="auto"
       inkscape:stockid="Arrow2Send">
      <path
         transform="scale(0.3) rotate(180) translate(-2.3,0)"
         d="M 8.7185878,4.0337352 L -2.2072895,0.016013256 L 8.7185884,-4.0017078 C 6.9730900,-1.6296469 6.9831476,1.6157441 8.7185878,4.0337352 z "
         style="fill-rule:evenodd;stroke-width:0.625;stroke-linejoin:round;stroke:#ffffff;stroke-opacity:1;fill:#ffffff;fill-opacity:1"
         id="path5894" />
    </marker>
    <marker
       inkscape:isstock="true"
       style="overflow:visible;"
       id="marker5870"
       refX="0.0"
       refY="0.0"
       orient="auto"
       inkscape:stockid="Arrow2Send">
      <path
         transform="scale(0.3) rotate(180) translate(-2.3,0)"
         d="M 8.7185878,4.0337352 L -2.2072895,0.016013256 L 8.7185884,-4.0017078 C 6.9730900,-1.6296469 6.9831476,1.6157441 8.7185878,4.0337352 z "
         style="fill-rule:evenodd;stroke-width:0.625;stroke-linejoin:round;stroke:#ffffff;stroke-opacity:1;fill:#ffffff;fill-opacity:1"
         id="path5872" />
    </marker>
  </defs>
  <sodipodi:namedview
     pagecolor="#ffffff"
     bordercolor="#666666"
     borderopacity="1"
     objecttolerance="10"
     gridtolerance="10"
     guidetolerance="10"
     inkscape:pageopacity="0"
     inkscape:pageshadow="2"
     inkscape:window-width="1829"
     inkscape:window-height="966"
     id="namedview8"
     showgrid="false"
     inkscape:zoom="1.5449218"
     inkscape:cx="256"
     inkscape:cy="256"
     inkscape:window-x="-8"
     inkscape:window-y="-8"
     inkscape:window-maximized="1"
     inkscape:current-layer="svg2"
     showguides="false"
     inkscape:guide-bbox="true"
     inkscape:snap-center="true"
     inkscape:snap-global="true"
     inkscape:snap-bbox="true" />
  <path
     style="fill:#000000;stroke:#ffffff;stroke-width:0"
     inkscape:connector-curvature="0"
     d="m 0,0 512,0 0,512 -512,0 z"
     id="path15448" />
  <path
     sodipodi:nodetypes="sssssssssssss"
     inkscape:connector-curvature="0"
     id="path15502"
     style="font-style:normal;font-variant:normal;font-weight:bold;font-stretch:normal;font-size:122.5px;line-height:125%;font-family:sans-serif;-inkscape-font-specification:'sans-serif Bold';letter-spacing:0px;word-spacing:0px;fill:#ffffff;fill-opacity:1;stroke:none;stroke-width:1px;stroke-linecap:butt;stroke-linejoin:miter;stroke-opacity:1"
     d="m 334.1774,300.5317 c -15.184,15.184 -49.2362,15.184 -64.4202,0 -20.9925,-20.9925 -20.9925,-68.0712 0,-89.0637 15.184,-15.184 49.2362,-15.184 64.4202,0 4.0603,4.0603 4.0603,13.1662 0,17.2265 -9.7984,9.7984 -31.7727,-9.7984 -41.5711,0 -3.6233,3.6233 -3.6233,11.749 0,15.3723 9.0935,9.0935 29.4869,-9.0935 38.5804,0 4.0603,4.0603 4.0603,13.1663 0,17.2266 -9.0935,9.0935 -29.4869,-9.0935 -38.5804,0 -5.1882,5.1882 -5.1882,16.8235 0,22.0117 9.7984,9.7984 31.7727,-9.7984 41.5711,0 4.0603,4.0603 4.0603,13.1663 0,17.2266 z" />
  <path
     style="font-style:normal;font-variant:normal;font-weight:bold;font-stretch:normal;font-size:183.75px;line-height:125%;font-family:sans-serif;-inkscape-font-specification:'sans-serif Bold';letter-spacing:0px;word-spacing:0px;fill:#ffffff;fill-opacity:1;stroke:none;stroke-width:1px;stroke-linecap:butt;stroke-linejoin:miter;stroke-opacity:1"
     d="m 251.2579,272.2264 c -2.7023,13.2388 -16.7418,22.8827 -29.1986,28.1169 -14.1155,5.9313 -33.9277,10.8614 -45.9136,1.3343 -4.8043,-3.8187 -5.4566,-12.1901 -3.6316,-18.0497 0.9896,-3.1774 4.1966,-5.4613 7.1788,-6.9385 4.0715,-2.0169 8.9351,-2.2433 13.4749,-2.0566 10.8683,0.4469 24.2592,15.4468 31.7456,7.5555 3.1107,-3.279 -0.6877,-9.758 -3.8292,-13.0074 -8.9353,-9.2419 -28.108,-2.4882 -36.6068,-12.133 -6.6886,-7.5905 -9.9967,-20.555 -5.848,-29.7823 4.5987,-10.2285 18.2081,-14.0008 28.9969,-17.0621 12.8103,-3.6349 29.6232,-9.2631 39.9394,-0.8432 4.3951,3.5872 4.643,11.2954 3.0575,16.7424 -1.1039,3.7925 -4.3273,7.3799 -8.0524,8.6932 -12.7193,4.4844 -31.049,-15.9358 -40.0311,-5.8754 -3.0455,3.4112 0.059,10.2629 3.5118,13.2617 8.6612,7.5234 25.0006,-2.8183 34.1761,4.0685 7.5235,5.6468 12.9116,16.7589 11.0303,25.9757 z"
     id="path15578"
     inkscape:connector-curvature="0"
     sodipodi:nodetypes="aaaaaaaaaaaaaaaaaa" />
  <path
     id="path15594"
     d="m 452.4563,323.8173 a 31.716816,31.069534 45 0 0 -0.4572,-44.3971 31.716816,31.069534 45 0 0 -5.6582,-4.4678 c -0.2402,-5.7511 -0.5082,-11.7173 -0.5081,-17.7247 -2e-4,-26.0116 -5.2773,-50.8455 -14.8244,-73.4174 -9.5472,-22.5722 -23.3557,-42.8868 -40.4156,-59.9466 -17.0599,-17.06 -37.3759,-30.8698 -59.948,-40.4171 -22.572,-9.5472 -47.4062,-14.8243 -73.4176,-14.8244 -26.0115,10e-5 -50.8455,5.2772 -73.4175,14.8244 -22.5722,9.5472 -42.8881,23.357 -59.9481,40.417 -17.0599,17.0599 -30.8684,37.3746 -40.4156,59.9467 -9.5471,22.572 -14.8257,47.4073 -14.8257,73.4189 0,26.0116 5.2785,50.8441 14.8257,73.4162 9.5472,22.572 23.3571,42.8881 40.4171,59.948 17.06,17.0599 37.3744,30.8684 59.9466,40.4156 22.5719,9.5471 47.4045,14.8257 73.4161,14.8257 6.6127,0 14.133,-0.057 21.7905,-0.3674 a 31.716816,31.069534 45 0 0 3.1765,3.7592 31.716816,31.069534 45 0 0 44.3971,0.4572 31.716816,31.069534 45 0 0 8.198,-28.5771 c 0.048,-0.8316 -0.1242,-1.5056 -0.5247,-2.0992 a 31.716816,31.069534 45 0 0 -8.1304,-13.7209 31.716816,31.069534 45 0 0 -44.3972,-0.4571 31.716816,31.069534 45 0 0 -8.8057,18.6831 c -5.3691,1.3903 -10.6797,2.3229 -15.7028,2.3229 -23.3094,1e-4 -45.4627,-4.717 -65.6269,-13.2458 -20.1644,-8.5288 -38.3347,-20.8782 -53.5964,-36.1398 -15.2609,-15.2612 -27.6099,-33.4312 -36.1385,-53.595 -8.5289,-20.1644 -13.2458,-42.3176 -13.2457,-65.627 -1e-4,-23.3094 4.7183,-45.4611 13.2472,-65.6256 8.5287,-20.1644 20.8754,-38.335 36.1369,-53.5965 15.2616,-15.2616 33.4333,-27.6097 53.598,-36.1384 20.1642,-8.5289 42.3147,-13.2458 65.6242,-13.2458 23.3092,0 45.4627,4.717 65.6268,13.2458 20.1646,8.5289 38.3365,20.8768 53.598,36.1385 15.2614,15.2615 27.6082,33.4319 36.1369,53.5964 8.5288,20.1642 13.2457,42.3175 13.2458,65.6269 0,4.2684 -0.1931,8.6904 -0.5123,13.069 a 31.716816,31.069534 45 0 0 -17.7191,8.6649 31.716816,31.069534 45 0 0 0.4585,44.3958 31.716816,31.069534 45 0 0 44.3958,0.4585 z"
     style="color:#000000;font-style:normal;font-variant:normal;font-weight:normal;font-stretch:normal;font-size:medium;line-height:normal;font-family:sans-serif;text-indent:0;text-align:start;text-decoration:none;text-decoration-line:none;text-decoration-style:solid;text-decoration-color:#000000;letter-spacing:normal;word-spacing:normal;text-transform:none;direction:ltr;block-progression:tb;writing-mode:lr-tb;baseline-shift:baseline;text-anchor:start;white-space:normal;clip-rule:nonzero;display:inline;overflow:visible;visibility:visible;opacity:1;isolation:auto;mix-blend-mode:normal;color-interpolation:sRGB;color-interpolation-filters:linearRGB;solid-color:#000000;solid-opacity:1;fill:#ffffff;fill-opacity:1;fill-rule:nonzero;stroke:none;stroke-width:20;stroke-linecap:butt;stroke-linejoin:miter;stroke-miterlimit:4;stroke-dasharray:none;stroke-dashoffset:174;stroke-opacity:1;color-rendering:auto;image-rendering:auto;shape-rendering:auto;text-rendering:auto;enable-background:accumulate"
     inkscape:connector-curvature="0" />
  <g
     style="font-style:normal;font-weight:normal;font-size:20px;line-height:125%;font-family:sans-serif;letter-spacing:0px;word-spacing:0px;fill:#000000;fill-opacity:1;stroke:none;stroke-width:1px;stroke-linecap:butt;stroke-linejoin:miter;stroke-opacity:1"
     id="text15804"
     transform="translate(5811.9242,-2327.6485)" />
  <circle
     style="fill:none;stroke:#ffffff;stroke-width:14.53779507;stroke-linecap:butt;stroke-miterlimit:4;stroke-dasharray:none;stroke-dashoffset:134"
     id="path5043"
     cx="5996"
     cy="-3812.5032"
     r="0" />
</svg>
