<?xml version="1.0" encoding="UTF-8" standalone="no"?>
<svg
   xmlns:dc="http://purl.org/dc/elements/1.1/"
   xmlns:cc="http://creativecommons.org/ns#"
   xmlns:rdf="http://www.w3.org/1999/02/22-rdf-syntax-ns#"
   xmlns:svg="http://www.w3.org/2000/svg"
   xmlns="http://www.w3.org/2000/svg"
   xmlns:sodipodi="http://sodipodi.sourceforge.net/DTD/sodipodi-0.dtd"
   xmlns:inkscape="http://www.inkscape.org/namespaces/inkscape"
   viewBox="0 0 512 512"
   id="svg2"
   version="1.1"
   inkscape:version="0.91 r13725"
   sodipodi:docname="directions-dotted-east.svg">
  <metadata
     id="metadata12">
    <rdf:RDF>
      <cc:Work
         rdf:about="">
        <dc:format>image/svg+xml</dc:format>
        <dc:type
           rdf:resource="http://purl.org/dc/dcmitype/StillImage" />
        <dc:title />
      </cc:Work>
    </rdf:RDF>
  </metadata>
  <defs
     id="defs10">
    <marker
       inkscape:isstock="true"
       style="overflow:visible;"
       id="marker6040"
       refX="0.0"
       refY="0.0"
       orient="auto"
       inkscape:stockid="Arrow2Send">
      <path
         transform="scale(0.3) rotate(180) translate(-2.3,0)"
         d="M 8.7185878,4.0337352 L -2.2072895,0.016013256 L 8.7185884,-4.0017078 C 6.9730900,-1.6296469 6.9831476,1.6157441 8.7185878,4.0337352 z "
         style="fill-rule:evenodd;stroke-width:0.625;stroke-linejoin:round;stroke:#ffffff;stroke-opacity:1;fill:#ffffff;fill-opacity:1"
         id="path6042" />
    </marker>
    <marker
       inkscape:isstock="true"
       style="overflow:visible;"
       id="marker5994"
       refX="0.0"
       refY="0.0"
       orient="auto"
       inkscape:stockid="Arrow2Send">
      <path
         transform="scale(0.3) rotate(180) translate(-2.3,0)"
         d="M 8.7185878,4.0337352 L -2.2072895,0.016013256 L 8.7185884,-4.0017078 C 6.9730900,-1.6296469 6.9831476,1.6157441 8.7185878,4.0337352 z "
         style="fill-rule:evenodd;stroke-width:0.625;stroke-linejoin:round;stroke:#ffffff;stroke-opacity:1;fill:#ffffff;fill-opacity:1"
         id="path5996" />
    </marker>
    <marker
       inkscape:isstock="true"
       style="overflow:visible;"
       id="marker5954"
       refX="0.0"
       refY="0.0"
       orient="auto"
       inkscape:stockid="Arrow2Send">
      <path
         transform="scale(0.3) rotate(180) translate(-2.3,0)"
         d="M 8.7185878,4.0337352 L -2.2072895,0.016013256 L 8.7185884,-4.0017078 C 6.9730900,-1.6296469 6.9831476,1.6157441 8.7185878,4.0337352 z "
         style="fill-rule:evenodd;stroke-width:0.625;stroke-linejoin:round;stroke:#ffffff;stroke-opacity:1;fill:#ffffff;fill-opacity:1"
         id="path5956" />
    </marker>
    <marker
       inkscape:isstock="true"
       style="overflow:visible;"
       id="marker5920"
       refX="0.0"
       refY="0.0"
       orient="auto"
       inkscape:stockid="Arrow2Send">
      <path
         transform="scale(0.3) rotate(180) translate(-2.3,0)"
         d="M 8.7185878,4.0337352 L -2.2072895,0.016013256 L 8.7185884,-4.0017078 C 6.9730900,-1.6296469 6.9831476,1.6157441 8.7185878,4.0337352 z "
         style="fill-rule:evenodd;stroke-width:0.625;stroke-linejoin:round;stroke:#ffffff;stroke-opacity:1;fill:#ffffff;fill-opacity:1"
         id="path5922" />
    </marker>
    <marker
       inkscape:isstock="true"
       style="overflow:visible;"
       id="marker5892"
       refX="0.0"
       refY="0.0"
       orient="auto"
       inkscape:stockid="Arrow2Send">
      <path
         transform="scale(0.3) rotate(180) translate(-2.3,0)"
         d="M 8.7185878,4.0337352 L -2.2072895,0.016013256 L 8.7185884,-4.0017078 C 6.9730900,-1.6296469 6.9831476,1.6157441 8.7185878,4.0337352 z "
         style="fill-rule:evenodd;stroke-width:0.625;stroke-linejoin:round;stroke:#ffffff;stroke-opacity:1;fill:#ffffff;fill-opacity:1"
         id="path5894" />
    </marker>
    <marker
       inkscape:isstock="true"
       style="overflow:visible;"
       id="marker5870"
       refX="0.0"
       refY="0.0"
       orient="auto"
       inkscape:stockid="Arrow2Send">
      <path
         transform="scale(0.3) rotate(180) translate(-2.3,0)"
         d="M 8.7185878,4.0337352 L -2.2072895,0.016013256 L 8.7185884,-4.0017078 C 6.9730900,-1.6296469 6.9831476,1.6157441 8.7185878,4.0337352 z "
         style="fill-rule:evenodd;stroke-width:0.625;stroke-linejoin:round;stroke:#ffffff;stroke-opacity:1;fill:#ffffff;fill-opacity:1"
         id="path5872" />
    </marker>
  </defs>
  <sodipodi:namedview
     pagecolor="#ffffff"
     bordercolor="#666666"
     borderopacity="1"
     objecttolerance="10"
     gridtolerance="10"
     guidetolerance="10"
     inkscape:pageopacity="0"
     inkscape:pageshadow="2"
     inkscape:window-width="1829"
     inkscape:window-height="966"
     id="namedview8"
     showgrid="false"
     inkscape:zoom="1.5449218"
     inkscape:cx="256"
     inkscape:cy="256"
     inkscape:window-x="-8"
     inkscape:window-y="-8"
     inkscape:window-maximized="1"
     inkscape:current-layer="svg2"
     showguides="false"
     inkscape:guide-bbox="true"
     inkscape:snap-center="true"
     inkscape:snap-global="true"
     inkscape:snap-bbox="true" />
  <path
     style="fill:#000000;stroke:#ffffff;stroke-width:0"
     inkscape:connector-curvature="0"
     d="m 0,0 512,0 0,512 -512,0 z"
     id="path4332" />
  <g
     style="font-style:normal;font-weight:normal;font-size:183.75px;line-height:125%;font-family:sans-serif;letter-spacing:0px;word-spacing:0px;fill:#000000;fill-opacity:1;stroke:none;stroke-width:1px;stroke-linecap:butt;stroke-linejoin:miter;stroke-opacity:1"
     id="text4334"
     transform="translate(2931.9242,10.27728)">
    <path
       d="m -2627.609,312.52051 -96.6303,0 0,-133.59558 96.6303,0 0,25.83984 -62.3566,0 0,23.05847 57.8705,0 0,25.83985 -57.8705,0 0,33.01757 62.3566,0 0,25.83985 z"
       style="font-style:normal;font-variant:normal;font-weight:bold;font-stretch:normal;font-size:183.75px;font-family:sans-serif;-inkscape-font-specification:'sans-serif Bold';fill:#ffffff"
       id="path4260"
       inkscape:connector-curvature="0" />
  </g>
  <path
     style="color:#000000;font-style:normal;font-variant:normal;font-weight:normal;font-stretch:normal;font-size:medium;line-height:normal;font-family:sans-serif;text-indent:0;text-align:start;text-decoration:none;text-decoration-line:none;text-decoration-style:solid;text-decoration-color:#000000;letter-spacing:normal;word-spacing:normal;text-transform:none;direction:ltr;block-progression:tb;writing-mode:lr-tb;baseline-shift:baseline;text-anchor:start;white-space:normal;clip-rule:nonzero;display:inline;overflow:visible;visibility:visible;opacity:1;isolation:auto;mix-blend-mode:normal;color-interpolation:sRGB;color-interpolation-filters:linearRGB;solid-color:#000000;solid-opacity:1;fill:#ffffff;fill-opacity:1;fill-rule:nonzero;stroke:none;stroke-width:20;stroke-linecap:butt;stroke-linejoin:miter;stroke-miterlimit:4;stroke-dasharray:20, 40;stroke-dashoffset:0;stroke-opacity:1;color-rendering:auto;image-rendering:auto;shape-rendering:auto;text-rendering:auto;enable-background:accumulate"
     d="m 267.08789,87.765625 1.06641,0.06445 4.04492,0.337891 4.0332,0.4375 4.02344,0.53125 3.92773,0.615234 1.56055,0.283203 3.56641,-19.679687 -1.64453,-0.298828 -0.11719,-0.02148 -0.11914,-0.01758 -4.24414,-0.664062 -0.11719,-0.01953 -0.11914,-0.01563 -4.25586,-0.5625 -0.11719,-0.01563 -0.11914,-0.01172 -4.26562,-0.460938 -0.11914,-0.01172 -0.11915,-0.0098 -4.27148,-0.357422 -0.11914,-0.0098 -0.11914,-0.0078 -1.16211,-0.07031 z m -42.51758,-17.748047 -0.11914,0.01758 -0.11719,0.02148 -4.23046,0.765625 -0.11719,0.02148 -0.11719,0.02539 -4.21484,0.867187 -0.11719,0.02539 -0.11719,0.02734 -4.19531,0.970704 -0.11719,0.02734 -0.11719,0.0293 -4.17578,1.072266 -0.11718,0.03125 -0.11719,0.0332 -1.02539,0.289063 5.44336,19.246093 0.92187,-0.261719 3.95117,-1.015624 3.88282,-0.896485 4.06836,-0.839844 4,-0.724609 1.53515,-0.238281 -3.0918,-19.759766 z m 97.34961,30.757812 1.32227,0.55469 3.76172,1.6914 3.69531,1.76758 3.71484,1.89453 3.6543,1.98047 0.67969,0.38867 9.95703,-17.345699 -0.79883,-0.457031 -0.10742,-0.0625 -0.10938,-0.05859 -3.86718,-2.09375 -0.10938,-0.06055 -0.11133,-0.05664 -3.9082,-1.992188 -0.10938,-0.05469 -0.11132,-0.05469 -3.94532,-1.888672 -0.11132,-0.05469 -0.11329,-0.05078 -3.98046,-1.78711 -0.11329,-0.05078 -0.11328,-0.04687 -1.43359,-0.601562 z m -157.60937,-9.646484 -0.10938,0.05859 -0.10742,0.0625 -3.82813,2.197266 -0.10742,0.06055 -0.10742,0.06641 -3.78125,2.298828 -0.10742,0.06445 -0.10547,0.06641 -3.73633,2.402344 -0.10547,0.06641 -0.10546,0.07031 -3.51758,2.388671 11.22851,16.55078 3.39649,-2.30664 3.55273,-2.28125 3.56055,-2.16406 3.60742,-2.07031 2.06445,-1.11914 -9.52343,-17.585942 z m 204.95898,39.980474 2.81836,2.61328 3.13477,3.05468 3.05468,3.13477 2.92188,3.15039 1.38281,1.57031 15.00781,-13.21875 -1.45703,-1.65429 -0.084,-0.0957 -0.0859,-0.0918 -3.11523,-3.36329 -0.0859,-0.0918 -0.0898,-0.0918 -3.21876,-3.30078 -0.0879,-0.0898 -0.0898,-0.0879 -3.30078,-3.21876 -0.0918,-0.0898 -0.0918,-0.0859 -2.92774,-2.71093 z m -253.23242,-1.53711 -0.0859,0.0918 -0.084,0.0957 -3.01367,3.42187 -0.084,0.0957 -0.082,0.0957 -2.91016,3.48047 -0.082,0.0957 -0.0781,0.0996 -2.81055,3.53515 -0.0781,0.0977 -0.0762,0.10156 -2.70703,3.58789 -0.0762,0.10157 -0.0723,0.10156 -0.41407,0.57812 16.26367,11.64063 0.35938,-0.50195 2.57422,-3.41016 2.59961,-3.27148 2.75976,-3.29883 2.85547,-3.24219 0.71485,-0.76758 -14.66993,-13.5957 z m 288.14258,45.91406 1.13476,2.09765 1.89649,3.71875 1.7207,3.58789 0.0195,0.041 1.71875,3.82617 1.63867,3.9043 18.43946,-7.74414 -1.68555,-4.01367 -0.0469,-0.11328 -0.0508,-0.11329 -1.78711,-3.98046 -0.0508,-0.11329 -0.0527,-0.11132 -1.89063,-3.94532 -0.0547,-0.11132 -0.0547,-0.10938 -1.99219,-3.9082 -0.0566,-0.11133 -0.0606,-0.10938 -1.19922,-2.21484 z m -322.927737,9.43164 -0.04883,0.11328 -0.04492,0.11523 -1.582031,4.04688 -0.04492,0.11328 -0.04297,0.11524 -1.480469,4.07617 -0.04102,0.11523 -0.03906,0.11524 -1.378906,4.10351 -0.03906,0.11524 -0.03711,0.11718 -1.0625,3.43946 19.107422,5.9082 1.025391,-3.32031 1.296875,-3.85742 1.427734,-3.92774 1.458984,-3.72852 1.275388,-3.03906 -18.43945,-7.74218 z m -13.636719,61.91797 -0.0078,0.11914 -0.0039,0.11914 -0.152344,4.2832 -0.0039,0.11914 -0.002,0.11914 -0.05078,4.28516 -0.002,0.11914 0.002,0.11914 0.05078,4.28516 0.002,0.11914 0.0039,0.11914 0.123047,3.43164 19.986328,-0.71484 -0.119141,-3.30469 -0.04687,-4.05469 0.04687,-4.05273 0.146485,-4.05274 0.21289,-3.56836 -19.964843,-1.19336 z m 6.466797,59.04492 1.044922,3.69336 0.0332,0.11523 0.03516,0.11719 1.277344,4.12891 0.03711,0.11718 0.03906,0.11524 1.378906,4.10351 0.03906,0.11524 0.04102,0.11523 1.480469,4.07617 0.04297,0.11524 0.04492,0.11328 1.154297,2.95313 18.625,-7.28711 -1.087891,-2.78125 -1.427734,-3.92579 -1.296875,-3.85937 -1.1875,-3.83594 -1.027344,-3.63281 z m 334.869139,21.1875 -0.0195,0.041 -1.7207,3.58789 -1.89453,3.71679 -1.97852,3.65039 -1.26758,2.21094 17.34571,9.95703 1.33398,-2.32617 0.0625,-0.10742 0.0586,-0.10938 2.09375,-3.86718 0.0606,-0.10938 0.0566,-0.11133 1.99219,-3.9082 0.0547,-0.10938 0.0547,-0.11132 1.89063,-3.94532 0.0527,-0.11132 0.0508,-0.11329 1.70313,-3.79296 -18.24414,-8.19336 z m -308.34961,35.85352 0.44532,0.6582 0.0703,0.10351 0.0742,0.10157 2.60547,3.64062 0.0723,0.10156 0.0762,0.10157 2.70703,3.58789 0.0762,0.10156 0.0781,0.0977 2.81055,3.53515 0.0781,0.0996 0.082,0.0957 2.91016,3.48047 0.082,0.0957 0.084,0.0957 0.77929,0.88672 15.00977,-13.2207 -0.70703,-0.80079 -2.75586,-3.29297 -2.63867,-3.31835 -2.57032,-3.40821 -2.46875,-3.45508 -0.34961,-0.51562 z m 277.67578,9.16601 -3.05468,3.13477 -3.13477,3.05468 -3.15039,2.92188 -2.89258,2.54687 13.21875,15.00782 2.97656,-2.6211 0.0957,-0.084 0.0918,-0.0859 3.36329,-3.11523 0.0918,-0.0859 0.0918,-0.0898 3.30078,-3.21876 0.0898,-0.0879 0.0879,-0.0898 3.21876,-3.30078 0.0898,-0.0918 0.0859,-0.0918 1.51367,-1.63477 -14.66797,-13.5957 z m -233.60351,36.1875 3.54101,2.5332 0.10157,0.0742 0.10351,0.0703 3.68946,2.50391 0.10546,0.0703 0.10547,0.0664 3.73633,2.40234 0.10547,0.0664 0.10742,0.0645 3.78125,2.29883 0.10742,0.0664 0.10742,0.0605 2.01172,1.1543 9.95704,-17.34375 -1.90626,-1.09375 -3.46093,-2.10156 -0.043,-0.0274 -3.60938,-2.31835 -3.46679,-2.35352 -3.4336,-2.45703 z m 189.73828,-2.95898 -3.71289,1.89453 -3.69531,1.76758 -3.76172,1.6914 -3.81641,1.60156 -1.5,0.58594 7.28906,18.625 1.63868,-0.64062 0.11523,-0.0449 0.11328,-0.0488 4.01367,-1.68555 0.11328,-0.0469 0.11329,-0.0508 3.98046,-1.78711 0.11329,-0.0508 0.11132,-0.0547 3.94532,-1.88868 0.11132,-0.0547 0.10938,-0.0547 3.9082,-1.99219 0.11133,-0.0566 0.10938,-0.0606 0.66601,-0.35937 -9.52344,-17.58789 z m -133.46875,31.10156 1.25,0.38672 0.11719,0.0351 0.11523,0.0332 4.1543,1.17383 0.11719,0.0332 0.11718,0.0312 4.17578,1.07226 0.11719,0.0293 0.11719,0.0273 4.19531,0.97071 0.11719,0.0273 0.11719,0.0254 4.21484,0.86719 0.11719,0.0254 0.11719,0.0215 1.43164,0.25782 3.56445,-19.67969 -1.2832,-0.23047 -4.04688,-0.83594 -3.89844,-0.90039 -3.95507,-1.01758 -3.98633,-1.12695 -1.07813,-0.33398 z m 79.30469,-13.55274 -4.01563,0.5293 -4.0332,0.4375 -4.04102,0.33789 -4.05664,0.24219 -1.32812,0.0488 0.71484,19.98633 1.4375,-0.0508 0.11914,-0.004 0.11914,-0.008 4.2793,-0.25586 0.11914,-0.008 0.11914,-0.01 4.27148,-0.35742 0.11915,-0.01 0.11914,-0.0117 4.26562,-0.46094 0.11914,-0.0117 0.11719,-0.0156 4.25586,-0.5625 0.11914,-0.0156 0.11719,-0.0195 1.38867,-0.21679 -3.0918,-19.75977 z"
     id="path5382"
     inkscape:connector-curvature="0" />
  <path
     style="fill:#ffffff;stroke:none;stroke-width:20;stroke-miterlimit:4;stroke-dasharray:none"
     inkscape:transform-center-x="-105.23139"
     inkscape:transform-center-y="-107.44635"
     d="m 385.313,312.00582 49.8588,-28.78603 49.8589,-28.78604 -49.8589,-28.78603 -49.8588,-28.78589 c 0,0 21.6745,38.38126 21.6746,57.57192 0,19.19074 -21.6746,57.57207 -21.6746,57.57207 z"
     id="path5384"
     inkscape:connector-curvature="0"
     sodipodi:nodetypes="ccccczc" />
  <g
     style="font-style:normal;font-weight:normal;font-size:20px;line-height:125%;font-family:sans-serif;letter-spacing:0px;word-spacing:0px;fill:#000000;fill-opacity:1;stroke:none;stroke-width:1px;stroke-linecap:butt;stroke-linejoin:miter;stroke-opacity:1"
     id="text15804"
     transform="translate(2931.9242,10.27728)" />
  <circle
     style="fill:none;stroke:#ffffff;stroke-width:14.53779507;stroke-linecap:butt;stroke-miterlimit:4;stroke-dasharray:none;stroke-dashoffset:134"
     id="path5043"
     cx="3116"
     cy="-1474.5774"
     r="0" />
</svg>
