<svg xmlns="http://www.w3.org/2000/svg" width="512" height="512" viewBox="0 0 135.467 135.467"><path d="M0 0h135.467v135.467H0z" style="stroke-width:.264583"/><path style="fill:#fff;fill-opacity:1;stroke:none;stroke-width:.31263;stroke-linecap:square;stroke-miterlimit:4;stroke-dasharray:none;stroke-opacity:1" d="M69.228 40.38c-12.631 0-23.464 9.486-26.593 15.96-2.71 5.603-10.096 10.86-16.075 11.647-12.762 1.681-24.25 3.89-24.25 6.885 0 3.912 16.188 7.278 39.425 8.78a30.37 30.37 0 0 0 55.004-.033c22.96-1.52 37.241-4.35 37.105-8.23-.16-4.598-16.868-6.262-20.984-7.016-8.163-1.494-10.954-4.056-17.56-13.633-6.534-9.47-14.07-14.301-26.072-14.36zm.54 6.71c14.351 0 24.154 14.092 23.379 25.85-5.129 2.465-13.279 4.607-23.602 4.607-10.742 0-19.434-2.325-24.762-4.92.602-15.554 10.633-25.538 24.985-25.538zm28.644 16.817c4.974 6.836 16.984 7.273 17.398 9.5.513 2.758-5.155 3.699-25.332 5.663 15.635-2.558 22.563-3.56 22.046-5.378-.585-2.057-12.839-3.817-14.112-9.785zm-60.464 1.341c-1.266 5.968-13.456 7.728-14.038 9.785-.514 1.818 5.09 2.934 21.801 4.533-18.406-.483-25.579-2.061-25.069-4.819.412-2.227 12.359-2.663 17.306-9.499zm67.236 3.445c.043 0 .162.017.314.04 3.304.43 55.14 7.358-5.042 11.893 32.703-5.618 16.345-8.33 4.728-11.933zm-72.9.144c-7.948 1.926-39.998 6.79 4.24 11.934-29.548-.025-44.227-7.949-4.24-11.934zm68.946 10.626c-22.806 5.56-62.108 1.52-63.005 1.427 2.082.139 46.366.917 63.005-1.427zM48.344 84.02c6.498.305 13.432.47 20.635.47 7.2 0 14.13-.165 20.625-.47a24.227 24.227 0 0 1-41.26 0z"/></svg>