<svg xmlns="http://www.w3.org/2000/svg" viewBox="0 0 512 512"><path d="M0 0h512v512H0z"/><path fill="#fff" d="m409.296 439.472-1.109 31.597c-18.425.373-33.223-6.696-39.349-31.525zm-306.592 0 1.109 31.597c18.425.373 33.223-6.696 39.349-31.525zm325.607-21.249H83.69l-3.902-25.05h352.426zM256 303.98c76.92 0 99.528 22.227 99.528 22.227l-4.786 45.443H161.258l-4.786-45.443S179.08 303.98 256 303.98zm118.19 67.67s11.777-82.262 15.23-109.121c7.474-58.138 96.66-36.047 89.912 11.16-4.33 30.29-39.08 25.984-39.08 25.984l-9.454 71.977zm-236.38 0s-11.777-82.262-15.23-109.121c-7.474-58.138-96.66-36.047-89.912 11.16 4.33 30.29 39.08 25.984 39.08 25.984l9.454 71.977zM256 40.917c88.106 0 185.768 20.55 174.504 169.052-30.952-4.267-59.122 3.8-62.996 31.9-1.49 10.811-7.78 57.679-7.78 57.679S322.777 282.119 256 282.119s-103.729 17.429-103.729 17.429-6.29-46.868-7.78-57.679c-3.873-28.1-32.043-36.167-62.995-31.9C70.232 61.467 167.894 40.917 256 40.917z"/></svg>