<svg xmlns="http://www.w3.org/2000/svg" viewBox="0 0 512 512"><path d="M0 0h512v512H0z"/><path fill="#fff" d="M191.5 375.3C139.5 482.4 309 488.7 309 488.7s10.4-32.3-6.2-70.8c-65.6 7.3-111.3-42.6-111.3-42.6zm-72.8-28.1s-22.81 49.9-89.44 61.4c0 0 22.46 69.7 80.54 53 13.7-59.3 47.7-56.1 47.7-56.1v-41.6zm61.9-11.9c-113.87-113.9-47.4-215.4-47.4-215.4 31.9 60.8 65 124.7 63 199.8 75.1-2 138.9 31.1 199.8 63 0 0-101.5 66.4-215.4-47.4zm152.7-8.7 116.2-16.5s-14.7 20.9-61.6 44.1zM96.19 218.2S75.27 189 22.36 191.9c16.57 16 48.1 128.5 123.24 135.7 0 0-55.47-53.2-49.41-109.4zm128.51 73c.3-43-28.3-93.1-28.3-93.1s50.6-43.3 131.9-10.5c32.7 81.2-10.5 131.9-10.5 131.9s-50.2-28.6-93.1-28.3zm199.6-3.7s20-22 2.6-73.5l-67.8 3s13.2 41.8-10 88zm23.8-.6s31.3-21.9 35.6-50l-24 11.3zm19.6-66s2.5-35.9-12.8-65.9l-47.4-3.9 7.2 39.8 24.3 1.2 14.5 34.9zm-123.1-49.6-23-10.9-.8-38.9s33.1-2.2 61.2 12.3c14.6 28.1 12.3 61.3 12.3 61.3l-38.9-.9zm98-36.2-3.9-34.5 34.1 4.2s25.8 46.1 7.4 82.3l-13.1-47.2zm-253.4 47.5 16.5-116.28s-20.9 14.76-44 61.68zm39.1-91.01s22.1-20.07 73.5-2.6l-3 67.71s-41.8-13.1-88 10.1zm154.8-19.45 33.6 6.45 9 49.81-44.1-23.6zM295 48.12s35.9-2.5 65.8 12.79l4 47.39-39.9-7.1-1.1-24.38-35-14.46zm142 8.63 11.3 34.32 14.1.62s3.1-18.72-25.4-34.94zM228.9 67.77s22-31.3 50.1-35.67l-11.4 24.02zm100.6-31.41s14.6 1.25 34 5.62c19.6 4.37 44.1 11.86 64 24.34 0 0-12.2-54.6-98-29.96z"/></svg>