<svg xmlns="http://www.w3.org/2000/svg" viewBox="0 0 512 512"><path d="M0 0h512v512H0z"/><path fill="#fff" d="m395.2 283-14.7-14.6 12.3-12.2 14.6 14.6 81.3-81.3c-11.1-11.1-11.2-29.1 0-40.2L382.6 43.21 281.2 144.6l4.6 4.5-12.3 12.3-4.5-4.5-155.8 155.7-12.2-12.2L370.4 31.03l-9-9.03c-11.2 11.16-29.2 11.08-40.2 0L20.66 322.5c11.08 11.1 11.1 29.1 0 40.2L148 490c11.1-11.1 29.1-11.1 40.2 0zm-57.1-30.1 27 26.9-17.6 17.6-26.9-27zm-29.8 29.8 26.9 26.9-14.4 14.5-27-27zm-26.7 26.7 26.9 26.9-11.1 11.1-26.9-26.9zm-17.3 17.2 27 27-18.2 18.2-27-26.9zm-30.4 30.5 26.9 27-11.2 11.2-27-27zm6.5 47.4-17.7 17.7-26.9-27 17.7-17.7zm121.8-178.9 15.3 15.3-12.2 12.3-15.4-15.4zM80.26 396.4l-.74-7.4 26.78.9 21.1-22.3-36.92-27.7 1.95-9 58.67 11.7 21.6-23c7.3-7.7 17.8-11.2 27.3-9 2.2 9.6-1.2 20.1-8.9 27.4l-23 21.6 11.7 58.6-9 2-27.7-36.9-22.3 21.1.9 26.8-7.4-.8-12.6-21.4zM368.5 202.2l72.5-72.5 12.3 12.3-72.5 72.5zm-36.8-7.2 15.2 15.3-12.2 12.3-15.3-15.3zm97.7-77-28.9 28.9-36.7-36.7 28.9-28.89zM222.3 300.3l81.6-81.6 12.2 12.1-81.6 81.7zm122.1-122.2 33.8-33.7 12.2 12.2-33.8 33.7zm-24.1-24 33.8-33.8 12.2 12.2-33.8 33.7zM198.2 276.2l81.6-81.6 12.2 12.2-81.6 81.6zM301 164.4l15.3 15.3-12.3 12.2-15.2-15.2zm-61.1-61.1 15.3 15.2-12.3 12.3-15.3-15.3z"/></svg>