<svg xmlns="http://www.w3.org/2000/svg" viewBox="0 0 512 512"><path d="M0 0h512v512H0z"/><path fill="#fff" d="M123.241 448.98h186.552v-16.66H123.241zm20-36.66h146.552v-33.337H143.241zm204.782-157.87 24.012 30.665 50.64 3.329v59.358l-104.194.489-2.371 10.604 20.722-2.53 12.457 39.758 16.68-12.551 30.668 28.198 8.17-19.205 40.661 9.091-2.53-20.722 39.759-12.457-12.552-16.68 28.203-30.668-19.21-8.17 9.091-40.661-20.721 2.53-12.458-39.759-16.68 12.552-30.668-28.203-8.17 19.21-40.661-9.091 2.53 20.721zm-66.493 94.014-4.537 15.47h-34.975l-3.632-15.267zm-146.337-90.573L104.112 94.166H247.08l.819 19.246h-42l-3.462 14.087h-68.793l27.748 140.232 27.541 10.343 34.83-151.741 122.003 1.403-6.836 26.417 32.053 65.283-15.642-3.497-21.876-44.554-13.756 46.904-11.907-15.207 13.592-42.189-67.782-.744 112.851 135.039 45.795 3.011v39.235l-213.552 1.002-5.852 25.498-37.57-.214-7.635-40.215-125.612-61.618 7.511-13.01 67.714-132.465 3.466 20.682-46.253 90.483zm67.343 63.861 22.168-.104.503-19.042-18.005-1.184zm34.674-.163 18.152-.085.446-16.887-18.118-1.191zm30.657-.144 18.152-.085.39-14.731-18.118-1.191zm30.658-.144 18.152-.085.333-12.576-18.118-1.191zm30.658-.144 18.152-.085.276-10.42-18.118-1.191zm30.658-.144 18.152-.085.219-8.265-18.119-1.191zm30.658-.144 5.093-.024v-7.039l-4.898-.322zm-219.475-4.461 3.964 1.944 7.606-24.856-17.396-6.533zm-33.588-16.477 6.327 3.104-2.268-11.947zm-23.799-11.674 12.573 6.167 8.654-18.853-13.139-4.934zm97.342-3.289 138.247 9.087-110.093-131.74zm-121.14-8.385 12.572 6.167 7.583-16.519-13.139-4.935zm218.333-18.959-6.702 22.853-18.218-1.197 12.208-37.891zM66.04 264.908l12.572 6.168 6.512-14.186-13.139-4.934zM51.465 244.25l-6.078 10.527 9.427 4.624 5.439-11.851z"/></svg>