<svg xmlns="http://www.w3.org/2000/svg" viewBox="0 0 512 512"><path d="M0 0h512v512H0z"/><path fill="#fff" d="M43.9 465H458v-20H43.9zm79.4-39h123.9l3.6-9-43.3-15L94 410c8.9 6 18.9 11 29.3 16zm148.4 0h82.8c35.2-27 45.8-70 40.7-105l-26.6-182L473 129l-1-25-54-1-13-38c-28.1-27-128.6-30-107.8 76 22.1 113-2.2 136-2.2 136l21.6 12s22.9-26 .2-152c-10.3-58 25.7-84 77-56l9.9 35-26.1 3-16.3-17 13.7-5s-26.6-19-49.1-5l27.8 51 18.4 148s-12.2 57-135.3 94c-15.2 5 52.7 11 52.7 11zm210.3 0v-14h-88c-3 5-6.2 10-9.5 14zM312.3 308l-65.1-24L39.9 386h41.6c29.6-1 91.8-5 147.2-24 33.6-12 65.1-29 83.6-54z"/></svg>