<svg xmlns="http://www.w3.org/2000/svg" viewBox="0 0 512 512"><path d="M0 0h512v512H0z"/><path fill="#fff" d="M272.707 426.95c-26.005 20.19-10.044 48.44-10.044 48.44s22.858 18 74.775-4.46l18.029 23.67-181.924-1.92 11.302-19.31 45.555 4.95-9.983-48.63zm104.64-290.068c2.471 49.377 128.226 132.735 54.755 197.376l-1.562-31.615C367.701 426.78 196.513 422.43 137.732 392.677 7.55 326.776 143.64 50.138 330.303 212.926c16.361-15.75-12.617-60.152-34.995-93.871-49.251-74.212 13.036-100.877 63.58-91.489-10.094 3.919-17.163 9.349-22.026 15.432-9.691 12.125-11.195 27.43-9.07 41.526 2.924 19.397 12.585 36.134 12.585 36.134l.927 1.608 1.523 1.062c11.848 8.266 23.408 12.168 34.52 13.554zM225.674 292.354c-5.392 1.379-10.052 3.593-13.51 6.3-5.166 4.043-8.028 9.212-8.399 14.627-.329 4.803 1.215 10.095 5.927 15.25a31.96 31.96 0 0 0 3.098 2.942c-13.869 4.423-28.425 13.781-34.678 32.733l-2.612 7.914 7.914 2.611c54.508 17.987 98.5 14.265 127.793 2.047 21.097-8.799 34.847-22.173 40.499-35.431 4.377-10.266 4.225-20.643-.519-29.754-4.756-9.134-14.667-17.359-30.731-22.108l9.384-7.899-10.732-12.751-37.608 31.653 19.374 2.11c30.192 3.29 42.059 16.829 35.501 32.213-4.337 10.171-15.398 19.834-31.584 26.585-24.996 10.426-61.756 13.49-107.155.301 5.605-8.563 14.414-12.799 22.389-14.99 10.857-2.982 20.473-2.256 20.473-2.256l3.078-16.282c-9.445-2.865-15.942-5.997-19.954-9.344-1.945-1.623-3.333-2.888-3.229-4.406.125-1.827 2.105-2.918 4.26-4.055 6.087-3.21 15.409-4.119 24.718-1.296l5.183-15.836c-3.24-1.139-6.009-2.424-8.316-3.813-1.63-.982-3.01-2.003-4.133-3.057-1.011-.948-1.793-1.886-2.277-2.839-.17-.332-.596-.575-.369-.802.935-.934 2.558-1.266 4.586-1.467 3.54-.351 7.976.181 13.244 1.716l4.661-16.002c-12.193-3.552-21.553-2.85-27.591-.382-5.964 2.437-9.464 6.614-10.859 11.279-1.293 4.325-.849 9.389 2.174 14.489zm-115.661-95.945c-18.612-123.322-140.144-13.656-43.562-6.438-37.548 48.185 7.946 120.58 7.946 120.58s-22.445-66.16 35.616-114.142zm278.21-158.16.064.039c-6.751 20.123 20.117 44.03 43.21 35.462 34.833-12.924 62.19 11.059 46.296 62.052-4.644-9.155-10.177-14.779-16.168-18.193-11.174-6.365-24.739-5.004-40.103-1.769-19.552 4.117-42.845 11.178-67.572-5.104-2.153-4.12-7.718-15.696-9.677-28.696-1.459-9.677-1.045-20.312 5.608-28.635 6.512-8.147 18.434-13.679 38.342-15.156z"/></svg>