<svg xmlns="http://www.w3.org/2000/svg" viewBox="0 0 512 512"><path d="M0 0h512v512H0z"/><path fill="#fff" d="M195.25 349.5h-16.667v133h16.667zm91.634 133h-74.968V376.263zm95.366 0h-74.98l74.98-106.656zm16.666-133v133h-2.665 19.332v-133zm-290.833 133v-100h36v100h17.636V350h-17.036l17.036-53.117V246.5H90.447v236zm180.667-26.26L213.429 349.5h75.321zm16.666-.08V349.5h74.98zm67.167-284.66h-151l-50 153h251zm-246.5 91.5c9.934 0 18 8.066 18 18s-8.066 18-18 18-18-8.066-18-18 8.066-18 18-18zm142.25 35h-36v-42l18-20 18 20zm93.5 0h-36v-42l18-20 18 20zm60.25-163h-37v19l37 111zm-239.424 96.595.924-66.095-11-27.5h124.5v19h-90.5zM81.583 214.833h89v-16.666h-89zM136.7 91.5h-21.234l-33.883 88h89zm240.05 22.833h53.666V97.667H376.75zM134.416 71.5v-42H117.75v42z"/></svg>