<svg xmlns="http://www.w3.org/2000/svg" viewBox="0 0 512 512"><path d="M0 0h512v512H0z"/><path fill="#fff" d="m433 344.6-16.6-5C399.1 394 357.8 436 303.7 445c-82.1 14-161.3-51.8-177.6-146.4-16.2-94.6 36.5-183.3 118.6-197.4 54-9.3 107 16.4 141.4 61.9l14.3-10.3c-41-59.4-107.4-93-174.9-81.4C128.1 88.1 64 192.9 83.4 305.9 102.8 419 198.2 496 295.5 480c67.5-12 119-66 137.5-135.4zm-58.6-1.2c-18.7 6.7-35.9 10.9-49 13.5-2.1 5.4-4.6 10.3-7.4 14.7-8.5 13.2-19.7 21.9-33.2 22.8-10.1.7-20.2-3-29.5-9.8l-11.2 13.6c17.8 16.8 38.2 25.8 58.5 23.8 21.5-1 40-14 53.5-34.1 8-12.2 14.3-27.3 18.3-44.5zm-304.6-21c-4.5 3.2-8 6.2-10.4 9-5.3 6.1-6.6 12.1-5.4 17 1 4.4 4 8.5 9.7 11.5 4.3 2.2 10.6 4 18.7 5-5.7-13.8-9.8-28.1-12.6-42.5zm97 12.4c3.7 9.2 7.8 17.5 11.9 24.8 28-4.1 59.4-10.2 92.2-18C348.7 323 414.3 299.1 445 280c9-5.7 16-11.1 19-15.9 4-5.2 5-10.2 4-14.6-2-4.9-6-9.7-13-12.8-10-4.2-30-5.8-57.1-4.3l.6 17.6c11.2-.1 20.4.5 26.5 2 2 .4 4 1 5 1.5 0 .2 0 .3-1 .4-2 2.7-6 5.6-10.8 8.7-27.2 16.8-85 37.5-153.3 53.8-35.8 8.6-69.5 14.8-98.1 18.4zm54.4-49.1c-35-13.5-51.6-45.7-51.6-45.7 30.5-21.6 57.1-26.1 79.2-17.9 22.1 8.2 39.7 29 52.2 58.1-13.2 5.9-25.3 9.3-36.4 10.6 3.4-8.5 3.3-20-.9-31.5-7.2-19.1-23.5-30.7-36.4-25.9-12.9 4.8-17.6 24.3-10.4 43.4 1.2 3.2 2.6 6.2 4.3 8.9zm111.4-15.1 43.1-14.9c-7.9-44.1-27.1-81.9-50.9-105.3-18.4-18-39.6-27.6-60.7-26.1-33.9 2.3-60.8 32.8-71.6 78l22-5.9c8.7-18.7 21.8-31.1 38.4-32.2 13.9-1 27.5 6.2 39.6 18.4 19.2 19.3 34.3 51.2 40.1 88zm28-188.6s26.6-6.1-1-49l119.4-.7S466 70.6 426 63c70 14.9 12 45-23.4 15 42.4 47.1-5.2 44.6-42 4zm-219.2 0s-26.6-6.1 1-49l-119.5-.7S36.1 70.6 76.4 63c-70.8 14.9-12 45 23 15-42.7 47.1 5.2 44.6 42 4z"/></svg>