<svg xmlns="http://www.w3.org/2000/svg" viewBox="0 0 512 512"><path d="M0 0h512v512H0z"/><path fill="#fff" d="M343.904 68.947c-19.766.075-39.484 5.694-56.675 16.79 16.868 8.294 30.671 28.971 30.671 58.288 0 0-20.6.363-40.148-5.703-9.848-3.056-19.43-7.744-25.977-14.933-5.534 9.599-10.017 20.466-13.166 32.586 0 0 47.115-24.016 81.301 26.658l10.406-20.697h24.739l11.32 20.697c34.185-50.674 82.455-32.363 82.455-32.363l-.1-.327c-3.25-10.099-7.4-19.244-12.28-27.44-6.55 7.693-16.51 12.64-26.76 15.82-19.55 6.065-40.149 5.702-40.149 5.702 0-29.698 14.165-50.528 31.328-58.601-17.384-11.081-37.198-16.552-56.965-16.477zM132.525 111.7a12.439 12.439 0 0 0-6.873 2.479c-5.522 4.135-6.646 11.976-2.511 17.498 2.942 3.929 5.39 7.605 7.379 11.072l23.873-8.32c-2.836-5.553-6.535-11.449-11.243-17.737a12.493 12.493 0 0 0-10.625-4.992zm202.864 10.606h16.666v30.656h-16.666v-30.656zM160.437 149.97l-23.73 8.271c.216 1.108.373 2.196.47 3.264.656 7.117-1.532 13.121-4.952 18.783l22.511 10.863c3.403-6.043 5.868-12.35 6.94-19.156 1.053-6.682.864-13.954-1.238-22.025zm266.69 11.797c-13.515.335-32.896 5.648-48.662 29.02l-13.393 19.85-11.426-20.888-2.755 14.861-14.301.192-3.426-16.07-11.414 22.703-13.93-20.649c-19.534-28.956-44.304-27.067-55.957-24.082l64.52 52.232h55.115l63.932-56.767a56.696 56.696 0 0 0-8.303-.402zM122.021 193.87c-4.783 5.608-10.009 11.245-14.902 17.32a156.819 156.819 0 0 0-4.539 5.903l24.674 8.738c4.247-5.131 8.74-9.928 12.87-14.715 1.742-2.02 3.433-4.04 5.052-6.072L122.02 193.87zm162.75 24.504-3.683 6.293-26.973 33h11.68l35.797 35.975a79.523 79.523 0 0 0 3.12-13.258c10.664 2.765 25.181 5.292 42.03 4.996l15.711-15.787c-24 3.278-44.473-.518-57.103-4.121-.52-8.72-2.561-16.467-5.141-23.018 34.573 14.617 72.55 17.808 105.13-4.164l-8.153-12.092c-34.776 23.453-76.457 12.953-111.372-7.219a1.31 1.31 0 0 0-.043-.042l-.01.011-.99-.574zM93.533 231.57c-4.019 7.8-7.036 16.386-8.404 26.098h25.357c1.342-6.545 3.748-12.364 6.774-17.693l-23.727-8.405zM31.84 274.332l41.142 41.348H300.01l-41.145-41.348H31.84zm349.408 0-41.143 41.348h98.915l41.14-41.348h-98.912zM77.852 332.348V478.52h233.873V332.348H77.852zm250.539 0V478.52h105.76V332.348H328.39zm-105.063 24.595c18.23 10.66 28.14 30.08 27.678 49.827h-34.553c-.274-7.933-4.637-14.835-11.045-18.663l17.92-31.164zm-57.857.696v.002l17.384 30.105c-6.748 3.744-11.386 10.835-11.67 19.024h-32.15c-.26-9.987 1.972-20.196 7.334-29.483 4.806-8.324 11.458-14.93 19.102-19.648zm28.347 35.613c7.9 0 14.315 6.413 14.315 14.318 0 7.9-6.415 14.31-14.315 14.31-7.9 0-14.312-6.41-14.312-14.31 0-7.905 6.412-14.318 14.312-14.318zM205.443 427l15.948 27.66c-8.576 4.58-18.21 7.03-27.96 6.78-8.942-.23-17.854-2.6-26.161-7.34l15.527-26.75a22.56 22.56 0 0 0 11.021 2.86c4.25 0 8.226-1.17 11.625-3.21z"/></svg>