<svg xmlns="http://www.w3.org/2000/svg" viewBox="0 0 512 512"><path d="M0 0h512v512H0z"/><path fill="#fff" d="m299.973 27.71-71.106 105.741c56.635 97.776 173.223 96.08 229.707 6.233L397.234 27.71l-23.162 60.055h-53.666zM132.525 111.7a12.439 12.439 0 0 0-6.873 2.478c-5.522 4.135-6.646 11.976-2.511 17.498 8.87 11.846 13.26 21.396 14.037 29.83.8 8.708-2.652 15.753-7.412 22.537-6.338 9.033-14.909 17.542-22.647 27.148-10.39 12.9-19.323 27.549-21.99 46.477h25.357c4.122-20.098 18.263-33.366 29.637-46.55 10.596-12.284 19.259-24.564 21.553-39.122 2.33-14.786-1.424-32.466-18.526-55.305a12.493 12.493 0 0 0-10.625-4.992zm163.246 12.5c10.812-.378 23.091 5.616 32.583 28.112-38.235 16.132-57.958-16.615-57.958-16.615s9.067-8.7 20.844-10.974a29.282 29.282 0 0 1 4.531-.524zm95.9 0c1.545.053 3.06.238 4.532.523 11.777 2.274 20.842 10.974 20.842 10.974s-19.72 32.747-57.955 16.616c9.491-22.497 21.77-28.49 32.582-28.114zm-111.708 82.93-39.315 50.538h25.147l54.262 54.531 54.263-54.531h22.155l-5.932-41.678c-34.466 11.876-74.24 10.481-110.58-8.86zM31.84 274.333l41.142 41.348H300.01l-41.145-41.348zm349.408 0-41.143 41.348h98.913l41.142-41.348zM77.852 332.348V478.52h233.873V332.348zm250.539 0V478.52h105.757V332.348zm-105.063 24.595c18.23 10.66 28.14 30.08 27.678 49.827h-34.553c-.274-7.933-4.637-14.835-11.045-18.663zm-57.857.696c5.793 10.036 11.59 20.072 17.384 30.107-6.748 3.744-11.386 10.835-11.67 19.024h-32.15c-.26-9.987 1.972-20.196 7.334-29.483 4.806-8.324 11.458-14.93 19.102-19.648zm28.347 35.613c7.9 0 14.315 6.413 14.315 14.318 0 7.9-6.415 14.31-14.315 14.31-7.9 0-14.312-6.41-14.312-14.31 0-7.905 6.412-14.318 14.312-14.318zM205.443 427l15.948 27.66c-8.576 4.58-18.21 7.03-27.96 6.78-8.942-.23-17.854-2.6-26.161-7.34l15.527-26.75a22.56 22.56 0 0 0 11.021 2.86c4.25 0 8.226-1.17 11.625-3.21z"/></svg>