<svg xmlns="http://www.w3.org/2000/svg" viewBox="0 0 512 512"><path d="M0 0h512v512H0z"/><path fill="#fff" d="M435.679 347.497a26.776 26.776 0 0 0-22.175-11.773H98.496a26.776 26.776 0 0 0-22.175 11.773l-53.565 79.149a26.833 26.833 0 0 0-1.485 27.599 26.783 26.783 0 0 0 23.66 14.239h422.138a26.783 26.783 0 0 0 23.66-14.24 26.833 26.833 0 0 0-1.485-27.598zm31.39 94.181H44.931l53.565-79.149h315.008zm-247.19-120.554v-39.297c0-6.595-4.794-12.21-11.304-13.239l-41.428-6.544c-14.61-2.307-28.324 7.676-30.63 22.3l56.579 8.936-10.713 27.844zM195.947 79.305a512.554 512.554 0 0 1-11.016 56.85l-4.103 16.208 36.758 4.997.365-16.717a512.55 512.55 0 0 1 4.534-57.73l.55-4.046a9.867 9.867 0 0 1 10.426-8.523c5.147.34 9.148 4.619 9.148 9.78v241h26.782v-241c0-19.279-14.94-35.254-34.163-36.527-19.218-1.272-36.14 12.561-38.733 31.662l-.548 4.046zm133.67 241.819-10.713-27.844 56.579-8.937c-2.306-14.623-16.02-24.606-30.63-22.299l-41.428 6.544c-6.51 1.028-11.304 6.644-11.304 13.239v39.297zm-152.67-140.155 36.757 4.996 2.403-17.707-36.758-4.997z"/></svg>