<svg xmlns="http://www.w3.org/2000/svg" viewBox="0 0 512 512"><path d="M0 0h512v512H0z"/><path fill="#fff" d="M57.17 483V65.7H289.5l30-33.4H23.83V483zm17-166.9V313H86.7l358.5 170-122.7-1zM237.4 366c-32.4-51.1-17.5-119.9 13.5-191.8 3.8-8.6 12.3-14.2 21.7-14.2h167.9c9.4 0 17.9 5.6 21.6 14.2 38.9 90 52.4 175.2-20.5 226.8H311.3zm-6.2-196.9C200 238.7 182.2 287 205.7 350l-35.9-16.8c-17.1-61.2 10.7-119 10.7-119l-33.7 8.5s-20.4 46.7-10.1 95l-25.1-11.8c-8.7-41.2 9.2-78.4 9.2-78.4l-24.09 6S83.9 262.9 88.37 295l-14.2-6.7v-59.5zM458.8 297c5.3-36.9-20.2-92-20.2-92h-67.8v92zm-116.6 0v-92h-67.7s-25.5 55.1-20.2 92z"/></svg>