<svg xmlns="http://www.w3.org/2000/svg" viewBox="0 0 512 512"><path d="M0 0h512v512H0z"/><path fill="#fff" d="M131.295 489.473c-69.55-22.61-88.347-62.18-83.407-87.17 4.94-24.991 33.618-35.398 59.021.327 13.296-74.43 107.163-37.341 24.386 86.843zm85.97-287.619c6.441 11.233 15.665 18.422 25.765 22.324 23.8 9.197 53.152-.609 66.764-21.708l7.29 41.985c-7.987 2.1-16.683 4.91-25.078 8.635-21.617 9.592-40.482 25.325-46.959 47.436a21.878 21.878 0 0 0 29.696 26.224c32.016-13.876 57.259-17.27 75.616-16.362a47.315 47.315 0 0 0 26.875-6.755c89.63 33.237 36.004 99.128 71.996 173.816l-172.289 1.523 29.466-87.202c-122.646-28.864-46.555-90.713-106.702-130.937 4.72-28.613 13.952-50.972 17.56-58.979zm-55.598 67.143c-8.7 6.845-16.756 11.106-23.562 13.308-6.753 2.185-12.992 2.965-18.658 2.659a190.9 190.9 0 0 1 7.508 9.778c9.205 12.879 15.404 29.803 19.24 48.211 15.504 2.361 29.747 13.24 36.797 33.76 7.07 20.581 5.94 55.422-19.73 102.259h80.326l22.624-70.896c-86.179-32.28-45.825-82.491-73.181-113.059-9.851-11.008-20.715-19.086-31.364-26.02zM334.55 208.2l16.052 52.237s-72.819 6.164-84.56 46.24c36.13-15.66 64.686-19.165 85.401-18.14A25.46 25.46 0 0 0 375.57 251.8c-9.358-19.144-22.812-38.128-41.02-43.599zm-193.353-22.719c-39.863 31.67-46.76 59.696-37.041 69.506 10.284 10.38 39.17.367 67.293-47.304zm18.668-13.437 21.978 16.13a331.593 331.593 0 0 0 8.053-18.092l-4.678-13.052c-9.322 5.007-17.752 10.027-25.353 15.014zm66.557-49.238c16.134-12.293 31.103-16.013 43.702-15.502 13.101.53 23.434 5.472 29.273 9.045a69.064 69.064 0 0 1 2.715 14.376c2.338 28.469-12.782 52.98-33.745 54.703-20.963 1.72-39.88-19.994-42.22-48.464-.399-4.866-.288-9.617.275-14.158zM151.145 146.5l-17.85-49.404c-10.115-1.921-17.771-10.816-17.771-21.485 0-12.07 9.8-21.868 21.87-21.868 12.068 0 21.867 9.799 21.867 21.868 0 5.455-2 10.445-5.308 14.278l16.384 45.345a351.517 351.517 0 0 0-19.192 11.266zm61.229-40.498-12.368-26.899 58.396-43.032 58.596 34.071-7.79 26.632c-8.402-4.868-21.706-10.662-38.2-11.33-16.767-.68-37.025 3.775-58.634 20.558z"/></svg>