<svg xmlns="http://www.w3.org/2000/svg" viewBox="0 0 512 512"><path d="M0 0h512v512H0z"/><path fill="#fff" d="M168.223 371.39c-75.49 36.68-40 115.61-40 115.61h161.9c-35.95-45.77 42.14-71.18 16.83-112.217-20.28-32.871-108.06 46.317-138.73-3.393zM88.603 487h-63.6V122.768h44.89zm203.75-221.2c72.93 83.761 16.01 221.2 16.01 221.2h38.33s27.51-85.24-3.75-195.206zM487.003 487h-63.61l18.71-364.232h44.9zM54.063 139.434h-12.4V470.33h29.4zm122.35 150.686c-33.49 143.59 102.17 31.092 131.74 63.547.72-63.167-102.87 11.353-89.18-85.102zm127.9-123.672 29.46 94.464-43.65-22.414c14.1-19.37 17.07-44.259 14.19-72.05zm-96.63 0-29.46 94.464 43.65-22.414c-14.09-19.37-17.06-44.259-14.19-72.05zm14.28-3.326c.63-.19 1.26-.418 1.87-.686 21.44-9.361 42.87-9.408 64.31-.01.62.272 1.25.504 1.89.696.06 1.098.09 2.207.09 3.326 0 25.089-15.29 45.458-34.12 45.458-18.84 0-34.13-20.369-34.13-45.458 0-1.119.03-2.228.09-3.326zm56.74-86.928c17.05-20.178 47.2-28.588 75.62 8.048-36.25-15.986-68.08 6.105-59.49 62.92-25.89-11.351-51.78-11.306-77.67 0 8.59-56.815-23.24-78.906-59.49-62.92 28.42-36.636 58.57-28.226 75.63-8.048-4.78 5.911-7.82 13.77-7.82 22.756 0 19.86 14.84 34.212 30.52 34.212s30.51-14.352 30.51-34.212c0-8.986-3.03-16.845-7.81-22.756zm-22.7 5.211c7.64 0 13.85 7.862 13.85 17.545 0 9.684-6.21 17.546-13.85 17.546-7.65 0-13.85-7.862-13.85-17.546 0-9.683 6.2-17.545 13.85-17.545zM117.063 25l-45.38 65.086h-46.68V25zm369.94 0v65.086h-46.69L394.933 25zM41.663 41.667V73.42h21.32l22.15-31.753z"/></svg>