<svg xmlns="http://www.w3.org/2000/svg" viewBox="0 0 512 512"><path d="M0 0h512v512H0z"/><path fill="#fff" d="M331.903 390.047h160.905V490.59H142.51L91.77 390.047h98.483c6.271 33.322 19.28 59.742 34.251 79.718l33.436-.837-14.837-120.625s32.072 82.707 100.429 104.178l21.888-14.752s-15.397-20.083-33.516-47.682zm-.648-109.617a9.04 9.04 0 0 1 .179-.92l15.212-60.713c-29.58-10.838-53.836-30.922-73.049-59.747l-56.038 17.571-29.72 139.753 96.5-1.204-18.307-65.215 4.578-25.546zm32.331-56.574-7.143 28.511c22.545 1.257 60.24-.335 62.413-24.703-19.99 1.449-38.399.154-55.27-3.808zm-164.695-41.583-133.553 45.45c5.984 22.053 68.665-.608 68.665-.608l11.108 18.669 36.37-16.285zm2.287-53.477L51.19 194.656c-4.462 1.961-6.495 7.175-4.536 11.638 1.96 4.462 7.175 6.495 11.638 4.536l150.052-65.89c-1.97-2.826-3.671-6.011-5.06-9.536a53.96 53.96 0 0 1-2.106-6.608zm91.357-40.115c-.277 6.653-1.364 13.67-3.385 20.777l94.137-41.337c-2.434 4.412-6.759 12.7-8.42 16.632-16.34 35.613-16.78 61.244-10.473 77.087 6.952 17.468 21.572 25.184 36.38 24.183 14.045-.95 28.716-10.072 36.729-27.628 7.87-17.24 9.327-43.639-5.226-78.378l-.074-.218-.015.005c-4.672-11.113-10.984-23.085-19.247-35.882-2.385-3.694-7.07-5.014-10.97-3.295l-.079.034zm-33.064-34.042c14.209 4.421 19.654 27.58 12.154 51.682-7.501 24.102-25.125 40.08-39.332 35.659-14.209-4.422-19.654-27.579-12.154-51.68 7.501-24.103 25.125-40.082 39.332-35.66zm156.024 30.892c3.133 9.128 3.377 16.36 1.346 21.786-2.466 6.586-8.468 9.798-14.337 9.878-4.648.064-9.33-1.778-11.87-5.84-4.853-7.762-2.044-18.829 14.689-46.012 4.051 7.068 7.43 13.795 10.199 20.18z"/></svg>