<svg xmlns="http://www.w3.org/2000/svg" viewBox="0 0 512 512"><path d="M0 0h512v512H0z"/><path fill="#fff" d="M359.759 491.498H98.003l16.566-123.67 30.773-22.959-4.855-28.455 33.784-8.006 1.64 49.202-30.282 20.964-11.165 96.964s141.854 12.86 196.719-19.71l-11.05-77.254-30.282-20.964 12.895-32.012 44.447 42.23zm30.033-265.672-3.039 260.832 16.665.19 2.975-255.262zm-165.527-4.368 8.721 120.185 10.483-120.185zm129.77 20.766-51.253-55.544 1.197 21.402 37.645 46.579c-62.049 67.848 1.851 100.797 34.284 35.842l1.007-67.276c-8.677 6.535-16.273 12.881-22.88 18.997zM125.818 217.07l-6.767-36.398-32.039 9.866c-28.34 116.321 25.341 102.74 51.829 96.59l-9.49-51.05 30.974-13.784 2.121-21.622zm56.304-76.705c33.837-12.63 67.679-12.404 101.521.023l9.654 96.884-20.731 2.065-7.403-74.297c-6.685 13.42-18.648 22.369-32.282 22.369-13.633 0-25.596-8.949-32.281-22.369l-7.403 74.297-20.731-2.065zm227.949 74.856-31.284-10.855.994-30.327 35.676-2.128zM108.043 82.687l-3.981 67.71-31.241 7.046c2.834 7.477 6.302 13.022 6.302 13.022l42.24-11.126 5.717-70.746zm283.589-14.734-19.358-.226-.195 16.666 19.358.226-.155 13.332-34.848-.407-.194 16.666 34.848.407-.156 13.332-34.848-.407-.195 16.666 34.849.407-.141 12.083 16.68-.996.127-10.893 34.843.407.195-16.665-34.844-.407.155-13.332 34.844.406.195-16.665-34.845-.407.156-13.332 19.355.226.195-16.666-19.356-.226.41-35.143-16.666-.194zM88.16 136.898l1.049-17.832c-15.841 2.76-20.248 12.119-19.992 22.105zm102.655-74.607-5.698-19.323-19.983 5.892 15.761 53.448a63.19 63.19 0 0 0 1.138 4.756l3.362 12.023 47.486-13.214 47.502 13.218 3.351-12.043a64.007 64.007 0 0 0 1.123-4.703l15.771-53.485-19.982-5.892-5.678 19.255c-3.29-3.947-7.077-7.361-11.017-10.287-6.433-4.777-13.267-8.118-18.57-10.284V20.5h-25v21.18c-5.301 2.182-12.144 5.544-18.584 10.341-3.928 2.926-7.703 6.335-10.982 10.27zm54.566 7.239v13.872l14.764 4.108h.001c-1.602-6.829-6.203-11.867-11.1-15.503a50.22 50.22 0 0 0-3.665-2.477zm-25 .063a51.19 51.19 0 0 0-3.65 2.477c-4.882 3.637-9.481 8.656-11.099 15.436l14.749-4.104z"/></svg>
