<svg xmlns="http://www.w3.org/2000/svg" viewBox="0 0 512 512"><path d="M0 0h512v512H0z"/><path fill="#fff" d="M19.877 438.72c67.077-40.198 95.197-8.64 138.687 34.75-30.735 11.71-68.555-19.96-68.555-19.96l24.859 29.84s-32.72 16.03-56.195-28.59l11 34.47s-31.759 9.63-49.796-50.51zm472.246 0c-67.077-40.198-95.197-8.64-138.687 34.75 30.735 11.71 68.555-19.96 68.555-19.96l-24.859 29.84s32.72 16.03 56.195-28.59l-11 34.47s31.759 9.63 49.796-50.51zM256 75.309c-99.726 0-180.691 80.965-180.691 180.691S156.274 436.69 256 436.69 436.691 355.726 436.691 256 355.726 75.309 256 75.309zm-8.495 348.481h16.99v-16.98h-16.99zM256 120.235c74.931 0 135.765 60.834 135.765 135.765 0 74.931-60.834 135.765-135.765 135.765-74.931 0-135.765-60.834-135.765-135.765 0-74.931 60.834-135.765 135.765-135.765zM131.345 368.642l12.013 12.013 12.014-12.013-12.014-12.014zm237.297 12.013 12.013-12.013-12.013-12.014-12.014 12.014zM256 146.803c-60.268 0-109.197 48.929-109.197 109.197S195.732 365.197 256 365.197 365.197 316.268 365.197 256 316.268 146.803 256 146.803zm52.174 172.794c-12.247 10.062-27.448 16.659-44.097 18.284V275.5zm-60.251 18.284c-16.651-1.626-31.85-8.223-44.097-18.284l44.097-44.097zm-55.52-29.707c-10.062-12.247-16.659-27.448-18.284-44.097H236.5zm145.478-44.097c-1.626 16.651-8.223 31.85-18.284 44.097L275.5 264.077zM88.206 247.505v16.99h16.989v-16.99zm335.588 16.99v-16.99h-16.989v16.99zm-104.197-60.669c10.062 12.247 16.659 27.448 18.284 44.097H275.5zm-127.194 0 44.097 44.097h-62.381c1.626-16.651 8.223-31.85 18.284-44.097zm55.52-29.707V236.5l-44.097-44.097c12.247-10.062 27.448-16.659 44.097-18.284zm16.154 0c16.651 1.626 31.85 8.223 44.097 18.284L264.077 236.5zm-120.719-42.774-12.013 12.013 12.013 12.014 12.014-12.014zm237.297 12.013-12.013-12.013-12.014 12.013 12.014 12.014zm-116.16-55.152h-16.99v16.989h16.99zM492.123 40.71C425.046.516 396.926 32.077 353.436 75.467 384.171 87.179 421.991 55.5 421.991 55.5l-24.859 29.845s32.72 16.031 56.195-28.588l-11 34.469s31.759 9.631 49.796-50.516zm-472.246 0C86.954.516 115.074 32.077 158.564 75.467 127.829 87.179 90.009 55.5 90.009 55.5l24.859 29.845s-32.72 16.031-56.195-28.588l11 34.469s-31.759 9.631-49.796-50.516z"/></svg>
