<svg xmlns="http://www.w3.org/2000/svg" viewBox="0 0 512 512"><path d="M0 0h512v512H0z"/><path fill="#fff" d="M25 456.51V487h321.895l72.408-117.26H132.836c-1.565 4.341-3.379 8.517-5.474 12.259a59.013 59.013 0 0 1-3.681 5.783h220.828a8.337 8.337 0 0 1 8.333 8.333c0 4.595-3.734 8.335-8.333 8.335H96.02a8.43 8.43 0 0 1-1.601-.16c-.058.01-.116.01-.175.01-13.894 0-25.351-8.431-33.117-22.301-2.096-3.742-3.909-7.918-5.474-12.259H25v70.11h148.452l11.34-14.47c2.838-3.61 8.08-4.25 11.7-1.41a8.338 8.338 0 0 1 1.415 11.7l-3.275 4.18h30.864c4.599 0 8.333 3.73 8.333 8.33s-3.734 8.33-8.333 8.33h-43.933l-12.545 16c-2.838 3.62-8.08 4.26-11.7 1.42a8.338 8.338 0 0 1-1.415-11.7l4.48-5.72zm296.472-23.72c6.278 4.97 8.755 11.2 8.755 17.17 0 5.98-2.477 12.2-8.755 17.17-5.604 4.43-16.64 8.41-29.642 8.41-13.002 0-24.039-3.98-29.643-8.41-6.277-4.97-8.754-11.19-8.754-17.17 0-5.97 2.477-12.2 8.754-17.17 5.604-4.43 16.641-8.41 29.643-8.41 13.002 0 24.038 3.98 29.642 8.41zm-51.373 17.17c0 4.92 9.737 8.92 21.731 8.92 11.993 0 21.73-4 21.73-8.92s-9.737-8.91-21.73-8.91c-11.994 0-21.731 3.99-21.731 8.91zM125.475 323.87H63.014s4.406 63.758 31.23 63.758c26.825 0 31.231-63.758 31.231-63.758zm336.361-39.815 18.221 33.034-.807 54.112s-24.848-4.586-17.617-44.154l-12.705-12.143zm-206.023-111.61-34.653 91.089s42.326-4.892 49.594-27.803c0 0-9.184 79.189-31.617 109.624h55.741l15.709-134.33zm128.663 9.268 64.4 87.932-25.727 54.627-38.859-86.628s-5.841 64.184 20.046 107.711h-52.332l-11.277-132.646zm-189.488-66.157c16.271 35.33 41.099 46.87 41.099 46.87l-21.937 37.519c-7.865-9.841-14.595-19.819-20.326-29.477v-52.063zm-28.248 18.773v54.169h12.5v-53.445c-6.24.289-9.433-.104-12.5-.724zm159.864-46.032c18.673 0 33.833 20.537 33.833 45.833s-15.16 45.834-33.833 45.834c-18.674 0-33.834-20.538-33.834-45.834 0-25.296 15.16-45.833 33.834-45.833zm-159.975 31.06.138.055c2.959 1.161 6.494 1.738 10.71 1.541l13.999-34.237-37.904-12.167s-7.483 36.569 13.057 44.808zm159.966-55.109c13.582 10.412 24.741 14.465 33.195 15.011 7.314.471 13.098-1.48 17.45-4.617 6.726-4.849 10.188-12.765 10.102-20.784-.118-11.037-6.834-22.03-19.821-24.89-9.337-2.056-23.205.399-40.909 13.866-13.582-10.412-24.741-14.465-33.195-15.01-7.314-.472-13.098 1.479-17.45 4.616-6.726 4.849-10.188 12.765-10.102 20.784.118 11.037 6.834 22.031 19.821 24.89 9.337 2.056 23.205-.399 40.909-13.866zM179.24 67.91V19.879h-12.5v44.018zm169.726-19.579c7.753-3.757 13.517-4.358 17.437-2.171 2.909 1.624 4.241 4.797 4.273 7.876.029 2.696-.921 5.456-3.182 7.086-1.64 1.182-3.876 1.682-6.631 1.504-5.533-.356-12.369-3.134-20.715-9.055 3.123-2.172 6.06-3.904 8.818-5.24zm-44.725 10.421c-7.752 3.756-13.517 4.357-17.437 2.17-2.909-1.624-4.24-4.797-4.273-7.876-.029-2.696.922-5.456 3.182-7.086 1.64-1.182 3.876-1.682 6.631-1.504 5.533.357 12.369 3.134 20.715 9.055-3.122 2.172-6.06 3.904-8.818 5.241z"/></svg>