<svg xmlns="http://www.w3.org/2000/svg" viewBox="0 0 512 512"><path d="M0 0h512v512H0z"/><path fill="#fff" d="M339.718 485.3c18.681-30.99 11.407-59.84-1.832-66.52-13.24-6.67-32.445 8.82-37.628 66.52zm31.086-15.69c3.017-47.26-14.31-78.987-26.237-104.451 0 0-2.676 39.101-20.931 35.101l6.9-46.05s-17.793 44.671-35.087 37.188l18.595-47.217s-27.356 44.008-39.853 31.742c81.982-145.651 78.848-38.069 85.766-10.764a245.717 245.717 0 0 0 2.06 7.599c12.129 35.372 53.699 45.222 83.834 22.565l32.431 89.377h-37.746l-23.308-55.68-11.911.52 4.505 55.76h-40.713a396.67 396.67 0 0 0 1.695-15.69zM172.282 485.3c-18.681-30.99-11.407-59.84 1.832-66.52 13.24-6.67 32.445 8.82 37.628 66.52zm-20.239-120.141c6.918-27.305 3.784-134.887 85.766 10.764-12.497 12.266-39.853-31.742-39.853-31.742l18.595 47.217c-17.294 7.483-35.087-37.188-35.087-37.188l6.9 46.05c-18.255 4-20.931-35.101-20.931-35.101-11.927 25.464-29.254 57.191-26.237 104.451.429 4.95.973 9.93 1.599 14.93l.096.76h-40.713l4.505-55.76-11.911-.52-23.308 55.68H33.718l32.431-89.377c30.135 22.657 71.705 12.807 83.834-22.565a245.717 245.717 0 0 0 2.06-7.599zm257.779-70.551c-16.951 0-30.713 19.644-30.713 43.84 0 24.196 13.762 43.84 30.713 43.84 16.952 0 30.714-19.644 30.714-43.84 0-24.196-13.762-43.84-30.714-43.84zm-307.644 0c16.951 0 30.713 19.644 30.713 43.84 0 24.196-13.762 43.84-30.713 43.84-16.952 0-30.714-19.644-30.714-43.84 0-24.196 13.762-43.84 30.714-43.84zM256 231.931c49.273 0 81.33 9.311 94.151 41.129 0 0-58.289-21.533-94.151 65.388-40.194-85.004-94.151-65.388-94.151-65.388 12.821-31.818 44.878-41.129 94.151-41.129zm83.64-40.756 25.687 11.479-18.803 24.277-19.412-9.6zm-167.28 0-25.687 11.479 18.803 24.277 19.412-9.6zm36.19 19.89-6.375-24.683s34.238-13.001 42.918-49.572h21.814c8.68 36.571 42.918 49.572 42.918 49.572l-6.375 24.683c-13.918-2.814-29.72-4.134-47.45-4.134-17.73 0-33.532 1.32-47.45 4.134zm-39.783-34.728L138.74 57.158l-20.202 5.09 30.027 119.179zm126.496-67.536c16.875 1.206 43.179 10.457 52.863 54.215-31.123 3.746-48.091-9.577-57.279-23.837-3.424-5.315-5.768-10.76-7.36-15.499 4.566-3.984 8.572-9.026 11.776-14.879zm-65.591 11.112c-1.534 5.473-4.144 12.476-8.519 19.266-6.662 10.34-17.415 20.187-34.689 23.391l-8.279-32.858c13.773-18.205 32.233-21.197 43.495-21.056 2.282 4.197 4.976 7.979 7.992 11.257zm28.839-86.18c5.911 0 11.308 2.773 15.74 7.203 7.747 7.747 12.564 20.328 12.564 34.42 0 14.092-4.817 26.673-12.564 34.42-4.432 4.43-9.829 7.203-15.74 7.203-5.912 0-11.308-2.773-15.74-7.203-7.748-7.747-12.564-20.328-12.564-34.42 0-14.092 4.816-26.673 12.564-34.42 4.432-4.43 9.828-7.203 15.74-7.203z"/></svg>
