<svg xmlns="http://www.w3.org/2000/svg" viewBox="0 0 512 512"><path d="M0 0h512v512H0z"/><path fill="#fff" d="m293.867 487-13.973-308.473-20.812.943L273.013 487zm42.932 0-11.274-122.472 65.914 66.862 1.912 55.61zm60.64-355.241h-94.687c9.012 73.343 25.632 188.451 99.936 220.639zm-258.304-43.85-.195-.103-49.892 8.34s4.786 16.896 41.543 16.563C146.193 243.301 231.073 306.15 231.073 306.15l-3.575-30.831c-15.796-11.428-71.362-59.994-88.363-187.41zm70.994 37.614-48.108-25.489c13.296 79.804 42.58 123.133 61.841 143.927zM109.3 131.759H68.795v71.78H109.3zm171.966-1.118-27.716-25.116-22.477 5.838 22.477 41.282 31.022 3.036zM253.55 60.673s55.196-77.678 122.402-7.579l-18.419 8.14 10.993 35.191c-42.835 2.898-45.907-58.334-114.976-35.752z"/></svg>
