<svg xmlns="http://www.w3.org/2000/svg" viewBox="0 0 512 512"><path d="M0 0h512v512H0z"/><path fill="#fff" d="M90.983 487c-5.85-17.34 4.81-33.15 94.56-36.94l-.67-1.58.55.29 10.87-31.44c11.56 4.84 27.94 7.82 50.91 3.76l21.8-3.85-7.71-32.14 18.68-20.22 8.94 22.55 22.06-18.06c20.64-16.9 34.03-35.4 41.86-54.32 28.05 32.76 94 13.53 134.02 67.46V487h-93.81c-27.6-17.66-23.96-45.42 2.39-57.97 41.49-19.78 28.38-45.2-8.66-30.41-29.88 11.92-64.92 47.14-40.23 88.38h-20.54c1.51-22.59-18.93-51.26-18.93-51.26s2.89 38.91-25.82 51.26zm108.31-261.97c17.09-2.29 29.11 3.61 35.36 9.93 4.86 4.92 7.17 10.68 7.55 16.08.47 6.67-1.74 13.23-7.32 18.5-5.89 5.55-19.28 11.35-42.19 5.27-23.87 40.3-88.46 50.34-75.23 91.96l24.86-21.74c-12.71 50.47 31.37 73.91 31.37 73.91l12.56-36.31s11.43 26.05 57.33 17.95l-6.7-27.92s14.45-13.22 23.08-32.81c-10.67 1.81-21.69 3.13-27.49 2.16l-10.9-1.83-16.72-36.52 65.99-48.84c-.03-28.02-29.15-54.96-74.43-40.57 1.19 3.74 2.14 7.33 2.88 10.78zm73.23 54.47c.09.16.17.32.24.49l31.47 67.66c77.62-71.45 12.96-172.01-27.7-187.82l-83.48 13.98-6.64 19.36c49.75-20.52 97.61 4.32 97.61 4.32l-12.79 12.6c23.29 21.53 20.62 55.1 20.62 55.1zm-201.02 27.42 24.25 16.88s-31.43 22.74-24.25-16.88zm180.52-12.25-21.2 15.68 5.09 11.11c5.64.94 17.09-.88 27.2-2.95zm-76.86-81.82-86.95-17.49 26.73 15.55c-6.11 7.64-23.04 9.3-30.38-.43l-4.02 16.61c13.86 23.6 40.62 6.15 54.46 29.74 12.58 21.41-32.22 37.83-59.68.74L73.053 276l39.2 30.1s41.79-7.96 62.64-42.59l-15.46-.44c16.62-8.69 24.66-30.28 15.73-50.22zm24.48 28.99-2.69 16.85c40.84 10.86 34.59-22.5 2.69-16.85zm39.93-149.71c4.83 5.47 8.48 12.73 10.12 21.05 4.03 20.41-5.56 39.51-21.39 42.63-15.84 3.12-31.96-10.9-35.99-31.31-1.48-7.55-1.11-14.92.76-21.37l.08-.03c13.5-4.51 29.51-8.77 46.42-10.97zm-35.59-43.1c-16.93-8-28.57-6.74-35.59-2.64-9.55 5.58-12.82 17.08-10.49 27.26 2.45 10.67 10.76 19.12 22 18.6 7.78-.36 18.48-5.77 29.71-22.21 16.94 8 28.58 6.74 35.6 2.64 9.55-5.58 12.82-17.08 10.49-27.26-2.45-10.67-10.76-19.12-22-18.6-7.78.36-18.49 5.77-29.72 22.21zm-8.7 13.61c-4.04-1.79-7.59-2.87-10.71-3.32-3.44-.5-6.13-.24-8.09.9-3.36 1.97-3.78 6.27-2.96 9.85.62 2.73 1.94 5.48 4.53 6.08 1.88.44 4.04-.42 6.62-2.2 3.32-2.29 6.85-5.97 10.61-11.31zm23.03-6.21c4.05 1.79 7.6 2.87 10.72 3.32 3.44.5 6.13.24 8.09-.9 3.36-1.97 3.78-6.26 2.96-9.84-.63-2.74-1.95-5.49-4.53-6.09-1.89-.44-4.05.42-6.62 2.2-3.32 2.29-6.85 5.97-10.62 11.31z"/></svg>
