<svg xmlns="http://www.w3.org/2000/svg" viewBox="0 0 512 512"><path d="M0 0h512v512H0z"/><path fill="#fff" d="M370.803 299.826c-5.82-6.27-9.52-15.655-9.52-26.135 0-18.86 11.98-34.172 26.74-34.172 14.76 0 26.74 15.312 26.74 34.172 0 10.48-3.7 19.865-9.52 26.135 22.54 9.514 38.87 37.201 38.87 69.836 0 7.677-.9 15.08-2.58 22.033h-18.76l-4.84 86.485h-59.82l-4.84-86.485h-18.77c-1.67-6.953-2.58-14.356-2.58-22.033 0-32.635 16.33-60.322 38.88-69.836zm-264.05 0c-5.82-6.27-9.52-15.655-9.52-26.135 0-18.86 11.99-34.172 26.74-34.172 14.76 0 26.74 15.312 26.74 34.172 0 10.48-3.7 19.865-9.52 26.135 22.55 9.514 38.88 37.201 38.88 69.836 0 7.677-.91 15.08-2.58 22.033h-18.77l-4.83 86.485h-59.83l-4.83-86.485h-18.77c-1.68-6.953-2.58-14.356-2.58-22.033 0-32.635 16.33-60.322 38.87-69.836zm202.43-156.338 41.78 45.309-94.96 92.421-29.74-28.941 76.44-57.99-10.07-13.278-78.45 59.512-17.71-17.238zm-67.61 27.44-57.25 40.534-23.29-22.665 41.79-45.309zm237.69-143.565c-2.08 12.875-13.5 21.964-25.9 28.838-21.67 12.003-47.57 16.695-47.57 16.695l-8.2 1.49 2.98 16.398 8.2-1.49s26.29-4.789 49.59-16.867c-3.48 10.913-13.84 18.89-25 25.074-21.67 12.003-47.57 16.696-47.57 16.696l-8.2 1.489 2.98 16.399 8.2-1.49s16.77-3.056 35.39-10.439c-4.84 7.576-13.07 13.509-21.8 18.345-19.22 10.649-41.78 15.544-46.62 16.512l-28.87-28.064c45.55-28.633-2.99-94.227 152.39-99.586zm-446.52 0c2.08 12.875 13.49 21.964 25.9 28.838 21.66 12.003 47.56 16.695 47.56 16.695l8.2 1.49-2.98 16.398-8.2-1.49s-26.29-4.789-49.59-16.867c3.49 10.913 13.84 18.89 25.01 25.074 21.66 12.003 47.56 16.696 47.56 16.696l8.2 1.489-2.98 16.399-8.2-1.49s-16.77-3.056-35.39-10.439c4.84 7.576 13.08 13.509 21.81 18.345 19.22 10.649 41.77 15.544 46.61 16.512l28.88-28.064c-45.55-28.633 2.99-94.227-152.39-99.586zm223.26 36.178c15.67 0 28.39 18.768 28.39 41.885 0 23.116-12.72 41.884-28.39 41.884s-28.39-18.768-28.39-41.884c0-23.117 12.72-41.885 28.39-41.885z"/></svg>
