<svg xmlns="http://www.w3.org/2000/svg" viewBox="0 0 512 512"><path d="M0 0h512v512H0z"/><path fill="#fff" d="m246.511 459.343 42.47-21.37 3.107 52.276h-67.953l22.512-15.22zm-126.52-26.765 8.502 36.705-35.732 20.966h74.83l2.07-24.725zm295.891 57.671H353.75V379.932s63.6-3.595 66.66-59.77l44.191-.265V456.08l-22.834 21.806v-130.6l-25.885 21.141zm-368.483 0V327.144l41.055-13.139 44.557.16-41.987 17.12L67.859 490.25zm71.557-102.27c46.696 64.758 101.578 70.67 167.65 20.62v-13.472l28.111-26.524-105.59-52.583-84.986 38.597zm265.768-55.08c-8.163-10.121-18.82-13.717-28.816-12.593-9.997 1.122-19.332 6.963-24.85 15.718 16.574 14.75 41.417 16.31 53.666-3.125zm-57.638-18.219a34.875 34.875 0 0 1-5.489-18.83c0-19.345 15.706-35.051 35.051-35.051 19.345 0 35.05 15.706 35.05 35.05a34.873 34.873 0 0 1-3.939 16.152c-19.611-14.515-44.165-11.145-60.673 2.68zm-31.333-16.582a62.214 62.214 0 0 1-.04-2.248c0-33.631 27.304-60.936 60.935-60.936a60.68 60.68 0 0 1 24.08 4.95c-10.748-29.966-28.098-53.503-49.57-67.694-12.7 54.463-51.016 83.931-51.016 83.931s-33.784-28.48-43.436-87.892c-13.867 6.747-27.999 16.714-42.08 30.254 0 0-3.525 25.452 19.478 52.58 14.388 16.968 39.156 34.594 81.649 47.055zm57.997-161.955s60.138 46.701 75.282 159.707h10.353V74.423h-78.387zM162.413 242.642l-33.776 10.033 9.963 34.32 31.916-6.918zm-30.626-8.905 16.581-4.925-8.169-36.706 23.446-6.388-4.536-16.65-19.656 5.355c6.801-19.153 5.394-32.272 1.282-40.304-6.086-11.886-18.095-15.364-28.325-12.58-10.292 2.8-18.826 11.915-17.85 25.272.653 8.944 6.254 20.885 21.994 33.85l-22.925 6.246 4.535 16.65 25.368-6.911zm191.12-115.414c.392 3.041.597 6.171.597 9.367 0 29.399-17.326 53.267-38.665 53.267-21.34 0-38.664-23.868-38.664-53.267 0-3.196.204-6.326.596-9.367zm-198.383 46.542c3.36-10.596 3.342-18.015.85-22.882-1.815-3.548-5.381-4.624-8.435-3.793-2.993.814-5.453 3.48-5.17 7.364.4 5.467 4.28 11.872 12.755 19.31zm85.875-90.442 4.132 61.72-29.268 19.188V74.423zm61.498-30.277L234.488 69.75l6.53 31.317h85.193l8.979-31.317-37.409-26.502V21.75h-25.884z"/></svg>
