<svg xmlns="http://www.w3.org/2000/svg" viewBox="0 0 512 512"><path d="M0 0h512v512H0z"/><path fill="#fff" d="M427.57 54.615c-4.773.013-9.93.85-15.435 2.463 7.124 11.402 14.392 17.782 21.183 20.358 7.1 2.692 14.442 2.11 24.21-3.114l.638-.342c-6.927-13.113-17.29-19.4-30.596-19.365zm-24.523 20.862c-12.602 295.63-306.84 281.777-335.295 289.378-14.47 3.56-31.018 31.265-14.47 42.502 82.09 51.034 216.597 69.742 303.84 7.633 95.49-67.98 106.744-188.064 86.814-274.863.874-19.633 5.535-29.782 12.642-45.852-10.057 3.348-20.258 3.55-29.642-.01-9.04-3.428-16.906-9.885-23.89-18.788zm37.92 99.753c9.244 107.602-23.91 182.22-89.215 220.768-65.306 38.547-160.146 41.243-273.94 12.732l4.376-17.46c111.22 27.865 201.442 24.037 260.414-10.772 58.972-34.81 89.31-100.377 80.43-203.728l17.935-1.54z"/></svg>