<svg xmlns="http://www.w3.org/2000/svg" viewBox="0 0 512 512"><path d="M0 0h512v512H0z"/><path fill="#fff" d="M88.378 188.66c-31.81 31.81-31.955 83.642-.234 115.363.274.274.576.5.854.77-14.1 3.428-27.48 10.542-38.46 21.52-31.81 31.812-31.954 83.644-.232 115.365 31.72 31.72 83.552 31.577 115.362-.234 12.868-12.867 20.55-29.01 23.042-45.77 6.402 8.115 9.714 15.05 11.262 20.885 2.16 8.14 1.225 14.523-.87 20.81-2.097 6.288-5.552 12.04-8.36 18.42-1.403 3.19-2.79 6.64-2.957 11.166-.168 4.526 1.81 10.212 5.425 13.827 5.53 5.53 13.326 5.175 18.73 3.636 5.407-1.54 10.51-4.284 16.2-7.884 11.38-7.2 24.775-18.077 39.45-31.025 29.348-25.894 63.45-60.017 90.677-87.243 27.226-27.226 61.348-61.33 87.244-90.678 12.95-14.675 23.826-28.07 31.026-39.45 3.6-5.69 6.345-10.793 7.883-16.2 1.538-5.404 1.894-13.2-3.637-18.73-3.615-3.616-9.3-5.593-13.827-5.425-4.525.167-7.976 1.554-11.167 2.957-6.38 2.808-12.132 6.263-18.42 8.36-6.287 2.095-12.67 3.03-20.81.87-5.836-1.548-12.77-4.86-20.887-11.262 16.762-2.492 32.904-10.174 45.77-23.04 31.812-31.812 31.955-83.643.235-115.364-31.72-31.722-83.553-31.58-115.364.232-10.98 10.98-18.093 24.36-21.52 38.46-.27-.278-.497-.58-.77-.854-31.722-31.72-83.553-31.577-115.364.234-21.418 21.418-28.415 51.9-21.062 79.22-27.32-7.353-57.802-.356-79.22 21.062zm15.314 15.315c23.573-23.573 61.328-23.64 84.734-.234 23.406 23.406 23.34 61.162-.233 84.736-23.573 23.574-61.33 23.64-84.735.232-23.405-23.405-23.34-61.16.234-84.733zm100.283-100.283c23.573-23.573 61.328-23.64 84.733-.234 23.407 23.405 23.34 61.162-.232 84.735-23.574 23.574-61.33 23.64-84.735.233-23.405-23.405-23.338-61.16.235-84.734zM65.853 341.628c23.573-23.574 61.33-23.64 84.735-.233 23.405 23.406 23.34 61.16-.234 84.734-23.573 23.572-61.328 23.638-84.734.233-23.406-23.405-23.34-61.16.233-84.735zM341.628 65.853c23.574-23.574 61.33-23.64 84.735-.233 23.405 23.406 23.34 61.16-.234 84.734-23.574 23.573-61.33 23.64-84.735.234-23.406-23.405-23.34-61.16.233-84.735zM224.57 224.57c27.32 7.354 57.802.356 79.22-21.062 4.917-4.916 9.05-10.317 12.433-16.046 33.158 12.788 52.924 30.103 57.914 50.063 5.467 21.87-5.235 52.252-44.797 91.815-39.563 39.562-69.945 50.264-91.815 44.797-19.96-4.99-37.275-24.756-50.063-57.914 5.73-3.382 11.13-7.516 16.046-12.433 21.418-21.418 28.416-51.9 21.062-79.22zm-59.52 100.74c.208-.05.415-.11.623-.163l.177.887c-.26-.252-.54-.47-.8-.724zm160.26-160.26c.252.26.472.54.724.8l-.887-.177c.052-.208.112-.415.163-.624z"/></svg>
