<svg xmlns="http://www.w3.org/2000/svg" viewBox="0 0 512 512"><path d="M0 0h512v512H0z"/><path fill="#fff" d="M431.1 29.14c-9.5 17.34-25.4 23.34-49.6 14.15 17.9 10.24 28.5 24.99 24.6 48.64 12.4-21.29 29.2-24.49 49.4-14.11-18.3-11.28-33.4-24.22-24.4-48.68zM206 51c-3.4 27.17-10.8 51.2-46.9 52.1 27.4 3.1 44.3 19.1 46.9 52.2 2.3-26.1 14.6-45.7 46.8-52.2-34.1-4.65-48-23.18-46.8-52.1zM85.78 106.8c-5.5 22-19 32.5-43.2 27.8 20.4 12.6 24.5 30.3 20.4 50.5 9-24.2 24-32.2 43.32-27.9-24.32-9.4-24.12-29.2-20.52-50.4zm310.32.8c3.6 21.2 3.8 41-20.5 50.4 19.3-4.3 34.3 3.7 43.3 27.9-4.1-20.2 0-37.9 20.4-50.5-24.2 4.7-37.7-5.8-43.2-27.8zm-139.4 52c-9.6 0-18.1 2.4-23.7 5.7-5.5 3.4-7.3 6.7-7.3 9.3 0 2.6 1.8 5.9 7.3 9.3 5.6 3.3 14.1 5.7 23.7 5.7 3.9 0 7.7-.4 11.1-1.1 2.7-3.1 5.9-5.8 9.5-7.9 3.1-1.9 6.6-3.5 10.2-4.7.1-.5.2-.9.2-1.3 0-2.6-1.8-5.9-7.3-9.3-5.6-3.3-14.1-5.7-23.7-5.7zm-45.1 28.1c-6.2.9-9.1 3.1-10.2 5.4-1 2.4-.8 6.2 2.8 11.5 3.8 5.3 10.5 11 19.3 15 8.7 3.9 17.5 5.2 23.9 4.5 6.4-.7 9.4-3.1 10.5-5.4 1.1-2.4.8-6.1-2.6-11.1-12-.2-22.8-3.1-31.5-8.3-4.9-3-9.3-6.9-12.2-11.6zm98.6 2.6c-9.6 0-18.1 2.4-23.7 5.7-5.5 3.4-7.3 6.7-7.3 9.3 0 2.6 1.8 5.9 7.3 9.3 5.6 3.3 14.1 5.7 23.7 5.7s18.1-2.4 23.7-5.7c5.5-3.4 7.3-6.7 7.3-9.3 0-2.6-1.8-5.9-7.3-9.3-5.6-3.3-14.1-5.7-23.7-5.7zm67.6 8.4c-5.2.1-10.9 1-16.9 3.2-.6.2-1.3.5-1.9.7.1.9.2 1.8.2 2.7 0 10.7-7.1 19.3-16.1 24.7-.6.3-1.1.7-1.7 1 1.4.7 3.2 1.3 5.5 1.8 6.4 1.2 15.2.6 24.2-2.7 7.7-2.8 14.1-7 18.4-11.3-.1-4.1.7-8.1 2.7-11.9.6-1.1 1.2-2.2 2-3.1-1.5-1.9-4.2-3.6-9.1-4.6-1.6-.3-3.3-.5-5.2-.5zM157 201.1c-9.6 0-18.1 2.4-23.7 5.7-.3.2-.5.3-.7.5 1.5 1.8 2.8 3.8 3.8 6.1 1.9 4.7 2.2 9.5 1.4 14.2 5.2 2.1 11.9 3.5 19.2 3.5 9.6 0 18.1-2.4 23.7-5.7 5.5-3.4 7.3-6.7 7.3-9.3 0-2.6-1.8-5.9-7.3-9.3-5.6-3.3-14.1-5.7-23.7-5.7zm261.9 9.4c-6.4.3-9.6 2.5-10.8 4.8-1.2 2.2-1.2 6.1 2.2 11.5 3.4 5.6 9.8 11.7 18.3 16.2 8.5 4.4 17.1 6.2 23.6 5.9 6.4-.4 9.6-2.5 10.8-4.8 1.2-2.3 1.2-6.1-2.2-11.6-3.4-5.5-9.8-11.6-18.3-16.1-8-4.2-16-6.1-22.4-5.9zm-313.3 3.9c-5.89-.1-13.03 1.2-20.21 4.2-8.84 3.7-15.79 9.2-19.59 14.4-3.75 5.3-4.17 9-3.16 11.4 1.01 2.4 3.99 4.8 10.37 5.8 6.36.9 15.18-.2 24.02-4 8.87-3.7 15.77-9.2 19.57-14.4 3.8-5.3 4.2-9 3.2-11.4-1-2.4-4-4.7-10.4-5.7-1.2-.2-2.5-.3-3.8-.3zm168 13.1c-3.1 5.8-8.3 9.8-14.4 12.1 6.4 3.9 11.5 9.7 13.1 17.2 2.2 10.5-3 20.4-10.7 27.5-7.7 7.2-18.2 12.4-30.5 14.9-12.2 2.6-24 2.1-33.9-1.3-9.9-3.4-18.6-10.4-20.8-20.8-2.2-10.5 2.9-20.4 10.6-27.5 7.1-6.6 16.7-11.6 27.7-14.3-4.4-2-8.4-4.4-12-7.1-2.9 5.2-7.5 9.4-12.8 12.6-9 5.4-20.4 8.3-32.9 8.3-9.9 0-19.1-1.8-27-5.3-6.1 7.9-15.2 14.5-26 19-10.42 4.4-20.96 6.3-30.55 5.5-3.84 7.5-11.37 12.4-19.64 15-10.03 3.1-21.82 3.2-33.96.2-.29-.1-.57-.1-.85-.2v46.2c2.84-1.5 5.9-2.6 9.05-3.3 3.41-.8 6.99-1.2 10.68-1.3v-.2c-2.86-10.3 1.71-20.5 8.91-28.1 7.2-7.6 17.45-13.5 29.5-16.8 6.78-1.9 13.46-2.8 19.81-2.7 4.9 0 9.7.7 14.1 1.9 10.1 2.8 19.3 9.2 22.1 19.5 2.9 10.3-1.7 20.5-8.9 28.1-7.2 7.6-17.4 13.4-29.48 16.8-1.87.5-3.74.9-5.6 1.3.53.6 1.05 1.1 1.55 1.7 6.91 7.9 11.03 18.3 7.74 28.5C95.12 385 85.72 391 75.5 393.4c-10.23 2.4-21.97 1.6-33.86-2.2-8.74-2.8-16.44-6.9-22.64-12.1V493h77.24c-.36-1-.67-2-.9-3.1-.77-3.6-.62-7.2.19-10.6-2.17-.7-4.34-1.5-6.51-2.4-11.56-4.7-21-11.8-27.26-20.2-6.27-8.4-9.56-19.1-5.48-29 4.07-9.8 13.91-15.1 24.29-16.7 10.38-1.5 22.03.1 33.53 4.9 11.6 4.7 21 11.8 27.3 20.2 2.3 3.1 4.2 6.4 5.5 9.9 8.4-.6 16.4.4 23.5 2.8 9.9 3.4 18.6 10.4 20.8 20.8 1.8 8.6-1.3 16.8-6.7 23.4h256.1c-6.3-7.3-10-16.6-7.4-26.2 2.8-10.3 11.9-16.7 22-19.6 10.1-2.9 21.9-2.7 33.9.6 1.7.5 3.3 1 4.9 1.6V348.2c-11 1.8-21.6 1.1-30.6-2-9.9-3.4-18.6-10.4-20.8-20.8-2.2-10.5 2.9-20.4 10.6-27.5 7.7-7.2 18.3-12.4 30.5-14.9 3.5-.7 6.9-1.2 10.3-1.4v-1.1c-1.6.1-3.1.2-4.7.2-12.5 0-23.9-2.9-32.9-8.3-2.6-1.6-5.1-3.4-7.3-5.5-9.3-.2-19.2-2.9-28.9-8-10.7-5.6-19.1-13.1-24.6-21.7-5.3 4-11.5 7.3-18.3 9.8-11.8 4.3-23.5 5.5-33.8 3.5-8.6-1.7-16.7-5.9-21.3-13.1-3.8.6-7.9.9-12 .9-12.5 0-23.9-2.9-32.9-8.3-1.3-.8-2.5-1.6-3.7-2.5zm215.7 5.2c-3 0-5.9.2-8.7.7 1.7 6.3 1.5 13-1.7 19.1-1.6 3-3.8 5.6-6.3 7.6 4.8 1.6 10.5 2.6 16.7 2.6 1.6 0 3.2-.1 4.7-.2v-29.6c-1.5-.1-3.1-.2-4.7-.2zM18 235.2v28.9c1.96.7 4.03 1.4 6.18 1.9 9.31 2.3 18.17 2 24.31.1 3.23-1 5.47-2.2 6.97-3.6-4.07-2.7-7.41-6.3-9.41-11.1-1.33-3.1-1.89-6.4-1.86-9.6-3.71-2-8.05-3.7-12.81-4.9-4.65-1.1-9.2-1.7-13.35-1.7zm215 15.9c-3.7-.1-7.7.3-11.8 1.2-9.4 2-17.2 6.1-22 10.4-4.7 4.5-5.7 8.1-5.2 10.7.5 2.5 3 5.4 9.1 7.5 6.1 2.1 14.9 2.7 24.3.7s17.2-6.1 22-10.4c4.7-4.5 5.8-8.1 5.3-10.6-.6-2.6-3-5.4-9.1-7.6-3.5-1.2-7.8-1.9-12.6-1.9zm-137.81 44c-4.15.1-8.67.7-13.29 2-9.24 2.6-16.84 7.2-21.27 11.8-4.4 4.8-5.3 8.4-4.6 11 .69 2.5 3.35 5.1 9.57 7 6.19 1.7 15.08 1.7 24.31-.9 9.24-2.5 16.89-7.1 21.29-11.8 4.4-4.7 5.3-8.4 4.6-10.9-.7-2.5-3.4-5.2-9.6-7-2.7-.7-5.9-1.2-9.48-1.2zm247.71 2.1c6.5.1 12.6 1.1 18.2 3 10 3.5 18.7 10.4 20.9 20.9 1 4.9.4 9.8-1.4 14.3 9.9 3.4 18.3 8.6 24.6 15 7.2 7.6 11.8 17.8 9 28.1-2.8 10.3-11.9 16.8-22 19.6-10.1 2.9-21.8 2.7-33.9-.6-12.1-3.2-22.3-9-29.6-16.6-4.4-4.6-7.9-10.1-9.2-16.1-4.4-.4-8.7-1.3-12.6-2.7-9.9-3.4-18.6-10.3-20.8-20.8-2.2-10.5 3-20.3 10.7-27.5 7.6-7.1 18.2-12.3 30.4-14.9 5.4-1.1 10.6-1.7 15.7-1.7zm151.1 2.4c-2.2.2-4.4.5-6.6 1-9.4 2-17.2 6.1-22 10.4-4.7 4.5-5.7 8.1-5.2 10.7.5 2.5 3 5.4 9 7.5 6.2 2.1 15 2.7 24.4.7.1 0 .3-.1.4-.1zm-151.2 15.7c-3.8-.1-7.8.3-11.9 1.2-9.3 2-17.2 6.1-22 10.5-4.6 4.4-5.7 8-5.2 10.6.5 2.5 3 5.4 9.1 7.6 6.1 2.1 14.9 2.7 24.3.7s17.3-6.1 22-10.5c4.7-4.5 5.8-8.1 5.3-10.6-.6-2.5-3-5.4-9.1-7.6-3.4-1.2-7.7-1.9-12.5-1.9zm-161 5.2c5.1 0 10.4.6 15.7 1.7 12.2 2.6 22.7 7.9 30.4 15.1 7.6 7.2 12.8 17.1 10.5 27.5-2.3 10.5-11 17.4-21 20.8-9.9 3.3-21.7 3.8-33.9 1.1-12.2-2.6-22.7-7.9-30.4-15-7.6-7.2-12.8-17.1-10.5-27.6 2.3-10.5 11-17.4 21-20.7 5.6-1.9 11.7-2.9 18.2-2.9zm-.3 18.1c-4.6 0-8.8.7-12.2 1.8-6.1 2.1-8.6 5-9.1 7.5-.6 2.6.5 6.2 5.2 10.6 4.7 4.5 12.5 8.6 21.9 10.6 9.4 2.1 18.2 1.5 24.4-.5 6.1-2.2 8.5-5 9.1-7.6.5-2.5-.5-6.1-5.2-10.6-4.8-4.4-12.6-8.6-21.9-10.6-3.5-.7-7-1.1-10.2-1.2zm-141.35 4.3c-2.96 0-5.69.3-8.07.8-6.28 1.5-9.01 4.1-9.81 6.6-.79 2.5-.1 6.1 4.09 11.1 4.32 4.8 11.67 9.7 20.81 12.7 9.13 2.9 17.96 3.3 24.3 1.8 6.28-1.5 9.01-4.1 9.81-6.6.8-2.4.1-6.1-4.09-11.1-4.32-4.8-11.67-9.7-20.81-12.7-5.71-1.8-11.29-2.6-16.23-2.6zm328.75 7.8c-7.4 6-17 10.5-28 12.8-.9.2-1.8.4-2.6.5.7 1.4 1.8 2.9 3.3 4.5 4.6 4.6 12.1 9.2 21.4 11.7 9.3 2.5 18.1 2.4 24.4.7 6.2-1.9 8.8-4.6 9.5-7.1.6-2.5-.2-6.2-4.7-10.9-4.5-4.6-12.1-9.2-21.3-11.7-.7-.2-1.3-.4-2-.5zM295 382.6h1.9c6.5 0 12.7 1 18.3 3 9.9 3.4 18.6 10.3 20.8 20.8 2.2 10.5-3 20.4-10.7 27.5-7.6 7.1-18.2 12.3-30.4 14.9-12.3 2.6-24 2.1-33.9-1.3-10-3.5-18.7-10.4-20.9-20.9-2.2-10.4 3-20.3 10.7-27.5 7.7-7.1 18.2-12.3 30.4-14.9 4.7-1 9.3-1.5 13.8-1.6zm.2 18.1c-3.2 0-6.7.4-10.2 1.1-9.4 2-17.3 6.1-22 10.5-4.7 4.5-5.8 8.1-5.3 10.6.6 2.6 3 5.4 9.1 7.6 6.1 2.1 15 2.7 24.4.7 9.3-2 17.2-6.1 22-10.5 4.6-4.4 5.7-8 5.2-10.6-.5-2.5-3-5.4-9.1-7.6-3.3-1.1-7.5-1.8-12.1-1.8zM88.44 428.5c-1.87 0-3.62.1-5.23.3-6.38 1-9.3 3.4-10.29 5.8-.99 2.4-.58 6.1 3.21 11.4 3.92 5.2 10.87 10.6 19.74 14.3 8.93 3.6 17.63 4.6 24.13 3.7 6.3-1 9.3-3.4 10.3-5.8.9-2.4.5-6.1-3.3-11.4-3.9-5.2-10.8-10.6-19.7-14.3-6.7-2.7-13.26-3.9-18.86-4zm382.66 34.8c-4.2-.1-8 .3-11.1 1.2-6.2 1.8-8.8 4.5-9.4 7-.7 2.5.2 6.2 4.6 10.9 4.4 4.6 11.9 9.1 21 11.6H494v-25.3c-2.9-1.4-6.1-2.6-9.6-3.5-4.6-1.3-9.2-1.8-13.3-1.9zm-319.1.6c-1.5 0-3.1 0-4.7.2-.1.3-.3.7-.4 1-4.1 9.9-13.9 15.1-24.3 16.7-3 .4-6.1.6-9.3.5-.5 1.5-.6 2.8-.3 3.9.5 2.5 3 5.3 9.1 7.5l.9.3h25.2c8.6-2 15.7-6 20.1-10 4.7-4.5 5.9-8.1 5.3-10.6-.5-2.6-3-5.4-9.1-7.6-3.4-1.2-7.7-1.9-12.5-1.9z"/></svg>