<svg xmlns="http://www.w3.org/2000/svg" viewBox="0 0 512 512"><path d="M0 0h512v512H0z"/><path fill="#fff" d="M144 14.363c-64.694 104.413-4.668 124.562 32.555 148.147 6.503-16.14 13.96-30.746 23.834-44.38C155.053 95.97 146.91 47.894 144 14.364zm224 0c-2.91 33.53-11.054 81.606-56.39 103.768 9.874 13.634 17.332 28.24 23.835 44.38 37.223-23.585 97.25-43.734 32.555-148.147zM256 89.465c-39.382 27.615-54.255 54.46-68.348 94.822 41.83 11.72 94.865 11.72 136.696 0-14.093-40.363-28.966-67.207-68.348-94.822zM147.02 287.88l6.066-7.278 6.31-7.57 5.803 5.804c.886-25.65 4.967-52.82 15.76-77.516-2.635-.766-5.244-1.564-7.806-2.418l-8.54-2.847c-4.614 10.308-17.4 74.702-17.594 91.826zm200.365-91.825l-8.54 2.847c-2.56.854-5.17 1.652-7.804 2.418 10.793 24.696 14.874 51.867 15.76 77.516l5.805-5.805 12.375 14.85c9.107-12.404-12.98-81.517-17.595-91.825zM186.31 226.98l-5.695 17.075 8.54 2.847 11.53 3.844c-.283 1.185-.427 2.4-.433 3.617 0 8.837 7.163 16 16 16 6.34-.004 12.078-3.75 14.633-9.55l6.27 2.09 8.536 2.845 5.695-17.076-8.54-2.848-48-16zm139.38 0l-8.536 2.844-48 16-8.54 2.848 5.695 17.076 8.536-2.846 6.7-2.232c2.518 5.874 8.293 9.686 14.684 9.693 8.837 0 16-7.163 16-16-.006-1.27-.163-2.533-.468-3.765l11.084-3.696 8.54-2.847zm-165.085 72.715l-61.39 73.668h41.27l-15.997 48h50.075l-12.795 25.59 32.664-10.887L256 497.636l61.568-61.57 32.664 10.887-12.794-25.59h50.074l-15.998-48h41.27l-61.39-73.668-49.86 49.862-19.096-38.194h-52.875l-19.098 38.194zM240 325.363h32v18h-32z"/></svg>