<svg xmlns="http://www.w3.org/2000/svg" viewBox="0 0 512 512"><path d="M0 0h512v512H0z"/><path fill="#fff" d="M185.025 23.418c53.65 45.442 5.437 70.31-7.832 76.318-40.481 18.33-87.641-24.604-99.498-67.345-14.266 43.215-47.14 132.142 11.172 168.1-35.772 39.94-35.73 37.008-65.222-7.852-8.444 41.294-2.84 112.594 15.69 164.039 2.044-22.029 5.048-43.461 11.23-60.672l1.093-3.047 2.783-1.652c45.845-27.2 86.058-35.963 117.297-40.069C168.657 238.91 167 225.715 167 212c0-3.006.08-5.987.236-8.94l-82.1-40.632 35.425-14.936-45.303-45.154 89.756 50.918-29.205 12.22 31.949 30.612c2.515-26.356 11.211-50.122 24.35-68.516C207.842 105.542 230.503 91 256 91c25.496 0 48.157 14.542 63.893 36.572 13.211 18.497 21.933 42.425 24.392 68.957l40.139-41.324-38.096-10.926 84.088-70.113-42.893 60.57 45.135 14.217-88.187 49.766c.443 6.321.61 11.763.468 17.508 6.127-.944 12.475-1.515 18.684-1.58 5.799-.062 11.472.31 16.72 1.214 14.71 4.229 40.782 45.798 45.03 57.756-2.908 14.256-12.973 25.422-22.36 34.799l44.919 95.893c5.893 12.58 2.784 28.435.498 40.32-2.435 11.973-9.3 23.504-21.748 27.486-23.673 4.941-40.493-7.666-54.256-22.976.223 15.12.02 30.053-.426 44.861h94.438c27.315-32.07 28.15-70.242 24.845-111.076-24.654 25.428-45.08-14.326-57.424-41.67 29.376 26.703 70.11-42.856 59.364-106.64-5.432 15.781-42.606 26.993-59.037-27.718 50.391-13.007 54.41-78.365 60.49-109.953-21.14 26.877-33.25 42.008-65.555 24.225 38.779-28.32 7.068-73.23-26.685-90.967 22.944 33.726-57.347 89.833-81.15 66.487C306.65 45.504 237.272 16 185.025 23.418zM256 109c-18.687 0-36.025 10.529-49.244 29.035-5.435 7.609-10.06 16.547-13.645 26.444 22.44 12.726 45.436 25.166 57.157 47.746-1.334 5.283-2.351 10.794-3.89 15.953l-44.345-10.608c7.092-12.52 27.771-11.559 39.713 3.205-7.629-11.251-19.127-19.968-38.92-21.01L192.4 166.433c-4.704 13.695-7.4 29.17-7.4 45.568 0 29.19 8.537 55.459 21.756 73.965S237.313 315 256 315s36.025-10.529 49.244-29.035c1.328-1.859 2.593-3.818 3.822-5.828-2.214-17.142-3.879-39.48 3.164-52.205 2.995-4.756 9.82-6.136 14.512-7.592.753-18.852-2.201-39.965-7.9-55.99l-10.076 35.046c-17.061 1.296-27.8 8.17-35.162 17.374 8.14-4.464 25.633-6.322 36.382-8.815 1.088 5.777 2.82 11.491-2.81 17.908-13.239-4.372-29.599-1.356-40.91 2.81.025-.077.088-.245.12-.339-1.446-5.09-3.152-10.252-4.759-15.383 11.334-23.132 34.466-36.139 56.865-49.556-3.527-9.466-8.012-18.03-13.248-25.36C292.025 119.53 274.687 109 256 109zm70.896 130.637c-2.234 6.517-2.96 19.693-.841 33.092 2.156 13.637 6.67 27.222 10.21 34.142 6.901 2.574 13.802 5.147 20.702 7.723l25.058 117.986c9.55 10.865 24.318 26.878 39.172 22.39 14.238-7.25 10.923-32.993 9.252-45.548L381.764 305.48c7.74-11.768 20.897-21.063 24.675-31.193-5.208-13.145-17.738-31.275-31.043-40.873-15.34-.507-35.759 1.897-48.5 6.223zm-110.232 4.181c7.847.028 22.18 14.935 39.842 13.91 15.889-.921 29.37-21.371 39.482-9.187 11.012 13.268-3.974 33.867-11.424 39.979 0 0-14.24-14.739-27.81-13.659-13.256 1.055-25.078 16.389-25.078 16.389-15.73-9.48-28.304-28.528-19.37-44.695 1.082-1.957 2.547-2.743 4.358-2.737zm-39.4 24.866c-29.884 3.684-67.033 11.244-110.666 36.482-10.068 39.042-10.674 79.179-14.426 114.803L28.289 461.16c2.797 14.464 7.464 33.415 23.473 32.184 17.97-2.503 35.79-13.474 42.113-29.037-2.43-10.801-6.148-19.304-10.176-28.053 4.283-33.15 4.247-65.96 13.332-91.436l2.885-7.785c29.17 6.573 47.811 2.569 70.219-13.42l-1.256 18.955C165.47 394 156.925 448.258 158.829 494H353.89c1.535-49.83.316-100.297-10.444-154.24v-.004c-.73-3.677-1.34-7.58-2.04-11.758l-17.59-6.56c-3.853-6.016-6.946-12.92-8.917-18.561C299.535 321.249 278.915 333 256 333c-25.496 0-48.157-14.542-63.893-36.572-5.893-8.251-10.893-17.583-14.843-27.744zm-27.713 88.218c-12.912 3.996-26.749 3.596-38.041 1.578-7.305 24.086-7.397 48.46-9.512 74.643 5.03 12.432 8.989 21.766 10.426 33.219-4.106 10.526-10 20.968-16.494 27.658h44.664c-1.823-43.507 5.102-91.582 8.957-137.098zM115.627 512l26.312.305c-.01-.101-.018-.204-.029-.305z"/></svg>