<svg xmlns="http://www.w3.org/2000/svg" viewBox="0 0 512 512"><path d="M0 0h512v512H0z"/><path fill="#fff" d="M217.465 30.803c.44 3.92.913 8.674 1.346 14.052 1.125.166 2.477.33 4.444.395 5.563.184 13.298-.154 20.976-.777 7.68-.624 15.374-1.525 21.084-2.383.567-.085 1.003-.165 1.518-.248-1.307-4.46-2.39-8.283-3.15-11.04h-46.217zm54.695 28.412c-1.284.226-2.667.45-4.17.676-6.22.936-14.203 1.866-22.303 2.524-8.1.658-16.247 1.05-23.03.826-.953-.03-1.87-.078-2.77-.135.818 20.64.435 44.035-6.3 61.342-17.575 45.157-66.902 73.035-107.907 101.145-20.503 14.055-39.06 28.076-51.016 42.9-11.957 14.824-17.565 29.58-14.092 48.414 6.058 32.85 30.452 59.058 63.908 78.32-.022-.24-.055-.473-.076-.714-3.172-36.897 16.3-86.13 81.88-149.852l6.454-6.27.768.79c-8.855 12.142-18.185 25.893-27.13 40.142-17.995 28.67-34.205 58.318-40.185 81.686-3.66 12.195-4.637 22.83-3.852 31.963 2.508 29.174 23.125 45.873 37.35 52.19 5.175 2.3 15.564 2.78 27.724.822 12.16-1.956 26.032-5.952 38.97-10.435 3.276-1.136 6.485-2.3 9.597-3.467-3.832-4.028-7.412-8.3-10.666-12.803-19.302-26.713-26.122-63.153-2.99-97.353l2.18-3.22c-3.023 12.43-3.065 25.998-1.805 38.528.615 6.122 1.6 12.02 2.85 17.526 1.443 12.024 6.71 23.398 14.354 33.976 16.224 22.453 44.278 39.448 66.64 43.524 9.313 1.697 28.067-4.016 42.567-13.348-1.83-.94-3.624-1.93-5.358-2.988-12.064-7.356-21.86-17.95-25.182-31.697l-2.113-8.748 17.496-4.23 2.113 8.75c1.918 7.936 7.8 14.91 17.057 20.556 9.258 5.645 21.636 9.6 34.467 11.176 25.66 3.147 51.865-4.003 60.808-17.683 12.51-19.135 15.126-41.138 4.844-65.693-4.297-10.263-10.992-20.956-20.353-31.797-4.007-6.106-8.56-12.323-13.445-18.547-13.093-16.688-28.437-33.323-40.713-46.147l.463-.752 7.662 4.722c37.088 22.842 62.097 47.366 76.338 72.17 2.34-6.142 4-12.51 4.887-19.094 2.413-17.91-2.877-32.225-13.664-46.293-10.787-14.068-27.304-27.283-45.934-40.342-28.536-20.002-62.008-39.37-86.62-64.515 7.872 20.72 17.83 41.59 26.538 56.11l3.602 6.003c-13.978-8.353-34.964-25.746-50.873-65.638v-.007c-5.19-15.058-9.082-29.94-10.605-42.948l-.234-1.994C284.27 95.3 278.82 79.757 274.23 65.7c-.762-2.336-1.39-4.346-2.07-6.485zm-30.06 265.22l.177.12-.306.453c.042-.193.087-.383.13-.574zm11.552 123.21c.155 10.235-2.71 21.145-1.578 36.994l.64 8.975 17.954-1.283-.64-8.977c-.61-8.53.723-16.336 1.45-24.587-6.115-3.178-12.104-6.907-17.826-11.122zm-15.773 2.918c-1.847.67-3.713 1.335-5.607 1.992-4.143 1.435-8.394 2.82-12.687 4.132-.022 1.37-.033 2.713-.035 4.012-.01 6.718.014 12.64-1.67 20.55l-1.876 8.803 17.605 3.75 1.874-8.803c2.088-9.802 2.056-17.623 2.067-24.27.007-3.6.034-6.84.33-10.168zm-29.835 9.388c-5.978 1.548-11.95 2.867-17.774 3.804-.85.137-1.69.246-2.534.37-1.356 3.462-3.08 6.86-5.414 10.233l-5.12 7.403L192.007 492l5.12-7.402c5.803-8.388 8.91-16.698 10.92-24.647zm74.96 4.09c1.13 7.544 3.048 14.03 4.233 20.944l1.522 8.87 17.742-3.04-1.522-8.873c-.796-4.645-1.706-8.522-2.535-12.145-6.41-1.23-12.944-3.172-19.44-5.756zm47.16 3.89c-6.298 1.833-12.626 2.846-18.76 2.783 1.82 3.967 3.888 7.702 5.687 12.064l3.43 8.32 16.642-6.86-3.432-8.32c-1.264-3.067-2.46-5.643-3.566-7.987z"/></svg>