<svg xmlns="http://www.w3.org/2000/svg" viewBox="0 0 512 512"><path d="M0 0h512v512H0z"/><path fill="#fff" d="M467.355 31.004c-2.028.042-4.03.415-5.898.848-4.98 1.153-10.307 3.38-16.338 6.396-12.062 6.03-26.718 15.322-42.14 26.12-26.718 18.7-55.462 41.765-74.97 59.894l39.82 19.908 19.908 39.82c18.13-19.508 41.193-48.252 59.895-74.97 10.797-15.422 20.088-30.078 26.12-42.14 3.014-6.03 5.242-11.357 6.395-16.337 1.154-4.98 1.878-10.923-2.945-15.746-2.41-2.412-5.103-3.437-7.814-3.715-.68-.07-1.358-.092-2.035-.078zm-32.376 29.59c4.388.09 8.607 1.52 11.756 4.67 4.8 4.8 5.607 12.078 3.762 18.668-1.845 6.59-6.102 13.264-12.902 20.064l-42.217 42.22-29.595-29.595 42.22-42.218c6.8-6.8 13.474-11.055 20.063-12.9 1.648-.46 3.338-.756 5.022-.865.63-.04 1.26-.056 1.89-.043zM80 96l-48 64 48-64zm103.154 13.486L161.938 130.7l43.873 4.876 1.717-1.717v-24.374h-24.373zm129.965 25.22l-43.516 21.757-153.05 200.14 13.764 13.764 91.838-91.836 5.656-5.657 11.315 11.315-5.658 5.656-91.837 91.838 13.763 13.763 200.14-153.05 21.76-43.514-21.392-42.784-42.785-21.39zm-256.565.386l7.388 22.164 121 83.578 64.473-84.314-192.86-21.428zm38.14 62.85l-13.123 13.124 24.373 24.375 17.582-17.58-28.832-19.917zm260.785 64.642l-84.314 64.473 83.578 121 22.164 7.388-21.428-192.86zm-190.88 4.852L53.62 276.45 31 299.073l82.402 35.315 51.198-66.95zm212.086 41.125l4.61 41.502 17.13-17.128V308.56h-21.74zM244.564 347.4l-66.95 51.198L212.927 481l22.62-22.62 9.016-110.98zm-138.62 21.22l-13.057 13.06 37.433 37.433 13.06-13.058-37.435-37.434zm188.197 19.853l-17.58 17.582 24.374 24.373 13.123-13.123-19.916-28.832z"/></svg>