<svg xmlns="http://www.w3.org/2000/svg" viewBox="0 0 512 512"><path d="M0 0h512v512H0z"/><path fill="#fff" d="M194.823 48.16c-2.31-.022-4.594-.015-6.845.015-21.117.28-38.938 2.607-51.397 4.746 20.17 21.05 30.97 52.172 33.347 82.036 14.267-16.246 28.596-28.987 43.162-38.78C238.76 78.91 265.06 71.08 291.89 69.043c-31.63-15.736-66.762-20.61-97.07-20.885zM303.7 86.463c-28.065.367-54.176 6.902-80.568 24.648-32.173 21.634-64.98 60.62-99.645 127.073l-1.166 2.234-23.214 14.04c-8.086 8.862-11.147 20.87-10.853 31.055.15 5.23 1.22 9.898 2.498 12.863.53 1.225 1.03 1.815 1.43 2.31l28.5-3.46 46.995 51.353c2.34-1.07 5.027-2.282 7.195-3.28 12.824-5.904 23.297-11.042 24.21-11.59l9.26 15.434c-4.356 2.613-13.022 6.56-25.943 12.508-12.92 5.948-29.112 13.263-44.972 20.38-15.257 6.847-18.467 8.24-29.875 13.31 20.033 4.416 38.585 13.247 54.342 24.73 16.656 12.137 30.236 27.242 39.257 43.624l28.357-93.966 17.232 5.2-13.102 43.415c13.375 8.165 51.94 30.073 96.256 40.26 27.508 6.323 56.688 7.886 82.728-.684 21.627-7.116 41.37-21.12 57.377-46.253l-65.315 13.38-2.12-.608c-58.487-16.72-83.792-52.154-112.677-81.28l-5.692-5.74 5.098-6.272c44.69-54.995 106.57-89.817 166.48-125.116l-35.89-16.205-1.196-3.877s-7.41-23.88-23.505-48.33-40.02-48.203-72.735-50.562c-4.423-.32-8.79-.52-13.107-.586-1.888-.03-3.77-.032-5.64-.008zM28.708 149.452a24.23 24.23 0 0 0-1.094.02c-.64.026-1.295.144-1.943.222 6.486 14.903 10.55 34.073 13.407 55.975 3.554 27.246 4.955 58.47 4.922 89.237-.034 30.767-1.507 61.048-3.784 86.315-1.317 14.607-2.862 27.114-4.62 37.58 24.79-15.11 44.392-39.935 56.534-62.863 7.335-13.854 11.973-26.97 13.65-35.76.218-1.14.355-2.143.457-3.068l-17.384 2.114-1.827-.56c-6.897-2.11-10.375-7.527-12.804-13.163-2.43-5.636-3.753-12.25-3.96-19.47-.417-14.437 3.803-31.596 16.5-44.788l.815-.85 11.154-6.745a34.27 34.27 0 0 0-.317-.975c-1.238-3.558-3.107-8.298-5.506-13.658-4.797-10.72-11.74-23.962-20.06-35.92-8.32-11.96-18.11-22.55-27.764-28.32-5.656-3.38-10.924-5.293-16.375-5.325zm299.928 7.426c32.47.6 50.21 18.606 70.41 33.705l-65.098 13.373-36.43-43.04c11.78-3.01 22.026-4.206 31.118-4.038zm-99.844 9.832l15.785 8.65-36.898 67.33 9.612 70.15-17.832 2.446-10.422-76.04zm240.906 52.21c-14.41 8.635-15.675 9.068-28.138 16.462l42.392 61.85s-14.18-78.523-14.254-78.313zm-31.96 18.737c-11.527 6.866-22.95 13.782-34.128 20.893l40.455 59.838zm-36.38 22.334c-8.49 5.44-16.845 10.99-24.994 16.722l35.043 43.08zm-26.78 17.994c-8.277 5.87-16.347 11.92-24.14 18.23l37.79 31.303zm-26.888 20.492c-7.113 5.865-13.99 11.95-20.586 18.308l25.307 10.383zm-38.625 38.726c10.136 10.6 19.587 21.1 30.04 30.83l9.195-27.453zm177.264 2.17l-45.524 59.903 33.918-6.948zm-105.124 6.055l-37.986 26.35c7.31 6.477 15.198 12.557 24.197 18.03zm64.23.64l-44.312 59.07c1.44.467 2.903.922 4.393 1.366l30.095-6.164zm-38.595 3.924l-36.343 41.64c8.225 4.738 17.39 8.97 27.85 12.563zM69.62 399.697l-.055.024c.02 0 .04-.003.06-.004l-.005-.02z"/></svg>