<svg xmlns="http://www.w3.org/2000/svg" viewBox="0 0 512 512"><path d="M0 0h512v512H0z"/><path fill="#fff" d="M172.01 18c-.735 1.85-1.463 3.8-2.14 5.904-3.52 10.93-5.053 23.89-.475 33.29.494 1.014.78 1.273 1.25 2.068 4.862-4.074 12.994-9.15 24.76-8.795 9.798.295 17.916 6.02 22.616 13.133 4.702 7.112 6.838 15.562 7.25 23.996.415 8.433-.892 16.916-4.483 24.314-3.59 7.4-10.297 14.15-19.516 15.486-15.1 2.19-26.003-6.122-31.518-9.648-.873-.558-1.243-.682-1.752-.916-.254.418-.354.51-.932 1.697-.47.963-.918 8.148 1.215 17.564.767 3.387 1.753 7.07 2.867 10.945 20.62-.55 40.89 1.08 55.364 6.64 7.403 2.843 12.552 5.315 16.15 10.53 3.598 5.213 2.703 12.062 1.26 15.964-2.886 7.804-6.522 12.244-5.4 22.236.425 3.79 1.585 4.986 3.966 6.276 2.38 1.29 6.464 1.972 10.89 1.347 8.85-1.25 16.893-7.223 17.8-13.455 1.29-8.862-.572-8.653-3.893-12.8-.83-1.035-1.997-2.33-2.908-4.924-.912-2.596-.688-6.8.776-9.495 2.928-5.388 6.55-6.825 12.153-9.862 8.836-4.79 18.557-3.798 29.3-2.098 7.504 1.19 15.583 3.096 23.826 5.19-2.322-9.095-4.447-18.077-5.704-26.457-1.693-11.294-2.45-21.724 2.682-30.904 1.744-3.122 3.235-5.504 4.965-7.585 1.728-2.082 3.812-4.37 7.9-5.243 4.087-.873 8.396 1.298 10.238 3.01 1.84 1.712 2.663 3.102 3.48 4.313 1.634 2.42 2.9 4.142 4.094 5.02 1.195.876 2.12 1.51 5.836.976 2.498-.358 4.85-1.98 7.097-5.58 2.248-3.598 3.857-8.908 4.14-14.056.28-5.15-.8-10.02-2.522-12.918-1.723-2.897-3.24-4.146-7.123-4.367-5.236-.3-7.326.688-8.502 1.452-1.177.764-1.677 1.507-2.762 3.21-.543.853-.61 2.094-3.836 4.317-1.613 1.11-4.87 2.13-7.625 1.544-2.755-.586-4.305-1.972-5.283-2.965-3.914-3.97-4.383-6.592-7.5-13.06-7.524-15.616-6.685-32.44-4-45.3zm173.1 0c-2.592 10.872-4.424 25.983 1.12 37.486.064.136.098.174.163.307.29-.21.513-.438.822-.64 4.64-3.01 11.187-4.79 19.33-4.325 9.496.542 17.396 6.123 21.568 13.14 4.172 7.015 5.462 15.142 5.026 23.1-.437 7.96-2.634 15.862-6.847 22.608-4.213 6.745-10.976 12.596-19.81 13.863-7.613 1.09-14.496-.95-19.04-4.284-1.903-1.397-3.364-2.902-4.6-4.35-1.074 2.853-1.654 9.592-.31 18.557 1.47 9.802 4.573 21.8 7.78 34.086.018.062.034.125.05.188 8.75 2.226 17.26 4.237 24.817 5.46 10.19 1.647 18.648 1.495 22.588.042 2.08-.767 2.735-1.252 3.572-1.752-.07-.1-.047-.09-.12-.195-3.902-5.485-14.082-16.902-12.92-33.893.667-9.735 7.385-17.6 15.132-20.8 3.873-1.6 7.945-2.407 12.09-2.62 4.148-.216 8.37.16 12.542.93 8.346 1.54 16.553 4.767 23.434 9.658 6.882 4.89 12.82 11.778 14.137 20.848 2.007 13.818-5.303 23.386-9.364 28.2.146.075.103.076.257.152 5.884 2.876 19.15 1.475 30.584-2.22 2.435-.785 4.73-1.624 6.89-2.458V18zm1.33 90.953c-.01-.01-.09.043-.217.195-.002.002-.01.012-.01.014.16-.117.237-.198.226-.21zm71.998 23.05c-3.336-.023-6.23.45-8.135 1.235-3.048 1.26-3.8 1.83-4.043 5.39-.657 9.6 4.502 15.027 9.627 22.233 1.28 1.803 2.59 3.697 3.627 6.28 1.036 2.58 1.71 6.318.55 9.975-2.326 7.314-8.427 10.196-16.07 13.014-9.6 3.538-20.223 2.69-31.687.837-5.507-.89-11.21-2.102-16.97-3.46 1.31 5.635 2.465 11.197 3.288 16.555 1.79 11.643 2.524 22.454-1.914 32.07-3.153 6.834-4.09 10.73-9.794 14.446-2.852 1.86-8.163 2.118-10.982.813-2.82-1.305-3.957-2.706-5.018-3.78-4.243-4.287-5.116-7.383-15.412-6.815-3.754.207-4.792 1.234-6.297 4.158-1.505 2.924-2.333 8.063-1.783 13.393.55 5.33 2.423 10.77 4.666 14.187 2.243 3.418 4.04 4.253 5.262 4.268 7.034.084 10.826-3.272 17.45-6.734 3.313-1.73 8.84-3.835 14.55-1.545 5.71 2.292 8.747 6.96 11.63 12.88 4.927 10.117 7.055 24.29 7.707 40.13.935-.175 1.874-.356 2.8-.514 11.17-1.905 21.65-2.788 31.21.695 3.78 1.377 6.736 2.687 9.388 4.495 2.65 1.808 5.467 4.56 6.39 8.707.92 4.15-.64 7.897-2.074 10.117-1.432 2.22-2.917 3.687-4.34 5.122-5.7 5.742-10.328 9.206-9.263 17.14.38 2.83 2.224 5.41 6.47 7.952 4.245 2.542 10.543 4.408 16.82 4.918 6.277.51 12.52-.367 16.476-2.04 3.957-1.675 5.063-3.11 5.364-5.188 1.06-7.347-3.05-11.495-8.13-18.315-2.54-3.41-6.1-7.783-5.49-14.722.608-6.938 5.86-11.934 12.448-15.658 14.93-8.44 32.293-4.894 45.748-.644.506.16.997.326 1.494.49V188.213c-.458.153-.89.314-1.355.465-13.168 4.254-29.585 8.318-44.022 1.26-2.963-1.45-5.366-2.845-7.537-4.77-2.17-1.925-4.308-4.808-4.86-8.393-.55-3.584.636-6.757 1.79-8.787 1.153-2.03 2.345-3.387 3.43-4.656 4.346-5.075 7.53-7.377 6.374-15.328-.354-2.436-2.456-5.712-6.75-8.764-4.293-3.05-10.398-5.546-16.27-6.63-2.2-.405-4.36-.595-6.362-.608zM177.31 165l-.656.002 1.297 4.117c3.765 11.964 7.532 24.253 9.6 35.66 2.07 11.406 2.99 22.166-1.923 31.704-1.77 3.434-3.325 6.06-5.346 8.38-2.02 2.323-5.13 4.906-9.58 5.105-4.447.198-7.706-2.21-9.466-3.933-1.76-1.724-2.813-3.285-3.873-4.764-2.118-2.957-4.062-5.553-6.122-7.095-2.06-1.543-3.885-2.443-8.207-1.97-3.144.346-5.557 2.09-8 6.224-2.445 4.134-4.167 10.392-4.485 16.685-.318 6.293.782 12.593 2.68 16.676 1.897 4.083 3.685 5.47 6.05 5.813 8.007 1.157 12.57-2.915 19.432-7.702 3.43-2.393 7.62-5.742 14.42-5.213 6.8.53 11.862 5.777 15.338 12.15 4.9 8.985 3.74 18.85 1.89 29.818-1.85 10.97-5.194 23.16-8.507 35.37-.176.65-.346 1.293-.522 1.94 17.46-.935 33.864-3.934 41.787-7.864.048-.024.064-.035.112-.06-2.91-4.547-4.58-10.835-4.225-18.774.425-9.526 5.75-17.464 12.482-22.053 6.732-4.59 14.658-6.555 22.428-6.844 7.77-.29 15.473 1.062 22.125 4.627 6.653 3.565 12.684 10.515 12.848 19.305.19 10.265-3.83 17.68-5.883 21.12 1.037.78 2.432 1.79 4.63 3.018 1.87 1.047 8.544 1.815 17.58.397 9.034-1.418 20.18-4.397 31.694-7.524 4.558-1.237 9.174-2.477 13.783-3.666-.74-16.35-3.217-30.885-5.888-36.37-.846-1.736-1.43-2.484-1.905-3.118-3.765 2.038-12.708 8.794-25.756 8.64-8.93-.107-15.835-5.896-20.1-12.394-4.263-6.497-6.7-14.263-7.52-22.217-.82-7.952-.074-16.175 3.683-23.475 3.758-7.3 11.672-13.36 21.31-13.893 11.536-.637 19.635 4.133 24.55 8.05.484-.86.794-1.178 1.304-2.282 1.563-3.386 2.04-11.56.467-21.793-1.125-7.32-3.072-15.653-5.256-24.29-11.553-3.017-22.714-5.893-31.783-7.33-9.342-1.478-16.347-.7-17.908.145-.913.495-1.126.75-1.795 1.194 2.863 4.593 6.395 12.382 4.9 22.654-2.476 17.015-18.253 26.59-33.094 28.687-7.42 1.05-15.15.356-21.98-3.343-6.83-3.7-12.275-11.107-13.283-20.096-1.746-15.562 4.97-26.602 6.406-30.484-.784-.543-2.546-1.748-6.98-3.452-8.892-3.414-25.408-5.412-42.75-5.482zm-19.298.754c-18.768 1.57-36.25 5.5-42.99 9.264-1.836 1.026-2.592 1.697-3.235 2.244 2.596 3.917 10.728 13.33 9.527 27.22-.75 8.687-7.106 15.4-13.992 18.448-6.885 3.048-14.608 3.664-22.297 2.72-7.688-.943-15.4-3.518-21.943-8.197-6.543-4.68-11.983-11.95-13.113-21.025-.998-8.004.835-14.914 3.96-19.703 1.16-1.78 2.43-3.185 3.674-4.424-.154-.078-.16-.098-.32-.18-9.192-4.684-22.447-3.674-33.626-.67-2.003.538-3.87 1.125-5.658 1.72v166.31c1.773.603 3.624 1.2 5.613 1.75 11.14 3.077 24.39 4.184 33.748-.484 1.853-.924 2.57-1.533 3.558-2.226-3.676-4.67-10.304-14.066-8.803-28.006 1.003-9.312 6.818-16.764 13.795-20.944s15.058-5.82 23.026-5.783c7.967.036 15.9 1.748 22.746 5.58 6.844 3.832 12.912 10.483 14.088 19.285 1.747 13.087-5.216 22.07-8.856 26.426.6.445.715.66 1.766 1.242 6.418 3.562 24.665 7.062 43.96 7.803.61-2.274 1.222-4.55 1.835-6.807 3.315-12.22 6.517-24.076 8.132-33.652 1.616-9.576.845-16.756.055-18.205-.797-1.463-1.035-1.74-1.32-2.146-.572.282-1.218.57-2.338 1.352-5.683 3.964-16.72 13.008-32.305 10.754-9.432-1.364-16.24-8.384-19.798-16.04-3.558-7.658-4.776-16.43-4.334-25.17.442-8.742 2.558-17.483 6.965-24.94 4.408-7.454 11.862-13.892 21.535-14.954 8.498-.932 15.937 1.692 20.96 5.455 3.564 2.67 5.857 5.508 7.73 8.033 1.335-3.057 1.797-10.352.082-19.81-1.78-9.82-5.33-21.622-9.06-33.472-.92-2.925-1.85-5.853-2.768-8.766zM88.854 301.787c-5.267-.024-10.41 1.258-13.694 3.225-3.284 1.967-4.767 3.888-5.148 7.427-1.036 9.62 2.357 11.55 6.69 17.068 1.085 1.38 2.36 2.96 3.34 5.586.983 2.625 1.144 6.734-.27 9.88-2.825 6.29-7.52 8.46-14.376 11.88-15.82 7.892-33.288 5.395-46.574 1.726-.28-.077-.546-.16-.822-.238V494h136.27c-2.58-11.718-3.037-26.368 4.537-39.77 3.29-5.823 4.8-9.103 9.088-12.28 2.143-1.59 6.224-2.838 9.433-2.087 3.21.752 4.725 2.24 5.748 3.13 2.046 1.775 2.667 2.476 3.74 3.01 1.073.536 2.6 1.122 6.575.626 1.62-.203 4.092-1.775 6.55-6.02 2.457-4.243 4.34-10.547 4.843-16.686.502-6.14-.44-12.078-2.152-15.588-1.712-3.51-2.93-4.6-6.41-4.816-4.62-.287-6.62.79-8.613 2.41-1.99 1.618-3.685 4.152-5.355 6.93-.835 1.388-1.56 2.785-3.055 4.578-.746.896-1.702 1.985-3.55 3.01-1.846 1.027-5 1.685-7.647.997-5.296-1.376-6.593-4.497-7.912-6.853-1.32-2.356-2.418-5.018-3.752-8.608-3.613-9.717-2.62-20.476-.613-32.16.66-3.844 1.484-7.794 2.398-11.79-19.023-.756-36.42-3.452-48.175-9.975-6.015-3.34-10.768-6.226-12.463-12.874-.847-3.325-.082-6.843.995-9.102 1.077-2.26 2.293-3.708 3.36-4.99 4.27-5.13 7.083-6.632 6.09-14.06-.29-2.175-1.58-4.024-5.038-5.96-3.46-1.936-8.77-3.263-14.036-3.287zM467.64 337.44c-4.733-.014-8.95.732-12.023 2.468-1.762.997-2.264 1.444-2.717 1.81.273.514.544 1.086 1.334 2.147 4.057 5.446 13.746 16.167 11.51 31.643-1.348 9.333-8.522 15.96-16.164 19.19-7.64 3.234-16.312 4.106-24.95 3.404-8.636-.703-17.254-3.012-24.607-7.414-7.352-4.403-13.792-11.54-15.062-21-2.036-15.178 7.387-25.21 12.716-30.55-.527-.214-.507-.286-1.137-.515-3.988-1.453-12.163-1.545-22.024.137-1.826.31-3.724.685-5.653 1.086-.373 21.658-2.952 43.532-8.85 58.7-2.898 7.454-5.397 12.823-11.458 16.075-3.03 1.627-6.79 1.968-9.618 1.446-2.828-.52-4.92-1.56-6.794-2.56-7.493-4.003-12.545-8.516-23.018-8.12-3.71.14-4.018.76-5.193 3.546-1.175 2.786-1.61 8.157-.557 13.77 1.053 5.61 3.47 11.41 6.207 15.2 2.737 3.792 5.218 4.94 6.328 4.963 6.694.133 7.083-2.14 12.043-6.406 1.24-1.067 2.83-2.437 5.63-3.337 2.797-.9 6.834-.556 9.55.873 5.43 2.858 7.483 6.837 10.926 12.96 8.292 14.752 6.28 31.942 3.227 45.34-.13.576-.27 1.14-.408 1.704H494V343.22c-2.162-.844-4.465-1.686-6.916-2.46-6.43-2.03-13.362-3.303-19.445-3.32z"/></svg>