<svg xmlns="http://www.w3.org/2000/svg" viewBox="0 0 512 512"><path d="M0 0h512v512H0z"/><path fill="#fff" d="M414.18 23.797c-16.907 11.699-42.489 21.527-62.63 36.468-10.07 7.471-18.981 16.502-24.014 28.309-1.47 3.448-2.555 7.11-3.25 10.955-3.324-3.458-7.468-7.603-12.15-11.883-11.486-10.498-26.55-20.994-34.96-22.627a163.423 163.423 0 0 0-29.97-2.972c-35.377-.26-71.284 10.722-104.307 31.152 40.558.919 63.561 5.12 116.319 21.863l22.728 7.213-21.826 9.604c-13.706 6.03-19.712 11.886-22.408 16.886-2.696 5-2.8 10.173-1.723 17.108 1.077 6.935 3.539 15.033 4.332 24.168.27 3.095.143 6.392-.218 9.736 12.535-3.214 25.092-5.042 36.07-8.598 16.385-5.307 29.047-12.934 36.933-35.515l6.706-19.2 9.7 17.874c11.752 21.65 22.482 31.694 32.108 36.322 9.626 4.628 19.09 4.432 30.356 2.844 11.266-1.589 23.87-4.8 37.937-4.217 4.812.2 9.788.972 14.834 2.375-7.584-17.977-9.142-31.569-14.475-40.713-3.934-6.746-9.775-12.597-23.73-19.188-13.334-6.297-33.969-12.792-65.166-19.773-.39-6.321.686-11.587 2.719-16.357 3.308-7.761 9.62-14.56 18.177-20.909 17.114-12.695 42.402-22.46 62.15-36.125zm-297.104 83.3c-2.773.769-5.53 2.407-7.407 4.432-15.805 18.096-14.113 40.858 1.398 51.31 7.534 5.077 17.417 6.626 27.4 4.813-1.261-9.826-.178-20.233 3.585-30.23 3.904-10.374 10.26-19.187 18.076-25.832-13.256-4.641-30.557-7.693-43.052-4.493zM194.964 116c-14.809 3.288-29.62 10.64-36.063 27.758-8.184 21.747.996 44.144 19.07 50.941 11.226 4.221 33.523.425 43.43-7.335.87-15.135-5.824-35.092.467-47.142.913-1.692 1.995-3.33 3.217-4.93-3.297-6.983-8.933-12.385-15.385-16.013-4.386-2.466-9.824-4.37-14.736-3.28zM88.979 167.078c-4.539 4.413-8.308 10.036-10.812 16.69-8.184 21.747.994 44.142 19.068 50.939 6.282 2.362 12.998 2.595 19.432.986-1.186-9.657-.095-19.865 3.598-29.678a62.976 62.976 0 0 1 12.859-20.78c-12.096.65-24.015-2.096-33.943-8.786-4.028-2.714-7.42-5.878-10.202-9.371zm228.506 17.371c-10.029 12.475-22.895 19.685-35.765 23.853-13.635 4.417-27.303 6.448-39.02 9.467 4.583 4.506 10.266 8.213 16.88 10.7 23.551 8.856 48.436-1.66 56.314-22.592 2.634-7 3.06-14.377 1.591-21.428zm-168.888 9.36c-5.274 4.61-9.655 10.767-12.455 18.208-8.185 21.748.995 44.145 19.07 50.942 9.475 3.563 19.935 2.286 28.926-2.864-.703-7.85.276-15.872 3.205-23.656 3.704-9.843 18.948-21.888 17.502-23.342-1.446-1.454-22.062 2.643-33.213-1.55-9.592-3.607-17.374-9.872-23.035-17.739zm187.674.443a55.4 55.4 0 0 1-3.53 17.959 55.527 55.527 0 0 1-8.896 15.507c1.505 13.784 9.637 25.46 21.822 30.042 18.075 6.796 39.743-3.999 47.928-25.747 2.675-7.109 3.483-14.284 2.744-20.964-.618.092-1.227.191-1.85.279-12.519 1.765-26.575 2.33-40.67-4.447-6-2.885-11.834-7.02-17.548-12.63zm90.878 12.972c-4.242-.024-8.611.415-13.107 1.04 1.235 9.783.147 20.136-3.598 30.085-4.52 12.013-12.33 21.932-21.884 28.82 6.466 10.736 16.497 18.181 27.336 19.56 18.56 2.359 34.84-13.642 34.886-37.663.035-18.152-9.218-34.08-21.75-41.799a56.817 56.817 0 0 0-1.883-.043zM224.663 224.37s-8.595 2.583-11.91 5.418c-3.94 3.37-6.69 8.014-8.56 12.986-7.763 20.626 5.06 45.674 30.597 55.278 25.538 9.603 51.697-.785 59.459-21.41 3.552-9.44 2.782-19.801-1.533-29.188-12.513 3.282-26.324 2.81-39.479-2.137-11.708-4.403-21.46-11.818-28.574-20.947zM73 239.912c-4.388 5.558-7.524 12.703-8.715 21.023-3.333 23.29 10.18 44.553 28.809 48.721a29.76 29.76 0 0 0 9.287.588c-2.272-7.44-3.311-15.376-2.87-23.424.674-12.258 4.707-23.345 11.089-32.154a49.431 49.431 0 0 1-19.703-3.112 49.465 49.465 0 0 1-17.897-11.642zm240.121 12.004c2.299 10.142 1.835 20.806-2.023 31.058a53.208 53.208 0 0 1-7.422 13.448c4.017 10.294 12.021 18.207 22.344 21.091 18.598 5.197 39.244-7.446 45.502-29.824a46.645 46.645 0 0 0 1.736-12.637c-10.844 3.625-22.656 3.795-33.93-.445-11.53-4.336-20.45-12.506-26.207-22.691zM127.608 263.12c-5.79 6.46-9.647 15.469-10.23 26.088-1.29 23.492 14.027 43.498 32.95 46.027 7.786 1.04 15.292-1.002 21.523-5.398a59.087 59.087 0 0 1 3.777-22.162 59.098 59.098 0 0 1 11.717-19.096 48.41 48.41 0 0 0-2.293-9.158c-11.234 4.183-23.625 4.614-35.424.177-9.056-3.405-16.48-9.202-22.02-16.478zm260.3 28.984c-.013.044-.022.088-.034.131-4.208 15.05-13.584 27.41-25.455 35.127 3.513 9.247 10.35 16.616 19.443 20.035 18.075 6.797 39.744-3.998 47.928-25.746 2.265-6.018 3.195-12.084 2.98-17.857-5.281 1.359-10.955 1.76-16.908 1.004-10.384-1.32-19.927-5.91-27.955-12.694zm-185.13 6.319c-4.414 4.188-7.99 9.443-10.302 15.587-8.031 21.34 2.41 44.677 23.261 52.518 20.852 7.841 44.092-2.83 52.123-24.17 3.086-8.198 3.434-16.688 1.524-24.484-12.96 2.956-27.275 2.157-40.934-2.979-9.968-3.748-18.662-9.474-25.672-16.472zm88.55 13.386c-1.56.406-3.111.893-4.645 1.479 2.873 11.337 2.449 23.651-1.975 35.406a59.087 59.087 0 0 1-21.395 27.61 29.689 29.689 0 0 0 8.936 7.46c16.757 9.14 40.94 2.051 53.791-17.662 6.486-9.949 8.5-20.69 6.756-30.066a49.092 49.092 0 0 1-12.117-1.791c-12.689-3.545-22.767-11.754-29.352-22.436zm-226.403 1.373c-2.346 5.319-3.694 11.532-3.707 18.407-.041 21.786 13.291 40.372 29.619 45.402-2.945-9.404-3.914-19.621-2.455-29.813.983-6.866 3.015-13.259 5.869-19.013a48.894 48.894 0 0 1-3.713-.664c-9.88-2.21-18.58-7.317-25.613-14.319zm48.553 18.553c-3.748 5.298-6.425 11.853-7.502 19.379-3.334 23.29 10.179 44.557 28.808 48.725a29.69 29.69 0 0 0 14.365-.336c-2.33-9.834-2.259-20.493.672-30.975a62.497 62.497 0 0 1 6.334-14.883 48.342 48.342 0 0 1-6.816-.41c-14.434-1.929-26.96-10.03-35.861-21.5zm238.332 13.797c-.64 9.854-3.91 19.95-9.942 29.203-4.708 7.223-10.714 13.331-17.482 18.145 2.699 4.606 6.564 8.466 11.474 11.144 16.757 9.139 40.943 2.051 53.793-17.662 4.06-6.228 6.366-12.767 7.098-19.088a49.484 49.484 0 0 1-21.23-3.031c-9.983-3.754-18.001-10.39-23.711-18.711zm-173.98 8.969c-4.811 4.992-8.58 11.385-10.673 18.87-6.228 22.274 5.196 43.987 24.518 49.386 19.322 5.398 40.352-7.249 46.58-29.522a46.267 46.267 0 0 0 1.39-7.082c-9.856 1.744-20.256.978-30.248-2.78-14.359-5.399-25.29-15.988-31.568-28.872zm78.542 40.453a62.967 62.967 0 0 1-.781 3.125c-4.023 14.388-12.82 26.275-24.051 34.039a29.688 29.688 0 0 0 8.963 7.492c16.757 9.139 40.94 2.05 53.791-17.662 3.939-6.043 6.224-12.377 7.025-18.522-13.159 3.138-26.96 1.96-38.916-4.56a48.286 48.286 0 0 1-6.03-3.912zm-155.822 1.357a55.174 55.174 0 0 0-1.41 10.1c-.56 12.022 2.725 23.087 7.99 30.95 5.265 7.861 12.066 12.358 19.502 13.044.085.008.169.009.254.016.182-7.489 1.635-15.18 4.443-22.641a70.21 70.21 0 0 1 4.393-9.463 48.96 48.96 0 0 1-3.493-.635c-12.952-2.897-23.887-10.762-31.68-21.37zm217.385 17.256c-1.667 5.815-4.259 11.56-7.813 17.012-5.86 8.99-13.726 16.262-22.58 21.441.238.171.47.349.715.514 15.511 10.452 40.978 5.992 56.783-12.104 4.218-4.829 7.177-9.99 8.973-15.162-9.67.499-19.32-1.41-27.996-6.142a47.833 47.833 0 0 1-8.082-5.559zM157.4 418.535c-3.734 4.274-6.933 9.493-9.224 15.582-8.338 22.156-.316 43.651 14.879 49.365 15.195 5.714 35.398-5.168 43.736-27.324 1.924-5.111 2.969-10.185 3.262-15.04-7.535 1.388-15.418 1.157-23.227-1.025-12.505-3.493-22.593-11.339-29.426-21.558zm69.223 33.7a70.103 70.103 0 0 1-2.984 10.259 69.331 69.331 0 0 1-10.774 18.947c.858.89 1.79 1.713 2.809 2.451 6.043 4.383 14.122 5.48 23.265 3.035 9.144-2.444 18.912-8.6 26.418-18.011a54.76 54.76 0 0 0 6.46-10.219c-13.824 3.836-28.524 2.907-41.16-3.984a48.745 48.745 0 0 1-4.034-2.479z"/></svg>