<svg xmlns="http://www.w3.org/2000/svg" viewBox="0 0 512 512"><path d="M0 0h512v512H0z"/><path fill="#fff" d="M224.19 41.1c-.054.156-.167.404-.72 1.47-1.3 2.497-2.775 7.64-3.745 14.23-1.94 13.18-2.314 32.12-2.46 51.708-.148 19.587-.1 39.876-1.556 56.838-.728 8.48-1.803 16.124-3.677 22.738-1.874 6.614-4.32 12.643-10.074 16.824-5.448 3.957-11.553 4.962-18.603 5.592-7.05.63-15.136.506-24.05-.012-17.828-1.035-38.92-3.706-59.403-6.017-20.484-2.31-40.41-4.24-55.017-3.95-7.304.144-13.288.915-16.834 2.023-2.66.83-3.363 1.488-3.498 1.613.006.232.175 1.034 1.644 3.076 1.967 2.736 5.983 6.59 11.386 10.676 10.806 8.173 26.992 17.517 43.865 26.875 16.874 9.36 34.462 18.786 48.734 27.836 7.135 4.524 13.443 8.938 18.568 13.437 5.125 4.5 9.347 8.907 11.38 15.162 2.233 6.876.746 13.172-1.433 20.204-2.18 7.03-5.584 14.803-9.76 23.267-8.348 16.93-19.822 36.543-30.758 55.708-10.936 19.166-21.335 37.936-27.303 52.26-2.985 7.162-4.793 13.272-5.208 17.02-.203 1.83-.154 2.654-.123 3.015-.022-.178 1.743.36 6.136-.69 5.006-1.2 12.08-3.982 20.173-7.925 16.186-7.886 36.614-20.305 57.27-33.32 20.658-13.016 41.586-26.63 59.393-37.12 8.904-5.247 17.012-9.715 24.118-12.99C259.747 377.374 265.456 375 272 375c6.635 0 12.127 2.765 17.826 6.355 5.7 3.59 11.574 8.344 17.752 13.858 12.357 11.028 25.856 25.134 39.072 38.57 13.217 13.437 26.21 26.215 36.637 34.12 5.213 3.955 9.833 6.622 12.78 7.646 2.946 1.022 3.01.585 2.97.614.058-.042.838-.698 1.106-4.184.267-3.485-.277-8.974-1.678-15.482-2.802-13.016-8.79-30.144-15.317-47.7-6.527-17.56-13.577-35.6-18.537-51.345-4.958-15.744-9.038-28.324-5.17-40.234 3.66-11.262 13.363-19.443 25.337-29.38 11.975-9.938 26.596-20.53 40.504-31.024 13.91-10.493 27.118-20.942 35.796-29.86 4.34-4.457 7.502-8.56 9.072-11.556 1.57-2.995 1.415-4.244 1.293-4.62-.022-.07-.236-.83-3.342-2.02s-8.392-2.178-14.905-2.612c-13.025-.867-30.92.22-49.388 1.698-18.47 1.476-37.566 3.31-53.916 3.7-16.35.392-29.578.825-39.85-6.638-4.965-3.608-8.27-8.54-11.91-14.7-3.64-6.16-7.296-13.59-11.07-21.915-7.547-16.65-15.528-36.858-23.636-56.404-8.108-19.548-16.38-38.457-24.065-51.945-3.843-6.744-7.585-12.122-10.63-15.338-2.79-2.946-4.436-3.432-4.54-3.507zM24.554 204.156c-.003-.078.012-.093.004-.066-.03.085-.044.102-.005.066zm223.46-1.316c4.976 0 7.992 2.65 10.032 4.805 2.04 2.153 3.524 4.473 4.982 7.033 2.917 5.12 5.548 11.252 8.116 17.445 2.57 6.193 5.038 12.42 7.188 17.162 1.075 2.372 2.08 4.377 2.848 5.674.07.12.106.134.177.24.914.143 2.938.653 5.456.593 4.403-.105 10.224-.647 16.08-1.115 5.857-.47 11.7-.896 17.06-.54 2.678.18 5.247.488 8.064 1.567 2.816 1.08 6.593 3.564 8.033 7.996 1.342 4.13.173 7.99-1.172 10.556-1.344 2.566-3 4.48-4.81 6.338-3.618 3.717-8.022 7.11-12.46 10.46-4.44 3.347-8.898 6.595-12.147 9.292-1.596 1.324-2.785 2.762-3.52 3.634.123 1.148.295 3.202.975 5.36 1.35 4.285 3.49 9.803 5.562 15.375 2.072 5.572 4.09 11.144 5.23 16.437.57 2.647.98 5.213.75 8.192-.228 2.978-1.395 7.195-5.17 9.937-3.87 2.814-8.797 2.427-11.726 1.41-2.93-1.018-5.068-2.484-7.222-4.118-4.308-3.267-8.48-7.473-12.656-11.718-4.176-4.246-8.294-8.518-11.577-11.448-1.492-1.33-2.714-2.254-3.587-2.838-.26.088-.383.09-.68.23-1.588.73-3.857 1.96-6.44 3.48-5.16 3.043-11.627 7.24-18.137 11.343s-13.024 8.106-18.903 10.97c-2.94 1.432-5.68 2.608-8.685 3.328-3.007.72-7.113 1.598-11.662-1.707-4.422-3.212-5.023-8.618-4.672-11.784.35-3.167 1.3-5.756 2.453-8.52 2.303-5.527 5.683-11.514 9.12-17.535 3.435-6.02 6.926-12.022 9.216-16.665.97-1.97 1.56-3.463 1.986-4.662-.884-.71-1.962-1.53-3.55-2.537-3.848-2.44-9.2-5.33-14.535-8.29-5.335-2.958-10.626-5.932-15.012-9.25-2.192-1.658-4.203-3.343-5.996-5.835-1.792-2.492-3.648-6.895-2.15-11.507 1.58-4.86 5.833-7.17 8.783-8.092 2.95-.92 5.64-1.104 8.512-1.16 5.744-.114 12.173.57 18.637 1.298 6.462.73 12.91 1.53 17.8 1.812 1.954.114 3.35.077 4.58.026.18-.948.37-1.78.498-3.274.38-4.43.395-10.576.44-16.728.047-6.152.09-12.253.89-17.682.4-2.714.873-5.267 2.367-8.14 1.493-2.873 5.65-6.842 10.63-6.842zm4.155 30.744c-.01.71-.038 1.334-.043 2.057-.045 6.045-.015 12.423-.504 18.13-.245 2.853-.59 5.53-1.353 8.22-.763 2.69-1.712 5.836-5.452 8.553-3.43 2.492-6.173 2.655-8.87 2.896-2.698.24-5.442.182-8.38.01-5.874-.34-12.474-1.184-18.78-1.895-1.527-.173-2.906-.285-4.378-.432.81.458 1.522.89 2.356 1.354 5.188 2.877 10.706 5.823 15.443 8.828 2.368 1.502 4.545 3 6.536 4.748 1.99 1.748 4.078 3.568 5.34 7.453 1.464 4.507.423 7.315-.418 10.03-.84 2.714-2.017 5.34-3.393 8.13-2.75 5.578-6.35 11.714-9.724 17.627-1.59 2.787-3.103 5.507-4.456 8.04 3.595-2.04 7.467-4.352 11.576-6.94 6.362-4.01 12.876-8.252 18.598-11.623 2.86-1.686 5.51-3.154 8.04-4.32 2.533-1.168 4.555-2.325 8.608-2.325 4.143 0 6.59 1.51 8.842 2.928 2.25 1.418 4.272 3.082 6.336 4.924 4.128 3.684 8.358 8.12 12.424 12.253.812.827 1.552 1.524 2.347 2.315-.427-1.2-.796-2.318-1.258-3.56-2.002-5.386-4.217-11.032-5.857-16.237-1.64-5.205-3.917-9.104-1.588-16.273 2.12-6.52 5.84-8.69 9.805-11.98 3.964-3.29 8.546-6.6 12.8-9.81 2.083-1.573 4.078-3.127 5.844-4.578-2.536.1-5.355.28-8.278.514-5.67.454-11.656 1.037-17.086 1.167-5.43.13-9.93 1.29-16.168-3.244-2.95-2.143-4.07-4.19-5.392-6.428-1.322-2.236-2.524-4.702-3.747-7.398-2.445-5.393-4.928-11.692-7.42-17.696-.787-1.9-1.567-3.645-2.35-5.436z"/></svg>