<svg xmlns="http://www.w3.org/2000/svg" viewBox="0 0 512 512"><path d="M0 0h512v512H0z"/><path d="M256 25C128.316 25 25 128.316 25 256s103.316 231 231 231 231-103.316 231-231S383.684 25 256 25zm0 30c110.903 0 201 90.097 201 201s-90.097 201-201 201S55 366.903 55 256 145.097 55 256 55zm-4.365 18.057c-.433.01-.863.026-1.295.04.43-.014.862-.03 1.295-.04zm8.73 0c.433.01.864.026 1.295.04-.432-.014-.862-.03-1.295-.04zm-13.158.158c-.473.022-.944.046-1.416.072.473-.026.944-.05 1.417-.072zm17.586 0c.473.022.944.046 1.416.072-.473-.026-.944-.05-1.417-.072zm-21.963.26c-.505.035-1.01.07-1.516.11.505-.04 1.01-.075 1.516-.11zm26.34 0c.505.035 1.01.07 1.516.11-.505-.04-1.01-.075-1.516-.11zm-30.787.37c-.462.045-.925.082-1.385.13.46-.048.923-.085 1.385-.13zm35.234 0c.462.045.925.082 1.385.13-.46-.048-.923-.085-1.385-.13zm-40.803.608c-.295.037-.588.08-.882.12.294-.04.587-.083.882-.12zm46.372 0c.295.037.588.08.882.12-.294-.04-.587-.083-.882-.12zm-50.56.58c-.504.075-1.005.157-1.507.237.5-.08 1.002-.162 1.505-.237zm54.75 0c.502.075 1.003.157 1.505.237-.5-.08-1.002-.162-1.505-.237zm-59.022.694c-.5.086-1 .174-1.497.265.498-.09.997-.18 1.497-.265zm63.292 0c.5.086 1 .174 1.497.265-.498-.09-.997-.18-1.497-.265zm-67.44.773c-.544.108-1.09.212-1.634.324.544-.112 1.09-.216 1.635-.324zm71.587 0c.545.108 1.09.212 1.635.324-.544-.112-1.09-.216-1.635-.324zm-76.043.938c-.415.092-.832.18-1.246.275.414-.096.83-.183 1.246-.275zm80.5 0c.415.092.832.18 1.246.275-.414-.096-.83-.183-1.246-.275zm-85.62 1.218c-.552.14-1.1.29-1.648.436.55-.145 1.096-.296 1.647-.436zm90.74 0c.552.14 1.1.29 1.648.436-.55-.145-1.096-.296-1.647-.436zm-94.784 1.082c-.555.155-1.108.315-1.66.475.552-.16 1.105-.32 1.66-.475zm98.828 0c.555.155 1.108.315 1.66.475-.552-.16-1.105-.32-1.66-.475zm-102.967 1.21c-.514.158-1.028.315-1.54.476.51-.16 1.026-.318 1.54-.475zm107.106 0c.514.158 1.03.315 1.54.476-.512-.16-1.026-.318-1.54-.475zm-111.305 1.34c-.417.137-.836.272-1.252.413.416-.14.835-.275 1.252-.413zm115.504 0c.417.137.836.272 1.252.413-.416-.14-.835-.275-1.252-.413zm-120.55 1.745c-.422.154-.84.318-1.26.475.42-.157.838-.32 1.26-.475zm125.597 0c.42.154.837.318 1.257.475-.42-.157-.837-.32-1.258-.475zm-129.44 1.455c-.538.21-1.073.427-1.61.643.536-.214 1.073-.43 1.61-.642zm133.28 0c.537.21 1.074.428 1.61.643-.537-.215-1.072-.43-1.61-.642zM185.595 87.01c-.615.256-1.23.515-1.84.777.61-.263 1.225-.52 1.84-.777zm140.808 0c.615.256 1.23.514 1.84.777-.61-.262-1.225-.52-1.84-.777zm-144.533 1.6c-.592.264-1.185.526-1.774.794.59-.268 1.182-.53 1.775-.793zm148.26 0c.592.264 1.185.526 1.774.794-.59-.268-1.182-.53-1.775-.793zm-152.267 1.835c-.494.234-.99.462-1.482.7.492-.238.99-.466 1.483-.7zm156.274 0c.494.234.99.462 1.482.7-.492-.238-.99-.466-1.483-.7zM172.965 92.84c-.51.26-1.017.53-1.526.795.508-.265 1.013-.535 1.525-.795zm166.07 0c.512.26 1.017.53 1.526.795-.508-.265-1.014-.535-1.525-.795zm-169.678 1.892c-.554.298-1.105.6-1.656.905.552-.304 1.103-.607 1.657-.905zm173.286 0c.554.298 1.105.6 1.656.905-.552-.304-1.103-.607-1.657-.905zm-176.805 1.946c-.57.323-1.14.647-1.705.976.566-.328 1.135-.653 1.705-.976zm180.324 0c.57.323 1.14.648 1.705.976-.566-.33-1.135-.653-1.705-.976zm-183.812 2.03c-.59.35-1.183.7-1.77 1.06.587-.36 1.18-.71 1.77-1.06zm187.3 0c.59.35 1.183.7 1.77 1.06-.587-.36-1.18-.71-1.77-1.06zm-190.69 2.07c-1.14.714-2.272 1.44-3.396 2.18 1.124-.74 2.256-1.467 3.397-2.18zm194.08 0c1.14.713 2.272 1.44 3.396 2.18-1.124-.74-2.256-1.466-3.397-2.18zm-198.84 3.076c-.684.46-1.363.928-2.042 1.396.68-.468 1.358-.937 2.043-1.396zm203.6 0c.685.46 1.363.928 2.042 1.396-.68-.468-1.358-.937-2.043-1.396zm-206.845 2.23c-.664.466-1.325.936-1.982 1.41.657-.474 1.318-.944 1.982-1.41zm210.09 0c.664.466 1.325.936 1.982 1.41-.657-.474-1.318-.944-1.982-1.41zm-213.336 2.332c-.657.482-1.31.965-1.96 1.455.65-.49 1.303-.972 1.96-1.454zm216.58 0c.657.482 1.31.965 1.96 1.455-.65-.49-1.303-.972-1.96-1.454zm-219.513 2.2c-1.662 1.272-3.307 2.568-4.923 3.896 1.616-1.33 3.26-2.624 4.923-3.897zm-4.923 3.896c-.674.553-1.337 1.117-2.002 1.68.665-.563 1.328-1.127 2.002-1.68zm227.37-3.897c1.66 1.273 3.306 2.568 4.922 3.897-1.616-1.328-3.26-2.624-4.923-3.897zm4.922 3.897c.674.553 1.337 1.117 2.002 1.68-.665-.563-1.328-1.127-2.002-1.68zm-235.253 2.49c-.662.567-1.316 1.14-1.97 1.717.654-.577 1.31-1.15 1.97-1.718zm238.214 0c.66.567 1.316 1.14 1.97 1.717-.654-.577-1.308-1.15-1.97-1.718zm-241.115 2.543c-.67.6-1.338 1.204-2 1.814.662-.61 1.33-1.215 2-1.815zm244.016 0c.67.6 1.338 1.205 2 1.814-.662-.61-1.33-1.215-2-1.815zm-246.817 2.56c-.705.657-1.408 1.32-2.104 1.99.696-.67 1.4-1.333 2.105-1.99zm-2.104 1.99c-2.464 2.37-4.858 4.81-7.186 7.315 2.328-2.505 4.723-4.945 7.186-7.316zm251.723-1.99c.705.657 1.408 1.32 2.104 1.99-.696-.67-1.4-1.333-2.105-1.99zm2.104 1.99c2.463 2.37 4.858 4.81 7.186 7.315-2.328-2.505-4.722-4.945-7.186-7.316zm-261.55 7.89c-.683.742-1.358 1.492-2.03 2.245.672-.753 1.347-1.503 2.03-2.246zm269.27 0c.685.742 1.36 1.492 2.032 2.245-.672-.753-1.347-1.503-2.03-2.246zm-271.79 2.798c-.675.763-1.344 1.53-2.006 2.305.662-.774 1.33-1.542 2.006-2.305zm274.312 0c.675.763 1.344 1.53 2.006 2.305-.662-.774-1.33-1.542-2.006-2.305zm-276.676 2.725c-2.985 3.513-5.84 7.14-8.556 10.875 2.716-3.735 5.572-7.362 8.556-10.875zm279.04 0c2.984 3.513 5.84 7.14 8.556 10.875-2.717-3.735-5.57-7.362-8.556-10.875zm-287.786 11.135c-.648.894-1.29 1.794-1.92 2.7.63-.906 1.272-1.806 1.92-2.7zm296.532 0c.648.894 1.29 1.794 1.92 2.7-.63-.906-1.272-1.806-1.92-2.7zm-298.698 3.054c-2.698 3.888-5.25 7.885-7.646 11.985 2.396-4.1 4.948-8.097 7.646-11.985zm-7.646 11.985c-.58.99-1.147 1.985-1.707 2.986.56-1 1.13-1.997 1.707-2.986zm308.51-11.985c2.698 3.888 5.25 7.885 7.646 11.985-2.397-4.1-4.948-8.097-7.646-11.985zm7.646 11.985c.578.99 1.147 1.985 1.707 2.986-.56-1-1.128-1.997-1.707-2.986zm-318.045 3.312c-.56 1.004-1.11 2.012-1.65 3.027.54-1.014 1.09-2.022 1.65-3.026zm-1.65 3.027c-2.848 5.35-5.436 10.856-7.752 16.505 2.316-5.648 4.906-11.156 7.753-16.504zm-7.752 16.505c-2.315 5.65-4.356 11.44-6.107 17.356 1.75-5.915 3.793-11.706 6.108-17.355zm-6.107 17.356C75.636 220.397 73 237.886 73 256c0 .62.017 1.235.023 1.854 144.706 30.36 121.43 62.398 148.02 177.806C232.358 437.843 244.04 439 256 439c11.96 0 23.642-1.157 34.957-3.34 26.59-115.408 3.314-147.445 148.02-177.806.006-.62.023-1.234.023-1.854 0-18.115-2.636-35.604-7.523-52.12C346.67 182.72 301.07 172 256 172c-45.07 0-90.67 10.72-175.477 31.88zm350.954 0c-1.75-5.916-3.792-11.706-6.108-17.355 2.314 5.65 4.356 11.44 6.107 17.356zm-6.108-17.355c-2.317-5.65-4.905-11.155-7.753-16.504 2.847 5.35 5.437 10.857 7.752 16.505zm-7.753-16.504c-.54-1.014-1.09-2.022-1.65-3.026.56 1.004 1.11 2.012 1.65 3.027zm-126.66 265.64c1.31-.253 2.614-.518 3.914-.8-1.3.282-2.603.547-3.913.8zm3.914-.8c9.1-1.962 17.943-4.6 26.48-7.858-8.536 3.258-17.382 5.896-26.48 7.86zm26.48-7.858c1.22-.465 2.432-.943 3.638-1.434-1.206.49-2.42.97-3.638 1.434zm3.638-1.434c8.44-3.43 16.564-7.473 24.32-12.072-7.756 4.6-15.88 8.64-24.32 12.072zM221.043 435.66c-1.31-.253-2.614-.518-3.914-.8 1.3.282 2.603.547 3.913.8zm-3.914-.8c-9.098-1.962-17.944-4.6-26.48-7.858 8.537 3.26 17.38 5.896 26.48 7.86zm-26.48-7.858c-1.22-.465-2.432-.943-3.638-1.434 1.206.49 2.42.97 3.638 1.434zm-3.638-1.434c-8.44-3.43-16.564-7.473-24.32-12.072 7.756 4.6 15.88 8.64 24.32 12.072zM256 183c40.21 0 73 32.79 73 73s-32.79 73-73 73-73-32.79-73-73 32.79-73 73-73zm0 18c-30.482 0-55 24.518-55 55s24.518 55 55 55 55-24.518 55-55-24.518-55-55-55zM73.023 257.89c.084 8.274.714 16.415 1.858 24.39-1.143-7.974-1.773-16.116-1.857-24.39zm1.858 24.39c.188 1.303.39 2.603.604 3.898-.214-1.295-.416-2.595-.603-3.9zm364.097-24.39c-.084 8.274-.714 16.416-1.858 24.39 1.143-7.975 1.773-16.115 1.857-24.39zm-1.858 24.39c-.188 1.303-.39 2.603-.604 3.898.214-1.295.416-2.595.603-3.9zM75.51 286.33c.215 1.296.445 2.588.687 3.875-.242-1.287-.472-2.58-.687-3.875zm.687 3.875c1.485 7.87 3.47 15.56 5.926 23.037-2.455-7.477-4.442-15.167-5.926-23.037zm5.926 23.037c.405 1.233.822 2.46 1.252 3.682-.43-1.222-.847-2.45-1.252-3.682zm354.367-26.912c-.215 1.296-.445 2.588-.687 3.875.242-1.287.472-2.58.687-3.875zm-.687 3.875c-1.484 7.87-3.47 15.56-5.926 23.037 2.455-7.477 4.44-15.167 5.926-23.037zm-5.926 23.037c-.405 1.233-.822 2.46-1.252 3.682.43-1.222.847-2.45 1.252-3.682zM83.4 316.998c.432 1.224.876 2.44 1.332 3.652-.456-1.21-.9-2.43-1.332-3.652zm1.332 3.652c2.76 7.32 5.974 14.416 9.61 21.252-3.636-6.837-6.85-13.93-9.61-21.252zm343.868-3.652c-.432 1.223-.876 2.442-1.332 3.652.456-1.21.9-2.428 1.332-3.652zm-1.332 3.652c-2.76 7.32-5.974 14.415-9.61 21.252 3.636-6.836 6.85-13.93 9.61-21.252zM94.365 341.945c.59 1.107 1.19 2.206 1.8 3.3-.61-1.093-1.21-2.194-1.8-3.3zm323.27 0c-.59 1.106-1.19 2.207-1.8 3.3.61-1.094 1.21-2.193 1.8-3.3zm-321.38 3.46c.618 1.103 1.246 2.197 1.886 3.284-.64-1.088-1.267-2.182-1.884-3.284zm1.886 3.284c.654 1.11 1.317 2.216 1.993 3.312-.676-1.096-1.34-2.2-1.992-3.313zm1.993 3.312c3.38 5.48 7.04 10.77 10.963 15.846-3.922-5.077-7.584-10.365-10.963-15.846zm10.963 15.846c.77.996 1.55 1.984 2.34 2.964-.79-.98-1.57-1.968-2.34-2.964zm304.648-22.442c-.617 1.102-1.245 2.196-1.885 3.283.64-1.088 1.267-2.182 1.884-3.284zm-1.885 3.283c-.654 1.11-1.317 2.216-1.993 3.312.676-1.096 1.34-2.2 1.992-3.313zM411.866 352c-3.38 5.48-7.04 10.77-10.963 15.846 3.922-5.077 7.583-10.365 10.963-15.846zm-10.963 15.846c-.77.996-1.55 1.985-2.34 2.964.79-.98 1.57-1.968 2.34-2.964zm-287.384 3.068c.78.97 1.573 1.93 2.375 2.88-.802-.952-1.593-1.91-2.375-2.88zm284.96 0c-.782.97-1.573 1.928-2.375 2.88.802-.95 1.594-1.91 2.375-2.88zm-282.505 2.977c5.766 6.844 12.024 13.257 18.722 19.187-6.697-5.93-12.957-12.344-18.722-19.187zm18.722 19.187c.96.85 1.927 1.688 2.905 2.518-.978-.83-1.945-1.668-2.905-2.518zm2.905 2.518c6.84 5.806 14.116 11.116 21.77 15.88-7.654-4.763-14.93-10.075-21.77-15.88zm21.77 15.88c1.088.676 2.184 1.343 3.288 2-1.104-.656-2.2-1.324-3.29-2zm236.653-37.585c-5.765 6.843-12.025 13.258-18.722 19.187 6.698-5.93 12.956-12.343 18.722-19.187zm-18.722 19.187c-.96.85-1.927 1.688-2.905 2.518.978-.83 1.945-1.67 2.905-2.518zm-2.905 2.518c-6.84 5.805-14.116 11.117-21.77 15.88 7.654-4.764 14.93-10.074 21.77-15.88zm-21.77 15.88c-1.088.676-2.184 1.344-3.288 2 1.104-.657 2.2-1.324 3.29-2z" fill="#fff" fill-rule="evenodd"/></svg>