<svg xmlns="http://www.w3.org/2000/svg" viewBox="0 0 512 512"><path d="M0 0h512v512H0z"/><path fill="#fff" d="M365.054 30.738c-3.016.074-6.17 1.16-8.87 3.586l-38.678 47.41c8.225 3.647 17.252 3.705 26.892 3.575 11.97-16.446 25.24-34.404 27.94-36.94 9.566-8.977 1.767-17.852-7.284-17.632zM258.26 58.2c-1.002.013-2.182.062-3.495.16-5.248.39-12.652 1.495-21.238 3.125-17.172 3.258-39.202 8.58-60.824 14.216-32.485 8.47-58.144 15.937-71.856 19.976 2.073 1.402 4.425 2.72 7.416 3.87 8.123 3.127 19.547 4.908 33.14 5.02 27.19.226 62.91-6.04 99.872-17.173l8.62 15.304c-20.658 18.6-25.676 33.58-25.733 44.01-.057 10.43 5.927 17.63 7.297 18.625 10.522 7.655 24.934 7.117 42.77-.11 17.837-7.23 37.717-21.082 55.46-36.76l9.22-8.145 4.973 11.253c12.864 29.12 25.293 55.523 40.49 72.61 13.06 14.683 27.167 22.893 47.678 22.25-8.806-27.476-13.976-47.597-21.46-64.213-8.467-18.796-20.04-34.46-45.844-55.87-3.222-2.672-9.5-3.187-19.47-3.046-9.968.142-22.776.575-35.77-5.42-14.21-6.554-21.73-13.274-27.643-19.726-5.737-6.26-10.127-11.905-20.63-19.748-.154-.057-.2-.11-.554-.14-.597-.052-1.42-.077-2.42-.065zm-40.686 54.236c-19.318 4.625-37.91 7.81-54.98 9.254-.16.984-.365 1.984-.637 2.994-2.394 8.895-8.358 15.024-13.32 13.69-4.453-1.2-6.575-8.004-5.237-15.815-.715 0-1.437.01-2.144.005-9.518-.08-18.35-.84-26.377-2.475-4.02 4.782-7.788 9.877-11.23 15.33-7.21 11.424-8.955 26.465-12.027 41.352.513-.155 1.02-.245 1.517-.27.547-.02 1.08.04 1.592.178 4.962 1.336 7.044 9.63 4.65 18.525-2.337 8.663-8.077 14.737-12.992 13.746-5.496 44.005-5.82 93.13-6.068 138.79-.293 54.27-4.745 99.537 26.96 129.116 85.692 24.08 196.236-55.226 261.987-122.207-2.384.757-4.512.597-6.096-.458-4.274-2.855-3.59-11.38 1.525-19.04 3.82-5.72 9.21-9.546 13.57-9.632 1.31-.026 2.474.29 3.433.93 3.197 2.144 3.7 7.6 1.27 13.722 23.46-25.75 38.995-48.198 42.148-59.98 2.045-12.51 2.41-24.496 1.456-35.942-1.25-.07-2.492-.157-3.717-.283-.202 3.045-1.142 6.488-2.862 9.883-4.166 8.216-11.258 12.993-15.842 10.67-4.583-2.325-4.922-10.868-.758-19.084.93-1.836 2.02-3.506 3.2-4.975-8.803-2.947-16.777-7.45-23.934-13.153 1.212 3.97-.146 10.034-3.893 15.643-5.115 7.66-12.727 11.555-17 8.7-4.275-2.854-3.592-11.378 1.525-19.038 3.82-5.722 9.21-9.547 13.57-9.633.274-.006.538.012.8.036-2.344-2.165-4.593-4.46-6.74-6.875-12.835-14.43-22.908-32.84-32.34-52.825-2.74 3.69-6.143 5.672-9.177 4.855-3.652-.982-5.736-5.737-5.633-11.722-13.807 10.522-28.304 19.588-42.785 25.457-.01.004-.02.008-.03.01-2.5 8.557-8.288 14.377-13.134 13.074-2.746-.74-4.603-3.616-5.315-7.54-14.882 2.83-29.484 1.282-41.64-7.56-7.024-5.11-13.545-15.032-14.556-29.167-2.833 4.268-6.536 6.65-9.81 5.77-4.964-1.335-7.047-9.63-4.653-18.526 2.11-7.84 7.063-13.693 11.732-13.865.547-.02 1.08.038 1.592.176 1.888.508 3.356 2.028 4.322 4.2 1.833-5.157 4.474-10.525 8.078-16.042zm-51.686 33.91c.547-.02 1.08.04 1.59.178 4.963 1.336 7.045 9.63 4.65 18.525-2.393 8.894-8.357 15.023-13.32 13.688-4.962-1.336-7.044-9.63-4.65-18.525 2.11-7.84 7.062-13.694 11.73-13.867zm-35.398 4.308c.546-.02 1.078.04 1.59.178 4.963 1.335 7.046 9.63 4.652 18.526-2.394 8.895-8.357 15.024-13.32 13.69-4.963-1.336-7.046-9.63-4.652-18.526 2.11-7.84 7.06-13.695 11.73-13.868zm188.12 13.93c.545-.02 1.077.04 1.59.176 4.96 1.336 7.043 9.63 4.65 18.525-2.394 8.896-8.358 15.025-13.32 13.69-4.963-1.337-7.045-9.63-4.65-18.526 2.11-7.84 7.06-13.693 11.73-13.866zm-135.083 18.87c.546-.02 1.078.04 1.59.177 4.964 1.336 7.047 9.63 4.652 18.528-2.395 8.897-8.36 15.025-13.323 13.688-4.962-1.337-7.044-9.63-4.65-18.526 2.11-7.84 7.062-13.692 11.73-13.865zm44.234 9.337c.548-.02 1.08.04 1.59.18 4.965 1.334 7.048 9.628 4.654 18.524-2.395 8.897-8.36 15.025-13.323 13.688-4.96-1.337-7.043-9.63-4.65-18.526 2.11-7.84 7.063-13.692 11.73-13.865zm67.357 9.743c.546-.02 1.078.04 1.59.176 4.963 1.334 7.046 9.628 4.652 18.525-2.395 8.897-8.36 15.026-13.323 13.69-4.962-1.338-7.044-9.63-4.65-18.526 2.11-7.84 7.06-13.694 11.73-13.867zm39.383 1.78c.547-.02 1.08.04 1.592.177 4.962 1.337 7.044 9.63 4.65 18.526-2.394 8.895-8.357 15.024-13.32 13.69-4.964-1.336-7.047-9.63-4.653-18.526 2.11-7.84 7.06-13.694 11.73-13.867zm-197.656 2.98c.546-.02 1.08.038 1.59.176 4.964 1.335 7.046 9.63 4.652 18.526-2.395 8.895-8.358 15.023-13.32 13.688-4.964-1.335-7.047-9.63-4.653-18.526 2.11-7.84 7.062-13.692 11.73-13.865zm121.175 18.87c.546-.02 1.08.04 1.59.18 4.963 1.335 7.045 9.63 4.65 18.524-2.392 8.896-8.356 15.025-13.32 13.69-4.962-1.335-7.045-9.63-4.65-18.526 2.108-7.84 7.06-13.693 11.73-13.866zm-157.926 14.9c.546-.02 1.078.04 1.59.177 4.963 1.335 7.046 9.63 4.652 18.526-2.394 8.895-8.358 15.024-13.32 13.69-4.964-1.336-7.047-9.63-4.653-18.526 2.11-7.84 7.062-13.694 11.73-13.867zm209.746 5.93c.546-.02 1.078.04 1.59.177 4.963 1.335 7.046 9.63 4.652 18.525-2.394 8.897-8.36 15.027-13.322 13.69-4.963-1.337-7.045-9.63-4.65-18.525 2.11-7.84 7.06-13.693 11.73-13.866zM201.515 249.7c5.133.266 8.906 7.94 8.426 17.142-.478 9.2-5.028 16.442-10.16 16.174-5.134-.267-8.907-7.942-8.427-17.143.48-9.2 5.03-16.442 10.162-16.174zm-45.68 11.158c.548-.02 1.08.04 1.593.177 4.962 1.337 7.044 9.63 4.65 18.526-2.394 8.896-8.358 15.025-13.32 13.69-4.964-1.334-7.048-9.63-4.653-18.527 2.11-7.84 7.062-13.693 11.73-13.865zm197.15 7.07c1.31-.026 2.475.29 3.435.93 4.274 2.854 3.59 11.38-1.528 19.04-5.116 7.66-12.728 11.556-17.002 8.702-4.274-2.855-3.59-11.38 1.526-19.04 3.82-5.72 9.21-9.546 13.57-9.632zm47.806 6.668c1.018.043 1.94.312 2.735.8 4.385 2.68 4.046 11.224-.758 19.085-4.803 7.862-12.253 12.062-16.638 9.38-4.386-2.68-4.047-11.224.756-19.084 3.588-5.87 8.818-9.91 13.17-10.172.25-.016.495-.018.735-.008zM240.796 279.7c.546-.02 1.078.04 1.59.177 4.963 1.335 7.046 9.63 4.652 18.526-2.394 8.896-8.36 15.026-13.322 13.69-4.963-1.338-7.045-9.63-4.65-18.526 2.11-7.84 7.06-13.693 11.73-13.866zm48.62 10.025c1.31-.026 2.473.29 3.432.93 4.274 2.856 3.592 11.38-1.525 19.04-5.117 7.662-12.73 11.558-17.004 8.704-4.274-2.856-3.59-11.382 1.527-19.042 3.82-5.72 9.21-9.546 13.57-9.633zM105.38 300.057c.547-.02 1.08.038 1.59.176 4.964 1.334 7.047 9.63 4.653 18.525-2.394 8.897-8.36 15.026-13.322 13.69-4.962-1.337-7.044-9.63-4.65-18.526 2.11-7.84 7.062-13.693 11.73-13.865zm220.706 9.53c1.31-.027 2.474.288 3.433.93 4.273 2.854 3.59 11.38-1.528 19.04-5.117 7.66-12.728 11.555-17.002 8.7-4.274-2.853-3.59-11.377 1.525-19.038 3.822-5.723 9.21-9.548 13.57-9.634zM194.95 310.59c.545-.02 1.077.04 1.59.178 4.962 1.335 7.045 9.63 4.65 18.525-2.393 8.897-8.358 15.026-13.32 13.69-4.963-1.337-7.045-9.63-4.65-18.526 2.108-7.84 7.06-13.694 11.73-13.867zm-52.528 5.91c.546-.02 1.078.04 1.59.178 4.963 1.335 7.046 9.63 4.652 18.525-2.395 8.897-8.36 15.025-13.322 13.688-4.963-1.336-7.045-9.63-4.65-18.525 2.11-7.84 7.06-13.692 11.73-13.865zm119.26 16.744c1.31-.025 2.474.29 3.433.932 4.274 2.854 3.59 11.378-1.525 19.04-5.118 7.66-12.73 11.556-17.004 8.7-4.273-2.855-3.59-11.38 1.527-19.04 3.82-5.72 9.21-9.545 13.568-9.632zm30.216 22.533c1.31-.026 2.475.29 3.434.93 4.273 2.856 3.59 11.38-1.528 19.04-5.116 7.66-12.727 11.555-17 8.702-4.277-2.854-3.594-11.38 1.524-19.042 3.822-5.72 9.21-9.545 13.57-9.63zm40.227 1.49c1.31-.027 2.474.29 3.433.93 4.273 2.856 3.59 11.38-1.527 19.04-5.116 7.66-12.727 11.555-17 8.7-4.275-2.854-3.592-11.378 1.524-19.038 3.822-5.723 9.21-9.548 13.57-9.634zm-130.244.403c.548-.02 1.08.04 1.592.178 4.963 1.336 7.045 9.63 4.65 18.525-2.393 8.895-8.357 15.023-13.32 13.688-4.963-1.334-7.046-9.628-4.652-18.525 2.11-7.84 7.062-13.692 11.73-13.865zm-94.833 12.516c.546-.02 1.078.038 1.59.175 4.964 1.336 7.047 9.632 4.652 18.53-2.396 8.895-8.36 15.024-13.323 13.686-4.963-1.336-7.045-9.63-4.65-18.525 2.11-7.838 7.06-13.692 11.73-13.864zm47.625 10.414c.547-.02 1.08.04 1.59.177 4.964 1.337 7.046 9.63 4.652 18.526-2.394 8.895-8.358 15.024-13.32 13.69-4.965-1.335-7.048-9.63-4.653-18.528 2.11-7.84 7.063-13.693 11.732-13.865zm74.908 19.38c1.31-.025 2.474.29 3.433.932 4.274 2.855 3.592 11.38-1.525 19.04-5.117 7.66-12.73 11.556-17.004 8.7-4.273-2.855-3.59-11.38 1.527-19.04 3.822-5.72 9.21-9.544 13.57-9.63zm41.133 6.528c1.31-.026 2.474.29 3.433.93 4.276 2.853 3.593 11.38-1.525 19.04-5.116 7.662-12.73 11.558-17.003 8.702-4.274-2.854-3.59-11.378 1.525-19.04 3.822-5.72 9.21-9.546 13.57-9.632zM119.96 433.754c.545-.02 1.077.038 1.59.176 4.962 1.335 7.045 9.63 4.65 18.525-2.393 8.896-8.356 15.025-13.32 13.69-4.963-1.335-7.046-9.63-4.652-18.526 2.11-7.84 7.062-13.693 11.73-13.866zm62.358 9.758c1.31-.026 2.475.29 3.434.93 4.274 2.854 3.59 11.378-1.526 19.04-5.116 7.66-12.73 11.557-17.004 8.702-4.274-2.855-3.59-11.38 1.528-19.04 3.82-5.72 9.21-9.546 13.568-9.632z"/></svg>