<svg xmlns="http://www.w3.org/2000/svg" viewBox="0 0 512 512"><path d="M0 0h512v512H0z"/><path fill="#fff" d="M199.777 26.12c.022-.028-.033.044-.136.083-.098.037-.098.001.08.006.009-.012.053-.085.056-.09zm-1.783 12.214c-2.008 8.804.28 25.34 6.2 32.52.126.112 115.806 0 115.806 0 4 0 4-27.854-17.84-27.998-21.842-.143-64.213-5.08-83.874-9.933s-18.802-1.121-20.292 5.411zM247 89v23h18V89zm0 41v14h18v-14zm0 32v159.31a31.612 31.612 0 0 1 9-1.31c3.121 0 6.14.463 9 1.31V162zm35.613 55.602v18.375C335.585 248.032 375 295.324 375 352c0 65.828-53.172 119-119 119s-119-53.172-119-119c0-56.538 39.223-103.74 92-115.938v-18.386C166.335 230.246 119 285.684 119 352c0 75.556 61.444 137 137 137s137-61.444 137-137c0-66.452-47.53-121.98-110.387-134.398zM288 295v12.273l-16.678 16.678a32.467 32.467 0 0 1 12.727 12.727L307.727 313H336v-18zm-32 43c-7.839 0-14 6.161-14 14s6.161 14 14 14 14-6.161 14-14-6.161-14-14-14zm-28.049 29.322L204.273 391H176v18h48v-12.273l16.678-16.678a32.467 32.467 0 0 1-12.727-12.727z"/></svg>