<svg xmlns="http://www.w3.org/2000/svg" viewBox="0 0 512 512"><path d="M0 0h512v512H0z"/><path fill="#fff" d="M256.27 20.925c-52.273 37.769-79.069 91.434-103.745 141.186 43.382-24.61 101.684-32.948 126.85-28.668-63.746 10.515-107.937 25.792-144.383 64.272-2.19 4.454-4.085 8.327-6.43 13.07 115.463-27.833 134.484-26.974 250.903-.637C368 160 342.953 128 304 67.285 345.913 119.821 428.148 209.456 424.334 192 401.444 87.226 324.214 24.989 256.271 20.925zM87.989 232.682c-31.046 7.383-53.906 17.49-62.797 26.69.932 11.765 6.717 22.121 17.506 31.985 11.813 10.8 29.562 20.427 51.319 28.163a273.08 273.08 0 0 0 8.046 2.716c-8.35-11.066-11.142-26.325-12.992-41.119C86.98 264.384 87 248 87 240c0-2.523.338-4.991.988-7.318zm336.024 0A27.24 27.24 0 0 1 425 240c0 8 .021 24.384-2.07 41.117-1.85 14.794-4.643 30.053-12.993 41.12a273.093 273.093 0 0 0 8.047-2.717c21.757-7.736 39.506-17.363 51.319-28.163 10.789-9.864 16.574-20.22 17.506-31.986-8.891-9.2-31.751-19.306-62.797-26.69zm-274.45.318l-7 14h98.875l-7-14zm128 0l-7 14h98.875l-7-14zM119 242.441a395.458 395.458 0 0 0-13.97 4.104c.08 8.545.419 20.491 1.9 32.338 1.671 13.374 5.511 25.881 9.672 32.117H119zm274 0V311h2.398c4.16-6.236 8-18.743 9.672-32.117 1.481-11.847 1.82-23.793 1.9-32.338A395.458 395.458 0 0 0 393 242.44zM137.133 265c-.355 18.784 1.943 39.52 6.205 55.693C164.368 306.628 185.205 295 208 295c3.244 0 6.366.152 9.365.443l5.233-15.699c-5.558 5.62-12.91 8.865-23.149 8.504-25.23-.89-33.994-11.133-37.588-23.248zm109.355 0l-12.402 37.201L256 329.594l21.914-27.393-12.4-37.201zm103.65 0c-3.593 12.115-12.356 22.357-37.587 23.248-10.24.361-17.593-2.884-23.15-8.504l5.234 15.7A96.764 96.764 0 0 1 304 295c22.795 0 43.632 11.628 64.662 25.693 4.438-20.098 6.842-37.627 6.205-55.693zM208 313c-20 0-42.956 14.455-68.877 32.4-19.18 13.278-39.947 28.109-63.309 38.405 28.54 6.086 65.79 4.784 98.192-2.58 21.253-4.83 40.458-12.145 53.654-20.563 8.58-5.473 14.158-11.082 17.026-16.398L220.49 314.02c-3.723-.65-7.877-1.02-12.49-1.02zm96 0c-4.613 0-8.767.37-12.49 1.02l-24.196 30.244c2.868 5.316 8.447 10.925 17.026 16.398 13.196 8.418 32.401 15.732 53.654 20.563 32.402 7.364 69.652 8.666 98.192 2.58-23.362-10.296-44.13-25.127-63.309-38.405C346.956 327.455 324 313 304 313zm-177.617 16c.222.053.44.11.662.162L127 329h-.617zM385 329l-.045.162c.222-.053.44-.109.662-.162zm-129 30.709c-4.565 5.707-10.576 10.804-17.395 15.291h34.79c-6.82-4.487-12.832-9.582-17.395-15.291zM199.252 393c-6.818 2.182-13.934 4.11-21.258 5.775a299.581 299.581 0 0 1-28.855 5.077c6.095 19.676 14.08 39.577 22.986 58.279l.064.13c4.336-6.673 9.43-13.021 13.547-19.788-2.453 13.94-3.288 27.88-2.343 41.82a522.587 522.587 0 0 0 5.35 9.707h134.515a516.904 516.904 0 0 0 10.353-19.24c5.369-21.84 3.843-42.8 5.42-64.155 3.111 11.494 6.06 23.033 8.43 34.73 5.843-13.608 11.098-27.598 15.4-41.483a299.581 299.581 0 0 1-28.855-5.077c-7.324-1.664-14.44-3.593-21.258-5.775H199.252z"/></svg>