<svg xmlns="http://www.w3.org/2000/svg" viewBox="0 0 512 512"><path d="M0 0h512v512H0z"/><path d="M424.701 61.255l10.607-10.607-11.795-11.794-10.606 10.607 11.802 11.802zm-84.188-30.582l.507-.507a14.225 14.225 0 0 1 20.117 0l1.877 1.877-10.565 10.565-11.928-11.927zM104.511 266.077l16.48-6.13 5.04 9.078-24.676 24.677c-6.503-7.068-5.174-19.278 3.156-27.609zm345.216 32.683l-3.207 30.018a637.174 637.174 0 0 1-148.607-34.353l23.704-23.705a606.974 606.974 0 0 0 128.11 28.04zm-320.19 183.974c-12.758-14.668-59.32-65.848-59.32-65.848-7.102-7.102-11.338-14.394-4.427-21.305 4.908-4.908 18.289-6.063 23.397-9.825l19.942 20.224.092.092a30.211 30.211 0 0 0 2.384 2.118c-3.913-.324-8.306 2.707-5.499 8.67 8.763 19.063 20.607 42.004 33.53 59.147 4.885 6.495-3.205 14.635-10.074 6.736zM379.26 42.392l31.197 31.197.955.955-.175.175a4.698 4.698 0 0 1-.664 5.017L300.222 217.479l-48.025-48.024 127.08-127.08zm-68.307 212.43l-72.062-72.061-146.739 146.74a9.514 9.514 0 0 0-2.342 9.584l9.452 30.067 23.298 23.614c6.512 6.511 12.068 1.055 38.655-25.532l1.28-1.28c10.265-10.266 31.262-14.186 37.425-1.262 2.592 5.432 16.247 70.317 16.247 70.317a7.106 7.106 0 0 0 9.011 5.191l39.677-12.184a6.108 6.108 0 0 0 2.824-1.33c2.974-2.973-5.889-8.612-8.646-15.373-2.758-6.761-8.721-23.888-14.502-40.765a5.65 5.65 0 0 1 1.354-5.823 5.591 5.591 0 0 1 1.769-1.188c6.678-2.84 32.982-24.842 34.893-26.753l.041-.041c5.466-5.731-3.563-31.321-7.118-38.996a8.01 8.01 0 0 1 1.612-9.037l33.896-33.896zM239.24 355.074a2480.24 2480.24 0 0 1-5.041-15.009 10.83 10.83 0 0 1 2.616-11.105l27.41-27.409a4.792 4.792 0 0 1 7.74 1.379c3.298 7.135 10.009 26.736 6.736 30.158l-.232.233c-3.987 3.987-26.13 22.392-32.053 24.959a5.356 5.356 0 0 1-7.16-3.223zm7.127-127.279a9.397 9.397 0 0 1 0 13.29l-98.84 98.839a9.397 9.397 0 0 1-13.29-13.29l98.84-98.839a9.397 9.397 0 0 1 13.314-.025z" fill="#fff"/></svg>