<svg xmlns="http://www.w3.org/2000/svg" viewBox="0 0 512 512" style="height: 512px; width: 512px;"><path d="M0 0h512v512H0z" fill="#000" fill-opacity="1"></path><g class="" transform="translate(0,0)" style="touch-action: none;"><path d="M 411 68.31 v 0.725 c 0 25.923 -53.59 46.933 -155 46.933 c -106.453 0 -155 -21.057 -155 -46.933 v -0.725 v -0.527 c 0 -15.008 16.728 -26.905 49.705 -35.246 c 28.24 -7.183 65.627 -11.137 105.283 -11.137 c 39.657 0 77.056 3.954 105.283 11.137 c 32.99 8.387 49.707 20.238 49.707 35.246 c 0.023 0.187 0 0.35 -0.012 0.527 Z m -177.004 -0.527 c 0 -4.13 -13.184 -7.487 -29.444 -7.487 c -16.26 0 -29.444 3.346 -29.444 7.487 c 0 4.14 13.183 7.487 29.444 7.487 c 16.26 0 29.42 -3.346 29.42 -7.475 Z m 167.646 97.89 V 105.51 q -12.997 9.92 -39.634 16.705 c -28.473 7.24 -66.117 11.218 -106.008 11.218 c -39.89 0 -77.535 -3.99 -106.008 -11.218 q -26.614 -6.762 -39.634 -16.705 v 60.163 C 104.135 170.96 101 176.856 101 183.35 v 1.122 c 0 25.91 48.547 46.968 155 46.968 c 101.41 0 155 -21.057 155 -46.933 v -0.655 v -0.468 c 0 -6.528 -3.135 -12.423 -9.358 -17.71 Z m 0 128.89 v -73.488 q -12.997 9.92 -39.634 16.705 c -28.473 7.24 -66.117 11.207 -106.008 11.207 c -39.89 0 -77.535 -3.99 -106.008 -11.22 q -26.614 -6.76 -39.634 -16.703 v 73.546 c -6.223 5.287 -9.358 11.183 -9.358 17.675 v 0.89 c 0 25.887 48.547 46.944 155 46.944 c 101.41 0 155 -21.058 155 -46.934 v -0.514 v -0.375 c 0 -6.55 -3.135 -12.447 -9.358 -17.687 Z m 8.878 145.396 q -1.626 -7.254 -8.878 -13.42 v -76.587 q -12.997 9.92 -39.634 16.705 c -28.46 7.24 -66.117 11.22 -106.008 11.22 c -39.89 0 -77.547 -3.99 -106.008 -11.22 q -26.614 -6.76 -39.634 -16.705 v 76.588 q -7.24 6.154 -8.878 13.42 a 14.786 14.786 0 0 0 -0.48 3.707 v 0.56 q 0 8.448 7.02 15.537 C 124.98 477.754 172.79 490.6 256 490.6 c 60.245 0 103.598 -7.417 128.89 -18.87 c 17.336 -7.498 26.11 -16.646 26.11 -27.513 v -0.293 v -0.27 a 14.786 14.786 0 0 0 -0.48 -3.695 Z" fill="#fff" fill-opacity="1"></path></g></svg>