<svg xmlns="http://www.w3.org/2000/svg" viewBox="0 0 512 512"><path d="M0 0h512v512H0z"/><path fill="#fff" d="M401.642 85.436v-15.08a21.548 21.548 0 0 1 5.696 8.903 31.363 31.363 0 0 1-5.696 6.176zM411 68.31v.725c0 25.923-53.59 46.933-155 46.933-106.453 0-155-21.057-155-46.933v-.725-.527c0-15.008 16.728-26.905 49.705-35.246 28.24-7.183 65.627-11.137 105.283-11.137 39.657 0 77.056 3.954 105.283 11.137 32.99 8.387 49.707 20.238 49.707 35.246.023.187 0 .35-.012.527zm-177.004-.527c0-4.13-13.184-7.487-29.444-7.487-16.26 0-29.444 3.346-29.444 7.487 0 4.14 13.183 7.487 29.444 7.487 16.26 0 29.42-3.346 29.42-7.475zm167.646 97.89V105.51q-12.997 9.92-39.634 16.705c-28.473 7.24-66.117 11.218-106.008 11.218-39.89 0-77.535-3.99-106.008-11.218q-26.614-6.762-39.634-16.705v60.163C104.135 170.96 101 176.856 101 183.35v1.122c0 25.91 48.547 46.968 155 46.968 101.41 0 155-21.057 155-46.933v-.655-.468c0-6.528-3.135-12.423-9.358-17.71zm0 128.89v-73.488q-12.997 9.92-39.634 16.705c-28.473 7.24-66.117 11.207-106.008 11.207-39.89 0-77.535-3.99-106.008-11.22q-26.614-6.76-39.634-16.703v73.546c-6.223 5.287-9.358 11.183-9.358 17.675v.89c0 25.887 48.547 46.944 155 46.944 101.41 0 155-21.058 155-46.934v-.514-.375c0-6.55-3.135-12.447-9.358-17.687zm8.878 145.396q-1.626-7.254-8.878-13.42v-76.587q-12.997 9.92-39.634 16.705c-28.46 7.24-66.117 11.22-106.008 11.22-39.89 0-77.547-3.99-106.008-11.22q-26.614-6.76-39.634-16.705v76.588q-7.24 6.154-8.878 13.42a14.786 14.786 0 0 0-.48 3.707v.56q0 8.448 7.02 15.537C124.98 477.754 172.79 490.6 256 490.6c60.245 0 103.598-7.417 128.89-18.87 17.336-7.498 26.11-16.646 26.11-27.513v-.293-.27a14.786 14.786 0 0 0-.48-3.695z"/></svg>