<svg width="512" height="512" viewBox="0 0 512 512" fill="none" xmlns="http://www.w3.org/2000/svg">
<g clip-path="url(#clip0_12_54)">
<g clip-path="url(#clip1_12_54)">
<path d="M0 0H512V512H0V0Z" fill="black"/>
<path fill-rule="evenodd" clip-rule="evenodd" d="M277.542 254.788L264.484 283.941C261.89 283.635 259.311 283.46 256.746 283.444C248.327 283.392 240.144 284.883 232.492 287.647L213.985 261.728L178.937 287.325L198.091 314.116C192.352 322.404 188.3 332.026 186.549 342.573L152.544 346.304L156.799 389.487L192.991 385.507C197.037 393.626 202.605 400.927 209.384 406.975L193.937 441.502L233.24 459.089L248.762 424.412C258.04 425.4 267.133 424.514 275.627 422.024L298.014 452.694L333.084 427.154L311.746 397.223C317.381 389.881 321.64 381.358 324.084 371.973L359.456 368.118L355.203 324.935L321.572 328.244C317.656 318.2 311.504 309.177 303.612 301.901L316.845 272.374L277.542 254.788ZM291.1 354.761C289.957 336.042 274.323 321.66 255.776 321.851C255.179 321.858 254.566 321.89 253.961 321.926C234.637 323.106 219.948 339.717 221.126 359.039C222.305 378.363 238.915 393.055 258.241 391.874C277.564 390.695 292.278 374.084 291.1 354.761Z" fill="white"/>
<path fill-rule="evenodd" clip-rule="evenodd" d="M325.273 284.866L318.829 299.244C322.902 303.956 326.439 309.113 329.371 314.615L366.687 310.943L370.152 346.13C382.042 345.581 393.901 344.135 405.628 341.794L394.234 284.666C371.284 289.247 347.867 289.24 325.273 284.866ZM234.456 268.371L216.883 243.761L161.154 284.461L182.753 314.672C180.014 319.743 177.774 325.151 176.116 330.841L138.564 334.961L145.329 403.625L165.265 401.433C165.316 401.929 165.393 402.423 165.495 402.913L175.059 448.655C175.647 451.458 175.676 454.35 175.146 457.164C174.616 459.979 173.536 462.661 171.968 465.058C170.4 467.455 168.376 469.519 166.01 471.133C163.644 472.747 160.983 473.878 158.179 474.463L152.167 475.714C150.426 476.078 148.646 476.095 146.898 475.764C145.151 475.433 143.485 474.762 141.997 473.787C140.51 472.813 139.228 471.555 138.226 470.085C137.225 468.615 136.523 466.962 136.16 465.221L127.137 422.086C126.765 420.309 126.431 418.625 126.117 417.039L126.116 417.038C123.228 402.466 121.974 396.142 107.832 401.399L77.1599 371.461L77.1499 345.373L177.257 245.268L171.647 239.658C169.756 237.736 168.702 235.144 168.713 232.447C168.724 229.751 169.8 227.168 171.707 225.261C173.614 223.355 176.197 222.278 178.893 222.267C181.59 222.256 184.181 223.31 186.104 225.201L218.379 192.927L264.139 238.687L234.456 268.371ZM244.536 191.203C244.871 191.683 245.246 192.134 245.656 192.551L245.691 192.533L275.489 222.331C275.907 222.741 276.357 223.116 276.837 223.451C281.554 226.82 288.502 225.928 292.782 221.088L370.352 133.384C374.64 128.535 374.684 121.473 370.448 117.238L345.708 92.4981C341.263 88.0521 333.772 88.3501 328.968 93.1541L246.312 175.81C244.25 177.755 242.941 180.366 242.616 183.183C242.291 185.999 242.971 188.839 244.536 191.203ZM434.849 51.7521L419.096 36.0001L408.009 52.7761L370.947 89.8381L381.002 99.8931L418.055 62.8401L434.849 51.7521ZM354.512 56.4431C354.512 57.8774 355.082 59.2529 356.096 60.2671L368.348 72.5191L379.427 61.4391L367.176 49.1891C366.674 48.6868 366.077 48.2883 365.421 48.0165C364.765 47.7446 364.062 47.6047 363.351 47.6047C362.641 47.6047 361.938 47.7446 361.282 48.0165C360.625 48.2883 360.029 48.6868 359.527 49.1891L356.096 52.6191C355.082 53.6333 354.512 55.0089 354.512 56.4431Z" fill="white"/>
</g>
</g>
<defs>
<clipPath id="clip0_12_54">
<rect width="512" height="512" fill="white"/>
</clipPath>
<clipPath id="clip1_12_54">
<rect width="512" height="512" fill="white"/>
</clipPath>
</defs>
</svg>
