<svg xmlns="http://www.w3.org/2000/svg" viewBox="0 0 512 512"><path d="M0 0h512v512H0z"/><path d="m 240.38672,4.510902 a 12.50125,12.50125 0 0 0 -11.6582,9.166015 c 0,0 -11.59299,39.746275 -23.17773,89.683593 -11.58475,49.93733 -23.32227,109.73895 -23.32227,152.63868 0,42.89972 11.73752,102.70135 23.32227,152.63867 11.58474,49.93732 23.17773,89.68554 23.17773,89.68554 a 12.50125,12.50125 0 1 0 24,-7 c 0,0 -11.40897,-39.12925 -22.82422,-88.33593 -11.41525,-49.20669 -22.67578,-108.81692 -22.67578,-146.98828 0,-38.17137 11.26053,-97.7816 22.67578,-146.98829 11.41525,-49.20668 22.82422,-88.335936 22.82422,-88.335936 A 12.50125,12.50125 0 0 0 240.38672,4.510902 Z m 76.49024,0 a 12.50125,12.50125 0 0 0 -11.65821,9.166015 c 0,0 -11.59103,39.746275 -23.17578,89.683593 -11.58475,49.93733 -23.32226,109.73895 -23.32226,152.63868 0,42.89972 11.73751,102.70135 23.32226,152.63867 11.58475,49.93732 23.17578,89.68554 23.17578,89.68554 a 12.50125,12.50125 0 1 0 24.00196,-7 c 0,0 -11.40897,-39.12925 -22.82422,-88.33593 -11.41525,-49.20669 -22.67578,-108.81692 -22.67578,-146.98828 0,-38.17137 11.26053,-97.7816 22.67578,-146.98829 11.41525,-49.206681 22.82422,-88.335936 22.82422,-88.335936 A 12.50125,12.50125 0 0 0 316.87696,4.510902 Z m 62.89453,80.30664 a 50,50 0 0 0 -50,50.000008 50,50 0 0 0 50,50 50,50 0 0 0 50,-50 50,50 0 0 0 -50,-50.000008 z M 132.22852,407.49528 a 50,50 0 0 0 -50.000006,50 50,50 0 0 0 50.000006,50 50,50 0 0 0 50,-50 50,50 0 0 0 -50,-50 z" fill="#fff"/></svg>
