<svg xmlns="http://www.w3.org/2000/svg"><path d="M0 0h512v512H0z"/><path d="M 255.81366,6.6341592 A 12.50125,12.50125 0 0 0 243.54413,18.063846 c 0,0 -11.40464,129.443284 -30.54297,208.267574 L 115.24921,153.6322 a 12.50125,12.50125 0 0 0 -9.64648,-2.27734 C 46.545995,161.85189 3.3785819,213.35491 3.3644444,273.33728 a 12.50125,12.50125 0 0 0 0,0.0156 C 3.4206103,333.3027 46.578057,384.75809 105.60273,395.24939 a 12.50125,12.50125 0 1 0 4.375,-24.61328 C 62.719747,362.23627 28.416905,321.3422 28.364444,273.34509 l 0,-0.008 0,-0.008 c 0.01813,-46.27891 31.920045,-85.8823 76.550786,-96.22656 l 100.90234,75.04101 C 179.64535,332.48474 89.270694,484.70447 89.270694,484.70447 a 12.50125,12.50125 0 1 0 21.457036,12.82812 c 0,0 85.11119,-141.41604 116.17187,-229.70898 l 84.60742,62.92383 c 37.56099,80.03467 89.76367,166.78515 89.76367,166.78515 a 12.50125,12.50125 0 1 0 21.45704,-12.82812 c 0,0 -34.27538,-57.74173 -66.72461,-120.86328 l 37.64062,27.99218 a 12.50125,12.50125 0 0 0 5.82813,3.26368 12.50125,12.50125 0 0 0 0.66015,0.15429 12.50125,12.50125 0 0 0 0.125,0.0254 12.50125,12.50125 0 0 0 7.01758,-0.57812 c 57.74581,-11.47602 99.72975,-62.24132 99.78516,-121.3457 a 12.50125,12.50125 0 0 0 0,-0.0156 C 507.04562,213.35525 463.87821,161.85189 404.82148,151.35486 a 12.50125,12.50125 0 0 0 -2.48633,-0.22461 12.50125,12.50125 0 0 0 -1.88867,24.83789 c 47.2891,8.40539 81.60196,49.34665 81.61328,97.37695 -0.0506,46.25327 -31.94798,85.81854 -76.55469,96.15625 L 331.82929,314.70837 C 321.04034,291.56089 311.77178,269.52097 305.89765,251.2865 282.62635,179.04783 268.45429,18.063846 268.45429,18.063846 A 12.50125,12.50125 0 0 0 255.81366,6.6341592 Z m 0.18555,122.9121008 c 6.32999,45.19632 14.93921,94.75417 26.10156,129.4043 2.60008,8.07115 5.74335,16.69362 9.29688,25.6875 l -56.68164,-42.15625 c 8.85454,-32.90089 15.89738,-74.48064 21.2832,-112.93555 z m -128.71094,93.79493 a 50,50 0 0 0 -49.999998,50 50,50 0 0 0 49.999998,50 50,50 0 0 0 50,-50 50,50 0 0 0 -50,-50 z m 255.84571,0 a 50,50 0 0 0 -50,50 50,50 0 0 0 50,50 50,50 0 0 0 50,-50 50,50 0 0 0 -50,-50 z" fill="#fff"/></svg>
