<svg xmlns="http://www.w3.org/2000/svg" viewBox="0 0 512 512"><path d="M0 0h512v512H0z"/><path fill="#fff" d="m 255.81252,75.472384 a 12.50125,12.50125 0 0 0 -12.3125,12.677738 l 0,181.837888 c -85.98716,2.69057 -168.109006,32.20202 -230.935546,83.62304 a 11.817117,11.817117 0 1 0 14.966797,18.28711 C 85.787426,324.21782 162.73293,296.32391 243.50002,293.63059 l 0,68.36914 a 12.50125,12.50125 0 1 0 25,0 l 0,-68.36914 c 80.77186,2.6934 157.71571,30.5896 215.96875,78.26757 a 11.817117,11.817117 0 1 0 14.9668,-18.28711 C 436.61254,302.19271 354.49167,272.67914 268.50002,269.98801 l 0,-181.837888 a 12.50125,12.50125 0 0 0 -12.6875,-12.677738 z m -96.6543,261.056636 a 50,50 0 0 0 -50,50 50,50 0 0 0 50,50 50,50 0 0 0 50,-50 50,50 0 0 0 -50,-50 z m 193.6836,0 a 50,50 0 0 0 -50,50 50,50 0 0 0 50,50 50,50 0 0 0 50,-50 50,50 0 0 0 -50,-50 z"/></svg>
