<svg xmlns="http://www.w3.org/2000/svg" viewBox="0 0 512 512"><path d="M0 0h512v512H0z"/><path fill="#fff" d="M 256.58789 15.347656 A 12.50125 12.50125 0 0 0 245.17383 21.582031 L 5.9082031 436.00391 A 12.50125 12.50125 0 1 0 27.558594 448.50391 L 256 52.833984 L 484.44141 448.50391 A 12.50125 12.50125 0 1 0 506.0918 436.00391 L 266.82617 21.582031 A 12.50125 12.50125 0 0 0 256.58789 15.347656 z M 154.60352 332.42188 A 50 50 0 0 0 104.60352 382.42188 A 50 50 0 0 0 154.60352 432.42188 A 50 50 0 0 0 204.60352 382.42188 A 50 50 0 0 0 154.60352 332.42188 z M 357.39648 332.42188 A 50 50 0 0 0 307.39648 382.42188 A 50 50 0 0 0 357.39648 432.42188 A 50 50 0 0 0 407.39648 382.42188 A 50 50 0 0 0 357.39648 332.42188 z M 256 443.63477 C 172.79431 443.63477 14.564453 471.82422 14.564453 471.82422 A 12.50125 12.50125 0 1 0 18.900391 496.44531 C 18.900391 496.44531 178.60585 468.63477 256 468.63477 C 333.39415 468.63477 493.09961 496.44531 493.09961 496.44531 A 12.50125 12.50125 0 1 0 497.43555 471.82422 C 497.43555 471.82422 339.20569 443.63477 256 443.63477 z "/></svg>
