<svg xmlns="http://www.w3.org/2000/svg" viewBox="0 0 512 512"><path d="M0 0h512v512H0z"/><path fill="#fff" d="m 255.81314,70.774272 a 12.50125,12.50125 0 0 0 -12.3125,12.677735 l 0,151.992183 C 176.51229,233.19627 69.490557,214.55585 36.59439,208.60435 L 86.100249,88.190288 A 12.50125,12.50125 0 0 0 74.293609,70.776225 12.50125,12.50125 0 0 0 62.979156,78.684429 L 7.5846246,213.4149 a 12.50125,12.50125 0 0 0 9.2187494,17.03125 c 0,0 141.702746,27.35789 226.697266,29.99804 l 0,168.10547 a 12.50125,12.50125 0 1 0 25,0 l 0,-168.10547 c 84.99451,-2.64015 226.69727,-29.99804 226.69727,-29.99804 a 12.50125,12.50125 0 0 0 9.21093,-17.04688 L 449.41861,80.17271 a 12.50125,12.50125 0 1 0 -23.10938,9.537109 l 49.07618,118.898441 c -32.92852,5.95695 -139.91357,24.58846 -206.88477,26.83593 l 0,-151.992183 A 12.50125,12.50125 0 0 0 255.81314,70.774272 Z M 162.42252,294.24497 a 50,50 0 0 0 -50,50 50,50 0 0 0 50,50 50,50 0 0 0 50,-50 50,50 0 0 0 -50,-50 z m 187.15624,0 a 50,50 0 0 0 -50,50 50,50 0 0 0 50,50 50,50 0 0 0 50,-50 50,50 0 0 0 -50,-50 z"/></svg>
