<svg xmlns="http://www.w3.org/2000/svg" viewBox="0 0 512 512"><path d="M0 0h512v512H0z"/><path fill="#fff" d="m 256.15111,114.30859 c -90.5702,0.0439 -177.716539,29.89905 -243.628912,83.8457 a 11.817117,11.817117 0 1 0 14.966797,18.28711 c 61.299041,-50.17082 143.286785,-78.45587 228.650395,-78.50195 85.23826,0.12601 167.07853,28.40498 228.28711,78.50195 a 11.817117,11.817117 0 1 0 14.9668,-18.28711 C 433.58368,144.29154 346.60163,114.44227 256.17259,114.30859 a 11.817117,11.817117 0 0 0 -0.0215,0 z m -76.73242,90.12304 a 50,50 0 0 0 -48.52149,38.1836 l -110.785158,0 a 11.817117,11.817117 0 1 0 0,23.63281 l 110.779298,0 a 50,50 0 0 0 48.52735,38.18359 50,50 0 0 0 48.52344,-38.18359 l 56.23828,0 a 50,50 0 0 0 48.52734,38.18359 50,50 0 0 0 48.52344,-38.18359 l 110.78515,0 a 11.817117,11.817117 0 1 0 0,-23.63281 l -110.77929,0 a 50,50 0 0 0 -48.5293,-38.1836 50,50 0 0 0 -48.52148,38.1836 l -56.24024,0 a 50,50 0 0 0 -48.52734,-38.1836 z m 312.3164,88.33399 a 11.817117,11.817117 0 0 0 -7.30859,2.79298 C 423.22305,345.65134 341.39138,373.9298 256.16087,374.06054 170.78951,374.01919 88.79319,345.73362 27.488995,295.55859 a 11.817117,11.817117 0 0 0 -7.611328,-2.7793 11.817117,11.817117 0 0 0 -7.355469,21.0664 c 65.912373,53.94665 153.058712,83.80184 243.628912,83.84571 a 11.817117,11.817117 0 0 0 0.0215,0 c 90.42904,-0.13369 177.41109,-29.98296 243.22071,-83.84571 a 11.817117,11.817117 0 0 0 -7.65821,-21.08007 z"/></svg>
