<svg xmlns="http://www.w3.org/2000/svg" viewBox="0 0 512 512"><path d="M0 0h512v512H0z"/><path fill="#fff" d="M 20.568546,99.045516 A 12.50125,12.50125 0 0 0 9.1818275,116.69982 L 139.18769,403.88927 a 12.50125,12.50125 0 1 0 22.77539,-10.31055 l -122.013674,-269.5332 430.525394,0 -122.01367,269.5332 a 12.50125,12.50125 0 1 0 22.77539,10.31055 L 501.24238,116.69982 A 12.50125,12.50125 0 0 0 489.85566,99.045516 l -469.287114,0 z M 160.45136,145.69982 a 50,50 0 0 0 -50,50 50,50 0 0 0 50,50 50,50 0 0 0 50,-50 50,50 0 0 0 -50,-50 z m 189.52149,0 a 50,50 0 0 0 -50,50 50,50 0 0 0 50,50 50,50 0 0 0 50,-50 50,50 0 0 0 -50,-50 z"/></svg>
