<svg xmlns="http://www.w3.org/2000/svg" viewBox="0 0 512 512"><path d="M0 0h512v512H0z"/><path fill="#fff" d="m 300.66914,6.6030821 c -2.71417,0.031373 -5.43841,0.1306067 -8.16992,0.2988281 C 248.79511,9.5934525 203.12554,30.991645 171.26094,78.046442 138.06131,127.07269 135.86152,203.5882 149.36446,276.48785 c 13.50294,72.89965 42.67679,142.33999 82.99804,177.22461 36.7977,31.83616 60.69953,45.40413 85.03125,49.00391 24.33172,3.59978 45.50821,-2.39093 78.92774,-5.54688 a 12.50125,12.50125 0 1 0 -2.34961,-24.88867 c -35.12764,3.31726 -55.14116,8.33537 -72.91992,5.70508 -17.77877,-2.6303 -36.90753,-12.53157 -72.33203,-43.17969 -31.90096,-27.59966 -61.97586,-93.78147 -74.77344,-162.87305 -12.79759,-69.09158 -8.3501,-140.9346 18.01562,-179.86914 27.70075,-40.905996 65.22255,-57.941407 102.07422,-60.210938 36.85167,-2.269531 72.86316,11.173744 94.43946,31.382813 21.49067,20.128872 27.24758,44.890375 24.4082,69.263675 -2.83938,24.37329 -15.29406,47.75234 -28.84766,60.50586 a 12.50125,12.50125 0 1 0 17.13281,18.20703 c 18.71825,-17.61329 32.98768,-45.26814 36.54688,-75.82031 3.55919,-30.55217 -4.61086,-64.607916 -32.15039,-90.402349 C 381.54346,22.489849 346.45392,8.1427843 308.77852,6.7105039 c -2.6911,-0.1023057 -5.3952,-0.1387945 -8.10938,-0.1074218 z m 0.46875,62.6601569 a 50,50 0 0 0 -50,50.000001 50,50 0 0 0 50,50 50,50 0 0 0 50,-50 50,50 0 0 0 -50,-50.000001 z M 121.92305,403.8316 a 50,50 0 0 0 -49.999999,50 50,50 0 0 0 49.999999,50 50,50 0 0 0 50,-50 50,50 0 0 0 -50,-50 z"/></svg>
