<svg xmlns="http://www.w3.org/2000/svg" viewBox="0 0 512 512"><path d="M0 0h512v512H0z"/><path fill="#fff" d="m 256,180.46778 c -38.16051,0 -72.78875,7.20819 -98.9707,19.67578 -26.18195,12.4676 -45.89649,31.35645 -45.89649,55.85547 0,24.49902 19.71454,43.38983 45.89649,55.85742 26.18195,12.4676 60.81019,19.67578 98.9707,19.67578 38.16051,0 72.78875,-7.20818 98.9707,-19.67578 26.18195,-12.46759 45.89649,-31.3584 45.89649,-55.85742 0,-24.49902 -19.71454,-43.38787 -45.89649,-55.85547 C 328.78875,187.67597 294.16051,180.46778 256,180.46778 Z m 0,25 c 34.9436,0 66.49728,6.90263 88.22266,17.24805 21.72537,10.34541 31.64453,22.97074 31.64453,33.2832 0,10.31246 -9.91916,22.93974 -31.64453,33.28516 C 322.49728,299.6296 290.9436,306.53223 256,306.53223 c -34.9436,0 -66.49728,-6.90263 -88.22266,-17.24804 -21.72537,-10.34542 -31.64453,-22.9727 -31.64453,-33.28516 0,-10.31246 9.91916,-22.93779 31.64453,-33.2832 C 189.50272,212.37041 221.0564,205.46778 256,205.46778 Z M 42.320311,218.49903 a 37.5,37.5 0 0 0 -37.4999991,37.5 37.5,37.5 0 0 0 37.4999991,37.5 37.5,37.5 0 0 0 37.5,-37.5 37.5,37.5 0 0 0 -37.5,-37.5 z m 427.359379,0 a 37.5,37.5 0 0 0 -37.5,37.5 37.5,37.5 0 0 0 37.5,37.5 37.5,37.5 0 0 0 37.5,-37.5 37.5,37.5 0 0 0 -37.5,-37.5 z"/></svg>
