<svg xmlns="http://www.w3.org/2000/svg" viewBox="0 0 512 512"><path d="M0 0h512v512H0z"/><path fill="#fff" d="M 255.8125,6.6188702 A 12.50125,12.50125 0 0 0 243.5,19.296605 l 0,460.769535 C 130.38929,474.5325 42.388183,394.4028 42.373046,298.29661 l 0,-0.0117 0,-0.0137 c 0.06967,-31.54367 9.731571,-62.55447 28.257812,-90.1211 a 12.50125,12.50125 0 1 0 -20.75,-13.94531 C 28.740606,225.66103 17.447983,261.60547 17.373046,298.24583 a 12.50125,12.50125 0 0 0 0,0.0254 C 17.37253,413.60167 125.29929,505.38281 256,505.38254 c 130.70071,2.7e-4 238.62747,-91.78086 238.62695,-207.11132 a 12.50125,12.50125 0 0 0 0,-0.0371 c -0.10681,-36.64856 -11.43516,-72.59223 -32.61133,-104.03907 a 12.50125,12.50125 0 0 0 -10.56445,-5.66601 12.50125,12.50125 0 0 0 -10.17383,19.63086 c 18.56052,27.56259 28.25447,58.57872 28.34961,90.13281 C 469.61425,394.4006 381.61216,474.53236 268.5,480.06615 l 0,-460.769535 A 12.50125,12.50125 0 0 0 255.8125,6.6188702 Z M 167.9375,324.697 a 50,50 0 0 0 -50,50 50,50 0 0 0 50,50 50,50 0 0 0 50,-50 50,50 0 0 0 -50,-50 z m 176.125,0 a 50,50 0 0 0 -50,50 50,50 0 0 0 50,50 50,50 0 0 0 50,-50 50,50 0 0 0 -50,-50 z"/></svg>
