<svg xmlns="http://www.w3.org/2000/svg" viewBox="0 0 512 512"><path d="M0 0h512v512H0z"/><path fill="#fff" d="m 192.73437,116.90039 a 12.50125,12.50125 0 0 0 -12.5,12.5 c 0,50.25599 -0.0166,237.0312 0,253.21289 a 12.50125,12.50125 0 0 0 12.5,12.48633 c 76.6746,0 139.09961,-62.42502 139.09961,-139.09961 0,-76.67459 -62.425,-139.09961 -139.09961,-139.09961 z m 12.5,25.71094 c 57.24494,6.20214 101.59961,54.45411 101.59961,113.38867 0,58.93456 -44.35468,107.18653 -101.59961,113.38867 -0.0117,-29.51833 -9.9e-4,-169.73114 0,-226.77734 z M 52.396482,206 A 50,50 0 0 0 2.3964822,256 50,50 0 0 0 52.396482,306 50,50 0 0 0 102.39648,256 50,50 0 0 0 52.396482,206 Z m 407.207038,0 a 50,50 0 0 0 -50,50 50,50 0 0 0 50,50 50,50 0 0 0 50,-50 50,50 0 0 0 -50,-50 z"/></svg>
