<svg xmlns="http://www.w3.org/2000/svg" viewBox="0 0 512 512"><path d="M0 0h512v512H0z"/><path fill="#fff" d="m 256,116.90039 c -76.67459,0 -139.09961,62.42502 -139.09961,139.09961 0,76.67459 62.42502,139.09961 139.09961,139.09961 76.67459,0 139.09961,-62.42502 139.09961,-139.09961 0,-76.67459 -62.42502,-139.09961 -139.09961,-139.09961 z m 0,25 c 63.16359,0 114.09961,50.93602 114.09961,114.09961 0,63.16359 -50.93602,114.09961 -114.09961,114.09961 -63.16359,0 -114.09961,-50.93602 -114.09961,-114.09961 0,-63.16359 50.93602,-114.09961 114.09961,-114.09961 z M 52.396482,206 A 50,50 0 0 0 2.3964822,256 50,50 0 0 0 52.396482,306 50,50 0 0 0 102.39648,256 50,50 0 0 0 52.396482,206 Z m 407.207038,0 a 50,50 0 0 0 -50,50 50,50 0 0 0 50,50 50,50 0 0 0 50,-50 50,50 0 0 0 -50,-50 z"/></svg>
