<svg xmlns="http://www.w3.org/2000/svg" viewBox="0 0 512 512"><path d="M0 0h512v512H0z"/><path fill="#fff" d="M 319.29492 116.90039 C 242.62032 116.90039 180.19531 179.32541 180.19531 256 C 180.19531 332.67459 242.62032 395.09961 319.29492 395.09961 A 12.50125 12.50125 0 0 0 331.79492 382.61328 C 331.81152 366.43159 331.79492 179.65638 331.79492 129.40039 A 12.50125 12.50125 0 0 0 319.29492 116.90039 z M 306.79492 142.61133 C 306.79592 199.65753 306.80662 339.87034 306.79492 369.38867 C 249.54999 363.18653 205.19531 314.93456 205.19531 256 C 205.19531 197.06544 249.54999 148.81347 306.79492 142.61133 z M 52.365234 206 A 50 50 0 0 0 2.3652344 256 A 50 50 0 0 0 52.365234 306 A 50 50 0 0 0 102.36523 256 A 50 50 0 0 0 52.365234 206 z M 459.57227 206 A 50 50 0 0 0 409.57227 256 A 50 50 0 0 0 459.57227 306 A 50 50 0 0 0 509.57227 256 A 50 50 0 0 0 459.57227 206 z "/></svg>
