<svg xmlns="http://www.w3.org/2000/svg" viewBox="0 0 512 512"><path d="M0 0h512v512H0z"/><path fill="#fff" d="m 167.58354,38.015262 a 12.50125,12.50125 0 0 0 -3.09765,24.578124 l 47.26171,13.355469 a 100,99.999998 0 0 0 -56.53515,89.919915 100,99.999998 0 0 0 55.09375,89.32422 100,99.999998 0 0 0 -55.09375,89.22461 100,99.999998 0 0 0 56.66015,90.02539 l -47.38867,13.39063 a 12.50125,12.50125 0 1 0 6.79883,24.05859 l 83.92969,-23.71875 83.92969,23.71875 a 12.50125,12.50125 0 1 0 6.79687,-24.05859 l -47.44336,-13.40625 a 100,99.999998 0 0 0 56.7168,-90.00977 100,99.999998 0 0 0 -55.0957,-89.32422 100,99.999998 0 0 0 55.0957,-89.22461 100,99.999998 0 0 0 -56.4707,-89.937493 l 47.19726,-13.337891 a 12.50125,12.50125 0 0 0 -3.47461,-24.576171 12.50125,12.50125 0 0 0 -3.32226,0.517578 l -83.92969,23.71875 -83.92969,-23.71875 a 12.50125,12.50125 0 0 0 -3.69922,-0.519531 z m 87.62891,52.853515 a 75,75 0 0 1 75,74.999993 75,75 0 0 1 -75,75 75,75 0 0 1 -75,-75 75,75 0 0 1 75,-74.999993 z m 0,24.999993 a 50,50 0 0 0 -50,50 50,50 0 0 0 50,50 50,50 0 0 0 50,-50 50,50 0 0 0 -50,-50 z m 0,153.54883 a 75,75 0 0 1 75,75 75,75 0 0 1 -75,75 75,75 0 0 1 -75,-75 75,75 0 0 1 75,-75 z m 0,25 a 50,50 0 0 0 -50,50 50,50 0 0 0 50,50 50,50 0 0 0 50,-50 50,50 0 0 0 -50,-50 z"/></svg>
