<svg xmlns="http://www.w3.org/2000/svg" viewBox="0 0 512 512"><path d="M0 0h512v512H0z"/><path fill="#fff" d="m 256,40.103895 c -5.29735,0 -10.73849,3.977996 -12.36133,10.535156 l -55.73633,225.205079 -171.435542,0 c -10.4812494,0.002 -16.3072086,12.12596 -9.7597657,20.31055 L 143.47852,467.04335 c 4.27407,5.52469 12.24582,6.47601 17.69921,2.11133 5.45339,-4.36467 6.27246,-12.35182 1.81836,-17.73243 L 42.482423,300.84413 l 155.203127,0 c 5.74734,-1.8e-4 10.75407,-3.91902 12.13476,-9.49805 l 46.18164,-186.59961 46.18164,186.59961 c 1.38052,5.57833 6.38621,9.49698 12.13282,9.49805 l 155.20117,0 -120.51172,150.57812 c -4.4541,5.38061 -3.63698,13.36776 1.81641,17.73243 5.45339,4.36468 13.4271,3.41336 17.70117,-2.11133 L 505.29297,296.15468 c 6.54744,-8.1846 0.72148,-20.3087 -9.75977,-20.31055 l -171.43359,0 L 268.40039,50.783582 C 266.75461,44.133594 261.67007,40.103895 256,40.103895 Z M 116.91992,147.16444 a 50,50 0 0 0 -49.999997,50 50,50 0 0 0 49.999997,50 50,50 0 0 0 50,-50 50,50 0 0 0 -50,-50 z m 278.16016,0 a 50,50 0 0 0 -50,50 50,50 0 0 0 50,50 50,50 0 0 0 50,-50 50,50 0 0 0 -50,-50 z"/></svg>
