<svg xmlns="http://www.w3.org/2000/svg" viewBox="0 0 512 512"><path d="M0 0h512v512H0z"/><path fill="#fff" d="M 256 116.90039 C 179.32541 116.90039 116.90039 179.32541 116.90039 256 C 116.90039 332.67459 179.32541 395.09961 256 395.09961 C 332.67459 395.09961 395.09961 332.67459 395.09961 256 C 395.09961 179.32541 332.67459 116.90039 256 116.90039 z M 256 141.90039 C 319.16359 141.90039 370.09961 192.83641 370.09961 256 C 370.09961 319.16359 319.16359 370.09961 256 370.09961 C 192.83641 370.09961 141.90039 319.16359 141.90039 256 C 141.90039 192.83641 192.83641 141.90039 256 141.90039 z M 256.0918 155.51562 A 12.541851 12.460781 0 0 0 243.89062 164.73242 L 226.97266 227.16016 L 164.13867 243.9707 A 12.541851 12.460781 0 0 0 164.13867 268.03125 L 226.97266 284.83984 L 243.89062 347.26758 A 12.541851 12.460781 0 0 0 268.10938 347.26758 L 285.02734 284.83984 L 347.86133 268.03125 A 12.541851 12.460781 0 0 0 347.86133 243.9707 L 285.02734 227.16016 L 268.10938 164.73242 A 12.541851 12.460781 0 0 0 256.0918 155.51562 z M 52.396484 206 A 50 50 0 0 0 2.3964844 256 A 50 50 0 0 0 52.396484 306 A 50 50 0 0 0 102.39648 256 A 50 50 0 0 0 52.396484 206 z M 459.60352 206 A 50 50 0 0 0 409.60352 256 A 50 50 0 0 0 459.60352 306 A 50 50 0 0 0 509.60352 256 A 50 50 0 0 0 459.60352 206 z M 256 215.89453 L 262.68555 240.56445 A 12.541851 12.460781 0 0 0 271.53516 249.35742 L 296.36719 256 L 271.53516 262.64258 A 12.541851 12.460781 0 0 0 262.68555 271.43359 L 256 296.10547 L 249.31445 271.43359 A 12.541851 12.460781 0 0 0 240.46484 262.64258 L 215.63281 256 L 240.46484 249.35742 A 12.541851 12.460781 0 0 0 249.31445 240.56445 L 256 215.89453 z "/></svg>
