<svg xmlns="http://www.w3.org/2000/svg" viewBox="0 0 512 512"><path d="M0 0h512v512H0z"/><path fill="#fff" d="m 78.878117,93.799014 a 12.50125,12.50125 0 1 0 0,24.999996 c 72.125773,1e-5 130.910533,55.78532 135.695313,126.67188 l -49.29102,0 a 50,50 0 0 0 -49.08203,-40.65235 50,50 0 0 0 -49.089841,40.65235 l -44.328126,0 a 12.50125,12.50125 0 1 0 0,25 l 45.998047,0 a 50,50 0 0 0 47.41992,34.34765 50,50 0 0 0 47.44727,-34.34765 l 50.35351,0 C 206.2669,338.33201 148.85144,390.83611 78.878117,390.83612 a 12.50125,12.50125 0 1 0 0,25 C 162.37766,415.83611 231.239,351.93434 239.13593,270.47089 l 32.39453,0 a 50,50 0 0 0 47.41992,34.34765 50,50 0 0 0 47.44727,-34.34765 l 51.23047,0 c -7.37765,68.2424 -64.96707,121.15429 -135.21094,121.1543 a 12.50125,12.50125 0 1 0 0,25 c 83.76782,-2e-5 152.79758,-64.3162 160.32617,-146.1543 l 44.89844,0 a 12.50125,12.50125 0 1 0 0,-25 l -44.53516,0 C 437.85714,161.3946 367.79243,94.588086 282.41718,94.588077 a 12.50125,12.50125 0 1 0 0,25.000003 c 71.8592,0 130.47842,55.37021 135.64258,125.88281 l -50.02735,0 a 50,50 0 0 0 -49.08203,-40.65235 50,50 0 0 0 -49.08984,40.65235 l -30.24024,0 C 234.76091,161.02419 164.51996,93.799025 78.878117,93.799014 Z"/></svg>
