<svg xmlns="http://www.w3.org/2000/svg" viewBox="0 0 512 512"><path d="M0 0h512v512H0z"/><path fill="#fff" d="M 12.127226,11.529308 A 12.50125,12.50125 0 0 0 12.364772,29.19869 L 122.96069,140.05701 c -15.92688,12.65192 -39.96946,26.72723 -61.200643,37.70868 -25.919113,13.40619 -47.726943,22.71304 -47.726943,22.71304 a 12.50125,12.50125 0 0 0 -4.1293974,2.75938 12.50125,12.50125 0 0 0 13.9405004,20.23541 c 0,0 22.59098,-9.63612 49.400799,-23.50302 22.849096,-11.81828 48.664624,-26.34165 67.507984,-42.07976 l 343.49783,344.3099 a 12.50125,12.50125 0 1 0 17.69977,-17.65557 L 158.40718,140.18959 c 15.64937,-18.81912 30.08854,-44.492853 41.84912,-67.230385 13.8669,-26.809819 23.50302,-49.400799 23.50302,-49.400799 a 12.50125,12.50125 0 1 0 -22.99479,-9.811103 c 0,0 -9.30685,21.80783 -22.71304,47.726943 -10.90409,21.081627 -24.86101,44.946824 -37.44352,60.874714 L 30.064538,11.543118 A 12.50125,12.50125 0 0 0 12.127226,11.529308 Z M 110.47998,235.29131 a 50,50 0 0 0 0,70.71068 50,50 0 0 0 70.71068,0 50,50 0 0 0 0,-70.71068 50,50 0 0 0 -70.71068,0 z M 235.57711,110.19418 a 50,50 0 0 0 0,70.71068 50,50 0 0 0 70.71068,0 50,50 0 0 0 0,-70.71068 50,50 0 0 0 -70.71068,0 z"/></svg>
