<svg xmlns="http://www.w3.org/2000/svg" viewBox="0 0 512 512"><path d="M0 0h512v512H0z"/><path fill="#fff" d="m 255.20997,35.68769 a 50,50 0 0 0 -50,50 50,50 0 0 0 50,50 50,50 0 0 0 50,-50 50,50 0 0 0 -50,-50 z M 14.823252,51.689643 a 12.50125,12.50125 0 0 0 -0.634766,24.976562 c 0,0 26.283348,1.995023 56.666016,6.957031 30.382668,4.962011 65.476768,14.228055 77.908198,23.138664 42.82927,30.69922 67.44517,90.56219 92.15626,152.93946 0.27851,0.70304 0.55736,1.40964 0.83593,2.11328 -23.26431,58.21369 -47.42583,112.78467 -87.65625,141.62109 -13.21987,9.47576 -49.62319,19.07352 -81.150388,24.25781 -31.527196,5.18431 -58.767578,7.26563 -58.767578,7.26563 a 12.50125,12.50125 0 1 0 1.90039,24.92773 c 0,0 28.178404,-2.14077 60.923828,-7.52539 32.745428,-5.38461 69.467078,-12.70123 91.658208,-28.60742 41.56195,-29.79084 65.72986,-78.01764 86.54492,-128.41211 20.81512,50.39473 44.98472,98.62113 86.54687,128.41211 22.19113,15.90619 58.91278,23.22281 91.65821,28.60742 32.74542,5.38462 60.92578,7.52539 60.92578,7.52539 a 12.50125,12.50125 0 1 0 1.89843,-24.92773 c 0,0 -27.24038,-2.08132 -58.76757,-7.26563 -31.5272,-5.18428 -67.93052,-14.78205 -81.15039,-24.25781 -40.23042,-28.83642 -64.39194,-83.4074 -87.65625,-141.62109 0.27857,-0.70364 0.55742,-1.41024 0.83593,-2.11328 24.71108,-62.37727 49.32895,-122.24024 92.15821,-152.93946 12.43143,-8.910612 47.52358,-18.176652 77.90625,-23.138664 30.38266,-4.96201 56.66796,-6.957031 56.66797,-6.957031 a 12.50125,12.50125 0 0 0 -1.01368,-24.976562 12.50125,12.50125 0 0 0 -0.87109,0.04883 c 0,0 -27.21681,2.050819 -58.8125,7.210937 -31.5957,5.160119 -66.95877,12.093826 -88.44141,27.492188 C 301.93423,118.8104 277.30732,172.9417 255.20802,227.97284 233.10914,172.94193 208.48552,118.81027 163.32716,86.441596 141.84452,71.043239 106.47949,64.109526 74.883799,58.949408 43.288104,53.789291 16.073252,51.738471 16.073252,51.738471 a 12.50125,12.50125 0 0 0 -1.25,-0.04883 z M 255.20997,374.73651 a 50,50 0 0 0 -50,50 50,50 0 0 0 50,50 50,50 0 0 0 50,-50 50,50 0 0 0 -50,-50 z"/></svg>
