<svg xmlns="http://www.w3.org/2000/svg" viewBox="0 0 512 512"><path d="M0 0h512v512H0z"/><path fill="#fff" d="M 256 116.90039 C 179.32541 116.90039 116.90039 179.32541 116.90039 256 C 116.90039 332.67459 179.32541 395.09961 256 395.09961 C 332.67459 395.09961 395.09961 332.67459 395.09961 256 C 395.09961 179.32541 332.67459 116.90039 256 116.90039 z M 256 141.90039 C 313.4322 141.90039 360.75004 184.01393 368.86523 239.13867 C 343.57999 204.0825 302.40845 181.20117 256 181.20117 C 209.59963 181.20117 168.4236 204.06645 143.13867 239.11328 C 151.26465 184.001 198.57661 141.90039 256 141.90039 z M 52.396484 206 C 24.782247 206 2.3964844 228.38576 2.3964844 256 C 2.3964844 283.61424 24.782247 306 52.396484 306 C 80.01072 306 102.39648 283.61424 102.39648 256 C 102.39648 228.38576 80.01072 206 52.396484 206 z M 459.60352 206 C 431.98928 206 409.60352 228.38576 409.60352 256 C 409.60352 283.61424 431.98928 306 459.60352 306 C 487.21776 306 509.60352 283.61424 509.60352 256 C 509.60352 228.38576 487.21776 206 459.60352 206 z M 256 206.20117 C 307.99472 206.20117 351.69229 240.72106 365.52344 288.16016 C 351.68591 335.59008 307.98842 370.09961 256 370.09961 C 204.01092 370.09961 160.31351 335.58905 146.47656 288.1582 C 160.3085 240.71995 204.00582 206.20117 256 206.20117 z "/></svg>
