<svg xmlns="http://www.w3.org/2000/svg" viewBox="0 0 512 512"><path d="M0 0h512v512H0z"/><path fill="#fff" d="M 256 116.90039 C 179.32541 116.90039 116.90039 179.32541 116.90039 256 C 116.90039 332.67459 179.32541 395.09961 256 395.09961 C 332.67459 395.09961 395.09961 332.67459 395.09961 256 C 395.09961 179.32541 332.67459 116.90039 256 116.90039 z M 239.13867 143.13477 C 204.0825 168.42001 181.20117 209.59155 181.20117 256 C 181.20117 302.40037 204.06645 343.5764 239.11328 368.86133 C 184.001 360.73535 141.90039 313.42339 141.90039 256 C 141.90039 198.5678 184.01393 151.24996 239.13867 143.13477 z M 288.16016 146.47656 C 335.59008 160.31409 370.09961 204.01158 370.09961 256 C 370.09961 307.98908 335.58905 351.68649 288.1582 365.52344 C 240.71995 351.6915 206.20117 307.99418 206.20117 256 C 206.20117 204.00528 240.72106 160.30771 288.16016 146.47656 z M 52.396484 206 C 24.782247 206 2.3964844 228.38576 2.3964844 256 C 2.3964844 283.61424 24.782247 306 52.396484 306 C 80.01072 306 102.39648 283.61424 102.39648 256 C 102.39648 228.38576 80.01072 206 52.396484 206 z M 459.60352 206 C 431.98928 206 409.60352 228.38576 409.60352 256 C 409.60352 283.61424 431.98928 306 459.60352 306 C 487.21776 306 509.60352 283.61424 509.60352 256 C 509.60352 228.38576 487.21776 206 459.60352 206 z "/></svg>
