<svg xmlns="http://www.w3.org/2000/svg" viewBox="0 0 512 512"><path d="M0 0h512v512H0z"/><path fill="#fff" d="M 136.71422,59.491367 C 104.27512,59.336318 78.405838,72.619979 59.845078,91.817539 41.284318,111.0151 29.412953,135.68703 21.405625,159.85074 5.3909691,208.17816 4.8099221,255.80387 4.8099222,255.80387 a 12.50125,12.50125 0 1 0 24.9960938,0.37695 c 0,0 0.811781,-44.65298 15.330078,-88.46484 7.259148,-21.90593 17.939246,-43.26933 32.683593,-58.51954 14.744348,-15.250205 32.933823,-24.828588 58.775393,-24.705073 54.3371,0.259715 77.98963,23.565733 91.89844,57.085933 13.90881,33.52021 15.00781,78.02011 15.00781,114.41407 0,38.65616 -0.32439,86.37556 16.0625,126.33984 16.38689,39.96428 52.76197,71.04934 115.95898,70.16016 32.89407,-0.46282 58.91753,-13.97484 77.57227,-33.26563 18.65474,-19.29079 30.47973,-43.92259 38.35156,-67.97265 15.74366,-48.10014 15.74805,-95.22266 15.74805,-95.22266 a 12.50125,12.50125 0 1 0 -25,-0.0762 c 0,0 -0.27567,44.04128 -14.50781,87.52344 -7.11608,21.74106 -17.7032,43.00319 -32.5625,58.36914 -14.8593,15.36594 -33.45224,25.27361 -59.95313,25.64648 -55.5929,0.78219 -78.88764,-21.50586 -92.47656,-54.64648 -13.58892,-33.14056 -14.19336,-78.25933 -14.19336,-116.85544 0,-36.71145 -0.29383,-83.93194 -16.91797,-123.9961 C 234.95922,91.931117 198.93846,59.78878 136.71422,59.491367 Z m 1.87109,78.082033 a 50,50 0 0 0 -49.999998,50 50,50 0 0 0 49.999998,50 50,50 0 0 0 50,-50 50,50 0 0 0 -50,-50 z m 235.24805,144.71094 a 50,50 0 0 0 -50,50 50,50 0 0 0 50,50 50,50 0 0 0 50,-50 50,50 0 0 0 -50,-50 z"/></svg>
