<svg xmlns="http://www.w3.org/2000/svg" viewBox="0 0 512 512"><path d="M0 0h512v512H0z"/><path fill="#fff" d="M 256 116.90039 C 179.32541 116.90039 116.90039 179.32541 116.90039 256 C 116.90039 332.67459 179.32541 395.09961 256 395.09961 C 332.67459 395.09961 395.09961 332.67459 395.09961 256 C 395.09961 179.32541 332.67459 116.90039 256 116.90039 z M 256 141.90039 C 307.98908 141.90039 351.68649 176.41095 365.52344 223.8418 C 351.6915 271.28005 307.99418 305.79883 256 305.79883 C 204.00528 305.79883 160.30771 271.27894 146.47656 223.83984 C 160.31409 176.40992 204.01158 141.90039 256 141.90039 z M 52.396484 206 C 24.782247 206 2.3964844 228.38576 2.3964844 256 C 2.3964844 283.61424 24.782247 306 52.396484 306 C 80.01072 306 102.39648 283.61424 102.39648 256 C 102.39648 228.38576 80.01072 206 52.396484 206 z M 459.60352 206 C 431.98928 206 409.60352 228.38576 409.60352 256 C 409.60352 283.61424 431.98928 306 459.60352 306 C 487.21776 306 509.60352 283.61424 509.60352 256 C 509.60352 228.38576 487.21776 206 459.60352 206 z M 143.13477 272.86133 C 168.42001 307.9175 209.59155 330.79883 256 330.79883 C 302.40037 330.79883 343.5764 307.93355 368.86133 272.88672 C 360.73535 327.999 313.42339 370.09961 256 370.09961 C 198.5678 370.09961 151.24996 327.98607 143.13477 272.86133 z "/></svg>
