<svg xmlns="http://www.w3.org/2000/svg" viewBox="0 0 512 512"><path d="M0 0h512v512H0z"/><path fill="#fff" d="m 256,116.90039 c -76.67459,0 -139.09961,62.42502 -139.09961,139.09961 0,76.67459 62.42502,139.09961 139.09961,139.09961 76.67459,0 139.09961,-62.42502 139.09961,-139.09961 0,-76.67459 -62.42502,-139.09961 -139.09961,-139.09961 z m 16.88672,26.23828 c 55.11228,8.12598 97.21289,55.43794 97.21289,112.86133 0,57.4322 -42.11354,104.75004 -97.23828,112.86523 35.05617,-25.28524 57.9375,-66.45678 57.9375,-112.86523 0,-46.40037 -22.86528,-87.5764 -57.91211,-112.86133 z m -49.04492,3.33789 c 47.43825,13.83194 81.95703,57.52926 81.95703,109.52344 0,51.99472 -34.51989,95.69229 -81.95899,109.52344 C 176.40992,351.68591 141.90039,307.98842 141.90039,256 c 0,-51.98908 34.51056,-95.68649 81.94141,-109.52344 z M 52.396482,206 c -27.614237,0 -49.9999998,22.38576 -49.9999998,50 0,27.61424 22.3857628,50 49.9999998,50 27.614236,0 49.999998,-22.38576 49.999998,-50 0,-27.61424 -22.385762,-50 -49.999998,-50 z m 407.207038,0 c -27.61424,0 -50,22.38576 -50,50 0,27.61424 22.38576,50 50,50 27.61424,0 50,-22.38576 50,-50 0,-27.61424 -22.38576,-50 -50,-50 z"/></svg>
