<svg xmlns="http://www.w3.org/2000/svg" viewBox="0 0 512 512"><path d="M0 0h512v512H0z"/><path fill="#fff" d="m 60.04489,3.3632795 a 12.50125,12.50125 0 1 0 0.002,24.9999995 c 40.20128,-5.96e-4 77.3802,23.857866 105.31056,64.86914 C 191.45728,131.55584 208.706,184.49302 210.8555,243.5 l -65.14063,0 A 50,50 0 0 0 97.3672,206 50,50 0 0 0 48.99416,243.5 l -27.216801,0 a 12.50125,12.50125 0 1 0 0,25 l 27.242191,0 A 50,50 0 0 0 97.3672,306 50,50 0 0 0 145.74222,268.5 l 65.11328,0 c -2.1495,59.00676 -19.39822,111.94224 -45.49805,150.26562 -27.93036,41.01124 -65.10926,64.87154 -105.31056,64.8711 a 12.50125,12.50125 0 1 0 -0.002,25 c 50.12078,5.5e-4 94.714,-29.89765 125.97462,-75.79883 C 215.37064,389.74049 233.7419,332.16484 235.87693,268.5 l 40.2461,0 c 2.13503,63.66484 20.50629,121.24049 49.85742,164.33789 31.26062,45.90118 75.85384,75.79938 125.97461,75.79883 a 12.50125,12.50125 0 1 0 -0.002,-25 c -40.20124,4.4e-4 -77.38014,-23.85986 -105.3105,-64.8711 C 320.54273,380.44224 303.29401,327.50676 301.14451,268.5 l 65.11328,0 a 50,50 0 0 0 48.375,37.5 50,50 0 0 0 48.34766,-37.5 l 27.24219,0 a 12.50125,12.50125 0 1 0 0,-25 l -27.2168,0 A 50,50 0 0 0 414.63279,206 50,50 0 0 0 366.28514,243.5 l -65.14063,0 c 2.1495,-59.00698 19.39822,-111.94416 45.49805,-150.267581 27.93036,-41.01128 65.10927,-64.86974 105.31054,-64.86914 a 12.50125,12.50125 0 1 0 0.002,-24.9999995 C 401.83426,3.3625395 357.24107,33.258934 325.98045,79.160155 296.62932,122.2576 278.25807,179.83495 276.12303,243.5 l -40.2461,0 C 233.74189,179.83495 215.37064,122.2576 186.01951,79.160155 154.75889,33.258928 110.1657,3.3625365 60.04489,3.3632795 Z"/></svg>
