<?xml version="1.0" encoding="UTF-8"?>
<svg style="height:512px;width:512px" version="1.1" viewBox="0 0 512 512" xml:space="preserve" xmlns="http://www.w3.org/2000/svg"><rect width="512" height="512" stop-color="#000000" style="-inkscape-stroke:none;font-variation-settings:normal;height:512px;width:512px"/><path d="m245.67 57.137c-6.2186-0.06681-15.452 8.536-20.131 13.508-0.68073 0.72333-1.2589 1.3669-1.7559 1.9609-8.3321-6.1898-20.417-9.9886-39.096-9.9746-21.549 0.01613-35.225 7.3188-43.537 18.607-0.27877-0.30909-0.51537-0.58906-0.83594-0.92969-5.163-5.4862-15.87-15.394-21.955-13.195-6.0847 2.1983-7.5462 16.501-7.6211 24.754-0.0748 8.2531 1.2365 10.457 4.8828 15.689 3.6464 5.2324 9.629 13.494 13.033 17.488 0.52417 0.61508 0.97989 1.1154 1.3965 1.5195 0.21838 2.3709 0.65417 5.0665 1.4531 8.2812 5.0468 13.343 10.462 32.116 25.281 41.242-1.8058-2.4314-2.3619-5.8116-0.95508-10.473 3.3735-11.177 14.538-22.588 20.898-22.83 6.36-0.24159 13.82 12.235 18.725 22.83 4.8809 12.315-0.96093 13.496-0.96093 13.496 19.083 41.88 3.0213 93.573 26.629 117.48 5.9844 12.241 6.91 14.684 6.6621 31.465 5.7258-21.155 19.587-42.308 45.666-60.676 5.1368-3.618 9.7735-5.9032 14.596-6.5039 1.2056-0.1502 2.3999-0.17973 3.5801-0.0996 3.5406 0.24018 6.9451 1.4569 10.074 3.2871 8.3442 4.8806 16.108 13.682 29.301 25.42l0.0273 0.0254 0.0274 0.0254c55.811 51.162 76.185 86.316 82.416 109.63 3.1157 11.66 2.617 20.37 1.1211 26.268-1.4959 5.8978-4.3828 9.4141-4.3828 9.4141-1.8564 2.1207-5.0805 2.335-7.2012 0.47851-2.1207-1.8564-2.335-5.0805-0.47851-7.2012 0 0 1.1175-1.0596 2.168-5.2012 1.0504-4.1415 1.6374-10.932-1.0859-21.123-5.4466-20.383-24.454-54.328-79.453-104.75-13.501-12.017-21.808-20.79-27.613-24.186-2.9077-1.7008-4.8488-2.167-7.2402-1.8691-2.3914 0.29788-5.5829 1.6248-9.9785 4.7207-26.438 18.621-38.507 39.157-42.789 59.498s-0.61197 40.75 5.7168 58.5c6.3287 17.75 15.262 32.713 21.133 42.066 2.9355 4.6766 4.9036 7.317 6.1191 10.141 0.15194 0.35297 0.307 0.7295 0.44531 1.3262 0.13831 0.59667 0.44261 1.4633-0.15429 3.1445-0.59692 1.6813-3.1082 3.3805-4.582 3.4902-1.4738 0.10971-2.1131-0.22908-2.625-0.4375-2.0474-0.83366-2.7195-1.5939-4.4004-2.9277-18.551-13.986-40.202-8.491-46.23-0.93946-0.0621-0.0751 5.3965-4.9637-0.17968-0.23046-5.5762 4.7332-14.48 22.83-14.48 22.83h237.82c31.547-37.189 48.872-84.369 48.889-133.14 5e-5 -93.722-62.636-172.77-148.31-197.69-26.796-19.957-58.538-31.961-91.617-34.875 2.2265-3.0289 4.4531-6.1422 6.1602-8.5918 3.6464-5.2323 4.9577-7.4363 4.8828-15.689-0.0748-8.2531-1.5364-22.556-7.6211-24.754-0.57044-0.20609-1.1809-0.30559-1.8242-0.3125zm-95.836 47.65c0.35839 5e-4 0.71632 0.0362 1.0723 0.10742 2.8476 0.57009 5.5812 3.5311 8.6562 6.834 3.0751 3.3028 6.4907 6.9457 8.3125 11.615s2.0495 10.364-2.1641 13.895c-4.2136 3.53-12.869 4.8968-18.791 3.6445-5.9222-1.2522-9.1114-5.1233-10.479-9.793-1.3672-4.6696-0.91101-10.137 0.34179-14.123 1.2528-3.9866 3.3028-6.4923 5.8086-8.6562 2.1925-1.8936 4.7335-3.527 7.2422-3.5234zm64.404 0.4082c2.2806 0.0964 4.127 1.5779 6.3691 4.1406 3.986 4.556 9.224 12.527 8.3125 19.588-0.91154 7.0606-7.9726 13.212-15.375 15.49-7.4024 2.278-15.146 0.68204-20.385-2.3926-5.2392-3.0746-7.973-7.6289-4.5566-14.463 3.4163-6.834 12.982-15.946 19.133-19.932 2.6909-1.7438 4.7282-2.5066 6.502-2.4316zm-62.451 13.365c-4.6693 7.1e-4 -8.4544 3.7858-8.4551 8.4551-3.7e-4 4.6701 3.785 8.4563 8.4551 8.457 4.6708 3.6e-4 8.4574-3.7862 8.457-8.457-7.2e-4 -4.67-3.787-8.4554-8.457-8.4551zm57.742 0c-4.6693 7.1e-4 -8.4544 3.7858-8.4551 8.4551-3.7e-4 4.6701 3.785 8.4563 8.4551 8.457 4.6708 3.6e-4 8.4574-3.7862 8.457-8.457-7.2e-4 -4.67-3.787-8.4554-8.457-8.4551zm-101.52 34.404c-9.3834 8.371-17.863 17.703-25.299 27.844l65.857 49.656c3.7944-4.9233 8.1398-9.3965 12.951-13.332zm67.398 2.9219c-5.3072 0-11.659 2.3079-9.6094 7.0488 1.5765 3.6459 4.3022 7.0469 9.6094 7.0469s8.1342-3.3588 9.6094-7.0469c1.6229-4.0576-4.3022-7.0488-9.6094-7.0488zm-112.39 59.68c-6.0051 13.983-10.211 28.672-12.516 43.715l82.361 10.139c0.82538-7.5142 2.6922-14.877 5.5469-21.877zm69.846 73.674-83.342 10.258c1.1983 15.444 4.3875 30.668 9.4883 45.295l79.4-33.676c-2.8546-6.9998-4.7215-14.363-5.5469-21.877zm15.699 38.953-71.75 54.1c8.7347 13.565 19.256 25.892 31.279 36.65l56.408-74.811c-6.0251-4.5492-11.389-9.9138-15.938-15.939zm33.012 26.098-37.902 89.367c14.887 7.9613 30.822 13.786 47.334 17.303l12.447-101.11c-7.5154-0.82833-14.879-2.6985-21.879-5.5566z" fill="#fff" stop-color="#000000" style="-inkscape-stroke:none;font-variation-settings:normal;height:512px;width:512px"/></svg>
