<?xml version="1.0" encoding="UTF-8" standalone="no"?>
<svg
   viewBox="0 0 262144 262144"
   version="1.1"
   id="svg59"
   sodipodi:docname="lemur-inkscape.svg"
   xml:space="preserve"
   inkscape:version="1.2.2 (b0a8486541, 2022-12-01)"
   inkscape:export-filename="lemur.svg"
   inkscape:export-xdpi="96"
   inkscape:export-ydpi="96"
   width="262144"
   height="262144"
   xmlns:inkscape="http://www.inkscape.org/namespaces/inkscape"
   xmlns:sodipodi="http://sodipodi.sourceforge.net/DTD/sodipodi-0.dtd"
   xmlns="http://www.w3.org/2000/svg"
   xmlns:svg="http://www.w3.org/2000/svg"><defs
     id="defs63" /><sodipodi:namedview
     id="namedview61"
     pagecolor="#ffffff"
     bordercolor="#000000"
     borderopacity="0.25"
     inkscape:showpageshadow="2"
     inkscape:pageopacity="0.0"
     inkscape:pagecheckerboard="0"
     inkscape:deskcolor="#d1d1d1"
     showgrid="false"
     inkscape:zoom="1.0347758"
     inkscape:cx="460.00301"
     inkscape:cy="280.73713"
     inkscape:window-width="1920"
     inkscape:window-height="1032"
     inkscape:window-x="1920"
     inkscape:window-y="24"
     inkscape:window-maximized="1"
     inkscape:current-layer="layer7" /><g
     inkscape:groupmode="layer"
     id="layer7"
     inkscape:label="Layer 3 copy 1"><rect
       style="font-variation-settings:normal;opacity:1;vector-effect:none;fill:#000000;fill-opacity:1;fill-rule:nonzero;stroke:none;stroke-width:10.2063;stroke-linecap:round;stroke-linejoin:miter;stroke-miterlimit:4;stroke-dasharray:none;stroke-dashoffset:0;stroke-opacity:1;-inkscape-stroke:none;stop-color:#000000;stop-opacity:1"
       id="rect4611"
       width="512"
       height="512"
       x="0"
       y="0" /></g><g
     inkscape:groupmode="layer"
     id="g3796"
     inkscape:label="Layer 3 copy"
     style="display:inline;fill:#00ffff"><path
       id="path3788"
       style="font-variation-settings:normal;opacity:1;vector-effect:none;fill:#ffffff;fill-opacity:1;fill-rule:nonzero;stroke:none;stroke-width:4.63911;stroke-linecap:round;stroke-linejoin:miter;stroke-miterlimit:4;stroke-dasharray:none;stroke-dashoffset:0;stroke-opacity:1;-inkscape-stroke:none;stop-color:#000000;stop-opacity:1"
       d="m 245.66992,57.136719 c -6.21858,-0.06681 -15.45181,8.535958 -20.13086,13.507812 -0.68073,0.723332 -1.25888,1.366909 -1.75586,1.960938 -8.33214,-6.189807 -20.41665,-9.988591 -39.0957,-9.97461 -21.54896,0.01613 -35.22523,7.318783 -43.53711,18.607422 -0.27877,-0.30909 -0.51537,-0.589057 -0.83594,-0.929687 -5.16305,-5.486186 -15.87044,-15.393627 -21.95507,-13.195313 -6.08467,2.198314 -7.54624,16.500802 -7.6211,24.753907 -0.0748,8.253102 1.23648,10.457132 4.88281,15.689452 3.64637,5.23236 9.62897,13.49376 13.03321,17.48828 0.52417,0.61508 0.97989,1.11538 1.39648,1.51953 0.21838,2.37086 0.65417,5.06653 1.45313,8.28125 5.04678,13.34273 10.46234,32.11649 25.28125,41.24219 -1.80577,-2.43138 -2.36189,-5.81156 -0.95508,-10.47266 3.37349,-11.17718 14.53839,-22.58847 20.89844,-22.83007 6.36004,-0.24159 13.81993,12.23506 18.7246,22.83007 4.88086,12.31545 -0.96093,13.4961 -0.96093,13.4961 19.08284,41.88005 3.02132,93.57302 26.6289,117.48437 5.98436,12.24129 6.90999,14.68365 6.66211,31.46485 5.72581,-21.15512 19.58665,-42.30771 45.66602,-60.67578 5.13681,-3.61796 9.77347,-5.90324 14.5957,-6.50391 1.20557,-0.1502 2.39989,-0.17973 3.58008,-0.0996 3.54057,0.24018 6.94514,1.45688 10.07422,3.28711 8.34417,4.88058 16.10792,13.68152 29.30078,25.41992 l 0.0273,0.0254 0.0274,0.0254 c 55.81063,51.16245 76.18472,86.31571 82.41601,109.63477 3.11566,11.65953 2.61703,20.36979 1.1211,26.26758 -1.49593,5.89775 -4.38282,9.41406 -4.38282,9.41406 -1.85637,2.12073 -5.0805,2.33496 -7.20117,0.47851 -2.12073,-1.85637 -2.33496,-5.0805 -0.47851,-7.20117 0,0 1.1175,-1.05964 2.16797,-5.20117 1.05044,-4.14153 1.63737,-10.93178 -1.08594,-21.12305 -5.44663,-20.38253 -24.454,-54.32759 -79.45313,-104.74609 -13.50091,-12.01715 -21.80755,-20.78971 -27.61328,-24.18555 -2.90773,-1.70076 -4.84883,-2.16702 -7.24023,-1.86914 -2.39141,0.29788 -5.58293,1.62482 -9.97852,4.72071 -26.43803,18.6207 -38.50676,39.15725 -42.78906,59.49804 -4.2823,20.34079 -0.61197,40.75003 5.7168,58.5 6.32873,17.74998 15.2618,32.71315 21.13281,42.06641 2.9355,4.67661 4.90362,7.31695 6.11914,10.14062 0.15194,0.35297 0.307,0.7295 0.44531,1.32618 0.13831,0.59667 0.44261,1.46327 -0.15429,3.14453 -0.59692,1.68126 -3.1082,3.38053 -4.58204,3.49023 -1.47381,0.10971 -2.11313,-0.22908 -2.625,-0.4375 -2.04743,-0.83366 -2.71954,-1.59392 -4.40039,-2.92773 -18.55093,-13.98637 -40.20229,-8.49102 -46.23047,-0.93946 -0.0621,-0.0751 5.39649,-4.96367 -0.17968,-0.23046 -5.57619,4.73319 -14.48047,22.83007 -14.48047,22.83007 h 61.5 176.3164 c 31.54727,-37.18938 48.87196,-84.36905 48.88868,-133.13672 5e-5,-93.72209 -62.63632,-172.76738 -148.31446,-197.69335 -26.79556,-19.9567 -58.53823,-31.96131 -91.61718,-34.875 2.22653,-3.02886 4.45308,-6.14224 6.16015,-8.591802 3.64637,-5.232339 4.95771,-7.436348 4.88281,-15.689453 -0.0748,-8.253105 -1.53645,-22.555591 -7.62109,-24.753906 -0.57044,-0.206093 -1.18091,-0.305589 -1.82422,-0.3125 z m -95.83594,47.650391 c 0.35839,5e-4 0.71632,0.0362 1.07227,0.10742 2.84763,0.57009 5.58117,3.53113 8.65625,6.83399 3.07508,3.30279 6.49071,6.94566 8.3125,11.61523 1.82179,4.66957 2.04952,10.3645 -2.16406,13.89453 -4.21365,3.53003 -12.86872,4.89675 -18.79102,3.64453 -5.92223,-1.25222 -9.11141,-5.12332 -10.47851,-9.79297 -1.36717,-4.66959 -0.91101,-10.13652 0.34179,-14.12304 1.25281,-3.98659 3.30282,-6.49226 5.8086,-8.65625 2.19249,-1.89355 4.73351,-3.52698 7.24218,-3.52344 z m 64.4043,0.4082 c 2.28058,0.0964 4.12702,1.57787 6.36914,4.14063 3.98599,4.55596 9.22404,12.52729 8.3125,19.58789 -0.91154,7.06059 -7.97265,13.21229 -15.375,15.49023 -7.40235,2.27795 -15.14561,0.68204 -20.38476,-2.39258 -5.23922,-3.07455 -7.97302,-7.62886 -4.55664,-14.46289 3.41631,-6.83396 12.98211,-15.94575 19.13281,-19.93164 2.69093,-1.74382 4.72817,-2.50664 6.50195,-2.43164 z m -62.45117,13.36524 c -4.66931,7.1e-4 -8.45436,3.7858 -8.45508,8.45507 -3.7e-4,4.67008 3.785,8.45633 8.45508,8.45704 4.6708,3.6e-4 8.4574,-3.7862 8.45703,-8.45704 -7.2e-4,-4.67003 -3.787,-8.45543 -8.45703,-8.45507 z m 57.74219,0 c -4.66931,7.1e-4 -8.45436,3.7858 -8.45508,8.45507 -3.7e-4,4.67008 3.785,8.45633 8.45508,8.45704 4.6708,3.6e-4 8.4574,-3.7862 8.45703,-8.45704 -7.2e-4,-4.67003 -3.787,-8.45543 -8.45703,-8.45507 z m -101.52149,34.40429 c -9.38337,8.371 -17.862834,17.70339 -25.298826,27.84375 l 65.857426,49.65625 c 3.79444,-4.92331 8.13981,-9.39647 12.95117,-13.33203 z m 67.39844,2.92188 c -5.30718,0 -11.6594,2.30791 -9.60937,7.04883 1.57652,3.64589 4.3022,7.04687 9.60937,7.04687 5.30717,0 8.13423,-3.35879 9.60937,-7.04687 1.62294,-4.05758 -4.30219,-7.04883 -9.60937,-7.04883 z M 63.019531,215.56641 C 57.014416,229.5495 52.808867,244.2388 50.503906,259.28125 l 82.361324,10.13867 c 0.82538,-7.51422 2.69224,-14.87724 5.54688,-21.87695 z m 69.845699,73.67382 -83.341792,10.25782 c 1.198283,15.44389 4.387498,30.66846 9.488281,45.29492 l 79.400391,-33.67578 c -2.85464,-6.99977 -4.7215,-14.36267 -5.54688,-21.87696 z m 15.69922,38.95313 -71.749997,54.09961 c 8.734702,13.56485 19.255717,25.89245 31.279297,36.65039 l 56.4082,-74.81055 c -6.0251,-4.54923 -11.38895,-9.9138 -15.9375,-15.93945 z m 33.01172,26.09766 -37.90234,89.36718 c 14.88725,7.96131 30.82199,13.7861 47.33398,17.30274 l 12.44727,-101.11328 c -7.51536,-0.82833 -14.87907,-2.69854 -21.87891,-5.55664 z" /></g></svg>
