<svg width="512" height="512" viewBox="0 0 512 512" fill="none" xmlns="http://www.w3.org/2000/svg">
<rect width="512" height="512" fill="black"/>
<path d="M461.378 238.712C464.453 260.226 461.378 364.723 461.378 364.723H470.602C470.602 364.723 473.748 278.369 470.602 235.638C460.354 220.271 439.857 186.463 439.857 174.169V140.362V115.774C439.857 113.315 435.758 110.652 433.709 109.627C389.642 92.2109 299.663 56.7638 292.285 54.3051C283.061 51.2316 276.913 51.2316 261.54 54.3051C246.168 57.3785 187.754 78.8927 175.456 85.0395C169.103 88.2151 161.929 95.4921 155.631 103.48L298.434 172.634C302.988 165.872 309.792 159.793 319.955 155.729C350.699 143.435 409.113 121.921 418.336 118.847C427.56 115.774 430.634 118.847 430.634 124.994V174.169C430.634 196.298 451.13 226.418 461.378 238.712Z" fill="white"/>
<path d="M289.21 300.181C289.21 300.181 304.582 303.254 307.657 318.621C308.682 345.258 310.116 407.751 307.657 444.633L283.061 460L220.703 425.218C232.431 415.253 240.253 397.335 240.253 376.889C240.253 345.593 221.927 320.222 199.32 320.222C177.817 320.222 160.187 343.174 158.516 372.346C139.389 361.485 105.56 342.024 86.2977 330.915C82.1985 328.866 74 321.695 74 309.401V269.446C74 260.226 95.521 214.124 110.893 211.051L289.21 300.181Z" fill="white"/>
<path d="M141.638 124.994C136.718 134.829 129.34 174.169 126.265 192.61C123.126 193.866 118.063 194.736 114.612 198.757L289.777 284.967L314.779 297.24L437.917 246.652C426.34 232.58 407.582 202.851 407.582 177.647V132.28L401.899 134.801V180.168C401.899 190.879 415.792 216.083 415.792 224.274V246.652L330.721 281.294C318.301 271.002 294.874 254.809 293.864 247.752L291.419 231.256C290.137 222.196 289.21 214.585 289.21 211.051C289.21 207.297 289.21 201.825 290.085 195.684L141.638 124.994Z" fill="white"/>
<path d="M439.083 258.083C439.083 255.632 308 308.552 308 308.552C310.388 309.862 312.291 314.119 313.018 322.579C314.39 338.563 313.018 369.547 313.018 424L334.969 419.584C334.969 410.874 340.305 403.812 346.886 403.812C350.785 403.812 354.246 406.29 356.42 410.121L427.167 377.947C427.167 369.236 432.502 362.175 439.083 362.175C441.767 362.175 444.243 363.349 446.234 365.329L451 357.885V322.579C451 310.329 439.083 261.145 439.083 258.083Z" fill="white"/>
<path d="M240 377C240 408.48 221.868 434 199.5 434C177.132 434 159 408.48 159 377C159 345.52 177.132 320 199.5 320C221.868 320 240 345.52 240 377Z" fill="black"/>
<ellipse cx="199.5" cy="376" rx="30.5" ry="43" fill="white"/>
<path d="M41.0629 242.266C41.0629 272.967 43.599 282.74 44.8671 283.788L65.1564 297V264.509C65.1564 257.311 78.4763 227.522 91.6839 213.375L41.3772 187.734C40.7912 192.263 41.0629 196.548 41.0629 200.114V242.266Z" fill="white"/>
<path d="M117.778 187.734C105.735 190.677 102.451 196.798 102.451 206.011L44.8671 176.888C47.1294 172.898 50.6909 169.004 56.2799 165.512L127 141C123.342 156.536 119.713 176.216 117.778 187.734Z" fill="white"/>
</svg>
