<svg xmlns="http://www.w3.org/2000/svg" viewBox="0 0 512 512"><path d="M0 0h512v512H0z"/><path fill="#fff" d="M16 16h368H16zm2 2v82.229c16.063 10.696 31.599 24.78 84.541 5.12 18.313 34.127 38.536 31.955 49.865 26.796 8.485 16.288 27.954 17.632 46.705 2.39h47.758c-8.805-8.129-21.845-21.577-23.207-31.566 8.38 16.884 39.24 23.456 55.516 31.566h51.27c22.257-14.06 2.809-29.613-5.971-39.72-15.059-17.335-41.44-20.089-66.018-19.665 10.77-16.387-1.606-27.483-11.238-35.117-11.596-9.19-27.181-12.7-44.246-3.512 2.648-7.48 1.83-13.496-.897-18.521H18zm181 133v64h-45.094l-29.199 73H80l39.889 39.889c-27.265 1.558-57.569 6.087-90.362 15.457l4.946 17.308c53.871-15.392 99.903-17.334 136.69-14.496l.081.572c.862-.123 1.733-.242 2.598-.365 36.772 3.103 64.027 10.895 80.242 14.428 39.037 8.504 109.468 26.473 213.355-16.477l-6.878-16.632a416.14 416.14 0 0 1-18.334 7.086c-15.861-4.566-32.157-8.058-48.711-10.665L448 256h-72.643l-17.4-41H329v-64h-50v64h-30v-64h-50zm18 18h14v46h-14v-46zm80 0h14v46h-14v-46zm-130.906 64h179.949l9.76 23H304l-16 32H144.092l22.002-55zm141.172 102.895c34.407.022 68.69 2.653 101.248 9.205-70.368 17.744-118.162 5.173-150.598-1.893-4.802-1.046-11.073-2.602-18.586-4.328 22.39-1.873 45.188-3 67.936-2.984zm-134.522 39.06c-.81.008-1.602.024-2.377.049-33.221 1.077-92.55 16.266-92.55 16.266l4.367 17.46s60.646-14.822 88.765-15.734c19.692-.638 64.457 7.18 64.457 7.18l3.229-17.71s-40.8-7.757-65.89-7.51zm140.15 32.018c-28.792-.034-65.085 7.954-95.09 15.923-30.972 8.227-55.077 16.602-55.077 16.602l5.906 17.004s23.507-8.164 53.79-16.207c30.285-8.043 67.512-15.798 92.878-15.297 32.976.652 63.925 9.707 93.023 18.904s56.252 18.717 82.518 18.717v-18c-21.734 0-47.76-8.61-77.094-17.88-29.333-9.272-62.066-19.025-98.092-19.737a148.96 148.96 0 0 0-2.761-.03z"/></svg>