<svg xmlns="http://www.w3.org/2000/svg" viewBox="0 0 512 512"><path d="M0 0h512v512H0z"/><path fill="#fff" d="M156.57 22.566c-1.566 2.528-3.189 6.016-4.377 10.727-2.523 10.003-3.254 23.679-1.513 37.383 1.74 13.704 5.94 27.454 12.453 38.021a56.705 56.705 0 0 0 5.197 7.155c14.739-5.381 29.878-12.334 45.508-18.188 23.404-8.765 48.567-15.053 74.94-7.318a64.115 64.115 0 0 1 18.882 9.1l25.387-6.153c-9.732-15.709-28.765-35.449-48.922-42.52l-.32-.11-.311-.138c.302.133-8.195-.71-18.522-.02-10.326.692-23.36 1.789-37.16 1.397-24.659-.7-53.01-6.674-71.242-29.336zm271.514 61.252c-19.57-.079-46.106 3.298-76.533 14.442 4.226 17.662 9.268 34.141 17.267 47.578 9.305 15.628 22.043 27.565 43.805 34.086 14.84-22.41 26.025-43.193 33.633-59.865 4.885-10.707 8.303-19.746 10.26-26.235a57.057 57.057 0 0 0 1.49-6.1c-.965-.351-1.584-.657-3.06-1.037-5.155-1.326-13.085-2.53-23.036-2.808-1.244-.035-2.52-.055-3.826-.06zm-36.016 14.698a18.127 18.763 0 0 1 18.127 18.763 18.127 18.763 0 0 1-18.127 18.762 18.127 18.763 0 0 1-18.127-18.762 18.127 18.763 0 0 1 18.127-18.763zm-127.902 6.322c-14.353-.03-28.832 3.997-44.016 9.683-22.085 8.271-44.998 20.047-69.681 25.448l-.01.002-.012.002c-26.6 5.753-47.864 3.407-66.307-3.133-11.18-3.965-21.301-9.414-31.295-15.205 3.223 9.405 7.201 19.19 11.823 28.992 32.696 12.67 72.32 10.22 101.117 9.926l.183 17.998c-23.345.238-56.918 2.6-89.527-5.424a280.65 280.65 0 0 0 13.887 21.725l.084-.36c36.765 8.661 68.775 4.345 94.722-2.031l4.295 17.48c-22.672 5.572-50.697 9.827-82.482 5.8 4.416 4.889 8.98 9.443 13.666 13.57 2.23 1.963 4.48 3.828 6.746 5.587 32.378-1.361 56.2-6.989 69.039-16.345L207 233.1c-12.96 9.444-30.337 14.798-51.582 17.578 7.043 2.442 14.14 3.74 21.218 3.728 19.009-.03 39.048-9.008 60.157-33.89l13.726 11.644c-23.453 27.647-48.975 40.207-73.853 40.246-6.032.01-11.956-.695-17.758-2.011-9.578 15.197-19.043 31.578-28.332 49.277l-2.336 4.451-5.014.346c-16.916 1.168-26.468 5.796-35.252 13.283-8.784 7.487-16.633 18.512-27.316 31.734-1.545 1.912-3.841 7.517-5.664 15.026 9.127-5.918 18.082-9.991 27.115-12.946l5.596 17.108c-12.054 3.942-23.15 9.673-36.022 20.865-.235 4.469-.32 9.083-.27 13.736 10.08-6.864 20.846-13.317 33.18-17.054l5.221 17.226c-12.391 3.755-24.44 12.046-37.135 20.936.692 6.153 1.648 12.09 2.871 17.51 8.1-9.954 16.812-19.699 27.635-26.467l9.543 15.262c-9.955 6.225-19.81 18.36-30.074 31.13 2.676 4.566 5.404 6.957 7.404 7.616.16-.044.316-.068.805-.309 1.308-.645 3.457-2.105 5.906-4.242 4.898-4.275 11.054-11.136 17.432-19.024 12.755-15.774 26.53-35.597 37.287-49.31l6.912-8.813 7.117 8.647c11.79 14.323 28.932 30.89 45.32 41.68 8.195 5.395 16.21 9.31 22.838 11.013 6.588 1.693 11.3 1.272 14.819-.71.05-.06.327-.417.685-1.708.37-1.33.624-3.432.645-6.025a110.008 110.008 0 0 0-27.301-5.58l1.352-17.95a128.47 128.47 0 0 1 23.07 3.868 160.145 160.145 0 0 0-2.623-9.354c-11.874-2.542-24.824-2.652-38.22-3.674l1.366-17.947c9.154.698 19.105.833 29.422 2.104-1.6-3.566-3.293-7.07-5.049-10.444-12.925-2.51-28.661-1.447-45.04-.76l-.755-17.984c8.223-.345 16.763-.959 25.37-1.002a145.421 145.421 0 0 1 8.531.186c-3.337-4.583-6.503-8.136-9.166-10.102l-.809-.598c-13.008.3-23.244-1.175-23.418-5.712.373-1.055 7.105-3.314 16.201-5.91l10.487-3.547c94.5-31.956 162.346-97.429 205.85-156.86a502.599 502.599 0 0 0 2.964-4.107c-22.787-8.364-38.379-22.872-48.705-40.215-9.09-15.267-14.477-32.445-18.719-49.92a285.524 285.524 0 0 0-13.806 6.602c9.123 11.188 14.452 25.04 15.197 38.824.698 12.906-2.757 26.08-11.377 36.531-8.62 10.45-22.218 17.727-39.885 19.8l-2.1-17.876c14.021-1.646 22.683-6.811 28.1-13.38 5.418-6.567 7.78-14.986 7.288-24.103-.987-18.232-13.95-37.927-34.336-43.906-6.526-1.914-13.023-2.766-19.547-2.78zm107.154 79l2.404 17.84s-4.836.658-10.453 2.11c-5.616 1.45-11.914 4.488-12.695 5.269-2.863 2.86-4.196 8.963-5.328 17.474-1.132 8.511-2.084 19.476-10.652 27.805-12.107 11.768-28.014 14.285-42.24 16.29-14.228 2.007-27.211 3.68-36.009 9.41-7.323 4.768-18.5 16.902-27.01 27.564-8.509 10.661-14.747 19.836-14.747 19.836l-14.887-10.118s6.59-9.7 15.566-20.947c8.977-11.246 19.945-24.053 31.254-31.418 13.753-8.956 29.565-10.211 43.32-12.15 13.756-1.94 25.018-4.385 32.208-11.373 2.881-2.801 4.227-8.789 5.355-17.27 1.128-8.48 2.015-19.41 10.447-27.836 6.292-6.287 14.147-8.216 20.916-9.965 6.77-1.748 12.551-2.521 12.551-2.521z"/></svg>