<svg xmlns="http://www.w3.org/2000/svg" viewBox="0 0 512 512"><path fill="#fff" d="m145.965 0 58.217 129.502 94.32-40.525L258.338 0h-46.123l32.312 72.883-14.802 6.525L194.525 0h-48.56zM385.33 70.176 135.406 178.422l10.83 25.453L397.244 95.746l-11.914-25.57zm-61.172 88.57a6.8 6.8 0 0 0-1.738.361l-21.572 10.38c11.553 4.873 23.468 12.365 34.57 14.08 15.316-11.085-1.974-25.58-11.26-24.82zm-56.525 10.379-32.672 15.074c-10.74 16.608-13.359 41.517-16.428 62.908 18.593 27.168 27.53 56.323 35.653 84.844 16.156-3.34 29.062-6.139 43.955-10.38-22.023-34.93-38.09-70.763-48.38-107.317 0 0 5.056-9.476 7.583-14.26 10.74 6.589 22.475 11.192 33.035 8.936 9.026-3.7 19.406-7.13 25.002-14.983-15.886-6.228-33.487-15.796-47.748-24.822zm86.092 23.857a4.783 4.783 0 0 0-2.512.153c-9.748 5.235-20.76 10.109-28.793 17.058-4.784 4.242-10.92 7.943-18.502 11.102.993 6.589-.09 17.69 7.31 16.969 18.503-5.596 36.554-13.54 53.883-25.635-.079-7.266-5.546-18.47-11.386-19.647zm-83.924 31.02c10.199 31.41 24.91 62.279 44.496 92.605a233.103 233.103 0 0 0 12.185-4.513c-6.588-5.596-10.56-14.352-10.832-22.836-14.982-3.7-18.772-26.536-15.523-37.547-8.575-6.318-12.275-16.337-12.816-25.904-6.499.631-12.275-.09-17.51-1.805zm93.236 9.387c-12.275 7.31-24.913 12.907-37.549 17.33l-8.123 3.97c-3.971 4.152-4.062 14.08.903 18.323 8.755 3.159 45.22-19.135 52.08-25.182 1.173-5.235-3.159-13.448-7.31-14.441zm-160.75 19.134L53 287.273v143.69c86.377-22.835 132.59-42.511 189.271-81.412-9.747-34.298-18.502-67.513-39.984-97.028zm169.504 15.254c-12.275 9.207-24.55 14.621-38.72 19.315-.362 6.047 2.256 16.337 10.921 14.441 17.962-3.88 32.763-15.795 33.033-22.203.18-3.34-1.804-9.477-5.234-11.553zm25.617 28.912c-6.07-.096-13.618 2.562-19.326 3.725-25.68 5.235-68.539 35.815-68.539 35.815l-19.787 64.603c23.663 4.005 54.153 21.672 70.012 50.78 34.049-16.305 45.16-22.47 61.953-36.616 9.279-7.817 21.974-17.119 23.15-29.312 1.055-10.93-8.053-13.3-8.053-13.3s5.75-12.558 1.934-19.306c-3.902-6.902-7.39-9.03-15.32-7.69 4.718-6.188 2.527-16.577-1.118-22.034-4.8-6.364-13.462-2.381-13.462-2.381 2.196-5.124 2.897-11.093-2.834-20.217-1.86-2.96-4.968-4.009-8.61-4.067zm-118.71 117.53-94.286 97.779 151.322.002c6.597-10.283 12.523-29.758 15.133-46.563-27.635-49.282-72.17-51.218-72.17-51.218zm147.976 11.242c-12.289 8.638-24.925 16-38.645 22.82l11.93 21.073 35.47-16.97-8.755-26.923zm18.594 40.193-39.805 19.043 2.799 19.768c13.629.451 42.059-10.2 50.002-23.559-4.22-5.111-8.657-10.188-12.996-15.252z"/></svg>
