<?xml version="1.0" encoding="UTF-8" standalone="no"?>
<!DOCTYPE svg PUBLIC "-//W3C//DTD SVG 1.1//EN" "http://www.w3.org/Graphics/SVG/1.1/DTD/svg11.dtd">
<svg width="100%" height="100%" viewBox="0 0 512 512" version="1.1" xmlns="http://www.w3.org/2000/svg" xmlns:xlink="http://www.w3.org/1999/xlink" xml:space="preserve" xmlns:serif="http://www.serif.com/" style="fill-rule:evenodd;clip-rule:evenodd;stroke-linejoin:round;stroke-miterlimit:2;">
    <rect x="0" y="0" width="512" height="512" style="fill-rule:nonzero;"/>
    <path d="M165.45,369.527C160.117,376.319 153.437,384.037 145.29,390.691C161.597,422.135 179.858,453.583 202.77,482.864L229.523,482.864C200.563,447.284 181.683,407.741 165.45,369.528L165.45,369.527ZM271.292,336.201C243.243,317.971 242.959,278.506 244.514,260.209C244.745,257.731 243.922,255.272 242.246,253.433C240.571,251.593 238.198,250.545 235.71,250.545C222.029,250.532 199.173,250.532 199.173,250.532C199.173,250.532 187.876,246.455 177.899,241.977C172.391,239.505 174.273,234.989 169.583,230.386L169.583,230.384C155.536,233.174 142.175,235.954 130.153,238.674C117.559,242.949 109.498,249.481 103.233,258.439C96.913,267.469 92.589,279.237 89.15,293.189C82.3,320.967 79.124,356.926 66.077,394.047L48.612,459.481C52.56,463.221 56.334,465.754 60.329,469.336C63.817,472.466 67.019,477.093 68.909,482.84L92.356,482.84C92.949,473.34 89.646,463.006 81.5,456.34L76.32,452.105L102.462,389.152L107.812,388.615C129.052,386.482 148.36,362.505 159.002,348.353L162.752,343.371L168.734,345.129C191.334,351.766 271.292,336.201 271.292,336.201ZM292.266,221.632L294.935,233.627C300.104,251.946 296.632,261.711 305.886,275.717C329.358,282.525 336.195,309.683 337.028,328.854C337.028,328.855 337.028,328.856 337.029,328.857C337.03,328.857 337.031,328.857 337.031,328.857C360.41,322.792 359.677,321.148 361.904,314.658L370.229,301.165L380.14,308.673C408.723,330.331 418.126,326.463 435.621,354.443C442.069,363.536 439.63,367.462 444.622,372.903C448.69,377.337 447.554,383.125 450.167,388.82L478.42,389.007C476.622,379.138 476.941,373.813 464.409,362.476L465.775,356.913L460.723,345.217C447.615,317.517 417.722,291.603 401.096,268.06L397.294,262.677L401.283,257.426C407.572,249.147 409.53,241.626 409.321,233.627C409.112,225.626 406.401,217.048 402.291,208.264C400.475,204.388 398.38,200.534 396.176,196.689C386.798,210.309 377.248,219.549 367.079,225.237C355.961,231.457 344.308,233.076 333.22,232.152C313.929,230.543 311.936,226.464 292.266,221.632ZM83.496,256.24C77.809,258.747 72.211,261.403 67.382,263.98C61.248,267.253 56.749,270.52 55.012,272.01C50.456,287.8 48.492,302.098 43.232,316.894C38.512,330.17 30.745,343.474 16.572,357.004C28.196,367.004 39.806,373.214 54.042,372.32C62.244,343.1 65.422,314.24 71.672,288.88C74.56,277.17 78.144,266.137 83.497,256.24L83.496,256.24ZM431.795,226.481C431.984,235.73 429.628,245.383 424.371,254.672C424.418,254.734 424.472,254.811 424.519,254.875L447.518,256.352L459.365,280.702L451.278,293.195C455.731,300.139 460.081,307.357 464.091,314.658C464.449,314.418 464.816,314.182 465.168,313.941C473.931,307.956 480.162,301.842 483.148,293.842C482.373,268.115 481,251.624 468.366,233.359C461.485,229.046 447.106,226.226 433.904,226.425C433.195,226.436 432.494,226.457 431.796,226.481L431.795,226.481ZM169.239,187.434L169.238,187.431L169.237,187.433L169.239,187.434C171.38,204.961 176.361,221.575 185.468,233.151C193.764,243.544 201.017,244.527 211.921,243.644C222.835,242.76 236.212,238.411 251.025,238.163L258.337,238.042L259.952,245.176C264.484,265.189 265.796,286.214 262.32,308.248C275.136,313.584 292.976,314.16 312.087,313.999L312.218,301.496L282.931,284.415L284.191,278.114C287.475,261.697 280.212,235.931 275.629,219.197C265.179,216.155 245.282,217.531 224.366,214.8L216.548,213.781L216.531,205.897C216.528,204.812 216.556,203.708 216.573,202.61C203.016,203.25 189.682,201.148 178.239,193.89C175.046,191.865 172.05,189.703 169.239,187.434ZM117.713,244.104C117.693,244.104 117.393,244.18 117.355,244.184C117.725,244.204 117.785,244.098 117.715,244.104L117.713,244.104ZM379.368,81.157C373.923,86.442 369.007,92.743 364.679,99.946C350.832,122.992 343.726,155.123 347.033,189.957L348.068,200.856L295.841,195.623C294.789,197.075 293.8,198.429 292.741,199.894C311.126,204.329 326.739,210.041 339.791,210.766C348.323,211.24 355.581,209.99 363.227,205.429C370.331,201.192 377.941,193.762 386.017,181.174C378.567,177.505 373.129,171.421 369.518,165.036C364.837,156.756 362.352,147.792 359.86,140.039L377.001,134.534C378.457,139.071 379.854,143.532 381.358,147.582C384.784,143.792 390.121,137.816 395.092,132.165C401.039,125.404 404.567,121.356 406.571,119.06C405.261,115.328 404.359,111.785 404.061,108.163C403.611,102.729 405.013,96.803 408.451,92.361C409.311,91.251 410.23,90.229 411.214,89.282C416.116,84.568 422.63,81.725 431.026,79.007C428.043,73.36 425.095,67.782 422.229,62.306C405.802,62.877 391.312,69.571 379.37,81.16L379.368,81.157ZM429.122,185.808C433.33,189.722 437.397,194.32 442.28,200.377C447.085,205.278 452.854,205.84 457.8,202.867C462.766,199.886 467.93,192.376 466.499,176.413L466.471,176.097L466.465,175.778C466.43,173.878 466.31,171.95 466.136,170.008C456.624,175.725 446.005,180.624 435.5,183.962C433.366,184.638 431.241,185.246 429.12,185.808L429.122,185.808ZM164.965,123.695C164.815,123.778 164.663,123.867 164.513,123.966C163.476,124.67 162.417,126.06 161.137,128.249C156.632,144.751 164.856,164.087 187.878,178.687C197.92,185.057 212.539,185.986 228.735,183.133C242.432,180.721 256.77,175.722 269.471,170.448L266.245,156.88C259.906,158.302 252.211,160.431 243.912,162.219C231.86,164.817 218.311,166.666 204.927,162.618L204.458,162.477L204.005,162.283C196.485,159.08 192.467,152.831 188.26,145.268C184.833,139.112 181.623,131.509 178.456,123.244C174.463,122.925 170.944,122.569 168.652,122.827C167.153,122.995 166.024,123.122 164.964,123.694L164.965,123.695ZM351.418,54.437C324.267,82.015 300.113,141.466 294.119,177.36L328.471,180.801C327.095,146.689 334.58,115.091 349.251,90.675C364.134,65.904 386.984,48.563 414.378,45.078C414.373,42.544 413.643,40.788 412.457,39.327C410.551,36.978 406.499,34.751 400.346,34.049C388.04,32.643 369.019,37.927 354.056,51.869C353.174,52.69 352.296,53.546 351.418,54.436L351.418,54.437ZM416.706,134.809C413.983,137.923 412.808,139.281 408.607,144.055C401.444,152.196 394.519,160.099 391.143,163.536C392.846,164.804 394.819,165.7 397.27,166.278L398.249,166.509L399.153,166.95C400.872,167.789 402.474,168.586 404.022,169.371C408.915,170.76 418.98,170.318 430.05,166.805C441.125,163.288 453.1,157.346 462.6,150.907C461.906,148.318 461.127,145.705 460.278,143.076C452.866,143.938 444.923,144.48 437.031,143.422C429.968,142.475 422.623,139.812 416.706,134.809ZM196.697,120.714C199.196,126.933 201.659,132.334 203.986,136.518C207.253,142.387 210.534,145.259 210.868,145.527C213.543,146.265 216.408,146.669 219.413,146.808C219.283,137.157 218.278,128.078 215.462,120.189L196.698,120.714L196.697,120.714ZM266.416,31.879C265.158,47.905 264.327,64.498 256.411,88.961L255.728,91.071L254.142,92.623C247.342,99.277 239.276,105.019 231.009,110.454C233.34,115.816 234.992,121.353 236.113,126.986C249.184,120.013 260.999,112.416 270.075,103.042C277.795,79.183 285.124,54.399 281.915,31.828L266.416,31.879ZM423.02,103.015C422.881,103.146 422.771,103.266 422.684,103.377C421.994,104.269 421.818,104.5 421.997,106.681C422.17,108.772 423.205,112.453 425.199,117.297C428.273,122.677 432.416,124.642 439.421,125.581C443.595,126.141 448.545,126.022 453.759,125.59C449.576,115.562 444.674,105.408 439.546,95.346C430.033,98.581 424.659,101.45 423.017,103.016L423.02,103.015ZM184.679,40.157C181.922,41.801 179.449,44.471 177.412,48.213C174.149,54.198 172.468,62.702 173.758,71.837C175.051,80.97 179.02,88.676 183.812,93.524C188.605,98.372 193.702,100.277 198.583,99.588C203.464,98.898 207.836,95.655 211.098,89.67C214.359,83.684 216.038,75.179 214.749,66.045C213.458,56.913 209.487,49.206 204.696,44.358C199.904,39.511 194.804,37.606 189.924,38.297C188.093,38.554 186.336,39.17 184.68,40.158L184.679,40.157Z" style="fill:white;"/>
</svg>
