<svg xmlns="http://www.w3.org/2000/svg" viewBox="0 0 512 512"><path d="M0 0h512v512H0z"/><path fill="#fff" d="m 241.71373,15.605469 c -79.41562,0 -143.349324,63.93571 -143.349324,143.351341 v 194.08638 c 0,79.41563 63.933704,143.35134 143.349324,143.35134 h 28.57252 c 79.41563,0 143.34934,-63.93571 143.34934,-143.35134 V 158.95681 c 0,-79.415631 -63.93371,-143.351341 -143.34934,-143.351341 z m -7.36146,45.448806 107.59963,124.433875 -73.67678,72.22853 73.36631,73.84905 -107.28916,129.91641 V 290.97249 l -57.92024,56.78046 -19.02564,-19.41024 72.30465,-70.88043 -72.43285,-72.90759 19.28204,-19.15384 57.79204,58.17063 z m 27.17834,72.981705 v 92.2317 l 43.16325,-42.31393 z m 0,155.4542 v 96.40019 l 43.47373,-52.64202 z"/></svg>
