<svg xmlns="http://www.w3.org/2000/svg" viewBox="0 0 512 512"> <path d="M0 0h512v512H0z"/> <path fill="#fff" d="m 299.05975,68.388146 -47.35153,70.617734 -19.21114,-29.73396 -39.87027,121.22224 47.33097,-70.61374 19.23253,29.73115 39.86874,-121.226014 z M 102.84837,42.271464 116.09167,126.25757 81.792723,117.49603 134.91017,233.5262 121.65476,149.55715 155.96722,158.30188 102.84613,42.269934 Z M 473.65389,226.57331 c 4.26307,-9.8472 7.3172,-20.82753 8.85155,-33.10753 l 0.047,-0.094 c 0.0118,-0.12575 0.0235,-0.25267 0.0235,-0.38077 0.005,-0.10577 0.0105,-0.20214 0.004,-0.30555 0.004,-0.12693 -0.006,-0.25267 -0.0118,-0.37842 -0.006,-0.10577 -0.0118,-0.20919 -0.0235,-0.31143 -0.007,-0.13163 -0.0353,-0.25855 -0.047,-0.38665 -0.0235,-0.094 -0.0353,-0.19508 -0.047,-0.29262 -0.0235,-0.12458 -0.0588,-0.2562 -0.094,-0.38195 -0.0235,-0.094 -0.047,-0.19391 -0.0823,-0.2891 -0.0352,-0.11869 -0.0823,-0.24562 -0.12339,-0.36549 -0.0353,-0.094 -0.0705,-0.18803 -0.10577,-0.28087 -0.047,-0.1234 -0.10577,-0.2421 -0.16336,-0.36314 -0.047,-0.0823 -0.0823,-0.16688 -0.12339,-0.24797 -0.0588,-0.11752 -0.13868,-0.24444 -0.21389,-0.36314 -0.047,-0.0823 -0.094,-0.1563 -0.14338,-0.23152 -0.0823,-0.10577 -0.1516,-0.21859 -0.23151,-0.32318 -0.0588,-0.0705 -0.11987,-0.15395 -0.18216,-0.23152 -0.0823,-0.10576 -0.17393,-0.20331 -0.26795,-0.2985 -0.0705,-0.0705 -0.1328,-0.1469 -0.20096,-0.21506 -0.094,-0.094 -0.19156,-0.18569 -0.2938,-0.26795 -0.0705,-0.0705 -0.14338,-0.13867 -0.22094,-0.19861 -0.13162,-0.10577 -0.26325,-0.21624 -0.40427,-0.30908 L 411.6341,139.88729 c -2.68653,-1.85989 -6.31087,-1.57219 -8.67105,0.68632 l -46.5545,44.56817 -54.81023,52.44723 -71.38561,68.34112 -0.047,0.10577 c -0.094,0.10577 -0.19038,0.20331 -0.28675,0.30673 -0.0705,0.0588 -0.1422,0.12105 -0.20801,0.18686 -0.094,0.10577 -0.17864,0.20684 -0.26443,0.31495 -0.0823,0.0705 -0.15512,0.15161 -0.22799,0.23035 -0.047,0.10576 -0.094,0.21388 -0.13867,0.322 -0.047,0.10577 -0.094,0.21272 -0.13868,0.32084 -0.047,0.094 -0.0823,0.19038 -0.12339,0.28557 -0.0588,0.11752 -0.10577,0.23622 -0.15866,0.35609 -0.0352,0.0705 -0.0705,0.16218 -0.094,0.24444 l -20.4651,56.94371 c -0.8391,2.357 -0.33258,4.98359 1.32258,6.85922 l 56.55248,64.31603 0.006,0.0106 0.001,4.7e-4 -0.009,0.0235 c 2.70345,3.13334 7.54237,3.18552 10.31422,0.11752 5.07502,-3.94776 9.36571,-8.41461 12.96502,-13.2902 L 457.10588,253.33329 c 0.13985,-0.1469 0.275,-0.29968 0.4031,-0.45833 6.38197,-7.74486 11.8595,-16.45669 16.12504,-26.30341 z m -1.5467,-21.45333 c -0.35726,0.84263 -0.87905,1.60604 -1.53435,2.24489 l -161.0093,159.71845 c -2.37392,2.35723 -6.0991,2.66655 -8.82923,0.73333 -0.23034,-0.31731 -0.48654,-0.61464 -0.76741,-0.88964 l -1.13526,-1.15052 c -1.65492,-2.71897 -1.23009,-6.21792 1.02714,-8.46175 L 460.88959,197.60628 c 5.32875,-5.36847 14.15751,0.54647 11.22019,7.51652 z M 284.10028,405.66591 c -1.26464,2.92403 -2.84941,5.67015 -4.69461,8.27829 l -8.03784,8.15101 -26.49921,-30.13412 c 2.43433,1.77256 4.97443,3.23864 7.49431,4.29539 5.82998,2.44478 11.44384,2.63047 15.25469,0.41014 3.81097,-2.22102 5.67215,-6.76685 5.1198,-12.28081 -0.14103,-1.36242 -0.42073,-2.78925 -0.83205,-4.23017 0.37372,0.64519 0.80149,1.28521 1.30131,1.89361 1.42423,1.73391 3.30809,3.20445 5.19619,3.99889 1.89267,0.79326 3.75561,0.87906 5.03612,0.1563 0.64284,-0.35961 1.11527,-0.89081 1.3945,-1.56632 0.28205,-0.67457 0.37725,-1.49475 0.28205,-2.36781 -0.20331,-1.75 -1.16698,-3.72318 -2.59345,-5.46049 -1.42964,-1.73614 -3.30645,-3.20503 -5.19924,-3.99771 -1.8915,-0.79209 -3.75444,-0.87906 -5.03577,-0.15748 -1.27369,0.72393 -1.85754,2.19259 -1.69759,3.92473 -1.38581,-3.29423 -3.36827,-6.62078 -5.83997,-9.6983 -4.46767,-5.56755 -10.41459,-10.20504 -16.24668,-12.64795 -5.82998,-2.44479 -11.48144,-2.59968 -15.29253,-0.37842 -3.81179,2.21997 -5.63442,6.73278 -5.07972,12.24709 0.34904,3.44689 1.61568,7.23847 3.60824,10.95601 l -9.41084,-10.70498 15.37773,-42.84942 50.68901,51.31233 c 0.94017,11.95176 -0.47596,22.09688 -4.34275,30.83009 z M 98.525943,247.89513 121.41983,365.28443 37.04534,383.61181 c -3.13369,0.67457 -5.38598,3.42421 -5.43029,6.62936 l -0.76858,55.36645 c -0.0705,4.69379 4.486,8.07287 8.96003,6.65169 l 106.04769,-33.89421 17.46584,-3.38695 c 0.1281,0.002 0.25503,0.009 0.38312,0.009 7.2085,0 13.9971,-3.43396 18.73801,-9.03031 4.73738,-5.59282 7.21567,-12.88029 7.2085,-20.3887 v 0 c 0.004,-4.7596 -0.99306,-9.43928 -2.92874,-13.65123 l -18.29848,-94.53696 z m 15.286997,6.42722 11.59461,4.88887 21.5269,101.04213 c -2.17567,-0.66986 -4.4477,-1.02243 -6.76392,-1.02243 -1.97224,0 -3.9098,0.2703 -5.78344,0.75214 L 113.81294,254.32117 Z m 27.04473,11.40188 12.3209,5.19442 16.65271,86.03707 c -1.97799,-0.5406 -4.02838,-0.8344 -6.1159,-0.8344 -1.18955,0 -2.36464,0.11752 -3.52246,0.28205 L 140.85838,265.7254 Z m 22.857,104.19992 c 2.79688,0 5.97899,1.43141 8.30614,4.17904 2.32774,2.74764 3.93366,7.16055 3.9272,11.43597 0.007,4.27541 -1.60016,8.68832 -3.92649,11.43596 -1.1047,1.3033 -2.40084,2.29988 -3.75632,2.99913 l -4.4477,0.8579 c 1.52472,-3.81825 2.30529,-7.96556 2.30094,-12.18339 v 0 c 0.003,-2.73236 -0.32671,-5.43769 -0.9719,-8.04196 0.0235,-0.54647 -0.0235,-1.09294 -0.13985,-1.62766 l -1.92299,-9.01973 h 0.62991 z m -23.54414,3.11313 c 2.7977,0 5.98052,1.4314 8.30826,4.17904 2.32715,2.74764 3.93166,7.16173 3.92578,11.43714 0.008,4.27541 -1.60016,8.68832 -3.92649,11.43596 -2.32773,2.74764 -5.50985,4.18022 -8.30826,4.18022 -2.79688,0 -5.96101,-1.43376 -8.28804,-4.18022 -2.32691,-2.74764 -3.95176,-7.16055 -3.94588,-11.43596 -0.007,-4.27541 1.61897,-8.6895 3.94588,-11.43714 2.32703,-2.74764 5.49116,-4.17904 8.28804,-4.17904 z m -24.97625,7.66706 c -0.62991,2.57724 -0.95309,5.24966 -0.94957,7.94912 v 0 c -0.007,7.50724 2.469,14.79588 7.20639,20.3887 0.6064,0.71688 1.24736,1.39733 1.91711,2.03899 l -78.619018,25.12715 0.56645,-40.34258 69.879228,-15.18018 z"/> </svg>