<svg xmlns="http://www.w3.org/2000/svg" viewBox="0 0 512 512"> <path d="M0 0h512v512H0z"/> <path fill="#fff" d="m 176.16797,76.670154 c -2.78667,-0.01222 -6.30274,0.683348 -10.4961,3.519531 -38.00552,26.492605 -76.662032,51.907175 -115.886723,76.554685 -2.688546,1.73282 -3.23255,3.25106 -3.1875,4.23438 0.04505,0.98332 0.726357,2.45052 3.566406,3.93554 l 87.925787,45.94727 0.002,0.002 c 0.1649,0.0862 3.84754,0.82451 7.61524,0.42188 3.7677,-0.40264 7.93477,-1.60162 10.62305,-3.33399 L 272.3125,133.20336 v 0.002 c 2.68858,-1.73328 3.2324,-3.2534 3.1875,-4.23633 -0.0449,-0.98293 -0.72528,-2.44863 -3.56446,-3.93359 C 241.4314,109.09428 213.35326,94.44216 182.75195,78.334216 l -0.15234,-0.08008 -0.14453,-0.09375 c -1e-5,0 -2.21479,-1.472034 -6.28711,-1.490234 z m 96.60351,65.789066 -112.09375,72.23828 c -4.27759,2.75654 -9.40914,4.06719 -14.11719,4.57031 -4.70804,0.50312 -8.6775,0.54513 -12.18945,-1.29102 L 49.714835,173.73656 c -2.621937,1.71207 -3.161804,3.21364 -3.117188,4.1875 0.04505,0.98332 0.726358,2.45053 3.566406,3.93555 v -0.002 l 87.925787,45.94922 h 0.002 c 0.16489,0.0862 3.84754,0.82451 7.61524,0.42188 3.7677,-0.40264 7.93477,-1.60162 10.62305,-3.33399 L 272.3125,150.14867 c 2.68858,-1.73328 3.2324,-3.2534 3.1875,-4.23633 -0.0401,-0.87664 -0.59683,-2.13728 -2.72852,-3.45312 z m -0.0195,16.95703 -112.07422,72.22656 c -4.27759,2.75655 -9.40914,4.06524 -14.11719,4.56836 -4.70804,0.50312 -8.6775,0.54514 -12.18945,-1.29102 L 49.736319,190.69359 c -1.311823,0.85326 -2.110183,1.65394 -2.570313,2.36328 -0.466437,0.71908 -0.590884,1.34428 -0.568359,1.83594 0.02252,0.49166 0.203411,1.10395 0.734375,1.7793 0.530964,0.67534 1.412007,1.41373 2.832031,2.15625 l 87.925787,45.94726 h 0.002 c 0.0825,0.0431 1.04482,0.24902 2.45703,0.39453 1.41224,0.14551 3.27436,0.23062 5.15821,0.0293 1.88385,-0.20131 3.86804,-0.60135 5.71679,-1.16797 1.84877,-0.56662 3.56212,-1.29983 4.90626,-2.16601 L 272.3125,167.11742 c 1.34429,-0.86664 2.15272,-1.67937 2.61914,-2.39844 0.46641,-0.71907 0.59081,-1.34447 0.56836,-1.83594 -0.0225,-0.49146 -0.20378,-1.10389 -0.73438,-1.77929 -0.41856,-0.53279 -1.06692,-1.10524 -2.01367,-1.6875 z M 176.168,244.92211 c -2.78659,-0.0122 -6.30272,0.68334 -10.4961,3.51953 -38.00581,26.4928 -76.661722,51.90699 -115.886723,76.55469 -2.688547,1.73282 -3.23255,3.25105 -3.1875,4.23437 0.04505,0.98332 0.726358,2.45053 3.566406,3.93555 l 87.925787,45.94726 h 0.002 c 0.1649,0.0862 3.84754,0.82647 7.61524,0.42383 3.7677,-0.40263 7.93477,-1.60357 10.62305,-3.33594 l 96.91796,-62.46093 c -15.32205,-4.06398 -32.01058,-2.57672 -54.91211,3.05468 l -1.79492,0.44141 1.40235,1.20508 c 5.38098,4.62387 11.05426,8.64393 17.41211,12.30078 l -2.10157,7.49219 c -9.87754,-0.2516 -20.30985,-0.90412 -30.42773,-2.03711 -16.03011,-1.79529 -31.05255,-4.72596 -41.01367,-8.45899 l -3.03516,-1.13867 0.47461,-3.20703 c 2.85839,-19.32662 13.47788,-41.91872 24.56836,-60.1543 l 7.24219,-11.9082 0.19922,13.9375 c 0.12897,9.01574 1.44612,18.03597 5.63476,25.33398 l 0.4082,0.71289 0.76368,-0.30078 v -0.002 c 28.67675,-11.29226 54.34984,-12.18782 76.0957,-5.89062 h 0.002 c 0.62194,0.18049 1.23285,0.36599 1.83203,0.55078 l 0.004,0.002 h 0.006 c 1.28603,0.40036 2.55526,0.83149 3.8125,1.28125 -25.86599,-13.51524 -50.62748,-26.45312 -77.06836,-40.37109 l -0.15234,-0.0801 -0.14453,-0.0918 c -2e-5,0 -2.2148,-1.47203 -6.28711,-1.49023 z m -11.73438,33.59765 c -7.55727,14.09083 -14.01859,29.49683 -16.5918,42.70899 8.89336,2.86085 21.92365,5.4295 35.87696,6.99219 5.09037,0.57001 10.27429,1.0076 15.43554,1.33984 -2.18138,-1.63111 -4.36966,-3.24932 -6.44336,-5.03125 l -13.22461,-11.36524 16.9336,-4.16406 c 29.48977,-7.25143 51.01428,-8.04618 71.81836,1.70508 13.49976,6.32756 26.46251,16.84597 41.63672,31.48242 -7.81699,-15.10934 -19.03148,-28.36033 -33.0586,-37.73633 -7.04927,-4.71156 -14.78706,-8.49367 -23.19531,-11.11132 l 0.0117,0.002 c -0.57332,-0.17683 -1.14103,-0.3486 -1.70313,-0.51172 l 0.002,0.002 c -19.94125,-5.77462 -43.62071,-5.10019 -70.92188,5.65039 v -0.002 l -7.21679,2.84375 -3.85938,-6.72656 c -2.91003,-5.07025 -4.53823,-10.54819 -5.5,-16.07813 z m 201.63477,22.07618 c -1.3933,-0.006 -2.96771,0.16452 -4.71875,0.6914 -0.87552,0.26345 -1.79513,0.61622 -2.75782,1.08008 -0.96269,0.46386 -1.96922,1.039 -3.01757,1.74805 -13.83258,9.64229 -27.75826,19.13135 -41.75977,28.50195 4.7053,7.95732 8.47992,16.48092 11.22656,25.3125 l -6.70117,3.99805 c -7.08182,-7.24247 -13.55712,-13.64243 -19.63086,-19.25782 -0.21374,0.14164 -0.42661,0.28458 -0.64062,0.42579 -19.31171,12.74157 -38.77478,25.25441 -58.38086,37.57421 -1.34427,0.86643 -2.15269,1.67937 -2.61914,2.39844 -0.46644,0.71908 -0.59091,1.34428 -0.56836,1.83594 0.0225,0.49166 0.2034,1.10395 0.73437,1.7793 0.53096,0.67534 1.412,1.41373 2.83203,2.15625 l 87.92578,45.94726 c 0.0824,0.0431 1.04431,0.24902 2.45704,0.39453 1.41273,0.14552 3.2763,0.23062 5.16015,0.0293 1.88384,-0.20132 3.86802,-0.60135 5.7168,-1.16797 1.84876,-0.56662 3.56211,-1.29983 4.90625,-2.16602 l 115.98242,-74.74804 c 1.34429,-0.86665 2.15272,-1.67937 2.61914,-2.39844 0.46641,-0.71907 0.59081,-1.34447 0.56836,-1.83594 -0.0224,-0.49127 -0.20538,-1.10426 -0.73633,-1.77929 -0.53095,-0.67503 -1.4099,-1.41211 -2.82812,-2.1543 -30.50413,-15.94112 -58.58423,-30.5952 -89.18555,-46.70313 l -0.15039,-0.0781 -0.14453,-0.0937 c 0,0 -0.55397,-0.368 -1.61719,-0.73828 -1.06323,-0.37028 -2.6357,-0.74286 -4.67187,-0.75195 z m -103.19727,16.49609 -102.19336,65.85742 c -4.27759,2.75655 -9.40914,4.06524 -14.11719,4.56836 -4.70804,0.50312 -8.6775,0.54513 -12.18945,-1.29102 L 49.714835,341.98851 c -1.298243,0.84772 -2.091366,1.64438 -2.548829,2.34961 -0.466436,0.71908 -0.590884,1.34428 -0.568359,1.83594 0.02252,0.49165 0.203412,1.10397 0.734375,1.7793 0.530963,0.67533 1.412002,1.41379 2.832031,2.15625 l 87.925787,45.94726 0.002,0.002 c 0.0824,0.0431 1.04486,0.2495 2.45703,0.39453 1.41224,0.14502 3.27436,0.2287 5.15821,0.0273 1.88384,-0.20132 3.86804,-0.60135 5.71679,-1.16797 1.84878,-0.56662 3.56211,-1.29983 4.90626,-2.16601 l 113.03124,-72.84571 c -1.51453,-0.83309 -3.02535,-1.62228 -4.53124,-2.32812 -0.65268,-0.30592 -1.30543,-0.59742 -1.95899,-0.88086 z m 9.78906,10.63281 -111.98242,72.16797 c -1.06939,0.68914 -2.19151,1.28827 -3.34765,1.80664 -1.1562,0.51837 -2.34579,0.95666 -3.54883,1.32422 -2.4061,0.73512 -4.86668,1.18789 -7.22071,1.43945 -2.35402,0.25157 -4.52313,0.38854 -6.54296,0.23242 -1.00993,-0.0781 -1.98231,-0.23015 -2.92188,-0.47656 -0.93957,-0.24641 -1.84661,-0.58782 -2.72461,-1.04687 L 49.726553,358.93773 c -1.29039,0.84446 -2.104631,1.64042 -2.560547,2.34375 -0.466438,0.71957 -0.590884,1.34624 -0.568359,1.83789 0.02252,0.49166 0.20341,1.10395 0.734375,1.7793 0.530965,0.67535 1.41201,1.41374 2.832031,2.15625 v -0.002 l 87.925787,45.94921 h 0.002 c 0.0825,0.0431 1.04485,0.24951 2.45703,0.39454 1.41224,0.14502 3.27436,0.22869 5.15821,0.0273 1.88385,-0.20132 3.86804,-0.60135 5.71679,-1.16797 1.84878,-0.56662 3.56211,-1.29983 4.90626,-2.16601 l 115.98242,-74.7461 c 1.34429,-0.86663 2.15272,-1.68083 2.61914,-2.40039 0.46641,-0.71956 0.59081,-1.34447 0.56836,-1.83594 -0.0225,-0.49146 -0.20378,-1.10438 -0.73438,-1.77929 -0.39482,-0.5022 -1.24541,-1.05591 -2.10547,-1.60352 z"/> </svg>