<svg xmlns="http://www.w3.org/2000/svg" viewBox="0 0 512 512"> <path d="M0 0h512v512H0z"/> <path fill="#fff" d="m 283.38966,70.308353 c -5.3711,-0.02323 -12.12875,1.350697 -20.00196,6.675781 -68.82891,47.979276 -138.83695,94.007346 -209.880847,138.648426 -5.205618,3.35953 -6.681039,6.67393 -6.564453,9.21875 0.116675,2.54678 1.892271,5.72267 7.40039,8.60352 l 0.002,0.002 159.25781,83.22266 c 1.03131,0.53919 7.76673,1.7083 14.79687,0.95703 7.03015,-0.75128 14.78683,-2.94859 20.00391,-6.31055 L 458.48145,175.9392 c 5.21736,-3.36351 6.69254,-6.68205 6.57618,-9.22851 -0.11637,-2.54647 -1.88984,-5.72042 -7.39844,-8.60157 -55.25192,-28.874 -106.10927,-55.41379 -161.5332,-84.587877 l -0.20704,-0.109375 -0.19921,-0.126953 c 0,0 -4.4793,-2.940932 -12.32813,-2.976562 z M 457.43263,189.73217 254.37599,320.5935 c -7.40002,4.76868 -16.48296,7.11656 -24.80469,8.00586 -8.32173,0.8893 -15.44964,0.79428 -21.07813,-2.14844 L 55.165056,246.32397 c -0.548968,0.34681 -1.0966,0.69549 -1.646484,1.04101 -5.21742,3.36274 -6.692866,6.67937 -6.576172,9.22657 0.116682,2.54693 1.891443,5.72446 7.40039,8.60547 h 0.002 l 159.25781,83.2246 c 1.03131,0.5392 7.76673,1.70636 14.79687,0.95508 7.03015,-0.75127 14.78683,-2.94662 20.00391,-6.30859 L 458.48145,207.68139 c 5.21736,-3.36351 6.69254,-6.68206 6.57618,-9.22851 -0.11637,-2.54647 -1.88984,-5.72237 -7.39844,-8.60352 v 0.002 c -0.0777,-0.0406 -0.14933,-0.0788 -0.22656,-0.11914 z m 0.87109,31.17969 -203.92773,131.42383 c -7.40002,4.76868 -16.48296,7.11461 -24.80469,8.0039 -8.32064,0.88919 -15.44803,0.79511 -21.07617,-2.14648 L 54.2549,277.59155 c -0.249543,0.15729 -0.49825,0.31569 -0.748047,0.47265 -5.205631,3.35956 -6.681039,6.67393 -6.564453,9.21875 0.116675,2.54677 1.892261,5.72263 7.40039,8.60352 l 0.002,0.002 159.25781,83.22266 c 1.03131,0.53919 7.76673,1.7083 14.79687,0.95703 7.03015,-0.75127 14.78683,-2.94858 20.00391,-6.31055 L 458.48145,238.37084 c 5.21735,-3.36351 6.69254,-6.68204 6.57618,-9.22851 -0.11143,-2.43821 -1.78003,-5.44958 -6.75391,-8.23047 z m 0,30.68945 -203.92773,131.42383 c -7.40002,4.76868 -16.48296,7.11656 -24.80469,8.00586 -8.32173,0.8893 -15.44964,0.79429 -21.07813,-2.14844 L 54.2549,308.281 c -0.245577,0.15478 -0.490513,0.31038 -0.736328,0.46484 -5.217423,3.36273 -6.692866,6.67939 -6.576172,9.22657 0.116682,2.54691 1.891435,5.72443 7.40039,8.60547 h 0.002 l 159.25781,83.2246 c 1.03127,0.5392 7.76673,1.70637 14.79687,0.95508 7.03014,-0.75128 14.78682,-2.94858 20.00391,-6.31054 L 458.48145,269.0603 v 0.002 c 5.21736,-3.36352 6.69254,-6.68205 6.57618,-9.22852 -0.11143,-2.43819 -1.78002,-5.45137 -6.75391,-8.23242 z m 0,30.68946 -203.92773,131.42382 c -7.40001,4.76868 -16.48296,7.11655 -24.80469,8.00586 -8.32174,0.88932 -15.44959,0.7944 -21.07813,-2.14843 L 54.252947,338.97045 c -0.245113,0.15449 -0.489025,0.31068 -0.734375,0.46485 -5.217413,3.36271 -6.692866,6.68132 -6.576172,9.22851 0.116682,2.54694 1.891458,5.72254 7.40039,8.60352 h 0.002 l 159.25781,83.22461 c 1.03131,0.53919 7.76673,1.70635 14.79687,0.95508 7.03015,-0.75128 14.78683,-2.94664 20.00391,-6.3086 L 458.48145,299.7517 c 5.21734,-3.36347 6.69254,-6.68203 6.57618,-9.22851 -0.11143,-2.43822 -1.78004,-5.45139 -6.75391,-8.23242 z"/> </svg>