<svg xmlns="http://www.w3.org/2000/svg" viewBox="0 0 512 512"> <path d="M0 0h512v512H0z"/> <path fill="#fff" d="M 251.39648 106.9375 C 250.01238 106.89707 248.71461 106.96144 247.50391 107.09766 C 245.73558 107.29738 244.1741 107.64096 242.82812 108.04297 C 241.48215 108.44498 240.35188 108.90564 239.44141 109.3418 C 237.62047 110.2141 236.68359 110.98633 236.68359 110.98633 L 236.51758 111.11914 L 236.3418 111.24023 C 189.246 142.9597 146.00546 171.85702 99.035156 203.28906 L 99.035156 203.29102 C 97.865306 204.07464 96.907103 204.85228 96.130859 205.61328 C 95.354616 206.37428 94.760381 207.11891 94.316406 207.83789 C 93.872431 208.55687 93.579294 209.25063 93.40625 209.9082 C 93.233206 210.56577 93.180247 211.1869 93.216797 211.76367 C 93.253372 212.34055 93.383764 212.95266 93.638672 213.58398 C 93.89358 214.21531 94.273206 214.8669 94.804688 215.52539 C 95.336168 216.18388 96.020423 216.84749 96.886719 217.50586 C 97.753014 218.16423 98.801194 218.81631 100.06055 219.44727 L 302.83398 320.99805 C 304.09326 321.62865 305.48817 322.17914 306.97266 322.64844 C 308.45714 323.11773 310.03155 323.50639 311.64844 323.81641 C 314.88221 324.43643 318.28759 324.73937 321.49414 324.73438 C 323.09742 324.73205 324.67233 324.62409 326.14648 324.45312 C 327.62064 324.28217 328.99304 324.04804 330.19336 323.79688 C 332.594 323.29455 334.30323 322.72028 334.74023 322.42773 L 470.12891 231.82812 C 471.29966 231.04428 472.25839 230.26718 473.03516 229.50586 C 473.81192 228.74454 474.40734 227.99865 474.85156 227.2793 C 475.29579 226.55995 475.58858 225.86691 475.76172 225.20898 C 475.93486 224.55106 475.98767 223.92861 475.95117 223.35156 C 475.91467 222.77452 475.78419 222.16462 475.5293 221.5332 C 475.2744 220.90179 474.89479 220.24834 474.36328 219.58984 C 473.83177 218.93135 473.14758 218.26766 472.28125 217.60938 C 471.41492 216.95109 470.3668 216.29874 469.10742 215.66797 C 451.99317 207.34066 434.92771 198.93008 417.91406 190.42578 C 400.90041 181.92148 383.93797 173.32467 367.02734 164.62695 C 350.11671 155.92924 333.25831 147.1302 316.45312 138.22266 C 299.64794 129.31511 282.89654 120.29785 266.19922 111.16406 L 266.19922 111.16211 C 264.76982 110.40631 263.38986 109.77244 262.05859 109.24414 C 260.72733 108.71584 259.44423 108.29444 258.21094 107.96289 C 255.74435 107.2998 253.47409 106.99813 251.39844 106.9375 L 251.39648 106.9375 z M 83.921875 207.04102 C 69.987929 215.97772 56.028235 224.8771 42.003906 233.68945 C 42.003906 233.69245 41.994141 233.69427 41.994141 233.69727 C 40.813516 234.45911 39.844369 235.21828 39.056641 235.96484 C 38.268912 236.71141 37.662619 237.44557 37.207031 238.15625 C 36.751444 238.86693 36.445922 239.5548 36.261719 240.20898 C 36.077516 240.86317 36.014591 241.48346 36.041016 242.06055 C 36.067466 242.63802 36.187814 243.25107 36.431641 243.88672 C 36.675467 244.52237 37.042469 245.17999 37.5625 245.84766 C 38.082531 246.51532 38.754311 247.19366 39.609375 247.86719 C 40.464439 248.54071 41.503028 249.21006 42.751953 249.86328 L 42.751953 249.86523 L 187.19922 325.34766 C 187.66687 325.59216 189.42813 325.9784 191.86914 326.21875 C 193.08965 326.33893 194.47895 326.42262 195.96289 326.43359 C 197.44683 326.44456 199.02504 326.38324 200.61914 326.21289 C 203.80729 325.87219 207.16098 325.20455 210.30859 324.24023 C 211.8824 323.75808 213.40345 323.20237 214.82812 322.57617 C 216.25283 321.94998 217.58072 321.25256 218.76367 320.49023 L 245.32031 303.37695 L 95.585938 228.38867 C 93.800961 227.49437 92.162217 226.4647 90.703125 225.31836 C 89.244033 224.17201 87.9651 222.90975 86.894531 221.55078 C 85.823962 220.19181 84.963155 218.73529 84.34375 217.20312 C 83.724345 215.67096 83.345834 214.06241 83.240234 212.39648 C 83.134659 210.73056 83.307172 209.0881 83.728516 207.49023 C 83.769408 207.33516 83.876314 207.19521 83.921875 207.04102 z M 42.673828 261.10156 C 42.450278 261.24251 42.227699 261.38477 42.003906 261.52539 C 42.003906 261.52839 41.994141 261.5302 41.994141 261.5332 C 40.813516 262.29505 39.844369 263.05422 39.056641 263.80078 C 38.268912 264.54734 37.662619 265.28151 37.207031 265.99219 C 36.751444 266.70286 36.445922 267.39074 36.261719 268.04492 C 36.077516 268.69911 36.014591 269.3194 36.041016 269.89648 C 36.067466 270.47395 36.187814 271.08701 36.431641 271.72266 C 36.675467 272.35831 37.042469 273.01593 37.5625 273.68359 C 38.082531 274.35126 38.754311 275.02963 39.609375 275.70312 C 40.464439 276.37665 41.503028 277.04599 42.751953 277.69922 L 42.751953 277.70117 L 187.19922 353.18359 C 187.66687 353.42814 189.42813 353.81432 191.86914 354.05469 C 193.08965 354.17487 194.47895 354.25856 195.96289 354.26953 C 197.44683 354.2805 199.02504 354.21918 200.61914 354.04883 C 203.80729 353.70813 207.16098 353.04051 210.30859 352.07617 C 211.8824 351.594 213.40345 351.03831 214.82812 350.41211 C 216.25283 349.7859 217.58072 349.0885 218.76367 348.32617 L 269.625 315.54883 L 255.71094 308.58008 L 224.18555 328.89648 C 222.5076 329.97778 220.73257 330.92185 218.89844 331.74219 C 217.0643 332.56252 215.17103 333.25897 213.25 333.8457 C 211.32897 334.43244 209.38005 334.91051 207.44141 335.29102 C 205.50276 335.67152 203.57448 335.9546 201.6875 336.15625 C 199.80055 336.3579 197.97963 336.50459 196.23242 336.56836 C 194.48522 336.63213 192.81173 336.61333 191.21289 336.48633 C 189.61405 336.35932 188.09029 336.1246 186.64844 335.75391 C 185.20658 335.38322 183.84656 334.87626 182.57031 334.20898 L 42.673828 261.10156 z M 42.669922 288.9375 C 42.447874 289.07746 42.226178 289.21776 42.003906 289.35742 L 41.994141 289.36719 C 40.813516 290.12904 39.844369 290.8882 39.056641 291.63477 C 38.268912 292.38134 37.662619 293.11549 37.207031 293.82617 C 36.751444 294.53685 36.445922 295.22472 36.261719 295.87891 C 36.077516 296.53309 36.014591 297.15339 36.041016 297.73047 C 36.067466 298.30799 36.187884 298.92081 36.431641 299.55664 C 36.675397 300.19247 37.042525 300.85164 37.5625 301.51953 C 38.082475 302.18742 38.754269 302.86536 39.609375 303.53906 C 40.464481 304.21277 41.502803 304.88188 42.751953 305.53516 L 187.19922 381.01953 C 187.66687 381.26403 189.42813 381.65031 191.86914 381.89062 C 193.08965 382.01081 194.47895 382.0945 195.96289 382.10547 C 197.44683 382.11644 199.02504 382.05512 200.61914 381.88477 C 203.80729 381.54407 207.16099 380.87642 210.30859 379.91211 C 211.88239 379.42995 213.40342 378.87424 214.82812 378.24805 C 216.25283 377.62185 217.5807 376.92443 218.76367 376.16211 L 293.92969 327.7207 L 280.01562 320.75195 L 224.18555 356.73242 C 222.5076 357.81372 220.73257 358.75782 218.89844 359.57812 C 217.0643 360.39846 215.17103 361.09492 213.25 361.68164 C 211.32897 362.26837 209.38005 362.74645 207.44141 363.12695 C 205.50276 363.50745 203.57448 363.79054 201.6875 363.99219 C 199.80055 364.19384 197.97963 364.34052 196.23242 364.4043 C 194.48522 364.46807 192.81173 364.44927 191.21289 364.32227 C 189.61405 364.19527 188.09029 363.96052 186.64844 363.58984 C 185.20658 363.21917 183.84656 362.71217 182.57031 362.04492 L 42.669922 288.9375 z M 42.669922 316.77344 C 42.447874 316.9134 42.226178 317.05369 42.003906 317.19336 L 41.994141 317.20312 C 40.813516 317.96495 39.844369 318.72415 39.056641 319.4707 C 38.268912 320.21726 37.662619 320.95143 37.207031 321.66211 C 36.751444 322.37279 36.445922 323.06065 36.261719 323.71484 C 36.077516 324.36904 36.014591 324.98931 36.041016 325.56641 C 36.067466 326.14391 36.187877 326.75676 36.431641 327.39258 C 36.675405 328.0284 37.042519 328.68758 37.5625 329.35547 C 38.082481 330.02336 38.754273 330.7013 39.609375 331.375 C 40.464477 332.0487 41.502828 332.71784 42.751953 333.37109 L 187.19922 408.85547 C 187.66687 409.09997 189.42813 409.48767 191.86914 409.72852 C 193.08965 409.84894 194.47895 409.9322 195.96289 409.94336 C 197.44683 409.95452 199.02504 409.89301 200.61914 409.72266 C 203.80729 409.38196 207.16098 408.71286 210.30859 407.74805 C 211.8824 407.26564 213.40345 406.71037 214.82812 406.08398 C 216.25283 405.4576 217.58072 404.76037 218.76367 403.99805 L 326.49219 334.57227 C 324.89131 334.67411 323.2436 334.73187 321.51562 334.73438 C 319.61785 334.73717 317.66785 334.66375 315.69922 334.49414 C 313.73058 334.32453 311.74304 334.0582 309.76953 333.68164 C 308.16465 333.37542 306.58419 332.94034 305.01562 332.47656 L 224.18555 384.56836 C 222.5076 385.64966 220.73257 386.59355 218.89844 387.41406 C 217.0643 388.23458 215.17103 388.93256 213.25 389.51953 C 211.32897 390.10651 209.38005 390.5822 207.44141 390.96289 C 205.50276 391.34358 203.57448 391.62843 201.6875 391.83008 C 199.80055 392.03173 197.97962 392.17858 196.23242 392.24219 C 194.48523 392.30579 192.81172 392.28544 191.21289 392.1582 C 189.61406 392.03097 188.0903 391.79665 186.64844 391.42578 C 185.20658 391.05491 183.84659 390.54816 182.57031 389.88086 L 42.669922 316.77344 z "/> </svg>