<svg xmlns="http://www.w3.org/2000/svg" viewBox="0 0 512 512"> <path d="M0 0h512v512H0z"/> <path fill="#fff" d="m 409.56055,216.18164 -164.36914,105.92969 63.47851,31.78906 c 1.25927,0.63061 2.65401,1.17922 4.13867,1.64844 1.48467,0.46922 3.05866,0.85997 4.67579,1.16992 3.23425,0.6199 6.64111,0.92247 9.84765,0.91797 1.60327,-0.002 3.17813,-0.11028 4.65235,-0.28125 1.47415,-0.17098 2.84851,-0.40508 4.04882,-0.65625 2.40064,-0.50235 4.10792,-1.07658 4.54492,-1.36914 L 475.9668,264.73047 c 1.17074,-0.78385 2.12949,-1.56094 2.90625,-2.32227 0.77676,-0.76132 1.37218,-1.50721 1.8164,-2.22656 0.44422,-0.71935 0.73703,-1.41239 0.91016,-2.07031 0.17313,-0.65792 0.22596,-1.28038 0.18945,-1.85742 -0.0365,-0.57688 -0.16726,-1.18712 -0.42187,-1.81836 -0.25461,-0.63125 -0.63305,-1.28308 -1.16407,-1.94141 -0.53097,-0.65833 -1.21446,-1.3243 -2.08007,-1.98242 -0.86562,-0.65812 -1.91337,-1.30882 -3.17188,-1.93945 -17.12004,-8.3301 -34.18973,-16.74471 -51.20898,-25.25196 -4.73432,-2.36649 -9.45735,-4.75368 -14.18164,-7.13867 z M 49.371094,235.70312 c -0.222039,0.13998 -0.443746,0.28026 -0.666016,0.41993 l -0.002,0.002 c -1.18252,0.76236 -2.152395,1.52244 -2.941406,2.26953 -0.789011,0.74709 -1.397171,1.48217 -1.853516,2.19336 -0.456345,0.71119 -0.760789,1.39809 -0.945312,2.05273 -0.184523,0.65465 -0.249112,1.27605 -0.222657,1.85352 0.02646,0.57758 0.146783,1.19035 0.390625,1.82617 0.243842,0.63583 0.610726,1.29503 1.13086,1.96289 0.520134,0.66787 1.193491,1.34584 2.048828,2.01953 0.855336,0.6737 1.893129,1.34278 3.142578,1.9961 v -0.002 l 144.447265,75.48437 v 0.002 c 0.46767,0.24452 2.22841,0.63074 4.66992,0.8711 1.22076,0.12018 2.61159,0.20387 4.09571,0.21484 1.48412,0.011 3.06216,-0.0504 4.65625,-0.2207 3.18817,-0.34071 6.54184,-1.00833 9.68945,-1.97266 1.5738,-0.48216 3.09483,-1.03981 4.51953,-1.66601 1.4247,-0.62621 2.75258,-1.32166 3.93555,-2.08399 L 416.00586,200.13086 c 1.18303,-0.76268 2.15409,-1.52236 2.94336,-2.26953 0.78927,-0.74717 1.39707,-1.48224 1.85351,-2.19336 0.45645,-0.71112 0.76076,-1.3982 0.94532,-2.05274 0.18456,-0.65453 0.24904,-1.2761 0.22265,-1.85351 -0.0264,-0.57731 -0.14688,-1.19055 -0.39062,-1.82617 -0.24374,-0.63563 -0.61097,-1.29323 -1.13086,-1.96094 -0.51989,-0.66772 -1.19205,-1.34596 -2.04688,-2.01953 -0.70334,-0.55422 -1.61755,-1.10073 -2.58398,-1.64258 L 230.88281,303.49609 c -1.67795,1.08131 -3.45102,2.02537 -5.28515,2.84571 -1.83414,0.82033 -3.72937,1.51678 -5.65039,2.10351 -1.92103,0.58673 -3.86801,1.06286 -5.80665,1.44336 -1.93863,0.38051 -3.8689,0.66554 -5.75585,0.86719 -1.88696,0.20165 -3.70592,0.34833 -5.45313,0.41211 -1.74721,0.0638 -3.42264,0.045 -5.02148,-0.082 -1.59885,-0.12701 -3.12064,-0.36369 -4.5625,-0.73438 -1.44187,-0.37068 -2.80382,-0.87569 -4.08008,-1.54297 z M 257.19922,76.486328 c -1.21728,-0.0053 -2.51237,0.0686 -3.88281,0.257813 -1.37045,0.189215 -2.81605,0.49327 -4.33203,0.949218 -1.51599,0.455948 -3.10391,1.064513 -4.75782,1.859375 -1.6539,0.794863 -3.37399,1.776464 -5.1582,2.982422 -0.004,0.0027 -0.008,0.0033 -0.0117,0.0059 -15.60605,10.878676 -31.27981,21.647124 -47.01758,32.312504 -15.73776,10.66537 -31.53892,21.22717 -47.40429,31.69531 -15.86538,10.46814 -31.79434,20.84195 -47.783208,31.1289 -15.988866,10.28696 -32.038235,20.48756 -48.146484,30.60938 0,0 -0.002,0.002 -0.002,0.002 -1.18252,0.76236 -2.152395,1.52244 -2.941406,2.26953 -0.789011,0.74709 -1.397171,1.48218 -1.853516,2.19336 -0.456345,0.71119 -0.760789,1.39809 -0.945312,2.05274 -0.184523,0.65464 -0.249112,1.27605 -0.222657,1.85351 0.02646,0.57758 0.146784,1.19035 0.390625,1.82618 0.243842,0.63582 0.610726,1.29502 1.13086,1.96289 0.520134,0.66786 1.193491,1.34583 2.048828,2.01953 0.855336,0.67369 1.893129,1.34277 3.142578,1.99609 v -0.002 l 144.447265,75.48437 v 0.002 c 0.46767,0.24451 2.22841,0.63073 4.66992,0.87109 1.22076,0.12018 2.61159,0.20387 4.09571,0.21484 1.48411,0.011 3.06216,-0.0504 4.65625,-0.2207 3.18817,-0.34071 6.54184,-1.00833 9.68945,-1.97266 1.5738,-0.48216 3.09483,-1.03981 4.51953,-1.66601 1.4247,-0.6262 2.75258,-1.32166 3.93555,-2.08399 L 416.00586,172.29492 c 1.18303,-0.76267 2.15409,-1.52236 2.94336,-2.26953 0.78927,-0.74717 1.39707,-1.48224 1.85351,-2.19336 0.45645,-0.71112 0.76076,-1.3982 0.94532,-2.05273 0.18456,-0.65454 0.24904,-1.27611 0.22265,-1.85352 -0.0264,-0.5773 -0.14688,-1.19055 -0.39062,-1.82617 -0.24374,-0.63562 -0.61097,-1.29322 -1.13086,-1.96094 -0.51989,-0.66771 -1.19205,-1.34596 -2.04688,-2.01953 -0.85482,-0.67357 -1.89208,-1.34289 -3.14062,-1.99609 C 365.14824,129.9343 319.01954,105.86326 268.75,79.402344 l -0.1875,-0.09961 -0.17969,-0.115234 c 0,0 -1.01599,-0.666576 -2.92187,-1.337891 -0.95294,-0.335657 -2.12755,-0.673007 -3.50977,-0.927734 -1.38221,-0.254727 -2.97192,-0.427589 -4.75195,-0.435547 z M 49.371094,263.53906 c -0.222036,0.13997 -0.443754,0.28026 -0.666016,0.41992 l -0.002,0.002 c -1.18252,0.76235 -2.152395,1.52244 -2.941406,2.26953 -0.789011,0.74709 -1.397171,1.48022 -1.853516,2.19141 -0.456345,0.71118 -0.760789,1.40004 -0.945312,2.05468 -0.184523,0.65465 -0.249112,1.27605 -0.222657,1.85352 0.02646,0.57757 0.146784,1.19035 0.390625,1.82617 0.243842,0.63582 0.610726,1.29503 1.13086,1.96289 0.520134,0.66786 1.193491,1.34388 2.048828,2.01758 0.855336,0.67369 1.893128,1.34473 3.142578,1.99805 l 144.447265,75.48437 c 0.46767,0.24451 2.22841,0.63074 4.66992,0.87109 1.22076,0.12018 2.61159,0.20388 4.09571,0.21485 1.48412,0.011 3.06216,-0.0504 4.65625,-0.2207 3.18817,-0.34072 6.54184,-1.00834 9.68945,-1.97266 1.5738,-0.48216 3.09483,-1.03982 4.51953,-1.66602 1.4247,-0.6262 2.75258,-1.32166 3.93555,-2.08398 l 23.87695,-15.38867 -13.91602,-6.96875 -4.54492,2.92773 c -1.67795,1.08131 -3.45102,2.02537 -5.28515,2.8457 -1.83414,0.82034 -3.72937,1.51679 -5.65039,2.10352 -1.92103,0.58673 -3.868,1.06285 -5.80665,1.44336 -1.93863,0.3805 -3.8689,0.66554 -5.75585,0.86719 -1.88696,0.20165 -3.70592,0.34833 -5.45313,0.41211 -1.74721,0.0638 -3.42264,0.045 -5.02148,-0.082 -1.59885,-0.12701 -3.12064,-0.36369 -4.5625,-0.73438 -1.44187,-0.37069 -2.80382,-0.87569 -4.08008,-1.54297 z m 0,27.83594 c -0.222039,0.13997 -0.443746,0.28026 -0.666016,0.41992 l -0.002,0.002 c -1.182521,0.76235 -2.152395,1.52244 -2.941406,2.26953 -0.789011,0.74709 -1.397171,1.48022 -1.853516,2.1914 -0.456345,0.71119 -0.760789,1.40004 -0.945312,2.05469 -0.184523,0.65465 -0.249112,1.27605 -0.222657,1.85352 0.02646,0.57757 0.146784,1.19035 0.390625,1.82617 0.243842,0.63582 0.610726,1.29503 1.13086,1.96289 0.520134,0.66786 1.193491,1.34388 2.048828,2.01758 0.855336,0.67369 1.893129,1.34473 3.142578,1.99804 l 144.447265,75.48438 c 0.46767,0.24451 2.22841,0.63231 4.66992,0.87304 1.22076,0.12043 2.61159,0.20369 4.09571,0.21485 1.48412,0.0111 3.06216,-0.0504 4.65625,-0.2207 3.18817,-0.34071 6.54184,-1.0098 9.68945,-1.97461 1.5738,-0.48241 3.09483,-1.03768 4.51953,-1.66407 1.4247,-0.62638 2.75258,-1.32361 3.93555,-2.08593 l 48.18164,-31.05274 -13.91602,-6.96875 -28.84961,18.5918 c -1.67795,1.0813 -3.45102,2.02519 -5.28515,2.8457 -1.83414,0.82052 -3.72937,1.51849 -5.65039,2.10547 -1.92103,0.58698 -3.868,1.06267 -5.80665,1.44336 -1.93863,0.38069 -3.8689,0.66554 -5.75585,0.86719 -1.88696,0.20165 -3.70592,0.34656 -5.45313,0.41015 -1.74721,0.0636 -3.42264,0.0452 -5.02148,-0.082 -1.59885,-0.12724 -3.12064,-0.36155 -4.5625,-0.73242 -1.44187,-0.37087 -2.80382,-0.87765 -4.08008,-1.54492 z"/> </svg>