<svg xmlns="http://www.w3.org/2000/svg" viewBox="0 0 512 512"> <path d="M0 0h512v512H0z"/> <path fill="#fff" d="m 175.49751,69.697336 c -19.82643,0 -35.61668,15.790259 -35.61668,35.616684 v 9.58911 h 31.35296 c 15.07539,0 27.39745,12.32205 27.39745,27.39745 0,15.07539 -12.32205,27.39745 -27.39745,27.39745 h -31.35296 v 236.98795 c 0,19.82643 15.79025,35.61668 35.61668,35.61668 h 191.78214 c 19.82643,0 35.61669,-15.79025 35.61669,-35.61668 v -57.5368 c -0.0273,9e-5 -0.054,0.002 -0.0813,0.002 h -27.09351 c -15.08341,0 -27.39745,-12.31405 -27.39745,-27.39746 0,-8.94215 4.32818,-16.91128 10.99536,-21.91796 -6.66718,-5.00668 -10.99536,-12.97581 -10.99536,-21.91796 0,-8.94215 4.32818,-16.91128 10.99536,-21.91796 -6.66718,-5.00668 -10.99536,-12.97581 -10.99536,-21.91796 0,-8.94215 4.32818,-16.91128 10.99536,-21.91796 -6.66718,-5.00668 -10.99536,-12.97581 -10.99536,-21.91796 0,-15.08341 12.31404,-27.39745 27.39745,-27.39745 h 27.09351 c 0.0273,0 0.0541,0.002 0.0813,0.002 v -57.53678 c 0,-19.826427 -15.79026,-35.616685 -35.61669,-35.616685 z m -42.33975,57.089434 c -23.11472,4.31134 -40.411244,24.33618 -40.411244,48.78031 V 324.2967 c 0,22.90044 15.254304,41.77515 36.175334,47.63946 v -202.23813 -5.94396 -5.94182 h 42.31194 c 8.69662,-1e-5 15.51381,-6.81506 15.51381,-15.51167 0,-8.69663 -6.81719,-15.51381 -15.51381,-15.51381 z m 242.56375,47.02088 c -9.2017,0 -16.43847,7.23677 -16.43847,16.43847 0,9.20168 7.23677,16.43847 16.43847,16.43847 h 27.09351 c 9.20168,0 16.43847,-7.23679 16.43847,-16.43847 -10e-6,-9.2017 -7.23679,-16.43847 -16.43847,-16.43847 z m 0,43.83592 c -9.2017,0 -16.43847,7.23677 -16.43847,16.43847 0,9.20169 7.23677,16.43847 16.43847,16.43847 h 27.09351 c 9.20168,0 16.43847,-7.23678 16.43847,-16.43847 -10e-6,-9.2017 -7.23679,-16.43847 -16.43847,-16.43847 z m 0,43.83592 c -9.2017,0 -16.43847,7.23677 -16.43847,16.43847 0,9.20169 7.23677,16.43847 16.43847,16.43847 h 27.09351 c 9.20168,0 16.43847,-7.23678 16.43847,-16.43847 -10e-6,-9.2017 -7.23679,-16.43847 -16.43847,-16.43847 z m 0,43.83592 c -9.2017,0 -16.43847,7.23677 -16.43847,16.43847 0,9.20169 7.23677,16.43847 16.43847,16.43847 h 27.09351 c 9.20168,0 16.43847,-7.23678 16.43847,-16.43847 0,-9.2017 -7.23679,-16.43847 -16.43847,-16.43847 z"/> </svg>