<svg xmlns="http://www.w3.org/2000/svg" viewBox="0 0 512 512"><path d="M0 0h512v512H0z"/><path fill="#fff" d="m 113.9665,137.25 -93.779295,108.20898 0.0039,0.004 -8.191406,9.45117 8.189453,9.45117 -0.002,0.002 93.779298,108.20898 h 21.8125 l 93.7793,-108.20898 -0.002,-0.002 8.18945,-9.45117 -8.19141,-9.45117 0.004,-0.004 L 135.779,137.25 Z m 10.90625,31.49023 7.66797,8.84766 67.01367,77.32617 -68.71679,79.28906 -5.96485,6.88282 -5.96484,-6.88282 -68.716799,-79.28906 67.013669,-77.32617 z m 153.42364,-99.024968 -16.22346,20.42568 97.99297,77.819738 -97.99297,77.8198 v 20.4257 l 97.99297,77.81979 -97.99297,77.8198 16.22346,20.43897 102.73989,-81.59644 102.75349,81.59644 16.21053,-20.43897 -97.99296,-77.8198 97.99296,-77.81979 v -20.4257 L 402.00734,167.96068 500.0003,90.140942 483.78977,69.715262 381.03628,151.31163 Z m 102.73989,114.894548 89.89485,71.38352 -89.89485,71.38358 -89.88055,-71.38358 z"/></svg>
