<svg xmlns="http://www.w3.org/2000/svg" viewBox="0 0 512 512"><path d="M0 0h512v512H0z"/><path fill="#fff" d="M 327.26865,11.999999 H 277.7614 V 65.3155 c 15.233,0 40.25864,2.17614 41.34671,22.30546 l 5.44036,109.35117 c 1.6321,35.36232 18.49721,56.03568 54.94761,56.03568 v 4.89632 c -36.45039,0 -53.3155,20.67336 -54.94761,56.03568 l -5.44036,109.89521 c -1.08807,20.67334 -25.56968,22.84948 -41.34671,22.84948 V 500 h 49.50725 c 36.99442,0 76.70903,-19.04125 76.70903,-60.932 V 306.86734 c 0,-21.76142 22.8495,-29.92196 47.3311,-29.92196 v -42.97882 c -21.76142,0 -47.3311,-9.24861 -47.3311,-31.01003 V 72.932 c 0,-41.890752 -39.71461,-60.932001 -76.70903,-60.932001 z M 234.23859,65.3155 V 11.999999 h -49.50724 c -36.99443,0 -76.70904,19.041249 -76.70904,60.932001 v 130.02453 c 0,21.76142 -25.569665,31.01003 -47.331095,31.01003 v 42.97882 c 24.48161,0 47.331095,8.16054 47.331095,29.92196 V 439.068 c 0,41.89075 39.71461,60.932 76.70904,60.932 h 49.50725 v -53.3155 c -15.77704,0 -40.25864,-2.17614 -41.34671,-22.84948 l -5.44036,-109.89521 c -1.63211,-35.36232 -18.49722,-56.03568 -54.94761,-56.03568 v -4.89632 c 36.45039,0 53.3155,-20.67336 54.94761,-56.03568 L 192.89188,87.62096 C 193.97995,67.49164 219.00559,65.3155 234.23859,65.3155 Z"/></svg>