<svg xmlns="http://www.w3.org/2000/svg" viewBox="0 0 512 512"> <path d="M0 0h512v512H0z"/> <path fill="#fff" d="M 256.88672 69.082031 C 238.36233 69.082031 220.23019 77.084705 201.20117 84.386719 C 182.17208 91.688738 162.42028 98.527344 142.04688 98.527344 A 8.7739755 8.7739755 0 0 0 135.84375 113.50391 L 182.12305 159.7832 C 183.66679 158.5956 185.24069 157.44382 186.8418 156.33008 C 176.04372 145.53311 165.24397 134.73903 154.45117 123.93555 A 5.0005 5.0005 0 0 1 154.29102 123.76758 C 153.46698 122.86231 150.19012 120.91367 149.28711 116.28711 A 5.0005 5.0005 0 0 1 149.27344 116.20703 C 148.74386 113.23674 149.17738 109.87877 151.45508 107.06055 A 5.0005 5.0005 0 0 1 151.53906 106.95898 C 154.0554 104.00793 157.42576 103.02073 160.24414 102.70508 C 161.08579 102.55991 162.09704 102.37792 162.89453 102.23633 C 162.90363 102.23433 162.91288 102.23247 162.92188 102.23047 C 165.37726 101.75247 167.81723 101.2259 170.23828 100.64062 C 187.64765 96.434094 204.42996 89.056851 221.97656 82.691406 A 5.0005 5.0005 0 0 1 221.99219 82.685547 C 232.38339 78.952476 243.47013 75.310647 255.40039 74.878906 A 5.0005 5.0005 0 0 1 255.50586 74.875 C 255.51596 74.874846 255.52691 74.875151 255.53711 74.875 C 256.14087 74.8661 256.75943 74.862894 257.39258 74.871094 A 5.0005 5.0005 0 0 1 257.41211 74.871094 C 269.2985 75.07451 280.35855 78.635751 290.67969 82.273438 A 5.0005 5.0005 0 0 1 290.71484 82.285156 C 308.50152 88.702882 325.46871 96.295109 343.04688 100.68945 C 343.04987 100.69045 343.05169 100.69079 343.05469 100.69141 L 343.0625 100.69336 C 346.42348 101.52017 350.05458 102.28298 353.56445 102.90625 C 357.47339 103.38396 360.48429 105.95688 361.96094 109.29883 C 364.33977 113.84852 362.43644 118.34716 360.35938 121.07227 A 5.0005 5.0005 0 0 1 359.91797 121.57617 L 325.16016 156.33398 C 326.76018 157.44705 328.33422 158.59638 329.87695 159.7832 L 376.15625 113.50391 A 8.7739755 8.7739755 0 0 0 369.95312 98.527344 C 350.76272 98.527344 331.40265 91.706948 312.52148 84.396484 C 293.64031 77.086018 275.411 69.082031 256.88672 69.082031 z M 257.26367 84.871094 C 256.76503 84.864664 256.25109 84.8675 255.72461 84.875 C 245.64252 85.246795 235.54329 88.443967 225.37305 92.097656 C 208.25453 98.308534 191.14261 105.87608 172.58789 110.35938 C 170.00122 110.98465 167.40623 111.5467 164.80469 112.05273 A 5.0005 5.0005 0 0 1 164.72266 112.06836 C 163.94003 112.20705 162.83966 112.40666 161.88867 112.57031 A 5.0005 5.0005 0 0 1 161.51953 112.61914 C 160.23648 112.74255 159.46325 113.17329 159.22461 113.41992 C 159.20055 113.48645 159.06585 113.92087 159.12305 114.39453 C 159.08864 114.17812 159.71086 114.86623 161.59961 116.94141 C 172.89019 128.24312 184.1907 139.53772 195.48828 150.83398 C 213.30537 140.55084 233.97178 134.66407 256 134.66406 C 278.03013 134.66406 298.69748 140.55309 316.51562 150.83789 L 352.48047 114.87305 C 352.98229 114.1305 352.96069 113.60338 353.13867 113.92578 A 5.0005 5.0005 0 0 1 352.87305 113.36523 C 352.75723 113.07565 352.35818 112.82427 352.33008 112.82227 A 5.0005 5.0005 0 0 1 351.88477 112.76367 C 348.13663 112.09962 344.28069 111.29244 340.65625 110.40039 A 5.0005 5.0005 0 0 1 340.63867 110.39648 C 321.91689 105.71834 304.64393 97.944364 287.33203 91.697266 C 277.23745 88.140301 267.21346 85.045566 257.26367 84.871094 z M 404.78125 133.27344 A 8.7739755 8.7739755 0 0 0 404.53125 133.27539 A 8.7739755 8.7739755 0 0 0 398.49609 135.84375 L 352.2168 182.12305 C 353.4044 183.66679 354.55618 185.24069 355.66992 186.8418 C 366.46689 176.04372 377.26097 165.24397 388.06445 154.45117 A 5.0005 5.0005 0 0 1 388.23242 154.29102 C 389.13769 153.46698 391.08633 150.19012 395.71289 149.28711 A 5.0005 5.0005 0 0 1 395.79297 149.27344 C 396.53554 149.14104 397.3016 149.06855 398.07812 149.07031 C 400.40776 149.07559 402.82579 149.7468 404.93945 151.45508 A 5.0005 5.0005 0 0 1 405.04102 151.53906 C 407.99207 154.0554 408.97927 157.42576 409.29492 160.24414 C 409.44009 161.08579 409.62208 162.09704 409.76367 162.89453 C 409.76567 162.90363 409.76753 162.91288 409.76953 162.92188 C 410.24753 165.37726 410.77411 167.81723 411.35938 170.23828 C 415.56592 187.64765 422.94315 204.42996 429.30859 221.97656 A 5.0005 5.0005 0 0 1 429.31445 221.99219 C 433.04752 232.38339 436.68936 243.47012 437.12109 255.40039 A 5.0005 5.0005 0 0 1 437.12305 255.50391 A 5.0005 5.0005 0 0 1 437.12305 255.67578 A 5.0005 5.0005 0 0 1 437.12305 255.72656 C 437.13005 256.26944 437.13691 256.82236 437.12891 257.39648 A 5.0005 5.0005 0 0 1 437.12891 257.41211 C 436.92549 269.2985 433.36412 280.35836 429.72656 290.67969 A 5.0005 5.0005 0 0 1 429.71484 290.71484 C 423.29712 308.50152 415.7049 325.46871 411.31055 343.04688 C 411.30955 343.04987 411.30921 343.05169 411.30859 343.05469 L 411.30664 343.0625 C 410.47968 346.42408 409.71708 350.05596 409.09375 353.56641 C 408.61512 357.47394 406.04229 360.48465 402.70117 361.96094 C 398.15148 364.33977 393.65284 362.43644 390.92773 360.35938 A 5.0005 5.0005 0 0 1 390.42383 359.91797 L 355.66602 325.16016 C 354.55295 326.76018 353.40362 328.33422 352.2168 329.87695 L 398.49609 376.15625 A 8.7739755 8.7739755 0 0 0 413.47266 369.95312 C 413.47266 350.76272 420.29306 331.40265 427.60352 312.52148 C 434.91399 293.64031 442.91797 275.411 442.91797 256.88672 C 442.91797 238.36233 434.9153 220.23019 427.61328 201.20117 C 420.31126 182.17208 413.47266 162.42028 413.47266 142.04688 A 8.7739755 8.7739755 0 0 0 404.78125 133.27344 z M 107.2168 133.27539 A 8.7739755 8.7739755 0 0 0 98.527344 142.04688 C 98.527344 161.23728 91.706948 180.59735 84.396484 199.47852 C 77.086019 218.35969 69.082031 236.589 69.082031 255.11328 C 69.082031 273.63767 77.084705 291.76981 84.386719 310.79883 C 91.688738 329.82792 98.527344 349.57972 98.527344 369.95312 A 8.7739755 8.7739755 0 0 0 113.50391 376.15625 L 159.7832 329.87695 C 158.5956 328.33321 157.44382 326.75931 156.33008 325.1582 C 145.53311 335.95628 134.73903 346.75603 123.93555 357.54883 A 5.0005 5.0005 0 0 1 123.76758 357.70898 C 122.86231 358.53302 120.91367 361.80988 116.28711 362.71289 A 5.0005 5.0005 0 0 1 116.20703 362.72656 C 113.23674 363.25614 109.87877 362.82262 107.06055 360.54492 A 5.0005 5.0005 0 0 1 106.95898 360.46094 C 104.00793 357.9446 103.02073 354.57424 102.70508 351.75586 C 102.55991 350.91421 102.37792 349.90296 102.23633 349.10547 C 102.23433 349.09627 102.23247 349.08715 102.23047 349.07812 C 101.75247 346.62273 101.2259 344.18277 100.64062 341.76172 C 96.434092 324.35235 89.056851 307.57004 82.691406 290.02344 A 5.0005 5.0005 0 0 1 82.685547 290.00781 C 78.952476 279.61661 75.310647 268.52987 74.878906 256.59961 A 5.0005 5.0005 0 0 1 74.875 256.49414 A 5.0005 5.0005 0 0 1 74.875 256.46289 C 74.8661 255.85913 74.862894 255.24057 74.871094 254.60742 A 5.0005 5.0005 0 0 1 74.871094 254.58789 C 75.07451 242.7015 78.635878 231.64164 82.273438 221.32031 A 5.0005 5.0005 0 0 1 82.285156 221.28516 C 88.702882 203.49848 96.29511 186.53126 100.68945 168.95312 C 101.51785 165.58733 102.28198 161.94933 102.90625 158.43359 C 103.38488 154.52606 105.95771 151.51535 109.29883 150.03906 C 110.384 149.47168 111.46765 149.10667 112.52344 148.97461 C 112.94478 148.92191 113.36195 148.89842 113.77344 148.90234 C 116.65386 148.92978 119.25653 150.25668 121.07227 151.64062 A 5.0005 5.0005 0 0 1 121.57617 152.08203 L 156.33398 186.83984 C 157.44705 185.23982 158.59638 183.66578 159.7832 182.12305 L 113.50391 135.84375 A 8.7739755 8.7739755 0 0 0 107.2168 133.27539 z M 256 144.10742 C 194.14748 144.10744 144.10742 194.1475 144.10742 256 C 144.10742 317.85253 194.14748 367.89258 256 367.89258 C 317.85253 367.89258 367.89258 317.85253 367.89258 256 C 367.89258 194.14747 317.85253 144.1074 256 144.10742 z M 113.92578 158.86133 A 5.0005 5.0005 0 0 1 113.36523 159.12695 C 113.07565 159.24277 112.82427 159.64182 112.82227 159.66992 A 5.0005 5.0005 0 0 1 112.76367 160.11523 C 112.09962 163.86337 111.29244 167.71931 110.40039 171.34375 A 5.0005 5.0005 0 0 1 110.39648 171.36133 C 105.71834 190.08311 97.944364 207.35607 91.697266 224.66797 L 91.693359 224.67969 C 88.138146 234.77026 85.045498 244.79043 84.871094 254.73633 C 84.864664 255.23497 84.8675 255.74891 84.875 256.27539 C 85.246795 266.35748 88.443967 276.45671 92.097656 286.62695 C 98.308534 303.74547 105.87608 320.85739 110.35938 339.41211 C 110.98465 341.99878 111.5467 344.59377 112.05273 347.19531 A 5.0005 5.0005 0 0 1 112.06836 347.27734 C 112.20705 348.05997 112.40666 349.16034 112.57031 350.11133 A 5.0005 5.0005 0 0 1 112.61914 350.48047 C 112.74255 351.76352 113.17329 352.53675 113.41992 352.77539 C 113.48645 352.79945 113.92087 352.93415 114.39453 352.87695 C 114.17812 352.91136 114.86623 352.28914 116.94141 350.40039 C 128.24312 339.10981 139.53772 327.8093 150.83398 316.51172 C 140.55084 298.69462 134.66406 278.02822 134.66406 256 C 134.66406 233.96988 140.55309 213.30252 150.83789 195.48438 L 114.87305 159.51953 C 114.1305 159.01771 113.60338 159.03931 113.92578 158.86133 z M 397.94727 159.11133 C 397.83889 159.10637 397.72388 159.10875 397.60547 159.12305 C 397.82188 159.08864 397.13377 159.71086 395.05859 161.59961 C 383.75688 172.89019 372.46228 184.1907 361.16602 195.48828 C 371.44916 213.30538 377.33594 233.97178 377.33594 256 C 377.33594 278.03013 371.44691 298.69748 361.16211 316.51562 L 397.12695 352.48047 C 397.8695 352.98229 398.39662 352.96069 398.07422 353.13867 A 5.0005 5.0005 0 0 1 398.63477 352.87305 C 398.92435 352.75723 399.17573 352.35818 399.17773 352.33008 A 5.0005 5.0005 0 0 1 399.23633 351.88477 C 399.90038 348.13663 400.70756 344.28069 401.59961 340.65625 A 5.0005 5.0005 0 0 1 401.60352 340.63867 C 406.28166 321.91689 414.05564 304.64393 420.30273 287.33203 C 423.86225 277.2302 426.96047 267.19902 427.13086 257.24219 C 427.13726 256.75549 427.133 256.24921 427.125 255.72656 C 426.75354 245.64383 423.55627 235.54394 419.90234 225.37305 C 413.69147 208.25453 406.12392 191.14261 401.64062 172.58789 C 401.01534 170.00122 400.4533 167.40623 399.94727 164.80469 A 5.0005 5.0005 0 0 1 399.93164 164.72266 C 399.79295 163.94003 399.59334 162.83966 399.42969 161.88867 A 5.0005 5.0005 0 0 1 399.38086 161.51953 C 399.25745 160.23648 398.82671 159.46325 398.58008 159.22461 C 398.53018 159.20656 398.27239 159.12621 397.94727 159.11133 z M 182.12305 352.2168 L 135.84375 398.49609 A 8.7739755 8.7739755 0 0 0 142.04688 413.47266 C 161.23728 413.47266 180.59735 420.29306 199.47852 427.60352 C 218.35969 434.91399 236.589 442.91797 255.11328 442.91797 C 273.63767 442.91797 291.76981 434.9153 310.79883 427.61328 C 329.82792 420.31126 349.57972 413.47266 369.95312 413.47266 A 8.7739755 8.7739755 0 0 0 376.15625 398.49609 L 329.87695 352.2168 C 328.33321 353.4044 326.75931 354.55618 325.1582 355.66992 C 335.95627 366.46693 346.756 377.26115 357.54883 388.06445 A 5.0005 5.0005 0 0 1 357.70898 388.23242 C 358.53302 389.13769 361.80988 391.08633 362.71289 395.71289 A 5.0005 5.0005 0 0 1 362.72656 395.79297 C 363.25614 398.76326 362.82262 402.12123 360.54492 404.93945 A 5.0005 5.0005 0 0 1 360.46094 405.04102 C 357.9446 407.99207 354.57424 408.97927 351.75586 409.29492 C 350.91421 409.44009 349.90296 409.62208 349.10547 409.76367 C 349.09627 409.76567 349.08715 409.76753 349.07812 409.76953 C 346.62273 410.24753 344.18277 410.77411 341.76172 411.35938 C 324.35235 415.56592 307.57004 422.94315 290.02344 429.30859 A 5.0005 5.0005 0 0 1 290.00781 429.31445 C 279.61661 433.04752 268.52988 436.68936 256.59961 437.12109 A 5.0005 5.0005 0 0 1 256.49609 437.12305 A 5.0005 5.0005 0 0 1 256.32422 437.12305 A 5.0005 5.0005 0 0 1 256.27344 437.12305 C 255.72766 437.13005 255.17692 437.13591 254.61328 437.12891 A 5.0005 5.0005 0 0 1 254.58789 437.12891 C 242.7015 436.92549 231.64164 433.36412 221.32031 429.72656 A 5.0005 5.0005 0 0 1 221.28516 429.71484 C 203.49848 423.29712 186.53126 415.7049 168.95312 411.31055 C 165.58733 410.48215 161.94933 409.71802 158.43359 409.09375 C 154.52606 408.61512 151.51535 406.04229 150.03906 402.70117 C 147.66023 398.15148 149.56355 393.65284 151.64062 390.92773 A 5.0005 5.0005 0 0 1 152.08203 390.42383 L 186.83984 355.66602 C 185.23982 354.55295 183.66578 353.40362 182.12305 352.2168 z M 195.48438 361.16211 L 159.51953 397.12695 C 159.01771 397.8695 159.03931 398.39662 158.86133 398.07422 A 5.0005 5.0005 0 0 1 159.12695 398.63477 C 159.24277 398.92435 159.64182 399.17573 159.66992 399.17773 A 5.0005 5.0005 0 0 1 160.11523 399.23633 C 163.86337 399.90038 167.71931 400.70756 171.34375 401.59961 A 5.0005 5.0005 0 0 1 171.36133 401.60352 C 190.08311 406.28166 207.35607 414.05564 224.66797 420.30273 L 224.67969 420.30664 C 234.76961 423.86162 244.78911 426.95414 254.73438 427.12891 C 255.23684 427.13491 255.75196 427.133 256.27539 427.125 C 266.35748 426.75321 276.45671 423.55603 286.62695 419.90234 C 303.74547 413.69147 320.85739 406.12392 339.41211 401.64062 C 341.99878 401.01534 344.59377 400.4533 347.19531 399.94727 A 5.0005 5.0005 0 0 1 347.27734 399.93164 C 348.05997 399.79295 349.16034 399.59334 350.11133 399.42969 A 5.0005 5.0005 0 0 1 350.48047 399.38086 C 351.76352 399.25745 352.53675 398.82671 352.77539 398.58008 C 352.79945 398.51355 352.93415 398.07913 352.87695 397.60547 C 352.91136 397.82188 352.28914 397.13377 350.40039 395.05859 C 339.10981 383.75688 327.8093 372.46228 316.51172 361.16602 C 298.69462 371.44916 278.02822 377.33594 256 377.33594 C 233.96987 377.33594 213.30252 371.44691 195.48438 361.16211 z "/> </svg>