<svg xmlns="http://www.w3.org/2000/svg" viewBox="0 0 512 512"> <path d="M0 0h512v512H0z"/> <path fill="#fff" d="m 308.32713,96.831628 a 4.6461601,4.6461601 0 0 0 -0.8457,0.07813 c -2.76849,0.04699 -5.53923,0.252558 -8.27148,0.767578 a 4.6461601,4.6461601 0 0 0 -3.70508,5.427734 4.6461601,4.6461601 0 0 0 5.42578,3.70508 c 2.42916,-0.45789 4.91144,-0.68536 7.39648,-0.68555 h 0.002 9.29101 a 4.6461601,4.6461601 0 0 0 4.64649,-4.64648 4.6461601,4.6461601 0 0 0 -4.64649,-4.646487 H 308.376 a 4.6461601,4.6461601 0 0 0 -0.0488,0 z m 37.16993,0 a 4.6461601,4.6461601 0 0 0 -4.64649,4.646492 4.6461601,4.6461601 0 0 0 4.64649,4.64648 h 9.29296 a 4.6461601,4.6461601 0 0 0 4.64649,-4.64648 4.6461601,4.6461601 0 0 0 -4.64649,-4.646492 z m 37.16992,0 a 4.6461601,4.6461601 0 0 0 -4.64649,4.646492 4.6461601,4.6461601 0 0 0 4.64649,4.64648 h 9.29297 a 4.6461601,4.6461601 0 0 0 4.64453,-4.64648 4.6461601,4.6461601 0 0 0 -4.64453,-4.646492 z m 37.16992,0 a 4.6461601,4.6461601 0 0 0 -4.64648,4.646492 4.6461601,4.6461601 0 0 0 4.64648,4.64648 h 9.29102 a 4.6461601,4.6461601 0 0 0 4.64648,-4.64648 4.6461601,4.6461601 0 0 0 -4.64648,-4.646492 z M 71.151353,101.47812 c -24.440987,0 -44.117187,19.67619 -44.117187,44.11718 v 220.79688 c 0,24.44099 19.6762,44.11719 44.117187,44.11719 H 199.0244 c 24.44099,0 44.11719,-19.6762 44.11719,-44.11719 V 230.2203 c -2.34973,0.21145 -4.71306,0.52479 -7.10352,0.95118 -19.92207,3.55341 -42.18801,14.86295 -73.00195,33.11718 l -6.29492,-6.47851 c 15.62845,-24.74487 39.08428,-44.68174 66.95703,-54.14844 6.2613,-2.12638 12.76226,-3.68945 19.44336,-4.69141 v -53.375 c 0,-24.44099 -19.6762,-44.11718 -44.11719,-44.11718 z m 385.111327,0.13281 a 4.6461601,4.6461601 0 0 0 -4.15234,2.53906 4.6461601,4.6461601 0 0 0 2.03515,6.24805 c 2.46749,1.25434 4.80512,2.77242 6.95313,4.51758 a 4.6461601,4.6461601 0 0 0 6.53711,-0.67579 4.6461601,4.6461601 0 0 0 -0.67774,-6.53515 c -2.6599,-2.16105 -5.5469,-4.03701 -8.60156,-5.58985 a 4.6461601,4.6461601 0 0 0 -2.09375,-0.5039 z m -180.16211,9.20117 a 4.6461601,4.6461601 0 0 0 -3.4414,1.47461 c -2.33746,2.50229 -4.41194,5.25022 -6.17383,8.19141 a 4.6461601,4.6461601 0 0 0 1.59961,6.37304 4.6461601,4.6461601 0 0 0 6.37304,-1.59765 c 1.42155,-2.37304 3.0991,-4.59855 4.99024,-6.62305 a 4.6461601,4.6461601 0 0 0 -0.22266,-6.56641 4.6461601,4.6461601 0 0 0 -3.125,-1.25195 z m 202.73047,18.89062 a 4.6461601,4.6461601 0 0 0 -1.12305,0.15235 4.6461601,4.6461601 0 0 0 -3.31836,5.66992 c 0.70008,2.67589 1.11476,5.43418 1.24024,8.20508 a 4.6461601,4.6461601 0 0 0 4.85156,4.43164 4.6461601,4.6461601 0 0 0 4.43164,-4.85156 c -0.15474,-3.41719 -0.6673,-6.81952 -1.53515,-10.13672 a 4.6461601,4.6461601 0 0 0 -4.54688,-3.47071 z m -214.62109,15.25782 a 4.6461601,4.6461601 0 0 0 -4.64453,4.64453 v 9.29297 a 4.6461601,4.6461601 0 0 0 4.64453,4.64648 4.6461601,4.6461601 0 0 0 4.64648,-4.64648 v -9.29297 a 4.6461601,4.6461601 0 0 0 -4.64648,-4.64453 z m 216.10937,21.78906 a 4.6461601,4.6461601 0 0 0 -4.64648,4.64648 v 9.29297 a 4.6461601,4.6461601 0 0 0 4.64648,4.64649 4.6461601,4.6461601 0 0 0 4.64649,-4.64649 v -9.29297 a 4.6461601,4.6461601 0 0 0 -4.64649,-4.64648 z m -216.10937,15.37891 a 4.6461601,4.6461601 0 0 0 -4.64453,4.64648 v 9.29297 a 4.6461601,4.6461601 0 0 0 0.26562,1.54687 c 2.85305,-0.005 5.73288,0.10088 8.63477,0.31836 a 4.6461601,4.6461601 0 0 0 0.39062,-1.86523 v -9.29297 a 4.6461601,4.6461601 0 0 0 -4.64648,-4.64648 z m 216.10937,21.79101 a 4.6461601,4.6461601 0 0 0 -4.64648,4.64649 v 9.29101 a 4.6461601,4.6461601 0 0 0 4.64648,4.64649 4.6461601,4.6461601 0 0 0 4.64649,-4.64649 v -9.29101 a 4.6461601,4.6461601 0 0 0 -4.64649,-4.64649 z m -222.32422,3.00391 c -0.66223,0.0137 -1.33257,0.0334 -2.00976,0.0586 -0.0151,0.001 -0.0297,0.001 -0.0449,0.002 -10.18199,0.40876 -19.96351,2.32148 -29.25391,5.47656 -18.49311,6.281 -35.00013,17.73526 -48.26758,32.28711 21.35065,-11.81829 38.99856,-19.69422 55.98828,-22.72461 26.18384,-4.67035 50.01306,2.66798 80.81446,19.61133 h 0.002 l 17.68555,9.72851 -18.19336,8.7461 c -2.85213,1.37094 -5.78167,2.5252 -8.70899,3.69531 5.87028,1.17477 11.79595,2.23925 17.6582,3.12695 16.07019,2.43321 31.41142,3.46789 42.2129,2.93359 1.08157,-15.54526 -1.52693,-34.70904 -5.75586,-52.73046 -2.73237,5.89573 -6.19539,11.5322 -10.96875,16.33007 h 0.002 l -6.33203,6.36524 -7.21875,-5.33985 c -27.30652,-20.20091 -53.58134,-28.04878 -77.60938,-27.5664 z m 1.57032,23.57226 v 2.74024 a 4.6461601,4.6461601 0 0 0 4.64453,4.64648 4.6461601,4.6461601 0 0 0 4.64648,-4.64648 v -1.06445 c -3.13807,-0.74077 -6.22644,-1.29779 -9.29101,-1.67579 z m 220.7539,10.59375 a 4.6461601,4.6461601 0 0 0 -4.64648,4.64454 v 9.29296 a 4.6461601,4.6461601 0 0 0 4.64648,4.64649 4.6461601,4.6461601 0 0 0 4.64649,-4.64649 v -9.29296 a 4.6461601,4.6461601 0 0 0 -4.64649,-4.64454 z m -216.10937,15.37891 a 4.6461601,4.6461601 0 0 0 -4.64453,4.64648 v 9.29102 a 4.6461601,4.6461601 0 0 0 4.64453,4.64648 4.6461601,4.6461601 0 0 0 4.64648,-4.64648 v -9.29102 a 4.6461601,4.6461601 0 0 0 -4.64648,-4.64648 z m 216.10937,21.78906 a 4.6461601,4.6461601 0 0 0 -4.64648,4.64649 v 9.29297 a 4.6461601,4.6461601 0 0 0 4.64648,4.64648 4.6461601,4.6461601 0 0 0 4.64649,-4.64648 v -9.29297 a 4.6461601,4.6461601 0 0 0 -4.64649,-4.64649 z m -216.10937,15.37891 a 4.6461601,4.6461601 0 0 0 -4.64453,4.64648 v 9.29297 a 4.6461601,4.6461601 0 0 0 4.64453,4.64649 4.6461601,4.6461601 0 0 0 4.64648,-4.64649 v -9.29297 a 4.6461601,4.6461601 0 0 0 -4.64648,-4.64648 z m 216.10937,21.79101 a 4.6461601,4.6461601 0 0 0 -4.64648,4.64649 v 9.29101 a 4.6461601,4.6461601 0 0 0 4.64648,4.64649 4.6461601,4.6461601 0 0 0 4.64649,-4.64649 v -9.29101 a 4.6461601,4.6461601 0 0 0 -4.64649,-4.64649 z m -216.10937,15.37891 a 4.6461601,4.6461601 0 0 0 -4.64453,4.64648 v 9.29297 a 4.6461601,4.6461601 0 0 0 4.64453,4.64453 4.6461601,4.6461601 0 0 0 4.64648,-4.64453 v -9.29297 a 4.6461601,4.6461601 0 0 0 -4.64648,-4.64648 z m 216.10937,21.79102 a 4.6461601,4.6461601 0 0 0 -4.64648,4.64453 v 9.13672 0.12695 a 4.6461601,4.6461601 0 0 0 4.61718,4.67578 4.6461601,4.6461601 0 0 0 4.67383,-4.61719 l 0.002,-0.14257 a 4.6466247,4.6466247 0 0 0 0,-0.0293 v -9.15039 a 4.6461601,4.6461601 0 0 0 -4.64649,-4.64453 z m -215.73047,15.35937 a 4.6461601,4.6461601 0 0 0 -0.58984,0.043 4.6461601,4.6461601 0 0 0 -3.96094,5.24414 c 0.47303,3.39186 1.30443,6.73107 2.48047,9.95117 a 4.6461601,4.6461601 0 0 0 5.95898,2.77149 4.6461601,4.6461601 0 0 0 2.76954,-5.95899 c -0.94921,-2.59899 -1.62128,-5.30322 -2.00391,-8.04687 a 4.6461601,4.6461601 0 0 0 -4.6543,-4.00391 z m 207.21289,19.97461 a 4.6461601,4.6461601 0 0 0 -3.78711,1.89453 c -1.63863,2.22869 -3.5201,4.2854 -5.59375,6.125 a 4.6461601,4.6461601 0 0 0 -0.39257,6.56055 4.6461601,4.6461601 0 0 0 6.55859,0.39062 c 2.56031,-2.27134 4.88306,-4.80993 6.91406,-7.57226 a 4.6461601,4.6461601 0 0 0 -0.99218,-6.4961 4.6461601,4.6461601 0 0 0 -2.70704,-0.90234 z m -187.94336,10.5625 a 4.6461601,4.6461601 0 0 0 -3.8789,2.06836 4.6461601,4.6461601 0 0 0 1.28711,6.44336 c 2.85253,1.90221 5.90382,3.49676 9.09179,4.75391 a 4.6461601,4.6461601 0 0 0 6.02735,-2.61915 4.6461601,4.6461601 0 0 0 -2.61719,-6.02539 c -2.57484,-1.01536 -5.04432,-2.30711 -7.3457,-3.84179 a 4.6461601,4.6461601 0 0 0 -2.56446,-0.7793 z m 156.44336,7.17969 a 4.6461601,4.6461601 0 0 0 -0.41015,0.0215 c -2.63276,0.26026 -5.60475,0.1318 -8.88281,0.16992 a 4.6461601,4.6461601 0 0 0 -4.5918,4.69922 4.6461601,4.6461601 0 0 0 4.69922,4.5918 c 2.90602,-0.0338 6.15235,0.13677 9.68945,-0.21289 a 4.6461601,4.6461601 0 0 0 4.16602,-5.08203 4.6461601,4.6461601 0 0 0 -4.66993,-4.1875 z m -120.74804,0.18945 a 4.6461601,4.6461601 0 0 0 -4.64453,4.64649 4.6461601,4.6461601 0 0 0 4.64453,4.64648 h 9.29297 a 4.6461601,4.6461601 0 0 0 4.64648,-4.64648 4.6461601,4.6461601 0 0 0 -4.64648,-4.64649 z m 37.16992,0 a 4.6461601,4.6461601 0 0 0 -4.64649,4.64649 4.6461601,4.6461601 0 0 0 4.64649,4.64648 h 9.29297 a 4.6461601,4.6461601 0 0 0 4.64648,-4.64648 4.6461601,4.6461601 0 0 0 -4.64648,-4.64649 z m 37.16992,0 a 4.6461601,4.6461601 0 0 0 -4.64648,4.64649 4.6461601,4.6461601 0 0 0 4.64648,4.64648 h 9.29102 a 4.6461601,4.6461601 0 0 0 4.64648,-4.64648 4.6461601,4.6461601 0 0 0 -4.64648,-4.64649 z"/> </svg>