<svg xmlns="http://www.w3.org/2000/svg" viewBox="0 0 512 512"> <path d="M0 0h512v512H0z"/> <path fill="#fff" d="m 213.96954,61.145366 c -30.82172,0 -55.63647,24.812445 -55.63647,55.634164 v 45.47455 c -0.004,6.2e-4 -0.006,0.001 -0.009,0.002 v 12.29042 c 0.004,-8.3e-4 0.006,-0.001 0.009,-0.002 v 57.67343 36.12971 c 10.68218,5.71228 24.1621,10.63841 40.80786,14.039 -3.17993,-4.61536 -6.35397,-9.20537 -10.24202,-14.68213 a 11.533189,11.533189 0 0 1 15.30466,-16.58177 l 99.50891,59.27095 a 11.533189,11.533189 0 0 1 3.488,16.60007 l -69.31154,97.24308 a 11.533189,11.533189 0 0 1 -20.85939,-7.90066 c 3.02572,-28.75199 4.99562,-47.94551 5.67832,-62.15473 -24.45058,-3.26384 -45.88075,-8.88612 -64.3748,-16.25905 v 57.29806 c 0,30.82172 24.81475,55.63417 55.63647,55.63417 h 161.25623 c 30.82173,0 55.63418,-24.81245 55.63418,-55.63417 V 232.21792 116.77953 c 0,-30.821719 -24.81245,-55.634164 -55.63418,-55.634164 z M 148.26271,164.60688 c -33.91424,9.04248 -56.622655,27.22151 -64.226011,50.14354 -0.316123,0.95302 -0.597806,1.92078 -0.862849,2.89522 -0.06972,0.25633 -0.137525,0.51355 -0.203698,0.7713 -0.250923,0.97737 -0.484677,1.96256 -0.68432,2.95931 -0.002,0.0105 -0.0049,0.0198 -0.0069,0.0298 -0.198812,0.99527 -0.363043,2.00117 -0.510388,3.01424 -0.03622,0.24899 -0.06989,0.4984 -0.102992,0.74841 -0.133799,1.01088 -0.251614,2.02884 -0.334157,3.05545 -6.09e-4,0.007 -0.0016,0.0152 -0.0022,0.0229 -0.0067,0.0827 -0.0074,0.16663 -0.01373,0.24947 -0.07531,0.99234 -0.121577,1.99268 -0.148763,2.99821 -0.006,0.22027 -0.01237,0.44059 -0.01602,0.66144 -0.01781,1.08218 -0.01521,2.16828 0.02289,3.26372 0.0015,0.0425 0.0053,0.0855 0.0069,0.12817 0.03834,1.04353 0.10741,2.09522 0.196832,3.14928 0.02147,0.2537 0.04419,0.50787 0.06866,0.76214 0.104831,1.08845 0.229607,2.17973 0.38908,3.27744 0.0098,0.0676 0.02201,0.13601 0.03204,0.2037 0.157857,1.0644 0.346626,2.13264 0.556159,3.2042 0.04158,0.21274 0.08227,0.42556 0.12589,0.63856 0.235406,1.14876 0.494438,2.30098 0.789597,3.45596 5.97e-4,0.002 0.0012,0.005 0.0023,0.007 0.288714,1.12931 0.612735,2.26286 0.958974,3.39646 0.06586,0.21586 0.131116,0.43172 0.199117,0.64771 0.364097,1.15603 0.752064,2.31352 1.176394,3.47199 0.0082,0.0239 0.02098,0.047 0.02976,0.0709 0.420872,1.14567 0.87704,2.29134 1.357218,3.43766 0.06867,0.16393 0.136119,0.32815 0.205983,0.49208 0.507869,1.19125 1.041119,2.3828 1.613543,3.57269 v 0.002 c 0.557074,1.15789 1.152864,2.31486 1.77147,3.4697 0.09363,0.17482 0.186484,0.34939 0.281507,0.52411 0.64182,1.17968 1.309783,2.3571 2.016369,3.53149 0.721914,1.19988 1.482697,2.3963 2.272694,3.58871 0.05508,0.0832 0.109331,0.16633 0.164794,0.24949 0.804422,1.20631 1.640612,2.4082 2.515296,3.60472 0.854166,1.16845 1.747014,2.33081 2.668641,3.48801 0.0796,0.1 0.15793,0.19995 0.23803,0.29982 1.88485,2.34954 3.91011,4.67175 6.07655,6.96229 0.0705,0.0746 0.13967,0.14971 0.21056,0.22428 1.10031,1.15731 2.2348,2.30779 3.4079,3.44682 1.19328,1.15861 2.42488,2.30697 3.69399,3.44452 0.0153,0.0137 0.0305,0.0274 0.0458,0.0412 2.52554,2.26157 5.2027,4.47874 8.03112,6.64414 0.0482,0.0368 0.096,0.073 0.14419,0.1098 1.41784,1.0826 2.87241,2.15353 4.36687,3.20879 1.48333,1.04739 3.00669,2.08056 4.56599,3.09892 0.0491,0.032 0.0974,0.0641 0.14648,0.0961 1.57228,1.02431 3.18168,2.03528 4.83149,3.02798 0.009,0.006 0.0202,0.0105 0.0298,0.0161 1.62424,0.97687 3.28728,1.93732 4.98712,2.88149 0.0653,0.0363 0.1291,0.0736 0.19454,0.1098 1.73037,0.95818 3.49859,1.89748 5.30754,2.81971 1.79578,0.91552 3.63293,1.81352 5.50666,2.69154 0.0568,0.0266 0.11249,0.0535 0.16936,0.0801 1.8853,0.88114 3.80993,1.74286 5.77444,2.58396 0.0105,0.005 0.0212,0.009 0.032,0.0137 20.83944,8.91794 46.13998,15.5274 76.2212,18.55923 0.0246,15.9493 -2.27419,37.42733 -6.05824,73.38548 l 69.31156,-97.2408 -99.50891,-59.27093 c 10.41959,14.6772 18.47115,26.13524 24.28331,36.50963 -26.63821,-2.50416 -47.82887,-8.37172 -64.24892,-16.19268 -0.008,-0.004 -0.0169,-0.007 -0.0252,-0.0117 -2.27507,-1.08422 -4.45708,-2.20651 -6.55032,-3.36213 -0.066,-0.0364 -0.13107,-0.0734 -0.19683,-0.1098 -3.14679,-1.74517 -6.09052,-3.56615 -8.83445,-5.45172 -0.004,-0.002 -0.007,-0.006 -0.0117,-0.009 -1.83195,-1.25928 -3.57521,-2.54642 -5.23201,-3.85878 -0.0428,-0.0339 -0.0855,-0.0668 -0.12816,-0.10066 -0.58481,-0.46493 -1.1465,-0.93667 -1.70968,-1.40756 -0.67872,-0.56742 -1.33902,-1.13871 -1.9866,-1.71427 -0.32616,-0.28992 -0.66356,-0.57782 -0.98186,-0.8697 -0.0294,-0.0269 -0.0553,-0.0554 -0.0847,-0.0824 -0.84381,-0.77584 -1.65543,-1.55733 -2.44434,-2.34593 -0.33595,-0.33588 -0.66037,-0.6736 -0.98644,-1.01161 -0.54756,-0.56747 -1.07991,-1.13891 -1.59982,-1.71197 -0.31101,-0.34291 -0.63031,-0.68287 -0.93151,-1.02763 -0.72124,-0.82531 -1.41043,-1.65527 -2.07586,-2.49012 -0.25338,-0.31799 -0.4939,-0.63747 -0.73926,-0.95669 -0.48512,-0.63095 -0.95585,-1.26435 -1.40985,-1.89964 -0.23246,-0.32539 -0.46683,-0.65087 -0.69119,-0.97727 -0.59081,-0.85922 -1.15849,-1.72118 -1.69365,-2.58627 -0.18423,-0.29792 -0.35329,-0.59638 -0.53099,-0.89488 -0.39249,-0.65905 -0.77207,-1.31842 -1.13291,-1.97974 -0.17931,-0.32876 -0.35714,-0.65726 -0.5287,-0.98644 -0.40884,-0.78417 -0.79747,-1.5693 -1.16266,-2.35509 -0.13645,-0.29374 -0.26784,-0.5873 -0.39824,-0.88116 -0.34618,-0.7797 -0.67101,-1.55935 -0.975,-2.33907 -0.11624,-0.29827 -0.22633,-0.59671 -0.33644,-0.89488 -0.27292,-0.73869 -0.52876,-1.47588 -0.76443,-2.21319 -0.0721,-0.22579 -0.15335,-0.45187 -0.222,-0.67747 -0.27498,-0.90294 -0.51471,-1.80414 -0.73469,-2.70297 -0.0701,-0.28659 -0.13228,-0.57223 -0.19683,-0.85827 -0.16627,-0.73619 -0.31408,-1.4698 -0.444,-2.20175 -0.0397,-0.22427 -0.085,-0.44907 -0.12131,-0.67289 -0.14815,-0.91033 -0.26887,-1.81512 -0.36161,-2.71671 -0.0252,-0.24504 -0.0407,-0.48807 -0.0618,-0.73239 -0.0614,-0.70903 -0.10745,-1.41485 -0.13503,-2.11706 -0.0105,-0.25655 -0.0219,-0.51345 -0.0274,-0.76901 -0.0197,-0.89864 -0.0168,-1.79274 0.0183,-2.67779 0.006,-0.14352 0.0181,-0.28488 0.0252,-0.428 0.038,-0.76357 0.0981,-1.52091 0.17623,-2.2727 0.0259,-0.24942 0.0544,-0.49809 0.0847,-0.74612 0.10664,-0.87248 0.22882,-1.73916 0.38908,-2.59312 2.87129,-15.29858 14.26787,-28.65852 35.68341,-36.84608 z"/> </svg>