<svg xmlns="http://www.w3.org/2000/svg" viewBox="0 0 512 512"> <path d="M0 0h512v512H0z"/> <path fill="#fff" d="m 221.20996,44.841129 -39.01753,67.577681 39.01753,67.57769 h 78.03099 l 28.0915,-48.65374 10.92604,-18.92598 L 299.243,44.841129 Z m -46.31243,71.789571 -78.033033,0.002 -39.017536,67.57767 39.015492,67.57566 78.033037,0.002 39.01753,-67.57972 z m 170.65993,0 -38.7995,67.20072 -0.21802,0.37697 19.50877,33.78884 19.50672,33.78885 h 78.03303 l 39.01346,-67.57769 -39.0155,-67.57769 z m -296.784297,67.57361 -0.002,0.004 0.002,0.004 a 4.213187,4.213187 0 0 1 0,-0.008 z m 172.436797,4.218 -38.05778,65.91698 -0.95771,1.66071 19.50673,33.78884 19.50876,33.78885 78.03099,-0.002 30.20253,-52.31136 8.81298,-15.26631 -39.01551,-67.57566 z m -46.31243,71.78958 -78.035077,0.002 -39.013454,67.57566 39.015498,67.57767 78.028953,0.002 39.01957,-67.57972 -19.50672,-33.78885 z m 170.65586,0 -39.0155,67.57769 v 0.002 l 37.2957,64.60063 1.7198,2.97706 h 78.03303 l 39.0155,-67.58177 -39.0155,-67.57564 z m -296.780227,67.57564 -0.002,0.004 0.002,0.004 a 4.213187,4.213187 0 0 1 0,-0.008 z m 212.051377,4.21394 -39.61662,0.002 -39.01549,67.57769 39.01549,67.57768 h 78.03303 L 338.25849,399.57914 299.243,332.0035 Z"/> </svg>