<svg xmlns="http://www.w3.org/2000/svg" viewBox="0 0 512 512"> <path d="M0 0h512v512H0z"/> <path fill="#fff" d="m 204.92678,84.092773 c -24.79288,0 -35.40524,9.304271 -38.98243,18.804687 -3.57718,9.50042 0.18786,20.22085 7.42383,24.71289 5.08243,3.15514 10.78678,9.15147 15.18945,17.01172 4.40268,7.86025 7.33279,18.19826 2.42188,27.71289 -4.91091,9.51463 -16.50018,15.98543 -36.35156,18.62891 -18.67678,2.48706 -45.79831,1.58686 -84.091805,-4.02148 l -0.06641,240.96484 c 32.763685,-0.44028 56.437425,-2.78228 72.416025,-6.23438 16.99968,-3.67269 25.43938,-8.72973 28.39258,-12.34375 2.95319,-3.61402 2.44322,-5.7417 0.14453,-9.5625 -2.29869,-3.82079 -7.16323,-7.99527 -11.55274,-10.50585 -16.69241,-9.54729 -22.81702,-29.3825 -17.42578,-46.53711 5.38866,-17.14639 22.71662,-31.51649 49.69532,-31.36329 26.97879,-0.15323 44.30858,14.21689 49.69726,31.36329 5.39127,17.15462 -0.73336,36.98982 -17.42578,46.53711 -4.3895,2.51058 -9.25124,6.68928 -11.51563,10.48046 -1.13218,1.8956 -1.61832,3.57714 -1.60742,4.9668 0.0109,1.38967 0.35707,2.66895 1.87891,4.47266 3.04368,3.6074 11.68188,8.63133 28.94531,12.22461 16.27236,3.38699 40.34434,5.62544 73.67188,5.91601 0.52281,-33.49863 3.47311,-57.54794 8.17382,-74.42383 4.99651,-17.93771 11.9747,-28.50869 20.45704,-34 16.96467,-10.9826 36.57511,1.542 39.55078,2.47071 14.14552,4.41484 29.05066,5.75708 39.38281,1.02148 10.33215,-4.7356 17.95673,-15.07576 18.17773,-39.49414 0.21894,-24.18938 -8.84561,-36.74071 -19.35742,-41.70312 -10.51181,-4.96242 -23.47669,-2.56238 -32.89062,6.85156 -3.14304,3.14303 -9.11368,10.38524 -16.03711,16.88086 -6.92343,6.49562 -14.87442,12.94351 -24.67188,13.32226 -4.89873,0.18938 -10.12738,-1.67015 -14.20312,-5.54297 -4.07575,-3.87281 -7.19691,-9.44262 -9.74219,-17.02343 -4.72473,-14.07208 -7.42929,-35.91891 -7.75781,-68.44922 -28.21538,5.83498 -48.88049,7.0286 -63.67578,4.64844 -16.08494,-2.58764 -26.13568,-9.682 -30.44141,-18.89649 -4.30573,-9.21449 -2.80364,-19.21362 0.40039,-27.31055 3.20403,-8.09692 7.66895,-14.54566 13.33399,-18.0625 7.23597,-4.49205 11.00101,-15.21247 7.42382,-24.71289 -3.57718,-9.500416 -14.18761,-18.804687 -38.98046,-18.804687 z"/> </svg>