<svg xmlns="http://www.w3.org/2000/svg" viewBox="0 0 512 512"> <path d="M0 0h512v512H0z"/> <path fill="#fff" d="M 256.00781,71.725585 33.79883,293.92676 H 67.218752 L 256.00977,105.14355 444.78516,293.92676 h 33.41601 z m 0.002,69.906255 -157.128909,157.12108 v 141.52149 h 74.203129 v -92.31445 a 82.915906,82.915906 0 0 1 0,-0.77539 82.915906,82.915906 0 0 1 82.18164,-82.91602 82.915906,82.915906 0 0 1 0.73437,0 82.915906,82.915906 0 0 1 82.92188,82.91602 82.915906,82.915906 0 0 1 -0.01,0.77539 h 0.01 v 0.12305 c -0.004,-0.041 -0.006,-0.0821 -0.01,-0.12305 l -20.16211,-20.1582 -0.15234,0.0195 c 10.00556,22.75525 8.2766,44.47492 2.93554,63.70509 l 17.38868,-18.32813 v 67.07618 H 413.117 V 298.74903 Z m 6.86718,150.33983 c 4.17237,12.69509 3.41532,24.78907 1.74024,36.26563 0.51859,-0.17928 1.03077,-0.36063 1.5332,-0.55077 4.6329,-7.06226 6.44798,-16.09367 7.79492,-26.01367 -0.79245,-0.94142 -1.63268,-1.84123 -2.5039,-2.70899 -2.35486,-2.34473 -5.18115,-4.68309 -8.56446,-6.9922 z m 16.63086,5.81446 c -1.45287,12.07252 -3.03758,23.90407 -9.60937,33.40821 l -0.42578,0.625 -0.70899,0.27929 c -7.47494,2.96294 -14.61821,4.05944 -19.36133,9.80665 -2.24786,2.80633 -3.26254,7.4458 -4.62695,12.09764 -0.68401,2.3291 -1.47993,4.66483 -2.81055,6.76369 -1.29489,2.04226 -3.19288,3.8464 -5.75781,4.83593 l -15.93359,8.73828 0.0391,0.0391 c 1.24655,1.27047 2.16845,2.80101 2.76563,4.38475 1.36687,3.62021 1.48792,7.60472 1.23828,10.83399 -0.26182,3.41101 -2.69348,5.95383 -5.45899,6.91601 -0.45545,0.15506 -0.92306,0.28344 -1.39648,0.36915 4.73045,4.51042 10.18923,8.64815 14.7539,10.64844 19.17751,-5.11399 33.42526,-7.6321 45.38868,-6.20509 2.47995,0.29629 4.85045,0.77346 7.13671,1.43361 0.58005,-0.0445 1.15941,-0.0914 1.73829,-0.15236 4.24724,-0.41698 9.29591,-1.35408 11.66992,-2.59375 1.28539,-0.67056 3.65237,-2.95308 5.41211,-5.01562 1.75927,-2.06284 3.04687,-3.87304 3.04687,-3.87304 l 4.09571,2.89649 c 0,0 -1.40086,1.97942 -3.32032,4.23046 -1.91973,2.25109 -4.2239,4.80552 -6.91211,6.20899 -1.92181,1.00315 -4.21869,1.684 -6.60351,2.16797 2.53676,1.44906 4.97936,3.18179 7.35547,5.20312 l 12.77929,-12.77734 c 6.77278,-19.7111 10.66918,-41.97791 1.55664,-65.60547 -2.43757,0.631 -4.96422,1.44583 -7.58593,2.45703 l -2.06446,0.80077 -1.05273,-1.95117 c -6.46324,-12.04081 -14.60492,-28.18166 -25.34766,-36.9707 z m 36.05078,35.66406 c 0,0 0.002,0 0.002,0 l -0.006,-0.01 c 0.001,0.003 0.003,0.006 0.004,0.01 z m -48.8164,14.1504 c -0.0725,4.15055 -1.96887,8.03251 -5.48242,10.65429 -3.05996,0.55602 -5.52793,0.37333 -8.00782,-2.67187 3.12747,-2.77705 6.26029,-5.48323 10.0918,-7.00782 1.07239,-0.4266 2.20146,-0.75511 3.39844,-0.9746 z m -30.4082,17.91016 -0.35352,0.16211 c 0.0812,-0.0183 0.145,-0.0604 0.2207,-0.0801 z m -19.85547,11.49414 c -2.7973,0.33492 -8.48232,1.23973 -9.29883,4.59961 -1.01382,4.17099 5.40041,9.09247 7.63867,10.37304 -3.40978,-4.70581 -6.81102,-8.94653 1.66016,-14.97265 z"/> </svg>