<svg xmlns="http://www.w3.org/2000/svg" viewBox="0 0 512 512"> <path d="M0 0h512v512H0z"/> <path fill="#fff" d="m 365.33188,211.57718 q 6.44484,0 12.42924,2.53213 5.98451,2.53114 10.35782,6.90437 4.60339,4.14324 7.13534,9.89757 2.76204,5.52434 2.76204,11.73873 v 173.31997 q 0,6.67538 -2.53187,12.42971 -2.30178,5.75433 -6.67501,10.12755 -4.3733,4.6033 -10.12763,7.13544 -5.75426,2.53114 -12.19909,2.53114 H 146.20777 q -6.67501,0 -12.65941,-2.53114 -5.75433,-2.53214 -10.12764,-7.13544 -4.37321,-4.37322 -6.90508,-10.12755 -2.53196,-5.75433 -2.53196,-12.42971 V 242.64998 q 0,-6.21439 2.53196,-11.73873 2.76203,-5.75433 7.13525,-9.89757 4.60348,-4.37323 10.35781,-6.90437 5.75424,-2.53213 12.19907,-2.53213 v -37.28821 q 0,-23.4773 3.91299,-43.7325 3.91287,-20.25519 15.65172,-34.986038 11.96889,-14.961844 33.37494,-23.247774 21.63621,-8.51645 56.85262,-8.51645 35.44648,0 56.85254,8.51645 21.6362,8.28593 33.14478,23.247774 11.73882,14.730848 15.42153,34.986038 3.91299,20.2552 3.91299,43.7325 z M 193.16293,174.28897 v 36.13709 h 125.67415 v -36.13709 q 0,-17.49298 -1.38102,-29.4617 -1.3811,-12.19963 -7.59568,-19.56505 -5.98451,-7.36543 -18.64401,-10.58762 -12.65952,-3.2222 -35.21632,-3.2222 -22.32673,0 -34.98624,3.2222 -12.42933,3.22219 -18.64392,10.58762 -6.21467,7.36542 -7.82586,19.56505 -1.3811,11.96872 -1.3811,29.4617 z"/> </svg>