<svg xmlns="http://www.w3.org/2000/svg" viewBox="0 0 512 512"><path d="M0 0h512v512H0z"/><path fill="#fff" d="M 256 12 C 121.64171 11.999997 11.999997 121.64171 12 256 C 12 312.1606 31.164991 363.9947 63.275391 405.31641 L 20.990234 447.60156 A 30.6947 30.6947 0 0 0 20.990234 491.00977 A 30.6947 30.6947 0 0 0 64.400391 491.00977 L 106.68555 448.72461 C 148.00706 480.83444 199.83995 500 256 500 C 390.35828 500 500 390.35828 500 256 C 500 199.83995 480.83444 148.00706 448.72461 106.68555 L 491.00977 64.400391 A 30.6947 30.6947 0 0 0 491.00977 20.990234 A 30.6947 30.6947 0 0 0 469.1875 12 A 30.6947 30.6947 0 0 0 447.60156 20.990234 L 405.31641 63.275391 C 363.9947 31.164991 312.1606 12 256 12 z M 256 79.404297 C 293.81758 79.404297 328.75518 91.144121 357.40625 111.18555 L 111.18555 357.40625 C 91.144121 328.75518 79.404297 293.81758 79.404297 256 C 79.404295 158.06981 158.06981 79.404295 256 79.404297 z M 400.81641 154.59375 C 420.85744 183.24465 432.59571 218.18282 432.5957 256 C 432.5957 353.93019 353.93019 432.5957 256 432.5957 C 218.18282 432.59571 183.24465 420.85744 154.59375 400.81641 L 400.81641 154.59375 z "/></svg>