<svg xmlns="http://www.w3.org/2000/svg" viewBox="0 0 512 512"> <path d="M0 0h512v512H0z"/> <path fill="#fff" d="m 389.1809,98.558906 a 15,15 0 0 0 -10.66211,4.392574 15,15 0 0 0 0,21.21289 l 15.59961,15.59961 h -70.16796 -7.15625 c -25.1473,0 -40.86304,16.24215 -54.58204,32.4082 -6.02132,7.09535 -11.7761,14.84663 -17.38086,22.88282 -7.16512,10.27347 -14.07868,21.02432 -20.92187,31.59179 -2.97709,4.59733 -5.94014,9.14923 -8.875,13.58985 -9.08825,13.75107 -17.88343,26.37704 -25.80273,35.50781 -10.47669,12.07936 -18.56708,14.96484 -17.82618,14.96484 h -4.73046 -91.734381 c -13.807119,0 -25,11.19288 -25,25 0,13.80712 11.192881,25 25,25 h 91.734381 4.73046 c 25.08961,0 41.52719,-15.98217 55.59766,-32.20507 6.20595,-7.15531 12.10684,-14.97629 17.82812,-23.08594 4.80696,-6.81364 9.47353,-13.82375 14.07032,-20.86719 2.34028,-3.58044 4.66895,-7.16308 6.97656,-10.72656 2.97679,-4.59686 5.93169,-9.14785 8.85156,-13.58985 9.08695,-13.82393 17.81091,-26.5241 25.60547,-35.70898 10.29916,-12.13622 18.31558,-14.76172 16.45899,-14.76172 h 7.15625 70.16601 l -15.59766,15.59766 a 15,15 0 0 0 0,21.21484 15,15 0 0 0 21.2129,0 l 47.25781,-47.25976 c 7.87916,-7.87913 7.87912,-21.2283 0,-29.10743 L 399.73169,102.95148 A 15,15 0 0 0 389.1809,98.558906 Z M 74.940669,139.76398 a 25,25 0 0 0 -25,25 25,25 0 0 0 25,25 h 91.734381 4.73046 c -0.7409,0 7.34949,2.88548 17.82618,14.96484 5.24115,6.04293 10.86442,13.61408 16.70312,22.0293 1.78668,-2.72687 3.58161,-5.47919 5.38477,-8.26367 7.71401,-11.91222 15.62183,-24.30615 24.12304,-36.19727 -2.75792,-3.55692 -5.56592,-7.01501 -8.43945,-10.32812 -14.07047,-16.22291 -30.50805,-32.20508 -55.59766,-32.20508 h -4.73046 z M 389.1809,249.50422 a 15,15 0 0 0 -10.66211,4.39257 15,15 0 0 0 0,21.21289 l 15.59961,15.59961 h -70.16796 -7.15625 c 1.85659,0 -6.15983,-2.6255 -16.45899,-14.76171 -5.15742,-6.07735 -10.72102,-13.69158 -16.52734,-22.15235 -1.77688,2.72149 -3.5391,5.40584 -5.33789,8.18359 -7.72636,11.93128 -15.69715,24.34821 -24.32618,36.26368 2.64322,3.46173 5.328,6.82747 8.06836,10.05664 13.719,16.16605 29.43474,32.41015 54.58204,32.41015 h 7.15625 70.16796 l -15.59961,15.59961 a 15,15 0 0 0 0,21.21289 15,15 0 0 0 21.2129,0 l 47.25781,-47.25976 c 7.87912,-7.87912 7.87916,-21.22635 0,-29.10547 l -47.25781,-47.25977 a 15,15 0 0 0 -10.55079,-4.39257 z"/> </svg>