<svg xmlns="http://www.w3.org/2000/svg" viewBox="0 0 512 512"> <path d="M0 0h512v512H0z"/> <path fill="#fff" d="m 440.90905,144.93977 c -3.12194,-0.0117 -6.12041,1.22228 -8.32813,3.42969 -4.57483,4.57497 -4.57483,11.99339 0,16.56836 l 12.1836,12.18359 h -54.80078 -5.58985 c -19.64006,0 -31.91241,12.68487 -42.62695,25.31055 -4.70265,5.54147 -9.19886,11.59483 -13.57617,17.87109 -5.59595,8.02358 -10.99531,16.42063 -16.33985,24.67383 -2.3251,3.59052 -4.63755,7.14516 -6.92968,10.61328 -7.09793,10.73959 -13.96738,20.59935 -20.15235,27.73047 -8.18229,9.43399 -14.50051,11.6875 -13.92187,11.6875 h -3.69531 -16.16016 l -59.82227,38.55274 c 1.39441,0.32171 2.845,0.49804 4.3379,0.49804 h 71.64453 3.69531 c 19.59498,0 32.43282,-12.48223 43.42187,-25.15234 4.84685,-5.58829 9.45356,-11.69566 13.92188,-18.0293 3.75424,-5.32146 7.40014,-10.79594 10.99023,-16.29687 1.82777,-2.79631 3.64698,-5.59583 5.44922,-8.37891 2.32488,-3.59014 4.63169,-7.14409 6.91211,-10.61328 7.09691,-10.79651 13.9105,-20.71527 19.99805,-27.88867 8.04364,-9.47838 14.3035,-11.5293 12.85351,-11.5293 h 5.58985 54.79883 l -12.18165,12.18164 c -4.57585,4.57514 -4.57585,11.99518 0,16.57031 4.57498,4.57485 11.99339,4.57485 16.56836,0 l 36.90821,-36.91015 c 6.15362,-6.15361 6.15359,-16.58077 0,-22.73438 l -36.90821,-36.9082 c -2.18641,-2.18611 -5.14842,-3.41833 -8.24023,-3.42969 z m -287.92773,15.33985 c -2.98981,-0.0131 -6.75031,0.74981 -11.13282,3.71289 l -0.004,0.002 c -38.32053,26.71252 -77.297909,52.33929 -116.851569,77.19336 -2.904979,1.87232 -3.727079,3.72043 -3.662109,5.13867 0.06497,1.41824 1.053071,3.18679 4.121094,4.79102 l 88.671874,46.33789 c 0.57422,0.30021 4.32596,0.94954 8.24024,0.53125 3.91427,-0.4183 8.23192,-1.64178 11.13672,-3.51367 L 250.4695,219.09217 c 2.90494,-1.87276 3.72495,-3.71889 3.66015,-5.13672 -0.0648,-1.41783 -1.05204,-3.18684 -4.11914,-4.79102 -30.7628,-16.07628 -59.07884,-30.8523 -89.9375,-47.0957 l -0.11719,-0.0625 -0.10937,-0.0703 c 0,0 -2.49437,-1.63675 -6.86523,-1.65625 z m 48.99804,16.84179 c 16.74716,8.76774 33.45964,17.50245 50.875,26.60352 h 0.002 c 4.3462,2.27318 7.21913,5.85461 7.40625,9.94922 0.0387,0.84628 -0.0447,1.68059 -0.22852,2.49609 h 7.09766 3.69531 c -0.57864,0 5.73958,2.25351 13.92187,11.6875 4.09334,4.71953 8.48491,10.63278 13.04493,17.20508 1.3954,-2.1297 2.79679,-4.27845 4.20507,-6.45313 6.02464,-9.30344 12.20041,-18.98452 18.83985,-28.27148 -2.15393,-2.77797 -4.34563,-5.47691 -6.58985,-8.06445 -10.98905,-12.67009 -23.82689,-25.15235 -43.42187,-25.15235 h -3.69531 z m 47.9043,49.65039 -113.05664,72.86133 c -4.12022,2.65513 -9.17909,3.96189 -13.8125,4.45703 -4.63341,0.49515 -8.60052,0.44316 -11.73438,-1.19531 L 25.907094,258.28157 c -0.315149,0.19915 -0.629584,0.39927 -0.945313,0.59765 l 0.03125,-0.0176 c -2.904978,1.87231 -3.727079,3.71848 -3.662109,5.13672 0.06497,1.41823 1.05307,3.18678 4.121094,4.79101 l 88.671874,46.33789 c 0.57422,0.30022 4.32596,0.95148 8.24024,0.53321 3.91427,-0.41831 8.23192,-1.64179 11.13672,-3.51368 L 250.4696,236.76591 c 2.90494,-1.87275 3.72495,-3.72084 3.66015,-5.13867 -0.0648,-1.41783 -1.05204,-3.18488 -4.11914,-4.78906 -0.0435,-0.0227 -0.0837,-0.0438 -0.12695,-0.0664 z m 0.48633,17.36133 -113.54297,73.17383 c -4.12022,2.65513 -9.17909,3.96188 -13.8125,4.45703 -4.63341,0.49515 -8.60052,0.44315 -11.73438,-1.19531 L 25.401235,275.68977 c -0.146543,0.0924 -0.292753,0.18517 -0.439454,0.27735 l 0.03125,-0.0176 c -2.904985,1.87233 -3.727079,3.71848 -3.662109,5.13672 0.06497,1.41823 1.053063,3.18677 4.121094,4.79101 l 88.671874,46.33789 c 0.57422,0.30022 4.32596,0.9515 8.24024,0.53321 3.91427,-0.4183 8.23193,-1.64179 11.13672,-3.51368 L 250.4696,253.85381 c 2.90494,-1.87275 3.72495,-3.72084 3.66015,-5.13867 -0.062,-1.35743 -0.99093,-3.03379 -3.75976,-4.58203 z m 0,17.08789 -113.54297,73.17383 c -4.12022,2.65513 -9.17909,3.96189 -13.8125,4.45703 -4.63341,0.49515 -8.60052,0.44314 -11.73438,-1.19531 L 25.401235,292.77766 c -0.146543,0.0924 -0.292753,0.18517 -0.439454,0.27735 l 0.03125,-0.0176 c -2.904978,1.87231 -3.727079,3.71849 -3.662109,5.13672 0.06497,1.41822 1.053065,3.18677 4.121094,4.79101 l 88.671874,46.33789 c 0.57419,0.30021 4.32597,0.95151 8.24024,0.53321 3.91427,-0.41831 8.23192,-1.64178 11.13672,-3.51368 L 250.4696,270.9417 c 2.90494,-1.87274 3.72495,-3.72083 3.66015,-5.13867 -0.062,-1.35743 -0.99093,-3.03379 -3.75976,-4.58203 z m 190.53906,1.60742 c -3.12193,-0.0117 -6.12041,1.22228 -8.32813,3.42969 -4.57483,4.57497 -4.57483,11.99339 0,16.56836 l 12.1836,12.18164 h -54.80078 -5.58985 c 1.44999,0 -4.80987,-2.04895 -12.85351,-11.52734 -4.02795,-4.74641 -8.37348,-10.69292 -12.9082,-17.30078 -1.38775,2.12548 -2.76311,4.22119 -4.16797,6.39062 -6.03429,9.31833 -12.26073,19.01628 -19,28.32227 2.06435,2.70361 4.16252,5.33154 6.30273,7.85351 10.71454,12.62565 22.98689,25.3125 42.62695,25.3125 h 5.58985 54.80078 l -12.1836,12.1836 c -4.57479,4.57496 -4.57479,11.99145 0,16.5664 4.57498,4.57485 11.99339,4.57485 16.56836,0 l 36.90821,-36.91015 c 6.15359,-6.15357 6.15362,-16.57688 0,-22.73047 l -36.90821,-36.91016 c -2.18641,-2.1861 -5.14842,-3.41834 -8.24023,-3.42969 z m -190.53906,15.48047 -113.54297,73.17383 c -4.12021,2.65513 -9.17714,3.96188 -13.81055,4.45703 -4.63341,0.49516 -8.60245,0.44126 -11.73633,-1.19726 v 0.002 L 25.401235,309.86555 c -0.136154,0.0858 -0.27191,0.17217 -0.408204,0.25782 -2.904974,1.87231 -3.727079,3.72043 -3.662109,5.13867 0.06497,1.41824 1.053078,3.18681 4.121094,4.79101 l 88.671874,46.33789 c 0.57421,0.30022 4.32596,0.95151 8.24024,0.53321 3.91427,-0.4183 8.23192,-1.64181 11.13672,-3.51367 L 250.4696,288.02962 c 2.90493,-1.87274 3.72495,-3.72084 3.66015,-5.13868 -0.062,-1.35744 -0.99094,-3.03379 -3.75976,-4.58203 z"/> </svg>