<svg xmlns="http://www.w3.org/2000/svg" viewBox="0 0 512 512"> <path d="M0 0h512v512H0z"/> <path fill="#fff" d="m 54.419374,82.205193 4.871437,26.174577 -23.267088,12.82661 26.383858,3.4692 5.080718,26.12314 L 78.883258,126.79006 105.29638,130.083 85.96465,111.78283 97.227476,87.708096 73.861218,100.37324 Z m 121.390586,2.419237 -13.97205,16.49401 -20.0439,-8.068983 11.36185,18.377253 -13.84715,16.58948 20.97998,-5.14678 11.47204,18.31481 1.61159,-21.54169 20.94702,-5.26059 -19.95951,-8.21582 z m 137.59083,17.80823 c -0.3694,-0.0284 -0.70754,0.007 -1.02054,0.0952 l -0.0142,0.004 c -11.81835,2.16023 -22.54966,3.35063 -34.43806,3.39936 -0.25432,-0.25716 -0.5264,0.37722 -0.87009,2.15128 -4.47795,23.12018 -12.87371,44.23464 -25.9763,63.18972 l -1.37298,2.00075 -2.26139,0.90305 c -23.95638,9.49864 -46.85413,13.00662 -62.05537,31.43154 -7.20457,8.99682 -10.45802,23.86396 -14.83105,38.77727 -2.19198,7.46678 -4.74072,14.95686 -9.00506,21.68491 -4.14982,6.54661 -10.23716,12.33317 -18.45802,15.50656 l -51.053258,28.01371 0.125029,0.12503 c 3.993961,4.07331 6.958495,8.99064 8.872859,14.06752 4.37807,11.6063 4.74996,24.37146 3.95375,34.72442 -0.83997,10.93625 -8.61129,19.08778 -17.474201,22.17315 -1.45822,0.49941 -2.96972,0.912 -4.485979,1.1931 15.160956,14.45959 32.6505,27.714 47.27938,34.12606 61.46191,-16.39533 107.12386,-24.47376 145.46531,-19.89713 3.974,0.47454 7.85778,1.10778 11.66654,1.87593 3.80855,0.76502 7.54748,1.66537 11.21139,2.72392 1.85789,-0.15629 3.71428,-0.30902 5.56904,-0.48093 13.61188,-1.33646 29.79509,-4.33694 37.4043,-8.3113 4.11921,-2.14822 11.70554,-9.47434 17.3457,-16.08652 5.63766,-6.6131 9.76127,-12.41181 9.76127,-12.41181 l 13.13506,9.2804 c 0,0 -4.49749,6.35182 -10.64976,13.56819 -6.15284,7.21701 -13.53949,15.39759 -22.15476,19.89714 -6.15852,3.21615 -13.51235,5.40103 -21.15623,6.95295 8.13064,4.64532 15.9453,10.20413 23.56077,16.68489 l 40.9689,-40.9689 c 21.70664,-63.19463 34.19588,-134.57736 4.98531,-210.32908 h -0.0142 c -7.80905,2.02341 -15.90282,4.63083 -24.30234,7.87071 l -6.61523,2.56977 -3.37372,-6.26281 c -12.86497,-23.97648 -20.42176,-60.32407 -45.53501,-78.34023 -1.70487,-1.22252 -3.07955,-1.82436 -4.18868,-1.90165 z m -1.88679,5.79175 c -3.00759,10.99742 1.81917,28.5801 -13.27096,42.28398 -14.99196,-9.1963 -15.99155,-28.48875 -17.60193,-39.55196 11.04239,1.13471 20.91952,-0.49869 30.87289,-2.73202 z m 96.13731,52.18882 -0.49941,0.0639 c 32.06642,72.95079 26.54071,142.56685 9.42355,204.21673 l 59.10391,-59.10753 c 1.05223,-27.17914 -0.83449,-53.84943 -3.42145,-80.56483 z m -295.44964,19.60339 -6.02049,25.93226 -26.479339,2.41923 22.786229,13.76277 -5.811289,25.96167 20.058609,-17.42653 22.89633,13.60491 -10.37434,-24.51155 19.95944,-17.54027 -26.47927,2.24299 z m 122.89199,50.2493 c 1.69237,8.12908 4.03076,15.78113 6.87219,23.09091 7.6264,-3.06633 13.50425,-7.56751 16.02415,-12.07047 l 14.01971,7.85608 c -4.89793,8.74982 -13.3425,14.9695 -23.31483,18.96098 3.18185,6.32397 6.57759,12.50153 10.29364,18.44339 l -20.12105,7.9551 c -5.16241,-6.76143 -9.53288,-13.87657 -13.16433,-21.33241 -12.92713,0.79621 -26.53822,-1.61877 -38.42122,-8.63068 l 8.16446,-13.84723 c 7.06334,4.17014 15.48837,6.22409 23.89848,6.50512 -0.96173,-3.05383 -1.81391,-6.15504 -2.54768,-9.31344 -0.73383,-3.15812 -1.35613,-6.38173 -1.82457,-9.66224 z m -91.58896,51.03493 -1.11602,0.50296 c 0.25006,-0.0639 0.44399,-0.18754 0.69405,-0.24935 z m -63.622917,36.83897 c -8.964994,1.07411 -27.188589,3.97954 -29.805243,14.75028 -3.248975,13.37176 17.303353,29.15396 24.478517,33.25604 -1.364519,-1.88602 -2.72435,-3.74483 -4.016125,-5.59838 C 61.5024,347.57474 56.125805,335.04379 79.881783,318.13982 Z M 256.7233,110.82465 c 2.41419,1.65528 4.74399,3.36996 6.93988,5.16583 -3.73218,18.92297 -8.76331,36.14918 -21.60072,49.62089 -1.39123,0.36301 -2.81336,0.70968 -4.25027,1.05181 4.05498,-19.1265 6.17145,-39.15044 -1.06807,-60.0537 14.95387,-3.10775 11.98245,-1.22436 19.97925,4.21517 z"/> </svg>