<svg xmlns="http://www.w3.org/2000/svg" viewBox="0 0 512 512"> <path d="M0 0h512v512H0z"/> <path fill="#fff" d="m 269.70347,146.48083 c -0.72847,-0.13431 -1.46721,-0.26375 -2.21466,-0.38876 -0.0165,-0.002 -0.0326,-0.006 -0.05,-0.007 -11.24535,-1.84713 -22.39101,-1.95655 -33.27869,-0.59442 -21.67279,2.71205 -42.33597,11.53848 -60.14875,24.4881 26.05092,-8.13348 47.15732,-12.78312 66.45065,-12.27335 29.73407,0.7856 54.18237,14.19465 84.10308,39.69635 h 0.003 l 17.17987,14.64255 -21.90002,5.47987 c -3.43318,0.85887 -6.9023,1.46296 -10.37259,2.08493 6.16548,2.60988 12.41645,5.11145 18.63781,7.4051 17.05468,6.28727 33.62608,10.87833 45.5783,12.72754 4.68841,-16.78431 6.1503,-38.36399 5.57973,-59.05755 -4.32179,5.84227 -9.38551,11.23587 -15.69557,15.41554 h 0.003 l -8.37066,5.54528 -6.70379,-7.4762 c -25.35827,-28.2823 -52.37059,-42.80069 -78.79931,-47.68786 z M 72.552734,128.04688 c -20.216547,-10e-6 -36.492187,16.27368 -36.492187,36.49023 v 164.21484 c 0,20.21654 16.27564,36.49219 36.492187,36.49219 h 94.263676 c 20.21654,0 36.49218,-16.27565 36.49218,-36.49219 V 171.28516 c -2.78323,0.64331 -5.43226,1.15876 -8.36132,1.93164 -5.77889,1.52484 -11.85339,3.29757 -18.26954,5.30078 a 8.9475948,8.9475948 0 0 1 -0.0215,0.008 8.9475948,8.9475948 0 0 1 -0.24219,0.0703 8.9475948,8.9475948 0 0 1 -0.24218,0.0645 8.9475948,8.9475948 0 0 1 -0.2461,0.0566 8.9475948,8.9475948 0 0 1 -0.24609,0.0508 8.9475948,8.9475948 0 0 1 -0.24805,0.043 8.9475948,8.9475948 0 0 1 -0.24805,0.0351 8.9475948,8.9475948 0 0 1 -0.25,0.0293 8.9475948,8.9475948 0 0 1 -0.25,0.0234 8.9475948,8.9475948 0 0 1 -0.25195,0.0137 8.9475948,8.9475948 0 0 1 -0.25195,0.01 8.9475948,8.9475948 0 0 1 -0.25,0 8.9475948,8.9475948 0 0 1 -0.25196,-0.006 8.9475948,8.9475948 0 0 1 -0.25195,-0.0137 8.9475948,8.9475948 0 0 1 -0.25,-0.0195 8.9475948,8.9475948 0 0 1 -0.25,-0.0273 8.9475948,8.9475948 0 0 1 -0.25,-0.0352 8.9475948,8.9475948 0 0 1 -0.24805,-0.041 8.9475948,8.9475948 0 0 1 -0.24609,-0.0469 8.9475948,8.9475948 0 0 1 -0.24609,-0.0566 8.9475948,8.9475948 0 0 1 -0.24414,-0.0606 8.9475948,8.9475948 0 0 1 -0.24024,-0.0703 8.9475948,8.9475948 0 0 1 -0.24023,-0.0742 8.9475948,8.9475948 0 0 1 -0.23828,-0.082 8.9475948,8.9475948 0 0 1 -0.23438,-0.0898 8.9475948,8.9475948 0 0 1 -0.23437,-0.0957 8.9475948,8.9475948 0 0 1 -0.22852,-0.10156 8.9475948,8.9475948 0 0 1 -0.22656,-0.10937 8.9475948,8.9475948 0 0 1 -0.22461,-0.11328 8.9475948,8.9475948 0 0 1 -0.2207,-0.1211 8.9475948,8.9475948 0 0 1 -0.2168,-0.12695 8.9475948,8.9475948 0 0 1 -0.21289,-0.13477 8.9475948,8.9475948 0 0 1 -0.20899,-0.13867 8.9475948,8.9475948 0 0 1 -0.20703,-0.14453 8.9475948,8.9475948 0 0 1 -0.20117,-0.15039 8.9475948,8.9475948 0 0 1 -0.19726,-0.15625 8.9475948,8.9475948 0 0 1 -0.19141,-0.16211 8.9475948,8.9475948 0 0 1 -0.18945,-0.16797 8.9475948,8.9475948 0 0 1 -0.18164,-0.17187 8.9475948,8.9475948 0 0 1 -0.17969,-0.17774 8.9475948,8.9475948 0 0 1 -0.17188,-0.18164 8.9475948,8.9475948 0 0 1 -0.16797,-0.1875 8.9475948,8.9475948 0 0 1 -0.16406,-0.1914 8.9475948,8.9475948 0 0 1 -0.15625,-0.19727 8.9475948,8.9475948 0 0 1 -0.15234,-0.20117 8.9475948,8.9475948 0 0 1 -0.14453,-0.20508 8.9475948,8.9475948 0 0 1 -0.14063,-0.20703 8.9475948,8.9475948 0 0 1 -0.13476,-0.21289 8.9475948,8.9475948 0 0 1 -0.12696,-0.2168 8.9475948,8.9475948 0 0 1 -0.12304,-0.2207 8.9475948,8.9475948 0 0 1 -0.11524,-0.22266 8.9475948,8.9475948 0 0 1 -0.10937,-0.22656 8.9475948,8.9475948 0 0 1 -0.10352,-0.23047 8.9475948,8.9475948 0 0 1 -0.0977,-0.23047 8.9475948,8.9475948 0 0 1 -0.0898,-0.23633 8.9475948,8.9475948 0 0 1 -0.082,-0.23632 8.9475948,8.9475948 0 0 1 -0.0781,-0.24024 8.9475948,8.9475948 0 0 1 -0.0684,-0.24219 8.9475948,8.9475948 0 0 1 -0.0645,-0.24218 8.9475948,8.9475948 0 0 1 -0.0547,-0.2461 8.9475948,8.9475948 0 0 1 -0.0508,-0.24609 8.9475948,8.9475948 0 0 1 -0.041,-0.24805 8.9475948,8.9475948 0 0 1 -0.0352,-0.24804 8.9475948,8.9475948 0 0 1 -0.0293,-0.25 8.9475948,8.9475948 0 0 1 -0.0215,-0.25196 8.9475948,8.9475948 0 0 1 -0.0137,-0.25 8.9475948,8.9475948 0 0 1 -0.008,-0.25195 8.9475948,8.9475948 0 0 1 0,-0.25195 8.9475948,8.9475948 0 0 1 0.008,-0.25196 8.9475948,8.9475948 0 0 1 0.0137,-0.25 8.9475948,8.9475948 0 0 1 0.0215,-0.25 8.9475948,8.9475948 0 0 1 0.0274,-0.25 8.9475948,8.9475948 0 0 1 0.0351,-0.25 8.9475948,8.9475948 0 0 1 0.041,-0.24804 8.9475948,8.9475948 0 0 1 0.0508,-0.2461 8.9475948,8.9475948 0 0 1 0.0547,-0.24609 8.9475948,8.9475948 0 0 1 0.0625,-0.24219 8.9475948,8.9475948 0 0 1 0.0703,-0.24219 8.9475948,8.9475948 0 0 1 0.0762,-0.24023 8.9475948,8.9475948 0 0 1 0.084,-0.23633 8.9475948,8.9475948 0 0 1 0.0898,-0.23633 8.9475948,8.9475948 0 0 1 0.0957,-0.23242 8.9475948,8.9475948 0 0 1 0.10352,-0.22852 8.9475948,8.9475948 0 0 1 0.10937,-0.22656 8.9475948,8.9475948 0 0 1 0.11524,-0.22461 8.9475948,8.9475948 0 0 1 0.12109,-0.21875 8.9475948,8.9475948 0 0 1 0.12891,-0.21679 8.9475948,8.9475948 0 0 1 0.13281,-0.21289 8.9475948,8.9475948 0 0 1 0.14063,-0.20899 8.9475948,8.9475948 0 0 1 0.14453,-0.20508 8.9475948,8.9475948 0 0 1 0.15234,-0.20117 8.9475948,8.9475948 0 0 1 0.15625,-0.19726 8.9475948,8.9475948 0 0 1 0.16406,-0.19141 8.9475948,8.9475948 0 0 1 0.16602,-0.1875 8.9475948,8.9475948 0 0 1 0.17383,-0.18164 8.9475948,8.9475948 0 0 1 0.17773,-0.17774 8.9475948,8.9475948 0 0 1 0.1836,-0.17382 8.9475948,8.9475948 0 0 1 0.1875,-0.16602 8.9475948,8.9475948 0 0 1 0.19336,-0.16211 8.9475948,8.9475948 0 0 1 0.19531,-0.15625 8.9475948,8.9475948 0 0 1 0.20117,-0.15234 c 2.36382,-1.71846 4.77638,-3.36917 7.23438,-4.94922 2.45799,-1.58005 4.96272,-3.08862 7.50781,-4.52149 2.54508,-1.43286 5.13076,-2.78951 7.75586,-4.0664 2.27514,-1.10667 4.5916,-2.12408 6.92187,-3.10742 -6.33013,-10.77111 -17.90683,-18.05078 -31.35351,-18.05078 z m 213.912106,32.33398 c 2.31158,0.86345 4.62722,1.8155 6.94336,2.85937 -2.31614,-1.04387 -4.63178,-1.99592 -6.94336,-2.85937 z m -17.69531,31.45312 a 3.07775,3.07775 0 0 0 -3.07812,3.07813 3.07775,3.07775 0 0 0 3.07812,3.07812 h 6.1543 a 3.07775,3.07775 0 0 0 3.07812,-3.07812 3.07775,3.07775 0 0 0 -3.07812,-3.07813 z m 24.62109,0 a 3.07775,3.07775 0 0 0 -3.07617,3.07813 3.07775,3.07775 0 0 0 3.07617,3.07812 h 6.15626 a 3.07775,3.07775 0 0 0 3.07812,-3.07812 3.07775,3.07775 0 0 0 -3.07812,-3.07813 z m 98.48829,0 a 3.07775,3.07775 0 0 0 -3.07813,3.07813 3.07775,3.07775 0 0 0 3.07813,3.07812 h 6.15625 a 3.07775,3.07775 0 0 0 3.07812,-3.07812 3.07775,3.07775 0 0 0 -3.07812,-3.07813 z m 24.65234,0.002 a 3.07775,3.07775 0 0 0 -3.10742,3.04687 3.07775,3.07775 0 0 0 3.04687,3.10938 c 1.88148,0.0188 3.76056,0.1944 5.60938,0.52539 a 3.07775,3.07775 0 0 0 3.57226,-2.48828 3.07775,3.07775 0 0 0 0.0488,-0.58789 3.07775,3.07775 0 0 0 -2.53515,-2.98438 c -2.19061,-0.39217 -4.41293,-0.59888 -6.63477,-0.62109 z m -166.24219,0.0332 a 3.07775,3.07775 0 0 0 -0.11523,0.002 c -2.22146,0.0928 -4.43565,0.37119 -6.61328,0.83594 a 3.07775,3.07775 0 0 0 -2.36719,3.65235 3.07775,3.07775 0 0 0 3.65234,2.36718 c 1.83552,-0.39174 3.70757,-0.62657 5.58594,-0.70508 a 3.07775,3.07775 0 0 0 2.94922,-3.08984 3.07775,3.07775 0 0 0 -0.002,-0.11328 3.07775,3.07775 0 0 0 -3.08985,-2.94922 z m 188.97266,8.17383 a 3.07775,3.07775 0 0 0 -2.42774,1.13281 3.07775,3.07775 0 0 0 0.43946,4.33008 c 1.45415,1.18684 2.80771,2.49837 4.04101,3.91406 a 3.07775,3.07775 0 0 0 4.34375,0.29883 3.07775,3.07775 0 0 0 1.05469,-2.3457 3.07775,3.07775 0 0 0 -0.75586,-1.9961 c -1.46212,-1.67834 -3.06612,-3.23281 -4.79101,-4.64062 a 3.07775,3.07775 0 0 0 -1.9043,-0.69336 z m -211.42188,0.77344 a 3.07775,3.07775 0 0 0 -1.99609,0.75781 c -1.67743,1.46341 -3.23026,3.06894 -4.63672,4.79492 a 3.07775,3.07775 0 0 0 0.44336,4.33008 3.07775,3.07775 0 0 0 4.33008,-0.44141 c 1.1857,-1.45507 2.49548,-2.81073 3.91015,-4.04492 a 3.07775,3.07775 0 0 0 1.05469,-2.34766 3.07775,3.07775 0 0 0 -0.75781,-1.99414 3.07775,3.07775 0 0 0 -2.34766,-1.05468 z m 223.87305,19.84765 a 3.07775,3.07775 0 0 0 -0.55469,0.0664 3.07775,3.07775 0 0 0 -2.36914,3.65039 c 0.39042,1.83537 0.62389,3.70904 0.70117,5.58789 a 3.07775,3.07775 0 0 0 0.11719,0.7168 3.07775,3.07775 0 0 0 -0.0859,0.71875 v 6.15429 a 3.07775,3.07775 0 0 0 3.07813,3.07813 3.07775,3.07775 0 0 0 3.07812,-3.07813 v -6.15429 a 3.07775,3.07775 0 0 0 -0.11914,-0.84375 3.07775,3.07775 0 0 0 0.082,-0.84571 c -0.0914,-2.22105 -0.36669,-4.43491 -0.83007,-6.61328 a 3.07775,3.07775 0 0 0 -3.09766,-2.4375 z m -235.78906,1.17383 a 3.07775,3.07775 0 0 0 -2.98242,2.53906 c -0.38987,2.19002 -0.59505,4.4101 -0.61524,6.63282 a 3.07775,3.07775 0 0 0 3.04883,3.10546 3.07775,3.07775 0 0 0 3.10742,-3.04882 c 0.0171,-1.88067 0.19018,-3.76125 0.51953,-5.61133 a 3.07775,3.07775 0 0 0 0.0469,-0.58789 3.07775,3.07775 0 0 0 -2.53711,-2.98242 3.07775,3.07775 0 0 0 -0.58789,-0.0469 z m -0.52149,24.58789 a 3.07775,3.07775 0 0 0 -3.07812,3.07813 v 6.15625 a 3.07775,3.07775 0 0 0 3.07812,3.07812 3.07775,3.07775 0 0 0 3.07618,-3.07812 v -6.15625 a 3.07775,3.07775 0 0 0 -3.07618,-3.07813 z m 237.19727,6.52149 a 3.07775,3.07775 0 0 0 -3.07813,3.07812 v 6.15625 a 3.07775,3.07775 0 0 0 3.07813,3.07813 3.07775,3.07775 0 0 0 3.07812,-3.07813 v -6.15625 a 3.07775,3.07775 0 0 0 -3.07812,-3.07812 z m -237.19727,18.10156 a 3.07775,3.07775 0 0 0 -3.07812,3.07812 v 6.1543 a 3.07775,3.07775 0 0 0 3.07812,3.07813 3.07775,3.07775 0 0 0 3.07618,-3.07813 v -6.1543 a 3.07775,3.07775 0 0 0 -3.07618,-3.07812 z m 237.19727,6.52148 a 3.07775,3.07775 0 0 0 -3.07813,3.07813 v 6.15429 a 3.07775,3.07775 0 0 0 3.07813,3.07813 3.07775,3.07775 0 0 0 3.07812,-3.07813 v -6.15429 a 3.07775,3.07775 0 0 0 -3.07812,-3.07813 z m -237.19727,18.09961 a 3.07775,3.07775 0 0 0 -3.07812,3.07813 v 6.15625 a 3.07775,3.07775 0 0 0 3.07812,3.07812 3.07775,3.07775 0 0 0 3.07618,-3.07812 v -6.15625 a 3.07775,3.07775 0 0 0 -3.07618,-3.07813 z m 237.19727,6.52149 a 3.07775,3.07775 0 0 0 -3.07813,3.07812 v 6.15625 a 3.07775,3.07775 0 0 0 3.07813,3.07813 3.07775,3.07775 0 0 0 3.07812,-3.07813 v -6.15625 a 3.07775,3.07775 0 0 0 -3.07812,-3.07812 z m -237.17578,18.10156 a 3.07775,3.07775 0 0 0 -3.09961,3.05469 c -0.0148,2.05412 -0.0326,4.23351 0.21875,6.50976 a 3.07775,3.07775 0 0 0 3.39648,2.7207 3.07775,3.07775 0 0 0 2.73828,-3.13671 3.07775,3.07775 0 0 0 -0.0176,-0.25977 c -0.19945,-1.80596 -0.1964,-3.74259 -0.18164,-5.78906 a 3.07775,3.07775 0 0 0 -3.05469,-3.09961 z m 236.99023,6.51172 a 3.07775,3.07775 0 0 0 -3.11133,2.72851 c -0.21324,1.86873 -0.582,3.71798 -1.10546,5.51758 a 3.07775,3.07775 0 0 0 2.0957,3.81641 3.07775,3.07775 0 0 0 3.81445,-2.09571 c 0.62271,-2.14078 1.05856,-4.33078 1.31055,-6.53906 a 3.07775,3.07775 0 0 0 0.0195,-0.44336 3.07775,3.07775 0 0 0 -2.72852,-2.96484 3.07775,3.07775 0 0 0 -0.29492,-0.0195 z m -230.42187,16.75195 a 3.07775,3.07775 0 0 0 -1.76953,0.55664 3.07775,3.07775 0 0 0 -0.75586,4.28516 c 1.27691,1.82418 2.70693,3.53938 4.27343,5.12109 a 3.07775,3.07775 0 0 0 4.35352,0.0215 3.07775,3.07775 0 0 0 0.91016,-2.26368 3.07775,3.07775 0 0 0 -0.88868,-2.08984 c -1.32101,-1.33383 -2.52922,-2.78086 -3.60546,-4.31836 a 3.07775,3.07775 0 0 0 -2.51758,-1.3125 z m 219.74414,4.97852 a 3.07775,3.07775 0 0 0 -2.08985,0.89257 c -1.33294,1.32208 -2.77975,2.53199 -4.3164,3.60938 a 3.07775,3.07775 0 0 0 -0.75196,4.28711 3.07775,3.07775 0 0 0 4.28711,0.75195 c 1.82325,-1.27833 3.53671,-2.71171 5.11719,-4.27929 a 3.07775,3.07775 0 0 0 0.9082,-2.26172 3.07775,3.07775 0 0 0 -0.89062,-2.08985 3.07775,3.07775 0 0 0 -2.26367,-0.91015 z m -200.125,9.09179 a 3.07775,3.07775 0 0 0 -2.94336,2.21485 3.07775,3.07775 0 0 0 2.0918,3.8164 c 2.13984,0.62405 4.33019,1.06306 6.53906,1.31641 a 3.07775,3.07775 0 0 0 3.4082,-2.70703 3.07775,3.07775 0 0 0 0.0195,-0.44141 A 3.07775,3.07775 0 0 0 248,358.85938 c -1.86786,-0.21425 -3.71594,-0.58454 -5.51562,-1.10938 a 3.07775,3.07775 0 0 0 -0.87305,-0.12305 z m 178.29687,1.25196 a 3.07775,3.07775 0 0 0 -0.26172,0.0176 c -1.80578,0.20099 -3.74094,0.19885 -5.78515,0.1836 a 3.07775,3.07775 0 0 0 -3.09961,3.05469 3.07775,3.07775 0 0 0 3.05469,3.10156 c 2.05639,0.0153 4.23567,0.0326 6.51171,-0.22071 a 3.07775,3.07775 0 0 0 2.73633,-3.13867 3.07775,3.07775 0 0 0 -0.0176,-0.26172 3.07775,3.07775 0 0 0 -3.13868,-2.73632 z m -153.80078,0.20117 a 3.07775,3.07775 0 0 0 -3.07812,3.07812 3.07775,3.07775 0 0 0 3.07812,3.07813 h 6.1543 a 3.07775,3.07775 0 0 0 3.07812,-3.07813 3.07775,3.07775 0 0 0 -3.07812,-3.07812 z m 24.6211,0 a 3.07775,3.07775 0 0 0 -3.07813,3.07812 3.07775,3.07775 0 0 0 3.07813,3.07813 h 6.15625 a 3.07775,3.07775 0 0 0 3.07812,-3.07813 3.07775,3.07775 0 0 0 -3.07812,-3.07812 z m 24.62304,0 a 3.07775,3.07775 0 0 0 -3.07812,3.07812 3.07775,3.07775 0 0 0 3.07812,3.07813 h 6.1543 a 3.07775,3.07775 0 0 0 3.07812,-3.07813 3.07775,3.07775 0 0 0 -3.07812,-3.07812 z m 24.6211,0 a 3.07775,3.07775 0 0 0 -3.07813,3.07812 3.07775,3.07775 0 0 0 3.07813,3.07813 h 6.15625 a 3.07775,3.07775 0 0 0 3.07812,-3.07813 3.07775,3.07775 0 0 0 -3.07812,-3.07812 z m 24.62304,0 a 3.07775,3.07775 0 0 0 -3.07812,3.07812 3.07775,3.07775 0 0 0 3.07812,3.07813 h 6.1543 a 3.07775,3.07775 0 0 0 3.07812,-3.07813 3.07775,3.07775 0 0 0 -3.07812,-3.07812 z m 24.6211,0 a 3.07775,3.07775 0 0 0 -3.07813,3.07812 3.07775,3.07775 0 0 0 3.07813,3.07813 h 6.15625 a 3.07775,3.07775 0 0 0 3.07617,-3.07813 3.07775,3.07775 0 0 0 -3.07617,-3.07812 z"/> </svg>