<svg xmlns="http://www.w3.org/2000/svg" viewBox="0 0 512 512"> <path d="M0 0h512v512H0z"/> <path fill="#fff" d="m 342.65122,142.71327 c -10.11494,19.70796 -17.2084,33.57341 -24.07963,44.5542 -44.3602,-19.34824 -77.0014,-29.41763 -104.12297,-28.29493 -9.42036,0.39054 -18.19401,2.11016 -26.58473,5.25093 -16.78144,6.28114 -29.73196,21.27053 -34.43736,36.44491 -4.70541,15.17397 -3.69502,29.85627 -1.06787,44.00826 10.50857,56.6063 51.44322,115.94968 51.44322,115.94968 l 45.12422,-29.3387 c 0,0 -36.92865,-60.30124 -43.6388,-96.44687 -1.67756,-9.03672 -1.18963,-15.87407 -0.45768,-18.23458 0.73196,-2.36052 -0.81442,-0.95498 1.91094,-1.97491 4.5799,-1.71427 27.85806,-1.60779 69.69367,13.77789 -10.68237,7.0022 -24.04481,14.93924 -41.75195,25.38848 H 361.85714 Z M 256,38.703057 c -117.41195,0 -212.96686,95.554793 -212.96686,212.966743 0,117.41194 95.55491,212.96673 212.96686,212.96673 117.41195,0 212.96686,-95.55479 212.96686,-212.96673 C 468.96686,134.25785 373.41195,38.703057 256,38.703057 Z m 0,34.849035 c 98.57807,0 178.11774,79.539718 178.11774,178.117708 0,98.57798 -79.53967,178.1177 -178.11774,178.1177 -98.57811,0 -178.117741,-79.53972 -178.117741,-178.1177 C 77.882259,153.09181 157.42189,73.552092 256,73.552092 Z"/> </svg>