<svg xmlns="http://www.w3.org/2000/svg" viewBox="0 0 512 512"> <path d="M0 0h512v512H0z"/> <path fill="#fff" d="m 151.36138,46.862812 c -16.11765,0 -30.04509,1.329497 -41.78112,3.989879 -11.73616,2.503243 -21.750999,6.180223 -30.044503,11.032014 -8.293634,4.69347 -15.021792,10.404548 -20.185774,17.13483 -5.16388,6.727695 -9.154935,14.238578 -11.971532,22.532905 -2.973189,8.29291 -4.928381,17.29069 -5.867341,26.99309 -1.095626,9.70111 -1.643797,19.87369 -1.643797,30.51409 v 16.19436 h 46.710552 v -16.19436 c 0,-11.8926 0.547246,-21.90802 1.642873,-30.04519 0.938958,-8.13706 3.521005,-14.70889 7.746051,-19.71653 4.225021,-5.00648 10.718751,-8.60605 19.481731,-10.797557 8.60654,-2.347258 20.57771,-3.519733 35.91286,-3.519733 15.17871,0 27.07039,1.172475 35.67693,3.519733 8.44995,2.191507 14.7877,5.791077 19.01273,10.797557 4.22504,5.00764 6.88578,11.57947 7.98105,19.71653 0.93896,8.13717 1.40785,18.15259 1.40785,30.04519 h -0.0936 v 63.37428 c -4.38136,0 -8.52853,0.93544 -12.44054,2.81626 -3.91202,1.7225 -7.43208,4.14717 -10.56173,7.27773 -2.97319,2.97224 -5.39935,6.49442 -7.27715,10.563 -1.72132,3.91144 -2.5817,8.0585 -2.5817,12.43894 v 176.51145 c 0,4.53746 0.86061,8.84178 2.5817,12.91036 1.72121,3.91133 4.06905,7.35503 7.04214,10.32845 2.97315,3.12812 6.41584,5.55405 10.32783,7.27528 4.06848,1.7212 8.37149,2.58182 12.90945,2.58182 h 224.62904 c 4.38159,0 8.52852,-0.86062 12.44054,-2.58182 3.91202,-1.72123 7.35467,-4.14716 10.32787,-7.27528 2.97305,-2.97342 5.24233,-6.41712 6.80709,-10.32845 1.72133,-4.06858 2.58181,-8.3729 2.58181,-12.91036 V 255.52983 c 0,-4.38044 -0.86061,-8.5275 -2.58181,-12.43894 -1.56476,-4.06858 -3.83404,-7.59076 -6.80709,-10.563 -2.9732,-3.13056 -6.41585,-5.55523 -10.32787,-7.27773 -3.91202,-1.87707 -8.05895,-2.81626 -12.44054,-2.81626 H 263.32807 v -63.37428 c 0,-10.6404 -0.54723,-20.81298 -1.64275,-30.51409 -1.09562,-9.7024 -3.13021,-18.70018 -6.10327,-26.99309 -2.97319,-8.294327 -7.04167,-15.80521 -12.20553,-22.532905 -5.32045,-6.730282 -12.12717,-12.44136 -20.42068,-17.13483 -8.2935,-4.851791 -18.30846,-8.528771 -30.04451,-11.032014 -11.73615,-2.660382 -25.58407,-3.989879 -41.54528,-3.989879 z"/> </svg>