<svg xmlns="http://www.w3.org/2000/svg" viewBox="0 0 512 512"><path d="M0 0h512v512H0z"/><path d="M255.924 20.45c-54.1 0-97.998 93.487-97.998 146.82 0 31 14.832 58.603 37.875 76.29 5.862-6.89 12.2-12.815 18.985-17.667l.002-.002c12.787-9.135 26.796-14.05 41.137-14.05 14.327 0 28.333 4.916 41.133 14.05 6.79 4.845 13.13 10.77 18.996 17.665 23.04-17.686 37.87-45.287 37.87-76.284 0-53.333-43.9-146.82-98-146.82zM492.79 34.72l-73.5 173.36-90.06 53.9c3.14 5.195 6.013 10.636 8.602 16.252l96.027-57.47 58.93-138.996V34.72zm-473.714.005v47.043L78.01 220.77l96.1 57.263c2.596-5.613 5.474-11.05 8.62-16.24L92.57 208.07 19.076 34.725zM.713 38.31l-.053.022.053.125v-.146zm510.437 0v.147l.053-.125-.053-.02zM255.924 227.84c-10.748 0-21.285 3.533-31.832 11.068l-.004.002c-9.42 6.738-18.25 16.304-26.068 28.582-14.945 23.472-24.043 54.388-24.043 81.475 0 26.637 8.454 47.245 23.986 61.006l.002.002c14.043 12.435 33.865 19.314 57.96 19.314 24.11 0 43.915-6.88 57.96-19.317 15.533-13.76 23.986-34.37 23.986-61.006 0-27.07-9.096-58.004-24.042-81.475l-.002-.002c-7.82-12.294-16.647-21.858-26.062-28.578-10.568-7.54-21.11-11.072-31.84-11.072zM19.076 238.496v23.443l64.428 51.128 76.582 10.65c.982-6.02 2.295-12.037 3.924-17.99L90.996 295.57l-71.92-57.076zm473.713 0l-71.923 57.078-73.017 10.2c1.627 5.954 2.938 11.973 3.918 17.992l76.593-10.7 64.43-51.128v-23.442zM353.722 355.14c-.297 6.33-1.048 12.446-2.256 18.303l69.078 15.053 72.244 58.13v-23.57l-64.106-51.58-74.96-16.335zm-195.594.075l-74.946 16.258-64.108 51.582v23.57l72.24-58.125 69.08-14.988c-1.21-5.855-1.967-11.97-2.267-18.297zm44.364 6.584c5.58 0 10.106 4.494 10.106 10.057 0 5.547-4.527 10.057-10.106 10.057-5.58 0-10.105-4.494-10.105-10.057 0-5.563 4.525-10.058 10.104-10.058zm107.115 0c5.578 0 10.105 4.494 10.105 10.057 0 5.547-4.527 10.057-10.106 10.057-5.58 0-10.106-4.494-10.106-10.057 0-5.563 4.526-10.058 10.105-10.058zm-74.823 11.333c9.34 0 16.912 7.523 16.912 16.816 0 9.292-7.572 16.816-16.913 16.816-9.34 0-16.91-7.54-16.91-16.817 0-9.278 7.57-16.817 16.91-16.817zm42.527 0c9.34 0 16.913 7.523 16.913 16.816 0 9.292-7.572 16.816-16.913 16.816-9.34 0-16.912-7.54-16.912-16.817 0-9.278 7.572-16.817 16.912-16.817zm64.37 27.246c-3.018 5.46-6.586 10.52-10.7 15.11l51.13 27.14 27.507 51.022h20.862l-34.843-64.634-53.956-28.64zm-171.463.1l-53.99 28.53-34.847 64.642h20.86l27.5-51.015 51.204-27.057c-4.123-4.587-7.7-9.642-10.726-15.1zm30.23 25.317c-4.463.063-9.558 2.31-14.932 7.683-3.778 7.843-5.897 16.56-5.897 25.743 0 16.45 6.775 31.417 17.82 42.51-.03-1.322-.063-2.662-.063-4 0-20.85 7.73-39.355 19.654-50.8 0-10.86-6.763-21.276-16.58-21.136zm111.03 0c-9.817-.14-16.584 10.277-16.584 21.137 11.923 11.444 19.655 29.95 19.655 50.798 0 1.34-.032 2.68-.064 4.002 11.047-11.094 17.82-26.062 17.82-42.51 0-9.183-2.118-17.9-5.896-25.744-5.375-5.374-10.467-7.62-14.93-7.683zm-70.238 14.142c-1.6.02-3.426.826-5.353 2.753-1.356 2.806-2.122 5.945-2.122 9.23 0 5.897 2.423 11.268 6.392 15.253-.016-.478-.015-.956-.015-1.434 0-7.476 2.773-14.122 7.044-18.22 0-3.89-2.427-7.63-5.948-7.583zm29.62 0c-3.52-.048-5.948 3.693-5.948 7.583 4.272 4.097 7.045 10.743 7.045 18.22 0 .477 0 .955-.017 1.433 3.97-3.985 6.393-9.356 6.393-15.254 0-3.284-.766-6.423-2.12-9.23-1.93-1.926-3.754-2.73-5.355-2.753z" fill="#fff"/></svg>